<svg xmlns="http://www.w3.org/2000/svg" xmlns:xlink="http://www.w3.org/1999/xlink" viewBox="0 0 1140 948"><defs><style>.cls-1{isolation:isolate;}.cls-2{fill:#ff9015;}.cls-3{fill:url(#Degradado_sin_nombre_36);}.cls-4{fill:url(#Degradado_sin_nombre_36-2);}.cls-5{fill:url(#linear-gradient);}.cls-6{fill:url(#linear-gradient-2);}.cls-7{fill:url(#Degradado_sin_nombre_147);}.cls-8{fill:url(#Degradado_sin_nombre_147-2);}.cls-9{fill:url(#Degradado_sin_nombre_36-3);}.cls-10{fill:url(#Degradado_sin_nombre_31);}.cls-11{fill:url(#Degradado_sin_nombre_46);}.cls-12{fill:url(#Degradado_sin_nombre_66);}.cls-13{fill:url(#Degradado_sin_nombre_36-4);}.cls-14{fill:url(#Degradado_sin_nombre_36-5);}.cls-15{fill:#f7cc7f;}.cls-16{fill:url(#Degradado_sin_nombre_36-6);}.cls-17,.cls-92{fill:#fff;}.cls-18{fill:#13375b;}.cls-19{fill:#355389;}.cls-20{fill:url(#Degradado_sin_nombre_36-7);}.cls-21{fill:url(#Degradado_sin_nombre_46-2);}.cls-22{fill:#e58761;}.cls-23{fill:url(#Degradado_sin_nombre_83);}.cls-24{fill:url(#Degradado_sin_nombre_83-2);}.cls-25{fill:url(#Degradado_sin_nombre_83-3);}.cls-26{fill:url(#Degradado_sin_nombre_83-4);}.cls-27{fill:url(#Degradado_sin_nombre_83-5);}.cls-28{fill:url(#Degradado_sin_nombre_83-6);}.cls-29{fill:url(#Degradado_sin_nombre_83-7);}.cls-30{fill:url(#Degradado_sin_nombre_83-8);}.cls-31{fill:url(#Degradado_sin_nombre_83-9);}.cls-32{fill:url(#Degradado_sin_nombre_83-10);}.cls-33{fill:url(#Degradado_sin_nombre_83-11);}.cls-34{fill:url(#Degradado_sin_nombre_83-12);}.cls-35{fill:url(#Degradado_sin_nombre_83-13);}.cls-36{fill:url(#Degradado_sin_nombre_36-8);}.cls-37{fill:#f48c7f;}.cls-38{fill:url(#Degradado_sin_nombre_147-3);}.cls-39{fill:#f7a491;}.cls-40{fill:url(#linear-gradient-3);}.cls-41{fill:url(#linear-gradient-4);}.cls-42{fill:url(#Degradado_sin_nombre_46-3);}.cls-43{fill:url(#Degradado_sin_nombre_46-4);}.cls-44{fill:url(#linear-gradient-5);}.cls-45{fill:url(#linear-gradient-6);}.cls-46{fill:url(#Degradado_sin_nombre_83-14);}.cls-47{fill:url(#Degradado_sin_nombre_83-15);}.cls-48{fill:url(#Degradado_sin_nombre_83-16);}.cls-49{fill:url(#linear-gradient-7);}.cls-50{fill:url(#linear-gradient-8);}.cls-51{fill:url(#Degradado_sin_nombre_147-4);}.cls-52{fill:url(#Degradado_sin_nombre_36-9);}.cls-53{fill:url(#Degradado_sin_nombre_46-5);}.cls-54{fill:url(#Degradado_sin_nombre_66-2);}.cls-55{fill:url(#Degradado_sin_nombre_36-10);}.cls-56{fill:url(#Degradado_sin_nombre_31-2);}.cls-57{fill:url(#Degradado_sin_nombre_36-11);}.cls-58{fill:url(#Degradado_sin_nombre_147-5);}.cls-59{fill:url(#Degradado_sin_nombre_36-12);}.cls-60{fill:url(#Degradado_sin_nombre_147-6);}.cls-61{fill:url(#linear-gradient-9);}.cls-62{fill:url(#Degradado_sin_nombre_36-13);}.cls-63{fill:url(#Degradado_sin_nombre_147-7);}.cls-64{fill:url(#linear-gradient-10);}.cls-65{fill:url(#Degradado_sin_nombre_66-3);}.cls-66{fill:url(#Degradado_sin_nombre_36-14);}.cls-67{fill:url(#Degradado_sin_nombre_36-15);}.cls-68{fill:url(#Degradado_sin_nombre_31-3);}.cls-69{fill:url(#Degradado_sin_nombre_31-4);}.cls-70{fill:url(#Degradado_sin_nombre_36-16);}.cls-71{mix-blend-mode:multiply;fill:url(#Degradado_sin_nombre_36-17);}.cls-72{fill:url(#Degradado_sin_nombre_31-5);}.cls-73{fill:url(#Degradado_sin_nombre_31-6);}.cls-74{fill:url(#Degradado_sin_nombre_46-6);}.cls-75{fill:url(#Degradado_sin_nombre_36-18);}.cls-76{fill:url(#Degradado_sin_nombre_36-19);}.cls-77{fill:url(#Degradado_sin_nombre_36-20);}.cls-78{fill:url(#Degradado_sin_nombre_36-21);}.cls-79{fill:url(#Degradado_sin_nombre_36-22);}.cls-80{fill:url(#Degradado_sin_nombre_46-7);}.cls-81{fill:url(#Degradado_sin_nombre_36-23);}.cls-82{fill:url(#Degradado_sin_nombre_36-24);}.cls-83{fill:url(#Degradado_sin_nombre_36-25);}.cls-84{fill:url(#Degradado_sin_nombre_36-26);}.cls-85{fill:url(#Degradado_sin_nombre_36-27);}.cls-86{fill:url(#Degradado_sin_nombre_46-8);}.cls-87{fill:url(#Degradado_sin_nombre_83-17);}.cls-88{fill:url(#Degradado_sin_nombre_83-18);}.cls-89{fill:url(#Degradado_sin_nombre_83-19);}.cls-90{fill:url(#Degradado_sin_nombre_83-20);}.cls-91{fill:none;}.cls-91,.cls-92{stroke:#fff;stroke-miterlimit:10;stroke-width:0.75px;}.cls-93{fill:url(#Degradado_sin_nombre_7);}.cls-94{fill:url(#Degradado_sin_nombre_7-2);}.cls-95{fill:url(#Degradado_sin_nombre_7-3);}.cls-96{fill:#184655;}.cls-97{fill:url(#Degradado_sin_nombre_4);}.cls-98{fill:url(#Degradado_sin_nombre_7-4);}.cls-99{fill:#f79c8d;}.cls-100{fill:url(#Degradado_sin_nombre_46-9);}.cls-101{fill:url(#Degradado_sin_nombre_46-10);}.cls-102{fill:url(#Degradado_sin_nombre_36-28);}.cls-103{fill:url(#linear-gradient-11);}.cls-104{fill:url(#Degradado_sin_nombre_147-8);}.cls-105{fill:url(#linear-gradient-12);}.cls-106{fill:url(#Degradado_sin_nombre_36-29);}.cls-107{fill:url(#Degradado_sin_nombre_46-11);}.cls-108{fill:url(#Degradado_sin_nombre_36-30);}.cls-109{fill:url(#Degradado_sin_nombre_147-9);}.cls-110{fill:url(#linear-gradient-13);}.cls-111{fill:url(#Degradado_sin_nombre_107);}.cls-112{fill:url(#Degradado_sin_nombre_66-4);}.cls-113{fill:#f47458;opacity:0.2;}.cls-114{fill:url(#Degradado_sin_nombre_36-31);}.cls-115{fill:url(#Degradado_sin_nombre_31-7);}.cls-116{fill:url(#Degradado_sin_nombre_36-32);}</style><linearGradient id="Degradado_sin_nombre_36" x1="1052.9" y1="939.04" x2="1062.45" y2="939.04" gradientUnits="userSpaceOnUse"><stop offset="0" stop-color="#fcdeb3"/><stop offset="1" stop-color="#f9c476"/></linearGradient><linearGradient id="Degradado_sin_nombre_36-2" x1="1019.95" y1="940.37" x2="1035.47" y2="940.37" xlink:href="#Degradado_sin_nombre_36"/><linearGradient id="linear-gradient" x1="1022.76" y1="893.06" x2="1036.99" y2="893.06" gradientUnits="userSpaceOnUse"><stop offset="0" stop-color="#2b3582"/><stop offset="1" stop-color="#150e42"/></linearGradient><linearGradient id="linear-gradient-2" x1="1024.53" y1="890.34" x2="1058.82" y2="890.34" xlink:href="#linear-gradient"/><linearGradient id="Degradado_sin_nombre_147" x1="1055.29" y1="944.32" x2="1062.92" y2="944.32" gradientUnits="userSpaceOnUse"><stop offset="0" stop-color="#333"/><stop offset="1"/></linearGradient><linearGradient id="Degradado_sin_nombre_147-2" x1="1018.95" y1="945.33" x2="1035.5" y2="945.33" xlink:href="#Degradado_sin_nombre_147"/><linearGradient id="Degradado_sin_nombre_36-3" x1="1000.29" y1="833.96" x2="1032.79" y2="833.96" xlink:href="#Degradado_sin_nombre_36"/><linearGradient id="Degradado_sin_nombre_31" x1="1025.42" y1="806.67" x2="1067.34" y2="806.67" gradientUnits="userSpaceOnUse"><stop offset="0.01" stop-color="#603813"/><stop offset="1" stop-color="#c69c6d"/></linearGradient><linearGradient id="Degradado_sin_nombre_46" x1="1035.73" y1="812" x2="1035.73" y2="858.05" gradientUnits="userSpaceOnUse"><stop offset="0" stop-color="#fdf53f"/><stop offset="0.18" stop-color="#fcef40"/><stop offset="0.44" stop-color="#f9dd44"/><stop offset="0.73" stop-color="#f3c14a"/><stop offset="1" stop-color="#ed9f51"/></linearGradient><linearGradient id="Degradado_sin_nombre_66" x1="1035.43" y1="818.43" x2="1035.43" y2="803.4" gradientUnits="userSpaceOnUse"><stop offset="0" stop-color="#fcdeb3"/><stop offset="1" stop-color="#f9a262"/></linearGradient><linearGradient id="Degradado_sin_nombre_36-4" x1="1026.79" y1="798.79" x2="1029.12" y2="798.79" xlink:href="#Degradado_sin_nombre_36"/><linearGradient id="Degradado_sin_nombre_36-5" x1="1027.87" y1="798.4" x2="1039.54" y2="798.4" xlink:href="#Degradado_sin_nombre_36"/><linearGradient id="Degradado_sin_nombre_36-6" x1="1038.22" y1="798.39" x2="1040.95" y2="798.39" xlink:href="#Degradado_sin_nombre_36"/><linearGradient id="Degradado_sin_nombre_36-7" x1="1021.01" y1="843.21" x2="1050.71" y2="843.21" xlink:href="#Degradado_sin_nombre_36"/><linearGradient id="Degradado_sin_nombre_46-2" x1="1045.35" y1="814.32" x2="1045.35" y2="842.92" xlink:href="#Degradado_sin_nombre_46"/><linearGradient id="Degradado_sin_nombre_83" x1="71.43" y1="907.47" x2="71.43" y2="938.72" gradientUnits="userSpaceOnUse"><stop offset="0" stop-color="#99ca2f"/><stop offset="0.13" stop-color="#8fc62e"/><stop offset="0.34" stop-color="#74bc2d"/><stop offset="0.62" stop-color="#48ac2b"/><stop offset="0.94" stop-color="#0b9628"/><stop offset="1" stop-color="#009227"/></linearGradient><linearGradient id="Degradado_sin_nombre_83-2" x1="47.04" y1="872.34" x2="47.04" y2="886.77" xlink:href="#Degradado_sin_nombre_83"/><linearGradient id="Degradado_sin_nombre_83-3" x1="75.66" y1="853.33" x2="75.66" y2="861.21" xlink:href="#Degradado_sin_nombre_83"/><linearGradient id="Degradado_sin_nombre_83-4" x1="1089.26" y1="775.47" x2="1089.26" y2="806.72" xlink:href="#Degradado_sin_nombre_83"/><linearGradient id="Degradado_sin_nombre_83-5" x1="1113.87" y1="831.34" x2="1113.87" y2="845.77" xlink:href="#Degradado_sin_nombre_83"/><linearGradient id="Degradado_sin_nombre_83-6" x1="1082.49" y1="863.33" x2="1082.49" y2="871.21" xlink:href="#Degradado_sin_nombre_83"/><linearGradient id="Degradado_sin_nombre_83-7" x1="481.04" y1="810.34" x2="481.04" y2="824.77" xlink:href="#Degradado_sin_nombre_83"/><linearGradient id="Degradado_sin_nombre_83-8" x1="560.04" y1="817.34" x2="560.04" y2="831.77" xlink:href="#Degradado_sin_nombre_83"/><linearGradient id="Degradado_sin_nombre_83-9" x1="429.46" y1="735" x2="429.46" y2="780.56" xlink:href="#Degradado_sin_nombre_83"/><linearGradient id="Degradado_sin_nombre_83-10" x1="744.73" y1="703" x2="744.73" y2="772.56" xlink:href="#Degradado_sin_nombre_83"/><linearGradient id="Degradado_sin_nombre_83-11" x1="699.54" y1="804.34" x2="699.54" y2="831.02" xlink:href="#Degradado_sin_nombre_83"/><linearGradient id="Degradado_sin_nombre_83-12" x1="310.66" y1="825.33" x2="310.66" y2="833.21" xlink:href="#Degradado_sin_nombre_83"/><linearGradient id="Degradado_sin_nombre_83-13" x1="615.66" y1="801.33" x2="615.66" y2="809.21" xlink:href="#Degradado_sin_nombre_83"/><linearGradient id="Degradado_sin_nombre_36-8" x1="877.62" y1="749.72" x2="911.44" y2="749.72" xlink:href="#Degradado_sin_nombre_36"/><linearGradient id="Degradado_sin_nombre_147-3" x1="843.12" y1="847.52" x2="854.85" y2="847.52" xlink:href="#Degradado_sin_nombre_147"/><linearGradient id="linear-gradient-3" x1="870.01" y1="806.68" x2="890.45" y2="806.68" xlink:href="#linear-gradient"/><linearGradient id="linear-gradient-4" x1="847.03" y1="805.5" x2="885.65" y2="805.5" xlink:href="#linear-gradient"/><linearGradient id="Degradado_sin_nombre_46-3" x1="880.5" y1="737" x2="890.29" y2="737" xlink:href="#Degradado_sin_nombre_46"/><linearGradient id="Degradado_sin_nombre_46-4" x1="875.98" y1="726.02" x2="875.98" y2="777.78" xlink:href="#Degradado_sin_nombre_46"/><linearGradient id="linear-gradient-5" x1="901.87" y1="723.91" x2="931.91" y2="723.91" gradientUnits="userSpaceOnUse"><stop offset="0.04" stop-color="#f7d9cf"/><stop offset="0.46" stop-color="#ffe1c2"/><stop offset="0.87" stop-color="#f7cfc1"/></linearGradient><linearGradient id="linear-gradient-6" x1="901.87" y1="722.43" x2="931.91" y2="722.43" xlink:href="#linear-gradient-5"/><linearGradient id="Degradado_sin_nombre_83-14" x1="823.73" y1="755.14" x2="912.26" y2="755.14" xlink:href="#Degradado_sin_nombre_83"/><linearGradient id="Degradado_sin_nombre_83-15" x1="870.33" y1="724.31" x2="870.33" y2="797.4" xlink:href="#Degradado_sin_nombre_83"/><linearGradient id="Degradado_sin_nombre_83-16" x1="829.13" y1="764.49" x2="920.47" y2="764.49" xlink:href="#Degradado_sin_nombre_83"/><linearGradient id="linear-gradient-7" x1="823.73" y1="790.89" x2="838.46" y2="790.89" gradientUnits="userSpaceOnUse"><stop offset="0.01" stop-color="#ed5eb6"/><stop offset="0.13" stop-color="#f783c5"/><stop offset="0.25" stop-color="#ffa3d2"/><stop offset="0.62" stop-color="#dc5199"/><stop offset="0.72" stop-color="#df589e"/><stop offset="0.81" stop-color="#e463a6"/><stop offset="1" stop-color="#dc3d8f"/></linearGradient><linearGradient id="linear-gradient-8" x1="827.84" y1="781.57" x2="845.3" y2="791.65" gradientUnits="userSpaceOnUse"><stop offset="0" stop-color="#bec5d8"/><stop offset="0.21" stop-color="#ebedf3"/><stop offset="0.24" stop-color="#e2e4ec"/><stop offset="0.5" stop-color="#9097b3"/><stop offset="0.62" stop-color="#70789c"/><stop offset="0.68" stop-color="#767ea3"/><stop offset="0.77" stop-color="#888eb5"/><stop offset="0.82" stop-color="#949ac2"/><stop offset="1" stop-color="#8b90b5"/></linearGradient><linearGradient id="Degradado_sin_nombre_147-4" x1="922.92" y1="716.16" x2="931.91" y2="716.16" xlink:href="#Degradado_sin_nombre_147"/><linearGradient id="Degradado_sin_nombre_36-9" x1="845.47" y1="759.83" x2="863.38" y2="759.83" xlink:href="#Degradado_sin_nombre_36"/><linearGradient id="Degradado_sin_nombre_46-5" x1="859.41" y1="727.63" x2="859.41" y2="748.66" xlink:href="#Degradado_sin_nombre_46"/><linearGradient id="Degradado_sin_nombre_66-2" x1="874.98" y1="734.25" x2="874.98" y2="718.67" xlink:href="#Degradado_sin_nombre_66"/><linearGradient id="Degradado_sin_nombre_36-10" x1="870.94" y1="714.12" x2="881.01" y2="714.12" xlink:href="#Degradado_sin_nombre_36"/><linearGradient id="Degradado_sin_nombre_31-2" x1="866.86" y1="712.33" x2="879.83" y2="712.33" xlink:href="#Degradado_sin_nombre_31"/><linearGradient id="Degradado_sin_nombre_36-11" x1="871.65" y1="715.15" x2="873.77" y2="715.15" xlink:href="#Degradado_sin_nombre_36"/><linearGradient id="Degradado_sin_nombre_147-5" x1="868.24" y1="852.48" x2="885.61" y2="852.48" xlink:href="#Degradado_sin_nombre_147"/><linearGradient id="Degradado_sin_nombre_36-12" x1="404.09" y1="863.01" x2="427.22" y2="863.01" xlink:href="#Degradado_sin_nombre_36"/><linearGradient id="Degradado_sin_nombre_147-6" x1="416.83" y1="872.71" x2="438.12" y2="872.71" xlink:href="#Degradado_sin_nombre_147"/><linearGradient id="linear-gradient-9" x1="343.64" y1="847.75" x2="418.26" y2="847.75" xlink:href="#linear-gradient"/><linearGradient id="Degradado_sin_nombre_36-13" x1="375.18" y1="891.81" x2="382.7" y2="891.81" xlink:href="#Degradado_sin_nombre_36"/><linearGradient id="Degradado_sin_nombre_147-7" x1="368.62" y1="905.86" x2="386.05" y2="905.86" xlink:href="#Degradado_sin_nombre_147"/><linearGradient id="linear-gradient-10" x1="338.37" y1="859.22" x2="392.12" y2="859.22" xlink:href="#linear-gradient"/><linearGradient id="Degradado_sin_nombre_66-3" x1="357.86" y1="795.06" x2="357.86" y2="766.06" xlink:href="#Degradado_sin_nombre_66"/><linearGradient id="Degradado_sin_nombre_36-14" x1="352.64" y1="772.64" x2="366.48" y2="772.64" xlink:href="#Degradado_sin_nombre_36"/><linearGradient id="Degradado_sin_nombre_36-15" x1="352.66" y1="772.97" x2="363.74" y2="772.97" xlink:href="#Degradado_sin_nombre_36"/><linearGradient id="Degradado_sin_nombre_31-3" x1="358.45" y1="768.26" x2="361.35" y2="768.26" xlink:href="#Degradado_sin_nombre_31"/><linearGradient id="Degradado_sin_nombre_31-4" x1="363.84" y1="769.04" x2="366.74" y2="769.04" xlink:href="#Degradado_sin_nombre_31"/><linearGradient id="Degradado_sin_nombre_36-16" x1="350.8" y1="771.84" x2="355.17" y2="771.84" xlink:href="#Degradado_sin_nombre_36"/><linearGradient id="Degradado_sin_nombre_36-17" x1="350.81" y1="771.66" x2="354.52" y2="771.66" xlink:href="#Degradado_sin_nombre_36"/><linearGradient id="Degradado_sin_nombre_31-5" x1="354.35" y1="762.97" x2="366.32" y2="762.97" xlink:href="#Degradado_sin_nombre_31"/><linearGradient id="Degradado_sin_nombre_31-6" x1="352.64" y1="778.57" x2="365.49" y2="778.57" xlink:href="#Degradado_sin_nombre_31"/><linearGradient id="Degradado_sin_nombre_46-6" x1="2338.3" y1="804.5" x2="2338.3" y2="756.33" gradientTransform="matrix(-1, 0, 0, 1, 2712.96, 0)" xlink:href="#Degradado_sin_nombre_46"/><linearGradient id="Degradado_sin_nombre_36-18" x1="379.29" y1="755.26" x2="385.5" y2="755.26" xlink:href="#Degradado_sin_nombre_36"/><linearGradient id="Degradado_sin_nombre_36-19" x1="381.2" y1="749.52" x2="384.77" y2="749.52" xlink:href="#Degradado_sin_nombre_36"/><linearGradient id="Degradado_sin_nombre_36-20" x1="378.29" y1="750.14" x2="383.99" y2="750.14" xlink:href="#Degradado_sin_nombre_36"/><linearGradient id="Degradado_sin_nombre_36-21" x1="376.64" y1="751.73" x2="382.98" y2="751.73" xlink:href="#Degradado_sin_nombre_36"/><linearGradient id="Degradado_sin_nombre_36-22" x1="376.6" y1="753.28" x2="382.76" y2="753.28" xlink:href="#Degradado_sin_nombre_36"/><linearGradient id="Degradado_sin_nombre_46-7" x1="2375.09" y1="803.04" x2="2375.09" y2="756.33" gradientTransform="matrix(-1, 0, 0, 1, 2712.96, 0)" xlink:href="#Degradado_sin_nombre_46"/><linearGradient id="Degradado_sin_nombre_36-23" x1="333.18" y1="755.47" x2="339.4" y2="755.47" xlink:href="#Degradado_sin_nombre_36"/><linearGradient id="Degradado_sin_nombre_36-24" x1="333.93" y1="749.72" x2="337.51" y2="749.72" xlink:href="#Degradado_sin_nombre_36"/><linearGradient id="Degradado_sin_nombre_36-25" x1="334.7" y1="750.35" x2="340.42" y2="750.35" xlink:href="#Degradado_sin_nombre_36"/><linearGradient id="Degradado_sin_nombre_36-26" x1="335.72" y1="751.94" x2="342.06" y2="751.94" xlink:href="#Degradado_sin_nombre_36"/><linearGradient id="Degradado_sin_nombre_36-27" x1="335.93" y1="753.49" x2="342.09" y2="753.49" xlink:href="#Degradado_sin_nombre_36"/><linearGradient id="Degradado_sin_nombre_46-8" x1="2357.96" y1="787.19" x2="2357.96" y2="869.9" gradientTransform="matrix(-1, 0, 0, 1, 2712.96, 0)" xlink:href="#Degradado_sin_nombre_46"/><linearGradient id="Degradado_sin_nombre_83-17" x1="-3904.39" y1="-1050.63" x2="-3955.52" y2="-1081.62" gradientTransform="matrix(-0.98, -0.2, 0, 0.93, -3646.07, 1034.98)" xlink:href="#Degradado_sin_nombre_83"/><linearGradient id="Degradado_sin_nombre_83-18" x1="-3932.77" y1="-1062.09" x2="-3991.28" y2="-1123.96" gradientTransform="matrix(-0.98, -0.2, 0, 0.93, -3646.07, 1034.98)" xlink:href="#Degradado_sin_nombre_83"/><linearGradient id="Degradado_sin_nombre_83-19" x1="-3908.12" y1="-1051.15" x2="-3955.89" y2="-1080.1" gradientTransform="matrix(-0.98, -0.2, 0, 0.93, -3646.07, 1034.98)" xlink:href="#Degradado_sin_nombre_83"/><linearGradient id="Degradado_sin_nombre_83-20" x1="1293.82" y1="-878.57" x2="1315.65" y2="-884.89" gradientTransform="translate(-1228.13 1425.69) rotate(11.34)" xlink:href="#Degradado_sin_nombre_83"/><linearGradient id="Degradado_sin_nombre_7" x1="112.72" y1="929.69" x2="121.06" y2="929.69" gradientTransform="matrix(0.98, -0.19, 0.19, 1.02, -171.21, 3.85)" gradientUnits="userSpaceOnUse"><stop offset="0" stop-color="gray"/><stop offset="0.14" stop-color="#8a8a8a"/><stop offset="0.39" stop-color="#a5a5a5"/><stop offset="0.71" stop-color="#d1d1d1"/><stop offset="0.99" stop-color="#fff"/></linearGradient><linearGradient id="Degradado_sin_nombre_7-2" x1="180.05" y1="929.77" x2="188.63" y2="929.77" gradientTransform="matrix(1, 0, 0, 1, 0, 0)" xlink:href="#Degradado_sin_nombre_7"/><linearGradient id="Degradado_sin_nombre_7-3" x1="125.04" y1="929.77" x2="133.63" y2="929.77" gradientTransform="matrix(1, 0, 0, 1, 0, 0)" xlink:href="#Degradado_sin_nombre_7"/><linearGradient id="Degradado_sin_nombre_4" x1="148.82" y1="832.59" x2="148.82" y2="922.9" gradientUnits="userSpaceOnUse"><stop offset="0" stop-color="#909090"/><stop offset="0.2" stop-color="#a1a1a1"/><stop offset="0.61" stop-color="#cfcfcf"/><stop offset="0.99" stop-color="#fff"/></linearGradient><linearGradient id="Degradado_sin_nombre_7-4" x1="105.91" y1="878.56" x2="186.68" y2="878.56" gradientTransform="matrix(1, 0, 0, 1, 0, 0)" xlink:href="#Degradado_sin_nombre_7"/><linearGradient id="Degradado_sin_nombre_46-9" x1="164.92" y1="844.24" x2="164.92" y2="868.49" xlink:href="#Degradado_sin_nombre_46"/><linearGradient id="Degradado_sin_nombre_46-10" x1="147.79" y1="842.4" x2="147.79" y2="893.9" xlink:href="#Degradado_sin_nombre_46"/><linearGradient id="Degradado_sin_nombre_36-28" x1="138.1" y1="939.41" x2="148.63" y2="939.41" xlink:href="#Degradado_sin_nombre_36"/><linearGradient id="linear-gradient-11" x1="131.9" y1="896.8" x2="184.2" y2="896.8" xlink:href="#linear-gradient"/><linearGradient id="Degradado_sin_nombre_147-8" x1="137.87" y1="944.58" x2="149.05" y2="944.58" xlink:href="#Degradado_sin_nombre_147"/><linearGradient id="linear-gradient-12" x1="128.28" y1="913.34" x2="148.14" y2="913.34" xlink:href="#linear-gradient"/><linearGradient id="Degradado_sin_nombre_36-29" x1="128.38" y1="867.32" x2="166.45" y2="867.32" xlink:href="#Degradado_sin_nombre_36"/><linearGradient id="Degradado_sin_nombre_46-11" x1="133.14" y1="844.32" x2="133.14" y2="869.83" xlink:href="#Degradado_sin_nombre_46"/><linearGradient id="Degradado_sin_nombre_36-30" x1="165.91" y1="942.68" x2="182.59" y2="942.68" xlink:href="#Degradado_sin_nombre_36"/><linearGradient id="Degradado_sin_nombre_147-9" x1="164.97" y1="945.18" x2="185.16" y2="945.18" xlink:href="#Degradado_sin_nombre_147"/><linearGradient id="linear-gradient-13" x1="166.23" y1="913.74" x2="187.13" y2="913.74" xlink:href="#linear-gradient"/><linearGradient id="Degradado_sin_nombre_107" x1="132.58" y1="876.54" x2="187.47" y2="876.54" gradientUnits="userSpaceOnUse"><stop offset="0" stop-color="#4d4d4d"/><stop offset="1" stop-color="#1a1a1a"/></linearGradient><linearGradient id="Degradado_sin_nombre_66-4" x1="149.62" y1="852.19" x2="149.62" y2="833.25" xlink:href="#Degradado_sin_nombre_66"/><linearGradient id="Degradado_sin_nombre_36-31" x1="144.71" y1="827.71" x2="156.95" y2="827.71" xlink:href="#Degradado_sin_nombre_36"/><linearGradient id="Degradado_sin_nombre_31-7" x1="139.75" y1="825.53" x2="155.51" y2="825.53" xlink:href="#Degradado_sin_nombre_31"/><linearGradient id="Degradado_sin_nombre_36-32" x1="145.57" y1="828.97" x2="148.14" y2="828.97" xlink:href="#Degradado_sin_nombre_36"/></defs><g class="cls-1"><g id="Capa_1" data-name="Capa 1"><rect class="cls-2" y="760.53" width="1140" height="187.47"/><path class="cls-3" d="M1058.06,930.94s.78,5.44,2.12,7.2a13.73,13.73,0,0,1,1.82,2.4c.84,1.66.37,4.12-.25,5.48-.32.7,0,.7-.7.92a4.43,4.43,0,0,1-5.34-2.52,12.83,12.83,0,0,1-1-4.64c-.23-4.94-1.76-7.45-1.76-7.45Z"/><path class="cls-4" d="M1034.58,933.43s-.48,6.13-.09,8.13c.21,1.07,1.38,3.26.84,4.27a2.73,2.73,0,0,1-1.14,1.26l-13.86.22c-.76,0-.26-.48.35-.93a28.73,28.73,0,0,1,5-2.77c.21-.1,1-.58,1.24-.75a9.52,9.52,0,0,0,2-1.76c1-1.12,1.08-6.52,1.08-6.52Z"/><path class="cls-5" d="M1023.75,851.87s-1.74,10-.6,16.49,6.65,67.07,6.65,67.07l6.11.35s1.28-25.29,1-28.81a55.09,55.09,0,0,0-2-9.4l.61-20.41-7.72-26.83Z"/><path class="cls-6" d="M1041.71,849.78s4.82,7.28,6,13.31-.84,24.55,1.37,32.45c1.19,4.28,5.71,10.89,6.4,16.41s3.38,20,3.38,20l-6.11,1.22L1038.52,897l-11.14-32.68-2.85-16.83Z"/><path class="cls-7" d="M1055.29,943.7c3.33.69,5.54-1.52,6.7-3.18.84,1.88,1.26,4.68.63,6.22-.54,1.36-2.15,1.32-3.41,1.37a3.28,3.28,0,0,1-3-2.1A15,15,0,0,1,1055.29,943.7Z"/><path class="cls-8" d="M1026.9,942.91a10.87,10.87,0,0,0,7.89-.36c.39,1.29.91,2.92.64,3.86-.34,1.15-.82,1.41-1.24,1.42-3.35.11-12.27.25-14.82.28-.35,0-.55-.48-.32-.8C1019.68,946.43,1026.63,943.11,1026.9,942.91Z"/><path class="cls-9" d="M1001.82,834.66c-.26-.54,2.43-1.28,2.52-1.86s-3.52-.26-3.7-.75c-.34-.89,3.93-.6,3.8-1s-4.51-.95-4.12-1.73,4.48,1,4.55.5-4-1.34-4-2.44c0-.6,6.71,2.27,7.42,1.87s-1.12-3-.57-3.48,2.91,5,3.33,5.14,9.67,3,12.81,3.42c.27-1.07,2.63-6.92,2.86-7.92,1.84,1,4.19-.22,6.08.71-1,3.36-3.08,14.4-3.93,14.89-2.6,1.52-16.27-5.7-18.52-7s-3.42-.66-4.89-1S1002.07,835.21,1001.82,834.66Z"/><path class="cls-10" d="M1026.13,802.14c-.69-3.13-1.36-6.27.45-9.7a8.82,8.82,0,0,1,6.94-4.73c8.31-1,6.53,6.78,18.15,8.46,3.61.52,7,1,10,2.82,5.44,3.24,7.49,8.44,3.88,16.91-8.83,20.75-30,2.72-33.21-.95S1026.57,804.15,1026.13,802.14Z"/><path class="cls-11" d="M1039.21,812s4.2.48,6.71,3.21-4.06,24.68-4.51,28.16,4.36,13.09,4.36,13.09-16.39,3.26-20.65.44c0,0-.37-26.86.08-29.34s4.26-12.58,5.18-13.57S1039.21,812,1039.21,812Z"/><path class="cls-12" d="M1037.1,803.54s0,.18.09.5c.28,1.52,1.37,6.57,2.11,8,.89,1.68-3,7-6.83,6.38-1.13-.19,1-4.92.85-5.42-.19-1-.45-2.26-.72-3.6l-.44-2.24c-.4-2-.74-3.72-.74-3.72Z"/><path class="cls-13" d="M1026.89,799.1c.26,1.06.95,1.77,1.54,1.59s.85-1.17.59-2.22-1-1.77-1.54-1.59S1026.63,798.05,1026.89,799.1Z"/><path class="cls-14" d="M1031.38,790.37c-3.77,1.25-3.79,6.09-3.27,9.81.61,4.37,4.72,8.49,8.89,4.85,2.55-2.23,2.85-5.6,2.33-8.38a.85.85,0,0,0-.22,0C1036.89,796.35,1032.5,791.61,1031.38,790.37Z"/><path class="cls-15" d="M1042,800.22v0Z"/><path class="cls-16" d="M1038.28,798.12c-.21,1.13.21,2.17.93,2.32s1.48-.65,1.69-1.78-.21-2.17-.94-2.32S1038.48,797,1038.28,798.12Z"/><rect class="cls-17" x="1021.57" y="830.96" width="19.7" height="25.63" rx="0.97" transform="translate(-111.28 158.19) rotate(-8.32)"/><path class="cls-18" d="M1025.24,831a.21.21,0,0,1,.17-.22l7.33-1.07a.19.19,0,0,1,.22.17l.11.76-7.71,1.13Z"/><path class="cls-18" d="M1028,830.6a1.17,1.17,0,0,0,1.33,1,1.15,1.15,0,0,0,1-1.32,1.17,1.17,0,1,0-2.31.34Zm.42-.07a.75.75,0,1,1,.85.64A.75.75,0,0,1,1028.37,830.53Z"/><path class="cls-19" d="M1025.34,830.76a.19.19,0,0,0-.1.19l.12.77,7.71-1.13a1,1,0,0,1-.81,1.09l-5.81.85a1,1,0,0,1-1.09-.81l-.12-.77A.19.19,0,0,1,1025.34,830.76Z"/><path class="cls-17" d="M1030.71,802.35l4,0a1.73,1.73,0,0,1-1.82,1.57C1030.72,804,1030.71,802.35,1030.71,802.35Z"/><path class="cls-20" d="M1050.68,835.81l-6.37.65s.11,5.41,0,6c0,0-10.89,3-15.44,3.83,0,0-2.07-1.17-2.91-1.54a20.22,20.22,0,0,0-3.59-.85c-.5-.06-.33.48.1.67a4.15,4.15,0,0,1,1.85,1.35,3.5,3.5,0,0,1-1.38-.11c-.47-.21-1.13-.66-1.14-.89s-.12-.8-.27-.77-.1.2-.15.39l-.15.55c-.08.33-.17.82-.21,1a15.67,15.67,0,0,0,.27,2.35c.08.89.33,1.28.8,1.51a11.54,11.54,0,0,0,2.74.55,18.44,18.44,0,0,0,5-.5c.87-.1,14.74-1.47,14.74-1.47s5.51-.79,5.87-1.74S1050.68,835.81,1050.68,835.81Z"/><path class="cls-21" d="M1045.15,814.41s2,1,3.78,5.07c1.68,3.91,2.17,23.44,2.17,23.44l-6.66-1.11-3.39-9.11a16.69,16.69,0,0,1,1.73-16.6C1043.72,814.82,1044.58,814,1045.15,814.41Z"/><path d="M1034.17,797.54a.48.48,0,0,1-.35.59.49.49,0,0,1-.6-.35.48.48,0,0,1,.35-.59A.49.49,0,0,1,1034.17,797.54Z"/><path d="M1029.89,797.7a.5.5,0,0,1-.26.64.48.48,0,0,1-.64-.25.49.49,0,1,1,.9-.39Z"/><path d="M1032.93,796.88a.18.18,0,0,0,.15,0,.89.89,0,0,1,.6-.25.79.79,0,0,1,.56.31.17.17,0,0,0,.25,0,.17.17,0,0,0,0-.24,1.13,1.13,0,0,0-.81-.44,1.31,1.31,0,0,0-.86.35.18.18,0,0,0,0,.25A.19.19,0,0,0,1032.93,796.88Z"/><path d="M1028.57,797.28a.15.15,0,0,0,.14-.07.94.94,0,0,1,.56-.34.79.79,0,0,1,.6.22.17.17,0,0,0,.25,0,.17.17,0,0,0,0-.24,1.11,1.11,0,0,0-.88-.3,1.24,1.24,0,0,0-.79.48.18.18,0,0,0,0,.24A.19.19,0,0,0,1028.57,797.28Z"/><path class="cls-17" d="M1030,797.71a.2.2,0,1,1-.36.15.19.19,0,0,1,.1-.25A.2.2,0,0,1,1030,797.71Z"/><path class="cls-17" d="M1034.29,797.64a.21.21,0,0,1-.14.24.19.19,0,0,1-.24-.14.2.2,0,0,1,.14-.24A.21.21,0,0,1,1034.29,797.64Z"/><path d="M1028.73,798a.12.12,0,0,0,.11-.07.81.81,0,0,1,1.11-.26.12.12,0,0,0,.17-.06.12.12,0,0,0,0-.17,1.05,1.05,0,0,0-1.45.37.12.12,0,0,0,0,.17Z"/><path d="M1033,797.59a.15.15,0,0,0,.12-.05.79.79,0,0,1,1.13-.09.14.14,0,0,0,.19,0,.13.13,0,0,0,0-.18,1,1,0,0,0-1.49.14.12.12,0,0,0,0,.18Z"/><path class="cls-22" d="M1031.6,797.17a1,1,0,0,1,0,.25c-.09.37-.16.75-.22,1.13a4.44,4.44,0,0,1-.45,1.74,1.23,1.23,0,0,0-.14.25c-.14.46.62.56.92.52s.39-.22.57-.41a.22.22,0,0,1,.2-.07.19.19,0,0,1,.1.22.49.49,0,0,1-.14.21c-.49.45-1.52.57-1.84-.15a.92.92,0,0,1,.19-1s0,0,0-.07,0,0,0,0c.18-.92.36-1.84.53-2.76a.15.15,0,0,1,.23-.09A.17.17,0,0,1,1031.6,797.17Z"/><path class="cls-23" d="M58,908.84l26.25-1.36A3.57,3.57,0,0,1,88,911.2l-.68,24.13a3.54,3.54,0,0,1-3.79,3.38l-24.92-1.23a3.42,3.42,0,0,1-3.13-3.36l-.61-21.62A3.45,3.45,0,0,1,58,908.84Z"/><path class="cls-24" d="M40.82,873l12.12-.63a1.65,1.65,0,0,1,1.75,1.72l-.31,11.15a1.64,1.64,0,0,1-1.75,1.56l-11.51-.57a1.58,1.58,0,0,1-1.45-1.55l-.28-10A1.6,1.6,0,0,1,40.82,873Z"/><path class="cls-25" d="M72.26,853.67l6.63-.34a.89.89,0,0,1,1,.94l-.17,6.09a.89.89,0,0,1-1,.85l-6.29-.31a.86.86,0,0,1-.79-.85l-.16-5.45A.88.88,0,0,1,72.26,853.67Z"/><path class="cls-26" d="M1075.79,776.84l26.24-1.36a3.57,3.57,0,0,1,3.8,3.72l-.68,24.13a3.54,3.54,0,0,1-3.79,3.38l-24.92-1.23a3.43,3.43,0,0,1-3.14-3.36l-.6-21.62A3.45,3.45,0,0,1,1075.79,776.84Z"/><path class="cls-27" d="M1107.65,832l12.12-.63a1.65,1.65,0,0,1,1.75,1.72l-.31,11.15a1.64,1.64,0,0,1-1.75,1.56L1108,845.2a1.58,1.58,0,0,1-1.45-1.55l-.28-10A1.6,1.6,0,0,1,1107.65,832Z"/><path class="cls-28" d="M1079.09,863.67l6.62-.34a.89.89,0,0,1,1,.94l-.17,6.09a.89.89,0,0,1-1,.85l-6.29-.31a.88.88,0,0,1-.8-.85l-.15-5.45A.87.87,0,0,1,1079.09,863.67Z"/><path class="cls-29" d="M474.82,811l12.12-.63a1.65,1.65,0,0,1,1.75,1.72l-.31,11.15a1.64,1.64,0,0,1-1.75,1.56l-11.51-.57a1.58,1.58,0,0,1-1.45-1.55l-.28-10A1.6,1.6,0,0,1,474.82,811Z"/><path class="cls-30" d="M553.82,818l12.12-.63a1.65,1.65,0,0,1,1.75,1.72l-.31,11.15a1.64,1.64,0,0,1-1.75,1.56l-11.51-.57a1.58,1.58,0,0,1-1.45-1.55l-.28-10A1.6,1.6,0,0,1,553.82,818Z"/><path class="cls-31" d="M409.81,737l38.27-2a5.19,5.19,0,0,1,5.53,5.42l-1,35.2a5.17,5.17,0,0,1-5.52,4.93l-36.34-1.8a5,5,0,0,1-4.57-4.89l-.89-31.53A5,5,0,0,1,409.81,737Z"/><path class="cls-32" d="M774.73,706.05l-58.43-3a7.94,7.94,0,0,0-8.45,8.28L709.36,765a7.89,7.89,0,0,0,8.44,7.52l55.48-2.74a7.64,7.64,0,0,0,7-7.47l1.35-48.14C781.73,709.92,778.67,706.26,774.73,706.05Z"/><path class="cls-33" d="M688,805.51l22.41-1.16a3,3,0,0,1,3.24,3.17l-.58,20.61a3,3,0,0,1-3.23,2.89l-21.29-1a2.92,2.92,0,0,1-2.67-2.87l-.52-18.46A3,3,0,0,1,688,805.51Z"/><path class="cls-34" d="M307.26,825.67l6.63-.34a.89.89,0,0,1,.95.94l-.17,6.09a.89.89,0,0,1-.95.85l-6.29-.31a.86.86,0,0,1-.79-.85l-.16-5.45A.88.88,0,0,1,307.26,825.67Z"/><path class="cls-35" d="M612.26,801.67l6.63-.34a.89.89,0,0,1,1,.94l-.17,6.09a.89.89,0,0,1-.95.85l-6.29-.31a.86.86,0,0,1-.79-.85l-.16-5.45A.88.88,0,0,1,612.26,801.67Z"/><path class="cls-36" d="M878.39,737.13c1-.83,8.9,2.63,8.8,3.83s5.5,12.88,5.5,12.88l9.68-7.72h0c.09-.28,1-3.28,1-3.82s1.68-1.55,2.44-1.4-.65,1.09-.74,1.27c-.25.47.72.65.72.65s2.8-1.53,2.86-2.43.63-2.8,1.24-2.4c.31.2.3,1.54.21,2.18.18-.72.43-1.54.68-1.62.45-.15.68.43.59.71s-.81,3.35-1,3.7-4.73,4-5.38,4.76c0,0-12.52,14.31-13.41,14.68s-3.57-4.6-6.2-7.87S875.21,739.72,878.39,737.13Z"/><path class="cls-37" d="M853.14,842.34s-1.72,1.68-1.76,2.29-.15,7.22.55,7.83,2.76,1.06,2.1,1.75c-.5.52-4.36.41-6.91.27-.75,0-1.68-6-2-6.87-.43-1.27-1.47-4.13-1.08-5a7.38,7.38,0,0,1,2.38-2.15,11.68,11.68,0,0,0,2.64-2.81Z"/><path class="cls-38" d="M846.52,840.41s4,11.16,5.52,11.7c.41.14,2.39.5,2.76,1.38a3.84,3.84,0,0,1,0,1.14h-8.26s-1-4.92-1.46-7.08c0,0-2.19-5.28-1.94-5.76S846.52,840.41,846.52,840.41Z"/><path class="cls-39" d="M871.21,845.25s-1.62,4.34-1.62,4.36a29.53,29.53,0,0,0-.59,3c0,2.36,9.35-1.2,9-1.62a11.47,11.47,0,0,1-1.37-3.07,5.3,5.3,0,0,1,.94-2.78Z"/><path class="cls-40" d="M887.6,765.28s.77,7.8.77,7.91c0,12.61,2.5,37.24,2,39.61-1.15,5.78-13.64,35.28-13.64,35.28l-6.74-.81L878.8,812l-3.24-14.22L871,769.65Z"/><path class="cls-41" d="M865,772.18l-1.28,7.38L860.22,810,847,839.68s1.85,4.33,4.59,4.94l21-30.51,13-39-.46-8.68Z"/><path class="cls-42" d="M890.29,746.72l-9.36,1s-.43-7.67-.43-11.33c0-4.44.38-10.15.92-10a8.19,8.19,0,0,1,4.73,2.83C890.33,734.89,890.29,746.72,890.29,746.72Z"/><path class="cls-43" d="M885.69,735.57c.2,1.35,3.79,38.13,3.79,38.13-17,8.23-26.42,1.47-26.42,1.47s.55-25.83-.12-29.35c-.44-2.32-1-17.78.52-18.21a37.11,37.11,0,0,1,6.57-1.4c2.06-.21,10.08-.34,11.51.15A18.21,18.21,0,0,1,885.69,735.57Z"/><polygon class="cls-44" points="916.48 735.64 931.91 712.17 905.4 721.46 901.87 731.68 916.48 735.64"/><polygon class="cls-45" points="901.87 731.68 905.63 732.7 931.91 712.17 905.4 721.46 901.87 731.68"/><polygon class="cls-46" points="905.4 721.46 912.26 719.05 908.52 725.46 824.3 791.22 823.73 785.23 905.4 721.46"/><polygon class="cls-47" points="908.52 725.46 916.37 724.31 913.35 731.64 829.13 797.4 824.3 791.22 908.52 725.46"/><polygon class="cls-48" points="913.35 731.64 920.47 729.57 916.48 735.64 834.8 799.41 829.13 797.4 913.35 731.64"/><polygon class="cls-49" points="835.33 792.56 830.5 786.37 827.38 782.38 823.73 785.23 824.3 791.22 829.13 797.4 834.8 799.41 838.46 796.56 835.33 792.56"/><polygon class="cls-50" points="842.64 786.85 837.81 780.67 834.69 776.67 827.38 782.38 830.5 786.37 835.33 792.56 838.46 796.56 845.76 790.85 842.64 786.85"/><path class="cls-51" d="M926.67,720.14c.06-.08,5.24-8,5.24-8l-9,3.15,3.19,1.38Z"/><path class="cls-52" d="M846.19,774.09a1.69,1.69,0,0,1,0-.23c.25-2.55,2.37-23.94,2.73-24.85s9.8-14.39,9.8-14.39l4.67,6.35-9.13,12.17c-.2.78-3.49,15.22-3.49,15.22s-.68,2.63-1,4.2c.14.38.27.74.39,1a9.82,9.82,0,0,0,1,1.58,10.8,10.8,0,0,1,1.16,2.06c.1.37.27,1.14.37,1.61s.23,1,.26,1.26a2.46,2.46,0,0,0,.29.68.4.4,0,0,1-.48.58c-.33-.11-.59-.54-.75-.8-.45-.76-.69-2.14-.8-2.06s-.5,2.41-.56,2.67a29.76,29.76,0,0,1-.81,3.48c-.26.49-.61.41-.71.1s.3-4.07.3-4.07,0-.48-.17-.33-.56,3.6-.71,4.1-.48.78-.76.37.25-4.15.25-4.15.06-.46-.13-.42-.45,3-.6,3.24a.39.39,0,0,1-.72-.08,17.88,17.88,0,0,1,.34-3.76s0-.26-.15-.17-.51,2.57-.76,2.81a.27.27,0,0,1-.39,0c-.47-.32.25-2.68.24-3.86s.54-2.5.37-3.91C846.23,774.45,846.21,774.23,846.19,774.09Z"/><path class="cls-53" d="M851.3,743.22l8.11,5.44s4.56-6.8,7-9.22c3.07-3-1.12-12.32-3.09-11.79C858.9,728.83,851.3,743.22,851.3,743.22Z"/><path class="cls-54" d="M872.31,719.1l-1.1,7.24s4,8.61,6.4,7.87c2-.63.77-8.25.77-8.25s-1.09-4.1-.76-6.15S872.31,719.1,872.31,719.1Z"/><path class="cls-55" d="M871.38,708.87c-.16-.06-1.28,8.24.84,10.52s6.26,3,7.74,1.23c1.64-2,1.56-10.91-1.74-13.25S871.38,708.87,871.38,708.87Z"/><path class="cls-56" d="M877,702.93a9.14,9.14,0,0,0-4.81,2.74c-1.16.14-2.73.78-4.36,3.47a6.72,6.72,0,0,0,1.81,8.77,5.25,5.25,0,0,1,2.29,3.87l.37-1.07a6,6,0,0,0,.29-2.53,5.14,5.14,0,0,0-.38-1.52c-.56-1.2,1.2-2,1.7-3,.38-.77.4-2.53,1-3.8l.72-1a4.56,4.56,0,0,1,3.27-.93C880.47,708.33,880.24,702.26,877,702.93Z"/><path class="cls-57" d="M873.77,715.14c0,1-.44,1.84-1,1.85s-1.07-.81-1.09-1.82.44-1.84,1-1.85S873.75,714.12,873.77,715.14Z"/><path class="cls-17" d="M876.21,718.48l3.2-.17a1.39,1.39,0,0,1-1.41,1.33C876.29,719.78,876.21,718.48,876.21,718.48Z"/><path class="cls-58" d="M868.24,855l1.22-4.84s2.55,1.36,3.83,1.14A31.75,31.75,0,0,0,877,850c1-.43,9.31,3.33,8.56,5H868.24Z"/><path class="cls-17" d="M262.27,903.16c8,3,10.65,10.51,10.65,26.54,0,7.23.92,12.75,2.76,16.82H253.34c-.66-4.6-.92-9.33-1.05-21.29,0-8.54-2.76-13.8-8.81-14.19-2.5-.13-4.73-.13-7.23-.13H228l-6.31,35.61h-20.5l16-90.67h34.43a109.65,109.65,0,0,1,13.53.65c11.3,1.32,20.37,7.1,20.37,19.71C285.53,890.54,276.86,899.48,262.27,903.16Zm.79-21.82c0-6.31-4.07-8.67-9.72-9.2-1.84-.13-4.08-.26-7-.26H234.81L230.6,895.8h10.91c2.89,0,5,0,7-.14C256.1,895,263.06,891.33,263.06,881.34Z"/><path class="cls-17" d="M278.22,948.16H251.91l-.2-1.41c-.69-4.83-.94-9.86-1.07-21.5,0-8-2.44-12.26-7.26-12.57-2.45-.13-4.66-.13-7.13-.13h-6.9l-6.3,35.61H199.21l16.61-93.95h35.81a110.92,110.92,0,0,1,13.72.66c13.87,1.62,21.82,9.4,21.82,21.34,0,13.38-7.09,22.78-20.56,27.38,6.52,4.63,7.95,13.6,7.95,26.11,0,7,.86,12.25,2.61,16.14Zm-23.44-3.28h18.49a48.29,48.29,0,0,1-2-15.18c0-15.8-2.5-22.34-9.58-25l-4.9-1.85,5.08-1.28c10.05-2.53,22-9,22-25.35,0-13.12-10.29-17.07-18.92-18.08a108.3,108.3,0,0,0-13.34-.64h-33l-15.45,87.39h17.16l6.31-35.62h9.65c2.53,0,4.79,0,7.32.14,4.74.31,10.36,3.3,10.36,15.83C254,935.55,254.25,940.57,254.78,944.88Zm-13.27-47.44H228.65l4.78-27.2h12.94c2.94,0,5.21.13,7.08.26,7.48.7,11.25,4.35,11.25,10.84,0,9.4-5.71,15.06-16.08,16C246.58,897.44,244.45,897.44,241.51,897.44Zm-8.95-3.29h8.95c2.78,0,4.92,0,6.85-.12,8.66-.75,13.06-5,13.06-12.69,0-4.7-2.54-7-8.24-7.56-1.77-.12-4-.26-6.81-.26H236.19Z"/><path class="cls-17" d="M317.2,893h42.45l-2.89,16H314.31l-3.68,21.29h46.65l-2.89,16.16H287.24l16-90.67h65.84l-2.89,16H320.88Z"/><path class="cls-17" d="M355.77,948.16H285.28l16.62-93.95h69.17l-3.48,19.31H322.26l-3.11,17.87h42.46l-3.48,19.32H315.7l-3.12,18h46.66Zm-66.57-3.28H353L355.32,932H308.68l4.25-24.58h42.45l2.3-12.74H315.25l4.25-24.44h45.34l2.3-12.75H304.65Z"/><path class="cls-17" d="M462.14,885.42l-.13,1.31H441.38v-1.31c-.13-11.17-5.78-16.17-16.69-16.17-15.89,0-30,14.72-30,40,0,16.43,7.76,23.92,18.4,23.92s18.92-6.18,23.39-17.75H418l2.89-16H459l-8.41,47.18H434.29l.92-14.2-5.65,9.33c-5.92,4.74-12.88,6.71-22.74,6.71-21.15,0-34-13.54-34-36.8,0-36.4,26.28-57.55,54.8-57.55C452.82,854,463.46,867.54,462.14,885.42Z"/><path class="cls-17" d="M406.82,950c-22.33,0-35.67-14.37-35.67-38.44,0-38.86,28.39-59.19,56.44-59.19,12.83,0,22.89,3.53,29.1,10.21,5.32,5.73,7.78,13.67,7.09,23l-.28,2.83H439.74v-3c-.12-10-4.76-14.53-15.05-14.53-14.07,0-28.31,13.16-28.31,38.31,0,14.15,6.1,22.27,16.75,22.27,9.23,0,16.58-5.11,20.91-14.46H416l3.48-19.31H461l-9,50.46H432.53l.6-9.24-2.55,4C424.48,947.82,417.15,950,406.82,950Zm20.77-94.35c-26.42,0-53.16,19.21-53.16,55.91,0,22,12.11,35.15,32.39,35.15,9.53,0,16-1.84,21.49-6.16l9-14.82L436,944.88h13.17L457,901H422.26L420,913.73h19l-.87,2.23c-4.68,12.13-13.53,18.8-24.92,18.8-12.55,0-20-9.56-20-25.56,0-27.31,15.9-41.59,31.6-41.59,11.92,0,18.09,5.88,18.33,17.48h17.5c.57-8.26-1.59-15.27-6.24-20.28C448.71,858.82,439.48,855.65,427.59,855.65Z"/><path class="cls-17" d="M470.17,946.52l16-90.67h20.49l-16,90.67Z"/><path class="cls-17" d="M492,948.16H468.21l16.61-93.95h23.83Zm-19.92-3.28h17.17l15.45-87.39H487.57Z"/><path class="cls-17" d="M585,883.05H564.25c.53-8.41-3.41-13.8-12.09-13.8-7.36,0-12.87,3.94-12.87,11.43,0,5.52,4.46,9.07,17.08,12.09,16.56,4.08,24,12.35,24,24.44,0,20.24-18.8,31.15-39.82,31.15s-35.22-9.46-33.38-29H528c.14,9.33,6.71,13.8,15,13.8s15.24-4.6,15.24-12c0-5.13-4.21-9.33-14.59-12.09-16.56-4.21-26.54-10.38-26.54-23.79,0-20,17.87-31.27,37.32-31.27C577,854,585.93,866.62,585,883.05Z"/><path class="cls-17" d="M540.6,950c-13,0-23-3.47-29-10-4.81-5.28-6.83-12.28-6-20.81l.14-1.49H529.6l0,1.62c.11,7.63,5.09,12.18,13.34,12.18,8,0,13.6-4.24,13.6-10.31,0-4.62-4.5-8.15-13.37-10.51-13.72-3.48-27.76-9.22-27.76-25.37,0-21.61,19.6-32.91,39-32.91,11.23,0,19.76,3,25.35,8.9,5,5.31,7.41,12.87,6.91,21.87l-.09,1.55H562.5l.11-1.74c.25-4-.61-7.22-2.51-9.24s-4.43-2.82-7.94-2.82c-7,0-11.23,3.66-11.23,9.79,0,3.48,1.92,7.16,15.82,10.5,16.8,4.13,25.31,12.89,25.31,26C582.06,939.74,560.57,950,540.6,950Zm-31.85-29c-.36,6.89,1.42,12.54,5.3,16.8,5.33,5.86,14.51,9,26.55,9,18.39,0,38.17-9.23,38.17-29.5,0-11.59-7.45-19.06-22.79-22.84-13-3.12-18.34-7.09-18.34-13.69,0-7.94,5.7-13.07,14.52-13.07,4.46,0,7.93,1.29,10.33,3.86,2.23,2.37,3.41,5.78,3.45,9.94h17.49c.12-7.39-2-13.54-6.07-17.88-4.94-5.23-12.67-7.88-23-7.88-17.73,0-35.68,10.18-35.68,29.63,0,11.2,7.33,17.63,25.31,22.2,10.5,2.79,15.82,7.39,15.82,13.68,0,7.88-7.1,13.6-16.88,13.6-9.54,0-15.74-5.24-16.54-13.8Z"/><path class="cls-17" d="M645.73,871.88l-13.14,74.64h-20.5l13.14-74.64H595l2.88-16h81l-3,16Z"/><path class="cls-17" d="M634,948.16H610.13l13.14-74.64H593l3.48-19.31h84.3l-3.64,19.31H647.11ZM614,944.88h17.17l13.14-74.64h30.11l2.4-12.75H599.27L597,870.24h30.21Z"/><path class="cls-17" d="M732.85,903.16c8,3,10.64,10.51,10.64,26.54,0,7.23.92,12.75,2.76,16.82H723.92c-.66-4.6-.92-9.33-1-21.29,0-8.54-2.76-13.8-8.81-14.19-2.5-.13-4.73-.13-7.23-.13h-8.27l-6.31,35.61h-20.5l16-90.67h34.43a109.75,109.75,0,0,1,13.53.65c11.3,1.32,20.37,7.1,20.37,19.71C756.11,890.54,747.44,899.48,732.85,903.16Zm.79-21.82c0-6.31-4.07-8.67-9.72-9.2-1.84-.13-4.08-.26-7-.26H705.39l-4.21,23.92h10.91c2.89,0,5,0,7-.14C726.67,895,733.64,891.33,733.64,881.34Z"/><path class="cls-17" d="M748.8,948.16H722.49l-.2-1.41c-.69-4.83-.94-9.86-1.07-21.5,0-8-2.44-12.26-7.27-12.57-2.44-.13-4.65-.13-7.12-.13h-6.9l-6.3,35.61H669.79l16.61-93.95h35.81a111,111,0,0,1,13.72.66c13.87,1.62,21.82,9.4,21.82,21.34,0,13.38-7.09,22.78-20.57,27.38,6.52,4.63,8,13.6,8,26.11,0,7,.85,12.25,2.61,16.14Zm-23.45-3.28h18.5a48.29,48.29,0,0,1-2-15.18c0-15.8-2.5-22.34-9.58-25l-4.9-1.85,5.08-1.28c10-2.53,22-9,22-25.35,0-13.12-10.29-17.07-18.91-18.08a108.66,108.66,0,0,0-13.35-.64H689.16l-15.45,87.39h17.16l6.31-35.62h9.65c2.53,0,4.79,0,7.32.14,4.73.31,10.36,3.3,10.36,15.83C724.62,935.55,724.83,940.57,725.35,944.88Zm-13.26-47.44H699.23l4.78-27.2H717c2.94,0,5.21.13,7.08.26,7.48.7,11.25,4.35,11.25,10.84,0,9.4-5.71,15.06-16.08,16C717.16,897.44,715,897.44,712.09,897.44Zm-9-3.29h9c2.82,0,4.91,0,6.85-.12,5.94-.52,13.06-3.14,13.06-12.69,0-4.7-2.54-7-8.24-7.56-1.77-.12-4-.26-6.81-.26H706.77Z"/><path class="cls-17" d="M784,920.89l-12.75,25.63H749.15l48.09-90.67h26.94L840,946.52H817.61l-3.68-25.63Zm23.13-46.38L792,904.73h19.44Z"/><path class="cls-17" d="M841.9,948.16H816.19l-3.68-25.62H785l-12.75,25.62H746.42l49.84-93.95h29.3ZM819,944.88h19L822.8,857.49H798.23l-46.35,87.39H770.2L783,919.25h32.41Zm-5.7-38.51h-24L808,869.07Zm-18.69-3.28h14.9l-3.32-23.15Z"/><path class="cls-17" d="M895.67,871.88l-13.14,74.64H862l13.14-74.64H844.94l2.9-16h80.94l-3,16Z"/><path class="cls-17" d="M883.91,948.16H860.07l13.14-74.64H843l3.48-19.31h84.3l-3.64,19.31H897.05ZM864,944.88h17.16l13.14-74.64H924.4l2.4-12.75H849.21l-2.3,12.75h30.22Z"/><path class="cls-17" d="M951.65,893h42.44l-2.89,16H948.76l-3.68,21.29h46.65l-2.89,16.16H921.69l16-90.67h65.84l-2.9,16H955.33Z"/><path class="cls-17" d="M990.21,948.16H919.73l16.62-93.95h69.17L1002,873.52H956.71l-3.1,17.87h42.45l-3.48,19.32H950.14l-3.11,18h46.66Zm-66.56-3.28h63.81L989.77,932H943.13l4.25-24.58h42.45l2.3-12.74H949.7L954,870.24h45.34l2.3-12.75H939.1Z"/><path class="cls-59" d="M404.09,858.88s12.77,10,13.2,11.78c.61,2.55,12.31-.81,9.49-1.33-.65-.12-2.73-.64-2.9-.73-.91-.49-12.27-14.19-12.27-14.19Z"/><path class="cls-60" d="M432.26,869.33l-8.15-.66a11.55,11.55,0,0,1-6.81,2,10.4,10.4,0,0,0-.38,4.44c.06.41.13,1.66.55,1.63,1.5-.1,5.52-1.1,10.09-2,0,0,6.15-1.3,9.69-3.42S432.26,869.33,432.26,869.33Z"/><path class="cls-61" d="M346.87,833.79a55.87,55.87,0,0,0,19.7-.85c12-2.8,25.2-5.39,29.08-3.13,3.12,1.81,22.61,31.26,22.61,31.26l-7.53,5.49-21.46-24s-27.38,10.1-33.53,9C341.74,849,341.54,837.78,346.87,833.79Z"/><path class="cls-62" d="M376.11,878.64s-.57,15.44-.92,18.06,6.56,10.45,5.67,7.72c-.2-.63-.72-2.71-.72-2.9,0-1,2.56-18.65,2.56-18.65Z"/><path class="cls-63" d="M385.28,910.05l-5.1-8.3a11.49,11.49,0,0,1-5-5,10.44,10.44,0,0,0-4.09,1.78c-.33.25-2.62,1.92-2.46,2.3.59,1.42,3.7,4.46,7.1,7.78a90.37,90.37,0,0,0,8.38,6C387.65,916.7,385.28,910.05,385.28,910.05Z"/><path class="cls-64" d="M391.27,848.19c-3.27-4.36-29.66-8.51-29.66-8.51l-7.36-14.14-15.88,10s1.23,13,2.45,16.44c1.63,4.61,12.57,4.85,19.25,4.78,6.14-.06,17.37,1.19,17.37,1.19l-3.8,33.5s7.46,1.69,9.56,1.42C383.44,892.84,395.34,853.61,391.27,848.19Z"/><polygon class="cls-65" points="361.93 794.69 354.32 795.06 353.88 783.85 353.8 766.55 360.81 766.06 361.93 794.69"/><path class="cls-66" d="M365.28,778.56a5.77,5.77,0,0,1-1.88,3.71,4.66,4.66,0,0,1-3.69,1.14l-1.23-.17c-3.64-.51-6.23-4.2-5.79-8.25l.83-7.57a6.55,6.55,0,0,1,2.15-4.24,5.31,5.31,0,0,1,4.22-1.3l2.56.35a5,5,0,0,1,4,5.69Z"/><path class="cls-67" d="M361.11,782.39l-1.23-.17c-3.64-.5-6.23-4.2-5.78-8.26.32-3,2-6.51,6.34-11.47l-4,1a4.08,4.08,0,0,0-2.91,3.61l-.85,7.85c-.45,4.07,2.14,7.77,5.78,8.27l1.23.17a4.65,4.65,0,0,0,4-1.46A4.46,4.46,0,0,1,361.11,782.39Z"/><path class="cls-68" d="M360.62,769a1.24,1.24,0,0,0-.75-.46,1,1,0,0,0-.77.39l-.65-.77a1.86,1.86,0,0,1,1.49-.67,2.15,2.15,0,0,1,1.41.85l-.73.66.37-.33Z"/><path class="cls-69" d="M366,769.8a1.24,1.24,0,0,0-.75-.46,1,1,0,0,0-.77.39l-.65-.77a1.86,1.86,0,0,1,1.49-.67,2.15,2.15,0,0,1,1.41.85l-.73.66.37-.33Z"/><path d="M366.29,771.05a.17.17,0,0,1-.19-.09,1.2,1.2,0,0,0-1.78-.36.17.17,0,0,1-.24-.08.2.2,0,0,1,.06-.26,1.55,1.55,0,0,1,2.26.49.2.2,0,0,1-.06.27Z"/><path d="M360.83,770.54a.17.17,0,0,1-.19-.08,1.19,1.19,0,0,0-1.78-.37.17.17,0,0,1-.24-.07.2.2,0,0,1,.07-.27,1.55,1.55,0,0,1,2.25.49.21.21,0,0,1-.05.27Z"/><path class="cls-70" d="M351.4,773.89a1.82,1.82,0,0,0,3.08,0,3.54,3.54,0,0,0,.09-4.06,1.83,1.83,0,0,0-3.08,0A3.54,3.54,0,0,0,351.4,773.89Z"/><path class="cls-71" d="M351.33,771.43c.38-1.52,1.62-2.39,2.76-1.94a2.26,2.26,0,0,1,.43.24,2,2,0,0,0-.84-.65c-1.14-.45-2.37.42-2.76,1.95a3.24,3.24,0,0,0,.94,3.32A3.41,3.41,0,0,1,351.33,771.43Z"/><path class="cls-72" d="M354.35,764.83s2.18-5.36,6.84-4.77,5.21,4,5.12,5.86C366.31,765.92,362.56,759.46,354.35,764.83Z"/><path class="cls-73" d="M364,776.24l-1.42.18-2.86.34-.87.89-4.46-4.83-1.62,1.4-.09.77a7.86,7.86,0,0,0,2.35,6.58h0s4,5.4,8.94,1.09a4.07,4.07,0,0,0,1.36-2.9l.15-3.11Z"/><path class="cls-17" d="M363,778.76a1.39,1.39,0,0,1-1.43-1.36l2.65-.23A1.44,1.44,0,0,1,363,778.76Z"/><path class="cls-74" d="M363.32,790.66c.8-.33,1.68-.7,2.52-1.07l2.55-1.12c1.69-.76,3.37-1.54,5-2.35s3.25-1.65,4.73-2.52c.73-.42,1.44-.87,2-1.26l.62-.46c.05,0,.05,0,0,.12a.71.71,0,0,0-.08.15c0,.07-.09.18-.13.27l-.08.2a2.25,2.25,0,0,0-.08.24l-.05.15-.05.18a2.53,2.53,0,0,0-.07.38l-.1,1.26c.05-.48.1-.93.13-1.48s.07-1.06.1-1.61c.06-1.09.11-2.2.16-3.3l.25-6.68c.16-4.46.29-8.94.41-13.41h0a2,2,0,0,1,1.93-2,1.93,1.93,0,0,1,1.76,1.59c.94,4.37,1.87,8.73,2.78,13.11l1.35,6.59c.22,1.1.44,2.21.65,3.34.1.55.21,1.12.3,1.71s.2,1.21.29,1.84a2.74,2.74,0,0,1,0,.81l-.09.45a5.05,5.05,0,0,1-.12.56l-.07.28,0,.14,0,.11a2.86,2.86,0,0,1-.15.41,2.9,2.9,0,0,1-.16.38c-.09.21-.2.43-.3.61l-.28.48a12.09,12.09,0,0,1-1,1.28,16.85,16.85,0,0,1-1.52,1.58c-.94.87-1.81,1.57-2.67,2.23-1.72,1.32-3.41,2.48-5.1,3.61s-3.38,2.18-5.08,3.22l-2.55,1.54c-.86.51-1.69,1-2.61,1.51l0,0c-3.15,1.78-7,.38-8.61-3.14a7.53,7.53,0,0,1,2.82-9.59A6.44,6.44,0,0,1,363.32,790.66Z"/><path class="cls-75" d="M383.08,759.77a2.62,2.62,0,0,1-3.21-1.95l-.56-4.14a2.82,2.82,0,0,1,2.54-2.93,2.48,2.48,0,0,1,3,1.84l.6,4.42A2.67,2.67,0,0,1,383.08,759.77Z"/><path class="cls-76" d="M383.55,752.85a.75.75,0,0,0,.4.19.76.76,0,0,0,.8-.73c0-.16.33-3.91-2.38-6.15a.69.69,0,0,0-1,.17.88.88,0,0,0,.15,1.14,5.89,5.89,0,0,1,1.8,4.67A.87.87,0,0,0,383.55,752.85Z"/><path class="cls-77" d="M378.55,749a.64.64,0,0,0,.39.18c2.53.33,3.64,3,3.65,3a.71.71,0,0,0,1,.41.86.86,0,0,0,.37-1.08c-.06-.15-1.47-3.56-4.83-4a.76.76,0,0,0-.81.72A.86.86,0,0,0,378.55,749Z"/><path class="cls-78" d="M376.91,751.24a.71.71,0,0,0,.56.18c2.53-.36,4.18,2,4.2,2a.68.68,0,0,0,1,.14.88.88,0,0,0,.13-1.15c-.09-.12-2.19-3.07-5.54-2.59a.79.79,0,0,0-.63.91A.84.84,0,0,0,376.91,751.24Z"/><path class="cls-79" d="M376.87,754.38a.67.67,0,0,0,.9,0,3.14,3.14,0,0,1,3.85-.22.68.68,0,0,0,1-.22.86.86,0,0,0-.19-1.13,4.46,4.46,0,0,0-5.54.25.88.88,0,0,0-.15,1.14A.61.61,0,0,0,376.87,754.38Z"/><path class="cls-80" d="M341.48,801.61c-.78-.64-1.47-1.23-2.2-1.85l-2.14-1.87c-1.43-1.26-2.83-2.55-4.24-3.89s-2.79-2.73-4.19-4.3c-.71-.79-1.41-1.61-2.16-2.62a19.79,19.79,0,0,1-1.18-1.81l-.33-.61c-.12-.25-.22-.46-.34-.77a8.62,8.62,0,0,1-.64-2.49l0-.39a2.87,2.87,0,0,1,0-.93,17.74,17.74,0,0,1,.52-2c.19-.58.38-1.1.57-1.61.38-1,.78-2,1.19-2.93.81-1.89,1.65-3.71,2.51-5.51,1.71-3.61,3.46-7.13,5.27-10.65a1.77,1.77,0,0,1,2.56-.77,2.2,2.2,0,0,1,.9,2.27v0c-.79,3.88-1.54,7.8-2.21,11.69-.33,1.94-.64,3.88-.9,5.79-.13,1-.24,1.89-.32,2.78,0,.45-.07.89-.08,1.28a4,4,0,0,0,0,.93v-1.32a4.54,4.54,0,0,0-.23-1.11c0-.09,0-.09,0-.12s0,0,0,0l.45.47c.43.44,1,1,1.59,1.47,1.2,1,2.55,2.07,3.92,3.09s2.81,2,4.26,3l2.17,1.44c.72.47,1.48,1,2.16,1.38a7.58,7.58,0,0,1,2.51,9.7,6,6,0,0,1-9.37,2.32Z"/><path class="cls-81" d="M335.59,760a2.61,2.61,0,0,0,3.22-1.94l.57-4.13a2.82,2.82,0,0,0-2.53-2.94,2.46,2.46,0,0,0-3,1.83l-.62,4.41A2.66,2.66,0,0,0,335.59,760Z"/><path class="cls-82" d="M335.14,753.05a.72.72,0,0,1-.39.19.77.77,0,0,1-.81-.74c0-.15-.31-3.9,2.4-6.13a.68.68,0,0,1,1,.17.87.87,0,0,1-.16,1.14,5.89,5.89,0,0,0-1.81,4.66A.84.84,0,0,1,335.14,753.05Z"/><path class="cls-83" d="M340.15,749.23a.71.71,0,0,1-.38.18c-2.54.31-3.66,3-3.67,3a.7.7,0,0,1-1,.41.85.85,0,0,1-.36-1.08c.06-.15,1.48-3.56,4.83-4a.75.75,0,0,1,.81.72A.84.84,0,0,1,340.15,749.23Z"/><path class="cls-84" d="M341.79,751.46a.67.67,0,0,1-.56.18c-2.53-.37-4.19,1.94-4.2,2a.68.68,0,0,1-1,.14.88.88,0,0,1-.13-1.15c.09-.12,2.2-3.06,5.55-2.57a.81.81,0,0,1,.63.91A.81.81,0,0,1,341.79,751.46Z"/><path class="cls-85" d="M341.82,754.61a.67.67,0,0,1-.9,0,3.12,3.12,0,0,0-3.85-.23.68.68,0,0,1-1-.22.87.87,0,0,1,.19-1.13,4.44,4.44,0,0,1,5.54.27.88.88,0,0,1,.15,1.14A1.58,1.58,0,0,1,341.82,754.61Z"/><path d="M359.4,770.34a.69.69,0,0,0,.56.76.66.66,0,0,0,.68-.63.67.67,0,0,0-.57-.75A.63.63,0,0,0,359.4,770.34Z"/><path d="M364.67,770.89a.66.66,0,0,0,.56.75.63.63,0,0,0,.67-.62.68.68,0,0,0-.56-.76A.65.65,0,0,0,364.67,770.89Z"/><path class="cls-86" d="M341,824.18c-.6-7.1-1.84-18.82-1-25.86.42-3.51,2.51-6.8,5.18-7.84l6.12-1.35,2.73-1.94c.26,3.55,2.1,5.24,3.83,5.31,2.18.08,3.14-1.18,3.81-4.14l1.09,1.63c.72.27.88.84,1.45,1.54l7.7,4.74-2.85,29.49a39.75,39.75,0,0,0,.11,7.4l-31.08,2.66Z"/><path class="cls-17" d="M210.54,824.86l-2.14,1h0a.68.68,0,0,1-.56-1.24h0l2.17-1a.67.67,0,0,1,.54,1.23Z"/><path class="cls-17" d="M203.46,828.22l-2.08,1.09h0a.69.69,0,1,1-.64-1.22h0l2.11-1.1a.7.7,0,0,1,.93.3.68.68,0,0,1-.3.92Z"/><path class="cls-17" d="M196.61,832l-2,1.21h0a.7.7,0,0,1-.72-1.21h0l2-1.21a.7.7,0,0,1,1,.24.69.69,0,0,1-.25,1Z"/><path class="cls-17" d="M190,836.16l-1.93,1.33h0a.72.72,0,0,1-1-.19.72.72,0,0,1,.19-1h0l2-1.33a.71.71,0,1,1,.8,1.18Z"/><path class="cls-17" d="M183.62,840.71l-1.86,1.43h0a.73.73,0,0,1-1-.13.74.74,0,0,1,.13-1h0l1.88-1.44a.73.73,0,1,1,.89,1.16Z"/><path class="cls-17" d="M177.52,845.61l-1.78,1.54h0a.75.75,0,1,1-1-1.14h0l1.8-1.55a.74.74,0,0,1,1,.08.74.74,0,0,1-.08,1.05Z"/><path class="cls-17" d="M171.7,850.85,170,852.49h0a.77.77,0,0,1-1.09,0,.78.78,0,0,1,0-1.09h0l1.71-1.64a.76.76,0,1,1,1.06,1.09Z"/><path class="cls-17" d="M166.19,856.41l-1.6,1.72h0a.78.78,0,0,1-1.1.05.77.77,0,0,1,0-1.1h0l1.62-1.74a.77.77,0,1,1,1.13,1.06Z"/><path class="cls-17" d="M161,862.26l-1.49,1.82h0a.8.8,0,0,1-1.12.1.79.79,0,0,1-.11-1.12h0l1.52-1.83a.8.8,0,1,1,1.22,1Z"/><path class="cls-17" d="M156.11,868.39l-1.39,1.9h0a.81.81,0,1,1-1.3-1h0l1.42-1.91a.8.8,0,0,1,1.12-.16.81.81,0,0,1,.17,1.13Z"/><path class="cls-17" d="M151.59,874.78l-1.29,2h0a.82.82,0,0,1-1.14.24.84.84,0,0,1-.24-1.15h0l1.31-2a.82.82,0,0,1,1.14-.23.81.81,0,0,1,.23,1.13Z"/><path class="cls-17" d="M147.42,881.41l-1.18,2v0a.84.84,0,0,1-1.46-.85h0l1.2-2.05a.85.85,0,0,1,1.15-.3.83.83,0,0,1,.3,1.14Z"/><path class="cls-17" d="M143.63,888.26l-1.06,2.09v0a.85.85,0,0,1-1.52-.78h0l1.08-2.11a.85.85,0,0,1,1.52.77Z"/><path class="cls-17" d="M140.23,895.31l-.94,2.15h0a.87.87,0,0,1-1.14.45.88.88,0,0,1-.45-1.15h0l1-2.17a.87.87,0,1,1,1.59.7Z"/><path class="cls-17" d="M137.24,902.53l-.82,2.2h0a.88.88,0,1,1-1.66-.61h0l.83-2.22a.88.88,0,0,1,1.65.62Z"/><path class="cls-17" d="M134.67,909.91l-.69,2.24v0a.92.92,0,0,1-1.13.6.9.9,0,0,1-.59-1.13h0l.7-2.27a.9.9,0,0,1,1.71.53Z"/><path class="cls-17" d="M132.54,917.43l-.55,2.28h0a.92.92,0,0,1-1.1.68.93.93,0,0,1-.68-1.11h0l.56-2.31a.91.91,0,1,1,1.77.44Z"/><path class="cls-17" d="M130.86,925.06l-.41,2.31h0a.93.93,0,0,1-1.84-.32h0l.42-2.34a.93.93,0,0,1,1.08-.74.92.92,0,0,1,.74,1.08Z"/><path class="cls-17" d="M129.65,932.78l-.27,2.33v0a.95.95,0,1,1-1.88-.22h0l.29-2.36a.94.94,0,0,1,1-.82.93.93,0,0,1,.82,1Z"/><path class="cls-17" d="M128.91,940.56l-.13,2.34h0a1,1,0,1,1-1.92-.1h0l.15-2.37a1,1,0,1,1,1.9.11Z"/><path class="cls-17" d="M128.63,948.36v2.35h0a1,1,0,0,1-1,1,1,1,0,0,1-1-1h0v-2.37a1,1,0,0,1,1-1,1,1,0,0,1,1,1Z"/><polygon class="cls-87" points="221.41 809.36 220.99 820.92 229 816.23 221.41 809.36"/><path class="cls-88" d="M273.6,804.58l-32.18,26.26a2.91,2.91,0,0,1-4.18-.51L212.09,797a1.18,1.18,0,0,1,1.11-1.87Z"/><polygon class="cls-89" points="221.41 809.36 273.6 804.58 225.45 814.75 225.2 817.95 221.41 809.36"/><polygon class="cls-90" points="227.87 817.92 220.99 820.92 225.45 814.75 227.87 817.92"/><path class="cls-17" d="M74.14,912.27A1.82,1.82,0,0,0,71.9,914a5.11,5.11,0,0,1-1.28,3.39l-2.4,2.72a.88.88,0,0,0-.73-.4h-4.7a.87.87,0,0,0-.87.88v10.55a.87.87,0,0,0,.87.88h4.7a.87.87,0,0,0,.79-.51,6.09,6.09,0,0,0,3.17.89h8.29A2.29,2.29,0,0,0,82,930.05c0-.56,0-8.08,0-8.25a2.25,2.25,0,0,0-2.25-2.25l-4.32,0,.18-.42a6.79,6.79,0,0,0-.36-6,1.74,1.74,0,0,0-1.11-.85Zm-7.53,18H63.67v-8.81h2.94Zm13.13-9a.51.51,0,0,1,.52.51c0,.17,0,.62,0,1.23,0,3.37,0,6.57,0,7.1a.5.5,0,0,1-.14.38.49.49,0,0,1-.37.16H71.45a4.35,4.35,0,0,1-2.72-1l-.37-.3v-6.81l3.57-4A6.84,6.84,0,0,0,73.65,914s.07-.07.09,0a5.08,5.08,0,0,1,.27,4.45l-.69,1.63a.85.85,0,0,0,.07.82.9.9,0,0,0,.73.4Zm0,0"/><path class="cls-17" d="M767.85,732.42h-.75a20.69,20.69,0,0,0-1.85-4.46l.53-.53a3.24,3.24,0,0,0,0-4.58l-3.55-3.54a3.24,3.24,0,0,0-4.58,0l-.53.53a20.48,20.48,0,0,0-4.46-1.85v-.75a3.24,3.24,0,0,0-3.23-3.24h-5a3.24,3.24,0,0,0-3.24,3.24V718a20.69,20.69,0,0,0-4.46,1.85l-.53-.53a3.24,3.24,0,0,0-4.58,0l-3.55,3.54a3.26,3.26,0,0,0,0,4.58l.53.53a20.9,20.9,0,0,0-1.85,4.46H726a3.24,3.24,0,0,0-3.23,3.24v5a3.24,3.24,0,0,0,3.23,3.24h.75a20.9,20.9,0,0,0,1.85,4.46l-.53.53a3.26,3.26,0,0,0,0,4.58L731.6,757a3.24,3.24,0,0,0,4.58,0l.53-.53a20.69,20.69,0,0,0,4.46,1.85v.75a3.24,3.24,0,0,0,3.24,3.24h5a3.24,3.24,0,0,0,3.23-3.24v-.75a20.48,20.48,0,0,0,4.46-1.85l.53.53a3.24,3.24,0,0,0,4.58,0l3.55-3.54a3.24,3.24,0,0,0,0-4.58l-.53-.53a21.2,21.2,0,0,0,1.85-4.46h.75a3.24,3.24,0,0,0,3.23-3.24v-5a3.24,3.24,0,0,0-3.23-3.24ZM749.77,759.1a.35.35,0,0,1-.34.35h-5a.35.35,0,0,1-.35-.35v-11a1.45,1.45,0,0,0-.94-1.36A9.88,9.88,0,0,1,741,729.3a2.85,2.85,0,0,1,.32-.21c0,.19,0,.36,0,.46s0,.26,0,.37v6.82a6,6,0,0,0,5.56,6H747a6,6,0,0,0,5.56-6v-6.82c0-.11,0-.22,0-.37s0-.27,0-.46l.32.2a9.89,9.89,0,0,1-2.13,17.48,1.45,1.45,0,0,0-1,1.36Zm18.43-18.42a.36.36,0,0,1-.35.35H766a1.45,1.45,0,0,0-1.41,1.12,18,18,0,0,1-2.36,5.68,1.45,1.45,0,0,0,.2,1.79l1.33,1.33a.34.34,0,0,1,.1.25.32.32,0,0,1-.1.24L760.18,755a.3.3,0,0,1-.24.1.31.31,0,0,1-.24-.1l-1.33-1.33a1.44,1.44,0,0,0-1.79-.19,18.26,18.26,0,0,1-3.92,1.86v-6.24a12.78,12.78,0,0,0,1.82-22.18c-.54-.37-2.17-1.48-3.6-.66s-1.27,2.7-1.21,3.51a1.1,1.1,0,0,1,0,.16v6.82a2.78,2.78,0,1,1-5.53,0v-6.81s0-.1,0-.17c.06-.81.2-2.7-1.2-3.51s-3.07.29-3.61.66a12.78,12.78,0,0,0,1.82,22.18v6.24a18.26,18.26,0,0,1-3.92-1.86,1.42,1.42,0,0,0-1.79.2L734.13,755a.31.31,0,0,1-.24.1.33.33,0,0,1-.25-.1l-3.55-3.55a.36.36,0,0,1-.1-.24.39.39,0,0,1,.1-.25l1.33-1.33a1.44,1.44,0,0,0,.2-1.79,17.84,17.84,0,0,1-2.35-5.67,1.45,1.45,0,0,0-1.41-1.13H726a.36.36,0,0,1-.35-.35v-5a.35.35,0,0,1,.35-.35h1.88a1.45,1.45,0,0,0,1.41-1.13,17.84,17.84,0,0,1,2.35-5.67,1.45,1.45,0,0,0-.2-1.8l-1.33-1.32a.39.39,0,0,1-.1-.25.36.36,0,0,1,.1-.24l3.56-3.56a.32.32,0,0,1,.24-.09.31.31,0,0,1,.24.1l1.33,1.32a1.44,1.44,0,0,0,1.79.2,18.24,18.24,0,0,1,5.68-2.36,1.43,1.43,0,0,0,1.13-1.4v-1.87a.35.35,0,0,1,.35-.35h5a.35.35,0,0,1,.34.35v1.87a1.45,1.45,0,0,0,1.13,1.41,17.8,17.8,0,0,1,5.68,2.35,1.44,1.44,0,0,0,1.79-.2l1.33-1.33a.33.33,0,0,1,.24-.09.33.33,0,0,1,.25.1l3.55,3.55a.32.32,0,0,1,.1.24.34.34,0,0,1-.1.25l-1.33,1.32a1.45,1.45,0,0,0-.19,1.8,18.07,18.07,0,0,1,2.35,5.68,1.45,1.45,0,0,0,1.41,1.12h1.87a.35.35,0,0,1,.35.35Zm0,0"/><path class="cls-17" d="M435.24,760.53,431,754.37a.46.46,0,0,0-.77,0l-4.27,6.16a.49.49,0,0,0-.06.41l1.22,3.64h-.29a.48.48,0,0,0-.48.48v1.42a.47.47,0,0,0,.48.47h.47v5.21a.48.48,0,0,0,.47.48h5.69a.48.48,0,0,0,.47-.48V767h.47a.47.47,0,0,0,.48-.47v-1.42a.48.48,0,0,0-.48-.48h-.29l1.22-3.64a.49.49,0,0,0-.06-.41Zm-4.65-.68a.46.46,0,0,1,.43.29.46.46,0,0,1-.1.52.5.5,0,0,1-.52.1.48.48,0,0,1-.29-.44.47.47,0,0,1,.48-.47ZM433,771.69h-4.73V767H433Zm.95-5.68h-6.63v-.48h6.63Zm-.81-1.43h-5l-1.24-3.71,3.26-4.72v2.75a.22.22,0,0,0,0,.08,1.42,1.42,0,1,0,.93,0,.22.22,0,0,0,0-.08v-2.75l3.26,4.72Zm0,0"/><path class="cls-17" d="M433.43,772.91h-5.69a.75.75,0,0,1-.74-.75v-4.94h-.2a.75.75,0,0,1-.75-.74v-1.42a.75.75,0,0,1,.67-.74l-1.1-3.29a.74.74,0,0,1,.09-.66l4.26-6.16a.77.77,0,0,1,1.23,0l4.26,6.15a.74.74,0,0,1,.09.66l-1.09,3.29a.75.75,0,0,1,.66.74v1.42a.75.75,0,0,1-.75.74h-.2v4.94A.75.75,0,0,1,433.43,772.91Zm-6.63-8.06a.21.21,0,0,0-.21.21v1.42a.2.2,0,0,0,.21.2h.74v5.48a.2.2,0,0,0,.2.21h5.69a.2.2,0,0,0,.2-.21v-5.48h.74a.2.2,0,0,0,.21-.2v-1.42a.21.21,0,0,0-.21-.21h-.66l1.33-4a.22.22,0,0,0,0-.18l-4.27-6.16a.21.21,0,0,0-.33,0l-4.27,6.16a.22.22,0,0,0,0,.18l1.33,4Zm6.42,7.11H428v-5.28h5.27Zm-4.73-.54h4.2v-4.2h-4.2Zm5.68-5.15H427v-1h7.17Zm-.89-1.42h-5.39l-1.34-4,3.83-5.54v3.61l0,.22-.21.11a1.15,1.15,0,0,0-.76,1.28,1.15,1.15,0,1,0,1.51-1.28l-.21-.07,0-.23v-3.64l3.83,5.54Zm-5-.53h4.61l1.14-3.41-2.7-3.9v1.79a1.69,1.69,0,1,1-1.49,0V757l-2.7,3.9Zm2.31-3.26a.93.93,0,0,1-.29,0,.74.74,0,0,1,.29-1.43.73.73,0,0,1,.68.46.73.73,0,0,1-.68,1Zm0-.94a.2.2,0,0,0-.21.2.21.21,0,0,0,.13.19.22.22,0,0,0,.22,0,.21.21,0,0,0-.14-.35Z"/><path class="cls-17" d="M444.8,748.48h-1.9a.47.47,0,0,0-.47.47v.48H432V749a.48.48,0,0,0-.48-.47h-.47v-2.37h.47a.48.48,0,0,0,.48-.47v-1.9a.48.48,0,0,0-.48-.47h-1.89a.48.48,0,0,0-.48.47v1.9a.48.48,0,0,0,.48.47h.47v2.37h-.47a.48.48,0,0,0-.48.47v.48H418.74V749a.47.47,0,0,0-.47-.47h-1.89a.47.47,0,0,0-.48.47v1.9a.47.47,0,0,0,.48.47h1.89a.47.47,0,0,0,.47-.47v-.48h7.83a7.6,7.6,0,0,0-1.65,1.5A8.24,8.24,0,0,0,423,757h-.48a.47.47,0,0,0-.47.47v1.89a.47.47,0,0,0,.47.48h1.9a.47.47,0,0,0,.47-.48v-1.89a.47.47,0,0,0-.47-.47H424c0-3.52,2.71-6.29,5.21-6.61v.45a.48.48,0,0,0,.48.47h1.89a.48.48,0,0,0,.48-.47v-.45a5.33,5.33,0,0,1,3.5,2.21,8.3,8.3,0,0,1,1.69,4.4h-.46a.47.47,0,0,0-.47.47v1.89a.47.47,0,0,0,.47.48h1.9a.47.47,0,0,0,.47-.48v-1.89a.47.47,0,0,0-.47-.47h-.49a9.14,9.14,0,0,0-1.89-5,7.58,7.58,0,0,0-1.74-1.65h7.91v.48a.47.47,0,0,0,.47.47h1.9a.47.47,0,0,0,.47-.47V749a.47.47,0,0,0-.47-.47Zm-27,1.89h-.95v-.94h.95ZM424,758.9H423V758H424Zm6.16-14.68h.95v.94h-.95Zm.95,6.15h-.95v-.94h.95Zm6.16,7.58h.94v.95h-.94Zm7.1-7.58h-.95v-.94h.95Zm0,0"/><path class="cls-17" d="M438.64,760.12h-1.9a.75.75,0,0,1-.74-.75v-1.89a.74.74,0,0,1,.74-.74h.17a8.06,8.06,0,0,0-1.61-4,5.23,5.23,0,0,0-3-2v.13a.74.74,0,0,1-.74.74h-1.89a.74.74,0,0,1-.74-.74v-.13a6.52,6.52,0,0,0-4.67,6h.2a.74.74,0,0,1,.74.74v1.89a.75.75,0,0,1-.74.75h-1.9a.75.75,0,0,1-.74-.75v-1.89a.74.74,0,0,1,.74-.74h.21a8.63,8.63,0,0,1,2-5,8.76,8.76,0,0,1,1.05-1.06H419v.21a.74.74,0,0,1-.74.74h-1.89a.75.75,0,0,1-.75-.74V749a.75.75,0,0,1,.75-.74h1.89a.74.74,0,0,1,.74.74v.21h9.89V749a.74.74,0,0,1,.74-.74h.2v-1.83h-.2a.74.74,0,0,1-.74-.74v-1.9a.74.74,0,0,1,.74-.74h1.89a.74.74,0,0,1,.74.74v1.9a.74.74,0,0,1-.74.74h-.2v1.83h.2a.74.74,0,0,1,.74.74v.21h9.89V749a.74.74,0,0,1,.74-.74h1.9a.74.74,0,0,1,.74.74v1.9a.74.74,0,0,1-.74.74h-1.9a.74.74,0,0,1-.74-.74v-.21h-6.84a7.9,7.9,0,0,1,1.16,1.22,9.36,9.36,0,0,1,1.92,4.88h.24a.74.74,0,0,1,.74.74v1.89A.75.75,0,0,1,438.64,760.12Zm-1.9-2.85a.21.21,0,0,0-.2.21v1.89a.2.2,0,0,0,.2.21h1.9a.2.2,0,0,0,.2-.21v-1.89a.21.21,0,0,0-.2-.21h-.74l0-.25a9,9,0,0,0-1.83-4.83,7,7,0,0,0-1.68-1.59l-.72-.49h8.72l.3,0,0,.3v.48a.2.2,0,0,0,.2.2h1.9a.2.2,0,0,0,.2-.2V749a.2.2,0,0,0-.2-.2h-1.9a.2.2,0,0,0-.2.2v.79l-.31,0H431.74V749a.2.2,0,0,0-.21-.2h-.74v-2.91h.74a.2.2,0,0,0,.21-.2v-1.9a.2.2,0,0,0-.21-.2h-1.89a.21.21,0,0,0-.21.2v1.9a.21.21,0,0,0,.21.2h.74v2.91h-.74a.21.21,0,0,0-.21.2v.75h-11V749a.2.2,0,0,0-.2-.2h-1.89a.2.2,0,0,0-.21.2v1.9a.2.2,0,0,0,.21.2h1.89a.2.2,0,0,0,.2-.2v-.74h9l-.75.49a7,7,0,0,0-1.59,1.44,8,8,0,0,0-1.85,5v.26h-.75a.21.21,0,0,0-.2.21v1.89a.2.2,0,0,0,.2.21h1.9a.2.2,0,0,0,.2-.21v-1.89a.21.21,0,0,0-.2-.21h-.74V757c0-3.7,2.81-6.54,5.44-6.87l.3,0v.75a.21.21,0,0,0,.21.2h1.89a.2.2,0,0,0,.21-.2v-.75l.3,0a5.62,5.62,0,0,1,3.69,2.3,8.62,8.62,0,0,1,1.74,4.55l0,.28Zm1.69,1.9H437v-1.49h1.48Zm-.94-.54h.41v-.41h-.41Zm-13.27.54h-1.48v-1.49h1.48Zm-.94-.54h.41v-.41h-.41Zm21.31-8h-1.48v-1.48h1.48Zm-.95-.53h.41v-.41h-.41Zm-12.31.53h-1.49v-1.48h1.49Zm-.95-.53h.41v-.41h-.41Zm-12.32.53h-1.48v-1.48h1.48Zm-.94-.53h.41v-.41h-.41Zm14.21-4.68h-1.49V744h1.49Zm-.95-.54h.41v-.41h-.41Z"/><path class="cls-91" d="M1088.91,783.86a.42.42,0,0,1-.42.42H1082v12.1l2.91-3.57a.43.43,0,0,1,.66,0l2.3,2.82,2.18-2.66a.42.42,0,0,1,.65.53l-4.59,5.62h10.74v-5.82l-3-3.66-2,2.38a.42.42,0,1,1-.65-.53l2.27-2.78a.42.42,0,0,1,.66,0l2.66,3.26v-7.7h-6.47a.42.42,0,0,1,0-.84h6.89a.42.42,0,0,1,.42.42v-.42h-9.22A.42.42,0,0,1,1088.91,783.86Zm1.8,4.94a3.11,3.11,0,1,1-.91-2.2A3.12,3.12,0,0,1,1090.71,788.8Z"/><polygon class="cls-91" points="1085.26 793.75 1082.02 797.71 1082.02 799.13 1085.04 799.13 1087.35 796.3 1085.26 793.75"/><path class="cls-91" d="M1086,787.19a2.26,2.26,0,0,0,0,3.21,2.25,2.25,0,0,0,1.6.67,2.27,2.27,0,1,0,0-4.54A2.24,2.24,0,0,0,1086,787.19Z"/><path class="cls-91" d="M1097.29,800h.42v-.42A.42.42,0,0,1,1097.29,800Z"/><path class="cls-91" d="M1081.18,799.55V783.86a.42.42,0,0,1,.42-.42H1081V800h.59A.42.42,0,0,1,1081.18,799.55Z"/><path class="cls-92" d="M1097.29,783.44h-6.89a.42.42,0,0,0,0,.84h6.47V792l-2.66-3.26a.42.42,0,0,0-.66,0l-2.27,2.78a.42.42,0,1,0,.65.53l2-2.38,3,3.66v5.82h-10.74l4.59-5.62a.42.42,0,0,0-.65-.53l-2.18,2.66-2.3-2.82a.43.43,0,0,0-.66,0l-2.91,3.57v-12.1h6.47a.42.42,0,1,0,0-.84h-6.89a.42.42,0,0,0-.42.42v15.69a.42.42,0,0,0,.42.42h15.69a.42.42,0,0,0,.42-.42V783.86A.42.42,0,0,0,1097.29,783.44ZM1082,799.13v-1.42l3.24-4,2.09,2.56-2.31,2.83Z"/><path class="cls-92" d="M1085.4,786.6a3.11,3.11,0,1,0,2.2-.91A3.11,3.11,0,0,0,1085.4,786.6Zm4.47,2.2a2.25,2.25,0,1,1-.66-1.61A2.26,2.26,0,0,1,1089.87,788.8Z"/><rect class="cls-92" x="1088.06" y="783.44" width="3.62" height="0.84"/><polygon class="cls-92" points="1089.67 793.47 1091.5 791.23 1092.17 791.74 1090.42 793.87 1089.67 793.47"/><path class="cls-22" d="M362.48,768.39l.87,3.45a1.49,1.49,0,0,0,.31.8,2.13,2.13,0,0,1,.35.45.58.58,0,0,1,0,.53c-.21.37-.94.53-1.34.56s-1-.13-1.11-.46-.64-.11-.54.17a1.46,1.46,0,0,0,1.23.74,3,3,0,0,0,1.48-.26c.8-.33,1.05-1,.72-1.54a2,2,0,0,0-.42-.54l-.09-.08c.17-.19,0,.19.06.06a.45.45,0,0,0,0-.11l-.52-2.07-.47-1.87c-.07-.28-.61-.11-.54.17Z"/><rect class="cls-93" x="115.96" y="911.41" width="1.59" height="37.96" transform="translate(175.29 -5.47) rotate(10.73)"/><polygon class="cls-94" points="186.75 947.95 188.63 947.95 181.61 911.59 180.04 911.89 186.75 947.95"/><polygon class="cls-95" points="131.75 947.95 133.63 947.95 126.61 911.59 125.04 911.89 131.75 947.95"/><polygon class="cls-96" points="169.58 947.95 168.05 947.97 174.78 911.76 176.35 912.05 169.58 947.95"/><path class="cls-97" d="M142.47,832.8c-8.36.89-19.18,1.84-30,20.28-11.87,20.15-5.62,50.25,3.75,58.61s40,18.7,65.71,3.23c0,0,15.54-9.37,7.57-24.92-12.27-23.93-10.54-28.92-16-38.3S160.22,830.9,142.47,832.8Z"/><path class="cls-98" d="M112.42,853.08c7.42-12.59,14.81-17,21.42-18.85a54.8,54.8,0,0,0-7.74,10.44c-11.88,20.15-5.62,50.26,3.75,58.62,8.31,7.42,33.32,16.38,56.83,7.53a23.87,23.87,0,0,1-4.8,4.1c-25.73,15.47-56.34,5.14-65.71-3.23S100.55,873.23,112.42,853.08Z"/><polygon class="cls-99" points="169.32 863.43 171.47 869.88 164.92 867.3 169.32 863.43"/><path class="cls-100" d="M162.57,844.24c.43,0,1.63.41,3.38,3.71,2.24,4.21,5.5,16.92,5.5,16.92l-9.75,3.62-1.25-2.65-2.06-20.43S162.45,844.23,162.57,844.24Z"/><path class="cls-101" d="M149.68,842.4a60.11,60.11,0,0,1,12.89,1.84s2.35,20.15-2.12,35.45c-1,3.43.83,14.21.83,14.21l-28.89-.38s3.42-26.06,2.13-30.27-1.32-18.88-1.32-18.88l6.49-1.11A65.61,65.61,0,0,1,149.68,842.4Z"/><path class="cls-102" d="M146.31,931.29s.64,7.36,1.82,9.39-.06,5.5-.13,6-2.47,1.16-6.3.75-3.78-1.29-3.47-2.72,2.35-3.25,2.48-4.61-1.18-6.24-1.18-6.24Z"/><path class="cls-103" d="M158,887.83s19.94-1.1,24.39,1.59-.8,8.2-.8,8.2-16.24,7-43.42,8.6c-6.43.37-7-16.72-5.78-18.14S158,887.83,158,887.83Z"/><path class="cls-104" d="M141.22,948c-3.95-.42-3.46-2.35-3.14-3.82.19-.92,1.33-2,2-3a6.61,6.61,0,0,0,2.64,1.28c1.79.53,4.23-.51,5.78-1.16a18.84,18.84,0,0,1,.53,5.08C149,946.81,145.17,948.39,141.22,948Z"/><path class="cls-105" d="M143.4,902.05c.79,6,4.74,35.92,4.74,35.92L139,939.1s-11.26-39-10.68-45,4.79-6.48,4.79-6.48S141.29,886.15,143.4,902.05Z"/><path class="cls-106" d="M132.89,846.61c2.7-1,4,23.25,4.38,33.23a117.1,117.1,0,0,0,15.2-.15c1-.07,3.23-.9,4.2-1a9.42,9.42,0,0,1,2.38-.11,46,46,0,0,1,5.6,2.5c.53.56,2,2,1.71,2.55s-2.75-1.68-2.75-1.68l-1.22-.68c1.52,1.48,4.44,3.44,4,4.15s-3-1.29-4.91-2.64c1.6,1.44,3.6,4,3.14,4.43s-2.68-2.63-5.11-3.49c-.89-.32-1.79.57-2.5.67a4.93,4.93,0,0,1-1.83.1l-2.62-.74c-.9.08-.92.61-1.82.8s-2.77.46-4.11.78c-7.69,1.88-10.25,2.74-12.6,2.74C126.92,888.05,126.5,849,132.89,846.61Z"/><path class="cls-107" d="M127.76,869.38c-.51-10.22-.43-22.83,5.32-25,2.27-.84,6.27,4.26,5.55,25.19A43.19,43.19,0,0,1,127.76,869.38Z"/><path class="cls-108" d="M173.08,937.58s-.8,2.55.63,4.24,7.37,3.35,8.15,4.26a2.54,2.54,0,0,1,.72,1.69l-16.67-.46.18-5,.77-3.6Z"/><path class="cls-109" d="M174.75,942.66s-4.29,1.73-6.36.71-2-1.31-2.6-.93S165,948,165,948l18.76.13c1.3,0,2-1,.9-1.81a15.86,15.86,0,0,0-2-1.21C181.12,944.22,174.75,942.66,174.75,942.66Z"/><path class="cls-110" d="M172.45,892.54c1.29-2.7,4.22-6.22,9.38-4.1,4.92,2,6.24,7,4.69,12.08s-11.78,35-12.13,39.12l-8.16.05s1.48-23.69,1.84-29.41A55.35,55.35,0,0,1,172.45,892.54Z"/><path class="cls-111" d="M185.69,865H158.42a1.8,1.8,0,0,0-1.65,1.1l-8.4,20.49h-15a.76.76,0,0,0-.76.76h0a.76.76,0,0,0,.76.76h42.79a3,3,0,0,0,2.73-1.76l8.46-18.84A1.79,1.79,0,0,0,185.69,865Z"/><path class="cls-112" d="M146.36,833.77,145,842.56s4.87,10.48,7.78,9.57c2.44-.76.94-10,.94-10s-1.33-5-.93-7.47S146.36,833.77,146.36,833.77Z"/><path class="cls-113" d="M152.82,834.63c.4-2.49-6.46-.86-6.46-.86l-.11.73a4,4,0,0,0,.75,1.22,9,9,0,0,0,6,2.72A13.66,13.66,0,0,1,152.82,834.63Z"/><path class="cls-114" d="M145.24,821.32c-.19-.07-1.55,10,1,12.8s7.6,3.68,9.4,1.5c2-2.42,1.9-13.26-2.11-16.12S145.24,821.32,145.24,821.32Z"/><path class="cls-115" d="M152,814.1a11.12,11.12,0,0,0-5.84,3.34c-1.41.16-3.32.94-5.3,4.21a8.19,8.19,0,0,0,2.19,10.67,6.36,6.36,0,0,1,2.79,4.71l.45-1.31a7.29,7.29,0,0,0,.35-3.07,5.72,5.72,0,0,0-.46-1.85c-.68-1.46,1.47-2.43,2.07-3.65.46-.93.48-3.07,1.21-4.62l.87-1.18s2-1.56,4-1.12S156,813.29,152,814.1Z"/><path class="cls-116" d="M148.14,829c0,1.23-.54,2.23-1.25,2.25s-1.3-1-1.32-2.21.54-2.24,1.25-2.25S148.12,827.72,148.14,829Z"/><path class="cls-17" d="M151.63,832.36l3.88-.2a1.7,1.7,0,0,1-1.72,1.62C151.71,833.94,151.63,832.36,151.63,832.36Z"/><path d="M150.67,826.47a.54.54,0,1,0,.63-.43A.54.54,0,0,0,150.67,826.47Z"/><path d="M154.49,826.46a.55.55,0,0,0,.43.63.54.54,0,1,0-.43-.63Z"/><path d="M152,825.65a.18.18,0,0,1-.17,0,1,1,0,0,0-.68-.23.94.94,0,0,0-.59.39.18.18,0,0,1-.26,0,.19.19,0,0,1,0-.27,1.21,1.21,0,0,1,.86-.53,1.42,1.42,0,0,1,1,.31.2.2,0,0,1,0,.27A.27.27,0,0,1,152,825.65Z"/><path d="M155.79,825.7a.18.18,0,0,1-.17-.05,1,1,0,0,0-.67-.22.84.84,0,0,0-.59.38.19.19,0,0,1-.27,0,.19.19,0,0,1,0-.26,1.21,1.21,0,0,1,.86-.54,1.33,1.33,0,0,1,1,.32.19.19,0,0,1,0,.27A.21.21,0,0,1,155.79,825.7Z"/><path class="cls-17" d="M154.38,826.5a.21.21,0,1,0,.42.08.21.21,0,0,0-.17-.25A.22.22,0,0,0,154.38,826.5Z"/><path class="cls-17" d="M150.55,826.59a.21.21,0,0,0,.17.25.22.22,0,0,0,.25-.17.22.22,0,0,0-.17-.25A.22.22,0,0,0,150.55,826.59Z"/><path d="M155.79,826.45a.16.16,0,0,1-.14-.05.87.87,0,0,0-1.24,0,.14.14,0,1,1-.19-.21,1.16,1.16,0,0,1,1.64,0,.14.14,0,0,1,0,.2Z"/><path d="M152,826.43a.14.14,0,0,1-.13,0,.88.88,0,0,0-1.25,0,.14.14,0,1,1-.18-.21,1.16,1.16,0,0,1,1.64,0,.14.14,0,0,1,0,.2Z"/><path class="cls-22" d="M153.51,826.79l.68,2.55a1.26,1.26,0,0,0,.23.6,1.88,1.88,0,0,1,.23.33.47.47,0,0,1,0,.4c-.12.26-.59.35-.85.37a.78.78,0,0,1-.73-.37c-.08-.2-.42-.1-.35.11a1.08,1.08,0,0,0,.82.58,1.74,1.74,0,0,0,.95-.15.76.76,0,0,0,.42-1.12,1.85,1.85,0,0,0-.29-.4l-.06-.07c.1-.13,0,.15,0,0s0,0,0-.07l-.41-1.54-.37-1.38c0-.21-.39-.1-.34.11Z"/><path d="M875.47,713.68a.49.49,0,0,0,.42.54.47.47,0,0,0,.51-.44.47.47,0,1,0-.93-.1Z"/><path d="M878.79,713.38a.49.49,0,0,0,.42.54.48.48,0,0,0,.51-.44.49.49,0,0,0-.42-.55A.47.47,0,0,0,878.79,713.38Z"/><path d="M876.55,712.83a.16.16,0,0,1-.15,0,.87.87,0,0,0-.61-.15.73.73,0,0,0-.48.4.16.16,0,0,1-.23.05.18.18,0,0,1-.05-.24,1.11,1.11,0,0,1,.7-.56,1.16,1.16,0,0,1,.86.22.19.19,0,0,1,0,.25A.16.16,0,0,1,876.55,712.83Z"/><path d="M879.86,712.57a.16.16,0,0,1-.15,0,.81.81,0,0,0-.6-.16.77.77,0,0,0-.49.4.15.15,0,0,1-.22.06.19.19,0,0,1-.06-.24,1.06,1.06,0,0,1,.71-.56,1.1,1.1,0,0,1,.86.22.17.17,0,0,1,0,.24A.16.16,0,0,1,879.86,712.57Z"/><path class="cls-17" d="M878.7,713.42a.19.19,0,0,0,.17.22.19.19,0,0,0,.2-.18.19.19,0,0,0-.17-.21A.18.18,0,0,0,878.7,713.42Z"/><path class="cls-17" d="M875.37,713.8a.2.2,0,0,0,.17.22.2.2,0,0,0,0-.39A.2.2,0,0,0,875.37,713.8Z"/><path d="M879.91,713.26a.11.11,0,0,1-.12,0,.72.72,0,0,0-1.08.08.11.11,0,0,1-.17,0,.13.13,0,0,1,0-.18A1,1,0,0,1,880,713a.15.15,0,0,1,0,.19Z"/><path d="M876.63,713.54a.13.13,0,0,1-.12,0,.74.74,0,0,0-1.09.09.12.12,0,0,1-.17,0,.14.14,0,0,1,0-.19,1,1,0,0,1,1.42-.09.13.13,0,0,1,0,.18A.1.1,0,0,1,876.63,713.54Z"/><path class="cls-22" d="M877.94,714.52l.41,1.36c0,.11,0,.24.15.3a.67.67,0,0,1,.18.16.18.18,0,0,1,0,.22,1.46,1.46,0,0,1-.72.37c-.22.06-.52.05-.59-.08s-.34,0-.29.13.36.21.65.18a2,2,0,0,0,.79-.26c.43-.22.58-.51.41-.72a.64.64,0,0,0-.21-.19l-.05,0c.09-.1,0,.08,0,0s0,0,0,0l-.25-.82-.22-.74c0-.11-.32,0-.29.13Z"/></g></g></svg>