<?xml version="1.0" encoding="utf-8"?>
<!-- Generator: Adobe Illustrator 25.1.0, SVG Export Plug-In . SVG Version: 6.00 Build 0)  -->
<svg version="1.1" id="Camada_1" xmlns="http://www.w3.org/2000/svg" xmlns:xlink="http://www.w3.org/1999/xlink" x="0px" y="0px"
	 viewBox="0 0 512 512" style="enable-background:new 0 0 512 512;" xml:space="preserve">
<style type="text/css">
	.st0{fill:#FF9015;}
</style>
<g>
	<g>
		<path class="st0" d="M111.38,141.84c-5.85,0.27-10.38,5.23-10.11,11.09c0.27,5.85,5.23,10.38,11.09,10.11
			c5.85-0.27,10.38-5.23,10.11-11.09C122.19,146.1,117.23,141.57,111.38,141.84z"/>
	</g>
	<g>
		<path class="st0" d="M59.09,248.17c-5.85,0.27-10.38,5.23-10.11,11.09c0.27,5.85,5.23,10.38,11.09,10.11
			c5.85-0.27,10.38-5.23,10.11-11.09C69.9,252.43,64.94,247.9,59.09,248.17z"/>
	</g>
	<g>
		<path class="st0" d="M393.29,132.99c-5.85,0.27-10.38,5.23-10.11,11.09c0.27,5.85,5.23,10.38,11.09,10.11
			c5.85-0.27,10.38-5.23,10.11-11.09C404.11,137.25,399.15,132.72,393.29,132.99z"/>
	</g>
	<g>
		<path class="st0" d="M457.47,229.84c-5.85,0.27-10.38,5.23-10.11,11.09c0.27,5.85,5.23,10.38,11.09,10.11
			c5.85-0.27,10.38-5.23,10.11-11.09C468.29,234.1,463.32,229.57,457.47,229.84z"/>
	</g>
	<g>
		<path class="st0" d="M509.93,205.86l-70.3-106.08c-1.96-2.95-5.97-3.77-8.93-1.81l-9.13,6.05c-1.81,1.2-2.8,3.17-2.86,5.19
			l-1.44-2.17c-3.45-5.2-8.73-8.76-14.88-10c-6.15-1.25-12.4-0.04-17.6,3.41l-27.25,18.05c-5.2,3.45-8.76,8.73-10,14.88
			c-1.25,6.15-0.04,12.4,3.41,17.6l4.25,6.41c-3.36,1.37-12.89,3.36-36.03-1.91c-1.44-0.36-15.84-3.82-36.27-4.7
			c-19.55-0.84-48.59,0.65-75.88,12.53l-1.56,0.68l-1.12,1.28c-0.46,0.52-5.16,5.92-11.39,14.27c-6.28-1.19-12.89-2.26-19.78-3.13
			c-0.33-0.09-0.69-0.18-1.08-0.28c-4.75-1.21-15.68-4.02-19.5-10.08l3.6-6.96c2.89-5.57,3.42-11.96,1.51-17.97
			c-1.91-6.01-6.03-10.91-11.61-13.8l-29.19-15.11c-5.58-2.88-11.96-3.42-17.97-1.51c-6.01,1.91-10.91,6.03-13.8,11.61l-3.28,6.34
			c-0.43-1.74-1.55-3.29-3.26-4.17l-9.73-5.04c-3.15-1.63-7.05-0.39-8.68,2.76L1.72,235.22c-1.63,3.15-0.39,7.05,2.76,8.68
			l9.73,5.04c1.7,0.88,3.62,0.9,5.29,0.25l-4.31,8.32c-5.97,11.54-1.44,25.79,10.1,31.76l29.19,15.11c3.8,1.96,7.88,2.79,11.88,2.61
			c8.14-0.38,15.88-4.96,19.89-12.71l3.45-6.66l13.5,15.27c0.47,0.6,1.81,2.3,3.92,4.86l-0.15,0.22
			c-7.44,11.13-4.43,26.23,6.7,33.67c4.02,2.69,8.65,4.06,13.4,4.06c-1.06,3.98-1.23,8.18-0.4,12.35
			c1.43,7.17,5.54,13.34,11.58,17.38c4.88,3.26,10.56,4.83,16.33,4.56c1.38-0.06,2.77-0.23,4.15-0.51c1.32-0.26,2.6-0.65,3.85-1.09
			c1.58,6.28,5.33,11.68,10.73,15.28c4.79,3.2,10.27,4.6,15.63,4.35c2.85-0.13,5.65-0.75,8.31-1.78
			c1.64,6.09,5.35,11.32,10.62,14.84c4.65,3.11,10.07,4.6,15.58,4.35c1.32-0.06,2.64-0.22,3.96-0.48
			c6.71-1.34,12.5-5.16,16.35-10.75c3.55,0.39,7.04,0.55,10.46,0.46c4.56,1.64,18.06,5.96,31.97,5.32
			c7.79-0.36,15.7-2.27,22.24-7.08c7.72-5.68,12.56-10.47,14.93-14.88c5.32,0.38,15.01-0.02,22.53-6.5
			c5.59-4.81,8.64-11.72,9.08-20.58c5.09-0.18,11.9-1.49,17.5-6.47c5.35-4.75,8.26-11.57,8.71-20.34
			c5.96,0.17,16.15-0.82,23.04-8.44c6.4-7.08,7.88-17.53,4.43-31.06c5.29-3.34,12.46-9.9,22.63-22.42l3.3,4.98
			c4.79,7.23,12.93,10.94,21.02,10.44c3.97-0.24,7.92-1.5,11.46-3.85l27.25-18.05c10.77-7.14,13.73-21.71,6.59-32.48l-7.81-11.78
			c1.89,0.73,4.09,0.58,5.9-0.61l9.13-6.05C511.08,212.83,511.89,208.81,509.93,205.86z M72.13,286.97
			c-1.95,3.76-6.59,5.23-10.35,3.29l-29.19-15.11c-3.76-1.95-5.24-6.59-3.29-10.35l69.97-135.19c0.94-1.81,2.53-3.15,4.5-3.77
			c0.66-0.21,1.34-0.33,2.01-0.36c1.32-0.06,2.64,0.22,3.84,0.84l29.19,15.11c1.81,0.93,3.15,2.53,3.77,4.5
			c0.62,1.97,0.45,4.04-0.48,5.85L72.13,286.97z M121.14,330.41L121.14,330.41c-3.86-2.58-5.51-7.24-4.48-11.51
			c0.29-1.2,0.78-2.36,1.5-3.44l5.86-8.78c0.31-0.46,0.66-0.88,1.02-1.28c1.97-2.15,4.67-3.37,7.46-3.5c2.22-0.1,4.49,0.48,6.47,1.8
			c2.38,1.59,4,4.03,4.56,6.87c0.56,2.84,0,5.71-1.59,8.09l-2.01,3.01l-3.85,5.76c-1.59,2.38-4.03,4-6.87,4.56
			c-0.13,0.03-0.27,0.04-0.4,0.06C126.13,332.49,123.41,331.92,121.14,330.41z M155.76,364.58c-3.19,0.64-6.42,0-9.1-1.79h0
			c-2.68-1.79-4.5-4.53-5.13-7.72c-0.61-3.08-0.03-6.18,1.61-8.8c0.06-0.1,0.11-0.2,0.18-0.3l8.38-12.54l20.5-30.68
			c1.79-2.67,4.53-4.5,7.72-5.13c0.62-0.12,1.24-0.2,1.86-0.23c2.57-0.12,5.08,0.57,7.24,2.01c2.68,1.79,4.5,4.53,5.13,7.72
			c0.63,3.19,0,6.42-1.79,9.1l-22.47,33.63l-6.41,9.6c-0.7,1.04-1.54,1.95-2.5,2.72C159.49,363.36,157.71,364.2,155.76,364.58z
			 M181.73,381.04L181.73,381.04c-2.18-1.46-3.72-3.63-4.41-6.16c-0.07-0.25-0.14-0.5-0.19-0.76c-0.57-2.86,0-5.76,1.6-8.16
			l3.97-5.94l18.29-27.37c1.99-2.99,5.22-4.67,8.56-4.82c2.24-0.1,4.53,0.48,6.53,1.82c2.4,1.6,4.03,4.06,4.6,6.92
			c0.57,2.86,0,5.76-1.6,8.16l-18.37,27.49l-3.89,5.82c-1.85,2.76-4.75,4.4-7.82,4.75C186.52,383.08,183.95,382.53,181.73,381.04z
			 M224.58,400.74c-3.04,0.6-6.13,0-8.68-1.7c-1.42-0.95-2.57-2.19-3.44-3.61c-0.69-1.14-1.19-2.4-1.46-3.75
			c-0.61-3.04,0-6.13,1.7-8.68l2.11-3.16l10.3-15.42c1.7-2.55,4.32-4.29,7.36-4.9c0.59-0.12,1.18-0.19,1.77-0.22
			c2.45-0.11,4.85,0.55,6.9,1.92c5.3,3.54,6.73,10.74,3.19,16.04l-7.02,10.51l-5.39,8.07c-1.46,2.19-3.6,3.77-6.09,4.56
			C225.43,400.54,225.01,400.66,224.58,400.74z M393,315.47c-3.11,3.47-9.74,3.66-12.92,3.38l-74.15-38.43
			c-3.67-1.9-8.18-0.52-10.16,3.11c-1.97,3.63-0.68,8.17,2.91,10.21l67.39,38.37c-0.06,4.12-0.88,8.48-3.62,10.96
			c-3.13,2.83-8.37,2.87-10.95,2.57l-64.43-31.08c-3.7-1.79-8.15-0.3-10.03,3.35c-1.89,3.65-0.53,8.13,3.06,10.12l59.66,33.03
			c-0.34,4.06-1.59,7.05-3.72,8.91c-3.62,3.15-9.75,3.15-12.67,2.8l-50.3-24.85c-3.71-1.83-8.2-0.35-10.1,3.32
			c-1.9,3.68-0.5,8.19,3.14,10.16l41.51,22.38c-1.57,1.61-4.1,3.88-8.18,6.88c-11.34,8.34-33.57,2.33-41.16-0.69
			c-1.01-0.4-2.08-0.58-3.17-0.54c-0.5,0.02-1,0.02-1.5,0.03l2.78-4.16c7.98-11.94,4.75-28.14-7.18-36.11
			c-4.18-2.79-8.97-4.26-13.9-4.35c0.88-3.63,1-7.45,0.24-11.23c-1.36-6.84-5.29-12.73-11.05-16.58c-4.64-3.1-9.93-4.49-15.13-4.35
			c0.32-2.8,0.23-5.66-0.34-8.51c-1.43-7.17-5.54-13.34-11.58-17.38c-6.04-4.04-13.32-5.48-20.49-4.05
			c-7.17,1.43-13.34,5.54-17.38,11.58l-4.95,7.4c-1.86-3.7-4.63-6.89-8.15-9.24c-9.58-6.4-22.1-5.05-30.15,2.56
			c-0.8-0.99-1.26-1.58-1.31-1.65c-0.1-0.13-0.21-0.26-0.32-0.38l-15.47-17.49l48.23-93.38c7.31,5.23,16.23,7.51,20.88,8.7
			c0.53,0.14,1,0.26,1.4,0.36c0.34,0.09,0.69,0.16,1.05,0.21c4.3,0.54,8.49,1.16,12.56,1.84c-6.78,10.3-13.76,22.46-18.52,34.79
			l-0.17,0.45l-0.11,0.46c-0.37,1.51-3.39,14.94,5.18,22.85c5.96,5.5,15.11,6.25,27.19,2.21c26.34-8.8,38.36-27.63,41.99-34.5
			l10.81-6.02L358,275.77c17.11,11.27,30.99,20.6,36.36,24.22C395.6,305.58,396.08,312.02,393,315.47z M399.74,282.28l-33.77-19.43
			l-116.14-66.8l-17.11,9.53l-3.28,1.83l-2.28,1.24l-1.01,2.42c-0.35,0.82-8.95,20.16-34.05,28.55c-7.63,2.55-11.18,1.85-12.08,1.03
			c-1.28-1.17-1.34-5.13-0.83-7.68c5.11-13.04,13.14-26.15,20.37-36.57c3.63-5.24,7.07-9.8,9.83-13.33
			c2.33-2.98,4.19-5.22,5.28-6.52c46.82-19.56,100.35-6.47,100.88-6.34l0.17,0.04c18.04,4.12,32.05,4.91,41.65,2.36
			c1.34-0.36,2.54-0.76,3.62-1.2l59.7,89.72C408.32,276.61,402.05,281.04,399.74,282.28z M485.58,252.55l-27.25,18.05
			c-3.51,2.33-8.26,1.36-10.59-2.15l-83.62-126.2c-1.12-1.69-1.51-3.72-1.1-5.73c0.41-2.01,1.56-3.73,3.25-4.85l27.25-18.06
			c1.12-0.74,2.39-1.16,3.7-1.24c0.67-0.04,1.35,0.01,2.03,0.14c2.01,0.41,3.73,1.56,4.85,3.25l83.62,126.19
			C490.06,245.47,489.09,250.22,485.58,252.55z"/>
	</g>
</g>
</svg>
