<?xml version="1.0" encoding="utf-8"?>
<!-- Generator: Adobe Illustrator 25.1.0, SVG Export Plug-In . SVG Version: 6.00 Build 0)  -->
<svg version="1.1" id="Camada_1" xmlns="http://www.w3.org/2000/svg" xmlns:xlink="http://www.w3.org/1999/xlink" x="0px" y="0px"
	 viewBox="0 0 512 512" style="enable-background:new 0 0 512 512;" xml:space="preserve">
<style type="text/css">
	.st0{fill:#FF9015;}
</style>
<g>
	<path class="st0" d="M305.71,73.9c-12.94-7.47-28.39-7.48-41.34-0.01l-96.01,55.44h-84.5C38.17,129.33,1,166.5,1,212.19
		c0,36.83,24.16,68.12,57.46,78.87L94.9,404.07c4.56,14.45,14.48,26.25,27.93,33.23c8.2,4.26,17.11,6.42,26.08,6.42
		c5.74,0,11.52-0.88,17.15-2.66c14.45-4.56,26.25-14.47,33.23-27.92c6.96-13.4,8.3-28.7,3.78-43.11l-19.23-66.19l80.52,46.49
		c6.47,3.74,13.57,5.6,20.67,5.6c7.1,0,14.2-1.87,20.66-5.6c12.94-7.47,20.66-20.85,20.66-35.79V109.68
		C326.37,94.74,318.64,81.37,305.71,73.9z M23.45,212.19c0-33.31,27.1-60.41,60.4-60.41h76.01v120.7l-91.1-1.78
		C42.74,263.98,23.45,240.29,23.45,212.19z M179.37,402.78c-4.22,8.12-11.34,14.11-20.07,16.86c-8.72,2.76-17.99,1.95-26.12-2.27
		c-8.12-4.22-14.12-11.35-16.89-20.14l-32.96-102.2c0.17,0,0.35,0.01,0.52,0.01h74.07l23.63,81.35c0.02,0.09,0.05,0.17,0.08,0.26
		C184.39,385.38,183.59,394.66,179.37,402.78z M303.91,314.53c0,6.83-3.53,12.94-9.44,16.35c-5.91,3.41-12.97,3.41-18.88,0
		l-93.15-53.78V147.12l93.15-53.79c5.92-3.41,12.98-3.41,18.89,0c5.91,3.41,9.43,9.52,9.43,16.34V314.53z"/>
	<g>
		<path class="st0" d="M369.46,265.74c-2.21,0-4.45-0.65-6.4-2.01c-5.09-3.54-6.35-10.54-2.81-15.63c6.5-9.34,9.93-20.23,9.93-31.48
			c0-11.22-3.42-22.07-9.88-31.39c-3.53-5.09-2.27-12.09,2.83-15.62c5.09-3.53,12.09-2.27,15.62,2.83
			c9.08,13.09,13.88,28.37,13.88,44.18c0,15.86-4.82,31.18-13.95,44.3C376.5,264.06,373.01,265.74,369.46,265.74z"/>
		<path class="st0" d="M409.63,315.19c-2.79,0-5.59-1.04-7.77-3.12c-4.48-4.29-4.63-11.4-0.34-15.87
			c16.35-17.06,28.21-50.52,28.21-79.57c0-28.8-11.65-62.04-27.7-79.04c-4.26-4.51-4.05-11.61,0.45-15.87
			c4.51-4.26,11.61-4.05,15.87,0.45c19.92,21.09,33.83,59.93,33.83,94.45c0,34.82-14.17,73.93-34.46,95.1
			C415.53,314.03,412.58,315.19,409.63,315.19z"/>
		<path class="st0" d="M449.07,352.48c-3.02,0-6.03-1.21-8.24-3.6c-4.21-4.55-3.94-11.65,0.61-15.86
			c28.17-26.08,47.1-72.85,47.1-116.39c0-43.23-18.66-89.74-46.43-115.74c-4.53-4.24-4.76-11.34-0.52-15.87
			c4.24-4.53,11.34-4.76,15.87-0.52C489.48,114.48,511,167.58,511,216.63c0,49.4-21.82,102.8-54.3,132.86
			C454.54,351.49,451.8,352.48,449.07,352.48z"/>
	</g>
</g>
</svg>
