<?xml version="1.0" encoding="utf-8"?>
<!-- Generator: Adobe Illustrator 25.1.0, SVG Export Plug-In . SVG Version: 6.00 Build 0)  -->
<svg version="1.1" id="Camada_1" xmlns="http://www.w3.org/2000/svg" xmlns:xlink="http://www.w3.org/1999/xlink" x="0px" y="0px"
	 viewBox="0 0 512 512" style="enable-background:new 0 0 512 512;" xml:space="preserve">
<style type="text/css">
	.st0{fill:#FF9015;}
</style>
<g>
	<polygon class="st0" points="322.06,102.9 322.06,14.98 189.94,14.98 189.94,102.9 128.6,102.9 256,238.4 383.4,102.9 	"/>
	<path class="st0" d="M468.91,504.02H43.09C19.88,504.02,1,485.14,1,461.93V170.58c0-23.21,18.88-42.09,42.09-42.09h425.82
		c23.21,0,42.09,18.88,42.09,42.09v291.34C511,485.14,492.12,504.02,468.91,504.02z M43.09,148.72c-12.06,0-21.86,9.81-21.86,21.86
		v291.34c0,12.06,9.81,21.86,21.86,21.86h425.82c12.06,0,21.86-9.81,21.86-21.86V170.58c0-12.06-9.81-21.86-21.86-21.86H43.09z"/>
	<polygon class="st0" points="256,378.29 4.62,167.59 17.61,152.09 256,351.89 494.39,152.09 507.38,167.59 	"/>
	
		<rect x="397.32" y="274.89" transform="matrix(0.7234 -0.6904 0.6904 0.7234 -161.013 390.9314)" class="st0" width="20.23" height="243.09"/>
	
		<rect x="-16.98" y="386.32" transform="matrix(0.6904 -0.7234 0.7234 0.6904 -254.4203 198.3926)" class="st0" width="243.09" height="20.23"/>
</g>
</svg>
