<?xml version="1.0" encoding="UTF-8" standalone="no"?>
<!DOCTYPE svg PUBLIC "-//W3C//DTD SVG 1.1//EN" "http://www.w3.org/Graphics/SVG/1.1/DTD/svg11.dtd">
<svg width="100%" height="100%" viewBox="0 0 257 187" version="1.1" xmlns="http://www.w3.org/2000/svg" xmlns:xlink="http://www.w3.org/1999/xlink" xml:space="preserve" xmlns:serif="http://www.serif.com/" style="fill-rule:evenodd;clip-rule:evenodd;stroke-linejoin:round;stroke-miterlimit:2;">
    <g id="Artboard2" transform="matrix(1,0,0,1,-46.0737,-1.59158)">
        <rect x="46.074" y="1.592" width="256.926" height="186.556" style="fill:none;"/>
        <clipPath id="_clip1">
            <rect x="46.074" y="1.592" width="256.926" height="186.556"/>
        </clipPath>
        <g clip-path="url(#_clip1)">
            <g id="Artboard1" transform="matrix(1,0,0,1,-0.597393,-0.879751)">
                <rect x="0.671" y="1.471" width="335.01" height="269.366" style="fill:none;"/>
                <g transform="matrix(0.412298,0,0,0.412298,67.7433,-12.1401)">
                    <g>
                        <g id="Capa_1">
                            <g transform="matrix(2.42543,0,0,2.42543,-56.4033,10.7334)">
                                <rect x="51.823" y="65.187" width="174.983" height="120.414" style="fill:rgb(255,144,21);"/>
                            </g>
                            <g transform="matrix(2.42543,0,0,2.42543,-51.1092,35.4391)">
                                <text x="80.562px" y="136.853px" style="font-family:'ArialMT', 'Arial', sans-serif;font-size:11.681px;fill:white;">Es hora de editar</text>
                                <text x="80.562px" y="148.917px" style="font-family:'ArialMT', 'Arial', sans-serif;font-size:11.681px;fill:white;">tu perﬁl</text>
                            </g>
                            <g transform="matrix(2.42543,0,0,2.42543,-51.1092,35.4391)">
                                <text x="74.014px" y="109.205px" style="font-family:'ArialMT', 'Arial', sans-serif;font-size:13.333px;fill:white;">¡T<tspan x="86.104px 93.519px " y="109.205px 109.205px ">u </tspan>compra ha</text>
                                <text x="74.014px" y="122.975px" style="font-family:'ArialMT', 'Arial', sans-serif;font-size:13.333px;fill:white;">sido exitosa!</text>
                            </g>
                            <path d="M393.27,413.49L404.44,412.91C404.474,412.908 404.508,412.907 404.542,412.907C405.37,412.907 406.052,413.588 406.052,414.417C406.052,414.441 406.051,414.466 406.05,414.49L405.76,424.76C405.725,425.562 405.055,426.203 404.251,426.203C404.218,426.203 404.184,426.202 404.15,426.2L393.55,425.67C392.808,425.614 392.223,424.994 392.21,424.25L391.95,415.05C391.903,414.266 392.489,413.574 393.27,413.49Z" style="fill:white;fill-rule:nonzero;"/>
                            <path d="M360,433.92L365.52,433.63C365.54,433.628 365.561,433.627 365.581,433.627C365.987,433.627 366.321,433.962 366.321,434.367C366.321,434.382 366.321,434.396 366.32,434.41L366.18,439.49C366.165,439.89 365.831,440.212 365.431,440.212C365.414,440.212 365.397,440.211 365.38,440.21L360.13,439.95C359.766,439.911 359.483,439.606 359.47,439.24L359.35,434.69C359.327,434.303 359.615,433.962 360,433.92Z" style="fill:white;fill-rule:nonzero;"/>
                            <g transform="matrix(1,0,0,1,0,-48.5086)">
                                <path d="M169,263.57L179.94,263C179.97,262.998 180.001,262.997 180.031,262.997C180.849,262.997 181.521,263.67 181.521,264.487C181.521,264.508 181.521,264.529 181.52,264.55L181.23,274.61C181.2,275.395 180.546,276.024 179.761,276.024C179.724,276.024 179.687,276.023 179.65,276.02L169.27,275.51C168.543,275.449 167.973,274.84 167.96,274.11L167.71,265.11C167.652,264.337 168.229,263.649 169,263.57Z" style="fill:white;fill-rule:nonzero;"/>
                            </g>
                            <g transform="matrix(1,0,0,1,-43.6578,-9.70172)">
                                <path d="M136.34,283.58L141.75,283.3C141.767,283.299 141.784,283.298 141.801,283.298C142.202,283.298 142.531,283.628 142.531,284.028C142.531,284.042 142.531,284.056 142.53,284.07L142.39,289.07C142.37,289.456 142.047,289.762 141.661,289.762C141.644,289.762 141.627,289.761 141.61,289.76L136.47,289.51C136.113,289.479 135.834,289.179 135.83,288.82L135.7,284.36C135.697,284.336 135.696,284.311 135.696,284.287C135.696,283.922 135.977,283.614 136.34,283.58Z" style="fill:white;fill-rule:nonzero;"/>
                            </g>
                            <path d="M463.5,432.32C463.5,432.32 465.66,434.46 465.71,435.25C465.76,436.04 465.9,444.45 465.02,445.25C464.14,446.05 461.54,446.6 462.37,447.48C463,448.15 467.86,448.01 471.07,447.83C472.01,447.77 473.19,440.18 473.56,439.07C474.1,437.45 476.04,433.92 475.56,432.79C475.32,432.24 473.56,430.99 471.93,429.93C470.637,428.927 469.519,427.717 468.62,426.35L463.5,432.32Z" style="fill:url(#_Linear2);fill-rule:nonzero;"/>
                            <path d="M434.55,437.58L436.49,443.14C436.63,444.02 437.2,446.19 437.2,446.99C437.2,449.99 423.85,444.44 426.84,443.11C427.502,442.595 427.937,441.841 428.05,441.01C427.999,439.748 427.612,438.523 426.93,437.46L434.55,437.58Z" style="fill:url(#_Linear3);fill-rule:nonzero;"/>
                            <path d="M412.26,332.73C412.26,332.73 411.26,341.91 411.26,342.06C411.26,358.14 409.38,389.55 409.98,392.57C411.44,399.94 427.37,440.08 427.37,440.08L435.63,438.9L424.57,391.49L428.64,373.37L434.4,337.53L412.26,332.73Z" style="fill:url(#_Linear4);fill-rule:nonzero;"/>
                            <path d="M443.38,340.76L444.99,350.18L449.35,389L470.67,428.34C470.67,428.34 467.47,433.27 464.02,434.04L433.75,394.27L417.35,344.49L417.92,333.43L443.38,340.76Z" style="fill:url(#_Linear5);fill-rule:nonzero;"/>
                            <path d="M409.15,232.8C408.745,233.442 408.308,234.063 407.84,234.66C407.372,235.257 410.25,260.46 410.44,262.07L417.77,273.17L409.56,279.17C409.56,279.17 401.19,265.76 401.11,265.11C401.03,264.46 401.38,245.11 401.38,245.11C401.38,245.11 401.99,235.11 401.99,234.59C401.99,234.07 400.52,230.86 400.23,229.59C400.019,227.958 399.902,226.315 399.88,224.67L400.49,223.79L403.35,223.16L405.35,223.39C405.35,223.39 410.01,225.28 410.19,225.87C410.183,227.579 410.039,229.284 409.76,230.97C409.612,231.597 409.408,232.21 409.15,232.8Z" style="fill:url(#_Linear6);fill-rule:nonzero;"/>
                            <path d="M408.25,228C407.946,228.692 407.553,229.341 407.08,229.93C406.37,230.78 404.97,230.57 404.14,229.47C403.644,228.808 403.262,228.068 403.01,227.28L408.25,228Z" style="fill:rgb(254,135,94);fill-rule:nonzero;"/>
                            <path d="M408.27,228C408.27,227.44 408.33,226.26 408.33,226.26C408.33,226.26 407.13,223.92 407.41,223.77C408.36,223.22 410.22,225.85 410.22,225.85C410.22,225.85 408.38,229.86 408.27,228Z" style="fill:rgb(247,164,145);fill-rule:nonzero;"/>
                            <path d="M400.29,229.56C400.29,229.56 399,224.72 399.55,223.36C399.91,222.48 404.7,220.59 405.31,221.44C405.92,222.29 401.31,223.8 401.42,223.99C401.53,224.18 404.89,222.09 405.49,222.51C406.09,222.93 402.36,225.3 402.49,225.66C402.62,226.02 404.72,223.66 404.95,224.66C405.18,225.66 400.29,229.56 400.29,229.56Z" style="fill:rgb(247,164,145);fill-rule:nonzero;"/>
                            <path d="M412.12,327.14L413.8,304.22C414.34,298.56 414.54,294.04 414.09,292.41C413.09,288.94 405.98,277.28 405.98,277.28C405.98,277.28 412.82,269.67 417.66,269.67C417.66,269.67 423.02,280.01 429.4,280.92C435.78,281.83 434.4,281.87 437,282.15C439.827,282.352 442.611,282.951 445.27,283.93C450.14,285.93 446.47,304.19 445.91,307.16C445.07,311.64 446.65,349.41 446.65,349.41C446.65,349.41 432.65,352.55 411.24,342.06L412.12,327.14Z" style="fill:url(#_Linear7);fill-rule:nonzero;"/>
                            <path d="M435.7,272.12L437.21,282.34C437.21,282.34 431.61,294.24 428.21,293.2C425.38,292.32 427.15,281.43 427.15,281.43C427.15,281.43 428.66,275.97 428.2,273.12C427.74,270.27 435.7,272.12 435.7,272.12Z" style="fill:url(#_Linear8);fill-rule:nonzero;"/>
                            <path d="M443,260.34C443.24,260.34 440.72,271.75 436.83,273.72C432.94,275.69 427.12,274.66 426.03,271.58C424.83,268.18 429.22,256.58 434.7,255.06C440.18,253.54 443,260.34 443,260.34Z" style="fill:url(#_Linear9);fill-rule:nonzero;"/>
                            <path d="M458.81,302.78C458.81,302.78 463.81,309.54 464.11,310.78C464.41,312.02 462.23,340.04 462.11,342.52C462.11,342.52 463.04,345.52 463.55,347.42C464.06,349.32 464.3,350.73 464.04,351.1C463.78,351.47 462.98,351.22 462.66,351.94C462.34,352.66 461.42,352.54 461.14,352.69C460.86,352.84 460,353.9 459.68,353.87C459.309,353.794 458.924,353.826 458.57,353.96C458.202,354.318 457.703,354.509 457.19,354.49C456.812,354.439 456.461,354.267 456.19,354C455.919,353.733 456.7,348.84 456.33,348.86C455.769,348.932 455.251,349.201 454.87,349.62C454.74,349.94 454.8,350.62 454.67,350.96C454.515,351.331 454.112,351.539 453.72,351.45C453.33,351.32 453.39,349.55 453.39,349.55C453.424,348.756 453.617,347.977 453.96,347.26C455.76,344.31 456.15,344.73 456.38,344.35C456.5,344.16 456.38,336.89 456.38,336.89C456.38,336.89 455.66,316.23 455.59,315.12L450.33,307.32L458.81,302.78Z" style="fill:url(#_Linear10);fill-rule:nonzero;"/>
                            <path d="M460.89,302.85L450.37,310.77C450.37,310.77 444.62,302.1 441.54,299.01C437.67,295.15 443.1,282.88 445.43,284.01C451.17,286.69 460.89,302.85 460.89,302.85Z" style="fill:url(#_Linear11);fill-rule:nonzero;"/>
                            <path d="M438.47,249.86C440.707,251.271 442.453,253.339 443.47,255.78C444.93,256.52 446.69,258.12 447.54,262.43C448.59,267.73 444.88,271.81 440.95,273.04C437.02,274.27 436.35,277.04 436.35,277.04L435.96,274.04C436.437,272.613 437.18,271.29 438.15,270.14C439.47,268.83 437.53,266.94 437.36,265.39C437.22,264.2 438.05,261.88 437.87,259.93L437.39,258.31C437.39,258.31 435.83,255.83 433.53,255.52C431.23,255.21 434.47,247.4 438.47,249.86Z" style="fill:url(#_Linear12);fill-rule:nonzero;"/>
                            <path d="M436.81,267.39C436.3,268.71 436.51,270.02 437.27,270.32C438.03,270.62 439.07,269.79 439.58,268.47C440.09,267.15 439.88,265.84 439.12,265.55C438.36,265.26 437.32,266.08 436.81,267.39Z" style="fill:url(#_Linear13);fill-rule:nonzero;"/>
                            <path d="M471.82,429.86C471.82,429.86 466.82,444.09 464.88,444.78C464.36,444.96 461.88,445.43 461.4,446.54C461.329,447.024 461.329,447.516 461.4,448L471.8,448C471.8,448 473.11,441.73 473.63,439C473.63,439 476.39,432.27 476.08,431.66C475.77,431.05 471.82,429.86 471.82,429.86Z" style="fill:url(#_Linear14);fill-rule:nonzero;"/>
                            <path d="M438,448L436.47,443.1C436.47,443.1 433.26,444.48 431.65,444.25C430.052,443.946 428.47,443.563 426.91,443.1C420.51,445.24 415.26,446.28 416.21,448L438,448Z" style="fill:url(#_Linear15);fill-rule:nonzero;"/>
                            <path d="M429.31,269.47C430.19,269.77 431.03,269.6 431.19,269.08L428,268C427.85,268.49 428.44,269.16 429.31,269.47Z" style="fill-rule:nonzero;"/>
                            <path d="M435.21,263.2C435.148,263.466 434.908,263.656 434.635,263.656C434.311,263.656 434.044,263.389 434.044,263.065C434.044,263.02 434.05,262.974 434.06,262.93C434.122,262.664 434.362,262.474 434.635,262.474C434.959,262.474 435.226,262.741 435.226,263.065C435.226,263.11 435.22,263.156 435.21,263.2Z" style="fill-rule:nonzero;"/>
                            <path d="M431.36,261.48C431.298,261.746 431.059,261.936 430.785,261.936C430.74,261.936 430.694,261.93 430.65,261.92C430.385,261.857 430.195,261.618 430.195,261.346C430.195,261.022 430.462,260.756 430.785,260.756C431.109,260.756 431.375,261.022 431.375,261.346C431.375,261.391 431.37,261.436 431.36,261.48Z" style="fill-rule:nonzero;"/>
                            <path d="M434.26,261.8C434.321,261.826 434.389,261.826 434.45,261.8C434.71,261.728 434.987,261.753 435.23,261.87C435.457,262.022 435.613,262.261 435.66,262.53C435.689,262.639 435.798,262.709 435.91,262.69C436.021,262.656 436.09,262.544 436.07,262.43C436.004,262.047 435.773,261.71 435.44,261.51C435.097,261.334 434.7,261.295 434.33,261.4C434.241,261.422 434.179,261.503 434.179,261.594C434.179,261.616 434.183,261.639 434.19,261.66C434.198,261.713 434.223,261.762 434.26,261.8Z" style="fill-rule:nonzero;"/>
                            <path d="M430.39,260.13C430.45,260.16 430.52,260.16 430.58,260.13C430.84,260.058 431.117,260.083 431.36,260.2C431.587,260.352 431.743,260.591 431.79,260.86C431.815,260.972 431.928,261.045 432.04,261.02C432.148,260.991 432.215,260.879 432.19,260.77C432.126,260.386 431.9,260.047 431.57,259.84C431.224,259.664 430.824,259.625 430.45,259.73C430.366,259.755 430.308,259.834 430.308,259.921C430.308,259.945 430.312,259.968 430.32,259.99C430.324,260.044 430.35,260.094 430.39,260.13Z" style="fill-rule:nonzero;"/>
                            <path d="M431.45,261.57C431.428,261.682 431.329,261.764 431.215,261.764C431.083,261.764 430.975,261.655 430.975,261.524C430.975,261.392 431.083,261.284 431.215,261.284C431.233,261.284 431.252,261.286 431.27,261.29C431.378,261.311 431.456,261.406 431.456,261.516C431.456,261.534 431.454,261.552 431.45,261.57Z" style="fill-rule:nonzero;"/>
                            <path d="M435.28,263.39C435.256,263.493 435.162,263.567 435.056,263.567C435.037,263.567 435.018,263.565 435,263.56C434.875,263.53 434.795,263.406 434.82,263.28C434.828,263.154 434.934,263.055 435.06,263.055C435.191,263.055 435.3,263.164 435.3,263.295C435.3,263.328 435.293,263.36 435.28,263.39Z" style="fill-rule:nonzero;"/>
                            <path d="M430.06,260.89C430.107,260.915 430.163,260.915 430.21,260.89C430.704,260.71 431.26,260.948 431.47,261.43C431.513,261.507 431.607,261.541 431.69,261.51C431.76,261.461 431.789,261.37 431.76,261.29C431.49,260.644 430.737,260.333 430.09,260.6C430.032,260.619 429.993,260.673 429.993,260.733C429.993,260.757 429.999,260.78 430.01,260.8C430.012,260.836 430.031,260.869 430.06,260.89Z" style="fill-rule:nonzero;"/>
                            <path d="M433.89,262.56C433.934,262.595 433.996,262.595 434.04,262.56C434.537,262.381 435.094,262.624 435.3,263.11C435.34,263.185 435.433,263.216 435.51,263.18C435.585,263.14 435.62,263.05 435.59,262.97C435.32,262.324 434.57,262.009 433.92,262.27C433.841,262.306 433.805,262.4 433.84,262.48C433.875,262.56 433.86,262.55 433.89,262.56Z" style="fill-rule:nonzero;"/>
                            <path d="M432.2,262.25L430.37,264.53C430.249,264.736 430.076,264.909 429.87,265.03C429.733,265.094 429.603,265.171 429.48,265.26C429.354,265.348 429.274,265.487 429.26,265.64C429.26,265.96 429.7,266.26 429.95,266.39C430.227,266.566 430.583,266.566 430.86,266.39C431.03,266.22 431.32,266.48 431.16,266.65C430.86,266.907 430.446,266.991 430.07,266.87C429.721,266.773 429.41,266.57 429.18,266.29C428.998,266.132 428.893,265.903 428.893,265.662C428.893,265.39 429.027,265.135 429.25,264.98C429.397,264.868 429.558,264.777 429.73,264.71L429.82,264.71C429.77,264.53 429.72,264.84 429.76,264.71C429.8,264.58 429.76,264.66 429.81,264.64L430.91,263.27L431.91,262.04C432.06,261.85 432.36,262.12 432.21,262.3L432.2,262.25Z" style="fill:rgb(229,135,97);fill-rule:nonzero;"/>
                        </g>
                    </g>
                </g>
            </g>
        </g>
    </g>
    <defs>
        <linearGradient id="_Linear2" x1="0" y1="0" x2="1" y2="0" gradientUnits="userSpaceOnUse" gradientTransform="matrix(13.42,0,0,13.42,462.21,437.14)"><stop offset="0" style="stop-color:rgb(252,222,179);stop-opacity:1"/><stop offset="1" style="stop-color:rgb(249,196,118);stop-opacity:1"/></linearGradient>
        <linearGradient id="_Linear3" x1="0" y1="0" x2="1" y2="0" gradientUnits="userSpaceOnUse" gradientTransform="matrix(116.602,0,0,116.602,5030.04,5044.31)"><stop offset="0" style="stop-color:rgb(252,222,179);stop-opacity:1"/><stop offset="1" style="stop-color:rgb(249,196,118);stop-opacity:1"/></linearGradient>
        <linearGradient id="_Linear4" x1="0" y1="0" x2="1" y2="0" gradientUnits="userSpaceOnUse" gradientTransform="matrix(25.77,0,0,25.77,409.86,386.41)"><stop offset="0" style="stop-color:rgb(43,53,130);stop-opacity:1"/><stop offset="1" style="stop-color:rgb(21,14,66);stop-opacity:1"/></linearGradient>
        <linearGradient id="_Linear5" x1="0" y1="0" x2="1" y2="0" gradientUnits="userSpaceOnUse" gradientTransform="matrix(2843.02,0,0,2843.02,22670.5,38937.5)"><stop offset="0" style="stop-color:rgb(43,53,130);stop-opacity:1"/><stop offset="1" style="stop-color:rgb(21,14,66);stop-opacity:1"/></linearGradient>
        <linearGradient id="_Linear6" x1="0" y1="0" x2="1" y2="0" gradientUnits="userSpaceOnUse" gradientTransform="matrix(320.052,0,0,320.052,7553.73,14292.9)"><stop offset="0" style="stop-color:rgb(252,222,179);stop-opacity:1"/><stop offset="1" style="stop-color:rgb(249,196,118);stop-opacity:1"/></linearGradient>
        <linearGradient id="_Linear7" x1="0" y1="0" x2="1" y2="0" gradientUnits="userSpaceOnUse" gradientTransform="matrix(4.90961e-15,80.18,-80.18,4.90961e-15,426.87,269.67)"><stop offset="0" style="stop-color:rgb(63,206,252);stop-opacity:1"/><stop offset="1" style="stop-color:rgb(73,76,142);stop-opacity:1"/></linearGradient>
        <linearGradient id="_Linear8" x1="0" y1="0" x2="1" y2="0" gradientUnits="userSpaceOnUse" gradientTransform="matrix(1.33119e-15,-21.74,21.74,1.33119e-15,431.93,293.26)"><stop offset="0" style="stop-color:rgb(252,222,179);stop-opacity:1"/><stop offset="1" style="stop-color:rgb(249,162,98);stop-opacity:1"/></linearGradient>
        <linearGradient id="_Linear9" x1="0" y1="0" x2="1" y2="0" gradientUnits="userSpaceOnUse" gradientTransform="matrix(295.409,0,0,295.409,7743.17,5520.86)"><stop offset="0" style="stop-color:rgb(252,222,179);stop-opacity:1"/><stop offset="1" style="stop-color:rgb(249,196,118);stop-opacity:1"/></linearGradient>
        <linearGradient id="_Linear10" x1="0" y1="0" x2="1" y2="0" gradientUnits="userSpaceOnUse" gradientTransform="matrix(190.935,0,0,190.935,6672.02,17296.2)"><stop offset="0" style="stop-color:rgb(252,222,179);stop-opacity:1"/><stop offset="1" style="stop-color:rgb(249,196,118);stop-opacity:1"/></linearGradient>
        <linearGradient id="_Linear11" x1="0" y1="0" x2="1" y2="0" gradientUnits="userSpaceOnUse" gradientTransform="matrix(428.542,0,0,428.542,9553.22,8262.52)"><stop offset="0" style="stop-color:rgb(63,206,252);stop-opacity:1"/><stop offset="1" style="stop-color:rgb(73,76,142);stop-opacity:1"/></linearGradient>
        <linearGradient id="_Linear12" x1="0" y1="0" x2="1" y2="0" gradientUnits="userSpaceOnUse" gradientTransform="matrix(14.96,0,0,14.96,432.78,263.21)"><stop offset="0" style="stop-color:rgb(102,102,102);stop-opacity:1"/><stop offset="1" style="stop-color:black;stop-opacity:1"/></linearGradient>
        <linearGradient id="_Linear13" x1="0" y1="0" x2="1" y2="0" gradientUnits="userSpaceOnUse" gradientTransform="matrix(11.0823,0,0,11.0823,1889.31,1575.57)"><stop offset="0" style="stop-color:rgb(252,222,179);stop-opacity:1"/><stop offset="1" style="stop-color:rgb(249,196,118);stop-opacity:1"/></linearGradient>
        <linearGradient id="_Linear14" x1="0" y1="0" x2="1" y2="0" gradientUnits="userSpaceOnUse" gradientTransform="matrix(14.76,0,0,14.76,461.34,438.93)"><stop offset="0" style="stop-color:rgb(51,51,51);stop-opacity:1"/><stop offset="1" style="stop-color:black;stop-opacity:1"/></linearGradient>
        <linearGradient id="_Linear15" x1="0" y1="0" x2="1" y2="0" gradientUnits="userSpaceOnUse" gradientTransform="matrix(479.644,0,0,479.644,9528.46,2626.2)"><stop offset="0" style="stop-color:rgb(51,51,51);stop-opacity:1"/><stop offset="1" style="stop-color:black;stop-opacity:1"/></linearGradient>
    </defs>
</svg>
