<svg xmlns="http://www.w3.org/2000/svg" xmlns:xlink="http://www.w3.org/1999/xlink" viewBox="0 0 1920 259"><defs><style>.cls-1{isolation:isolate;}.cls-2{fill:#70d44b;}.cls-3{fill:url(#Degradado_sin_nombre_40);}.cls-4{fill:#f7c1b0;}.cls-5{fill:#edc4a9;}.cls-6{fill:#ffede1;}.cls-7{fill:#da9170;}.cls-8{fill:#ffe4d2;}.cls-9{fill:#f9dcc7;}.cls-10{fill:#f2cfbb;}.cls-11{fill:#fff7f3;}.cls-12{fill:url(#Degradado_sin_nombre_37);}.cls-13{fill:url(#Degradado_sin_nombre_147);}.cls-14{fill:url(#Degradado_sin_nombre_46);}.cls-15{fill:url(#Degradado_sin_nombre_21);}.cls-16{fill:url(#Degradado_sin_nombre_21-2);}.cls-17{fill:url(#Degradado_sin_nombre_147-2);}.cls-18{fill:url(#Degradado_sin_nombre_147-3);}.cls-19{fill:url(#Degradado_sin_nombre_40-2);}.cls-20{fill:url(#Degradado_sin_nombre_40-3);}.cls-21{fill:url(#Degradado_sin_nombre_40-4);}.cls-22{fill:#fff;}.cls-23{fill:#ff9015;}.cls-24{fill:#542a75;}.cls-25{fill:url(#Degradado_sin_nombre_66);}.cls-26{fill:url(#Degradado_sin_nombre_36);}.cls-27{fill:url(#Degradado_sin_nombre_66-2);}.cls-28{fill:url(#Degradado_sin_nombre_57);}.cls-29{fill:url(#Degradado_sin_nombre_57-2);}.cls-30{fill:url(#Degradado_sin_nombre_36-2);}.cls-31,.cls-37{mix-blend-mode:multiply;}.cls-31{fill:url(#Degradado_sin_nombre_36-3);}.cls-32{fill:url(#linear-gradient);}.cls-33{fill:#f1c40f;}.cls-34{fill:url(#linear-gradient-2);}.cls-35{fill:url(#linear-gradient-3);}.cls-36{fill:url(#linear-gradient-4);}.cls-37{fill:#e6e6e6;}.cls-38{fill:#ea94b0;}.cls-39{fill:url(#Degradado_sin_nombre_50);}.cls-40{fill:#ffcd86;}.cls-41{fill:#f89ab5;}.cls-42{fill:#c6839e;}.cls-43{fill:url(#Degradado_sin_nombre_88);}.cls-44{fill:url(#Degradado_sin_nombre_66-3);}.cls-45{fill:url(#Degradado_sin_nombre_88-2);}.cls-46{fill:url(#Degradado_sin_nombre_36-4);}.cls-47{fill:url(#Degradado_sin_nombre_88-3);}.cls-48{fill:url(#Degradado_sin_nombre_88-4);}.cls-49{fill:#e58761;}</style><linearGradient id="Degradado_sin_nombre_40" x1="1348" y1="259" x2="1348" y2="59" gradientUnits="userSpaceOnUse"><stop offset="0" stop-color="#f9c476"/><stop offset="1" stop-color="#fcdeb3"/></linearGradient><linearGradient id="Degradado_sin_nombre_37" x1="1350.71" y1="165.08" x2="1350.71" y2="13.43" gradientUnits="userSpaceOnUse"><stop offset="0" stop-color="#838383"/><stop offset="0.15" stop-color="#777"/><stop offset="0.71" stop-color="#4d4d4d"/><stop offset="1" stop-color="#3d3d3d"/></linearGradient><linearGradient id="Degradado_sin_nombre_147" x1="1309.8" y1="88.82" x2="1386.57" y2="88.82" gradientUnits="userSpaceOnUse"><stop offset="0" stop-color="#333"/><stop offset="1"/></linearGradient><linearGradient id="Degradado_sin_nombre_46" x1="1348.19" y1="29.89" x2="1348.19" y2="150.62" gradientUnits="userSpaceOnUse"><stop offset="0" stop-color="#fdf53f"/><stop offset="0.18" stop-color="#fcef40"/><stop offset="0.44" stop-color="#f9dd44"/><stop offset="0.73" stop-color="#f3c14a"/><stop offset="1" stop-color="#ed9f51"/></linearGradient><linearGradient id="Degradado_sin_nombre_21" x1="1335.94" y1="22.12" x2="1360.44" y2="22.12" gradientUnits="userSpaceOnUse"><stop offset="0.01" stop-color="gray"/><stop offset="1" stop-color="#7c7c7c"/></linearGradient><linearGradient id="Degradado_sin_nombre_21-2" x1="1364.4" y1="22.12" x2="1366.51" y2="22.12" xlink:href="#Degradado_sin_nombre_21"/><linearGradient id="Degradado_sin_nombre_147-2" x1="1309.8" y1="17.26" x2="1386.58" y2="17.26" xlink:href="#Degradado_sin_nombre_147"/><linearGradient id="Degradado_sin_nombre_147-3" x1="1309.8" y1="160.38" x2="1386.58" y2="160.38" xlink:href="#Degradado_sin_nombre_147"/><linearGradient id="Degradado_sin_nombre_40-2" x1="1297.28" y1="143.14" x2="1316.6" y2="143.14" xlink:href="#Degradado_sin_nombre_40"/><linearGradient id="Degradado_sin_nombre_40-3" x1="1291.95" y1="103.11" x2="1315.79" y2="103.11" xlink:href="#Degradado_sin_nombre_40"/><linearGradient id="Degradado_sin_nombre_40-4" x1="1294.25" y1="125.51" x2="1324.17" y2="125.51" xlink:href="#Degradado_sin_nombre_40"/><linearGradient id="Degradado_sin_nombre_66" x1="1204.41" y1="64.46" x2="1218.16" y2="64.46" gradientTransform="translate(1271.27 -1147.05) rotate(89.79)" gradientUnits="userSpaceOnUse"><stop offset="0" stop-color="#fcdeb3"/><stop offset="1" stop-color="#f9a262"/></linearGradient><linearGradient id="Degradado_sin_nombre_36" x1="1194.98" y1="53.71" x2="1218.03" y2="53.71" gradientUnits="userSpaceOnUse"><stop offset="0" stop-color="#fcdeb3"/><stop offset="1" stop-color="#f9c476"/></linearGradient><linearGradient id="Degradado_sin_nombre_66-2" x1="1197.04" y1="53.75" x2="1218.03" y2="53.75" gradientTransform="matrix(1, 0, 0, 1, 0, 0)" xlink:href="#Degradado_sin_nombre_66"/><linearGradient id="Degradado_sin_nombre_57" x1="1212.82" y1="47.13" x2="1217.2" y2="47.13" gradientUnits="userSpaceOnUse"><stop offset="0" stop-color="#754c24"/><stop offset="1" stop-color="#42210b"/></linearGradient><linearGradient id="Degradado_sin_nombre_57-2" x1="1191.48" y1="41.45" x2="1222.36" y2="41.45" xlink:href="#Degradado_sin_nombre_57"/><linearGradient id="Degradado_sin_nombre_36-2" x1="1214.23" y1="52.18" x2="1221.99" y2="52.18" xlink:href="#Degradado_sin_nombre_36"/><linearGradient id="Degradado_sin_nombre_36-3" x1="1215.83" y1="51.99" x2="1221.99" y2="51.99" xlink:href="#Degradado_sin_nombre_36"/><linearGradient id="linear-gradient" x1="1208.72" y1="75.22" x2="1208.72" y2="90.19" gradientUnits="userSpaceOnUse"><stop offset="0" stop-color="#2b3582"/><stop offset="1" stop-color="#150e42"/></linearGradient><linearGradient id="linear-gradient-2" x1="1217.44" y1="73.63" x2="1217.44" y2="90.16" xlink:href="#linear-gradient"/><linearGradient id="linear-gradient-3" x1="1201.6" y1="73.4" x2="1201.6" y2="89.59" xlink:href="#linear-gradient"/><linearGradient id="linear-gradient-4" x1="1228.69" y1="81.09" x2="1228.69" y2="87.81" xlink:href="#linear-gradient"/><linearGradient id="Degradado_sin_nombre_50" x1="1044.84" y1="173.88" x2="1096.17" y2="173.88" gradientUnits="userSpaceOnUse"><stop offset="0" stop-color="#454545"/><stop offset="1"/></linearGradient><linearGradient id="Degradado_sin_nombre_88" x1="1080.9" y1="189.65" x2="1080.9" y2="214.19" gradientUnits="userSpaceOnUse"><stop offset="0" stop-color="#3fcefc"/><stop offset="1" stop-color="#4c246d"/></linearGradient><linearGradient id="Degradado_sin_nombre_66-3" x1="1071.87" y1="214.55" x2="1071.87" y2="180.17" gradientTransform="matrix(1, 0, 0, 1, 0, 0)" xlink:href="#Degradado_sin_nombre_66"/><linearGradient id="Degradado_sin_nombre_88-2" x1="1069.63" y1="190.06" x2="1069.63" y2="214.55" xlink:href="#Degradado_sin_nombre_88"/><linearGradient id="Degradado_sin_nombre_36-4" x1="1061.05" y1="170.86" x2="1080.95" y2="170.86" xlink:href="#Degradado_sin_nombre_36"/><linearGradient id="Degradado_sin_nombre_88-3" x1="1057.48" y1="192.71" x2="1057.48" y2="213.32" xlink:href="#Degradado_sin_nombre_88"/><linearGradient id="Degradado_sin_nombre_88-4" x1="1052.06" y1="194.58" x2="1052.06" y2="212.96" xlink:href="#Degradado_sin_nombre_88"/></defs><g class="cls-1"><g id="Capa_1" data-name="Capa 1"><rect class="cls-2" width="1920" height="259"/><path class="cls-3" d="M1388.17,222s-2.09-31.22-1-36.14,19.37-31.26,20.27-36.18-2.21-42.09-2.21-42.09c2.31-13.56,0-34.86-4.72-36.81-5.38-2.23-13.16,8.79-13.16,8.79L1314,64.25s-20.1-10-24.11-2.41c-6.43,12.15,8.44,17.47,22.6,23.5l-.68,77.29s.23,5.05,1.81,6.94,12.48,9.84,12.63,16.24-3.06,35.66-3.06,35.66L1319.12,259h70.27Z"/><path class="cls-4" d="M1289.93,61.84a13.87,13.87,0,0,0-1.29,3.36c.08-.07,8.21-7,23.67-1.66l.83.28C1309.19,62,1293.43,55.23,1289.93,61.84Z"/><path class="cls-5" d="M1312,153.58l63.88,6.8-64,2.08,0-1.06c0-.93,0-2,0-2Z"/><path class="cls-4" d="M1304.15,132.92s-5.28-.5-7,4.12,1.29,14,9.28,16c7.35,1.91,9.52-5.25,9.57-8.6C1316,140.88,1309.06,133.3,1304.15,132.92Z"/><path class="cls-6" d="M1318,123.66s-8-5.32-10.72-4.4-8.08,6.18,2.34,15.63C1309.6,134.89,1320.35,134.55,1318,123.66Z"/><path class="cls-7" d="M1387.17,79.46l.25.06a39.74,39.74,0,0,1,3.43-4.11c-.16,2.8-.76,11.27-2.41,16.48a6.74,6.74,0,0,0,0,4.12c1.23,3.82,3.65,11.53,4.25,14.88a1.64,1.64,0,0,1-.69,1.66,5.22,5.22,0,0,0-2.48,4.53c.2,3.42,2,23.11,1.71,25.21s-2.92.42-4.4,8.83Z"/><path class="cls-8" d="M1308.68,146.71c-.86,1.86-.58,3.82.61,4.37s2.87-.51,3.73-2.36.58-3.82-.62-4.37S1309.54,144.86,1308.68,146.71Z"/><path class="cls-9" d="M1319.21,129.29c-.55,1.19-.38,2.44.39,2.79s1.83-.32,2.38-1.51.38-2.44-.39-2.8S1319.76,128.1,1319.21,129.29Z"/><path class="cls-10" d="M1306.6,118.6c2.75-.92,11.37,4.84,11.37,4.84s0,.12,0,.21c-1.91-1.21-8.44-5.16-10.73-4.39-2.6.87-7.51,5.62.78,14.13C1298.84,124.46,1303.93,119.49,1306.6,118.6Z"/><path class="cls-4" d="M1321,135.51s7.84-9.49-4.06-16.87-20-7.38-22.45-3.77,0,12.81,9.49,19.29S1317.56,138.83,1321,135.51Z"/><path class="cls-6" d="M1318,123.66s-8-5.32-10.72-4.4-8.08,6.18,2.34,15.63C1309.6,134.89,1320.35,134.55,1318,123.66Z"/><path class="cls-11" d="M1317.49,123.34l.49.32c2.37,10.89-8.38,11.23-8.38,11.23l-.65-.59C1310.53,134.17,1319.23,133,1317.49,123.34Z"/><path class="cls-5" d="M1312,153.58l69.36,5.42-12.14,2.3-56.81,5a21.62,21.62,0,0,1-.47-4.9,6.7,6.7,0,0,1,.62-2Z"/><path class="cls-12" d="M1389.1,20.63c0-4-2.83-7.2-6.32-7.2h-64.14c-3.49,0-6.32,3.22-6.32,7.2V150h0v7.87c0,4,2.83,7.2,6.32,7.2h64.14c3.49,0,6.32-3.23,6.32-7.2v-6.83h0V30.32h0Z"/><path class="cls-13" d="M1380.26,164.65h-64.14c-3.49,0-6.32-3.22-6.32-7.2V20.2c0-4,2.83-7.2,6.32-7.2h64.14c3.49,0,6.31,3.22,6.31,7.2V157.45C1386.57,161.43,1383.75,164.65,1380.26,164.65Z"/><polygon class="cls-14" points="1386.58 150.62 1309.81 149.59 1309.81 29.89 1386.58 29.89 1386.58 150.62"/><path class="cls-15" d="M1359.52,23.17h-22.66a1,1,0,0,1-.92-1.05h0a1,1,0,0,1,.92-1.06h22.66a1,1,0,0,1,.92,1.06h0A1,1,0,0,1,1359.52,23.17Z"/><path class="cls-16" d="M1366.51,22.12a1.06,1.06,0,0,1-2.11,0,1.06,1.06,0,1,1,2.11,0Z"/><path class="cls-17" d="M1316.12,14.33h64.14c3.49,0,6.31,3.22,6.32,7.2V20.2c0-4-2.83-7.2-6.32-7.2h-64.14c-3.49,0-6.32,3.22-6.32,7.2v1.33C1309.8,17.55,1312.63,14.33,1316.12,14.33Z"/><path class="cls-18" d="M1380.26,163.32h-64.14c-3.49,0-6.32-3.22-6.32-7.2v1.33c0,4,2.83,7.2,6.32,7.2h64.14c3.49,0,6.32-3.22,6.32-7.2v-1.33C1386.58,160.1,1383.75,163.32,1380.26,163.32Z"/><path class="cls-19" d="M1304.76,132.92s-5.28-.5-7,4.12,1.29,14,9.28,16c7.35,1.91,9.52-5.25,9.57-8.6C1316.65,140.88,1309.67,133.3,1304.76,132.92Z"/><path class="cls-6" d="M1318.59,123.66s-8-5.32-10.72-4.4-8.08,6.18,2.34,15.63C1310.21,134.89,1321,134.55,1318.59,123.66Z"/><path class="cls-9" d="M1319.82,129.29c-.55,1.19-.38,2.44.39,2.79s1.83-.32,2.38-1.51.38-2.44-.39-2.8S1320.37,128.1,1319.82,129.29Z"/><path class="cls-4" d="M1309.84,88.14s-12,2.74-16.66,8.26c-3.07,3.67-1.3,17.78,10.55,19.79s16.88-15.87,6.23-19.79Z"/><path class="cls-20" d="M1309.86,89.88l.1,6.52c10.65,3.92,5.62,21.8-6.23,19.79-7.77-1.32-11.2-7.83-11.78-13.19C1294.43,93.91,1304.57,90.88,1309.86,89.88Z"/><path class="cls-10" d="M1307.21,118.6c2.75-.92,11.37,4.84,11.37,4.84s0,.12,0,.21c-1.91-1.21-8.44-5.16-10.73-4.39-2.6.87-7.5,5.62.78,14.13C1299.45,124.46,1304.54,119.49,1307.21,118.6Z"/><path class="cls-21" d="M1321.64,135.51s7.83-9.49-4.07-16.87-20-7.38-22.45-3.77,0,12.81,9.49,19.29S1318.17,138.83,1321.64,135.51Z"/><path class="cls-6" d="M1318.59,123.66s-8-5.32-10.72-4.4-8.08,6.18,2.34,15.63C1310.21,134.89,1321,134.55,1318.59,123.66Z"/><path class="cls-11" d="M1318.1,123.34l.49.32c2.37,10.89-8.38,11.23-8.38,11.23l-.64-.59C1311.14,134.17,1319.84,133,1318.1,123.34Z"/><path class="cls-6" d="M1312.13,141.16s-5.81-3.87-7.82-3.2-5.89,4.5,1.71,11.4C1306,149.36,1313.86,149.11,1312.13,141.16Z"/><path class="cls-11" d="M1311.77,140.93l.36.23c1.73,8-6.11,8.2-6.11,8.2l-.47-.44C1306.7,148.83,1313,148,1311.77,140.93Z"/><path class="cls-6" d="M1312,100.77s-8.59-4.27-11.2-3-7.23,7.14,4.3,15.21C1305.09,113,1315.71,111.28,1312,100.77Z"/><path class="cls-11" d="M1311.46,100.52l.53.25c3.72,10.51-6.9,12.21-6.9,12.21l-.71-.51C1305.92,112.14,1314.4,109.9,1311.46,100.52Z"/><path class="cls-6" d="M1403.08,73.61a60.55,60.55,0,0,1,2.84,14.65c-3,1.28-7.15.84-8.48-.28-2-1.68-2-13-2-13C1398.39,71.38,1401.26,72.54,1403.08,73.61Z"/><path class="cls-7" d="M1324.61,181v.09a9.83,9.83,0,0,1,1.68,4.75c.08,3.48-.83,13.71-1.68,22.32v.55c31.83-5.57,59.86-22.32,59.86-22.32C1342.5,194.79,1324.61,181,1324.61,181Z"/><path class="cls-22" d="M1059.68,9.93a36.52,36.52,0,0,0-36.51,36.51v35h0V95.83h0l0,25.77,21.14-25.77H1226a36.51,36.51,0,0,0,36.51-36.51V46.44A36.52,36.52,0,0,0,1226,9.93Z"/><circle class="cls-23" cx="1209.83" cy="52.61" r="37.58" transform="translate(317.15 870.89) rotate(-45)"/><path class="cls-24" d="M1182.14,78a12.4,12.4,0,0,1,3.53.54,12.58,12.58,0,0,1,8.34,8.16A37.51,37.51,0,0,1,1182.14,78Z"/><rect class="cls-25" x="1188.34" y="57.67" width="45.88" height="13.59" transform="translate(1142.35 1275.5) rotate(-89.79)"/><path class="cls-26" d="M1218,38.48,1218,57.21A11.85,11.85,0,0,1,1206.06,69h-2.2a8.91,8.91,0,0,1-8.88-8.94l.08-21.68Z"/><path class="cls-27" d="M1203.81,67.1a11.85,11.85,0,0,0,11.9-11.82l.06-16.81H1218L1218,57.21A11.85,11.85,0,0,1,1206.06,69h-2.2A8.86,8.86,0,0,1,1197,65.8a8.76,8.76,0,0,0,4.57,1.29Z"/><polygon class="cls-28" points="1216.68 49.38 1214.43 49.35 1213.31 46.23 1212.82 44.88 1217.2 45.42 1216.68 49.38"/><path class="cls-29" d="M1222.12,38.36h0a8.38,8.38,0,0,0-6.93-9.64,7.8,7.8,0,0,0-11.41-3.53,5.68,5.68,0,0,0-8.27,2.85,7.79,7.79,0,1,0,10.23,11.17,8.38,8.38,0,0,0,9.06,6.13,5,5,0,0,0,.66-.11,12.56,12.56,0,0,1,.73,2,36.41,36.41,0,0,1,.72,10.53l1.26,1.18C1220.33,53.25,1223.22,45.5,1222.12,38.36Z"/><path class="cls-30" d="M1215.73,48.56a3.48,3.48,0,0,1,5.44.77,5.21,5.21,0,0,1-.67,6.47,3.49,3.49,0,0,1-5.45-.77A5.23,5.23,0,0,1,1215.73,48.56Z"/><path class="cls-31" d="M1221.93,51.35a4.86,4.86,0,0,1-2.34,5.07,5,5,0,0,0,1.53-4.52c-.37-2.5-2.38-4.16-4.49-3.7a3.19,3.19,0,0,0-.8.29,3.54,3.54,0,0,1,1.61-.85C1219.54,47.19,1221.56,48.85,1221.93,51.35Z"/><polygon class="cls-24" points="1222.56 76.38 1215.86 76.27 1217.97 73.63 1222.56 76.38"/><polygon class="cls-24" points="1206.19 76.1 1199.49 75.99 1204.27 73.4 1206.19 76.1"/><path class="cls-32" d="M1182.84,78.76a14.92,14.92,0,0,1,3.86-1.45l12.1-1.42,3.07-.67a8.9,8.9,0,0,0,8.66,8.06,8.68,8.68,0,0,0,9-7.49l.93,0,2.15.56,12,4.49a37.58,37.58,0,0,1-51.76-2.11Z"/><path class="cls-22" d="M1219.48,75.79l-6.6,14.28c-1,.08-2,.12-3.05.12a37.85,37.85,0,0,1-8.16-.89l.2-14.08Z"/><path class="cls-33" d="M1205.83,78.51l1.64-3.15,4.07.13.7,4-2.53,1.73-.76,9a39,39,0,0,1-4.49-.37l3.19-8.71Z"/><path class="cls-34" d="M1223.56,81.38l-7.93,8.36a38.12,38.12,0,0,1-4.31.42L1218,73.63Z"/><polygon class="cls-22" points="1209.63 75.43 1217.97 73.63 1217.12 75.73 1203.92 75.3 1204.41 72.62 1209.63 75.43"/><path class="cls-35" d="M1198.93,77.17l5.34-3.77-1.15,16.19q-1.27-.23-2.52-.54Z"/><path class="cls-36" d="M1232.67,81.18a12,12,0,0,1,1.69-.09A37.7,37.7,0,0,1,1223,87.81,12.65,12.65,0,0,1,1232.67,81.18Z"/><path class="cls-37" d="M1217,51.43a1.21,1.21,0,1,1-1.23,1.19A1.21,1.21,0,0,1,1217,51.43Z"/><path class="cls-22" d="M1199.2,59.56a.85.85,0,0,1,1.15.3,1.85,1.85,0,0,0,1.21,1,3.31,3.31,0,0,0,2.21-.54.84.84,0,1,1,1,1.39,5.43,5.43,0,0,1-2.75.88,4.11,4.11,0,0,1-.77-.08,3.54,3.54,0,0,1-2.3-1.8A.84.84,0,0,1,1199.2,59.56Z"/><path class="cls-22" d="M1262.83,207.32v-.17h0V169.07a36.64,36.64,0,0,0-36.65-36.64h-167a36.64,36.64,0,0,0-36.65,36.64V185.5a36.65,36.65,0,0,0,36.65,36.65H1223.8a36.62,36.62,0,0,1,28.77,14l10.23,13V222.15h0Z"/><ellipse class="cls-23" cx="1069.28" cy="176.83" rx="36.26" ry="37.72"/><path class="cls-38" d="M1085.26,202.89l0-.06a5.94,5.94,0,0,0-.24-.79,8.09,8.09,0,0,0-10.51-5,8.61,8.61,0,0,0-4.81,10.93c.78,2.18,1.56,4.33,2.36,6.48a35.07,35.07,0,0,0,15-4.72Q1086.12,206.3,1085.26,202.89Z"/><path class="cls-39" d="M1094.81,173.34c-5-11.83-8.63-7.81-8.63-7.81s-.29-8.86-7-14.87-18,.19-18,.19-13.87,5.62-11,17.35c0,0-8.9.3-3.88,18.52s24,12,24,12l-.41-2.18C1091.14,203.84,1099.74,185,1094.81,173.34Z"/><path class="cls-40" d="M1074.8,190.38,1074,203.7l-9.44-8.32-2.39-2.67L1051,209.38a35.08,35.08,0,0,0,37.36-.44l-8.11-18.88Z"/><path class="cls-41" d="M1059.28,206a8.49,8.49,0,0,0-6.61-9.87,8.21,8.21,0,0,0-9.49,6.88v0a36.27,36.27,0,0,0,14.22,9.47L1059,207C1059.13,206.67,1059.22,206.29,1059.28,206Z"/><path class="cls-42" d="M1064.08,181.59c-.1,4.16-.48,10.18-1.9,11.12l2.39,2.67c-1.68-4.14,2.45-11.81,2.45-11.81Z"/><path class="cls-43" d="M1089.42,200.19a8.69,8.69,0,1,0-17.16-1.28,91.39,91.39,0,0,0,2,15.28,35.3,35.3,0,0,0,15.18-6A64.12,64.12,0,0,1,1089.42,200.19Z"/><path class="cls-44" d="M1078,192.72l-3.62-2.66-.27-7.94-10-2,0,2.13h0s0,.13,0,.33l0,2.84c-.11,2.73-.52,6.38-1.85,7.25l-.28,21a35,35,0,0,0,19.95-1.54Z"/><path class="cls-45" d="M1088.31,208.94l-8.11-18.88-5.4.32L1074,203.7l-9.44-8.32-2.39-2.67L1051,209.38a35.08,35.08,0,0,0,37.36-.44Z"/><path class="cls-46" d="M1067.46,157.93l.89,1.28c.92,5.76-3.27,12.12-6.85,16.36,1.27,4.38,5.07,7.76,9.21,8.18,5,.51,8.6-3.85,9.15-9.68l1.06-11.36a8.24,8.24,0,0,0,0-.86C1075.54,162.54,1070.58,160.05,1067.46,157.93Z"/><path class="cls-47" d="M1052.78,195.34l3.67,16.77a34.5,34.5,0,0,0,3.64,1.21l2.09-20.61Z"/><path class="cls-48" d="M1056,195.54c-4.32-2.12-10.59-.66-12.62,3.83-.38.85-.74,1.75-1.07,2.69a36.15,36.15,0,0,0,16.54,10.9c1.26-3.32,1.93-4.65,2.25-5.36C1063.15,203.11,1060.34,197.65,1056,195.54Z"/><path class="cls-22" d="M567.8,119.57l-.08.83h-12.9v-.83c-.17-7-3.81-10.17-10.76-10.17-10,0-17.95,9.51-17.95,25.23,0,10.67,4.8,15,11.17,15,6.7,0,11.33-4,13.89-10.83l.34-.83h12.9l-.25.83c-3.64,13.06-13.89,20.42-28.45,20.42-14.23,0-23.41-8.43-23.33-23.57-.08-21.75,15-35.81,33-35.81C561.18,99.81,568.63,108.32,567.8,119.57Z"/><path class="cls-22" d="M634.14,124.54c0,20.35-13.48,34.65-32.92,34.65-16.87,0-26.22-10.75-26.22-24.73,0-20.43,13.48-34.65,32.92-34.65C624.79,99.81,634.14,110.56,634.14,124.54Zm-13.73.33c0-9.18-4.63-15.47-13.23-15.47-12.58,0-18.45,13.48-18.45,24.73,0,9.1,4.63,15.47,13.24,15.47C614.46,149.6,620.41,136.12,620.41,124.87Z"/><path class="cls-22" d="M689.81,158H672.52L657.8,117.18,650.6,158H637.7L647.79,101h16.63l15.13,42.11L686.92,101h13Z"/><path class="cls-22" d="M736.8,111.06l-8.27,47H715.62l8.27-47h-19l1.82-10.1h50.95l-1.9,10.1Z"/><path class="cls-22" d="M764,141.91,756,158h-13.9L772.37,101h17L799.25,158H785.19l-2.32-16.13Zm14.56-29.2-9.51,19H781.3Z"/><path class="cls-22" d="M861.37,119.57l-.08.83H848.38v-.83c-.16-7-3.8-10.17-10.75-10.17-10,0-18,9.51-18,25.23,0,10.67,4.8,15,11.17,15,6.7,0,11.33-4,13.89-10.83l.33-.83H858l-.25.83c-3.64,13.06-13.9,20.42-28.45,20.42-14.23,0-23.41-8.43-23.33-23.57-.08-21.75,15-35.81,33-35.81C854.75,99.81,862.2,108.32,861.37,119.57Z"/><path class="cls-22" d="M900.66,111.06l-8.27,47h-12.9l8.27-47h-19l1.82-10.1h51l-1.9,10.1Z"/><path class="cls-22" d="M977.51,124.54c0,20.35-13.49,34.65-32.92,34.65-16.88,0-26.22-10.75-26.22-24.73,0-20.43,13.48-34.65,32.92-34.65C968.16,99.81,977.51,110.56,977.51,124.54Zm-13.73.33c0-9.18-4.63-15.47-13.24-15.47-12.57,0-18.44,13.48-18.44,24.73,0,9.1,4.63,15.47,13.23,15.47C957.82,149.6,963.78,136.12,963.78,124.87Z"/><path d="M1058.78,53.19,1055,75.39h-4.44l4.87-22.2Zm-3.57-5.09a3.31,3.31,0,0,1,3.31-3.35,2.16,2.16,0,0,1,2.35,2.22,3.32,3.32,0,0,1-3.31,3.35A2.16,2.16,0,0,1,1055.21,48.1Z"/><path d="M1088.33,68.43h-3.74l2.31-13.15h-16.54l-2.31,13.15h-3.74l5.31-30h3.74l-2.44,13.76h16.54l2.44-13.76h3.74Z"/><path d="M1118.15,54.93c0,6.23-3.87,14.1-13.28,14.1-7.13,0-9.88-4.91-9.88-10.18,0-6.23,3.88-14.1,13.28-14.1C1115.41,44.75,1118.15,49.66,1118.15,54.93Zm-4.09.09c0-4.05-1.92-7.4-6.27-7.4-5.75,0-8.71,5.88-8.71,11.14,0,4.05,1.92,7.4,6.27,7.4C1111.1,66.16,1114.06,60.29,1114.06,55Z"/><path d="M1125.29,61.81a12.75,12.75,0,0,0-.31,2.26c0,1.53.79,1.79,2.53,1.61l-.48,2.75a18.83,18.83,0,0,1-2.7.17c-2,0-3.35-.57-3.35-2.83a24,24,0,0,1,.57-3.83L1126,36.43h3.74Z"/><path d="M1151.58,50.45a22.91,22.91,0,0,1-.39,3.44l-1.53,8.66a45.3,45.3,0,0,0-.61,5.88h-3.74l.17-3.31-1.65,2.09c-1.39,1.35-3.44,1.82-6,1.82-3.22,0-6.31-1.87-6.31-6,0-6.66,6.92-9.23,15.89-8.53l.08-.61a17.51,17.51,0,0,0,.4-3.09c0-1.78-1-3.22-3.7-3.22-3.92,0-5.58,1.7-6.27,4.87H1134c1-4.91,4.83-7.74,10.23-7.74C1149.36,44.75,1151.58,47.05,1151.58,50.45Zm-5.14,9.23.44-2.4c-6-.65-11.32,1-11.32,5.4,0,2.26,1.61,3.48,4,3.48C1142.44,66.16,1145.75,63.42,1146.44,59.68Z"/><path d="M1159.81,65.68A3.32,3.32,0,0,1,1156.5,69a2.16,2.16,0,0,1-2.35-2.22,3.31,3.31,0,0,1,3.3-3.35A2.17,2.17,0,0,1,1159.81,65.68Zm-3.57-5.09,3.83-22.2h4.44l-4.88,22.2Z"/><path d="M1124.78,175.19l-3.83,22.2h-4.44l4.87-22.2Zm-3.57-5.09a3.31,3.31,0,0,1,3.31-3.35,2.16,2.16,0,0,1,2.35,2.22,3.32,3.32,0,0,1-3.31,3.35A2.16,2.16,0,0,1,1121.21,170.1Z"/><path d="M1154.33,190.43h-3.74l2.31-13.15h-16.54l-2.31,13.15h-3.74l5.31-30h3.74l-2.44,13.76h16.54l2.44-13.76h3.74Z"/><path d="M1184.15,176.93c0,6.23-3.87,14.1-13.28,14.1-7.13,0-9.88-4.91-9.88-10.18,0-6.23,3.88-14.1,13.28-14.1C1181.41,166.75,1184.15,171.66,1184.15,176.93Zm-4.09.09c0-4.05-1.92-7.4-6.27-7.4-5.75,0-8.71,5.88-8.71,11.14,0,4.05,1.92,7.4,6.27,7.4C1177.1,188.16,1180.06,182.29,1180.06,177Z"/><path d="M1191.29,183.81a12.75,12.75,0,0,0-.31,2.26c0,1.53.79,1.79,2.53,1.61l-.48,2.75a18.83,18.83,0,0,1-2.7.17c-2,0-3.35-.57-3.35-2.83a24,24,0,0,1,.57-3.83l4.48-25.51h3.74Z"/><path d="M1217.58,172.45a22.91,22.91,0,0,1-.39,3.44l-1.53,8.66a45.3,45.3,0,0,0-.61,5.88h-3.74l.17-3.31-1.65,2.09c-1.39,1.35-3.44,1.82-6,1.82-3.22,0-6.31-1.87-6.31-6,0-6.66,6.92-9.23,15.89-8.53l.08-.61a17.51,17.51,0,0,0,.4-3.09c0-1.78-1-3.22-3.7-3.22-3.92,0-5.58,1.7-6.27,4.87H1200c1-4.91,4.83-7.74,10.23-7.74C1215.36,166.75,1217.58,169.05,1217.58,172.45Zm-5.14,9.23.44-2.4c-6-.65-11.32,1-11.32,5.4,0,2.26,1.61,3.48,4,3.48C1208.44,188.16,1211.75,185.42,1212.44,181.68Z"/><path d="M1225.81,187.68a3.32,3.32,0,0,1-3.31,3.35,2.16,2.16,0,0,1-2.35-2.22,3.31,3.31,0,0,1,3.3-3.35A2.17,2.17,0,0,1,1225.81,187.68Zm-3.57-5.09,3.83-22.2h4.44l-4.88,22.2Z"/><path class="cls-22" d="M1071.62,178.74c-1.07-.52-1.62-1.52-1.24-2.23l3.86,1.86C1073.86,179.09,1072.68,179.25,1071.62,178.74Z"/><path d="M1069.5,167.88a1.07,1.07,0,0,0,.58,1.4,1.07,1.07,0,0,0,.82-2A1.07,1.07,0,0,0,1069.5,167.88Z"/><path d="M1076.94,169.44a1.08,1.08,0,0,0,.58,1.4,1.07,1.07,0,1,0-.58-1.4Z"/><path d="M1072.38,166.83a.38.38,0,0,1-.31-.14,2,2,0,0,0-1.22-.73,1.71,1.71,0,0,0-1.31.52.39.39,0,0,1-.54,0,.38.38,0,0,1,0-.53,2.44,2.44,0,0,1,1.89-.7,2.74,2.74,0,0,1,1.74,1,.37.37,0,0,1-.29.6Z"/><path d="M1079.79,168.49a.39.39,0,0,1-.31-.15,2,2,0,0,0-1.22-.72,1.72,1.72,0,0,0-1.31.51.38.38,0,1,1-.5-.57,2.44,2.44,0,0,1,1.89-.69,2.71,2.71,0,0,1,1.74,1,.36.36,0,0,1-.07.52A.37.37,0,0,1,1079.79,168.49Z"/><path class="cls-22" d="M1076.72,169.48a.42.42,0,1,0,.56-.23A.43.43,0,0,0,1076.72,169.48Z"/><path class="cls-22" d="M1069.21,168.08a.42.42,0,1,0,.55-.23A.42.42,0,0,0,1069.21,168.08Z"/><path d="M1079.47,170a.28.28,0,0,1-.24-.14,1.75,1.75,0,0,0-2.42-.53.3.3,0,0,1-.39-.12.28.28,0,0,1,.12-.38,2.31,2.31,0,0,1,3.17.74.28.28,0,0,1-.1.39A.23.23,0,0,1,1079.47,170Z"/><path d="M1072.11,168.35a.25.25,0,0,1-.24-.13,1.74,1.74,0,0,0-2.42-.54.29.29,0,0,1-.39-.11.3.3,0,0,1,.12-.39,2.3,2.3,0,0,1,3.17.75.27.27,0,0,1-.1.38A.23.23,0,0,1,1072.11,168.35Z"/><path class="cls-49" d="M1074.64,168.5l.27,4.35a2.74,2.74,0,0,0,.16,1,6.4,6.4,0,0,1,.22.63,1,1,0,0,1,0,.65c-.22.37-.84.35-1.17.28a1.19,1.19,0,0,1-.85-.87c-.06-.36-.52-.31-.47,0a1.71,1.71,0,0,0,2.16,1.36c.7-.16,1-.83.8-1.63a4.57,4.57,0,0,0-.28-.76l-.07-.13c.17-.17,0,.25,0,.09a.3.3,0,0,0,0-.13l-.16-2.61-.14-2.36c0-.35-.49-.31-.47.05Z"/><path d="M1198.53,44.92a3.24,3.24,0,0,1,1.8.69.84.84,0,0,1,0,1.29h0a.87.87,0,0,1-1.08,0,1.58,1.58,0,0,0-.79-.3,2.12,2.12,0,0,0-1.42.57l-.58-.61.58.6-.48-.5a.84.84,0,0,1,.23-1.34A3.57,3.57,0,0,1,1198.53,44.92Z"/><path d="M1207.53,45.93a3.24,3.24,0,0,1,1.8.69.84.84,0,0,1,0,1.29h0a.87.87,0,0,1-1.08,0,1.58,1.58,0,0,0-.79-.3,2.12,2.12,0,0,0-1.42.57l-.58-.61.58.6-.48-.5a.84.84,0,0,1,.23-1.34A3.57,3.57,0,0,1,1207.53,45.93Z"/><path d="M1208.86,50.34a1.05,1.05,0,0,1-.87,1.23,1.07,1.07,0,1,1,.87-1.23Z"/><path d="M1199.31,49.78a1.07,1.07,0,1,1-1.23-.87A1.07,1.07,0,0,1,1199.31,49.78Z"/><path class="cls-22" d="M1199.52,49.86a.42.42,0,0,1-.35.49.41.41,0,0,1-.48-.35.42.42,0,0,1,.34-.49A.43.43,0,0,1,1199.52,49.86Z"/><path class="cls-22" d="M1209.11,50.59a.43.43,0,0,1-.35.49.42.42,0,0,1-.49-.34.43.43,0,0,1,.35-.49A.42.42,0,0,1,1209.11,50.59Z"/><path d="M1196.73,49.72a.3.3,0,0,0,.27-.08,1.73,1.73,0,0,1,2.48,0,.28.28,0,1,0,.37-.43,2.3,2.3,0,0,0-3.26,0,.28.28,0,0,0,0,.4Z"/><path d="M1206.21,50.22a.27.27,0,0,0,.27-.08,1.73,1.73,0,0,1,2.48,0,.28.28,0,0,0,.4,0,.28.28,0,0,0,0-.4,2.32,2.32,0,0,0-3.26,0,.29.29,0,0,0,0,.4A.28.28,0,0,0,1206.21,50.22Z"/><path class="cls-49" d="M1201.76,49.36l-1.22,4.19a2.71,2.71,0,0,1-.38,1,3.15,3.15,0,0,0-.35.57.85.85,0,0,0-.11.64c.12.41.74.52,1.07.52a1.18,1.18,0,0,0,1-.66.23.23,0,1,1,.44.15,1.72,1.72,0,0,1-1.16,1,1.7,1.7,0,0,1-1.25-.16,1.21,1.21,0,0,1-.41-1.76,3.37,3.37,0,0,1,.44-.67L1200,54c-.13-.2-.06.24-.06.08a.42.42,0,0,1,0-.12l.73-2.51.66-2.27c.1-.35.54-.2.44.14Z"/></g></g></svg>