<svg xmlns="http://www.w3.org/2000/svg" xmlns:xlink="http://www.w3.org/1999/xlink" viewBox="0 0 1920 259"><defs><style>.cls-1{isolation:isolate;}.cls-2{fill:#70d44b;}.cls-3{fill:#fff;}.cls-33,.cls-4{opacity:0.1;}.cls-5{fill:url(#Degradado_sin_nombre_107);}.cls-6{fill:url(#Degradado_sin_nombre_107-2);}.cls-7{fill:url(#Degradado_sin_nombre_107-3);}.cls-111,.cls-8{opacity:0.15;}.cls-8{fill:url(#Degradado_sin_nombre_107-4);}.cls-9{fill:url(#Degradado_sin_nombre_107-5);}.cls-10{fill:url(#Degradado_sin_nombre_107-6);}.cls-11{fill:url(#Degradado_sin_nombre_107-7);}.cls-12{fill:url(#Degradado_sin_nombre_107-8);}.cls-13{fill:url(#Degradado_sin_nombre_2);}.cls-14{fill:url(#Degradado_sin_nombre_34);}.cls-15,.cls-20{opacity:0.2;}.cls-16{fill:url(#linear-gradient);}.cls-17{fill:url(#linear-gradient-2);}.cls-18{fill:#020202;}.cls-19{fill:url(#linear-gradient-3);}.cls-20,.cls-21,.cls-33,.cls-42,.cls-50{mix-blend-mode:multiply;}.cls-20{fill:url(#radial-gradient);}.cls-21{opacity:0.3;fill:url(#radial-gradient-2);}.cls-22{mix-blend-mode:screen;fill:url(#radial-gradient-3);}.cls-23{fill:url(#Degradado_sin_nombre_18);}.cls-24{fill:#ff9015;}.cls-25{fill:url(#Degradado_sin_nombre_18-2);}.cls-26{fill:url(#linear-gradient-4);}.cls-27{fill:url(#linear-gradient-5);}.cls-28,.cls-31{mix-blend-mode:color-dodge;}.cls-28{fill:url(#radial-gradient-4);}.cls-29{fill:url(#linear-gradient-6);}.cls-30{fill:url(#linear-gradient-7);}.cls-31{fill:url(#radial-gradient-5);}.cls-32{fill:url(#Degradado_sin_nombre_147);}.cls-34{fill:url(#Degradado_sin_nombre_40);}.cls-35{fill:url(#Degradado_sin_nombre_147-2);}.cls-36{fill:url(#Degradado_sin_nombre_40-2);}.cls-37{fill:url(#linear-gradient-8);}.cls-38{fill:url(#linear-gradient-9);}.cls-39{fill:url(#Degradado_sin_nombre_147-3);}.cls-40{fill:url(#Degradado_sin_nombre_40-3);}.cls-41{fill:url(#Degradado_sin_nombre_40-4);}.cls-42,.cls-50{fill:#d1d3d4;}.cls-43{fill:url(#Degradado_sin_nombre_8);}.cls-44{fill:url(#Degradado_sin_nombre_147-4);}.cls-45{fill:url(#Degradado_sin_nombre_76);}.cls-46{fill:url(#Degradado_sin_nombre_76-2);}.cls-47{fill:url(#Degradado_sin_nombre_40-5);}.cls-48{fill:url(#linear-gradient-10);}.cls-49{fill:url(#Degradado_sin_nombre_8-2);}.cls-50{opacity:0.5;}.cls-51{fill:url(#Degradado_sin_nombre_50);}.cls-52{fill:url(#Degradado_sin_nombre_50-2);}.cls-53{fill:url(#Degradado_sin_nombre_40-6);}.cls-54{fill:url(#Degradado_sin_nombre_147-5);}.cls-55{fill:url(#Degradado_sin_nombre_27);}.cls-56{fill:url(#Degradado_sin_nombre_107-9);}.cls-57{fill:url(#Degradado_sin_nombre_107-10);}.cls-58{fill:url(#Degradado_sin_nombre_107-11);}.cls-59{fill:url(#Degradado_sin_nombre_107-12);}.cls-60{fill:url(#Degradado_sin_nombre_83);}.cls-61{fill:url(#Degradado_sin_nombre_83-2);}.cls-62{fill:url(#Degradado_sin_nombre_83-3);}.cls-63{fill:url(#Degradado_sin_nombre_83-4);}.cls-64{fill:url(#Degradado_sin_nombre_83-5);}.cls-65{fill:url(#Degradado_sin_nombre_83-6);}.cls-66{fill:url(#Degradado_sin_nombre_83-7);}.cls-67{fill:url(#Degradado_sin_nombre_83-8);}.cls-68{fill:url(#Degradado_sin_nombre_83-9);}.cls-69{fill:url(#Degradado_sin_nombre_83-10);}.cls-70{fill:url(#Degradado_sin_nombre_83-11);}.cls-71{fill:url(#Degradado_sin_nombre_83-12);}.cls-72{fill:url(#Degradado_sin_nombre_83-13);}.cls-73{fill:url(#Degradado_sin_nombre_83-14);}.cls-74{fill:url(#Degradado_sin_nombre_83-15);}.cls-75{fill:url(#Degradado_sin_nombre_83-16);}.cls-76{fill:url(#Degradado_sin_nombre_83-17);}.cls-77{fill:url(#Degradado_sin_nombre_83-18);}.cls-78{fill:url(#Degradado_sin_nombre_83-19);}.cls-79{fill:url(#Degradado_sin_nombre_83-20);}.cls-80{fill:url(#Degradado_sin_nombre_83-21);}.cls-81{fill:url(#Degradado_sin_nombre_83-22);}.cls-82{fill:url(#Degradado_sin_nombre_83-23);}.cls-83{fill:url(#Degradado_sin_nombre_83-24);}.cls-84{fill:url(#Degradado_sin_nombre_83-25);}.cls-85{fill:url(#Degradado_sin_nombre_83-26);}.cls-86{fill:url(#Degradado_sin_nombre_83-27);}.cls-87{fill:url(#Degradado_sin_nombre_83-28);}.cls-88{fill:url(#Degradado_sin_nombre_83-29);}.cls-89{fill:url(#Degradado_sin_nombre_83-30);}.cls-90{fill:url(#Degradado_sin_nombre_83-31);}.cls-91{fill:url(#Degradado_sin_nombre_83-32);}.cls-92{fill:url(#Degradado_sin_nombre_83-33);}.cls-93{fill:url(#Degradado_sin_nombre_83-34);}.cls-94{fill:url(#Degradado_sin_nombre_83-35);}.cls-95{fill:url(#Degradado_sin_nombre_83-36);}.cls-96{fill:url(#Degradado_sin_nombre_83-37);}.cls-97{fill:url(#Degradado_sin_nombre_83-38);}.cls-98{fill:url(#Degradado_sin_nombre_76-3);}.cls-99{fill:url(#Degradado_sin_nombre_147-6);}.cls-100{fill:url(#Degradado_sin_nombre_40-7);}.cls-101{fill:url(#Degradado_sin_nombre_147-7);}.cls-102{fill:url(#Degradado_sin_nombre_40-8);}.cls-103{fill:url(#linear-gradient-11);}.cls-104{fill:#1a2e35;}.cls-105{fill:url(#Degradado_sin_nombre_40-9);}.cls-106{fill:url(#Degradado_sin_nombre_76-4);}.cls-107{fill:url(#Degradado_sin_nombre_76-5);}.cls-108{fill:url(#Degradado_sin_nombre_76-6);}.cls-109{fill:url(#Degradado_sin_nombre_50-3);}.cls-110{fill:#f5f5f5;}.cls-112{fill:#00dfbf;}.cls-113{fill:url(#Degradado_sin_nombre_50-4);}.cls-114{fill:#ffaaa8;}.cls-115{fill:url(#Degradado_sin_nombre_40-10);}.cls-116{fill:url(#Degradado_sin_nombre_76-7);}.cls-117{fill:url(#Degradado_sin_nombre_40-11);}.cls-118{fill:url(#Degradado_sin_nombre_147-8);}.cls-119{fill:url(#Degradado_sin_nombre_40-12);}.cls-120{fill:url(#Degradado_sin_nombre_40-13);}.cls-121{fill:url(#Degradado_sin_nombre_147-9);}.cls-122{fill:url(#Degradado_sin_nombre_50-5);}.cls-123{fill:url(#Degradado_sin_nombre_50-6);}</style><linearGradient id="Degradado_sin_nombre_107" x1="942" y1="177.65" x2="999.33" y2="177.65" gradientUnits="userSpaceOnUse"><stop offset="0" stop-color="#4d4d4d"/><stop offset="1" stop-color="#1a1a1a"/></linearGradient><linearGradient id="Degradado_sin_nombre_107-2" x1="941.99" y1="182.33" x2="950.62" y2="182.33" xlink:href="#Degradado_sin_nombre_107"/><linearGradient id="Degradado_sin_nombre_107-3" x1="944.48" y1="178.28" x2="999.33" y2="178.28" xlink:href="#Degradado_sin_nombre_107"/><linearGradient id="Degradado_sin_nombre_107-4" x1="944.48" y1="174.56" x2="986.62" y2="174.56" xlink:href="#Degradado_sin_nombre_107"/><linearGradient id="Degradado_sin_nombre_107-5" x1="968.24" y1="197.59" x2="999.32" y2="197.59" xlink:href="#Degradado_sin_nombre_107"/><linearGradient id="Degradado_sin_nombre_107-6" x1="884.39" y1="113.9" x2="1033.25" y2="113.9" xlink:href="#Degradado_sin_nombre_107"/><linearGradient id="Degradado_sin_nombre_107-7" x1="889.19" y1="115.28" x2="1033.25" y2="115.28" xlink:href="#Degradado_sin_nombre_107"/><linearGradient id="Degradado_sin_nombre_107-8" x1="893.99" y1="110.82" x2="1028.45" y2="110.82" xlink:href="#Degradado_sin_nombre_107"/><linearGradient id="Degradado_sin_nombre_2" x1="893.99" y1="110.82" x2="1028.45" y2="110.82" gradientUnits="userSpaceOnUse"><stop offset="0" stop-color="#fdf53f"/><stop offset="1" stop-color="#e4735a"/></linearGradient><linearGradient id="Degradado_sin_nombre_34" x1="959.34" y1="170.73" x2="964.72" y2="170.73" gradientUnits="userSpaceOnUse"><stop offset="0.04" stop-color="#666"/><stop offset="1" stop-color="#4d4d4d"/></linearGradient><linearGradient id="linear-gradient" x1="1992.3" y1="618.02" x2="2119.43" y2="618.02" gradientTransform="matrix(-0.8, 0.6, 1.06, 0.46, 2167.01, -1339.37)" gradientUnits="userSpaceOnUse"><stop offset="0" stop-color="#e0ccec"/><stop offset="0.85" stop-color="#faf7fc"/><stop offset="1" stop-color="#fff"/></linearGradient><linearGradient id="linear-gradient-2" x1="2503" y1="422.28" x2="2630.14" y2="422.28" gradientTransform="matrix(-0.87, 0.5, 1, 0.58, 2972.96, -1358.43)" xlink:href="#linear-gradient"/><linearGradient id="linear-gradient-3" x1="4087.15" y1="834.96" x2="4096.94" y2="834.96" gradientTransform="matrix(0.67, 0.74, -0.74, 0.67, -903.72, -3401.44)" gradientUnits="userSpaceOnUse"><stop offset="0.04" stop-color="#f7d9cf"/><stop offset="0.46" stop-color="#ffe1c2"/><stop offset="0.87" stop-color="#f7cfc1"/></linearGradient><radialGradient id="radial-gradient" cx="4278.87" cy="-3339.53" r="17.77" gradientTransform="matrix(0.8, 0.6, -0.23, 0.31, -2948.62, -1368.77)" gradientUnits="userSpaceOnUse"><stop offset="0"/><stop offset="1" stop-color="#fff"/></radialGradient><radialGradient id="radial-gradient-2" cx="4279.04" cy="-3336.26" r="7.92" xlink:href="#radial-gradient"/><radialGradient id="radial-gradient-3" cx="6652.27" cy="-1669.23" r="10.69" gradientTransform="matrix(0.86, -0.77, 0.1, 0.11, -4241.65, 5418.56)" gradientUnits="userSpaceOnUse"><stop offset="0" stop-color="#fff"/><stop offset="0.13" stop-color="#ff63ce"/><stop offset="1"/></radialGradient><linearGradient id="Degradado_sin_nombre_18" x1="1278.12" y1="110.42" x2="1278.12" y2="177.74" gradientUnits="userSpaceOnUse"><stop offset="0.04" stop-color="#ffa98c"/><stop offset="0.55" stop-color="#ff9015"/><stop offset="1" stop-color="#ffa167"/></linearGradient><linearGradient id="Degradado_sin_nombre_18-2" x1="1246.77" y1="148.88" x2="1319.14" y2="148.88" xlink:href="#Degradado_sin_nombre_18"/><linearGradient id="linear-gradient-4" x1="4087.28" y1="731.33" x2="4097.48" y2="731.33" gradientTransform="matrix(0.67, 0.74, -0.74, 0.67, -903.72, -3401.44)" gradientUnits="userSpaceOnUse"><stop offset="0" stop-color="#bec5d8"/><stop offset="0.21" stop-color="#ebedf3"/><stop offset="0.24" stop-color="#e2e4ec"/><stop offset="0.5" stop-color="#9097b3"/><stop offset="0.62" stop-color="#70789c"/><stop offset="0.68" stop-color="#767ea3"/><stop offset="0.77" stop-color="#888eb5"/><stop offset="0.82" stop-color="#949ac2"/><stop offset="1" stop-color="#8b90b5"/></linearGradient><linearGradient id="linear-gradient-5" x1="2971.66" y1="-497.95" x2="2990.53" y2="-496.66" gradientTransform="matrix(0.24, 0.97, -0.97, 0.24, 112.26, -2661.37)" gradientUnits="userSpaceOnUse"><stop offset="0" stop-color="#d6dae6"/><stop offset="0.01" stop-color="#d4d8e6"/><stop offset="0.28" stop-color="#b4b8e3"/><stop offset="0.4" stop-color="#9a9fc8"/><stop offset="0.53" stop-color="#838ab0"/><stop offset="0.65" stop-color="#757da1"/><stop offset="0.76" stop-color="#70789c"/><stop offset="0.85" stop-color="#777ea2"/><stop offset="0.99" stop-color="#898eb3"/><stop offset="1" stop-color="#8b90b5"/></linearGradient><radialGradient id="radial-gradient-4" cx="6492.16" cy="-85.38" r="3.97" gradientTransform="matrix(0.97, -0.24, 0.24, 0.97, -4956.84, 1774.53)" gradientUnits="userSpaceOnUse"><stop offset="0" stop-color="#b4299a"/><stop offset="0.12" stop-color="#8a2076"/><stop offset="0.26" stop-color="#601652"/><stop offset="0.4" stop-color="#3e0e35"/><stop offset="0.55" stop-color="#23081e"/><stop offset="0.69" stop-color="#0f030d"/><stop offset="0.84" stop-color="#040103"/><stop offset="1"/></radialGradient><linearGradient id="linear-gradient-6" x1="4087.67" y1="725.06" x2="4097.2" y2="725.06" gradientTransform="matrix(0.67, 0.74, -0.74, 0.67, -903.72, -3401.44)" gradientUnits="userSpaceOnUse"><stop offset="0.01" stop-color="#ed5eb6"/><stop offset="0.13" stop-color="#f783c5"/><stop offset="0.25" stop-color="#ffa3d2"/><stop offset="0.62" stop-color="#dc5199"/><stop offset="0.72" stop-color="#df589e"/><stop offset="0.81" stop-color="#e463a6"/><stop offset="1" stop-color="#dc3d8f"/></linearGradient><linearGradient id="linear-gradient-7" x1="2955.51" y1="-88.28" x2="2945" y2="-85.7" gradientTransform="matrix(-0.97, 0.24, 0.24, 0.97, 4207.69, -528.94)" gradientUnits="userSpaceOnUse"><stop offset="0.06" stop-color="#ffa3d2"/><stop offset="0.81" stop-color="#e463a6"/><stop offset="1" stop-color="#dc3d8f"/></linearGradient><radialGradient id="radial-gradient-5" cx="6496.41" cy="-86.91" r="3.75" xlink:href="#radial-gradient-4"/><linearGradient id="Degradado_sin_nombre_147" x1="3053.16" y1="-31.46" x2="3056.8" y2="-31.46" gradientTransform="matrix(-0.97, 0.24, 0.24, 0.97, 4207.69, -528.94)" gradientUnits="userSpaceOnUse"><stop offset="0" stop-color="#333"/><stop offset="1"/></linearGradient><linearGradient id="Degradado_sin_nombre_40" x1="1297.81" y1="190.18" x2="1312.92" y2="190.18" gradientUnits="userSpaceOnUse"><stop offset="0" stop-color="#f9c476"/><stop offset="1" stop-color="#fcdeb3"/></linearGradient><linearGradient id="Degradado_sin_nombre_147-2" x1="1296.27" y1="223.98" x2="1313.07" y2="223.98" gradientTransform="matrix(1, 0, 0, 1, 0, 0)" xlink:href="#Degradado_sin_nombre_147"/><linearGradient id="Degradado_sin_nombre_40-2" x1="1288.56" y1="196.93" x2="1304.57" y2="196.93" xlink:href="#Degradado_sin_nombre_40"/><linearGradient id="linear-gradient-8" x1="7171.9" y1="164.97" x2="7211.61" y2="164.97" gradientTransform="matrix(-1, 0, 0, 1, 8486.56, 0)" gradientUnits="userSpaceOnUse"><stop offset="0.04" stop-color="#9f19ab"/><stop offset="0.24" stop-color="#ae25b1"/><stop offset="0.65" stop-color="#d744bf"/><stop offset="1" stop-color="#ff63ce"/></linearGradient><linearGradient id="linear-gradient-9" x1="7197.96" y1="165.7" x2="7159.9" y2="163.05" gradientTransform="matrix(-1, 0, 0, 1, 8486.56, 0)" gradientUnits="userSpaceOnUse"><stop offset="0" stop-color="#2b3582"/><stop offset="1" stop-color="#150e42"/></linearGradient><linearGradient id="Degradado_sin_nombre_147-3" x1="1285.54" y1="229.57" x2="1303.9" y2="229.57" gradientTransform="matrix(1, 0, 0, 1, 0, 0)" xlink:href="#Degradado_sin_nombre_147"/><linearGradient id="Degradado_sin_nombre_40-3" x1="7202.93" y1="141.4" x2="7213.62" y2="141.4" gradientTransform="matrix(-1, 0, 0, 1, 8486.56, 0)" xlink:href="#Degradado_sin_nombre_40"/><linearGradient id="Degradado_sin_nombre_40-4" x1="7206.16" y1="138.47" x2="7209.6" y2="138.47" gradientTransform="matrix(-1, 0, 0, 1, 8486.56, 0)" xlink:href="#Degradado_sin_nombre_40"/><linearGradient id="Degradado_sin_nombre_8" x1="7175.07" y1="130.55" x2="7222.39" y2="106.15" gradientTransform="matrix(-1, 0, 0, 1, 8486.56, 0)" gradientUnits="userSpaceOnUse"><stop offset="0" stop-color="#3fcefc"/><stop offset="1" stop-color="#4675b1"/></linearGradient><linearGradient id="Degradado_sin_nombre_147-4" x1="1290.61" y1="107.12" x2="1294.96" y2="107.12" gradientTransform="matrix(1, 0, 0, 1, 0, 0)" xlink:href="#Degradado_sin_nombre_147"/><linearGradient id="Degradado_sin_nombre_76" x1="1288.23" y1="143.92" x2="1317.58" y2="137.91" gradientUnits="userSpaceOnUse"><stop offset="0" stop-color="#3fcefc"/><stop offset="1" stop-color="#485697"/></linearGradient><linearGradient id="Degradado_sin_nombre_76-2" x1="1292.71" y1="140.55" x2="1318.03" y2="140.55" xlink:href="#Degradado_sin_nombre_76"/><linearGradient id="Degradado_sin_nombre_40-5" x1="6407.2" y1="-50.66" x2="6424" y2="-50.66" gradientTransform="matrix(-0.99, 0.14, 0.14, 0.99, 7659.38, -752.83)" xlink:href="#Degradado_sin_nombre_40"/><linearGradient id="linear-gradient-10" x1="7179.07" y1="120.87" x2="7184.81" y2="116.18" gradientTransform="matrix(-1, 0, 0, 1, 8486.56, 0)" gradientUnits="userSpaceOnUse"><stop offset="0.04" stop-color="#9d9eb3"/><stop offset="0.58" stop-color="#d4d1d8"/><stop offset="1" stop-color="#eeebf2"/></linearGradient><linearGradient id="Degradado_sin_nombre_8-2" x1="1290.53" y1="118.22" x2="1290.53" y2="152.74" gradientTransform="matrix(1, 0, 0, 1, 0, 0)" xlink:href="#Degradado_sin_nombre_8"/><linearGradient id="Degradado_sin_nombre_50" x1="1291.48" y1="104.06" x2="1309.84" y2="104.06" gradientUnits="userSpaceOnUse"><stop offset="0" stop-color="#454545"/><stop offset="1"/></linearGradient><linearGradient id="Degradado_sin_nombre_50-2" x1="1304.04" y1="106.55" x2="1313" y2="106.55" xlink:href="#Degradado_sin_nombre_50"/><linearGradient id="Degradado_sin_nombre_40-6" x1="1282.65" y1="135.69" x2="1287.77" y2="135.69" xlink:href="#Degradado_sin_nombre_40"/><linearGradient id="Degradado_sin_nombre_147-5" x1="1334.57" y1="158.67" x2="1341.26" y2="158.67" gradientTransform="matrix(1.13, 0.23, -0.34, 0.93, -159.16, -353.06)" xlink:href="#Degradado_sin_nombre_147"/><linearGradient id="Degradado_sin_nombre_27" x1="1806.76" y1="306.1" x2="1804.12" y2="50.5" gradientTransform="matrix(-1, 0, 0, 1, 2788, 0)" gradientUnits="userSpaceOnUse"><stop offset="0" stop-color="#d1b4e3"/><stop offset="0.44" stop-color="#dbc4e9"/><stop offset="1" stop-color="#ebdef3"/></linearGradient><linearGradient id="Degradado_sin_nombre_107-9" x1="2883.53" y1="216.28" x2="2775.74" y2="44.05" gradientTransform="matrix(-1, 0, 0, 1, 3773.58, 0)" xlink:href="#Degradado_sin_nombre_107"/><linearGradient id="Degradado_sin_nombre_107-10" x1="920.07" y1="74.97" x2="1043.2" y2="74.97" xlink:href="#Degradado_sin_nombre_107"/><linearGradient id="Degradado_sin_nombre_107-11" x1="920.92" y1="75.13" x2="1045.3" y2="75.13" xlink:href="#Degradado_sin_nombre_107"/><linearGradient id="Degradado_sin_nombre_107-12" x1="920.55" y1="122.46" x2="1043.41" y2="122.46" xlink:href="#Degradado_sin_nombre_107"/><linearGradient id="Degradado_sin_nombre_83" x1="926.67" y1="116.47" x2="961.59" y2="116.47" gradientUnits="userSpaceOnUse"><stop offset="0" stop-color="#99ca2f"/><stop offset="0.13" stop-color="#8fc62e"/><stop offset="0.34" stop-color="#74bc2d"/><stop offset="0.62" stop-color="#48ac2b"/><stop offset="0.94" stop-color="#0b9628"/><stop offset="1" stop-color="#009227"/></linearGradient><linearGradient id="Degradado_sin_nombre_83-2" x1="931.87" y1="162.09" x2="959.47" y2="162.09" xlink:href="#Degradado_sin_nombre_83"/><linearGradient id="Degradado_sin_nombre_83-3" x1="927.7" y1="157.07" x2="959.47" y2="157.07" xlink:href="#Degradado_sin_nombre_83"/><linearGradient id="Degradado_sin_nombre_83-4" x1="927.7" y1="166.83" x2="959.47" y2="166.83" xlink:href="#Degradado_sin_nombre_83"/><linearGradient id="Degradado_sin_nombre_83-5" x1="929.47" y1="170.05" x2="959.47" y2="170.05" xlink:href="#Degradado_sin_nombre_83"/><linearGradient id="Degradado_sin_nombre_83-6" x1="927.7" y1="177.82" x2="959.47" y2="177.82" xlink:href="#Degradado_sin_nombre_83"/><linearGradient id="Degradado_sin_nombre_83-7" x1="929.47" y1="180.88" x2="959.47" y2="180.88" xlink:href="#Degradado_sin_nombre_83"/><linearGradient id="Degradado_sin_nombre_83-8" x1="927.7" y1="185.02" x2="959.47" y2="185.02" xlink:href="#Degradado_sin_nombre_83"/><linearGradient id="Degradado_sin_nombre_83-9" x1="968.95" y1="100.46" x2="998.95" y2="100.46" xlink:href="#Degradado_sin_nombre_83"/><linearGradient id="Degradado_sin_nombre_83-10" x1="967.18" y1="94.75" x2="998.95" y2="94.75" xlink:href="#Degradado_sin_nombre_83"/><linearGradient id="Degradado_sin_nombre_83-11" x1="970.7" y1="103.53" x2="998.95" y2="103.53" xlink:href="#Degradado_sin_nombre_83"/><linearGradient id="Degradado_sin_nombre_83-12" x1="968.95" y1="107.73" x2="998.95" y2="107.73" xlink:href="#Degradado_sin_nombre_83"/><linearGradient id="Degradado_sin_nombre_83-13" x1="978.76" y1="122.98" x2="998.95" y2="122.98" xlink:href="#Degradado_sin_nombre_83"/><linearGradient id="Degradado_sin_nombre_83-14" x1="971.42" y1="110.74" x2="998.95" y2="110.74" xlink:href="#Degradado_sin_nombre_83"/><linearGradient id="Degradado_sin_nombre_83-15" x1="967.18" y1="115.51" x2="998.95" y2="115.51" xlink:href="#Degradado_sin_nombre_83"/><linearGradient id="Degradado_sin_nombre_83-16" x1="970.44" y1="118.12" x2="998.95" y2="118.12" xlink:href="#Degradado_sin_nombre_83"/><linearGradient id="Degradado_sin_nombre_83-17" x1="967.18" y1="122.7" x2="998.95" y2="122.7" xlink:href="#Degradado_sin_nombre_83"/><linearGradient id="Degradado_sin_nombre_83-18" x1="1762.15" y1="80.42" x2="1781.37" y2="80.42" gradientTransform="matrix(-1, 0, 0, 1, 2788, 0)" xlink:href="#Degradado_sin_nombre_83"/><linearGradient id="Degradado_sin_nombre_83-19" x1="1749.96" y1="68.18" x2="1774.44" y2="68.18" gradientTransform="matrix(-1, 0, 0, 1, 2788, 0)" xlink:href="#Degradado_sin_nombre_83"/><linearGradient id="Degradado_sin_nombre_83-20" x1="1762.15" y1="83.99" x2="1781.45" y2="83.99" gradientTransform="matrix(-1, 0, 0, 1, 2788, 0)" xlink:href="#Degradado_sin_nombre_83"/><linearGradient id="Degradado_sin_nombre_83-21" x1="1762.15" y1="108.21" x2="1781.37" y2="108.21" gradientTransform="matrix(-1, 0, 0, 1, 2788, 0)" xlink:href="#Degradado_sin_nombre_83"/><linearGradient id="Degradado_sin_nombre_83-22" x1="1749.96" y1="95.97" x2="1774.44" y2="95.97" gradientTransform="matrix(-1, 0, 0, 1, 2788, 0)" xlink:href="#Degradado_sin_nombre_83"/><linearGradient id="Degradado_sin_nombre_83-23" x1="1762.15" y1="111.79" x2="1781.45" y2="111.79" gradientTransform="matrix(-1, 0, 0, 1, 2788, 0)" xlink:href="#Degradado_sin_nombre_83"/><linearGradient id="Degradado_sin_nombre_83-24" x1="1318.44" y1="1525.35" x2="1325.54" y2="1538.96" gradientTransform="matrix(-0.87, 0.5, 0, 1.15, 2301.69, -2743.06)" xlink:href="#Degradado_sin_nombre_83"/><linearGradient id="Degradado_sin_nombre_83-25" x1="1752.87" y1="75.69" x2="1763.17" y2="91.83" gradientTransform="matrix(-1, 0, 0, 1, 2788, 0)" xlink:href="#Degradado_sin_nombre_83"/><linearGradient id="Degradado_sin_nombre_83-26" x1="1318.39" y1="1525.38" x2="1325.49" y2="1538.99" gradientTransform="matrix(-0.87, 0.5, 0, 1.15, 2301.69, -2743.06)" xlink:href="#Degradado_sin_nombre_83"/><linearGradient id="Degradado_sin_nombre_83-27" x1="1320.03" y1="1524.52" x2="1327.13" y2="1538.13" gradientTransform="matrix(-0.87, 0.5, 0, 1.15, 2301.69, -2743.06)" xlink:href="#Degradado_sin_nombre_83"/><linearGradient id="Degradado_sin_nombre_83-28" x1="1762.15" y1="136.43" x2="1781.37" y2="136.43" gradientTransform="matrix(-1, 0, 0, 1, 2788, 0)" xlink:href="#Degradado_sin_nombre_83"/><linearGradient id="Degradado_sin_nombre_83-29" x1="1749.96" y1="124.19" x2="1774.44" y2="124.19" gradientTransform="matrix(-1, 0, 0, 1, 2788, 0)" xlink:href="#Degradado_sin_nombre_83"/><linearGradient id="Degradado_sin_nombre_83-30" x1="1762.15" y1="140.01" x2="1781.45" y2="140.01" gradientTransform="matrix(-1, 0, 0, 1, 2788, 0)" xlink:href="#Degradado_sin_nombre_83"/><linearGradient id="Degradado_sin_nombre_83-31" x1="1277.82" y1="1497.89" x2="1286.87" y2="1515.25" gradientTransform="matrix(-0.87, 0.5, 0, 1.15, 2301.69, -2743.06)" xlink:href="#Degradado_sin_nombre_83"/><linearGradient id="Degradado_sin_nombre_83-32" x1="1752.79" y1="131.57" x2="1759.63" y2="142.75" gradientTransform="matrix(-1, 0, 0, 1, 2788, 0)" xlink:href="#Degradado_sin_nombre_83"/><linearGradient id="Degradado_sin_nombre_83-33" x1="1318.39" y1="1573.89" x2="1325.49" y2="1587.5" gradientTransform="matrix(-0.87, 0.5, 0, 1.15, 2301.69, -2743.06)" xlink:href="#Degradado_sin_nombre_83"/><linearGradient id="Degradado_sin_nombre_83-34" x1="1369.52" y1="1541.02" x2="1373.46" y2="1554.15" gradientTransform="matrix(-0.87, 0.5, 0, 1.15, 2301.69, -2743.06)" xlink:href="#Degradado_sin_nombre_83"/><linearGradient id="Degradado_sin_nombre_83-35" x1="1362.62" y1="1508.74" x2="1366.97" y2="1523.2" gradientTransform="matrix(-0.87, 0.5, 0, 1.15, 2301.69, -2743.06)" xlink:href="#Degradado_sin_nombre_83"/><linearGradient id="Degradado_sin_nombre_83-36" x1="1751.01" y1="98.7" x2="1758.21" y2="112.31" gradientTransform="matrix(-1, 0, 0, 1, 2788, 0)" xlink:href="#Degradado_sin_nombre_83"/><linearGradient id="Degradado_sin_nombre_83-37" x1="1750.44" y1="90.04" x2="1755.7" y2="101.62" gradientTransform="matrix(-1, 0, 0, 1, 2788, 0)" xlink:href="#Degradado_sin_nombre_83"/><linearGradient id="Degradado_sin_nombre_83-38" x1="976.85" y1="151.99" x2="990.36" y2="151.99" xlink:href="#Degradado_sin_nombre_83"/><linearGradient id="Degradado_sin_nombre_76-3" x1="1293.99" y1="118.27" x2="1308.84" y2="118.27" xlink:href="#Degradado_sin_nombre_76"/><linearGradient id="Degradado_sin_nombre_147-6" x1="1062.64" y1="214.1" x2="1072.84" y2="214.1" gradientTransform="matrix(1, 0, 0, 1, 0, 0)" xlink:href="#Degradado_sin_nombre_147"/><linearGradient id="Degradado_sin_nombre_40-7" x1="1067.98" y1="214.15" x2="1072.41" y2="214.15" xlink:href="#Degradado_sin_nombre_40"/><linearGradient id="Degradado_sin_nombre_147-7" x1="1041.41" y1="228.22" x2="1060.18" y2="228.22" gradientTransform="matrix(1, 0, 0, 1, 0, 0)" xlink:href="#Degradado_sin_nombre_147"/><linearGradient id="Degradado_sin_nombre_40-8" x1="1054.02" y1="223.48" x2="1059.32" y2="223.48" xlink:href="#Degradado_sin_nombre_40"/><linearGradient id="linear-gradient-11" x1="1049.56" y1="185.32" x2="1074.03" y2="185.32" gradientTransform="matrix(1, 0, 0, 1, 0, 0)" xlink:href="#linear-gradient-9"/><linearGradient id="Degradado_sin_nombre_40-9" x1="1058.16" y1="121.3" x2="1066.35" y2="121.3" xlink:href="#Degradado_sin_nombre_40"/><linearGradient id="Degradado_sin_nombre_76-4" x1="1068.32" y1="132.56" x2="1076.85" y2="132.56" xlink:href="#Degradado_sin_nombre_76"/><linearGradient id="Degradado_sin_nombre_76-5" x1="1061.76" y1="121.17" x2="1061.76" y2="159.29" xlink:href="#Degradado_sin_nombre_76"/><linearGradient id="Degradado_sin_nombre_76-6" x1="1056.48" y1="121.89" x2="1067.06" y2="121.89" xlink:href="#Degradado_sin_nombre_76"/><linearGradient id="Degradado_sin_nombre_50-3" x1="1021.61" y1="126.15" x2="1042.35" y2="126.15" xlink:href="#Degradado_sin_nombre_50"/><linearGradient id="Degradado_sin_nombre_50-4" x1="1026.73" y1="116.46" x2="1031.94" y2="116.46" xlink:href="#Degradado_sin_nombre_50"/><linearGradient id="Degradado_sin_nombre_40-10" x1="1021.06" y1="138.31" x2="1038.84" y2="138.31" xlink:href="#Degradado_sin_nombre_40"/><linearGradient id="Degradado_sin_nombre_76-7" x1="1043.01" y1="123.86" x2="1043.01" y2="151.28" xlink:href="#Degradado_sin_nombre_76"/><linearGradient id="Degradado_sin_nombre_40-11" x1="1051.37" y1="110.55" x2="1053.01" y2="110.55" xlink:href="#Degradado_sin_nombre_40"/><linearGradient id="Degradado_sin_nombre_147-8" x1="1051.69" y1="108.38" x2="1056.04" y2="108.38" gradientTransform="matrix(1, 0, 0, 1, 0, 0)" xlink:href="#Degradado_sin_nombre_147"/><linearGradient id="Degradado_sin_nombre_40-12" x1="1052.86" y1="109.76" x2="1069.47" y2="109.76" xlink:href="#Degradado_sin_nombre_40"/><linearGradient id="Degradado_sin_nombre_40-13" x1="1054.25" y1="118.16" x2="1058.21" y2="118.16" xlink:href="#Degradado_sin_nombre_40"/><linearGradient id="Degradado_sin_nombre_147-9" x1="1051.89" y1="108.58" x2="1058.46" y2="108.58" gradientTransform="matrix(1, 0, 0, 1, 0, 0)" xlink:href="#Degradado_sin_nombre_147"/><linearGradient id="Degradado_sin_nombre_50-5" x1="1050.86" y1="106.71" x2="1072.81" y2="106.71" xlink:href="#Degradado_sin_nombre_50"/><linearGradient id="Degradado_sin_nombre_50-6" x1="1056.69" y1="109.81" x2="1058.01" y2="109.81" xlink:href="#Degradado_sin_nombre_50"/></defs><g class="cls-1"><g id="Capa_1" data-name="Capa 1"><rect class="cls-2" width="1920" height="259"/><path class="cls-3" d="M630,140.13c0,11.73-10.89,17.26-19.81,18.36a66.43,66.43,0,0,1-8.42.34H579.44l10.37-58.66h22.37a53.85,53.85,0,0,1,7.48.34c8.24,1,12.58,5.95,12.58,12.5,0,7-4,12-11.48,14.2C627,129.25,630,133.67,630,140.13Zm-14.12-.43c0-3.74-2.46-5.61-5.69-5.95a30.87,30.87,0,0,0-4-.17h-8.93l-2.63,14.8h9.26c1.36,0,2.72,0,3.91-.09A8.53,8.53,0,0,0,615.83,139.7Zm-16.92-15.9h8a32.09,32.09,0,0,0,4.09-.25c4.5-.68,6.88-3.23,6.88-7.65,0-3.15-1.87-4.68-4.76-5.1a31.91,31.91,0,0,0-4.08-.26h-7.74Z"/><path class="cls-3" d="M679.43,158.83H636l10.38-58.66h13.26l-8.42,47.44h30.27Z"/><path class="cls-3" d="M748.05,124.4c0,20.92-13.86,35.62-33.84,35.62-17.35,0-27-11.05-27-25.42,0-21,13.85-35.62,33.83-35.62C738.44,99,748.05,110,748.05,124.4Zm-14.12.34c0-9.44-4.76-15.9-13.6-15.9-12.92,0-19,13.86-19,25.42,0,9.36,4.76,15.9,13.6,15.9C727.81,150.16,733.93,136.3,733.93,124.74Z"/><path class="cls-3" d="M812.24,119.3l-.08.85H798.81v-.85c-.09-7.23-3.74-10.46-10.8-10.46-10.29,0-19.39,9.52-19.39,25.85,0,10.63,5,15.47,11.91,15.47s12.24-4,15.13-11.48h-12l1.87-10.37H810.2l-5.44,30.52H794.22l.59-9.18-3.65,6c-3.83,3.06-8.34,4.33-14.71,4.33-13.69,0-22-8.75-22-23.8,0-23.55,17-37.24,35.45-37.24C806.2,99,813.09,107.73,812.24,119.3Z"/><ellipse id="Floor" class="cls-4" cx="1128.42" cy="211.04" rx="271.13" ry="37.91"/><g id="Device"><g id="Monitor"><path class="cls-5" d="M975.57,206.27l20.57-11.89c2.12-1.22,3.18-2.83,3.18-4.43s0-2.86,0-2.86L980,176.1a4.51,4.51,0,0,1-2-3.54V147.2L942,168v25.36a4.51,4.51,0,0,0,2,3.54l16.17,9.42A17,17,0,0,0,975.57,206.27Z"/><path class="cls-6" d="M950.62,197.81v2.85l-6.58-3.8a4.54,4.54,0,0,1-2-3.55V168l6.85-4c.14,1.74.29,3.53.44,5.28l-4.8,2.78v19.81a4.5,4.5,0,0,0,2,3.55Z"/><path class="cls-7" d="M944.48,191.89a4.55,4.55,0,0,0,2,3.55l13.69,8a17,17,0,0,0,15.36,0l20.58-11.9c4.24-2.44,4.24-6.41,0-8.86l-13.7-8a4.52,4.52,0,0,1-2.05-3.54V151.31l-35.92,20.76Z"/><path class="cls-8" d="M986.62,177.08h0l-4.17-2.41a4.52,4.52,0,0,1-2.05-3.54V151.31l-35.92,20.76v19.82a4.55,4.55,0,0,0,2,3.55l4.1,2.36Z"/><path class="cls-9" d="M999.32,187.09V190c0,1.61-1.06,3.2-3.18,4.43l-20.57,11.89a15.45,15.45,0,0,1-7.33,1.82v-2.85a15.33,15.33,0,0,0,7.33-1.82l20.57-11.9C998.26,190.31,999.32,188.7,999.32,187.09Z"/><path class="cls-10" d="M886.79,219.25a5.52,5.52,0,0,0,5-.09l138.94-80.22a5.64,5.64,0,0,0,2.56-4.43V12.89a5.47,5.47,0,0,0-2.4-4.34,5.46,5.46,0,0,0-5,.09L887,88.86a5.66,5.66,0,0,0-2.56,4.43V214.91A5.48,5.48,0,0,0,886.79,219.25Z"/><path class="cls-11" d="M891.75,219.15l138.94-80.21a5.66,5.66,0,0,0,2.56-4.44V12.89c0-1.64-1.14-2.3-2.56-1.48L891.75,91.63a5.66,5.66,0,0,0-2.56,4.43V217.67C889.19,219.31,890.34,220,891.75,219.15Z"/><path class="cls-12" d="M894,201.61v-104A3.39,3.39,0,0,1,895.53,95l131.38-75.85c.85-.49,1.54-.09,1.54.89V124a3.41,3.41,0,0,1-1.53,2.66L895.53,202.5C894.68,203,894,202.59,894,201.61Z"/><path class="cls-13" d="M894,201.61v-104A3.39,3.39,0,0,1,895.53,95l131.38-75.85c.85-.49,1.54-.09,1.54.89V124a3.41,3.41,0,0,1-1.53,2.66L895.53,202.5C894.68,203,894,202.59,894,201.61Z"/><path class="cls-14" d="M961,174.12a1.45,1.45,0,0,1-.77-.2,2,2,0,0,1-.85-1.8,5.57,5.57,0,0,1,2.55-4.42h0a1.75,1.75,0,0,1,2.83,1.64,5.53,5.53,0,0,1-2.54,4.41A2.44,2.44,0,0,1,961,174.12Zm2.14-6.2a1.92,1.92,0,0,0-.92.29h0a5,5,0,0,0-2.26,3.91,1.18,1.18,0,0,0,2,1.13,5,5,0,0,0,2.25-3.91,1.42,1.42,0,0,0-.56-1.3A1,1,0,0,0,963.1,167.92Z"/></g></g><polygon class="cls-15" points="1211.85 249.34 1313.67 173.22 1144.96 100.86 1043.14 176.98 1211.85 249.34"/><polygon class="cls-16" points="1209.76 247.25 1311.58 171.13 1142.87 98.77 1041.05 174.89 1209.76 247.25"/><polygon class="cls-15" points="1198.8 248.94 1310.02 184.72 1149.42 92 1038.2 156.22 1198.8 248.94"/><polygon class="cls-17" points="1197.04 246.35 1307.14 182.79 1148.16 91 1038.06 154.56 1197.04 246.35"/><path class="cls-18" d="M1069,157.41c-.69-.4,1.1-.07.85-.11,1.41.21,2.78,1.84,4.33,1.65,1.14-.15,1.32-1.79,2.38-1.94,1.6-.23-1,2.42-1.91,2.56C1072.89,159.86,1070.34,158.21,1069,157.41Z"/><path class="cls-18" d="M1077.08,156.62c-2.28-1.31,1-3.73,2.86-2.4C1082.3,155.9,1078.91,157.68,1077.08,156.62Zm.7-.32c1.53.88,2.91-1.24,1.16-1.9C1077.77,154,1076.77,155.72,1077.78,156.3Z"/><path class="cls-18" d="M1079.26,153.5c-1-.6,2.2.05,2.33.05-.71-.89-1-2.09.59-2.11,2,0,.21.6.19.64-.08.27-.65.07-.19.84.22.36,2.17.84,2.15,1.19C1084.28,155,1079.77,153.79,1079.26,153.5Z"/><path class="cls-18" d="M1084.1,151.92c-1.7-1-1.18-2.65.71-2.58,1.49,0,2.68,1.87.88,2.58.83.45,3.49-1.74,3.72-1,.15.48-1.37,1.2-1.7,1.33A4.2,4.2,0,0,1,1084.1,151.92Zm.3-.73c.95.55,1.94-.68.77-1.22C1084.29,149.58,1083.35,150.59,1084.4,151.19Z"/><path class="cls-18" d="M1087,149c-.41-.24-.13-.36.11-.51s2.31.78,2.71.83c0-.63-1.08-.67-.93-1.32.19-.8,2.49-.38,3-.42-1.48-2.29,1.8-1.72,3.11-1.18.54.22,1.8.77.65,1s-5.06-2.56-2.18.93c-.56,1-2.57-.74-3.43-.24-.21.12,1.7,1.57,1.62,1.8C1091.33,150.83,1087.55,149.34,1087,149Z"/><path class="cls-18" d="M1095,141.56a1.2,1.2,0,0,1,.75.06c.65.46-1.68.47-.75-.06C1095.16,141.53,1094.89,141.64,1095,141.56Zm2.68,1.67c-1-.57-.79-.68.19-.57.43.05,3.6,1,3.6,1.53C1101.48,145.26,1097.93,143.35,1097.71,143.23Z"/><path class="cls-18" d="M1099.19,142.43c-2.09-1.22,2.48-3.5,3.52-1.05.26.6-.17,1.35.23,1.78.25.26,3.34.58,3.16.85-.7,1.07-5.92-1.22-6.91-1.58C1098.71,142.15,1099.28,142.46,1099.19,142.43Zm.7-.33c.76.44,3,.73,1.86-.84C1101,140.15,1098.81,141.48,1099.89,142.1Z"/><path class="cls-18" d="M1106.52,141c.74-2.37-1-1-2.15-.66-2.54.84-3.7-2.61-1.17-2.37.36.41-.88,1-.38,1.75.71,1,1.88-.39,2.54-.62,2.79-1,1.93,2.35,1.16,1.9C1106.54,140.91,1106.59,141,1106.52,141Z"/><path class="cls-18" d="M1106,138.14c-.41-.24-1.41-.87-.3-.92.3,0,1.25.88,1.59,1,1,.42,3.3.94,2.55-.77-.17-.38-2.77-1.71-2.74-1.76.49-1.12,3.28,1.18,3.53,1.55C1112.67,140.17,1107.21,138.81,1106,138.14Z"/><path class="cls-18" d="M1109.59,136c-.41-.24-.13-.36.11-.51s2.31.78,2.7.83c0-.62-1.07-.66-.92-1.32s2.49-.38,3-.42c-1.47-2.29,1.8-1.72,3.11-1.18.54.22,1.8.77.65,1s-5-2.56-2.17.93c-.57,1-2.57-.73-3.43-.24-.22.13,1.69,1.57,1.62,1.8C1113.92,137.79,1110.14,136.3,1109.59,136Z"/><path class="cls-18" d="M1121.74,131.57c-1.32-.77.36-3.11.5-3-.86-.49-1.8-.83-2.65-1.34.59-.74,5.91,2.09,6.83,2.62-.59.35-.65.15-1.26,0C1124.89,131.12,1123,132.3,1121.74,131.57Zm.48-.46c.75.43,2-.66,1.67-1.44C1123.28,128.1,1121,130.38,1122.22,131.11Z"/><path class="cls-18" d="M1125.39,128.73c-2.27-1.32,1-3.74,2.87-2.41C1130.62,128,1127.22,129.78,1125.39,128.73Zm.71-.32c1.53.88,2.91-1.24,1.16-1.9C1126.09,126.06,1125.09,127.82,1126.1,128.41Z"/><path class="cls-18" d="M1126.67,124.87c-2-1.15.18-.64,1.21-.21,1.42.6,2.82,1.27,4.19,2-.29.87-4.81-1.57-5.4-1.77C1126.53,124.79,1127,125,1126.67,124.87Z"/><path class="cls-18" d="M1130.93,125.53c-2.28-1.31,1-3.73,2.86-2.4C1136.15,124.81,1132.76,126.59,1130.93,125.53Zm.7-.32c1.53.88,2.91-1.24,1.16-1.9C1131.62,122.87,1130.62,124.63,1131.63,125.21Z"/><path class="cls-18" d="M1133.11,122.41c-1-.6,2.2,0,2.33,0-.71-.89-1-2.09.59-2.11,2,0,.21.6.19.64-.08.27-.65.07-.19.84.22.36,2.17.84,2.15,1.19C1138.13,123.9,1133.61,122.7,1133.11,122.41Z"/><path class="cls-18" d="M1144.51,119.05c.75-2.38-1-1-2.14-.66-2.55.83-3.71-2.61-1.18-2.38.37.41-.87,1-.37,1.75.7,1,1.87-.39,2.53-.62,2.79-1,1.93,2.35,1.16,1.91C1144.53,119,1144.58,119.09,1144.51,119.05Z"/><path class="cls-18" d="M1141.9,114.49a1.16,1.16,0,0,1,.76.07c.65.46-1.68.47-.76-.07C1142,114.46,1141.77,114.57,1141.9,114.49Zm2.69,1.67c-1-.56-.8-.68.18-.56.43.05,3.61,1,3.6,1.52C1148.36,118.19,1144.8,116.29,1144.59,116.16Z"/><path class="cls-18" d="M1144.9,114.88c-.35-.21,1.26-1,1.44-1.1-.41-.23-1.32-.43-1.54-.87-.53-1,1.33.08,1.65.16a3,3,0,0,0,2.14-.26c.05,0,1.37-1.09,1.34-.3,0,.39-1.48,1.14-1.76,1.31.65.37,3.34.68,3.56,1.37.13.41-4.32-.93-4.79-.87S1145.46,115.19,1144.9,114.88Z"/><path class="cls-18" d="M1087,164c-1,3.16-6.2,1.45-4.79-1,.56-1,2.19-.81,3.06-.57.43.11,3.46,1.26,3.53,1.69s-1.69-.13-1.8-.15C1087,164.17,1087.46,164.09,1087,164Zm-3.19,1.1c1.56.9,3-.86,1.24-1.89S1082,164,1083.82,165.09Z"/><path class="cls-18" d="M1086.09,162c-.41-.24-.13-.36.11-.51s2.31.78,2.71.83c0-.63-1.08-.66-.93-1.32s2.49-.38,3-.42c-1.48-2.29,1.8-1.72,3.11-1.18.54.22,1.79.77.65,1s-5.06-2.56-2.18.93c-.56,1-2.57-.73-3.43-.24-.21.13,1.7,1.57,1.62,1.8C1090.42,163.82,1086.64,162.33,1086.09,162Z"/><path class="cls-18" d="M1093.81,158.78c-1.7-1-1.18-2.65.71-2.58,1.49.05,2.68,1.87.88,2.58.83.45,3.49-1.74,3.72-1.05.15.48-1.37,1.2-1.7,1.33A4.2,4.2,0,0,1,1093.81,158.78Zm.3-.73c1,.55,1.93-.69.76-1.22C1094,156.44,1093.06,157.45,1094.11,158.05Z"/><path class="cls-18" d="M1096.09,155.52c-.36-.2,1.25-1,1.43-1.09-.41-.24-1.31-.43-1.54-.88-.53-1,1.34.09,1.66.17a3.1,3.1,0,0,0,2.14-.26s1.37-1.09,1.34-.31c0,.39-1.49,1.15-1.77,1.31.66.38,3.34.69,3.56,1.38.13.41-4.32-.93-4.78-.87S1096.64,155.84,1096.09,155.52Z"/><path class="cls-18" d="M1104.64,153.61c.61-.35,1.72.85,1.78,1.36C1106.61,156.6,1104,154,1104.64,153.61Z"/><path class="cls-18" d="M1107.49,150.68c-1.82-1.05.06-3,1.54-2.13-1,.57-2.08.79-.53,1.84a1.73,1.73,0,0,0,2.14.12c.28-.21.21-.81.43-.95.6-.36,1.09.05.86.85C1111.45,152,1108.43,151.23,1107.49,150.68Z"/><path class="cls-18" d="M1111.86,149c-2.28-1.31,1-3.73,2.87-2.4C1117.09,148.29,1113.69,150.06,1111.86,149Zm.7-.32c1.53.89,2.92-1.23,1.16-1.9C1112.56,146.34,1111.55,148.1,1112.56,148.68Z"/><path class="cls-18" d="M1114.66,146.23c-.91-.52,1.76-.12,1.72-.12-.73-.44-.53-1.18,0-1.65,1.13-1,3.48.3,4.5.89-.72.62-6.81-2.12-2.44,1.41-.26.94-3.36-.37-3.78-.53C1114.54,146.16,1114.88,146.31,1114.66,146.23Z"/><path class="cls-18" d="M1122.54,144.2c.75-2.38-1-1-2.15-.66-2.54.83-3.7-2.61-1.17-2.38.37.41-.88,1.05-.37,1.75.7,1,1.87-.39,2.53-.62,2.79-1,1.93,2.35,1.16,1.91C1122.56,144.12,1122.61,144.24,1122.54,144.2Z"/><path class="cls-18" d="M1123,141.91c-1.7-1-1.18-2.65.71-2.58,1.49,0,2.69,1.87.89,2.58.82.45,3.48-1.75,3.71-1,.15.48-1.37,1.2-1.69,1.33A4.22,4.22,0,0,1,1123,141.91Zm.3-.73c1,.55,1.94-.69.77-1.22C1123.22,139.57,1122.28,140.57,1123.33,141.18Z"/><path class="cls-18" d="M1126.84,139.51c-1.83-1,.05-3,1.54-2.13-1,.57-2.09.79-.54,1.84a1.76,1.76,0,0,0,2.15.13c.28-.22.2-.82.43-1,.59-.36,1.09.05.85.85C1130.8,140.86,1127.78,140.06,1126.84,139.51Z"/><path class="cls-18" d="M1128.8,136.64c-.35-.21,1.25-1,1.44-1.1-.41-.23-1.32-.43-1.54-.87-.53-1,1.33.08,1.65.16a3,3,0,0,0,2.14-.26s1.37-1.09,1.34-.3c0,.39-1.48,1.14-1.76,1.31.65.37,3.34.68,3.56,1.37.13.41-4.32-.93-4.79-.87S1129.35,137,1128.8,136.64Z"/><path class="cls-18" d="M1135.4,134.77c-1.69-1-1.18-2.65.71-2.59,1.49,0,2.69,1.88.89,2.59.83.44,3.49-1.75,3.71-1.05.15.47-1.37,1.2-1.69,1.32A4.26,4.26,0,0,1,1135.4,134.77Zm.3-.73c1,.55,1.94-.69.77-1.22C1135.6,132.42,1134.65,133.43,1135.7,134Z"/><path class="cls-18" d="M1137.68,131.51c-.35-.21,1.26-1,1.44-1.1-.41-.23-1.32-.43-1.54-.87-.53-1,1.33.08,1.65.16a3,3,0,0,0,2.14-.26c.05,0,1.37-1.09,1.34-.3,0,.39-1.48,1.15-1.76,1.31.66.38,3.34.69,3.56,1.37.13.41-4.32-.92-4.79-.86S1138.24,131.83,1137.68,131.51Z"/><path class="cls-18" d="M1143.32,129.08c-.41-.23-1.41-.87-.31-.92.31,0,1.26.88,1.6,1,1,.43,3.29.94,2.54-.77-.17-.38-2.76-1.7-2.74-1.76.49-1.12,3.29,1.18,3.54,1.55C1149.94,131.12,1144.49,129.76,1143.32,129.08Z"/><path class="cls-18" d="M1147,126.84c-1-.6,2.2,0,2.33,0-.71-.89-1-2.09.59-2.11,2,0,.2.6.19.64-.09.27-.65.07-.19.84.22.36,2.16.84,2.14,1.19C1152,128.33,1147.53,127.13,1147,126.84Z"/><path class="cls-18" d="M1097.8,170.22c-1,3.16-6.19,1.45-4.79-1,.57-1,2.19-.81,3.07-.57.42.11,3.46,1.26,3.52,1.69s-1.68-.12-1.8-.15C1097.75,170.4,1098.25,170.33,1097.8,170.22Zm-3.19,1.1c1.57.91,3-.86,1.24-1.89S1092.77,170.26,1094.61,171.32Z"/><path class="cls-18" d="M1099.14,169.55c-1.33-.77.35-3.11.5-3-.86-.49-1.8-.83-2.66-1.34.59-.74,5.92,2.09,6.84,2.62-.6.35-.65.15-1.26,0C1102.29,169.1,1100.41,170.28,1099.14,169.55Zm.48-.47c.75.44,2-.65,1.67-1.43C1100.68,166.08,1098.37,168.36,1099.62,169.08Z"/><path class="cls-18" d="M1099.14,164.12a1.14,1.14,0,0,1,.75.06c.65.46-1.68.47-.75-.06C1099.27,164.08,1099,164.19,1099.14,164.12Zm2.68,1.67c-1-.57-.8-.68.18-.57.44.05,3.61,1,3.61,1.52C1105.59,167.82,1102,165.91,1101.82,165.79Z"/><path class="cls-18" d="M1103.3,165c-2.1-1.21,2.47-3.49,3.52-1,.25.59-.17,1.35.23,1.77.25.27,3.34.58,3.16.86-.7,1.07-5.92-1.22-6.91-1.59C1102.82,164.71,1103.39,165,1103.3,165Zm.7-.32c.75.44,3,.73,1.86-.85C1105.07,162.71,1102.92,164,1104,164.66Z"/><path class="cls-18" d="M1104.37,161.09a1.17,1.17,0,0,1,.76.07c.64.46-1.68.47-.76-.07C1104.51,161.06,1104.23,161.17,1104.37,161.09Zm2.69,1.67c-1-.56-.8-.68.18-.56.43.05,3.61,1,3.6,1.52C1110.83,164.79,1107.27,162.89,1107.06,162.76Z"/><path class="cls-18" d="M1112.37,162.53c.75-2.37-1-1-2.14-.66-2.55.84-3.71-2.61-1.18-2.37.37.41-.88,1-.37,1.75.7,1,1.87-.39,2.53-.62,2.79-1,1.93,2.35,1.16,1.9C1112.39,162.46,1112.44,162.58,1112.37,162.53Z"/><path class="cls-18" d="M1112.54,160.23c-1.82-1,0-3,1.54-2.13-1,.57-2.08.79-.53,1.84a1.73,1.73,0,0,0,2.14.12c.28-.21.21-.81.43-.95.6-.36,1.09,0,.86.85C1116.5,161.58,1113.48,160.78,1112.54,160.23Z"/><path class="cls-18" d="M1113.25,156a1.23,1.23,0,0,1,.76.07c.65.46-1.68.47-.76-.07C1113.39,155.93,1113.11,156,1113.25,156Zm2.69,1.68c-1-.57-.8-.68.18-.57.43.05,3.61,1,3.6,1.52C1119.71,159.66,1116.15,157.76,1115.94,157.64Z"/><path class="cls-18" d="M1117.66,157c-.91-.53,1.76-.13,1.71-.12-.73-.45-.53-1.19,0-1.65,1.13-1,3.48.29,4.51.89-.73.62-6.82-2.12-2.44,1.41-.26.93-3.37-.38-3.78-.53C1117.53,156.9,1117.87,157.05,1117.66,157Z"/><path class="cls-18" d="M1130.31,157.13c2.53-1.46-3.39-4.06-4.7-3.2-.88.57-1.26,1.68-2.65,1.24a1.27,1.27,0,0,1-.7-2.21c1.41-1.84,5,.2,6.62.82.8.31,3.08,1,3,2.21s-2.7,1.65-2.72,1.84c0-.23,1-.65,1.11-.7C1130.59,157,1129.91,157.32,1130.31,157.13Zm-7.07-4.21c-1,.89-.31,2.54,1,1.68,1-.65,0-2.25-1-1.68C1123,153.18,1123.34,152.86,1123.24,152.92Z"/><path class="cls-18" d="M1130.07,150.31c-1.7-1-1.18-2.65.71-2.58,1.49.05,2.68,1.87.88,2.58.83.45,3.49-1.75,3.72-1.05.15.48-1.37,1.2-1.7,1.33A4.2,4.2,0,0,1,1130.07,150.31Zm.3-.73c1,.55,1.94-.69.77-1.22C1130.26,148,1129.32,149,1130.37,149.58Z"/><path class="cls-18" d="M1132.23,146.59c-2-1.15.18-.64,1.21-.21,1.42.6,2.82,1.27,4.19,2-.3.87-4.81-1.57-5.4-1.77C1132.09,146.51,1132.56,146.7,1132.23,146.59Z"/><path class="cls-18" d="M1132.83,144.66a1.14,1.14,0,0,1,.75.07c.65.46-1.68.47-.75-.07C1133,144.63,1132.69,144.74,1132.83,144.66Zm2.68,1.67c-1-.56-.79-.68.18-.56.44,0,3.61,1,3.61,1.52C1139.28,148.36,1135.73,146.46,1135.51,146.33Z"/><path class="cls-18" d="M1135.83,145.05c-.36-.21,1.25-1,1.43-1.1-.41-.23-1.32-.43-1.54-.87-.53-1.05,1.34.08,1.66.16a3,3,0,0,0,2.14-.26s1.37-1.09,1.33-.3c0,.39-1.48,1.14-1.76,1.31.66.37,3.34.68,3.56,1.37.13.41-4.32-.93-4.78-.87S1136.38,145.36,1135.83,145.05Z"/><path class="cls-18" d="M1144.38,143.13c.61-.35,1.72.85,1.78,1.36C1146.35,146.12,1143.73,143.51,1144.38,143.13Z"/><path class="cls-18" d="M1150.7,140.4c.75-2.37-1-1-2.14-.66-2.55.83-3.7-2.61-1.17-2.37.36.4-.88,1-.38,1.74.71,1,1.87-.39,2.54-.62,2.78-1,1.92,2.36,1.15,1.91C1150.73,140.32,1150.78,140.44,1150.7,140.4Z"/><path class="cls-18" d="M1151.2,138.11c-1.7-1-1.18-2.65.71-2.58,1.49.05,2.68,1.87.88,2.58.83.45,3.49-1.74,3.72-1.05.15.48-1.37,1.2-1.7,1.33A4.2,4.2,0,0,1,1151.2,138.11Zm.3-.73c1,.55,1.93-.68.76-1.21C1151.39,135.77,1150.45,136.78,1151.5,137.38Z"/><path class="cls-18" d="M1156.35,136.51c-1.32-.76.36-3.1.5-3-.86-.5-1.8-.83-2.65-1.34.59-.74,5.91,2.08,6.84,2.62-.6.35-.66.15-1.27,0C1159.5,136.07,1157.62,137.25,1156.35,136.51Zm.49-.46c.75.43,2-.66,1.66-1.43C1157.89,133.05,1155.58,135.33,1156.84,136.05Z"/><path class="cls-18" d="M1163.89,132.16c-1.33-.76.35-3.1.5-3-.86-.5-1.8-.83-2.66-1.35.59-.73,5.91,2.09,6.84,2.63-.6.34-.65.15-1.26,0C1167,131.72,1165.16,132.9,1163.89,132.16Zm.48-.46c.75.43,2-.66,1.67-1.43C1165.43,128.7,1163.12,131,1164.37,131.7Z"/><path class="cls-18" d="M1167.54,129.32c-2.28-1.31,1-3.73,2.87-2.4C1172.77,128.6,1169.37,130.38,1167.54,129.32Zm.7-.32c1.53.88,2.92-1.24,1.17-1.9C1168.24,126.66,1167.24,128.42,1168.24,129Z"/><path class="cls-18" d="M1104.31,177.65c-1.7-1-1.18-2.65.71-2.59,1.49.05,2.69,1.88.89,2.59.82.44,3.49-1.75,3.71-1.05.15.47-1.37,1.2-1.69,1.32A4.26,4.26,0,0,1,1104.31,177.65Zm.3-.73c1,.55,1.94-.69.77-1.22C1104.51,175.3,1103.56,176.31,1104.61,176.92Z"/><path class="cls-18" d="M1105.34,173a1.24,1.24,0,0,1,.76.06c.64.46-1.68.47-.76-.06C1105.47,173,1105.2,173.08,1105.34,173Zm2.69,1.67c-1-.56-.8-.68.18-.57.43.06,3.61,1.05,3.6,1.53C1111.79,176.7,1108.24,174.79,1108,174.67Z"/><path class="cls-18" d="M1109.21,173.7c-.4-.24-1.41-.87-.3-.92.31,0,1.26.88,1.6,1,1,.43,3.29.94,2.54-.77a20.11,20.11,0,0,0-2.74-1.76c.49-1.12,3.29,1.18,3.54,1.55C1115.84,175.73,1110.38,174.37,1109.21,173.7Z"/><path class="cls-18" d="M1117.14,172.25c.75-2.38-1.05-1-2.15-.67-2.54.84-3.7-2.6-1.17-2.37.37.41-.88,1-.38,1.75.71,1,1.88-.39,2.54-.62,2.79-1,1.93,2.35,1.16,1.91C1117.16,172.17,1117.21,172.29,1117.14,172.25Z"/><path class="cls-18" d="M1116.41,169.44c-.41-.24-.13-.36.11-.51a18.55,18.55,0,0,1,2.7.84c0-.63-1.07-.67-.92-1.32.19-.81,2.49-.39,3-.42-1.47-2.29,1.8-1.72,3.11-1.19.54.23,1.8.77.65,1s-5-2.57-2.17.92c-.57,1-2.57-.73-3.43-.23-.22.12,1.7,1.57,1.62,1.79C1120.74,171.25,1117,169.76,1116.41,169.44Z"/><path class="cls-18" d="M1124.68,166.53c-2.28-1.31,1-3.73,2.86-2.4C1129.91,165.81,1126.51,167.59,1124.68,166.53Zm.7-.32c1.53.88,2.92-1.24,1.16-1.9C1125.37,163.87,1124.37,165.63,1125.38,166.21Z"/><path class="cls-18" d="M1129,164.8c-1.32-.77.36-3.11.5-3-.86-.49-1.8-.83-2.65-1.34.59-.74,5.91,2.09,6.84,2.62-.6.35-.66.15-1.26,0C1132.1,164.36,1130.23,165.53,1129,164.8Zm.49-.46c.75.43,2-.66,1.66-1.44C1130.5,161.33,1128.18,163.61,1129.44,164.34Z"/><path class="cls-18" d="M1133.61,158.79c-.35-.21,1.26-1,1.44-1.1-.41-.23-1.32-.43-1.54-.87-.53-1,1.33.08,1.65.16a3,3,0,0,0,2.14-.26s1.37-1.09,1.34-.3c0,.39-1.48,1.15-1.76,1.31.66.38,3.34.69,3.56,1.37.13.41-4.32-.92-4.79-.86S1134.17,159.11,1133.61,158.79Z"/><path class="cls-18" d="M1140.21,156.92c-1.69-1-1.18-2.65.72-2.59,1.48,0,2.68,1.88.88,2.59.83.45,3.49-1.75,3.71-1,.16.48-1.37,1.2-1.69,1.32A4.22,4.22,0,0,1,1140.21,156.92Zm.3-.73c1,.55,1.94-.69.77-1.22C1140.41,154.57,1139.46,155.58,1140.51,156.19Z"/><path class="cls-18" d="M1143.12,154c-.41-.24-.13-.36.11-.51a18.55,18.55,0,0,1,2.7.84c0-.63-1.07-.67-.92-1.32.19-.81,2.49-.39,3-.42-1.47-2.3,1.8-1.72,3.11-1.19.54.23,1.8.77.65,1s-5-2.56-2.17.93c-.57,1-2.57-.73-3.43-.23-.22.12,1.7,1.57,1.62,1.79C1147.45,155.83,1143.67,154.34,1143.12,154Z"/><path class="cls-18" d="M1150.15,150.4c-2.09-1.21,2.48-3.5,3.52-1,.26.59-.17,1.34.23,1.77.25.26,3.34.58,3.16.85-.7,1.07-5.92-1.21-6.91-1.58C1149.67,150.12,1150.24,150.43,1150.15,150.4Zm.7-.33c.76.44,3,.73,1.86-.84C1151.92,148.12,1149.78,149.45,1150.85,150.07Z"/><path class="cls-18" d="M1154.88,149.1c-2.28-1.32,1-3.74,2.87-2.41C1160.11,148.38,1156.71,150.15,1154.88,149.1Zm.7-.32c1.53.88,2.92-1.24,1.16-1.9C1155.58,146.44,1154.57,148.19,1155.58,148.78Z"/><path class="cls-18" d="M1157.07,146c-1-.59,2.2.05,2.33.06-.72-.9-1-2.1.59-2.12,2,0,.2.6.19.65-.09.27-.65.07-.19.84.22.36,2.16.83,2.14,1.18C1162.08,147.47,1157.57,146.26,1157.07,146Z"/><path class="cls-18" d="M1162.21,140.16a1.17,1.17,0,0,1,.76.07c.65.46-1.68.47-.76-.07C1162.35,140.13,1162.07,140.24,1162.21,140.16Zm2.69,1.67c-1-.56-.8-.68.18-.56.43,0,3.61,1,3.6,1.52C1168.67,143.86,1165.11,142,1164.9,141.83Z"/><path class="cls-18" d="M1166.62,141.17c-.91-.53,1.76-.13,1.71-.12-.73-.45-.53-1.19,0-1.65,1.13-1,3.48.29,4.51.88-.73.63-6.82-2.12-2.44,1.41-.26.94-3.37-.37-3.78-.52C1166.49,141.09,1166.83,141.25,1166.62,141.17Z"/><path class="cls-18" d="M1171,138.94c-1.83-1.06,0-3,1.54-2.14-1,.57-2.09.79-.53,1.84a1.73,1.73,0,0,0,2.14.13c.28-.22.2-.82.43-1,.6-.36,1.09.05.85.85C1175,140.28,1172,139.48,1171,138.94Z"/><path class="cls-18" d="M1171.73,134.67a1.24,1.24,0,0,1,.76.06c.64.46-1.68.47-.76-.06C1171.86,134.64,1171.59,134.75,1171.73,134.67Zm2.69,1.67c-1-.56-.8-.68.18-.57.43,0,3.61,1,3.6,1.53C1178.19,138.37,1174.63,136.46,1174.42,136.34Z"/><path class="cls-18" d="M1177.6,136.71c-1.32-.76.36-3.11.5-3-.86-.5-1.8-.84-2.65-1.35.59-.74,5.91,2.09,6.84,2.63-.6.34-.66.14-1.26,0C1180.75,136.27,1178.88,137.44,1177.6,136.71Zm.49-.46c.75.43,2-.66,1.66-1.44C1179.15,133.24,1176.83,135.52,1178.09,136.25Z"/><path class="cls-18" d="M1177.6,131.28a1.24,1.24,0,0,1,.76.06c.64.46-1.68.47-.76-.06C1177.73,131.25,1177.46,131.36,1177.6,131.28Zm2.69,1.67c-1-.56-.8-.68.18-.57.43.05,3.61,1.05,3.6,1.53C1184.06,135,1180.5,133.07,1180.29,133Z"/><path class="cls-18" d="M1182.51,132.1s2-2,2.74-1.63C1185,131.11,1183.18,132.48,1182.51,132.1Z"/><path class="cls-18" d="M1116.13,184.66c-1.32-.76.36-3.1.51-3-.86-.5-1.81-.83-2.66-1.35.59-.74,5.91,2.09,6.84,2.63-.6.34-.65.15-1.26,0C1119.29,184.22,1117.41,185.4,1116.13,184.66Zm.49-.46c.75.43,2-.66,1.67-1.43C1117.68,181.2,1115.37,183.48,1116.62,184.2Z"/><path class="cls-18" d="M1118.26,180.94c-.4-.24-1.41-.87-.3-.92.31,0,1.26.88,1.6,1,1,.43,3.29.94,2.54-.77a20.11,20.11,0,0,0-2.74-1.76c.49-1.12,3.28,1.18,3.54,1.55C1124.89,183,1119.43,181.61,1118.26,180.94Z"/><path class="cls-18" d="M1122.59,179.05c-.91-.53,1.76-.13,1.72-.12-.73-.45-.53-1.19,0-1.65,1.13-1,3.48.29,4.5.89-.72.62-6.81-2.12-2.44,1.41-.26.93-3.36-.38-3.78-.53C1122.46,179,1122.81,179.13,1122.59,179.05Z"/><path class="cls-18" d="M1125.47,176c-.36-.2,1.25-1,1.43-1.09-.4-.23-1.31-.43-1.54-.88-.53-1,1.34.09,1.66.17a3.09,3.09,0,0,0,2.14-.26s1.37-1.09,1.34-.31c0,.39-1.49,1.15-1.76,1.31.65.38,3.34.69,3.56,1.38.13.41-4.32-.93-4.79-.87S1126,176.27,1125.47,176Z"/><path class="cls-18" d="M1134.51,171.56c-.41-.24-1.41-.87-.3-.92.31,0,1.25.88,1.59,1,1,.43,3.3.94,2.55-.77-.17-.38-2.77-1.71-2.74-1.76.49-1.12,3.28,1.18,3.53,1.55C1141.14,173.59,1135.68,172.23,1134.51,171.56Z"/><path class="cls-18" d="M1137.43,169.05c-.35-.21,1.26-1,1.44-1.1-.41-.23-1.32-.43-1.54-.87-.53-1.05,1.33.08,1.65.16a3.06,3.06,0,0,0,2.15-.26s1.37-1.09,1.33-.3c0,.39-1.48,1.15-1.76,1.31.66.38,3.34.68,3.56,1.37.13.41-4.32-.93-4.78-.87S1138,169.37,1137.43,169.05Z"/><path class="cls-18" d="M1145.48,163.87c-2-1.15.18-.64,1.2-.21,1.43.6,2.83,1.27,4.2,2-.3.87-4.81-1.57-5.4-1.77C1145.33,163.79,1145.81,164,1145.48,163.87Z"/><path class="cls-18" d="M1153.46,163c-1,3.16-6.2,1.45-4.79-1,.57-1,2.19-.81,3.06-.58.43.12,3.47,1.27,3.53,1.7s-1.69-.13-1.8-.15C1153.4,163.2,1153.91,163.12,1153.46,163Zm-3.19,1.1c1.56.9,3-.86,1.24-1.89S1148.43,163.05,1150.27,164.12Z"/><path class="cls-18" d="M1156.63,161.93c-1.78-.51-5.41-1-6.65-2.57-.79-1,.7-.25,1.17,0a12.86,12.86,0,0,0,4.36,1.55c-2.12-1.33-.34-2.7,1.61-2.09s1.66,3.36-.49,3.11C1156,161.76,1156.83,162,1156.63,161.93Zm-1-2.59c-.42.84.89,2.1,1.62,1.6,1.34-.92-.58-2.2-1.62-1.6C1155.62,159.43,1155.75,159.3,1155.67,159.34Z"/><path class="cls-18" d="M1158.92,159.23c-2.28-1.31,1-3.73,2.86-2.4C1164.14,158.51,1160.75,160.29,1158.92,159.23Zm.7-.32c1.53.88,2.91-1.24,1.16-1.9C1159.61,156.57,1158.61,158.33,1159.62,158.91Z"/><path class="cls-18" d="M1161.1,156.1c-1-.59,2.2.06,2.33.06-.71-.89-1-2.09.59-2.11,2,0,.21.6.19.64-.08.27-.65.07-.19.84.22.36,2.17.84,2.15,1.19C1166.12,157.6,1161.61,156.39,1161.1,156.1Z"/><path class="cls-18" d="M1165.94,154.53c-1.7-1-1.18-2.65.71-2.58,1.49.05,2.68,1.87.88,2.58.83.45,3.49-1.75,3.72-1.05.15.48-1.37,1.2-1.7,1.33A4.2,4.2,0,0,1,1165.94,154.53Zm.3-.73c1,.55,1.94-.69.77-1.22C1166.13,152.19,1165.19,153.2,1166.24,153.8Z"/><path class="cls-18" d="M1173.47,150.18c-1.69-1-1.18-2.65.72-2.58,1.48.05,2.68,1.87.88,2.58.83.45,3.49-1.75,3.71-1.05.16.48-1.37,1.2-1.69,1.33A4.23,4.23,0,0,1,1173.47,150.18Zm.3-.73c1,.55,1.94-.69.77-1.22C1173.67,147.84,1172.72,148.84,1173.77,149.45Z"/><path class="cls-18" d="M1175.75,146.92c-.35-.2,1.26-1,1.44-1.09-.41-.24-1.32-.43-1.54-.88-.53-1,1.33.08,1.65.17a3.12,3.12,0,0,0,2.15-.26s1.37-1.09,1.33-.31c0,.39-1.48,1.15-1.76,1.31.66.38,3.34.69,3.56,1.38.13.41-4.32-.93-4.78-.87S1176.31,147.24,1175.75,146.92Z"/><path class="cls-18" d="M1126.93,190.89c-1.32-.76.36-3.1.5-3-.86-.5-1.8-.83-2.65-1.34.59-.74,5.91,2.09,6.83,2.62-.59.35-.65.15-1.26,0C1130.08,190.45,1128.2,191.63,1126.93,190.89Zm.49-.46c.74.43,2-.65,1.66-1.43C1128.47,187.43,1126.16,189.71,1127.42,190.43Z"/><path class="cls-18" d="M1130.58,188.05c-2.27-1.31,1-3.73,2.87-2.4C1135.81,187.33,1132.41,189.11,1130.58,188.05Zm.71-.32c1.53.88,2.91-1.24,1.16-1.9C1131.28,185.39,1130.28,187.15,1131.29,187.73Z"/><path class="cls-18" d="M1131.86,184.2c-2-1.16.18-.64,1.21-.21q2.13.9,4.19,2c-.29.87-4.81-1.57-5.4-1.77C1131.72,184.11,1132.19,184.31,1131.86,184.2Z"/><path class="cls-18" d="M1136.12,184.86c-2.28-1.32,1-3.73,2.86-2.4C1141.34,184.14,1138,185.92,1136.12,184.86Zm.7-.32c1.53.88,2.91-1.24,1.16-1.9C1136.81,182.2,1135.81,184,1136.82,184.54Z"/><path class="cls-18" d="M1138.3,181.73c-1-.59,2.2.06,2.33.06-.71-.89-1-2.09.59-2.12,2,0,.21.6.19.65-.08.27-.65.07-.19.84.22.36,2.17.83,2.15,1.18C1143.32,183.23,1138.8,182,1138.3,181.73Z"/><path class="cls-18" d="M1143.14,180.16c-1.7-1-1.18-2.65.71-2.58,1.49,0,2.68,1.87.88,2.58.83.45,3.49-1.75,3.72-1,.15.48-1.37,1.2-1.7,1.33A4.2,4.2,0,0,1,1143.14,180.16Zm.3-.73c1,.55,1.94-.69.77-1.22C1143.33,177.82,1142.39,178.82,1143.44,179.43Z"/><path class="cls-18" d="M1149.45,175.29c-.41-.23-.13-.36.11-.51s2.31.79,2.71.84c0-.63-1.08-.67-.93-1.32.19-.8,2.49-.38,3-.42-1.48-2.29,1.8-1.72,3.11-1.18.54.22,1.79.77.65,1s-5.06-2.56-2.18.93c-.56,1-2.57-.74-3.43-.24-.21.12,1.7,1.57,1.62,1.8C1153.78,177.1,1150,175.61,1149.45,175.29Z"/><path class="cls-18" d="M1161.45,170.87c-1,3.16-6.19,1.45-4.79-1,.57-1,2.19-.81,3.07-.58.42.12,3.46,1.27,3.52,1.7s-1.68-.13-1.8-.15C1161.4,171.05,1161.9,171,1161.45,170.87Zm-3.19,1.1c1.57.9,3-.86,1.24-1.89S1156.42,170.91,1158.26,172Z"/><path class="cls-18" d="M1169.69,171.79c2.53-1.46-3.39-4.06-4.7-3.2-.88.57-1.26,1.68-2.65,1.24a1.28,1.28,0,0,1-.7-2.22c1.41-1.83,5,.21,6.62.83.8.31,3.08,1,3,2.2s-2.7,1.66-2.72,1.85c0-.23,1-.66,1.11-.7C1170,171.63,1169.29,172,1169.69,171.79Zm-7.07-4.21c-1,.89-.31,2.54,1,1.68,1-.65,0-2.25-1-1.68C1162.33,167.84,1162.72,167.52,1162.62,167.58Z"/><path class="cls-18" d="M1165.6,166.69c-.91-.53,1.76-.13,1.71-.13-.73-.44-.52-1.18,0-1.64,1.14-1,3.48.29,4.51.88-.72.63-6.82-2.12-2.44,1.41-.26.94-3.36-.37-3.78-.52C1165.47,166.61,1165.81,166.76,1165.6,166.69Z"/><path class="cls-18" d="M1174.61,163.27c-1,3.16-6.2,1.45-4.79-1,.56-1,2.19-.8,3.06-.57.43.11,3.46,1.26,3.53,1.69s-1.69-.12-1.8-.15C1174.55,163.45,1175.06,163.38,1174.61,163.27Zm-3.19,1.1c1.56.91,3-.86,1.24-1.88S1169.58,163.31,1171.42,164.37Z"/><path class="cls-18" d="M1182.61,158.65c-1,3.16-6.2,1.45-4.79-1,.56-1,2.19-.8,3.06-.57.43.11,3.46,1.26,3.53,1.69s-1.69-.12-1.8-.15C1182.55,158.83,1183.06,158.76,1182.61,158.65Zm-3.19,1.1c1.56.91,3-.86,1.24-1.88S1177.58,158.69,1179.42,159.75Z"/><path class="cls-18" d="M1181,155.86c-2-1.16.18-.64,1.2-.21q2.14.9,4.2,2c-.3.87-4.81-1.57-5.4-1.77C1180.81,155.77,1181.28,156,1181,155.86Z"/><path class="cls-18" d="M1181.55,153.93a1.14,1.14,0,0,1,.75.07c.65.45-1.68.46-.75-.07C1181.68,153.9,1181.41,154,1181.55,153.93Zm2.68,1.67c-1-.56-.79-.68.18-.56.44.05,3.61,1,3.61,1.52C1188,157.63,1184.45,155.72,1184.23,155.6Z"/><path class="cls-18" d="M1190.13,154.3c-1,.6-1.09,1.46-2.68,1.21-1.87-.3-2-1.77-.26-2.38a6.31,6.31,0,0,1,3.54.37c.26.08,3.34,1.56,3.09,1.66-.94.39-3.14-1.72-3.69-.86C1190,154.36,1190.2,154.19,1190.13,154.3Zm-3,.56c.73.43,2.49-.14,1.82-1.14S1185.89,154.16,1187.11,154.86Z"/><path class="cls-18" d="M1189.5,152.28c-.41-.24-1.41-.87-.3-.92.3,0,1.25.88,1.59,1,1,.42,3.29.94,2.54-.77a20.11,20.11,0,0,0-2.74-1.76c.5-1.12,3.29,1.18,3.54,1.55C1196.12,154.31,1190.67,153,1189.5,152.28Z"/><path class="cls-18" d="M1198.55,149.45c-1,3.16-6.19,1.45-4.79-1,.57-1,2.19-.81,3.07-.58.42.12,3.46,1.27,3.52,1.7s-1.68-.13-1.8-.15C1198.5,149.63,1199,149.55,1198.55,149.45Zm-3.19,1.1c1.57.9,3-.86,1.24-1.89S1193.52,149.49,1195.36,150.55Z"/><path class="cls-18" d="M1201.2,148.33c.5-.21.75-.11.77.29-.21.43-1.27.17-.77-.29C1201.43,148.2,1201.09,148.43,1201.2,148.33Z"/><path class="cls-18" d="M1201.08,143.2c2-.15,3.63,2.55,5.78,1.6,3.37-1.49-3-4-3.11-3.87.94-.87,7,2.17,4.19,4C1206.59,145.88,1201.22,145,1201.08,143.2Z"/><path class="cls-18" d="M1206.69,141.53c-.35-.21,1.26-1,1.44-1.1-.41-.23-1.32-.43-1.54-.88-.53-1,1.33.09,1.65.17a3,3,0,0,0,2.14-.26s1.37-1.09,1.34-.3c0,.38-1.48,1.14-1.76,1.3.66.38,3.34.69,3.56,1.38.13.41-4.32-.93-4.79-.87S1207.25,141.84,1206.69,141.53Z"/><path class="cls-18" d="M1136.7,196.35c-1.7-1-1.18-2.65.71-2.59,1.48.05,2.68,1.88.88,2.58.83.45,3.49-1.74,3.71-1,.16.47-1.36,1.2-1.69,1.32A4.23,4.23,0,0,1,1136.7,196.35Zm.3-.74c1,.55,1.93-.68.76-1.21C1136.89,194,1136,195,1137,195.61Z"/><path class="cls-18" d="M1140.38,193.71c-.91-.53,1.76-.13,1.72-.12-.74-.45-.53-1.19,0-1.65,1.14-1,3.48.29,4.51.89-.72.62-6.82-2.13-2.44,1.4-.26.94-3.36-.37-3.78-.52C1140.25,193.64,1140.6,193.79,1140.38,193.71Z"/><path class="cls-18" d="M1142,189.22a1.16,1.16,0,0,1,.76.07c.65.46-1.68.47-.76-.07C1142.14,189.19,1141.87,189.3,1142,189.22Zm2.69,1.68c-1-.57-.8-.69.18-.57.43,0,3.61,1,3.6,1.52C1148.46,192.92,1144.91,191,1144.69,190.9Z"/><path class="cls-18" d="M1145.63,190c-.41-.24-.13-.36.11-.51s2.31.78,2.7.83c0-.62-1.07-.66-.92-1.32s2.49-.38,3-.42c-1.47-2.29,1.8-1.72,3.11-1.18.54.22,1.8.77.65,1s-5-2.56-2.17.93c-.57,1-2.57-.73-3.43-.24-.22.13,1.69,1.58,1.62,1.8C1150,191.77,1146.18,190.28,1145.63,190Z"/><path class="cls-18" d="M1161,183.57c-1,3.16-6.2,1.45-4.79-1,.56-1,2.19-.8,3.06-.57.43.11,3.46,1.26,3.52,1.69s-1.68-.12-1.79-.15C1161,183.75,1161.49,183.68,1161,183.57Zm-3.19,1.1c1.56.91,3-.86,1.24-1.88S1156,183.61,1157.85,184.67Z"/><path class="cls-18" d="M1162.37,182.9c-1.32-.77.36-3.11.5-3-.86-.49-1.8-.83-2.65-1.34.59-.74,5.91,2.09,6.84,2.62-.6.35-.66.15-1.26,0C1165.52,182.45,1163.64,183.63,1162.37,182.9Zm.49-.47c.75.44,2-.65,1.66-1.43C1163.91,179.43,1161.6,181.71,1162.86,182.43Z"/><path class="cls-18" d="M1167.66,177.25c-.41-.24-.13-.36.11-.51s2.31.78,2.7.83c0-.62-1.07-.66-.92-1.32s2.49-.38,3-.41c-1.47-2.3,1.8-1.73,3.11-1.19.54.22,1.8.77.65,1s-5-2.56-2.17.93c-.57,1-2.58-.73-3.43-.24-.22.13,1.69,1.58,1.62,1.8C1172,179.06,1168.21,177.57,1167.66,177.25Z"/><path class="cls-18" d="M1172.27,171.75a1.17,1.17,0,0,1,.76.07c.65.45-1.68.46-.76-.07C1172.41,171.72,1172.13,171.83,1172.27,171.75Zm2.69,1.67c-1-.56-.8-.68.18-.56.43,0,3.61,1,3.6,1.52C1178.73,175.45,1175.17,173.54,1175,173.42Z"/><path class="cls-18" d="M1176.68,172.76c-.91-.53,1.76-.13,1.71-.13-.73-.44-.53-1.18,0-1.64,1.13-1,3.48.29,4.51.88-.73.63-6.82-2.12-2.44,1.41-.26.94-3.37-.37-3.78-.52C1176.55,172.68,1176.89,172.83,1176.68,172.76Z"/><path class="cls-18" d="M1178.3,168.27a1.17,1.17,0,0,1,.76.07c.64.45-1.68.46-.76-.07C1178.43,168.24,1178.16,168.35,1178.3,168.27Zm2.69,1.67c-1-.56-.8-.68.18-.56.43.05,3.61,1,3.6,1.52C1184.75,172,1181.2,170.06,1181,169.94Z"/><path class="cls-18" d="M1181.92,169c-.41-.24-.13-.36.11-.51s2.31.79,2.71.84c0-.63-1.08-.67-.93-1.32.19-.81,2.49-.39,3-.42-1.48-2.29,1.79-1.72,3.11-1.18.54.22,1.79.76.64,1s-5-2.57-2.17.93c-.56,1-2.57-.74-3.43-.24-.21.12,1.7,1.57,1.62,1.8C1186.25,170.82,1182.47,169.33,1181.92,169Z"/><path class="cls-18" d="M1191.19,162.79c.17.18,4.39.61,5.13.28-.22-.19-2.6-2.2-2.52-2.27.82-.69,4.88,2,2.89,3-1.28.61-4.36-.32-5.5-1C1191.11,162.71,1191.36,162.89,1191.19,162.79Z"/><path class="cls-18" d="M1197,161.53c-1.7-1-1.18-2.65.71-2.59,1.49.05,2.69,1.88.89,2.59.82.44,3.48-1.75,3.71-1.05.15.47-1.37,1.2-1.69,1.32A4.26,4.26,0,0,1,1197,161.53Zm.3-.73c1,.55,1.94-.69.77-1.22C1197.19,159.18,1196.25,160.19,1197.3,160.8Z"/><path class="cls-18" d="M1200.69,158.89c-.91-.52,1.76-.12,1.71-.12-.73-.45-.53-1.18,0-1.65,1.13-1,3.48.3,4.51.89-.73.62-6.82-2.12-2.44,1.41-.26.93-3.37-.38-3.78-.53C1200.56,158.82,1200.9,159,1200.69,158.89Z"/><path class="cls-18" d="M1202.31,154.41a1.24,1.24,0,0,1,.76.06c.64.46-1.68.47-.76-.06C1202.44,154.38,1202.17,154.49,1202.31,154.41Zm2.69,1.67c-1-.57-.8-.68.18-.57.43.05,3.61,1,3.6,1.53C1208.77,158.11,1205.21,156.2,1205,156.08Z"/><path class="cls-18" d="M1211.44,154.47c-1,3.16-6.2,1.45-4.79-1,.57-1,2.19-.81,3.06-.57.43.11,3.47,1.26,3.53,1.69s-1.69-.12-1.8-.15C1211.38,154.65,1211.89,154.58,1211.44,154.47Zm-3.19,1.1c1.56.91,3-.86,1.24-1.88S1206.41,154.51,1208.25,155.57Z"/><path class="cls-18" d="M1210.53,152.5c-.42-.24-.14-.36.1-.51s2.31.78,2.71.84c0-.63-1.08-.67-.92-1.33s2.48-.38,3-.41c-1.47-2.3,1.8-1.73,3.11-1.19.54.22,1.8.77.65,1s-5.05-2.56-2.18.93c-.56,1-2.57-.73-3.42-.24-.22.13,1.69,1.58,1.61,1.8C1214.85,154.31,1211.08,152.82,1210.53,152.5Z"/><path class="cls-18" d="M1220.19,149.22c.61-.35,1.72.85,1.78,1.36C1222.16,152.21,1219.55,149.59,1220.19,149.22Z"/><path class="cls-18" d="M1151.23,201.69c-1,.59-1.09,1.46-2.68,1.21-1.88-.3-2-1.77-.26-2.38a6.31,6.31,0,0,1,3.54.37c.26.08,3.34,1.55,3.09,1.65-.94.4-3.15-1.71-3.69-.85C1151.13,201.75,1151.3,201.58,1151.23,201.69Zm-3,.56c.73.42,2.49-.14,1.82-1.14S1147,201.55,1148.21,202.25Z"/><path class="cls-18" d="M1150.6,199.67c-.41-.24-1.41-.87-.3-.92.3,0,1.25.87,1.59,1,1,.43,3.29.94,2.54-.76a20.11,20.11,0,0,0-2.74-1.76c.49-1.13,3.29,1.18,3.54,1.55C1157.22,201.7,1151.77,200.34,1150.6,199.67Z"/><path class="cls-18" d="M1152.27,195.76a1.14,1.14,0,0,1,.75.07c.65.46-1.68.47-.75-.07C1152.4,195.73,1152.13,195.84,1152.27,195.76Zm2.68,1.67c-1-.56-.79-.68.18-.56.44,0,3.61,1,3.61,1.52C1158.72,199.46,1155.17,197.56,1155,197.43Z"/><path class="cls-18" d="M1160.26,197.2c.75-2.37-1-1-2.14-.66-2.54.84-3.7-2.6-1.17-2.37.36.41-.88,1.05-.38,1.75.71,1,1.87-.39,2.54-.62,2.78-1,1.93,2.35,1.15,1.9C1160.29,197.13,1160.34,197.25,1160.26,197.2Z"/><path class="cls-18" d="M1163.73,192.7c-.91-.53,1.76-.13,1.71-.12-.73-.45-.53-1.19,0-1.65,1.13-1,3.48.29,4.51.88-.73.63-6.82-2.12-2.45,1.41-.25.94-3.36-.37-3.77-.52C1163.6,192.62,1163.94,192.77,1163.73,192.7Z"/><path class="cls-18" d="M1169,190.8c-2.28-1.31,1-3.73,2.86-2.4C1174.23,190.08,1170.83,191.86,1169,190.8Zm.7-.32c1.53.88,2.91-1.24,1.16-1.9C1169.7,188.14,1168.7,189.9,1169.71,190.48Z"/><path class="cls-18" d="M1175.4,188.47c.75-2.38-1.05-1-2.14-.67-2.55.84-3.71-2.6-1.18-2.37.37.41-.87,1-.37,1.75.71,1,1.87-.39,2.54-.62,2.78-1,1.92,2.35,1.15,1.91C1175.43,188.39,1175.48,188.51,1175.4,188.47Z"/><path class="cls-18" d="M1174.05,185.3c-.36-.2,1.25-1,1.43-1.09-.41-.24-1.31-.43-1.54-.88-.53-1,1.34.08,1.66.17a3.1,3.1,0,0,0,2.14-.26s1.37-1.09,1.34-.31c0,.39-1.49,1.15-1.77,1.31.66.38,3.34.69,3.57,1.38.13.41-4.32-.93-4.79-.87S1174.6,185.62,1174.05,185.3Z"/><path class="cls-18" d="M1179.59,182.82c-1-.59,2.2.06,2.33.06-.71-.89-1-2.09.59-2.12,2,0,.21.61.19.65-.08.27-.65.07-.19.84.22.36,2.17.84,2.15,1.19C1184.61,184.32,1180.09,183.11,1179.59,182.82Z"/><path class="cls-18" d="M1183.46,180.69c-.41-.23-1.41-.86-.3-.91.3,0,1.25.87,1.59,1,1,.43,3.3.94,2.55-.77-.17-.38-2.77-1.7-2.74-1.76.49-1.12,3.28,1.19,3.53,1.56C1190.09,182.73,1184.63,181.37,1183.46,180.69Z"/><path class="cls-18" d="M1189.26,179.84c-1.33-.76.36-3.11.5-3-.86-.5-1.8-.84-2.66-1.35.59-.74,5.92,2.09,6.84,2.63-.6.34-.65.14-1.26,0C1192.41,179.4,1190.53,180.57,1189.26,179.84Zm.48-.46c.75.43,2-.66,1.67-1.44C1190.8,176.37,1188.49,178.65,1189.74,179.38Z"/><path class="cls-18" d="M1195.76,174.71c-1.69-1-1.17-2.65.72-2.59,1.48,0,2.68,1.88.88,2.59.83.44,3.49-1.75,3.71-1.05.16.47-1.37,1.2-1.69,1.32A4.26,4.26,0,0,1,1195.76,174.71Zm.3-.73c1,.54,1.94-.69.77-1.22C1196,172.36,1195,173.37,1196.06,174Z"/><path class="cls-18" d="M1198.3,171.58c-.38,0,0-.37.13-.44.26-.24,1.62-.1,2-.11-.14-.43-.39-.9,0-1.2.59-.51.38.38.57.48s.2.5.37.62a8.48,8.48,0,0,0,1.94,0,7.81,7.81,0,0,1,1.92.58,26.74,26.74,0,0,1-3.46-.12c.25.16,2.77,1.52,1.22,1.42-.71-.05-1.37-1-2.07-1.2A11.35,11.35,0,0,0,1198.3,171.58Z"/><path class="cls-18" d="M1203.54,170.22c-1.7-1-1.18-2.65.71-2.59,1.49.05,2.68,1.88.88,2.59.83.45,3.49-1.75,3.72-1.05.15.48-1.37,1.2-1.7,1.32A4.2,4.2,0,0,1,1203.54,170.22Zm.3-.73c1,.55,1.93-.69.76-1.22C1203.73,167.87,1202.79,168.88,1203.84,169.49Z"/><path class="cls-18" d="M1206.61,167.23c-1-.6,2.2.05,2.32.05-.71-.89-1-2.09.59-2.11,2,0,.21.6.2.65-.09.27-.65.06-.19.83.21.37,2.16.84,2.14,1.19C1211.62,168.72,1207.11,167.52,1206.61,167.23Z"/><path class="cls-18" d="M1211.12,165.64c-1.82-1,.05-3,1.54-2.13-1,.57-2.08.79-.53,1.83a1.72,1.72,0,0,0,2.14.13c.28-.21.21-.81.43-.95.6-.36,1.09,0,.86.84C1215.08,167,1212.06,166.19,1211.12,165.64Z"/><path class="cls-18" d="M1211.83,161.37a1.17,1.17,0,0,1,.76.07c.65.46-1.68.47-.76-.07C1212,161.34,1211.69,161.45,1211.83,161.37Zm2.69,1.67c-1-.56-.8-.68.18-.56.43.05,3.61,1,3.6,1.52C1218.29,165.07,1214.73,163.17,1214.52,163Z"/><path class="cls-18" d="M1214.83,161.76c-.36-.21,1.25-1,1.44-1.1-.41-.23-1.32-.43-1.55-.87-.52-1,1.34.08,1.66.16a3,3,0,0,0,2.14-.26s1.37-1.09,1.34-.3c0,.39-1.48,1.14-1.76,1.31.65.37,3.34.68,3.56,1.37.13.41-4.32-.93-4.79-.87S1215.38,162.07,1214.83,161.76Z"/><path class="cls-18" d="M1225.72,158.69c-1,3.16-6.2,1.45-4.79-1,.56-1,2.19-.8,3.06-.57.43.11,3.46,1.26,3.53,1.7s-1.69-.13-1.8-.16C1225.66,158.87,1226.17,158.8,1225.72,158.69Zm-3.19,1.11c1.56.9,3-.87,1.24-1.89S1220.69,158.73,1222.53,159.8Z"/><path class="cls-18" d="M1226.09,156.8s2-2,2.74-1.63C1228.61,155.81,1226.76,157.18,1226.09,156.8Z"/><path class="cls-18" d="M1156.44,207.93c-.36-.2,1.25-1,1.43-1.09-.4-.24-1.31-.43-1.54-.88-.52-1,1.34.08,1.66.17a3.09,3.09,0,0,0,2.14-.26s1.37-1.09,1.34-.31c0,.39-1.49,1.15-1.76,1.31.65.38,3.34.69,3.56,1.38.13.41-4.32-.93-4.79-.87S1157,208.25,1156.44,207.93Z"/><path class="cls-18" d="M1159.94,203.8a1.23,1.23,0,0,1,.76.06c.64.46-1.68.47-.76-.06C1160.07,203.77,1159.8,203.88,1159.94,203.8Zm2.69,1.67c-1-.56-.8-.68.18-.57.43,0,3.61,1,3.6,1.53C1166.4,207.5,1162.84,205.59,1162.63,205.47Z"/><path class="cls-18" d="M1165.34,205.38c-2.27-1.31,1-3.73,2.87-2.4C1170.57,204.66,1167.17,206.44,1165.34,205.38Zm.71-.32c1.52.88,2.91-1.24,1.16-1.9C1166,202.72,1165,204.48,1166.05,205.06Z"/><path class="cls-18" d="M1168.15,202.61c-.91-.53,1.76-.13,1.71-.12-.73-.45-.53-1.19,0-1.65,1.13-1,3.48.29,4.51.89-.73.62-6.82-2.13-2.44,1.4-.26.94-3.37-.37-3.78-.52C1168,202.54,1168.36,202.69,1168.15,202.61Z"/><path class="cls-18" d="M1175.31,197.86c-.41-.23-1.41-.86-.3-.91.3,0,1.25.87,1.59,1,1,.43,3.3.94,2.54-.76-.16-.39-2.76-1.71-2.73-1.77.49-1.12,3.28,1.19,3.53,1.56C1181.93,199.9,1176.48,198.54,1175.31,197.86Z"/><path class="cls-18" d="M1178.11,194.89c-2-1.15.18-.64,1.21-.21,1.42.6,2.82,1.27,4.19,2-.29.87-4.81-1.57-5.4-1.77C1178,194.81,1178.44,195,1178.11,194.89Z"/><path class="cls-18" d="M1179.84,193.89c-2-1.15.18-.64,1.21-.21,1.42.6,2.82,1.27,4.19,2-.29.87-4.81-1.57-5.4-1.77C1179.7,193.81,1180.17,194,1179.84,193.89Z"/><path class="cls-18" d="M1187.83,193c-1,3.17-6.2,1.45-4.79-1,.56-1,2.19-.81,3.06-.58.42.12,3.46,1.27,3.52,1.7s-1.68-.13-1.79-.16C1187.77,193.22,1188.28,193.14,1187.83,193Zm-3.19,1.11c1.56.9,3-.87,1.24-1.89S1182.79,193.07,1184.64,194.14Z"/><path class="cls-18" d="M1186.91,191.06c-.41-.24-.13-.36.11-.51a18.55,18.55,0,0,1,2.7.84c0-.63-1.07-.67-.92-1.32.19-.81,2.49-.39,3-.42-1.47-2.29,1.8-1.72,3.11-1.19.54.23,1.8.77.65,1s-5-2.57-2.17.92c-.56,1-2.57-.73-3.43-.23-.22.12,1.7,1.57,1.62,1.79C1191.24,192.87,1187.46,191.38,1186.91,191.06Z"/><path class="cls-18" d="M1194.3,187.82c-1.82-1.06.06-3,1.54-2.14-1,.57-2.08.79-.53,1.84a1.73,1.73,0,0,0,2.14.13c.29-.22.21-.82.43-1,.6-.35,1.1.05.86.85C1198.26,189.16,1195.24,188.36,1194.3,187.82Z"/><path class="cls-18" d="M1198.67,186.14c-2.28-1.32,1-3.74,2.87-2.4C1203.9,185.42,1200.5,187.19,1198.67,186.14Zm.7-.32c1.53.88,2.92-1.24,1.17-1.9C1199.37,183.48,1198.37,185.24,1199.37,185.82Z"/><path class="cls-18" d="M1203.36,180.31c-2-1.15.18-.64,1.2-.21,1.43.6,2.83,1.27,4.2,2-.3.87-4.81-1.57-5.4-1.77C1203.21,180.23,1203.69,180.42,1203.36,180.31Z"/><path class="cls-18" d="M1211.34,179.46c-1,3.16-6.2,1.45-4.79-1,.57-1,2.19-.81,3.07-.57.42.11,3.46,1.26,3.52,1.69s-1.69-.13-1.8-.15C1211.28,179.64,1211.79,179.56,1211.34,179.46Zm-3.19,1.1c1.56.9,3-.86,1.24-1.89S1206.31,179.5,1208.15,180.56Z"/><path class="cls-18" d="M1214.51,178.37c-1.78-.51-5.41-1-6.65-2.57-.79-1,.7-.25,1.17,0a12.65,12.65,0,0,0,4.36,1.55c-2.12-1.33-.34-2.7,1.61-2.09s1.66,3.36-.49,3.11C1213.91,178.2,1214.71,178.39,1214.51,178.37Zm-1-2.58c-.42.83.89,2.09,1.62,1.59,1.34-.92-.58-2.2-1.62-1.59C1213.5,175.88,1213.63,175.74,1213.55,175.79Z"/><path class="cls-18" d="M1216.8,175.67c-2.28-1.31,1-3.73,2.86-2.4C1222,175,1218.63,176.73,1216.8,175.67Zm.7-.32c1.53.89,2.91-1.24,1.16-1.9C1217.49,173,1216.49,174.77,1217.5,175.35Z"/><path class="cls-18" d="M1219,172.55c-1-.6,2.2,0,2.33,0-.71-.89-1-2.09.59-2.11,2,0,.21.6.19.64-.08.27-.65.07-.19.84.22.36,2.17.84,2.15,1.19C1224,174,1219.49,172.84,1219,172.55Z"/><path class="cls-18" d="M1220.72,168.71a1.24,1.24,0,0,1,.76.06c.64.46-1.68.47-.76-.06C1220.85,168.68,1220.58,168.79,1220.72,168.71Zm2.69,1.67c-1-.57-.8-.68.18-.57.43.05,3.61,1.05,3.6,1.53C1227.18,172.41,1223.62,170.5,1223.41,170.38Z"/><path class="cls-18" d="M1228.72,170.15c.75-2.37-1-1-2.15-.66-2.54.83-3.7-2.61-1.17-2.38.37.41-.88,1-.37,1.75.7,1,1.87-.39,2.53-.62,2.79-1,1.93,2.35,1.16,1.91C1228.74,170.07,1228.79,170.19,1228.72,170.15Z"/><path class="cls-18" d="M1232.18,165.64c-.91-.53,1.76-.13,1.71-.12-.73-.45-.52-1.19,0-1.65,1.13-1,3.48.29,4.51.89-.72.62-6.82-2.12-2.44,1.41-.26.93-3.37-.38-3.78-.53C1232.05,165.57,1232.39,165.72,1232.18,165.64Z"/><path class="cls-18" d="M1233.8,161.16a1.16,1.16,0,0,1,.76.06c.64.46-1.68.47-.76-.06C1233.93,161.12,1233.66,161.23,1233.8,161.16Zm2.69,1.67c-1-.57-.8-.68.18-.57.43.05,3.61,1,3.6,1.52C1240.26,164.86,1236.7,163,1236.49,162.83Z"/><path class="cls-18" d="M1241.8,162.6c.75-2.38-1-1-2.15-.67-2.54.84-3.7-2.6-1.17-2.37.37.41-.88,1.05-.37,1.75.7,1,1.87-.39,2.53-.62,2.79-1,1.93,2.35,1.16,1.91C1241.82,162.52,1241.87,162.64,1241.8,162.6Z"/><path class="cls-18" d="M1239.19,158a1.17,1.17,0,0,1,.76.07c.65.46-1.68.47-.76-.07C1239.33,158,1239.05,158.12,1239.19,158Zm2.69,1.67c-1-.56-.8-.68.18-.56.43,0,3.61,1,3.6,1.52C1245.65,161.74,1242.09,159.84,1241.88,159.71Z"/><path class="cls-18" d="M1168.11,214.48c-.4-.23-1.41-.86-.3-.91.31,0,1.26.87,1.59,1,1,.43,3.3.94,2.55-.76-.17-.39-2.77-1.71-2.74-1.77.49-1.12,3.28,1.19,3.54,1.56C1174.74,216.52,1169.28,215.16,1168.11,214.48Z"/><path class="cls-18" d="M1171,212c-.36-.21,1.25-1,1.43-1.09-.41-.24-1.32-.43-1.54-.88-.53-1,1.34.08,1.66.17a3.1,3.1,0,0,0,2.14-.26s1.37-1.1,1.33-.31c0,.39-1.48,1.15-1.76,1.31.66.38,3.34.69,3.56,1.38.13.41-4.32-.93-4.78-.87S1171.59,212.29,1171,212Z"/><path class="cls-18" d="M1185.33,206.94c-1,3.16-6.19,1.45-4.79-1,.57-1,2.19-.81,3.07-.57.42.11,3.46,1.26,3.52,1.69s-1.68-.12-1.8-.15C1185.27,207.12,1185.78,207.05,1185.33,206.94Zm-3.19,1.1c1.56.9,3-.86,1.24-1.89S1180.3,207,1182.14,208Z"/><path class="cls-18" d="M1183.67,204.14c-2-1.15.18-.64,1.21-.2,1.42.59,2.82,1.26,4.19,2-.29.87-4.81-1.57-5.4-1.77C1183.53,204.06,1184,204.26,1183.67,204.14Z"/><path class="cls-18" d="M1184.27,202.22a1.24,1.24,0,0,1,.76.06c.64.46-1.68.47-.76-.06C1184.4,202.19,1184.13,202.3,1184.27,202.22Zm2.69,1.67c-1-.57-.8-.68.18-.57.43.05,3.61,1,3.6,1.53C1190.72,205.92,1187.17,204,1187,203.89Z"/><path class="cls-18" d="M1192.85,202.59c-1,.59-1.09,1.46-2.68,1.2-1.87-.29-2.05-1.76-.25-2.37a6.29,6.29,0,0,1,3.53.37c.26.08,3.35,1.55,3.09,1.65-.93.4-3.14-1.71-3.69-.85C1192.75,202.65,1192.92,202.48,1192.85,202.59Zm-3,.56c.74.42,2.5-.14,1.83-1.14S1188.62,202.45,1189.83,203.15Z"/><path class="cls-18" d="M1192.22,200.57c-.41-.24-1.41-.87-.3-.92.3,0,1.25.87,1.59,1,1,.43,3.3.94,2.54-.76-.16-.39-2.76-1.71-2.73-1.76.49-1.13,3.28,1.18,3.53,1.55C1198.84,202.6,1193.39,201.24,1192.22,200.57Z"/><path class="cls-18" d="M1193.89,196.66a1.17,1.17,0,0,1,.76.07c.64.46-1.68.47-.76-.07C1194,196.63,1193.75,196.74,1193.89,196.66Zm2.69,1.67c-1-.56-.8-.68.18-.56.43,0,3.61,1,3.6,1.52C1200.35,200.36,1196.79,198.46,1196.58,198.33Z"/><path class="cls-18" d="M1198.06,197.53c-2.1-1.21,2.47-3.5,3.51-1,.26.59-.17,1.35.24,1.77.24.26,3.33.58,3.15.86-.7,1.07-5.92-1.22-6.9-1.59C1197.57,197.25,1198.14,197.56,1198.06,197.53Zm.69-.32c.76.43,3,.72,1.86-.85C1199.82,195.25,1197.68,196.59,1198.75,197.21Z"/><path class="cls-18" d="M1205.63,193.94c-1.69-1-1.18-2.65.72-2.59,1.48.05,2.68,1.88.88,2.59.83.44,3.49-1.75,3.71-1.05.16.48-1.37,1.2-1.69,1.32A4.22,4.22,0,0,1,1205.63,193.94Zm.3-.73c1,.55,1.94-.69.77-1.22C1205.83,191.59,1204.88,192.6,1205.93,193.21Z"/><path class="cls-18" d="M1208.17,190.81c-.38,0,0-.37.13-.44.26-.23,1.62-.09,2-.11-.14-.43-.39-.9,0-1.2.59-.51.38.38.57.48s.2.5.37.62a8.39,8.39,0,0,0,1.93,0,7.92,7.92,0,0,1,1.93.58,28.64,28.64,0,0,1-3.46-.11c.25.15,2.77,1.51,1.22,1.41-.71,0-1.37-1-2.08-1.2A11.26,11.26,0,0,0,1208.17,190.81Z"/><path class="cls-18" d="M1216.81,187.48c-1.69-1-1.18-2.65.72-2.58,1.48,0,2.68,1.87.88,2.58.83.45,3.49-1.74,3.71-1,.16.48-1.37,1.2-1.69,1.33A4.23,4.23,0,0,1,1216.81,187.48Zm.3-.73c1,.55,1.94-.68.77-1.22C1217,185.14,1216.06,186.15,1217.11,186.75Z"/><path class="cls-18" d="M1225.23,183.91c-1,3.16-6.2,1.44-4.79-1,.56-1,2.19-.81,3.06-.58.43.12,3.46,1.27,3.52,1.7s-1.68-.13-1.79-.15C1225.17,184.09,1225.68,184,1225.23,183.91ZM1222,185c1.56.9,3-.86,1.24-1.89S1220.19,183.94,1222,185Z"/><path class="cls-18" d="M1228.62,180.47c-1.82-1.06.05-3,1.54-2.14-1,.57-2.08.8-.53,1.84a1.73,1.73,0,0,0,2.14.13c.28-.22.21-.82.43-1,.6-.36,1.09,0,.86.84C1232.58,181.81,1229.56,181,1228.62,180.47Z"/><path class="cls-18" d="M1233,178.79c-2.28-1.32,1-3.74,2.86-2.4C1238.22,178.07,1234.82,179.84,1233,178.79Zm.7-.32c1.53.88,2.92-1.24,1.16-1.9C1233.68,176.13,1232.68,177.89,1233.69,178.47Z"/><path class="cls-18" d="M1235,175.76c-.41-.24-.13-.36.11-.51s2.31.78,2.71.83c0-.63-1.08-.66-.93-1.32s2.49-.38,3-.42c-1.48-2.29,1.79-1.72,3.11-1.18.54.22,1.79.77.64,1s-5.05-2.56-2.17.93c-.56,1-2.57-.73-3.43-.24-.21.13,1.7,1.57,1.62,1.8C1239.34,177.56,1235.56,176.07,1235,175.76Z"/><path class="cls-18" d="M1242.79,172.08s2-2,2.74-1.62C1245.31,171.1,1243.46,172.47,1242.79,172.08Z"/><path class="cls-18" d="M1178.66,220.76c-.42-.24-.14-.36.1-.51s2.31.78,2.71.84c0-.63-1.08-.67-.92-1.33s2.48-.38,3-.41c-1.48-2.3,1.8-1.73,3.11-1.19.54.22,1.8.77.65,1s-5.06-2.56-2.18.93c-.56,1-2.57-.73-3.43-.24-.21.13,1.7,1.58,1.62,1.8C1183,222.57,1179.21,221.08,1178.66,220.76Z"/><path class="cls-18" d="M1186.93,217.85c-2.28-1.32,1-3.74,2.86-2.4C1192.15,217.13,1188.75,218.9,1186.93,217.85Zm.7-.32c1.53.88,2.91-1.24,1.16-1.9C1187.62,215.19,1186.62,217,1187.63,217.53Z"/><path class="cls-18" d="M1191.2,216.11c-1.33-.76.36-3.1.5-3-.86-.5-1.8-.83-2.66-1.34.59-.74,5.92,2.09,6.84,2.62-.6.35-.65.15-1.26,0C1194.35,215.67,1192.47,216.85,1191.2,216.11Zm.48-.46c.75.43,2-.66,1.67-1.43C1192.74,212.65,1190.43,214.93,1191.68,215.65Z"/><path class="cls-18" d="M1194.85,213.27c-2.27-1.31,1-3.73,2.87-2.4C1200.08,212.55,1196.68,214.33,1194.85,213.27Zm.71-.32c1.52.88,2.91-1.24,1.16-1.9C1195.55,210.61,1194.55,212.37,1195.56,213Z"/><path class="cls-18" d="M1201.19,208.77c-1.83-1.05,0-3,1.53-2.13-1,.57-2.08.79-.53,1.84a1.75,1.75,0,0,0,2.15.12c.28-.21.2-.81.43-.95.59-.36,1.09,0,.85.85C1205.14,210.12,1202.13,209.32,1201.19,208.77Z"/><path class="cls-18" d="M1205.55,207.09c-2.27-1.31,1-3.73,2.87-2.4C1210.78,206.38,1207.38,208.15,1205.55,207.09Zm.71-.32c1.52.89,2.91-1.23,1.16-1.9C1206.25,204.43,1205.25,206.19,1206.26,206.77Z"/><path class="cls-18" d="M1208.36,204.32c-.91-.52,1.76-.12,1.71-.12-.73-.44-.53-1.18,0-1.65,1.13-1,3.48.3,4.51.89-.73.62-6.82-2.12-2.44,1.41-.26.94-3.37-.38-3.78-.53C1208.23,204.25,1208.57,204.4,1208.36,204.32Z"/><path class="cls-18" d="M1216.23,202.29c.75-2.38-1-1-2.14-.66-2.55.83-3.71-2.61-1.18-2.38.37.41-.87,1.05-.37,1.75.71,1,1.87-.39,2.53-.62,2.79-1,1.93,2.35,1.16,1.91C1216.26,202.21,1216.31,202.33,1216.23,202.29Z"/><path class="cls-18" d="M1216.72,200c-1.69-1-1.18-2.65.72-2.58,1.48.05,2.68,1.87.88,2.58.83.45,3.49-1.75,3.71-1.05.16.48-1.37,1.2-1.69,1.33A4.23,4.23,0,0,1,1216.72,200Zm.3-.73c1,.55,1.94-.69.77-1.22C1216.92,197.66,1216,198.66,1217,199.27Z"/><path class="cls-18" d="M1224.59,196.73c-1,.59-1.09,1.46-2.68,1.21-1.88-.3-2.05-1.77-.26-2.38a6.32,6.32,0,0,1,3.54.37c.26.08,3.34,1.55,3.08,1.65-.93.4-3.14-1.71-3.68-.85C1224.49,196.79,1224.66,196.62,1224.59,196.73Zm-3,.56c.73.42,2.49-.14,1.82-1.14S1220.35,196.59,1221.57,197.29Z"/><path class="cls-18" d="M1224,194.71c-.41-.24-1.41-.87-.31-.92.31,0,1.26.88,1.6,1,1,.43,3.29.94,2.54-.76a20.11,20.11,0,0,0-2.74-1.76c.49-1.13,3.29,1.18,3.54,1.55C1230.58,196.74,1225.13,195.38,1224,194.71Z"/><path class="cls-18" d="M1233,191.88c-1,3.16-6.19,1.44-4.79-1,.57-1,2.19-.81,3.07-.58.42.12,3.46,1.27,3.52,1.7s-1.68-.13-1.8-.15C1233,192.06,1233.46,192,1233,191.88Zm-3.19,1.1c1.56.9,3-.86,1.24-1.89S1228,191.91,1229.82,193Z"/><path class="cls-18" d="M1231.47,189.54c-.35-.2,1.26-1,1.44-1.09-.41-.24-1.32-.43-1.54-.88-.53-1,1.33.08,1.65.17a3.09,3.09,0,0,0,2.14-.26s1.37-1.09,1.34-.31c0,.39-1.48,1.15-1.76,1.31.65.38,3.34.69,3.56,1.38.13.41-4.32-.93-4.79-.87S1232,189.86,1231.47,189.54Z"/><path class="cls-19" d="M1249.49,181.18l-7.21-6.9s-7.1,12.18-6.35,13S1249.49,181.18,1249.49,181.18Z"/><path class="cls-20" d="M1279.78,205.68l-35.06-16.54-.42-.16a54.72,54.72,0,0,0-8-2.5h0c-.55-.12-.8.05-.6.67a2.89,2.89,0,0,0,1.31,1.57h0s5.3,3.58,8.67,5.37a5.12,5.12,0,0,0,.58.34h0l35.22,16.72Z"/><path class="cls-21" d="M1255.69,195.38,1240,188l-.19-.08a25.87,25.87,0,0,0-3.57-1.12h0c-.24-.06,0,.73.32,1h0s2.37,1.61,3.89,2.42l.25.15h0l15.79,7.51Z"/><path class="cls-22" d="M1317.58,109.45c.59.66-3,4.87-8.12,9.41s-9.66,7.68-10.25,7,3-4.87,8.12-9.41S1317,108.79,1317.58,109.45Z"/><path class="cls-23" d="M1312.55,110.42l-69.61,63.13a3.71,3.71,0,0,0-1,1.6l-.52,1.57a.78.78,0,0,0,.92,1l2.11-.51,70.48-64.07Z"/><path class="cls-24" d="M1314.89,113.14l-70.48,64.07-.36,1.81a.76.76,0,0,0,.84.91l2.14-.23,69.82-63.36Z"/><path class="cls-25" d="M1316.85,116.34l2.29,1.7L1249.83,181a1.78,1.78,0,0,1-1.57.43l-.88-.18a.62.62,0,0,1-.58-.82l.23-.68Z"/><path class="cls-26" d="M1325,112.93l-7-7.65-5.43,5h0l0,0c-1.23,1.13-.66,3.75,1.27,5.86s4.49,2.91,5.72,1.78l0,0h0Z"/><path class="cls-27" d="M1325,112.94c-1.23,1.12-3.79.32-5.72-1.79s-2.5-4.73-1.27-5.85,3.79-.32,5.72,1.79S1326.18,111.82,1325,112.94Z"/><path class="cls-28" d="M1319.43,111.06c-1.93-2.11-2.5-4.73-1.27-5.85l.09-.07a1.77,1.77,0,0,0-.43.28c-1.23,1.13-.66,3.75,1.27,5.86s4.37,2.87,5.63,1.85C1323.39,113.79,1321.15,113,1319.43,111.06Z"/><path class="cls-29" d="M1328.24,109.53l-6.52-7.13-3.27,3h0l0,0c-1.15,1-.62,3.49,1.18,5.46s4.19,2.72,5.34,1.67l0,0h0Z"/><path class="cls-30" d="M1328.23,109.54c-1.15,1-3.54.31-5.34-1.67s-2.33-4.41-1.18-5.46,3.54-.3,5.34,1.67S1329.38,108.49,1328.23,109.54Z"/><path class="cls-31" d="M1323.05,107.74c-1.64-1.8-2.22-4-1.44-5.15a.24.24,0,0,0-.08.06c-1.15,1-.62,3.49,1.18,5.46s4.19,2.72,5.34,1.67a1.53,1.53,0,0,0,.26-.31C1327.14,110.42,1324.81,109.67,1323.05,107.74Z"/><path class="cls-32" d="M1237.21,183.62a7.87,7.87,0,0,0,2.2,2.65c-1.82.79-3.24,1.27-3.48,1S1236.29,185.51,1237.21,183.62Z"/><path class="cls-33" d="M1286.55,234.37c10.8,5.08,15.32,2.11,22.23-1.88s9.8-7.64,1.71-11.58c-7.9-3.84-15.34-.91-22.26,3.08S1280.68,231.6,1286.55,234.37Z"/><path class="cls-34" d="M1310.7,176.6c2.36-6.12,2.08-15.72,2.22-18.41l-3.6-.55-9.92-1.49s.88,16,1.68,21.39,1.62,10.37,2,14.4,1.28,8.55,2,15.88-.74,10.56-2,12.58-5.09-1.07-5.26.27c-.37,3.06,2.47,3.8,5.79,3.47h0a21,21,0,0,0,3.37-.64,12.31,12.31,0,0,0,2.11-.77l.06,0c.21-.1.4-.21.57-.31,1.44-.89,1.86-1.92,1.72-2.84a2.71,2.71,0,0,0-.28-.83,3.69,3.69,0,0,1-.35-.93c-.42-1.65-.4-4.55.14-9.52,0-.4.09-.82.14-1.26a99.9,99.9,0,0,0,.88-11.21,34.84,34.84,0,0,0-.44-5.87,13,13,0,0,0-.29-1.28c-.16-.6-.37-1.23-.57-1.88,0-.13-.08-.26-.11-.39A13.94,13.94,0,0,1,1310.7,176.6Z"/><path class="cls-35" d="M1311.62,218.63s1.63,1.83,1.43,3.33-1.39,3.35-1.43,4.74.05,2.46,0,2.52a8.1,8.1,0,0,1-1,.11l-.42-.33V224s-2.64-.29-4.06.75-5.42,1.83-7.12,1.1-2.89-5.83-2.72-6.6,4.28,1.39,5,1.68a4.66,4.66,0,0,0,.9.33s-2.12-.6-2.63.18a2,2,0,0,0,1.66,2.73c1.68.29,3.77-2.07,5.54-2.69S1311.16,219.78,1311.62,218.63Z"/><path class="cls-36" d="M1304.57,165.79a1.21,1.21,0,0,0,0-.19,2.68,2.68,0,0,0-.1-.65l0-.09a2.78,2.78,0,0,0-.21-.5l-.1-.17c-.09-.14-.19-.27-.29-.4l-.11-.12a3.54,3.54,0,0,0-.49-.45l-.11-.07a3.45,3.45,0,0,0-.49-.32l-.17-.1a6.11,6.11,0,0,0-.58-.27l-.11-.05c-.24-.09-.5-.18-.77-.26l-.12,0c-.23-.07-.47-.12-.72-.17l-.16,0a11.78,11.78,0,0,0-1.81-.22h-.06c-.3,0-.61,0-.91,0h-.06c-.4,0-.81,0-1.21.07h0c-.23,0-.47.05-.7.09h0c-2.71.41-5,1.56-5.2,3.29a103.9,103.9,0,0,0,0,16.55,73,73,0,0,0,1.75,12.25c.94,4.37,4.3,24.22,4.44,27.25s-2.76,5.52-4,6.32-1.55-.4-3.23.61c-1.23.74.73,3.48,3.24,4h0a2,2,0,0,0,.34,0l.22,0-.13,0h.56l.25,0h0l.15,0,.25-.06.3-.09h-.06l.07,0h0l.16-.05.2-.1.14-.06,0,0a3.79,3.79,0,0,0,.34-.18c3.2-2.11,7.16-3.11,7.81-4.21a.47.47,0,0,0,.06-.09,2,2,0,0,0,.08-.33,5.72,5.72,0,0,0-.67-3.09c-.19-.45-.4-.92-.62-1.39-.47-1-.5-5-.42-9.5,0-.26,0-.53,0-.79,0-.53,0-1.07,0-1.6,0-.27,0-.53,0-.8l0-1.58c.06-2.35.12-4.56.12-6.25,0-6-1.73-10.45-2.4-13.07a4.92,4.92,0,0,1-.16-1,7.87,7.87,0,0,1,0-1.28,39.49,39.49,0,0,1,2-7.8c.06-.21.13-.42.2-.64l0-.13.38-1.31q.29-1,.57-2c.7-2.51,1.4-5.06,2-6.79l.18-.52a5.35,5.35,0,0,0,.22-.8l0-.22A3.48,3.48,0,0,0,1304.57,165.79Z"/><path class="cls-37" d="M1308.34,145.39l-17.25.71s-1.07,12.38-1.48,17-.43,19.55-.43,19.55,4.87,2.52,9,1.72,13.75-3,13.75-3,.34-4.59.58-8.81,1.15-13.7-.26-17.81S1308.34,145.39,1308.34,145.39Z"/><path class="cls-38" d="M1308.34,145.39l-17.25.71s-1.07,12.38-1.48,17-.43,19.55-.43,19.55,4.87,2.52,9,1.72,13.75-3,13.75-3,.34-4.59.58-8.81,1.15-13.7-.26-17.81S1308.34,145.39,1308.34,145.39Z"/><path class="cls-39" d="M1302.35,223.81s1.91,1.78,1.48,3.79-1.57,2.16-1.57,3.61V235l-.87.34-1-.36V229.2a14.82,14.82,0,0,0-4.5,2.26,6.58,6.58,0,0,1-6.51,1c-1.57-.81-4.51-4.89-3.74-5.7s6.41.85,6.41.85-2.13.23-2.47,1.3,1.54,2.46,3,1.81,3.09-2.68,6-3.85S1302.17,224.24,1302.35,223.81Z"/><path class="cls-40" d="M1283.62,142.23l-3.27-1.53a9.32,9.32,0,0,0-2.72-1.66c-1-.23-1.78-1-1.75-1.3s.15-.41.15-.41-1.61-1.06-2.32.09a1.3,1.3,0,0,0-.15,1s-.53.25-.61.68a1.21,1.21,0,0,0,.32,1l.22.21a.88.88,0,0,0-.07.76,1.47,1.47,0,0,0,.64.78,1.09,1.09,0,0,0,.34.84,13.16,13.16,0,0,0,3.1,1.64c.71.25,4.78,1.6,4.78,1.6Z"/><path class="cls-41" d="M1280.4,141.54a8,8,0,0,0-.6-3c-.56-1-1.24-2.12-1.45-2.51s-.78-.9-1.2-.53-.25.42.11,1.45,0,1.62.38,2.47S1280.4,141.54,1280.4,141.54Z"/><path class="cls-42" d="M1289.61,163.12c.37-4.21,1.29-14.81,1.46-16.72l3.63.64s.33,13.35.44,19.42c.09,4.78-.51,14.14-.77,17.9a19.73,19.73,0,0,1-5.19-1.69S1289.21,167.77,1289.61,163.12Z"/><path class="cls-43" d="M1311.51,116.58c1.35,3,1.92,15.36,1,18.43-1.27,4.3-19.27.12-19.27.12l.68-1.52Z"/><path class="cls-44" d="M1294.13,108.84a2.18,2.18,0,1,1,.37-3.06A2.18,2.18,0,0,1,1294.13,108.84Zm-2.38-3a1.69,1.69,0,1,0,2.37.29A1.7,1.7,0,0,0,1291.75,105.79Z"/><path class="cls-45" d="M1297.55,119.46c-1.75,1.48-7.33,5.65-8.34,8.74s-.08,4.56.47,6.93c.61,2.64,1.68,4.38,1.21,9.36s-1.6,18.6-1.8,20.21,1.53,2.26,3.15,2.53,10.43.6,15.34-1.28,6.1-2.63,6.1-3.77a27.71,27.71,0,0,0-2.44-11.3c-2.37-4.9-3.26-9.62-3.06-12.25s4.44-13.72,4.24-17.89-2-7.88-5-6.93S1297.55,119.46,1297.55,119.46Z"/><path class="cls-46" d="M1299.48,167.36a12.56,12.56,0,0,1-4.34-8.46c-.22-5.29.77-10.26,2-10.42s2.2-2.21,2.2-3.75c0-7.19,2.15-19.86.39-21.68-.81-.83-2.88-1.24-5-1.23,1.18-1,2.26-1.85,2.86-2.36,0,0,6.93-4.71,9.89-5.65s4.78,2.75,5,6.93-4,15.27-4.24,17.89.69,7.35,3.06,12.25a27.71,27.71,0,0,1,2.44,11.3c0,1.14-1.19,1.89-6.1,3.77-3.74,1.43-9.73,1.58-13.1,1.45C1295.83,167.45,1297.6,167.46,1299.48,167.36Z"/><path class="cls-47" d="M1301.37,95.82c-3.88-.35-8.48,2-8.76,6.69s1.4,9.52,2.08,10.31c1,1.16,3.42.59,4.24,1.57s1.62,3.23,1.2,4.1,4.85.19,4.85.19l3.15-2.69s-2-2.7-1.47-4.07,4.12-5.71,2-11.23C1306.92,96.18,1302.54,95.92,1301.37,95.82Z"/><path class="cls-48" d="M1307.51,114.61a6.46,6.46,0,0,1-3.5,1.58c-2.39.41-3.63.07-4.44.64a11.66,11.66,0,0,0-2,2.26,7.07,7.07,0,0,1,3.23-1.35c1.68-.13,4.88-.17,6-.94s.91-1.28.91-1.48A2.83,2.83,0,0,0,1307.51,114.61Z"/><path class="cls-42" d="M1307.16,114.06s2.08,1.83,1.83,3.51-2,3.23-5,3-4.7-.58-6.14.06-3.91,1.85-3.91,1.85,2.65-4.3,4.9-4.67,5.17-.09,6.51-.76,2.18-.89,2.35-1.73A1.21,1.21,0,0,0,1307.16,114.06Z"/><path class="cls-49" d="M1301.69,128.55c0,3.5-1.34,14.73-1.61,17.73s-2.26,5.41-4.38,5-9.38-3.16-11.23-3.77-5-1.41-5-1.41a7.25,7.25,0,0,1,.37-3.4,12.11,12.11,0,0,1,1.55-2.25s2.4.73,5.1,1.44c2.38.64,7.31,1.72,7.31,1.72a93,93,0,0,0-.57-10.7c-.57-3.4-1.49-7.28.47-9.18C1296,121.48,1301.66,122.39,1301.69,128.55Z"/><path class="cls-50" d="M1283.81,145.43c1.85.6,9.11,3.36,11.23,3.76s4.11-2,4.37-5,1.64-14.23,1.62-17.73a8.88,8.88,0,0,0-.09-1.2,7.15,7.15,0,0,1,.75,3.3c0,3.5-1.34,14.73-1.61,17.73s-2.26,5.41-4.38,5-9.38-3.16-11.23-3.77-5-1.41-5-1.41a10.09,10.09,0,0,1,0-1.93C1280.44,144.45,1282.47,145,1283.81,145.43Z"/><path class="cls-51" d="M1309.84,103.38a12.78,12.78,0,0,0-.17-1.67,14.81,14.81,0,0,0-.67-2.59,6.47,6.47,0,0,0-.38-.84v0a6.07,6.07,0,0,0-.47-.73h0c-2.39-3.24-7.58-3.61-11.11-2.09-5.31,2.29-6.86,7.76-4.42,7.07a4.69,4.69,0,0,1,3.42.53,3.34,3.34,0,0,1,.37.38c.62.77,1.07,2,1.62,2.87l0,0,.16.21.06.07a1.07,1.07,0,0,0,.14.16l.07.08.14.11.09.06.15.08.09,0,.17,0h.08a.9.9,0,0,0,.28,0c.94-.21,1.31.37,1.42,1.3a5.58,5.58,0,0,1,0,.73c0,.46,0,1-.08,1.46-.19,2,1.61,2.85,3.45,2.88a4.55,4.55,0,0,0,3.4-1.17,1.29,1.29,0,0,0,.33-.84c0-1.9,1.85-4.28,1.79-8.09Z"/><path class="cls-52" d="M1311.17,110.79a4.25,4.25,0,0,0,.37-.47h0c.12-.18.24-.36.35-.55l.06-.1.27-.52,0-.07c.09-.21.18-.42.25-.63l0,0a6.32,6.32,0,0,0,.18-.62l0-.07a7.89,7.89,0,0,0,.23-1.36v0a7,7,0,0,0,0-1.37h0a4.36,4.36,0,0,0-5-4.25h0a2.76,2.76,0,0,0-.7.24l-.11.06a3.36,3.36,0,0,0-1.08,1l-.08.11a6.88,6.88,0,0,0-.75,1.4l-.06.16a12.16,12.16,0,0,0-.49,1.62,1.46,1.46,0,0,0,0,.2c-.06.27-.12.53-.17.8h0c-.36,1.83-.68,3.54-.16,4.71,0,0,0,0,0,.08a2.06,2.06,0,0,0,.44.62,3.74,3.74,0,0,0,2.62.84h0a4.93,4.93,0,0,0,.67,0l.17,0a3.84,3.84,0,0,0,.51-.1l.12,0,.57-.21.13-.07a4.16,4.16,0,0,0,.42-.23l.13-.08a4.29,4.29,0,0,0,.48-.36l.07-.06a4.54,4.54,0,0,0,.38-.38Z"/><path class="cls-53" d="M1282.66,137c0,1,.53,1.94,1,2.07s.36-.23,0-.91c.44,1,1.37.72.66-.59.75,1.19,1.15.47.93-.71.31.4.7-.1.78-.28.25-.54-.27-1.42.25-2.25a6.74,6.74,0,0,1,1.43-1.62c.34-.31-1.37-.53-2.28-.07S1282.58,134.85,1282.66,137Z"/><polygon class="cls-54" points="1290.56 107 1298.68 106.99 1298.68 106.99 1290.62 107.52 1290.56 107"/><path class="cls-55" d="M1045.3,140V38.31c0-4.1-2.49-6-5.56-4.21L926.48,99.64c-3.07,1.77-5.56,6.52-5.56,10.62V212Z"/><path class="cls-56" d="M920.07,211.53V109.82c0-4.09,2.49-8.85,5.56-10.62l113.26-65.53a3.77,3.77,0,0,1,3.25-.48c.12,0,.94.47,1,.53h0a3.66,3.66,0,0,0-3.46.38L926.48,99.64c-3.07,1.77-5.56,6.52-5.56,10.62V212Z"/><path class="cls-57" d="M920.07,116.5v-6.68c0-4.09,2.49-8.85,5.56-10.62l113.26-65.53a3.77,3.77,0,0,1,3.25-.48c.12,0,.94.47,1,.53h0a3.66,3.66,0,0,0-3.46.38L926.48,99.64c-3.07,1.77-5.56,6.52-5.56,10.62v6.68Z"/><path class="cls-58" d="M926.48,99.64,1039.74,34.1c3.07-1.77,5.56.11,5.56,4.21v6.55l-124.38,72v-6.55C920.92,106.16,923.41,101.41,926.48,99.64Z"/><path class="cls-59" d="M926.11,99.39l113.26-65.53c1.6-.92,3-.85,4,0a3.58,3.58,0,0,0-3.48.37L926.67,99.76c-3.07,1.77-5.56,6.53-5.56,10.62V211.73l-.56-4.68V110C920.55,105.92,923,101.16,926.11,99.39Z"/><path class="cls-3" d="M1019.4,53.06c0,1.51,1.07,2.12,2.39,1.36a5.27,5.27,0,0,0,2.39-4.12c0-1.52-1.07-2.13-2.39-1.36A5.25,5.25,0,0,0,1019.4,53.06Z"/><path class="cls-3" d="M1026.94,48.86c0,1.51,1.07,2.12,2.39,1.36a5.27,5.27,0,0,0,2.39-4.12c0-1.52-1.07-2.13-2.39-1.36A5.25,5.25,0,0,0,1026.94,48.86Z"/><path class="cls-3" d="M1034.54,44.55c0,1.52,1.06,2.13,2.38,1.37a5.28,5.28,0,0,0,2.39-4.13c0-1.51-1.07-2.12-2.39-1.36A5.26,5.26,0,0,0,1034.54,44.55Z"/><polygon class="cls-3" points="925.99 202.29 962.17 181.4 962.17 136.84 925.99 157.73 925.99 202.29"/><polygon class="cls-3" points="965.17 142.25 1001.35 121.35 1001.35 76.13 965.17 97.02 965.17 142.25"/><polygon class="cls-3" points="965.17 179.74 1001.35 158.85 1001.35 124.39 965.17 145.28 965.17 179.74"/><polygon class="cls-3" points="1004.51 99.97 1040.69 79.07 1040.69 53.67 1004.51 74.56 1004.51 99.97"/><polygon class="cls-3" points="1004.51 128.36 1040.69 107.47 1040.69 82.06 1004.51 102.95 1004.51 128.36"/><polygon class="cls-3" points="1004.51 157.24 1040.69 136.35 1040.69 110.17 1004.51 131.06 1004.51 157.24"/><polygon class="cls-3" points="925.78 154.5 962.17 133.45 962.17 98.57 925.78 119.63 925.78 154.5"/><polygon class="cls-60" points="961.59 133.42 961.59 99.52 926.67 119.58 961.59 133.42"/><polygon class="cls-24" points="961.59 110.69 961.59 99.52 937.91 113.19 961.59 110.69"/><path class="cls-61" d="M931.87,170.85l1.33-.79v-1.52l-1.33.79Zm2.42-1.41,8.64-5V163l-8.64,5Zm9.73-5.6,9-5.19v-1.52l-9,5.19ZM954.09,158l5.38-3.17v-1.52l-5.38,3.18Z"/><path class="cls-62" d="M932.32,165.5l-4.62,2.66v1.52l4.62-2.66Zm5.65-3.25-4.56,2.62v1.52l4.56-2.62Zm13.88-8-12.79,7.38v1.52l12.79-7.38Zm1.09.89,6.53-3.84v-1.52l-6.53,3.84Zm-18,6,24.49-14.34v-2.31L935,158.8Z"/><path class="cls-63" d="M935.73,170.64l-8,4.63v1.52l8-4.64Zm5.65-3.25L936.81,170v1.52l4.57-2.62Zm10.47-6-9.39,5.41v1.52l9.39-5.41Zm1.09.89,6.53-3.84v-1.52l-6.53,3.84Z"/><path class="cls-64" d="M929.47,179.49l8.72-5.05v-1.52L929.47,178Zm9.81-5.68,8.63-5v-1.51l-8.63,5Zm9.72-5.59,8-4.63v-1.52l-8,4.63Zm9-5.26,1.43-.84V160.6l-1.43.84Z"/><path class="cls-65" d="M938.94,179.77l-11.24,6.49v1.52l11.24-6.49Zm2.44-1.39-1.36.76v1.52l1.36-.76Zm10.47-6-9.39,5.41v1.52l9.39-5.42Zm1.09.89,6.53-3.85v-1.52l-6.53,3.85Z"/><path class="cls-66" d="M929.47,190.32l8.72-5v-1.51l-8.72,5.05Zm9.81-5.67,8.63-5v-1.52l-8.63,5Zm9.72-5.6,6.6-3.86v-1.51l-6.6,3.85Zm7.68-4.48,2.79-1.62v-1.52l-2.79,1.62Z"/><path class="cls-67" d="M935.73,188.82l-8,4.63V195l8-4.63Zm5.65-3.24-4.57,2.61v1.52l4.57-2.62Zm10.47-6.05L942.46,185v1.52l9.39-5.42Zm1.09.89,6.53-3.84v-1.52l-6.53,3.84Z"/><path class="cls-68" d="M969,109.91l3.74-2.16v-1.52L969,108.39Zm4.82-2.79,8.64-5v-1.52l-8.64,5Zm9.73-5.59,10.61-6.14V93.87L983.5,100Zm11.69-6.77L999,92.53V91l-3.76,2.23Z"/><path class="cls-69" d="M971.8,103.18l-4.62,2.67v1.52l4.62-2.67Zm5.65-3.24-4.56,2.61v1.52l4.56-2.61Zm13.88-8-12.79,7.38v1.52l12.79-7.38Zm1.09.89L999,89V87.46l-6.53,3.84Zm-18,6L999,84.45V82.14L974.46,96.48Z"/><path class="cls-70" d="M978.48,106.48,970.7,111v1.52l7.78-4.51Zm2.38-1.4-1.29.78v1.52l1.29-.78Zm10.47-6-9.39,5.42V106l9.39-5.42Zm1.09.9L999,96.08V94.56l-6.53,3.85Z"/><path class="cls-71" d="M969,117.18l8.72-5.05v-1.52l-8.72,5Zm9.81-5.68,8.63-5V105l-8.63,5Zm9.72-5.6,1.35-.78V103.6l-1.35.78Zm2.43-1.41,8-4.68V98.29l-8,4.68Z"/><path class="cls-72" d="M978.76,129.59l8.63-5V123.1l-8.63,5Zm9.72-5.6,1.35-.78v-1.52l-1.35.78Zm2.43-1.41,8-4.69v-1.52l-8,4.69Z"/><path class="cls-73" d="M971.42,119.48l1.27-.74v-1.52l-1.27.74Zm2.35-1.37,8.64-5v-1.52l-8.64,5Zm9.73-5.59,9-5.19v-1.52l-9,5.19Zm10.07-5.82,5.38-3.18V102l-5.38,3.18Z"/><path class="cls-74" d="M975.21,119.31l-8,4.63v1.52l8-4.63Zm5.65-3.24-4.57,2.61v1.52l4.57-2.61Zm10.47-6-9.39,5.42V117l9.39-5.42Zm1.09.89,6.53-3.84v-1.52l-6.53,3.84Z"/><path class="cls-75" d="M970.44,127.13l7.23-4.17v-1.52l-7.23,4.17Zm8.32-4.8,8.63-5v-1.52l-8.63,5Zm9.72-5.59,7.18-4.13v-1.52l-7.18,4.13Zm8.27-4.76,2.2-1.34v-1.52l-2.2,1.34Z"/><path class="cls-76" d="M976.86,125.64l-9.68,5.5v1.52l9.68-5.5Zm4-2.38L978,125v1.52l2.91-1.75Zm10.47-6-9.39,5.41v1.52l9.39-5.41Zm1.09.89,6.53-3.84v-1.52l-6.53,3.84Z"/><path class="cls-77" d="M1006.63,86.78l1.53-.86V84.4l-1.53.86Zm2.62-1.49,5.59-3.22V80.55l-5.59,3.22Zm6.68-3.85,3.46-2V77.87l-3.46,2Zm4.55-2.67,5.37-3.18V74.07l-5.37,3.18Z"/><polygon class="cls-78" points="1013.55 74.2 1038.04 59.85 1038.04 62.16 1013.55 76.5 1013.55 74.2"/><path class="cls-79" d="M1010.68,86.49l-4.13,2.36v1.52l4.13-2.36Zm2.61-1.5-1.52.87v1.52l1.52-.87Zm5-2.9-3.87,2.28v1.51l3.87-2.27Zm1.08.89,6.53-3.84V77.62l-6.53,3.84Z"/><path class="cls-80" d="M1006.63,114.57l1.53-.86v-1.52l-1.53.86Zm2.62-1.49,5.59-3.22v-1.52l-5.59,3.22Zm6.68-3.85,1.42-.8v-1.52l-1.42.8Zm2.5-1.43,7.42-4.42v-1.52l-7.42,4.42Z"/><polygon class="cls-81" points="1013.55 101.99 1038.04 87.64 1038.04 89.95 1013.55 104.3 1013.55 101.99"/><path class="cls-82" d="M1010.68,114.28l-4.13,2.36v1.52l4.13-2.36Zm2.61-1.5-1.52.87v1.52l1.52-.87Zm6.2-3.67-5.12,3v1.52l5.12-3.05Zm1.08.89,5.28-3.07v-1.52l-5.28,3.07Z"/><path class="cls-24" d="M1027.91,78c0,3.25,2.29,4.56,5.12,2.92a11.26,11.26,0,0,0,5.12-8.83c0-3.25-2.29-4.55-5.12-2.92A11.28,11.28,0,0,0,1027.91,78Z"/><path class="cls-83" d="M1031,76.42c0,2.61,4.41.06,4.41-2.55s-1-3.79-2.2-3.09S1031,73.81,1031,76.42Z"/><path class="cls-3" d="M1029.91,80.49a11.08,11.08,0,0,1,1.93-2.79l1.36-.65,1.36-.93c.86.19,1.57-.06,1.93.57a1.17,1.17,0,0,1,.15.41,10.34,10.34,0,0,1-3.61,3.8,3.8,3.8,0,0,1-3.32.51A3.6,3.6,0,0,1,1029.91,80.49Z"/><path class="cls-3" d="M1031.33,74.7a2.35,2.35,0,0,1,.05-.4c.19-2,.85-2.87,1.83-3.43s1.71-.38,1.84,1.47a1.22,1.22,0,0,1,0,.21c.17,0,.28.11.23.47a1.4,1.4,0,0,1-.38.8,5.4,5.4,0,0,1-.72,1.68c-.06.23,0,.43.11.51a.85.85,0,0,0,.26.11c-.75,1.33-2,2-2.72,1.58l.24-.39a.88.88,0,0,0,.12-.68,1.25,1.25,0,0,1-.64-.72,1.27,1.27,0,0,1-.07-.12c-.2.06-.35-.09-.38-.36A.79.79,0,0,1,1031.33,74.7Z"/><path class="cls-84" d="M1031.1,81.36a3,3,0,0,0-.58-2c.36-.5.81-1,1.32-1.67.75.46,2-.25,2.72-1.58h0c.52.11,1,.07,1.33.15a6.73,6.73,0,0,0-.57,2.65v0a9,9,0,0,1-2.29,2,4.87,4.87,0,0,1-1.94.68C1031.09,81.51,1031.1,81.43,1031.1,81.36Z"/><path class="cls-85" d="M1033.45,71.52a1.15,1.15,0,0,0,1.22,1.66c.41-.81,1-.11.38-1.81-.8-2.18-2-.53-2-.53Z"/><path class="cls-86" d="M1033.57,71.52c-.12,1.23-1.11,1.46-1.48,2.55a3.31,3.31,0,0,0-.1,1.9,2.91,2.91,0,0,1-.45-3.21C1032.29,70.6,1033.75,69.78,1033.57,71.52Z"/><path class="cls-87" d="M1006.63,142.79l1.53-.86v-1.52l-1.53.86Zm2.62-1.49,5.59-3.22v-1.52l-5.59,3.22Zm6.68-3.85,3.46-2v-1.51l-3.46,2Zm4.55-2.67,5.37-3.18v-1.52l-5.37,3.18Z"/><polygon class="cls-88" points="1013.55 130.21 1038.04 115.86 1038.04 118.17 1013.55 132.51 1013.55 130.21"/><path class="cls-89" d="M1010.68,142.5l-4.13,2.36v1.52l4.13-2.36Zm2.61-1.5-1.52.87v1.52l1.52-.87Zm5-2.9-3.87,2.28v1.52l3.87-2.28Zm1.08.89,6.53-3.84v-1.52l-6.53,3.84Z"/><path class="cls-24" d="M1027.91,134c0,3.24,2.29,4.55,5.12,2.92a11.29,11.29,0,0,0,5.12-8.84c0-3.24-2.29-4.55-5.12-2.92A11.29,11.29,0,0,0,1027.91,134Z"/><path class="cls-90" d="M1031,134.26c0,2.61,4.7.92,4.7-1.69,0-5.25-1.27-6.48-2.49-5.78S1031,131.65,1031,134.26Z"/><path class="cls-91" d="M1029.91,136.5a11.08,11.08,0,0,1,1.93-2.79l1.36-.65,1.36-.93c.86.19,1.57-.06,1.93.57a1.25,1.25,0,0,1,.15.41,10.45,10.45,0,0,1-3.61,3.81,3.86,3.86,0,0,1-3.32.51A3.77,3.77,0,0,1,1029.91,136.5Z"/><path class="cls-3" d="M1031.33,130.71a2.5,2.5,0,0,1,.05-.4c.19-1.95.85-2.87,1.83-3.43s1.71-.38,1.84,1.47a1.22,1.22,0,0,1,0,.21c.17,0,.28.11.23.47a1.4,1.4,0,0,1-.38.8,5.3,5.3,0,0,1-.72,1.68c-.06.23,0,.44.11.51a.85.85,0,0,0,.26.11c-.75,1.33-2,2-2.72,1.58l.24-.38a.91.91,0,0,0,.12-.69,1.25,1.25,0,0,1-.64-.72,1.27,1.27,0,0,1-.07-.12c-.2.06-.35-.09-.38-.35A.8.8,0,0,1,1031.33,130.71Z"/><path class="cls-92" d="M1033.45,127.53a1.15,1.15,0,0,0,1.22,1.66c.41-.81,1-.11.38-1.8-.8-2.19-2-.54-2-.54Z"/><path class="cls-93" d="M1033.38,127.42c0,.9,0,1.49.73,1.61s1,.94.64,2.3-.35,2.72.28,3.32c-.16-1.12,1-5.25.07-7.53s-2.08-.42-2.08-.42Z"/><path class="cls-94" d="M1033.51,127.42c-.13,1.29-1.15,1.53-1.55,2.68a28.73,28.73,0,0,0-.69,6.12,14,14,0,0,1,.09-7.51C1032.16,126.44,1033.7,125.59,1033.51,127.42Z"/><path class="cls-24" d="M1027.89,105.23c0,3.25,2.3,4.57,5.14,2.93a11.33,11.33,0,0,0,5.14-8.86c0-3.26-2.3-4.57-5.14-2.93A11.31,11.31,0,0,0,1027.89,105.23Z"/><path class="cls-95" d="M1030.49,106.46a6.4,6.4,0,0,0,1-1.15c.86.5,2.26-.31,3.13-1.8h0a2,2,0,0,0,1-.06.82.82,0,0,1,1.11.6,10.62,10.62,0,0,1-3.78,4.11,3.6,3.6,0,0,1-3.69.33A3.56,3.56,0,0,1,1030.49,106.46Z"/><path class="cls-3" d="M1031.53,105.31c.1-.14.19-.28.28-.43.22-.36.23-.78,0-.9a1.72,1.72,0,0,1-.68-.77c-.24.07-.41-.09-.44-.38a.86.86,0,0,1,.25-.82,4.25,4.25,0,0,1,2.14-3.76c1.61-.93,2.09,0,2.15,1.29.19,0,.31.12.25.52a1.57,1.57,0,0,1-.44.9,7.65,7.65,0,0,1-.69,1.55c-.21.37-.22.76,0,.88a1.34,1.34,0,0,0,.3.12h0c-.87,1.49-2.27,2.3-3.13,1.8Z"/><path class="cls-96" d="M1035.24,99.54a1.17,1.17,0,0,0-.4.66s0-.43,0-.74-.09-1.43-1-.54-1.2,1.5-1.66,1.66-.77.23-.77.63,0,.83,0,.83a.45.45,0,0,0-.38,0v-1.36a3.51,3.51,0,0,1,2.61-3C1035.33,97.26,1035.24,97.63,1035.24,99.54Z"/><path class="cls-97" d="M976.85,155.89c0,4.28,3,6,6.75,3.85a14.86,14.86,0,0,0,6.76-11.65c0-4.28-3-6-6.76-3.85A14.87,14.87,0,0,0,976.85,155.89Z"/><path class="cls-3" d="M980.08,155.25a.7.7,0,0,1-.57-.42,1.41,1.41,0,0,1,.3-1.35l4.87-6.08a1.11,1.11,0,0,1,.85-.48.72.72,0,0,1,.71.79v6.54c0,.65-.58,1.46-1.22,1.46Zm5.21-7.37L980.42,154a.85.85,0,0,0-.2.52l4.8.45a.84.84,0,0,0,.44-.68v-6.52A1,1,0,0,0,985.29,147.88Z"/><path class="cls-98" d="M1308.82,116.25a1,1,0,0,0,0-.18,3,3,0,0,0-.09-.32l-.09-.2-.13-.24a2.14,2.14,0,0,0-.13-.19s0,0,0,0h0a4.3,4.3,0,0,0-1.18-1,1.21,1.21,0,0,1,.59,1.26c-.17.84-1,1.06-2.35,1.73s-4.26.39-6.51.76c-1.72.29-3.67,2.86-4.5,4.06l-.05.08-.15.23,0,.06-.1.16v0l0,.06.1-.07a22.92,22.92,0,0,1,3.53-2.28c1.45-.64,3.26-.57,6.26-.34s4.69-1.33,4.94-3A1.69,1.69,0,0,0,1308.82,116.25Z"/><g id="Character"><path class="cls-99" d="M1072.38,214.62c.34.13.41.79.44,2.09,0,1,.19,2.7-1,3a3.58,3.58,0,0,1-3.55-.84c-.9-1.17-1.49-2.2-2.77-3.64-1.11-1.25-2.32-2.41-2.74-4.14-.38-1.56,0-2.22,1-2.65,1.46-.58,3.7,1.49,4.83,1.84C1069.64,210.58,1072,214.48,1072.38,214.62Z"/><path class="cls-100" d="M1072.41,213.42l0,1.59a3.9,3.9,0,0,1-4,0c-.07-.16-.37-2.29-.37-2.29Z"/><path class="cls-101" d="M1059.29,223.5s.42,1.39.64,2.61c.17,1,.42,2.58.06,3.3s-1.67,1.15-3.71,1.09a11.85,11.85,0,0,0-4.82,1.57,12.62,12.62,0,0,1-6,.81c-1.8-.25-3.66-1.34-3.93-2.1s.13-1.53,4.44-3.25c0,0,6-1.81,8.1-4Z"/><path class="cls-102" d="M1059.32,221.78s0,1.18,0,1.86-.83,1.66-2.89,1.54c-1.45-.09-2.45-.5-2.37-1.69l0-1.72Z"/><path class="cls-103" d="M1073.92,192.31a43.4,43.4,0,0,0-1.69-8.33s.73-7.14,1.15-13.91c.46-7.32.89-11.09-.55-21.66,0,0-22.44-2-23,6.44s.26,30.05.45,33.77.77,7,1.4,13.08,2.43,20.07,2.43,20.07a5.58,5.58,0,0,0,5.26,0s2-16.89,2-21.19a36.34,36.34,0,0,0-1.42-9.41l1.14-13c.53-6.07,1-9,1.17-11.62l.52-.24s.28,10.49.47,14.22.71,7.31,1.63,14.24c.8,6,3.29,18.76,3.29,18.76,2.67,1.52,4.32-.09,4.32-.09S1074.53,197.53,1073.92,192.31Z"/><path class="cls-104" d="M1062.18,166.53s5.8-2.69,8.73-5.18a18.9,18.9,0,0,1-6.29,5.28s-1.54,13-1.52,12.73l-.43-12.83Z"/><polygon class="cls-105" points="1058.16 118.26 1059.04 126.01 1066.35 125.64 1065.54 116.59 1058.16 118.26"/><path class="cls-106" d="M1069.11,121.22c2.73-.12,4.11.29,5.33,2.64s1.71,9.37,2.13,13,.53,6.17-1,6.54a64.7,64.7,0,0,1-7.29.54Z"/><path class="cls-107" d="M1073.71,125.24a5.59,5.59,0,0,0-5.91-4l-1.82.3c-.32,1.31-3.89,2.12-7.3,1.32-1,.27-4.41.9-5.27,1.19-2.45.81-3.47,3.22-3.85,11.22,0,0,.2,18.11.1,21.72a29.46,29.46,0,0,0,15.94,1.94c7.35-1.44,8.3-4.45,8.3-4.45l-1.09-8.28S1074.6,130.14,1073.71,125.24Z"/><path class="cls-108" d="M1058.45,120.81l.06.49a10.81,10.81,0,0,0,4.49,0c2.38-.53,2.86-1.2,2.86-1.2l0-.55s.59-.22.9.69a9.25,9.25,0,0,1,.34,1.11s.28,1.66-2.52,2.51a8.64,8.64,0,0,1-7-.76l-1.09.23s.94-2.18,1.23-2.62a.72.72,0,0,1,.69-.38Z"/><polygon class="cls-109" points="1036.12 112.51 1021.61 120.08 1028.82 139.79 1042.36 132.2 1036.12 112.51"/><polygon class="cls-110" points="1035.45 114.44 1023.28 120.79 1029.66 137.73 1041.02 131.37 1035.45 114.44"/><path class="cls-111" d="M1032.88,116.26l-.24-.6c-.13-.33-1.14-.13-2.26.44l-2.14,1.11c-1.12.58-1.92,1.32-1.79,1.65l.23.6Z"/><path class="cls-24" d="M1032.65,113.85c-.09-.21-.53-.17-1,.08l-.84.45s-.52-1.3-2.45-.4-1.49,2.41-1.49,2.41l-.89.49c-.49.27-.84.66-.78.88l.11.38,7.47-3.9S1032.73,114.06,1032.65,113.85Z"/><path class="cls-112" d="M1031.84,114.73c-.7.34-1,.5-.77,1s.44,1,.44,1l-3.3,1.73s-.28-.74-.4-1-.36-.42-.89-.15l-.19-.21,5.21-2.65Z"/><path class="cls-113" d="M1031.84,114.73c-.7.34-1,.5-.77,1s.44,1,.44,1l-3.3,1.73s-.28-.74-.4-1-.36-.42-.89-.15l-.19-.21,5.21-2.65Z"/><path class="cls-24" d="M1033,116.3l-.23-.61c-.13-.33-1.15-.13-2.27.45l-2.14,1.1c-1.12.58-1.92,1.32-1.79,1.65l.24.6Z"/><path class="cls-114" d="M1053.41,124c-3.35.29-4.78.9-7.29,5.43-2.73,4.92-8,13.83-8.64,14.95a6,6,0,0,0-.3,5.38c.74,1.35,3.11,2,5.79-1.07,3.2-3.61,9.13-12.41,9.13-12.41S1057.15,129.67,1053.41,124Z"/><path class="cls-115" d="M1038.57,150.84c-2.57-.32-8.57-8.45-10.27-11.11a18.92,18.92,0,0,0-5.2-5.48c-2.72-2-2.32-5.09-1.13-7.92.41-1,1.8-.34,1.8-.34l.49,1.34.85,2.32c.57.54.9.71.94.55s-.42-1.55-.41-2.85c0-1.57,1.11-.54,1.44,0a19.93,19.93,0,0,1,1.16,2.59c.54,1.4.32,2.82,1,3.78s9.62,9.53,9.62,9.53Z"/><path class="cls-116" d="M1054.05,123.86a7.17,7.17,0,0,0-6.35,2.73c-1.89,2.45-9.45,15.8-9.45,15.8l-4.24-3.81a7.38,7.38,0,0,0-3.26,4.62,45.19,45.19,0,0,0,3.84,5.21c1.79,2,3.79,3.33,5.43,2.73s3.31-1.91,6.84-6.82,7.39-10.72,7.39-10.72S1056.68,127.93,1054.05,123.86Z"/><path class="cls-117" d="M1053,108.77s-1.83,2.78-1.62,3,1.55.52,1.55.52Z"/><path class="cls-118" d="M1053.86,110.55a2.18,2.18,0,1,1,2.18-2.17A2.17,2.17,0,0,1,1053.86,110.55Zm0-3.86a1.69,1.69,0,1,0,1.7,1.69A1.69,1.69,0,0,0,1053.86,106.69Z"/><path class="cls-119" d="M1058.08,101.11c-3.7.78-4.76,2.4-5.11,8.27-.37,6.14.26,8.07,1.07,8.89.54.56,3.56.66,5.09.24,1.91-.52,6.22-2.05,8.24-5.14,2.38-3.63,3-8.55.46-10.57C1064.25,100,1059.58,100.79,1058.08,101.11Z"/><path class="cls-120" d="M1058.21,118.68l-.17-1.13a7.26,7.26,0,0,1-3.79.86A9.05,9.05,0,0,0,1058.21,118.68Z"/><polygon class="cls-121" points="1051.89 107.92 1058.46 108.77 1058.2 109.24 1051.89 108.42 1051.89 107.92"/><path class="cls-122" d="M1052.34,103.48a2.11,2.11,0,0,0,.83,0,1.33,1.33,0,0,0,.45,1.54,1.91,1.91,0,0,0,1.66.22,1.56,1.56,0,0,0-.18,1.14,1.85,1.85,0,0,0,1.91,1.38c0,.86,0,1.7,1,2.09,0,0,.58-2.27,2.5-2s2.18,2.74,1,4.23-2.33.92-2.34.92.15.78.18.91a6.7,6.7,0,0,0,.5,1.24,5.74,5.74,0,0,0,1.73,2,4.24,4.24,0,0,0,3.46,1,3.73,3.73,0,0,0,2.53-2,2.26,2.26,0,0,1,.41-.73,2.39,2.39,0,0,1,.95-.41,2.77,2.77,0,0,0,1.56-3.91,2.54,2.54,0,0,0,1-4.43,3,3,0,0,0,1.31-3.3,3.08,3.08,0,0,0-2.18-2.09c-.75-.22-.46-.34-.69-1.07a2.69,2.69,0,0,0-3.41-1.76,2.58,2.58,0,0,0-1.85-2,2.49,2.49,0,0,0-1.3-.05c-.31.08-.94.36-1,.66-.39-.39-.52-.89-1-1.24a2.8,2.8,0,0,0-4.13.88,3.47,3.47,0,0,0-2.58-1.08,2.79,2.79,0,0,0-2.35,1.44,2.38,2.38,0,0,0,.31,2.68,2.81,2.81,0,0,0-1.43,1.24,1.73,1.73,0,0,0,.21,1.93,1.52,1.52,0,0,0,.72.54Z"/><path class="cls-123" d="M1057.94,111.09l.07-2.56a1.29,1.29,0,0,0-1.32,1.25A1.27,1.27,0,0,0,1057.94,111.09Z"/></g></g></g></svg>