<svg id="Capa_1" data-name="Capa 1" xmlns="http://www.w3.org/2000/svg" xmlns:xlink="http://www.w3.org/1999/xlink" viewBox="0 0 1140 948"><defs><style>.cls-1{fill:#ff9015;}.cls-2{fill:url(#Degradado_sin_nombre_33);}.cls-3{fill:url(#Degradado_sin_nombre_83);}.cls-4{fill:url(#Degradado_sin_nombre_83-2);}.cls-5{fill:url(#Degradado_sin_nombre_83-3);}.cls-6{fill:url(#Degradado_sin_nombre_83-4);}.cls-7{fill:url(#Degradado_sin_nombre_83-5);}.cls-8{fill:url(#linear-gradient);}.cls-9{fill:#fff;}.cls-10{fill:url(#Degradado_sin_nombre_83-6);}.cls-11{fill:url(#Degradado_sin_nombre_83-7);}.cls-12{fill:url(#Degradado_sin_nombre_83-8);}.cls-13{fill:url(#Degradado_sin_nombre_83-9);}.cls-14{fill:url(#Degradado_sin_nombre_83-10);}.cls-15{fill:url(#Degradado_sin_nombre_34);}.cls-16{fill:url(#linear-gradient-2);}.cls-17{fill:url(#Degradado_sin_nombre_46);}.cls-18{fill:url(#Degradado_sin_nombre_66);}.cls-19{fill:url(#Degradado_sin_nombre_36);}.cls-20{fill:url(#Degradado_sin_nombre_36-2);}.cls-21{fill:url(#Degradado_sin_nombre_36-3);}.cls-22{fill:url(#Degradado_sin_nombre_31);}.cls-23{fill:url(#Degradado_sin_nombre_36-4);}.cls-24{fill:#e58761;}.cls-25{fill:url(#Degradado_sin_nombre_46-2);}.cls-26{fill:url(#linear-gradient-3);}</style><linearGradient id="Degradado_sin_nombre_33" x1="656.22" y1="677.3" x2="656.22" y2="593.77" gradientTransform="matrix(-0.99, -0.17, -0.17, 0.99, 1828.17, 107.04)" gradientUnits="userSpaceOnUse"><stop offset="0" stop-color="#fcdeb3"/><stop offset="0.21" stop-color="#fbd59d"/><stop offset="0.49" stop-color="#facb87"/><stop offset="0.75" stop-color="#f9c67a"/><stop offset="1" stop-color="#f9c476"/></linearGradient><linearGradient id="Degradado_sin_nombre_83" x1="360.04" y1="800.34" x2="360.04" y2="814.77" gradientUnits="userSpaceOnUse"><stop offset="0" stop-color="#99ca2f"/><stop offset="0.13" stop-color="#8fc62e"/><stop offset="0.34" stop-color="#74bc2d"/><stop offset="0.62" stop-color="#48ac2b"/><stop offset="0.94" stop-color="#0b9628"/><stop offset="1" stop-color="#009227"/></linearGradient><linearGradient id="Degradado_sin_nombre_83-2" x1="430.04" y1="824.34" x2="430.04" y2="838.77" xlink:href="#Degradado_sin_nombre_83"/><linearGradient id="Degradado_sin_nombre_83-3" x1="540.54" y1="817.34" x2="540.54" y2="844.02" xlink:href="#Degradado_sin_nombre_83"/><linearGradient id="Degradado_sin_nombre_83-4" x1="311.24" y1="838.33" x2="311.24" y2="846.21" xlink:href="#Degradado_sin_nombre_83"/><linearGradient id="Degradado_sin_nombre_83-5" x1="491.66" y1="785.33" x2="491.66" y2="793.21" xlink:href="#Degradado_sin_nombre_83"/><linearGradient id="linear-gradient" x1="628.02" y1="811.12" x2="793.76" y2="811.12" gradientTransform="matrix(-1, 0.08, 0.08, 1, 1677.36, -64.81)" gradientUnits="userSpaceOnUse"><stop offset="0" stop-color="#2b3582"/><stop offset="1" stop-color="#150e42"/></linearGradient><linearGradient id="Degradado_sin_nombre_83-6" x1="2250.82" y1="526" x2="2250.82" y2="751.66" gradientTransform="matrix(-1, 0, 0, 1, 3201.47, 0)" xlink:href="#Degradado_sin_nombre_83"/><linearGradient id="Degradado_sin_nombre_83-7" x1="-6284.98" y1="-1328.74" x2="-6336.12" y2="-1359.74" gradientTransform="matrix(0.98, -0.2, 0, 0.93, 6846.27, 806.81)" xlink:href="#Degradado_sin_nombre_83"/><linearGradient id="Degradado_sin_nombre_83-8" x1="-6313.36" y1="-1340.2" x2="-6371.88" y2="-1402.08" gradientTransform="matrix(0.98, -0.2, 0, 0.93, 6846.27, 806.81)" xlink:href="#Degradado_sin_nombre_83"/><linearGradient id="Degradado_sin_nombre_83-9" x1="-6288.71" y1="-1329.26" x2="-6336.48" y2="-1358.21" gradientTransform="matrix(0.98, -0.2, 0, 0.93, 6846.27, 806.81)" xlink:href="#Degradado_sin_nombre_83"/><linearGradient id="Degradado_sin_nombre_83-10" x1="1304.73" y1="-1131.8" x2="1326.55" y2="-1138.12" gradientTransform="matrix(-0.98, 0.2, 0.2, 0.98, 2153.34, 1653.86)" xlink:href="#Degradado_sin_nombre_83"/><linearGradient id="Degradado_sin_nombre_34" x1="901.17" y1="781.68" x2="901.17" y2="697.01" gradientTransform="matrix(-1, 0.08, 0.08, 1, 1677.36, -64.81)" gradientUnits="userSpaceOnUse"><stop offset="0" stop-color="#fcdeb3"/><stop offset="0.14" stop-color="#fbd8a5"/><stop offset="0.47" stop-color="#facd8b"/><stop offset="0.77" stop-color="#f9c67c"/><stop offset="1" stop-color="#f9c476"/></linearGradient><linearGradient id="linear-gradient-2" x1="628.02" y1="875.87" x2="793.76" y2="875.87" xlink:href="#linear-gradient"/><linearGradient id="Degradado_sin_nombre_46" x1="752.33" y1="875.87" x2="839.44" y2="875.87" gradientTransform="matrix(-1, 0.08, 0.08, 1, 1677.36, -64.81)" gradientUnits="userSpaceOnUse"><stop offset="0" stop-color="#fdf53f"/><stop offset="0.18" stop-color="#fcef40"/><stop offset="0.44" stop-color="#f9dd44"/><stop offset="0.73" stop-color="#f3c14a"/><stop offset="1" stop-color="#ed9f51"/></linearGradient><linearGradient id="Degradado_sin_nombre_66" x1="772.5" y1="826.53" x2="772.5" y2="761.79" gradientTransform="matrix(-1, 0.08, 0.08, 1, 1677.36, -64.81)" gradientUnits="userSpaceOnUse"><stop offset="0" stop-color="#fcdeb3"/><stop offset="1" stop-color="#f9a262"/></linearGradient><linearGradient id="Degradado_sin_nombre_36" x1="755.55" y1="727.16" x2="792.12" y2="727.16" gradientTransform="matrix(-1, 0.08, 0.08, 1, 1677.36, -64.81)" gradientUnits="userSpaceOnUse"><stop offset="0" stop-color="#fcdeb3"/><stop offset="1" stop-color="#f9c476"/></linearGradient><linearGradient id="Degradado_sin_nombre_36-2" x1="785.45" y1="728.32" x2="795.62" y2="728.32" xlink:href="#Degradado_sin_nombre_36"/><linearGradient id="Degradado_sin_nombre_36-3" x1="744.15" y1="740.14" x2="794.92" y2="740.14" xlink:href="#Degradado_sin_nombre_36"/><linearGradient id="Degradado_sin_nombre_31" x1="720.66" y1="731.54" x2="783.05" y2="731.54" gradientTransform="matrix(-1, 0.08, 0.08, 1, 1677.36, -64.81)" gradientUnits="userSpaceOnUse"><stop offset="0.01" stop-color="#603813"/><stop offset="1" stop-color="#c69c6d"/></linearGradient><linearGradient id="Degradado_sin_nombre_36-4" x1="739.07" y1="746.9" x2="750.75" y2="746.9" xlink:href="#Degradado_sin_nombre_36"/><linearGradient id="Degradado_sin_nombre_46-2" x1="752.17" y1="874.22" x2="845.57" y2="874.22" xlink:href="#Degradado_sin_nombre_46"/><linearGradient id="linear-gradient-3" x1="786.59" y1="859.88" x2="904.3" y2="859.88" xlink:href="#linear-gradient"/></defs><rect class="cls-1" y="760.53" width="1140" height="187.47"/><path class="cls-2" d="M1067.91,649c0,.71-.28,5.54-.72,12.76l23.88-1.27c-.72-3.78-1.29-6.94-1.6-9.26-2.19-16.23,4.1-22.41,5.66-32.14s14.89-19.08,12.3-21.58-13.25,13.06-16.88,12.63,6.78-22.39,4.34-24.33c-4.48-3.58-12.78,23.5-15,22s5.07-29.69-.46-28.59-4.61,29.67-7.78,29.22,1.51-26.95-4.89-29.07c-3.42-1.13-2.45,45.64-6.44,49.38s-15-12-19-9.34S1068,646.05,1067.91,649Z"/><path class="cls-3" d="M353.82,801l12.12-.63a1.65,1.65,0,0,1,1.75,1.72l-.31,11.15a1.64,1.64,0,0,1-1.75,1.56l-11.51-.57a1.58,1.58,0,0,1-1.45-1.55l-.28-10A1.6,1.6,0,0,1,353.82,801Z"/><path class="cls-4" d="M423.82,825l12.12-.63a1.65,1.65,0,0,1,1.75,1.72l-.31,11.15a1.64,1.64,0,0,1-1.75,1.56l-11.51-.57a1.58,1.58,0,0,1-1.45-1.55l-.28-10A1.6,1.6,0,0,1,423.82,825Z"/><path class="cls-5" d="M529,818.51l22.41-1.16a3,3,0,0,1,3.24,3.17l-.58,20.61a3,3,0,0,1-3.23,2.89l-21.29-1a2.92,2.92,0,0,1-2.67-2.87l-.52-18.46A3,3,0,0,1,529,818.51Z"/><path class="cls-6" d="M308.18,838.67l6-.34a.85.85,0,0,1,.86.94l-.15,6.09a.85.85,0,0,1-.86.85l-5.66-.31a.83.83,0,0,1-.71-.85l-.14-5.45A.85.85,0,0,1,308.18,838.67Z"/><path class="cls-7" d="M488.26,785.67l6.63-.34a.89.89,0,0,1,.95.94l-.17,6.09a.89.89,0,0,1-.95.85l-6.29-.31a.86.86,0,0,1-.79-.85l-.16-5.45A.88.88,0,0,1,488.26,785.67Z"/><path class="cls-8" d="M1091.68,645.36l-28.82,4.46,7.38,88.89s-38.64,36.43-43.48,39.09c-8,4.39-40,8.37-40,8.37s.77.17,1,.2c2.67.28,7.61,94.77,8,130.17.14,13.22-.27,23.62-.85,31.46h35.59c1.72-46.37,4-104.48,7.63-111.59,10.52-20.79,67.3-71.23,71.82-82.76C1114.36,742.49,1091.68,645.36,1091.68,645.36Z"/><path class="cls-9" d="M87.91,903.16c8,3,10.64,10.51,10.64,26.54,0,7.23.92,12.75,2.76,16.82H79c-.66-4.6-.92-9.33-1-21.29,0-8.54-2.76-13.8-8.8-14.19-2.5-.13-4.73-.13-7.23-.13H53.61L47.3,946.52H26.8l16-90.67H77.26a109.82,109.82,0,0,1,13.54.65c11.3,1.32,20.37,7.1,20.37,19.71C111.17,890.54,102.49,899.48,87.91,903.16Zm.79-21.82c0-6.31-4.08-8.67-9.73-9.2-1.84-.13-4.07-.26-7-.26H60.44l-4.2,23.92H67.15c2.89,0,5,0,7-.14C81.73,895,88.7,891.33,88.7,881.34Z"/><path class="cls-9" d="M103.86,948.16H77.55l-.2-1.41c-.7-4.83-.95-9.86-1.07-21.5,0-8-2.45-12.26-7.27-12.57-2.45-.13-4.65-.13-7.12-.13H55l-6.31,35.61H24.85l16.61-93.95h35.8a110.82,110.82,0,0,1,13.72.66c13.88,1.62,21.83,9.4,21.83,21.34,0,13.38-7.09,22.78-20.57,27.38,6.52,4.63,8,13.6,8,26.11,0,7,.86,12.25,2.62,16.14Zm-23.45-3.28h18.5a48.29,48.29,0,0,1-2-15.18c0-15.8-2.51-22.34-9.58-25l-4.91-1.85,5.08-1.28c10-2.53,22-9,22-25.35,0-13.12-10.28-17.07-18.91-18.08a108.46,108.46,0,0,0-13.35-.64H44.21L28.76,944.88H45.93l6.3-35.62h9.66c2.53,0,4.79,0,7.31.14,4.74.31,10.36,3.3,10.36,15.83C79.68,935.55,79.88,940.57,80.41,944.88ZM67.15,897.44H54.28l4.78-27.2H72c2.94,0,5.2.13,7.07.26,7.49.7,11.26,4.35,11.26,10.84,0,9.4-5.71,15.06-16.09,16C72.22,897.44,70.08,897.44,67.15,897.44Zm-9-3.29h9c2.78,0,4.91,0,6.85-.12,8.65-.75,13-5,13-12.69,0-4.7-2.54-7-8.23-7.56-1.77-.12-4-.26-6.81-.26H61.82Z"/><path class="cls-9" d="M142.84,893h42.44l-2.89,16H140l-3.68,21.29h46.65L180,946.52H112.88l16-90.67h65.83l-2.89,16H146.52Z"/><path class="cls-9" d="M181.4,948.16H110.92l16.61-93.95h69.18l-3.48,19.31H147.9l-3.11,17.87h42.46l-3.49,19.32H141.33l-3.11,18h46.66Zm-66.56-3.28h63.81L181,932H134.32l4.24-24.58H181l2.3-12.74H140.88l4.26-24.44h45.34l2.3-12.75H130.29Z"/><path class="cls-9" d="M287.78,885.42l-.13,1.31H267v-1.31c-.13-11.17-5.78-16.17-16.69-16.17-15.9,0-30,14.72-30,40,0,16.43,7.75,23.92,18.4,23.92s18.92-6.18,23.39-17.75H243.63l2.89-16h38.11l-8.41,47.18h-16.3l.92-14.2-5.65,9.33c-5.91,4.74-12.88,6.71-22.73,6.71-21.16,0-34-13.54-34-36.8,0-36.4,26.28-57.55,54.79-57.55C278.45,854,289.09,867.54,287.78,885.42Z"/><path class="cls-9" d="M232.46,950c-22.34,0-35.68-14.37-35.68-38.44,0-38.86,28.39-59.19,56.44-59.19,12.83,0,22.89,3.53,29.1,10.21,5.33,5.73,7.78,13.67,7.1,23l-.28,2.83H265.38v-3c-.12-10-4.76-14.53-15-14.53-14.07,0-28.32,13.16-28.32,38.31,0,14.15,6.11,22.27,16.76,22.27,9.22,0,16.57-5.11,20.91-14.46h-18l3.49-19.31h41.44l-9,50.46H258.17l.6-9.24-2.55,4C250.11,947.82,242.78,950,232.46,950Zm20.76-94.35c-26.41,0-53.15,19.21-53.15,55.91,0,22,12.11,35.15,32.39,35.15,9.53,0,16-1.84,21.48-6.16l9-14.82-1.25,19.15h13.17L282.67,901H247.89l-2.3,12.74h19l-.86,2.23c-4.68,12.13-13.53,18.8-24.92,18.8-12.55,0-20-9.56-20-25.56,0-27.31,15.9-41.59,31.6-41.59,11.92,0,18.08,5.88,18.33,17.48h17.5c.56-8.26-1.6-15.27-6.24-20.28C274.35,858.82,265.11,855.65,253.22,855.65Z"/><path class="cls-9" d="M295.8,946.52l16-90.67h20.5l-16,90.67Z"/><path class="cls-9" d="M317.68,948.16H293.84l16.61-93.95h23.84Zm-19.92-3.28h17.16l15.45-87.39H313.21Z"/><path class="cls-9" d="M410.65,883.05H389.89c.52-8.41-3.42-13.8-12.09-13.8-7.36,0-12.88,3.94-12.88,11.43,0,5.52,4.47,9.07,17.08,12.09,16.56,4.08,24.05,12.35,24.05,24.44,0,20.24-18.79,31.15-39.82,31.15s-35.21-9.46-33.37-29h20.76c.13,9.33,6.7,13.8,15,13.8s15.24-4.6,15.24-12c0-5.13-4.2-9.33-14.58-12.09-16.56-4.21-26.55-10.38-26.55-23.79,0-20,17.87-31.27,37.32-31.27C402.63,854,411.57,866.62,410.65,883.05Z"/><path class="cls-9" d="M366.23,950c-13,0-23-3.47-29-10-4.8-5.28-6.83-12.28-6-20.81l.14-1.49h23.88l0,1.62c.11,7.63,5.1,12.18,13.34,12.18,8,0,13.6-4.24,13.6-10.31,0-4.62-4.5-8.15-13.36-10.51-13.73-3.48-27.77-9.22-27.77-25.37,0-21.61,19.6-32.91,39-32.91,11.24,0,19.77,3,25.36,8.9,5,5.31,7.4,12.87,6.9,21.87l-.09,1.55H388.14l.11-1.74c.25-4-.62-7.22-2.52-9.24s-4.42-2.82-7.93-2.82c-7,0-11.24,3.66-11.24,9.79,0,3.48,1.92,7.16,15.83,10.5,16.79,4.13,25.3,12.89,25.3,26C407.69,939.74,386.2,950,366.23,950Zm-31.85-29c-.36,6.89,1.42,12.54,5.3,16.8,5.34,5.86,14.52,9,26.55,9,18.39,0,38.18-9.23,38.18-29.5,0-11.59-7.46-19.06-22.8-22.84-13-3.12-18.33-7.09-18.33-13.69,0-7.94,5.7-13.07,14.52-13.07,4.45,0,7.93,1.29,10.33,3.86,2.23,2.37,3.4,5.78,3.45,9.94h17.48c.12-7.39-2-13.54-6.06-17.88-4.95-5.23-12.67-7.88-23-7.88-17.73,0-35.67,10.18-35.67,29.63,0,11.2,7.33,17.63,25.3,22.2,10.51,2.79,15.83,7.39,15.83,13.68,0,7.88-7.1,13.6-16.89,13.6-9.53,0-15.74-5.24-16.54-13.8Z"/><path class="cls-9" d="M471.36,871.88l-13.14,74.64h-20.5l13.14-74.64H420.64l2.89-16h81l-3,16Z"/><path class="cls-9" d="M459.6,948.16H435.76l13.15-74.64H418.67l3.49-19.31h84.3l-3.64,19.31H472.74Zm-19.92-3.28h17.16L470,870.24h30.11l2.41-12.75H424.9l-2.29,12.75h30.21Z"/><path class="cls-9" d="M558.49,903.16c8,3,10.64,10.51,10.64,26.54,0,7.23.92,12.75,2.76,16.82H549.55c-.66-4.6-.92-9.33-1-21.29,0-8.54-2.76-13.8-8.8-14.19-2.5-.13-4.73-.13-7.23-.13h-8.28l-6.31,35.61h-20.5l16-90.67h34.43a109.82,109.82,0,0,1,13.54.65c11.3,1.32,20.36,7.1,20.36,19.71C581.74,890.54,573.07,899.48,558.49,903.16Zm.78-21.82c0-6.31-4.07-8.67-9.72-9.2-1.84-.13-4.07-.26-7-.26H531l-4.2,23.92h10.9c2.9,0,5,0,7-.14C552.31,895,559.27,891.33,559.27,881.34Z"/><path class="cls-9" d="M574.43,948.16h-26.3l-.21-1.41c-.69-4.83-.94-9.86-1.06-21.5,0-8-2.45-12.26-7.27-12.57-2.45-.13-4.65-.13-7.12-.13h-6.9l-6.31,35.61H495.42L512,854.21h35.8a110.92,110.92,0,0,1,13.72.66c13.87,1.62,21.83,9.4,21.83,21.34,0,13.38-7.09,22.78-20.57,27.38,6.52,4.63,7.95,13.6,7.95,26.11,0,7,.86,12.25,2.62,16.14ZM551,944.88h18.49a48.32,48.32,0,0,1-2-15.18c0-15.8-2.51-22.34-9.58-25L553,902.84l5.08-1.28c10-2.53,22-9,22-25.35,0-13.12-10.28-17.07-18.91-18.08a108.46,108.46,0,0,0-13.35-.64H514.79l-15.45,87.39h17.17l6.3-35.62h9.66c2.53,0,4.79,0,7.31.14,4.74.31,10.37,3.3,10.37,15.83C550.26,935.55,550.46,940.57,551,944.88Zm-13.27-47.44H524.86l4.78-27.2h13c2.94,0,5.2.13,7.07.26,7.48.7,11.26,4.35,11.26,10.84,0,9.4-5.71,15.06-16.09,16C542.8,897.44,540.66,897.44,537.72,897.44Zm-8.94-3.29h8.94c2.83,0,4.92,0,6.86-.12,5.94-.52,13-3.14,13-12.69,0-4.7-2.54-7-8.23-7.56-1.77-.12-4-.26-6.81-.26H532.4Z"/><path class="cls-9" d="M609.6,920.89l-12.74,25.63H574.78l48.1-90.67h26.94l15.76,90.67H643.24l-3.67-25.63Zm23.13-46.38-15.11,30.22h19.45Z"/><path class="cls-9" d="M667.54,948.16H641.82l-3.68-25.62H610.62l-12.74,25.62H572.06l49.83-93.95H651.2Zm-22.87-3.28h19l-15.2-87.39H623.87l-46.36,87.39h18.33l12.75-25.63H641ZM639,906.37H615l18.66-37.3Zm-18.68-3.28h14.89l-3.32-23.15Z"/><path class="cls-9" d="M721.3,871.88l-13.14,74.64h-20.5l13.15-74.64H670.58l2.89-16h80.95l-3,16Z"/><path class="cls-9" d="M709.54,948.16H685.7l13.15-74.64H668.62l3.48-19.31h84.3l-3.64,19.31H722.68Zm-19.92-3.28h17.17l13.14-74.64H750l2.4-12.75h-77.6l-2.3,12.75h30.22Z"/><path class="cls-9" d="M777.29,893h42.44l-2.89,16H774.39l-3.67,21.29h46.64l-2.89,16.16H747.32l16-90.67h65.83l-2.89,16H781Z"/><path class="cls-9" d="M815.84,948.16H745.37L762,854.21h69.17l-3.48,19.31H782.35l-3.11,17.87h42.45l-3.48,19.32H775.78l-3.11,18h46.66Zm-66.56-3.28H813.1L815.4,932H768.76L773,907.42h42.45l2.31-12.74H775.33l4.25-24.44h45.35l2.3-12.75H764.74Z"/><path class="cls-10" d="M853.34,535.9,1042.89,526a25.75,25.75,0,0,1,27.4,26.86l-4.9,174.32c-.4,14.25-12.73,25.13-27.36,24.41l-180-8.89c-12.2-.61-22.28-11.43-22.64-24.25L831,562.34C830.62,548.44,840.55,536.56,853.34,535.9Z"/><path class="cls-9" d="M877.16,622.4c0,30.76,24.07,49.81,60.22,69a8,8,0,0,0,7.41,0c21-11.15,34.56-20.46,43.85-30.17,11-11.53,16.36-24.22,16.36-38.8,0-23-15-36.93-29.77-40.53a37.72,37.72,0,0,0-8.83-1.06A35.55,35.55,0,0,0,943.69,589l-2.46,2-2.47-2c-8.32-6.83-19.53-9.32-30.74-6.83C892.66,585.53,877.16,599.3,877.16,622.4Zm15.84,0c0-15.3,10-22.92,18.46-24.81,7.35-1.63,17.64.11,22.45,10.39a7.87,7.87,0,0,0,7,4.56,8,8,0,0,0,7.19-4.28c3.8-7.37,10.47-11.6,18.3-11.6a21.06,21.06,0,0,1,5.07.61c8.54,2.07,17.67,9.77,17.67,25.13,0,19.34-12.52,33.42-46.2,52l-1.88,1-1.87-1C905.53,655.82,893,641.74,893,622.4Z"/><path class="cls-9" d="M654.16,806.86l2.15,1h0a.67.67,0,0,0,.89-.34.69.69,0,0,0-.34-.9h0l-2.18-1a.67.67,0,0,0-.88.34.67.67,0,0,0,.34.89Z"/><path class="cls-9" d="M661.24,810.22l2.08,1.09h0a.69.69,0,1,0,.64-1.22h0l-2.11-1.1a.68.68,0,0,0-.92.3.67.67,0,0,0,.29.92Z"/><path class="cls-9" d="M668.1,814l2,1.21h0a.71.71,0,0,0,.73-1.21h0l-2-1.21a.7.7,0,1,0-.72,1.2Z"/><path class="cls-9" d="M674.72,818.16l1.94,1.33h0a.72.72,0,1,0,.81-1.19h0l-2-1.33a.72.72,0,1,0-.81,1.18Z"/><path class="cls-9" d="M681.09,822.71l1.86,1.43h0a.73.73,0,0,0,1-.13.74.74,0,0,0-.13-1h0L682,821.54a.73.73,0,0,0-.89,1.16Z"/><path class="cls-9" d="M687.19,827.61l1.77,1.54h0a.75.75,0,0,0,1-1.14h0l-1.8-1.55a.74.74,0,0,0-1,1.13Z"/><path class="cls-9" d="M693,832.85l1.69,1.64h0a.76.76,0,1,0,1.06-1.1h0l-1.71-1.64a.75.75,0,0,0-1.07,0,.74.74,0,0,0,0,1.07Z"/><path class="cls-9" d="M698.52,838.41l1.59,1.72h0a.78.78,0,0,0,1.15-1h0l-1.62-1.74a.78.78,0,1,0-1.14,1.06Z"/><path class="cls-9" d="M703.72,844.26l1.5,1.82h0a.8.8,0,1,0,1.22-1h0l-1.52-1.83a.79.79,0,0,0-1.11-.1.8.8,0,0,0-.11,1.12Z"/><path class="cls-9" d="M708.59,850.39l1.4,1.9h0a.82.82,0,1,0,1.31-1h0l-1.42-1.91a.81.81,0,0,0-1.3,1Z"/><path class="cls-9" d="M713.12,856.78l1.28,2h0a.83.83,0,1,0,1.38-.91h0l-1.31-2a.82.82,0,0,0-1.14-.23.81.81,0,0,0-.23,1.13Z"/><path class="cls-9" d="M717.28,863.41l1.18,2v0a.83.83,0,0,0,1.15.3.84.84,0,0,0,.3-1.15h0l-1.2-2.05a.83.83,0,0,0-1.14-.3.82.82,0,0,0-.3,1.14Z"/><path class="cls-9" d="M721.07,870.26l1.07,2.09v0a.85.85,0,0,0,1.15.37.86.86,0,0,0,.38-1.15h0l-1.09-2.11a.85.85,0,0,0-1.51.77Z"/><path class="cls-9" d="M724.47,877.31l.94,2.15h0a.88.88,0,0,0,1.15.45.87.87,0,0,0,.44-1.15h0l-1-2.17a.87.87,0,0,0-1.14-.45.88.88,0,0,0-.44,1.15Z"/><path class="cls-9" d="M727.47,884.53l.81,2.2h0a.88.88,0,1,0,1.66-.61h0l-.84-2.22a.88.88,0,0,0-1.65.62Z"/><path class="cls-9" d="M730,891.91l.69,2.24v0a.9.9,0,0,0,1.12.6.92.92,0,0,0,.6-1.13h0l-.71-2.27a.9.9,0,0,0-1.71.53Z"/><path class="cls-9" d="M732.17,899.43l.55,2.28h0a.92.92,0,1,0,1.78-.43h0l-.57-2.31a.91.91,0,0,0-1.1-.67.92.92,0,0,0-.67,1.11Z"/><path class="cls-9" d="M733.84,907.06l.42,2.31h0a.93.93,0,1,0,1.83-.32h0l-.43-2.34a.93.93,0,1,0-1.82.34Z"/><path class="cls-9" d="M735.05,914.78l.27,2.33v0a.95.95,0,0,0,1.88-.22h0l-.28-2.36a.94.94,0,0,0-1.87.23Z"/><path class="cls-9" d="M735.79,922.56l.13,2.34h0a1,1,0,0,0,1,.91,1,1,0,0,0,.9-1h0l-.14-2.37a1,1,0,1,0-1.91.11Z"/><path class="cls-9" d="M736.07,930.36v2.35h0a1,1,0,1,0,1.93,0h0v-2.37a1,1,0,1,0-1.93,0Z"/><path class="cls-9" d="M735.9,938.17l-.14,2.34v0a1,1,0,0,0,.91,1,1,1,0,0,0,1-.92h0l.14-2.37a1,1,0,0,0-1.94-.11Z"/><path class="cls-9" d="M735.28,946l-.27,2.33v0a1,1,0,1,0,1.94.22h0l.27-2.36a1,1,0,0,0-.86-1.08,1,1,0,0,0-1.08.86Z"/><polygon class="cls-11" points="643.3 791.36 643.71 802.92 635.71 798.23 643.3 791.36"/><path class="cls-12" d="M591.11,786.58l32.17,26.26a2.92,2.92,0,0,0,4.19-.51L652.62,779a1.18,1.18,0,0,0-1.12-1.87Z"/><polygon class="cls-13" points="643.3 791.36 591.11 786.58 639.25 796.75 639.5 799.95 643.3 791.36"/><polygon class="cls-14" points="636.83 799.92 643.71 802.92 639.25 796.75 636.83 799.92"/><path class="cls-15" d="M861.48,743c-1.23,1.31-2.46,2-3.66,1.43-5-2.24-19.22-46.8-22.09-44.62-5.37,4.08,7.65,27.63,4.79,29.08S829.28,703,823.69,703.76s10.41,25.09,8.83,27.21-18.2-20.81-21.28-16c-1.68,2.62,15.29,20,12,21.61s-18.43-9.68-20.06-6.48,14,7.73,18.63,16.43,12.58,12.51,15.77,28.57c.45,2.3.94,5.48,1.48,9.28l23-6.53c-2.77-6.69-4.58-11.18-4.82-11.84-.59-1.59,6.33-13.28,11.33-23Z"/><path class="cls-16" d="M995,948c.58-7.84,1-18.24.85-31.46-.39-35.4-5.33-129.89-8-130.17-.23,0-1-.2-1-.2s-.13,64-11.17,161.83Z"/><path class="cls-17" d="M995,948c.58-7.84,1-18.24.85-31.46-.39-35.4-5.33-129.89-8-130.17-.23,0-1-.2-1-.2s-.13,64-11.17,161.83Z"/><path class="cls-18" d="M983.66,757.68l3.15,28.49s-18.15,37.73-29.29,33.53c-9.35-3.52-3.48-31.59-3.48-31.59s1.07-6.42,2.68-13.82c1.12-5.17,1.95-10.74,1.55-14.75C957.28,749.79,983.66,757.68,983.66,757.68Z"/><path class="cls-19" d="M953.57,694.46s-9.42,16.92-9.17,30.52,3.85,22.62,3.85,22.62L979.32,704Z"/><path class="cls-20" d="M940.64,722.49c-.11,4.78,2.05,8.71,4.83,8.77s5.12-3.75,5.23-8.53-2-8.71-4.82-8.78S940.76,717.71,940.64,722.49Z"/><path class="cls-21" d="M990.91,709.69c.77-.22,3.76,39.2-6.94,49.36s-30.53,12.53-37.06,3.64c-7.23-9.84-4.35-51.85,12-62S990.91,709.69,990.91,709.69Z"/><path class="cls-22" d="M991.91,685c9.31,7,14,12.22,20.93,25.36,8.56,16.15-4.49,34.59-16,42.42S984.92,769,984.92,769l-.9-5.09a12.55,12.55,0,0,1-.21-4.73,21.87,21.87,0,0,1,1.39-4.3c.86-2.28,3.57-10.06,4.71-12.15,3-5.5,3.57-6.69,1.5-11.54-1.59-3.73-.75-12.29-3.24-18.46l-16.52-2.24s-10.36-1.65-15.95-7.18C939.63,687.48,967.3,666.24,991.91,685Z"/><path class="cls-23" d="M987.88,735.84c-1.66,4.48-.9,8.9,1.7,9.87s6.07-1.88,7.73-6.36.91-8.9-1.7-9.87S989.55,731.36,987.88,735.84Z"/><path class="cls-9" d="M970,749.69l-19.58-1.75s-.21,7.47,8.38,8.49C969.27,757.68,970,749.69,970,749.69Z"/><path d="M977,730.06a2.49,2.49,0,1,1-2.24-2.7A2.49,2.49,0,0,1,977,730.06Z"/><path d="M956.38,723.4a2.48,2.48,0,1,1-2.63-2.32A2.48,2.48,0,0,1,956.38,723.4Z"/><path d="M972.26,724.78a.88.88,0,0,0,.79,0,4.65,4.65,0,0,1,3.3-.16,4,4,0,0,1,2.14,2.48.87.87,0,0,0,1.13.5.88.88,0,0,0,.51-1.13A5.67,5.67,0,0,0,977,723a6.42,6.42,0,0,0-4.68.19.88.88,0,0,0-.42,1.17A.85.85,0,0,0,972.26,724.78Z"/><path d="M950.85,719.15a.84.84,0,0,0,.78-.09,4.75,4.75,0,0,1,3.24-.66,4,4,0,0,1,2.49,2.12.88.88,0,1,0,1.52-.88,5.64,5.64,0,0,0-3.63-2.95,6.4,6.4,0,0,0-4.6.91.88.88,0,0,0-.23,1.22A.87.87,0,0,0,950.85,719.15Z"/><path class="cls-9" d="M956.84,723.64a1,1,0,1,1-1-.92A1,1,0,0,1,956.84,723.64Z"/><path class="cls-9" d="M977.41,730.78a1,1,0,1,1-2-.19,1,1,0,0,1,2,.19Z"/><path d="M950.43,722.6a.67.67,0,0,0,.65-.11,4,4,0,0,1,5.72.66.66.66,0,1,0,1-.9,5.36,5.36,0,0,0-7.53-.77.66.66,0,0,0-.08.93A.73.73,0,0,0,950.43,722.6Z"/><path d="M971.15,728.18a.65.65,0,0,0,.66,0,4,4,0,0,1,5.55,1.54.65.65,0,0,0,.91.17.66.66,0,0,0,.18-.91,5.36,5.36,0,0,0-7.33-1.92.65.65,0,0,0-.22.9A.61.61,0,0,0,971.15,728.18Z"/><path class="cls-24" d="M965.43,723.86a6.12,6.12,0,0,1-.66,1.12c-1.07,1.61-2.06,3.28-3,5-1.45,2.7-2.79,5.6-5.2,7.5a5.55,5.55,0,0,0-1.08,1c-1.46,1.93,2,3.7,3.47,4s2.22-.36,3.44-.94a1,1,0,0,1,1.06,0,.94.94,0,0,1,.12,1.2,2.14,2.14,0,0,1-1.05.77c-3.12,1.28-8.2.08-8.48-3.89a4.54,4.54,0,0,1,2.57-4.28c.12-.06.27-.16.23-.29s-.26.08-.13.08q3.68-6.09,7.32-12.19a.77.77,0,0,1,1.24,0A.89.89,0,0,1,965.43,723.86Z"/><path class="cls-25" d="M986.8,786.17l-32.49.71s-6.47,8.85-13.63,29.31c-3.12,8.91-6.53,50.69-10.09,74.39C926,921.3,908,948,908,948h67.63C986.67,850.21,986.8,786.17,986.8,786.17Z"/><path class="cls-26" d="M954.62,786.78h-.35s-1.87.11-11.39.57c-4,.19-8.15.3-11.87,1.92-7.76,3.39-49.32,47.78-52.83,46.31-1-.43-5-18-14.7-66.48-.44-2.22-27.77,6.61-27.77,6.61s6.48,102.23,27.84,109.11c6.87,2.21,47.24-21.71,57.57-27.94-.74,12.34-1.19,26.4-3.29,39.59-3.34,21-13.62,39.09-22.49,51.53h35.95c4-27.44,19.71-134,21.71-152Z"/></svg>