<?xml version="1.0" encoding="UTF-8" standalone="no"?>
<!DOCTYPE svg PUBLIC "-//W3C//DTD SVG 1.1//EN" "http://www.w3.org/Graphics/SVG/1.1/DTD/svg11.dtd">
<svg width="100%" height="100%" viewBox="0 0 1138 422" version="1.1" xmlns="http://www.w3.org/2000/svg" xmlns:xlink="http://www.w3.org/1999/xlink" xml:space="preserve" xmlns:serif="http://www.serif.com/" style="fill-rule:evenodd;clip-rule:evenodd;stroke-linejoin:round;stroke-miterlimit:2;">
    <g id="Artboard1" transform="matrix(0.978234,0,0,0.97942,12.2902,-511.708)">
        <rect x="-12.564" y="522.461" width="1162.62" height="430.401" style="fill:none;"/>
        <clipPath id="_clip1">
            <rect x="-12.564" y="522.461" width="1162.62" height="430.401"/>
        </clipPath>
        <g clip-path="url(#_clip1)">
            <g transform="matrix(1.02225,0,0,1.02101,-12.0414,-14.0458)">
                <rect x="0" y="760.53" width="1140" height="187.47" style="fill:rgb(255,144,21);"/>
            </g>
            <g transform="matrix(1.02225,0,0,1.02101,-12.0414,-14.0458)">
                <path d="M1067.91,649C1067.91,649.71 1067.63,654.54 1067.19,661.76L1091.07,660.49C1090.35,656.71 1089.78,653.55 1089.47,651.23C1087.28,635 1093.57,628.82 1095.13,619.09C1096.69,609.36 1110.02,600.01 1107.43,597.51C1104.84,595.01 1094.18,610.57 1090.55,610.14C1086.92,609.71 1097.33,587.75 1094.89,585.81C1090.41,582.23 1082.11,609.31 1079.89,607.81C1077.67,606.31 1084.96,578.12 1079.43,579.22C1073.9,580.32 1074.82,608.89 1071.65,608.44C1068.48,607.99 1073.16,581.49 1066.76,579.37C1063.34,578.24 1064.31,625.01 1060.32,628.75C1056.33,632.49 1045.32,616.75 1041.32,619.41C1037.32,622.07 1068,646.05 1067.91,649Z" style="fill:url(#_Linear2);fill-rule:nonzero;"/>
            </g>
            <g transform="matrix(1.02225,0,0,1.02101,-12.0414,-14.0458)">
                <path d="M353.82,801L365.94,800.37C365.974,800.368 366.008,800.367 366.042,800.367C366.947,800.367 367.692,801.112 367.692,802.017C367.692,802.041 367.691,802.066 367.69,802.09L367.38,813.24C367.34,814.11 366.613,814.804 365.742,814.804C365.704,814.804 365.667,814.803 365.63,814.8L354.12,814.23C353.314,814.164 352.683,813.489 352.67,812.68L352.39,802.68C352.343,801.833 352.977,801.089 353.82,801Z" style="fill:url(#_Linear3);fill-rule:nonzero;"/>
            </g>
            <g transform="matrix(1.02225,0,0,1.02101,-12.0414,-14.0458)">
                <path d="M423.82,825L435.94,824.37C435.974,824.368 436.008,824.367 436.042,824.367C436.947,824.367 437.692,825.112 437.692,826.017C437.692,826.041 437.691,826.066 437.69,826.09L437.38,837.24C437.34,838.11 436.613,838.804 435.742,838.804C435.704,838.804 435.667,838.803 435.63,838.8L424.12,838.23C423.314,838.164 422.683,837.489 422.67,836.68L422.39,826.68C422.343,825.833 422.977,825.089 423.82,825Z" style="fill:url(#_Linear4);fill-rule:nonzero;"/>
            </g>
            <g transform="matrix(1.02225,0,0,1.02101,-12.0414,-14.0458)">
                <path d="M529,818.51L551.41,817.35C551.492,817.343 551.574,817.34 551.655,817.34C553.301,817.34 554.655,818.694 554.655,820.34C554.655,820.4 554.654,820.46 554.65,820.52L554.07,841.13C554.016,842.737 552.679,844.029 551.072,844.029C550.994,844.029 550.917,844.026 550.84,844.02L529.55,843.02C528.062,842.892 526.9,841.643 526.88,840.15L526.36,821.69C526.254,820.105 527.423,818.697 529,818.51Z" style="fill:url(#_Linear5);fill-rule:nonzero;"/>
            </g>
            <g transform="matrix(1.02225,0,0,1.02101,-12.0414,-14.0458)">
                <path d="M308.18,838.67L314.18,838.33C314.185,838.33 314.19,838.33 314.195,838.33C314.661,838.33 315.045,838.714 315.045,839.18C315.045,839.21 315.043,839.24 315.04,839.27L314.89,845.36C314.89,845.36 314.89,845.36 314.89,845.36C314.89,845.826 314.506,846.21 314.04,846.21C314.037,846.21 314.033,846.21 314.03,846.21L308.37,845.9C307.953,845.839 307.645,845.471 307.66,845.05L307.52,839.6C307.469,839.169 307.756,838.764 308.18,838.67Z" style="fill:url(#_Linear6);fill-rule:nonzero;"/>
            </g>
            <g transform="matrix(1.02225,0,0,1.02101,-12.0414,-14.0458)">
                <path d="M488.26,785.67L494.89,785.33C494.91,785.329 494.931,785.328 494.952,785.328C495.44,785.328 495.842,785.73 495.842,786.218C495.842,786.235 495.841,786.253 495.84,786.27L495.67,792.36C495.65,792.834 495.255,793.212 494.781,793.212C494.761,793.212 494.74,793.211 494.72,793.21L488.43,792.9C487.989,792.864 487.644,792.493 487.64,792.05L487.48,786.6C487.451,786.134 487.796,785.722 488.26,785.67Z" style="fill:url(#_Linear7);fill-rule:nonzero;"/>
            </g>
            <g transform="matrix(1.02225,0,0,1.02101,-12.0414,-14.0458)">
                <path d="M1091.68,645.36L1062.86,649.82L1070.24,738.71C1070.24,738.71 1031.6,775.14 1026.76,777.8C1018.76,782.19 986.76,786.17 986.76,786.17C986.76,786.17 987.53,786.34 987.76,786.37C990.43,786.65 995.37,881.14 995.76,916.54C995.9,929.76 995.49,940.16 994.91,948L1030.5,948C1032.22,901.63 1034.5,843.52 1038.13,836.41C1048.65,815.62 1105.43,765.18 1109.95,753.65C1114.36,742.49 1091.68,645.36 1091.68,645.36Z" style="fill:url(#_Linear8);fill-rule:nonzero;"/>
            </g>
            <g transform="matrix(1.02225,0,0,1.02101,-12.0414,-14.0458)">
                <path d="M87.91,903.16C95.91,906.16 98.55,913.67 98.55,929.7C98.55,936.93 99.47,942.45 101.31,946.52L79,946.52C78.34,941.92 78.08,937.19 78,925.23C78,916.69 75.24,911.43 69.2,911.04C66.7,910.91 64.47,910.91 61.97,910.91L53.61,910.91L47.3,946.52L26.8,946.52L42.8,855.85L77.26,855.85C81.782,855.788 86.304,856.005 90.8,856.5C102.1,857.82 111.17,863.6 111.17,876.21C111.17,890.54 102.49,899.48 87.91,903.16ZM88.7,881.34C88.7,875.03 84.62,872.67 78.97,872.14C77.13,872.01 74.9,871.88 71.97,871.88L60.44,871.88L56.24,895.8L67.15,895.8C70.04,895.8 72.15,895.8 74.15,895.66C81.73,895 88.7,891.33 88.7,881.34Z" style="fill:white;fill-rule:nonzero;"/>
            </g>
            <g transform="matrix(1.02225,0,0,1.02101,-12.0414,-14.0458)">
                <path d="M103.86,948.16L77.55,948.16L77.35,946.75C76.65,941.92 76.4,936.89 76.28,925.25C76.28,917.25 73.83,912.99 69.01,912.68C66.56,912.55 64.36,912.55 61.89,912.55L55,912.55L48.69,948.16L24.85,948.16L41.46,854.21L77.26,854.21C81.843,854.146 86.425,854.367 90.98,854.87C104.86,856.49 112.81,864.27 112.81,876.21C112.81,889.59 105.72,898.99 92.24,903.59C98.76,908.22 100.24,917.19 100.24,929.7C100.24,936.7 101.1,941.95 102.86,945.84L103.86,948.16ZM80.41,944.88L98.91,944.88C97.44,939.959 96.765,934.834 96.91,929.7C96.91,913.9 94.4,907.36 87.33,904.7L82.42,902.85L87.5,901.57C97.5,899.04 109.5,892.57 109.5,876.22C109.5,863.1 99.22,859.15 90.59,858.14C86.157,857.652 81.699,857.439 77.24,857.5L44.21,857.5L28.76,944.88L45.93,944.88L52.23,909.26L61.89,909.26C64.42,909.26 66.68,909.26 69.2,909.4C73.94,909.71 79.56,912.7 79.56,925.23C79.68,935.55 79.88,940.57 80.41,944.88ZM67.15,897.44L54.28,897.44L59.06,870.24L72,870.24C74.94,870.24 77.2,870.37 79.07,870.5C86.56,871.2 90.33,874.85 90.33,881.34C90.33,890.74 84.62,896.4 74.24,897.34C72.22,897.44 70.08,897.44 67.15,897.44ZM58.15,894.15L67.15,894.15C69.93,894.15 72.06,894.15 74,894.03C82.65,893.28 87,889.03 87,881.34C87,876.64 84.46,874.34 78.77,873.78C77,873.66 74.77,873.52 71.96,873.52L61.82,873.52L58.15,894.15Z" style="fill:white;fill-rule:nonzero;"/>
            </g>
            <g transform="matrix(1.02225,0,0,1.02101,-12.0414,-14.0458)">
                <path d="M142.84,893L185.28,893L182.39,909L140,909L136.32,930.29L182.97,930.29L180,946.52L112.88,946.52L128.88,855.85L194.71,855.85L191.82,871.85L146.52,871.85L142.84,893Z" style="fill:white;fill-rule:nonzero;"/>
            </g>
            <g transform="matrix(1.02225,0,0,1.02101,-12.0414,-14.0458)">
                <path d="M181.4,948.16L110.92,948.16L127.53,854.21L196.71,854.21L193.23,873.52L147.9,873.52L144.79,891.39L187.25,891.39L183.76,910.71L141.33,910.71L138.22,928.71L184.88,928.71L181.4,948.16ZM114.84,944.88L178.65,944.88L181,932L134.32,932L138.56,907.42L181,907.42L183.3,894.68L140.88,894.68L145.14,870.24L190.48,870.24L192.78,857.49L130.29,857.49L114.84,944.88Z" style="fill:white;fill-rule:nonzero;"/>
            </g>
            <g transform="matrix(1.02225,0,0,1.02101,-12.0414,-14.0458)">
                <path d="M287.78,885.42L287.65,886.73L267,886.73L267,885.42C266.87,874.25 261.22,869.25 250.31,869.25C234.41,869.25 220.31,883.97 220.31,909.25C220.31,925.68 228.06,933.17 238.71,933.17C249.36,933.17 257.63,926.99 262.1,915.42L243.63,915.42L246.52,899.42L284.63,899.42L276.22,946.6L259.92,946.6L260.84,932.4L255.19,941.73C249.28,946.47 242.31,948.44 232.46,948.44C211.3,948.44 198.46,934.9 198.46,911.64C198.46,875.24 224.74,854.09 253.25,854.09C278.45,854 289.09,867.54 287.78,885.42Z" style="fill:white;fill-rule:nonzero;"/>
            </g>
            <g transform="matrix(1.02225,0,0,1.02101,-12.0414,-14.0458)">
                <path d="M232.46,950C210.12,950 196.78,935.63 196.78,911.56C196.78,872.7 225.17,852.37 253.22,852.37C266.05,852.37 276.11,855.9 282.32,862.58C287.65,868.31 290.1,876.25 289.42,885.58L289.14,888.41L265.38,888.41L265.38,885.41C265.26,875.41 260.62,870.88 250.38,870.88C236.31,870.88 222.06,884.04 222.06,909.19C222.06,923.34 228.17,931.46 238.82,931.46C248.04,931.46 255.39,926.35 259.73,917L241.73,917L245.22,897.69L286.66,897.69L277.66,948.15L258.17,948.15L258.77,938.91L256.22,942.91C250.11,947.82 242.78,950 232.46,950ZM253.22,855.65C226.81,855.65 200.07,874.86 200.07,911.56C200.07,933.56 212.18,946.71 232.46,946.71C241.99,946.71 248.46,944.87 253.94,940.55L262.94,925.73L261.69,944.88L274.86,944.88L282.67,901L247.89,901L245.59,913.74L264.59,913.74L263.73,915.97C259.05,928.1 250.2,934.77 238.81,934.77C226.26,934.77 218.81,925.21 218.81,909.21C218.81,881.9 234.71,867.62 250.41,867.62C262.33,867.62 268.49,873.5 268.74,885.1L286.24,885.1C286.8,876.84 284.64,869.83 280,864.82C274.35,858.82 265.11,855.65 253.22,855.65Z" style="fill:white;fill-rule:nonzero;"/>
            </g>
            <g transform="matrix(1.02225,0,0,1.02101,-12.0414,-14.0458)">
                <path d="M295.8,946.52L311.8,855.85L332.3,855.85L316.3,946.52L295.8,946.52Z" style="fill:white;fill-rule:nonzero;"/>
            </g>
            <g transform="matrix(1.02225,0,0,1.02101,-12.0414,-14.0458)">
                <path d="M317.68,948.16L293.84,948.16L310.45,854.21L334.29,854.21L317.68,948.16ZM297.76,944.88L314.92,944.88L330.37,857.49L313.21,857.49L297.76,944.88Z" style="fill:white;fill-rule:nonzero;"/>
            </g>
            <g transform="matrix(1.02225,0,0,1.02101,-12.0414,-14.0458)">
                <path d="M410.65,883.05L389.89,883.05C390.41,874.64 386.47,869.25 377.8,869.25C370.44,869.25 364.92,873.19 364.92,880.68C364.92,886.2 369.39,889.75 382,892.77C398.56,896.85 406.05,905.12 406.05,917.21C406.05,937.45 387.26,948.36 366.23,948.36C345.2,948.36 331.02,938.9 332.86,919.36L353.62,919.36C353.75,928.69 360.32,933.16 368.62,933.16C376.92,933.16 383.86,928.56 383.86,921.16C383.86,916.03 379.66,911.83 369.28,909.07C352.72,904.86 342.73,898.69 342.73,885.28C342.73,865.28 360.6,854.01 380.05,854.01C402.63,854 411.57,866.62 410.65,883.05Z" style="fill:white;fill-rule:nonzero;"/>
            </g>
            <g transform="matrix(1.02225,0,0,1.02101,-12.0414,-14.0458)">
                <path d="M366.23,950C353.23,950 343.23,946.53 337.23,940C332.43,934.72 330.4,927.72 331.23,919.19L331.37,917.7L355.25,917.7L355.25,919.32C355.36,926.95 360.35,931.5 368.59,931.5C376.59,931.5 382.19,927.26 382.19,921.19C382.19,916.57 377.69,913.04 368.83,910.68C355.1,907.2 341.06,901.46 341.06,885.31C341.06,863.7 360.66,852.4 380.06,852.4C391.3,852.4 399.83,855.4 405.42,861.3C410.42,866.61 412.82,874.17 412.32,883.17L412.23,884.72L388.14,884.72L388.25,882.98C388.5,878.98 387.63,875.76 385.73,873.74C383.83,871.72 381.31,870.92 377.8,870.92C370.8,870.92 366.56,874.58 366.56,880.71C366.56,884.19 368.48,887.87 382.39,891.21C399.18,895.34 407.69,904.1 407.69,917.21C407.69,939.74 386.2,950 366.23,950ZM334.38,921C334.02,927.89 335.8,933.54 339.68,937.8C345.02,943.66 354.2,946.8 366.23,946.8C384.62,946.8 404.41,937.57 404.41,917.3C404.41,905.71 396.95,898.24 381.61,894.46C368.61,891.34 363.28,887.37 363.28,880.77C363.28,872.83 368.98,867.7 377.8,867.7C382.25,867.7 385.73,868.99 388.13,871.56C390.36,873.93 391.53,877.34 391.58,881.5L409.06,881.5C409.18,874.11 407.06,867.96 403,863.62C398.05,858.39 390.33,855.74 380,855.74C362.27,855.74 344.33,865.92 344.33,885.37C344.33,896.57 351.66,903 369.63,907.57C380.14,910.36 385.46,914.96 385.46,921.25C385.46,929.13 378.36,934.85 368.57,934.85C359.04,934.85 352.83,929.61 352.03,921.05L334.38,921Z" style="fill:white;fill-rule:nonzero;"/>
            </g>
            <g transform="matrix(1.02225,0,0,1.02101,-12.0414,-14.0458)">
                <path d="M471.36,871.88L458.22,946.52L437.72,946.52L450.86,871.88L420.64,871.88L423.53,855.88L504.53,855.88L501.53,871.88L471.36,871.88Z" style="fill:white;fill-rule:nonzero;"/>
            </g>
            <g transform="matrix(1.02225,0,0,1.02101,-12.0414,-14.0458)">
                <path d="M459.6,948.16L435.76,948.16L448.91,873.52L418.67,873.52L422.16,854.21L506.46,854.21L502.82,873.52L472.74,873.52L459.6,948.16ZM439.68,944.88L456.84,944.88L470,870.24L500.11,870.24L502.52,857.49L424.9,857.49L422.61,870.24L452.82,870.24L439.68,944.88Z" style="fill:white;fill-rule:nonzero;"/>
            </g>
            <g transform="matrix(1.02225,0,0,1.02101,-12.0414,-14.0458)">
                <path d="M558.49,903.16C566.49,906.16 569.13,913.67 569.13,929.7C569.13,936.93 570.05,942.45 571.89,946.52L549.55,946.52C548.89,941.92 548.63,937.19 548.55,925.23C548.55,916.69 545.79,911.43 539.75,911.04C537.25,910.91 535.02,910.91 532.52,910.91L524.24,910.91L517.93,946.52L497.43,946.52L513.43,855.85L547.86,855.85C552.382,855.788 556.904,856.005 561.4,856.5C572.7,857.82 581.76,863.6 581.76,876.21C581.74,890.54 573.07,899.48 558.49,903.16ZM559.27,881.34C559.27,875.03 555.2,872.67 549.55,872.14C547.71,872.01 545.48,871.88 542.55,871.88L531,871.88L526.8,895.8L537.7,895.8C540.6,895.8 542.7,895.8 544.7,895.66C552.31,895 559.27,891.33 559.27,881.34Z" style="fill:white;fill-rule:nonzero;"/>
            </g>
            <g transform="matrix(1.02225,0,0,1.02101,-12.0414,-14.0458)">
                <path d="M574.43,948.16L548.13,948.16L547.92,946.75C547.23,941.92 546.98,936.89 546.86,925.25C546.86,917.25 544.41,912.99 539.59,912.68C537.14,912.55 534.94,912.55 532.47,912.55L525.57,912.55L519.26,948.16L495.42,948.16L512,854.21L547.8,854.21C552.383,854.146 556.965,854.367 561.52,854.87C575.39,856.49 583.35,864.27 583.35,876.21C583.35,889.59 576.26,898.99 562.78,903.59C569.3,908.22 570.73,917.19 570.73,929.7C570.73,936.7 571.59,941.95 573.35,945.84L574.43,948.16ZM551,944.88L569.49,944.88C568.021,939.959 567.346,934.834 567.49,929.7C567.49,913.9 564.98,907.36 557.91,904.7L553,902.84L558.08,901.56C568.08,899.03 580.08,892.56 580.08,876.21C580.08,863.09 569.8,859.14 561.17,858.13C556.737,857.642 552.279,857.429 547.82,857.49L514.79,857.49L499.34,944.88L516.51,944.88L522.81,909.26L532.47,909.26C535,909.26 537.26,909.26 539.78,909.4C544.52,909.71 550.15,912.7 550.15,925.23C550.26,935.55 550.46,940.57 551,944.88ZM537.73,897.44L524.86,897.44L529.64,870.24L542.64,870.24C545.58,870.24 547.84,870.37 549.71,870.5C557.19,871.2 560.97,874.85 560.97,881.34C560.97,890.74 555.26,896.4 544.88,897.34C542.8,897.44 540.66,897.44 537.72,897.44L537.73,897.44ZM528.79,894.15L537.73,894.15C540.56,894.15 542.65,894.15 544.59,894.03C550.53,893.51 557.59,890.89 557.59,881.34C557.59,876.64 555.05,874.34 549.36,873.78C547.59,873.66 545.36,873.52 542.55,873.52L532.4,873.52L528.79,894.15Z" style="fill:white;fill-rule:nonzero;"/>
            </g>
            <g transform="matrix(1.02225,0,0,1.02101,-12.0414,-14.0458)">
                <path d="M609.6,920.89L596.86,946.52L574.78,946.52L622.88,855.85L649.82,855.85L665.58,946.52L643.24,946.52L639.57,920.89L609.6,920.89ZM632.73,874.51L617.62,904.73L637.07,904.73L632.73,874.51Z" style="fill:white;fill-rule:nonzero;"/>
            </g>
            <g transform="matrix(1.02225,0,0,1.02101,-12.0414,-14.0458)">
                <path d="M667.54,948.16L641.82,948.16L638.14,922.54L610.62,922.54L597.88,948.16L572.06,948.16L621.89,854.21L651.2,854.21L667.54,948.16ZM644.67,944.88L663.67,944.88L648.47,857.49L623.87,857.49L577.51,944.88L595.84,944.88L608.59,919.25L641,919.25L644.67,944.88ZM639,906.37L615,906.37L633.66,869.07L639,906.37ZM620.32,903.09L635.21,903.09L631.89,879.94L620.32,903.09Z" style="fill:white;fill-rule:nonzero;"/>
            </g>
            <g transform="matrix(1.02225,0,0,1.02101,-12.0414,-14.0458)">
                <path d="M721.3,871.88L708.16,946.52L687.66,946.52L700.81,871.88L670.58,871.88L673.47,855.88L754.42,855.88L751.42,871.88L721.3,871.88Z" style="fill:white;fill-rule:nonzero;"/>
            </g>
            <g transform="matrix(1.02225,0,0,1.02101,-12.0414,-14.0458)">
                <path d="M709.54,948.16L685.7,948.16L698.85,873.52L668.62,873.52L672.1,854.21L756.4,854.21L752.76,873.52L722.68,873.52L709.54,948.16ZM689.62,944.88L706.79,944.88L719.93,870.24L750,870.24L752.4,857.49L674.8,857.49L672.5,870.24L702.72,870.24L689.62,944.88Z" style="fill:white;fill-rule:nonzero;"/>
            </g>
            <g transform="matrix(1.02225,0,0,1.02101,-12.0414,-14.0458)">
                <path d="M777.29,893L819.73,893L816.84,909L774.39,909L770.72,930.29L817.36,930.29L814.47,946.45L747.32,946.45L763.32,855.78L829.15,855.78L826.26,871.78L781,871.78L777.29,893Z" style="fill:white;fill-rule:nonzero;"/>
            </g>
            <g transform="matrix(1.02225,0,0,1.02101,-12.0414,-14.0458)">
                <path d="M815.84,948.16L745.37,948.16L762,854.21L831.17,854.21L827.69,873.52L782.35,873.52L779.24,891.39L821.69,891.39L818.21,910.71L775.78,910.71L772.67,928.71L819.33,928.71L815.84,948.16ZM749.28,944.88L813.1,944.88L815.4,932L768.76,932L773,907.42L815.45,907.42L817.76,894.68L775.33,894.68L779.58,870.24L824.93,870.24L827.23,857.49L764.74,857.49L749.28,944.88Z" style="fill:white;fill-rule:nonzero;"/>
            </g>
            <g transform="matrix(1.02225,0,0,1.02101,-12.0414,-14.0458)">
                <path d="M853.34,535.9L1042.89,526C1043.45,525.964 1044.01,525.945 1044.57,525.945C1058.69,525.945 1070.32,537.569 1070.32,551.695C1070.32,552.084 1070.31,552.472 1070.29,552.86L1065.39,727.18C1064.99,741.43 1052.66,752.31 1038.03,751.59L858.03,742.7C845.83,742.09 835.75,731.27 835.39,718.45L831,562.34C830.62,548.44 840.55,536.56 853.34,535.9Z" style="fill:url(#_Linear9);fill-rule:nonzero;"/>
            </g>
            <g transform="matrix(1.02225,0,0,1.02101,-12.0414,-14.0458)">
                <path d="M877.16,622.4C877.16,653.16 901.23,672.21 937.38,691.4C939.699,692.612 942.471,692.612 944.79,691.4C965.79,680.25 979.35,670.94 988.64,661.23C999.64,649.7 1005,637.01 1005,622.43C1005,599.43 990,585.5 975.23,581.9C972.339,581.2 969.375,580.844 966.4,580.84C958.112,580.829 950.076,583.717 943.69,589L941.23,591L938.76,589C930.44,582.17 919.23,579.68 908.02,582.17C892.66,585.53 877.16,599.3 877.16,622.4ZM893,622.4C893,607.1 903,599.48 911.46,597.59C918.81,595.96 929.1,597.7 933.91,607.98C935.175,610.711 937.901,612.486 940.91,612.54C943.917,612.58 946.702,610.922 948.1,608.26C951.9,600.89 958.57,596.66 966.4,596.66C968.108,596.657 969.811,596.862 971.47,597.27C980.01,599.34 989.14,607.04 989.14,622.4C989.14,641.74 976.62,655.82 942.94,674.4L941.06,675.4L939.19,674.4C905.53,655.82 893,641.74 893,622.4Z" style="fill:white;fill-rule:nonzero;"/>
            </g>
            <g transform="matrix(1.02225,0,0,1.02101,-12.0414,-14.0458)">
                <path d="M654.16,806.86L656.31,807.86C656.397,807.899 656.491,807.92 656.587,807.92C656.852,807.92 657.093,807.763 657.2,807.52C657.348,807.18 657.196,806.778 656.86,806.62L654.68,805.62C654.345,805.474 653.949,805.627 653.8,805.96C653.761,806.047 653.74,806.141 653.74,806.237C653.74,806.502 653.897,806.743 654.14,806.85L654.16,806.86Z" style="fill:white;fill-rule:nonzero;"/>
            </g>
            <g transform="matrix(1.02225,0,0,1.02101,-12.0414,-14.0458)">
                <path d="M661.24,810.22L663.32,811.31C663.427,811.374 663.55,811.409 663.675,811.409C664.054,811.409 664.365,811.097 664.365,810.719C664.365,810.448 664.206,810.202 663.96,810.09L661.85,808.99C661.754,808.94 661.647,808.914 661.538,808.914C661.281,808.914 661.045,809.06 660.93,809.29C660.877,809.388 660.849,809.498 660.849,809.61C660.849,809.864 660.993,810.097 661.22,810.21L661.24,810.22Z" style="fill:white;fill-rule:nonzero;"/>
            </g>
            <g transform="matrix(1.02225,0,0,1.02101,-12.0414,-14.0458)">
                <path d="M668.1,814L670.1,815.21C670.195,815.255 670.3,815.279 670.405,815.279C670.795,815.279 671.115,814.959 671.115,814.569C671.115,814.345 671.009,814.134 670.83,814L668.83,812.79C668.717,812.718 668.587,812.68 668.453,812.68C668.069,812.68 667.753,812.996 667.753,813.38C667.753,813.632 667.89,813.866 668.11,813.99L668.1,814Z" style="fill:white;fill-rule:nonzero;"/>
            </g>
            <g transform="matrix(1.02225,0,0,1.02101,-12.0414,-14.0458)">
                <path d="M674.72,818.16L676.66,819.49C676.782,819.578 676.93,819.626 677.08,819.626C677.475,819.626 677.8,819.301 677.8,818.906C677.8,818.661 677.676,818.432 677.47,818.3L675.47,816.97C675.339,816.857 675.172,816.795 675,816.795C674.605,816.795 674.28,817.12 674.28,817.515C674.28,817.78 674.426,818.025 674.66,818.15L674.72,818.16Z" style="fill:white;fill-rule:nonzero;"/>
            </g>
            <g transform="matrix(1.02225,0,0,1.02101,-12.0414,-14.0458)">
                <path d="M681.09,822.71L682.95,824.14C683.263,824.369 683.706,824.312 683.95,824.01C684.174,823.696 684.117,823.256 683.82,823.01L682,821.54C681.872,821.442 681.716,821.389 681.555,821.389C681.154,821.389 680.824,821.719 680.824,822.12C680.824,822.347 680.93,822.562 681.11,822.7L681.09,822.71Z" style="fill:white;fill-rule:nonzero;"/>
            </g>
            <g transform="matrix(1.02225,0,0,1.02101,-12.0414,-14.0458)">
                <path d="M687.19,827.61L688.96,829.15C689.098,829.271 689.276,829.338 689.46,829.338C689.876,829.338 690.218,828.996 690.218,828.58C690.218,828.362 690.124,828.154 689.96,828.01L688.16,826.46C688.022,826.338 687.844,826.271 687.66,826.271C687.246,826.271 686.906,826.611 686.906,827.025C686.906,827.241 686.998,827.447 687.16,827.59L687.19,827.61Z" style="fill:white;fill-rule:nonzero;"/>
            </g>
            <g transform="matrix(1.02225,0,0,1.02101,-12.0414,-14.0458)">
                <path d="M693,832.85L694.69,834.49C694.832,834.627 695.022,834.704 695.22,834.704C695.639,834.704 695.984,834.359 695.984,833.94C695.984,833.733 695.899,833.534 695.75,833.39L694.04,831.75C693.899,831.607 693.706,831.526 693.505,831.526C693.304,831.526 693.111,831.607 692.97,831.75C692.824,831.89 692.741,832.083 692.741,832.285C692.741,832.487 692.824,832.68 692.97,832.82L693,832.85Z" style="fill:white;fill-rule:nonzero;"/>
            </g>
            <g transform="matrix(1.02225,0,0,1.02101,-12.0414,-14.0458)">
                <path d="M698.52,838.41L700.11,840.13C700.245,840.23 700.408,840.284 700.576,840.284C701.004,840.284 701.356,839.932 701.356,839.504C701.356,839.373 701.323,839.245 701.26,839.13L699.64,837.39C699.492,837.208 699.27,837.103 699.035,837.103C698.607,837.103 698.255,837.455 698.255,837.883C698.255,838.097 698.344,838.303 698.5,838.45L698.52,838.41Z" style="fill:white;fill-rule:nonzero;"/>
            </g>
            <g transform="matrix(1.02225,0,0,1.02101,-12.0414,-14.0458)">
                <path d="M703.72,844.26L705.22,846.08C705.362,846.329 705.628,846.483 705.915,846.483C706.354,846.483 706.715,846.122 706.715,845.683C706.715,845.452 706.614,845.232 706.44,845.08L704.92,843.25C704.642,842.919 704.142,842.874 703.81,843.15C703.475,843.428 703.425,843.932 703.7,844.27L703.72,844.26Z" style="fill:white;fill-rule:nonzero;"/>
            </g>
            <g transform="matrix(1.02225,0,0,1.02101,-12.0414,-14.0458)">
                <path d="M708.59,850.39L709.99,852.29C710.146,852.494 710.388,852.614 710.645,852.614C711.097,852.614 711.469,852.242 711.469,851.79C711.469,851.609 711.41,851.434 711.3,851.29L709.88,849.38C709.725,849.178 709.484,849.06 709.23,849.06C708.78,849.06 708.41,849.43 708.41,849.88C708.41,850.061 708.47,850.237 708.58,850.38L708.59,850.39Z" style="fill:white;fill-rule:nonzero;"/>
            </g>
            <g transform="matrix(1.02225,0,0,1.02101,-12.0414,-14.0458)">
                <path d="M713.12,856.78L714.4,858.78C714.544,859.05 714.826,859.218 715.132,859.218C715.587,859.218 715.962,858.844 715.962,858.388C715.962,858.2 715.898,858.017 715.78,857.87L714.47,855.87C714.318,855.64 714.061,855.502 713.786,855.502C713.623,855.502 713.465,855.55 713.33,855.64C713.101,855.789 712.962,856.045 712.962,856.318C712.962,856.479 713.01,856.636 713.1,856.77L713.12,856.78Z" style="fill:white;fill-rule:nonzero;"/>
            </g>
            <g transform="matrix(1.02225,0,0,1.02101,-12.0414,-14.0458)">
                <path d="M717.28,863.41L718.46,865.41C718.607,865.669 718.883,865.829 719.181,865.829C719.332,865.829 719.481,865.788 719.61,865.71C719.867,865.559 720.026,865.283 720.026,864.985C720.026,864.836 719.986,864.689 719.91,864.56L718.71,862.51C718.562,862.254 718.287,862.095 717.991,862.095C717.843,862.095 717.698,862.135 717.57,862.21C717.312,862.355 717.151,862.629 717.151,862.925C717.151,863.075 717.192,863.222 717.27,863.35L717.28,863.41Z" style="fill:white;fill-rule:nonzero;"/>
            </g>
            <g transform="matrix(1.02225,0,0,1.02101,-12.0414,-14.0458)">
                <path d="M721.07,870.26L722.14,872.35C722.285,872.635 722.578,872.816 722.898,872.816C723.035,872.816 723.169,872.783 723.29,872.72C723.708,872.507 723.879,871.99 723.67,871.57L722.58,869.46C722.426,869.208 722.15,869.053 721.855,869.053C721.388,869.053 721.005,869.437 721.005,869.903C721.005,870.015 721.027,870.126 721.07,870.23L721.07,870.26Z" style="fill:white;fill-rule:nonzero;"/>
            </g>
            <g transform="matrix(1.02225,0,0,1.02101,-12.0414,-14.0458)">
                <path d="M724.47,877.31L725.41,879.46C725.605,879.896 726.121,880.098 726.56,879.91C726.873,879.77 727.076,879.458 727.076,879.115C727.076,878.993 727.05,878.872 727,878.76L726,876.59C725.809,876.155 725.296,875.953 724.86,876.14C724.428,876.339 724.231,876.854 724.42,877.29L724.47,877.31Z" style="fill:white;fill-rule:nonzero;"/>
            </g>
            <g transform="matrix(1.02225,0,0,1.02101,-12.0414,-14.0458)">
                <path d="M727.47,884.53L728.28,886.73C728.408,887.077 728.74,887.309 729.11,887.309C729.595,887.309 729.994,886.91 729.994,886.425C729.994,886.321 729.976,886.218 729.94,886.12L729.1,883.9C728.971,883.557 728.641,883.329 728.275,883.329C727.792,883.329 727.394,883.727 727.394,884.21C727.394,884.316 727.413,884.421 727.45,884.52L727.47,884.53Z" style="fill:white;fill-rule:nonzero;"/>
            </g>
            <g transform="matrix(1.02225,0,0,1.02101,-12.0414,-14.0458)">
                <path d="M730,891.91L730.69,894.15C730.833,894.621 731.338,894.892 731.81,894.75C732.279,894.598 732.547,894.094 732.41,893.62L731.7,891.35C731.558,891.02 731.232,890.804 730.873,890.804C730.379,890.804 729.973,891.211 729.973,891.704C729.973,891.763 729.978,891.822 729.99,891.88L730,891.91Z" style="fill:white;fill-rule:nonzero;"/>
            </g>
            <g transform="matrix(1.02225,0,0,1.02101,-12.0414,-14.0458)">
                <path d="M732.17,899.43L732.72,901.71C732.783,902.162 733.174,902.502 733.631,902.502C734.136,902.502 734.551,902.087 734.551,901.582C734.551,901.479 734.534,901.377 734.5,901.28L733.93,898.97C733.831,898.563 733.464,898.274 733.046,898.274C732.973,898.274 732.901,898.283 732.83,898.3C732.343,898.422 732.041,898.922 732.16,899.41L732.17,899.43Z" style="fill:white;fill-rule:nonzero;"/>
            </g>
            <g transform="matrix(1.02225,0,0,1.02101,-12.0414,-14.0458)">
                <path d="M733.84,907.06L734.26,909.37C734.318,909.833 734.716,910.185 735.183,910.185C735.693,910.185 736.113,909.765 736.113,909.255C736.113,909.186 736.105,909.117 736.09,909.05L735.66,906.71C735.617,906.233 735.213,905.863 734.734,905.863C734.223,905.863 733.804,906.282 733.804,906.793C733.804,906.88 733.816,906.966 733.84,907.05L733.84,907.06Z" style="fill:white;fill-rule:nonzero;"/>
            </g>
            <g transform="matrix(1.02225,0,0,1.02101,-12.0414,-14.0458)">
                <path d="M735.05,914.78L735.32,917.11C735.411,917.55 735.801,917.868 736.25,917.868C736.772,917.868 737.2,917.439 737.2,916.918C737.2,916.909 737.2,916.899 737.2,916.89L736.92,914.53C736.862,914.06 736.459,913.703 735.985,913.703C735.468,913.703 735.043,914.128 735.043,914.645C735.043,914.683 735.045,914.722 735.05,914.76L735.05,914.78Z" style="fill:white;fill-rule:nonzero;"/>
            </g>
            <g transform="matrix(1.02225,0,0,1.02101,-12.0414,-14.0458)">
                <path d="M735.79,922.56L735.92,924.9C735.966,925.414 736.404,925.812 736.92,925.81C737.43,925.759 737.823,925.323 737.82,924.81L737.68,922.44C737.699,922.363 737.708,922.284 737.708,922.204C737.708,921.655 737.257,921.204 736.708,921.204C736.16,921.204 735.708,921.655 735.708,922.204C735.708,922.322 735.729,922.439 735.77,922.55L735.79,922.56Z" style="fill:white;fill-rule:nonzero;"/>
            </g>
            <g transform="matrix(1.02225,0,0,1.02101,-12.0414,-14.0458)">
                <path d="M736.07,930.34L736.07,932.71C736.047,932.795 736.035,932.884 736.035,932.972C736.035,933.521 736.486,933.972 737.035,933.972C737.584,933.972 738.035,933.521 738.035,932.972C738.035,932.884 738.023,932.795 738,932.71L738,930.34C738.023,930.255 738.035,930.166 738.035,930.078C738.035,929.529 737.584,929.078 737.035,929.078C736.486,929.078 736.035,929.529 736.035,930.078C736.035,930.166 736.047,930.255 736.07,930.34Z" style="fill:white;fill-rule:nonzero;"/>
            </g>
            <g transform="matrix(1.02225,0,0,1.02101,-12.0414,-14.0458)">
                <path d="M735.9,938.17L735.76,940.51C735.758,941.026 736.156,941.464 736.67,941.51C737.19,941.512 737.628,941.108 737.67,940.59L737.81,938.22C737.723,937.748 737.307,937.401 736.827,937.401C736.388,937.401 735.998,937.69 735.87,938.11L735.9,938.17Z" style="fill:white;fill-rule:nonzero;"/>
            </g>
            <g transform="matrix(1.02225,0,0,1.02101,-12.0414,-14.0458)">
                <path d="M735.28,946L735.01,948.33C734.974,948.435 734.956,948.545 734.956,948.655C734.956,949.204 735.407,949.655 735.956,949.655C736.504,949.655 736.956,949.204 736.956,948.655C736.956,948.62 736.954,948.585 736.95,948.55L737.22,946.19C737.267,945.661 736.886,945.182 736.36,945.11C735.831,945.063 735.352,945.444 735.28,945.97L735.28,946Z" style="fill:white;fill-rule:nonzero;"/>
            </g>
            <g transform="matrix(1.02225,0,0,1.02101,-12.0414,-14.0458)">
                <path d="M643.3,791.36L643.71,802.92L635.71,798.23L643.3,791.36Z" style="fill:url(#_Linear10);fill-rule:nonzero;"/>
            </g>
            <g transform="matrix(1.02225,0,0,1.02101,-12.0414,-14.0458)">
                <path d="M591.11,786.58L623.28,812.84C623.802,813.268 624.456,813.502 625.131,813.502C626.051,813.502 626.919,813.067 627.47,812.33L652.62,779C652.771,778.797 652.852,778.55 652.852,778.297C652.852,777.65 652.319,777.117 651.672,777.117C651.614,777.117 651.557,777.122 651.5,777.13L591.11,786.58Z" style="fill:url(#_Linear11);fill-rule:nonzero;"/>
            </g>
            <g transform="matrix(1.02225,0,0,1.02101,-12.0414,-14.0458)">
                <path d="M643.3,791.36L591.11,786.58L639.25,796.75L639.5,799.95L643.3,791.36Z" style="fill:url(#_Linear12);fill-rule:nonzero;"/>
            </g>
            <g transform="matrix(1.02225,0,0,1.02101,-12.0414,-14.0458)">
                <path d="M636.83,799.92L643.71,802.92L639.25,796.75L636.83,799.92Z" style="fill:url(#_Linear13);fill-rule:nonzero;"/>
            </g>
            <g transform="matrix(1.02225,0,0,1.02101,-12.0414,-14.0458)">
                <path d="M861.48,743C860.25,744.31 859.02,745 857.82,744.43C852.82,742.19 838.6,697.63 835.73,699.81C830.36,703.89 843.38,727.44 840.52,728.89C837.66,730.34 829.28,703 823.69,703.76C818.1,704.52 834.1,728.85 832.52,730.97C830.94,733.09 814.32,710.16 811.24,714.97C809.56,717.59 826.53,734.97 823.24,736.58C819.95,738.19 804.81,726.9 803.18,730.1C801.55,733.3 817.18,737.83 821.81,746.53C826.44,755.23 834.39,759.04 837.58,775.1C838.03,777.4 838.52,780.58 839.06,784.38L862.06,777.85C859.29,771.16 857.48,766.67 857.24,766.01C856.65,764.42 863.57,752.73 868.57,743.01L861.48,743Z" style="fill:url(#_Linear14);fill-rule:nonzero;"/>
            </g>
            <g transform="matrix(1.02225,0,0,1.02101,-12.0414,-14.0458)">
                <path d="M995,948C995.58,940.16 996,929.76 995.85,916.54C995.46,881.14 990.52,786.65 987.85,786.37C987.62,786.37 986.85,786.17 986.85,786.17C986.85,786.17 986.72,850.17 975.68,948L995,948Z" style="fill:url(#_Linear15);fill-rule:nonzero;"/>
            </g>
            <g transform="matrix(1.02225,0,0,1.02101,-12.0414,-14.0458)">
                <path d="M995,948C995.58,940.16 996,929.76 995.85,916.54C995.46,881.14 990.52,786.65 987.85,786.37C987.62,786.37 986.85,786.17 986.85,786.17C986.85,786.17 986.72,850.17 975.68,948L995,948Z" style="fill:url(#_Linear16);fill-rule:nonzero;"/>
            </g>
            <g transform="matrix(1.02225,0,0,1.02101,-12.0414,-14.0458)">
                <path d="M983.66,757.68L986.81,786.17C986.81,786.17 968.66,823.9 957.52,819.7C948.17,816.18 954.04,788.11 954.04,788.11C954.04,788.11 955.11,781.69 956.72,774.29C957.84,769.12 958.67,763.55 958.27,759.54C957.28,749.79 983.66,757.68 983.66,757.68Z" style="fill:url(#_Linear17);fill-rule:nonzero;"/>
            </g>
            <g transform="matrix(1.02225,0,0,1.02101,-12.0414,-14.0458)">
                <path d="M953.57,694.46C953.57,694.46 944.15,711.38 944.4,724.98C944.65,738.58 948.25,747.6 948.25,747.6L979.32,704L953.57,694.46Z" style="fill:url(#_Linear18);fill-rule:nonzero;"/>
            </g>
            <g transform="matrix(1.02225,0,0,1.02101,-12.0414,-14.0458)">
                <path d="M940.64,722.49C940.53,727.27 942.69,731.2 945.47,731.26C948.25,731.32 950.59,727.51 950.7,722.73C950.81,717.95 948.7,714.02 945.88,713.95C943.06,713.88 940.76,717.71 940.64,722.49Z" style="fill:url(#_Linear19);fill-rule:nonzero;"/>
            </g>
            <g transform="matrix(1.02225,0,0,1.02101,-12.0414,-14.0458)">
                <path d="M990.91,709.69C991.68,709.47 994.67,748.89 983.97,759.05C973.27,769.21 953.44,771.58 946.91,762.69C939.68,752.85 942.56,710.84 958.91,700.69C975.26,690.54 990.91,709.69 990.91,709.69Z" style="fill:url(#_Linear20);fill-rule:nonzero;"/>
            </g>
            <g transform="matrix(1.02225,0,0,1.02101,-12.0414,-14.0458)">
                <path d="M991.91,685C1001.22,692 1005.91,697.22 1012.84,710.36C1021.4,726.51 1008.35,744.95 996.84,752.78C985.33,760.61 984.92,769 984.92,769L984.02,763.91C983.651,762.361 983.579,760.756 983.81,759.18C984.124,757.703 984.589,756.261 985.2,754.88C986.06,752.6 988.77,744.82 989.91,742.73C992.91,737.23 993.48,736.04 991.41,731.19C989.82,727.46 990.66,718.9 988.17,712.73L971.65,710.49C971.65,710.49 961.29,708.84 955.7,703.31C939.63,687.48 967.3,666.24 991.91,685Z" style="fill:url(#_Linear21);fill-rule:nonzero;"/>
            </g>
            <g transform="matrix(1.02225,0,0,1.02101,-12.0414,-14.0458)">
                <path d="M987.88,735.84C986.22,740.32 986.98,744.74 989.58,745.71C992.18,746.68 995.65,743.83 997.31,739.35C998.97,734.87 998.22,730.45 995.61,729.48C993,728.51 989.55,731.36 987.88,735.84Z" style="fill:url(#_Linear22);fill-rule:nonzero;"/>
            </g>
            <g transform="matrix(1.02225,0,0,1.02101,-12.0414,-14.0458)">
                <path d="M970,749.69L950.42,747.94C950.42,747.94 950.21,755.41 958.8,756.43C969.27,757.68 970,749.69 970,749.69Z" style="fill:white;fill-rule:nonzero;"/>
            </g>
            <g transform="matrix(1.02225,0,0,1.02101,-12.0414,-14.0458)">
                <path d="M977,730.06C976.886,731.337 975.802,732.328 974.52,732.328C973.154,732.328 972.03,731.204 972.03,729.838C972.03,728.472 973.154,727.348 974.52,727.348C974.6,727.348 974.68,727.352 974.76,727.36C976.113,727.491 977.121,728.706 977,730.06Z" style="fill-rule:nonzero;"/>
            </g>
            <g transform="matrix(1.02225,0,0,1.02101,-12.0414,-14.0458)">
                <path d="M956.38,723.4C956.383,723.452 956.385,723.503 956.385,723.555C956.385,724.916 955.265,726.035 953.905,726.035C952.544,726.035 951.425,724.916 951.425,723.555C951.425,722.253 952.45,721.161 953.75,721.08C955.108,720.995 956.295,722.042 956.38,723.4Z" style="fill-rule:nonzero;"/>
            </g>
            <g transform="matrix(1.02225,0,0,1.02101,-12.0414,-14.0458)">
                <path d="M972.26,724.78C972.508,724.905 972.802,724.905 973.05,724.78C974.093,724.325 975.268,724.268 976.35,724.62C977.384,725.103 978.164,726.006 978.49,727.1C978.618,727.436 978.943,727.66 979.303,727.66C979.411,727.66 979.519,727.64 979.62,727.6C980.069,727.428 980.298,726.92 980.13,726.47C979.634,724.918 978.493,723.653 977,723C975.472,722.472 973.8,722.54 972.32,723.19C971.884,723.396 971.695,723.924 971.9,724.36C971.97,724.536 972.097,724.684 972.26,724.78Z" style="fill-rule:nonzero;"/>
            </g>
            <g transform="matrix(1.02225,0,0,1.02101,-12.0414,-14.0458)">
                <path d="M950.85,719.15C951.109,719.251 951.401,719.217 951.63,719.06C952.596,718.459 953.746,718.225 954.87,718.4C955.964,718.719 956.87,719.491 957.36,720.52C957.508,720.819 957.815,721.009 958.148,721.009C958.631,721.009 959.028,720.612 959.028,720.129C959.028,719.955 958.977,719.785 958.88,719.64C958.154,718.178 956.829,717.101 955.25,716.69C953.657,716.401 952.013,716.726 950.65,717.6C950.253,717.872 950.15,718.422 950.42,718.82C950.525,718.973 950.675,719.089 950.85,719.15Z" style="fill-rule:nonzero;"/>
            </g>
            <g transform="matrix(1.02225,0,0,1.02101,-12.0414,-14.0458)">
                <path d="M956.84,723.64C956.842,723.667 956.843,723.693 956.843,723.72C956.843,724.269 956.392,724.72 955.843,724.72C955.295,724.72 954.843,724.269 954.843,723.72C954.843,723.173 955.293,722.722 955.84,722.72C956.36,722.718 956.798,723.122 956.84,723.64Z" style="fill:white;fill-rule:nonzero;"/>
            </g>
            <g transform="matrix(1.02225,0,0,1.02101,-12.0414,-14.0458)">
                <path d="M977.41,730.78C977.361,731.293 976.925,731.69 976.41,731.69C975.859,731.69 975.405,731.236 975.405,730.685C975.405,730.653 975.407,730.622 975.41,730.59C975.459,730.077 975.895,729.68 976.41,729.68C976.961,729.68 977.415,730.134 977.415,730.685C977.415,730.717 977.413,730.748 977.41,730.78Z" style="fill:white;fill-rule:nonzero;"/>
            </g>
            <g transform="matrix(1.02225,0,0,1.02101,-12.0414,-14.0458)">
                <path d="M950.43,722.6C950.651,722.68 950.898,722.638 951.08,722.49C951.796,721.901 952.695,721.579 953.622,721.579C954.867,721.579 956.044,722.16 956.8,723.15C956.928,723.292 957.109,723.373 957.3,723.373C957.669,723.373 957.973,723.069 957.973,722.7C957.973,722.534 957.911,722.373 957.8,722.25C955.944,719.977 952.548,719.63 950.27,721.48C950.121,721.605 950.035,721.79 950.035,721.985C950.035,722.14 950.09,722.291 950.19,722.41C950.256,722.49 950.337,722.554 950.43,722.6Z" style="fill-rule:nonzero;"/>
            </g>
            <g transform="matrix(1.02225,0,0,1.02101,-12.0414,-14.0458)">
                <path d="M971.15,728.18C971.353,728.3 971.607,728.3 971.81,728.18C972.426,727.817 973.128,727.625 973.843,727.625C975.309,727.625 976.662,728.431 977.36,729.72C977.481,729.899 977.683,730.006 977.899,730.006C978.031,730.006 978.161,729.966 978.27,729.89C978.567,729.688 978.648,729.28 978.45,728.98C976.965,726.444 973.657,725.577 971.12,727.06C970.924,727.177 970.803,727.39 970.803,727.618C970.803,727.739 970.837,727.857 970.9,727.96C970.961,728.055 971.048,728.131 971.15,728.18Z" style="fill-rule:nonzero;"/>
            </g>
            <g transform="matrix(1.02225,0,0,1.02101,-12.0414,-14.0458)">
                <path d="M965.43,723.86C965.25,724.256 965.029,724.631 964.77,724.98C963.7,726.59 962.71,728.26 961.77,729.98C960.32,732.68 958.98,735.58 956.57,737.48C956.167,737.764 955.804,738.1 955.49,738.48C954.03,740.41 957.49,742.18 958.96,742.48C960.43,742.78 961.18,742.12 962.4,741.54C962.724,741.338 963.136,741.338 963.46,741.54C963.784,741.857 963.835,742.365 963.58,742.74C963.319,743.099 962.951,743.369 962.53,743.51C959.41,744.79 954.33,743.59 954.05,739.62C953.975,737.812 954.989,736.124 956.62,735.34C956.74,735.28 956.89,735.18 956.85,735.05C956.81,734.92 956.59,735.13 956.72,735.13C959.173,731.07 961.613,727.007 964.04,722.94C964.185,722.743 964.415,722.627 964.66,722.627C964.905,722.627 965.135,722.743 965.28,722.94C965.499,723.193 965.557,723.55 965.43,723.86Z" style="fill:rgb(229,135,97);fill-rule:nonzero;"/>
            </g>
            <g transform="matrix(1.02225,0,0,1.02101,-12.0414,-14.0458)">
                <path d="M986.8,786.17L954.31,786.88C954.31,786.88 947.84,795.73 940.68,816.19C937.56,825.1 934.15,866.88 930.59,890.58C926,921.3 908,948 908,948L975.63,948C986.67,850.21 986.8,786.17 986.8,786.17Z" style="fill:url(#_Linear23);fill-rule:nonzero;"/>
            </g>
            <g transform="matrix(1.02225,0,0,1.02101,-12.0414,-14.0458)">
                <path d="M954.62,786.78L954.27,786.78C954.27,786.78 952.4,786.89 942.88,787.35C938.88,787.54 934.73,787.65 931.01,789.27C923.25,792.66 881.69,837.05 878.18,835.58C877.18,835.15 873.18,817.58 863.48,769.1C863.04,766.88 835.71,775.71 835.71,775.71C835.71,775.71 842.19,877.94 863.55,884.82C870.42,887.03 910.79,863.11 921.12,856.88C920.38,869.22 919.93,883.28 917.83,896.47C914.49,917.47 904.21,935.56 895.34,948L931.29,948C935.29,920.56 951,814 953,796L954.62,786.78Z" style="fill:url(#_Linear24);fill-rule:nonzero;"/>
            </g>
        </g>
    </g>
    <defs>
        <linearGradient id="_Linear2" x1="0" y1="0" x2="1" y2="0" gradientUnits="userSpaceOnUse" gradientTransform="matrix(14.2001,-82.6947,82.6947,14.2001,1063.37,666.01)"><stop offset="0" style="stop-color:rgb(252,222,179);stop-opacity:1"/><stop offset="0.21" style="stop-color:rgb(251,213,157);stop-opacity:1"/><stop offset="0.49" style="stop-color:rgb(250,203,135);stop-opacity:1"/><stop offset="0.75" style="stop-color:rgb(249,198,122);stop-opacity:1"/><stop offset="1" style="stop-color:rgb(249,196,118);stop-opacity:1"/></linearGradient>
        <linearGradient id="_Linear3" x1="0" y1="0" x2="1" y2="0" gradientUnits="userSpaceOnUse" gradientTransform="matrix(8.83583e-16,14.43,-14.43,8.83583e-16,360.04,800.34)"><stop offset="0" style="stop-color:rgb(153,202,47);stop-opacity:1"/><stop offset="0.13" style="stop-color:rgb(143,198,46);stop-opacity:1"/><stop offset="0.34" style="stop-color:rgb(116,188,45);stop-opacity:1"/><stop offset="0.62" style="stop-color:rgb(72,172,43);stop-opacity:1"/><stop offset="0.94" style="stop-color:rgb(11,150,40);stop-opacity:1"/><stop offset="1" style="stop-color:rgb(0,146,39);stop-opacity:1"/></linearGradient>
        <linearGradient id="_Linear4" x1="0" y1="0" x2="1" y2="0" gradientUnits="userSpaceOnUse" gradientTransform="matrix(1.27562e-14,208.325,-208.325,1.27562e-14,7003.75,12725.3)"><stop offset="0" style="stop-color:rgb(153,202,47);stop-opacity:1"/><stop offset="0.13" style="stop-color:rgb(143,198,46);stop-opacity:1"/><stop offset="0.34" style="stop-color:rgb(116,188,45);stop-opacity:1"/><stop offset="0.62" style="stop-color:rgb(72,172,43);stop-opacity:1"/><stop offset="0.94" style="stop-color:rgb(11,150,40);stop-opacity:1"/><stop offset="1" style="stop-color:rgb(0,146,39);stop-opacity:1"/></linearGradient>
        <linearGradient id="_Linear5" x1="0" y1="0" x2="1" y2="0" gradientUnits="userSpaceOnUse" gradientTransform="matrix(4.36013e-14,712.063,-712.063,4.36013e-14,15824.8,22631.3)"><stop offset="0" style="stop-color:rgb(153,202,47);stop-opacity:1"/><stop offset="0.13" style="stop-color:rgb(143,198,46);stop-opacity:1"/><stop offset="0.34" style="stop-color:rgb(116,188,45);stop-opacity:1"/><stop offset="0.62" style="stop-color:rgb(72,172,43);stop-opacity:1"/><stop offset="0.94" style="stop-color:rgb(11,150,40);stop-opacity:1"/><stop offset="1" style="stop-color:rgb(0,146,39);stop-opacity:1"/></linearGradient>
        <linearGradient id="_Linear6" x1="0" y1="0" x2="1" y2="0" gradientUnits="userSpaceOnUse" gradientTransform="matrix(3.80228e-15,62.0959,-62.0959,3.80228e-15,2651.37,7444.53)"><stop offset="0" style="stop-color:rgb(153,202,47);stop-opacity:1"/><stop offset="0.13" style="stop-color:rgb(143,198,46);stop-opacity:1"/><stop offset="0.34" style="stop-color:rgb(116,188,45);stop-opacity:1"/><stop offset="0.62" style="stop-color:rgb(72,172,43);stop-opacity:1"/><stop offset="0.94" style="stop-color:rgb(11,150,40);stop-opacity:1"/><stop offset="1" style="stop-color:rgb(0,146,39);stop-opacity:1"/></linearGradient>
        <linearGradient id="_Linear7" x1="0" y1="0" x2="1" y2="0" gradientUnits="userSpaceOnUse" gradientTransform="matrix(3.80422e-15,62.1276,-62.1276,3.80422e-15,4599.37,6977.03)"><stop offset="0" style="stop-color:rgb(153,202,47);stop-opacity:1"/><stop offset="0.13" style="stop-color:rgb(143,198,46);stop-opacity:1"/><stop offset="0.34" style="stop-color:rgb(116,188,45);stop-opacity:1"/><stop offset="0.62" style="stop-color:rgb(72,172,43);stop-opacity:1"/><stop offset="0.94" style="stop-color:rgb(11,150,40);stop-opacity:1"/><stop offset="1" style="stop-color:rgb(0,146,39);stop-opacity:1"/></linearGradient>
        <linearGradient id="_Linear8" x1="0" y1="0" x2="1" y2="0" gradientUnits="userSpaceOnUse" gradientTransform="matrix(-165.74,13.2592,-13.2592,-165.74,1114.23,796.552)"><stop offset="0" style="stop-color:rgb(43,53,130);stop-opacity:1"/><stop offset="1" style="stop-color:rgb(21,14,66);stop-opacity:1"/></linearGradient>
        <linearGradient id="_Linear9" x1="0" y1="0" x2="1" y2="0" gradientUnits="userSpaceOnUse" gradientTransform="matrix(3.11835e-12,50926.6,-50926.6,3.11835e-12,228347,119233)"><stop offset="0" style="stop-color:rgb(153,202,47);stop-opacity:1"/><stop offset="0.13" style="stop-color:rgb(143,198,46);stop-opacity:1"/><stop offset="0.34" style="stop-color:rgb(116,188,45);stop-opacity:1"/><stop offset="0.62" style="stop-color:rgb(72,172,43);stop-opacity:1"/><stop offset="0.94" style="stop-color:rgb(11,150,40);stop-opacity:1"/><stop offset="1" style="stop-color:rgb(0,146,39);stop-opacity:1"/></linearGradient>
        <linearGradient id="_Linear10" x1="0" y1="0" x2="1" y2="0" gradientUnits="userSpaceOnUse" gradientTransform="matrix(-400.938,-215.039,215.039,-400.938,6131.63,10363.9)"><stop offset="0" style="stop-color:rgb(153,202,47);stop-opacity:1"/><stop offset="0.13" style="stop-color:rgb(143,198,46);stop-opacity:1"/><stop offset="0.34" style="stop-color:rgb(116,188,45);stop-opacity:1"/><stop offset="0.62" style="stop-color:rgb(72,172,43);stop-opacity:1"/><stop offset="0.94" style="stop-color:rgb(11,150,40);stop-opacity:1"/><stop offset="1" style="stop-color:rgb(0,146,39);stop-opacity:1"/></linearGradient>
        <linearGradient id="_Linear11" x1="0" y1="0" x2="1" y2="0" gradientUnits="userSpaceOnUse" gradientTransform="matrix(-3540.88,-1668.02,1668.02,-3540.88,41290,30725)"><stop offset="0" style="stop-color:rgb(153,202,47);stop-opacity:1"/><stop offset="0.13" style="stop-color:rgb(143,198,46);stop-opacity:1"/><stop offset="0.34" style="stop-color:rgb(116,188,45);stop-opacity:1"/><stop offset="0.62" style="stop-color:rgb(72,172,43);stop-opacity:1"/><stop offset="0.94" style="stop-color:rgb(11,150,40);stop-opacity:1"/><stop offset="1" style="stop-color:rgb(0,146,39);stop-opacity:1"/></linearGradient>
        <linearGradient id="_Linear12" x1="0" y1="0" x2="1" y2="0" gradientUnits="userSpaceOnUse" gradientTransform="matrix(-2443.25,-232.23,232.23,-2443.25,36254.3,11861.5)"><stop offset="0" style="stop-color:rgb(153,202,47);stop-opacity:1"/><stop offset="0.13" style="stop-color:rgb(143,198,46);stop-opacity:1"/><stop offset="0.34" style="stop-color:rgb(116,188,45);stop-opacity:1"/><stop offset="0.62" style="stop-color:rgb(72,172,43);stop-opacity:1"/><stop offset="0.94" style="stop-color:rgb(11,150,40);stop-opacity:1"/><stop offset="1" style="stop-color:rgb(0,146,39);stop-opacity:1"/></linearGradient>
        <linearGradient id="_Linear13" x1="0" y1="0" x2="1" y2="0" gradientUnits="userSpaceOnUse" gradientTransform="matrix(-155.815,-11.2886,11.2886,-155.815,5097.44,5767.56)"><stop offset="0" style="stop-color:rgb(153,202,47);stop-opacity:1"/><stop offset="0.13" style="stop-color:rgb(143,198,46);stop-opacity:1"/><stop offset="0.34" style="stop-color:rgb(116,188,45);stop-opacity:1"/><stop offset="0.62" style="stop-color:rgb(72,172,43);stop-opacity:1"/><stop offset="0.94" style="stop-color:rgb(11,150,40);stop-opacity:1"/><stop offset="1" style="stop-color:rgb(0,146,39);stop-opacity:1"/></linearGradient>
        <linearGradient id="_Linear14" x1="0" y1="0" x2="1" y2="0" gradientUnits="userSpaceOnUse" gradientTransform="matrix(-6.7736,-84.67,84.67,-6.7736,838.724,788.964)"><stop offset="0" style="stop-color:rgb(252,222,179);stop-opacity:1"/><stop offset="0.14" style="stop-color:rgb(251,216,165);stop-opacity:1"/><stop offset="0.47" style="stop-color:rgb(250,205,139);stop-opacity:1"/><stop offset="0.77" style="stop-color:rgb(249,198,124);stop-opacity:1"/><stop offset="1" style="stop-color:rgb(249,196,118);stop-opacity:1"/></linearGradient>
        <linearGradient id="_Linear15" x1="0" y1="0" x2="1" y2="0" gradientUnits="userSpaceOnUse" gradientTransform="matrix(3348.05,0,0,3348.05,13662.1,142528)"><stop offset="0" style="stop-color:rgb(43,53,130);stop-opacity:1"/><stop offset="1" style="stop-color:rgb(21,14,66);stop-opacity:1"/></linearGradient>
        <linearGradient id="_Linear16" x1="0" y1="0" x2="1" y2="0" gradientUnits="userSpaceOnUse" gradientTransform="matrix(-87.11,6.9688,-6.9688,-87.11,995.1,871.246)"><stop offset="0" style="stop-color:rgb(253,245,63);stop-opacity:1"/><stop offset="0.18" style="stop-color:rgb(252,239,64);stop-opacity:1"/><stop offset="0.44" style="stop-color:rgb(249,221,68);stop-opacity:1"/><stop offset="0.73" style="stop-color:rgb(243,193,74);stop-opacity:1"/><stop offset="1" style="stop-color:rgb(237,159,81);stop-opacity:1"/></linearGradient>
        <linearGradient id="_Linear17" x1="0" y1="0" x2="1" y2="0" gradientUnits="userSpaceOnUse" gradientTransform="matrix(-5.1792,-64.74,64.74,-5.1792,970.982,823.52)"><stop offset="0" style="stop-color:rgb(252,222,179);stop-opacity:1"/><stop offset="1" style="stop-color:rgb(249,162,98);stop-opacity:1"/></linearGradient>
        <linearGradient id="_Linear18" x1="0" y1="0" x2="1" y2="0" gradientUnits="userSpaceOnUse" gradientTransform="matrix(-36.57,2.9256,-2.9256,-36.57,979.983,722.794)"><stop offset="0" style="stop-color:rgb(252,222,179);stop-opacity:1"/><stop offset="1" style="stop-color:rgb(249,196,118);stop-opacity:1"/></linearGradient>
        <linearGradient id="_Linear19" x1="0" y1="0" x2="1" y2="0" gradientUnits="userSpaceOnUse" gradientTransform="matrix(102.393,0,0,102.393,8848.65,13322.4)"><stop offset="0" style="stop-color:rgb(252,222,179);stop-opacity:1"/><stop offset="1" style="stop-color:rgb(249,196,118);stop-opacity:1"/></linearGradient>
        <linearGradient id="_Linear20" x1="0" y1="0" x2="1" y2="0" gradientUnits="userSpaceOnUse" gradientTransform="matrix(2472.9,0,0,2472.9,37189.1,52852.9)"><stop offset="0" style="stop-color:rgb(252,222,179);stop-opacity:1"/><stop offset="1" style="stop-color:rgb(249,196,118);stop-opacity:1"/></linearGradient>
        <linearGradient id="_Linear21" x1="0" y1="0" x2="1" y2="0" gradientUnits="userSpaceOnUse" gradientTransform="matrix(-62.39,4.9912,-4.9912,-62.39,1015.22,724.383)"><stop offset="0" style="stop-color:rgb(96,56,19);stop-opacity:1"/><stop offset="0.01" style="stop-color:rgb(96,56,19);stop-opacity:1"/><stop offset="1" style="stop-color:rgb(198,156,109);stop-opacity:1"/></linearGradient>
        <linearGradient id="_Linear22" x1="0" y1="0" x2="1" y2="0" gradientUnits="userSpaceOnUse" gradientTransform="matrix(130.704,0,0,130.704,9257.52,13134.5)"><stop offset="0" style="stop-color:rgb(252,222,179);stop-opacity:1"/><stop offset="1" style="stop-color:rgb(249,196,118);stop-opacity:1"/></linearGradient>
        <linearGradient id="_Linear23" x1="0" y1="0" x2="1" y2="0" gradientUnits="userSpaceOnUse" gradientTransform="matrix(7359.92,0,0,7359.92,60179,142261)"><stop offset="0" style="stop-color:rgb(253,245,63);stop-opacity:1"/><stop offset="0.18" style="stop-color:rgb(252,239,64);stop-opacity:1"/><stop offset="0.44" style="stop-color:rgb(249,221,68);stop-opacity:1"/><stop offset="0.73" style="stop-color:rgb(243,193,74);stop-opacity:1"/><stop offset="1" style="stop-color:rgb(237,159,81);stop-opacity:1"/></linearGradient>
        <linearGradient id="_Linear24" x1="0" y1="0" x2="1" y2="0" gradientUnits="userSpaceOnUse" gradientTransform="matrix(13996.9,0,0,13996.9,94369.1,154909)"><stop offset="0" style="stop-color:rgb(43,53,130);stop-opacity:1"/><stop offset="1" style="stop-color:rgb(21,14,66);stop-opacity:1"/></linearGradient>
    </defs>
</svg>
