<svg xmlns="http://www.w3.org/2000/svg" xmlns:xlink="http://www.w3.org/1999/xlink" viewBox="0 0 1140 439"><defs><style>.cls-1{isolation:isolate;}.cls-2{fill:#ff9015;}.cls-3{fill:url(#linear-gradient);}.cls-4{fill:url(#linear-gradient-2);}.cls-5{fill:url(#Degradado_sin_nombre_36);}.cls-6{fill:url(#Degradado_sin_nombre_31);}.cls-7{fill:url(#Degradado_sin_nombre_46);}.cls-8{fill:url(#Degradado_sin_nombre_66);}.cls-9{fill:url(#Degradado_sin_nombre_36-2);}.cls-10{fill:url(#Degradado_sin_nombre_36-3);}.cls-11{fill:#f7cc7f;}.cls-12{fill:url(#Degradado_sin_nombre_36-4);}.cls-13,.cls-58{fill:#fff;}.cls-14{fill:#13375b;}.cls-15{fill:#355389;}.cls-16{fill:url(#Degradado_sin_nombre_36-5);}.cls-17{fill:url(#Degradado_sin_nombre_46-2);}.cls-18{fill:#e58761;}.cls-19{fill:url(#Degradado_sin_nombre_83);}.cls-20{fill:url(#Degradado_sin_nombre_83-2);}.cls-21{fill:url(#Degradado_sin_nombre_83-3);}.cls-22{fill:url(#Degradado_sin_nombre_83-4);}.cls-23{fill:url(#Degradado_sin_nombre_83-5);}.cls-24{fill:url(#Degradado_sin_nombre_83-6);}.cls-25{fill:url(#Degradado_sin_nombre_83-7);}.cls-26{fill:url(#Degradado_sin_nombre_83-8);}.cls-27{fill:url(#Degradado_sin_nombre_83-9);}.cls-28{fill:url(#Degradado_sin_nombre_83-10);}.cls-29{fill:url(#Degradado_sin_nombre_83-11);}.cls-30{fill:url(#Degradado_sin_nombre_83-12);}.cls-31{fill:url(#Degradado_sin_nombre_83-13);}.cls-32{fill:url(#Degradado_sin_nombre_83-14);}.cls-33{fill:url(#Degradado_sin_nombre_83-15);}.cls-34{fill:url(#Degradado_sin_nombre_83-16);}.cls-35{fill:url(#Degradado_sin_nombre_83-17);}.cls-36{fill:url(#Degradado_sin_nombre_83-18);}.cls-37{fill:url(#Degradado_sin_nombre_83-19);}.cls-38{fill:url(#Degradado_sin_nombre_83-20);}.cls-39{fill:url(#Degradado_sin_nombre_83-21);}.cls-40{fill:url(#Degradado_sin_nombre_83-22);}.cls-41{fill:url(#Degradado_sin_nombre_83-23);}.cls-42{fill:url(#Degradado_sin_nombre_83-24);}.cls-43{fill:url(#Degradado_sin_nombre_83-25);}.cls-44{fill:url(#Degradado_sin_nombre_83-26);}.cls-45{fill:url(#Degradado_sin_nombre_83-27);}.cls-46{fill:url(#Degradado_sin_nombre_83-28);}.cls-47{fill:url(#Degradado_sin_nombre_83-29);}.cls-48{fill:url(#Degradado_sin_nombre_83-30);}.cls-49{fill:url(#Degradado_sin_nombre_83-31);}.cls-50{fill:url(#Degradado_sin_nombre_83-32);}.cls-51{fill:url(#Degradado_sin_nombre_83-33);}.cls-52{fill:url(#Degradado_sin_nombre_83-34);}.cls-53{fill:url(#Degradado_sin_nombre_83-35);}.cls-54{fill:url(#Degradado_sin_nombre_83-36);}.cls-55{fill:url(#Degradado_sin_nombre_83-37);}.cls-56{fill:url(#Degradado_sin_nombre_83-38);}.cls-57{fill:none;}.cls-57,.cls-58{stroke:#fff;stroke-miterlimit:10;stroke-width:0.75px;}.cls-59{fill:url(#Degradado_sin_nombre_36-6);}.cls-60{fill:url(#Degradado_sin_nombre_147);}.cls-61{fill:url(#linear-gradient-3);}.cls-62{fill:url(#Degradado_sin_nombre_36-7);}.cls-63{fill:url(#Degradado_sin_nombre_147-2);}.cls-64{fill:url(#linear-gradient-4);}.cls-65{fill:url(#Degradado_sin_nombre_66-2);}.cls-66{fill:url(#Degradado_sin_nombre_36-8);}.cls-67{fill:url(#Degradado_sin_nombre_36-9);}.cls-68{fill:url(#Degradado_sin_nombre_31-2);}.cls-69{fill:url(#Degradado_sin_nombre_31-3);}.cls-70{fill:url(#Degradado_sin_nombre_36-10);}.cls-71{mix-blend-mode:multiply;fill:url(#Degradado_sin_nombre_36-11);}.cls-72{fill:url(#Degradado_sin_nombre_31-4);}.cls-73{fill:url(#Degradado_sin_nombre_31-5);}.cls-74{fill:url(#Degradado_sin_nombre_46-3);}.cls-75{fill:url(#Degradado_sin_nombre_36-12);}.cls-76{fill:url(#Degradado_sin_nombre_36-13);}.cls-77{fill:url(#Degradado_sin_nombre_36-14);}.cls-78{fill:url(#Degradado_sin_nombre_36-15);}.cls-79{fill:url(#Degradado_sin_nombre_36-16);}.cls-80{fill:url(#Degradado_sin_nombre_46-4);}.cls-81{fill:url(#Degradado_sin_nombre_36-17);}.cls-82{fill:url(#Degradado_sin_nombre_36-18);}.cls-83{fill:url(#Degradado_sin_nombre_36-19);}.cls-84{fill:url(#Degradado_sin_nombre_36-20);}.cls-85{fill:url(#Degradado_sin_nombre_36-21);}.cls-86{fill:url(#Degradado_sin_nombre_46-5);}.cls-87{fill:url(#Degradado_sin_nombre_7);}.cls-88{fill:url(#Degradado_sin_nombre_7-2);}.cls-89{fill:url(#Degradado_sin_nombre_7-3);}.cls-90{fill:#184655;}.cls-91{fill:url(#Degradado_sin_nombre_4);}.cls-92{fill:url(#Degradado_sin_nombre_7-4);}.cls-93{fill:#f79c8d;}.cls-94{fill:url(#Degradado_sin_nombre_46-6);}.cls-95{fill:url(#Degradado_sin_nombre_46-7);}.cls-96{fill:url(#Degradado_sin_nombre_36-22);}.cls-97{fill:url(#linear-gradient-5);}.cls-98{fill:url(#Degradado_sin_nombre_147-3);}.cls-99{fill:url(#linear-gradient-6);}.cls-100{fill:url(#Degradado_sin_nombre_36-23);}.cls-101{fill:url(#Degradado_sin_nombre_46-8);}.cls-102{fill:url(#Degradado_sin_nombre_36-24);}.cls-103{fill:url(#Degradado_sin_nombre_147-4);}.cls-104{fill:url(#linear-gradient-7);}.cls-105{fill:url(#Degradado_sin_nombre_107);}.cls-106{fill:url(#Degradado_sin_nombre_66-3);}.cls-107{fill:#f47458;opacity:0.2;}.cls-108{fill:url(#Degradado_sin_nombre_36-25);}.cls-109{fill:url(#Degradado_sin_nombre_31-6);}.cls-110{fill:url(#Degradado_sin_nombre_36-26);}.cls-111{fill:url(#Degradado_sin_nombre_36-27);}.cls-112{fill:#f48c7f;}.cls-113{fill:url(#Degradado_sin_nombre_147-5);}.cls-114{fill:#f7a491;}.cls-115{fill:url(#linear-gradient-8);}.cls-116{fill:url(#linear-gradient-9);}.cls-117{fill:url(#Degradado_sin_nombre_46-9);}.cls-118{fill:url(#Degradado_sin_nombre_46-10);}.cls-119{fill:url(#linear-gradient-10);}.cls-120{fill:url(#linear-gradient-11);}.cls-121{fill:url(#Degradado_sin_nombre_83-39);}.cls-122{fill:url(#Degradado_sin_nombre_83-40);}.cls-123{fill:url(#Degradado_sin_nombre_83-41);}.cls-124{fill:url(#linear-gradient-12);}.cls-125{fill:url(#linear-gradient-13);}.cls-126{fill:url(#Degradado_sin_nombre_147-6);}.cls-127{fill:url(#Degradado_sin_nombre_36-28);}.cls-128{fill:url(#Degradado_sin_nombre_46-11);}.cls-129{fill:url(#Degradado_sin_nombre_66-4);}.cls-130{fill:url(#Degradado_sin_nombre_36-29);}.cls-131{fill:url(#Degradado_sin_nombre_31-7);}.cls-132{fill:url(#Degradado_sin_nombre_36-30);}.cls-133{fill:url(#Degradado_sin_nombre_147-7);}</style><linearGradient id="linear-gradient" x1="1004.94" y1="330.39" x2="1046.96" y2="330.39" gradientUnits="userSpaceOnUse"><stop offset="0" stop-color="#2b3582"/><stop offset="1" stop-color="#150e42"/></linearGradient><linearGradient id="linear-gradient-2" x1="1010.15" y1="322.37" x2="1111.45" y2="322.37" xlink:href="#linear-gradient"/><linearGradient id="Degradado_sin_nombre_36" x1="938.58" y1="155.86" x2="1034.57" y2="155.86" gradientUnits="userSpaceOnUse"><stop offset="0" stop-color="#fcdeb3"/><stop offset="1" stop-color="#f9c476"/></linearGradient><linearGradient id="Degradado_sin_nombre_31" x1="1012.78" y1="75.24" x2="1136.6" y2="75.24" gradientUnits="userSpaceOnUse"><stop offset="0.01" stop-color="#603813"/><stop offset="1" stop-color="#c69c6d"/></linearGradient><linearGradient id="Degradado_sin_nombre_46" x1="1043.25" y1="90.98" x2="1043.25" y2="226.99" gradientUnits="userSpaceOnUse"><stop offset="0" stop-color="#fdf53f"/><stop offset="0.18" stop-color="#fcef40"/><stop offset="0.44" stop-color="#f9dd44"/><stop offset="0.73" stop-color="#f3c14a"/><stop offset="1" stop-color="#ed9f51"/></linearGradient><linearGradient id="Degradado_sin_nombre_66" x1="1042.34" y1="109.99" x2="1042.34" y2="65.57" gradientUnits="userSpaceOnUse"><stop offset="0" stop-color="#fcdeb3"/><stop offset="1" stop-color="#f9a262"/></linearGradient><linearGradient id="Degradado_sin_nombre_36-2" x1="1016.83" y1="51.96" x2="1023.72" y2="51.96" xlink:href="#Degradado_sin_nombre_36"/><linearGradient id="Degradado_sin_nombre_36-3" x1="1020.01" y1="50.81" x2="1054.5" y2="50.81" xlink:href="#Degradado_sin_nombre_36"/><linearGradient id="Degradado_sin_nombre_36-4" x1="1050.6" y1="50.79" x2="1058.65" y2="50.79" xlink:href="#Degradado_sin_nombre_36"/><linearGradient id="Degradado_sin_nombre_36-5" x1="999.76" y1="183.18" x2="1087.49" y2="183.18" xlink:href="#Degradado_sin_nombre_36"/><linearGradient id="Degradado_sin_nombre_46-2" x1="1071.66" y1="97.84" x2="1071.66" y2="182.3" xlink:href="#Degradado_sin_nombre_46"/><linearGradient id="Degradado_sin_nombre_83" x1="735.04" y1="303.65" x2="735.04" y2="318.08" gradientUnits="userSpaceOnUse"><stop offset="0" stop-color="#99ca2f"/><stop offset="0.13" stop-color="#8fc62e"/><stop offset="0.34" stop-color="#74bc2d"/><stop offset="0.62" stop-color="#48ac2b"/><stop offset="0.94" stop-color="#0b9628"/><stop offset="1" stop-color="#009227"/></linearGradient><linearGradient id="Degradado_sin_nombre_83-2" x1="744.73" y1="194.31" x2="744.73" y2="263.87" xlink:href="#Degradado_sin_nombre_83"/><linearGradient id="Degradado_sin_nombre_83-3" x1="767.66" y1="324.64" x2="767.66" y2="332.52" xlink:href="#Degradado_sin_nombre_83"/><linearGradient id="Degradado_sin_nombre_83-4" x1="751.66" y1="274.64" x2="751.66" y2="282.52" xlink:href="#Degradado_sin_nombre_83"/><linearGradient id="Degradado_sin_nombre_83-5" x1="119.84" y1="101.64" x2="125.03" y2="101.64" xlink:href="#Degradado_sin_nombre_83"/><linearGradient id="Degradado_sin_nombre_83-6" x1="109.4" y1="106.69" x2="114.54" y2="106.69" xlink:href="#Degradado_sin_nombre_83"/><linearGradient id="Degradado_sin_nombre_83-7" x1="99.3" y1="112.36" x2="104.38" y2="112.36" xlink:href="#Degradado_sin_nombre_83"/><linearGradient id="Degradado_sin_nombre_83-8" x1="89.55" y1="118.62" x2="94.56" y2="118.62" xlink:href="#Degradado_sin_nombre_83"/><linearGradient id="Degradado_sin_nombre_83-9" x1="80.18" y1="125.43" x2="85.12" y2="125.43" xlink:href="#Degradado_sin_nombre_83"/><linearGradient id="Degradado_sin_nombre_83-10" x1="71.22" y1="132.76" x2="76.08" y2="132.76" xlink:href="#Degradado_sin_nombre_83"/><linearGradient id="Degradado_sin_nombre_83-11" x1="62.69" y1="140.59" x2="67.46" y2="140.59" xlink:href="#Degradado_sin_nombre_83"/><linearGradient id="Degradado_sin_nombre_83-12" x1="54.6" y1="148.89" x2="59.28" y2="148.89" xlink:href="#Degradado_sin_nombre_83"/><linearGradient id="Degradado_sin_nombre_83-13" x1="46.99" y1="157.63" x2="51.57" y2="157.63" xlink:href="#Degradado_sin_nombre_83"/><linearGradient id="Degradado_sin_nombre_83-14" x1="39.88" y1="166.77" x2="44.35" y2="166.77" xlink:href="#Degradado_sin_nombre_83"/><linearGradient id="Degradado_sin_nombre_83-15" x1="33.28" y1="176.29" x2="37.64" y2="176.29" xlink:href="#Degradado_sin_nombre_83"/><linearGradient id="Degradado_sin_nombre_83-16" x1="27.22" y1="186.17" x2="31.45" y2="186.17" xlink:href="#Degradado_sin_nombre_83"/><linearGradient id="Degradado_sin_nombre_83-17" x1="21.72" y1="196.38" x2="25.83" y2="196.38" xlink:href="#Degradado_sin_nombre_83"/><linearGradient id="Degradado_sin_nombre_83-18" x1="16.81" y1="206.87" x2="20.78" y2="206.87" xlink:href="#Degradado_sin_nombre_83"/><linearGradient id="Degradado_sin_nombre_83-19" x1="12.51" y1="217.63" x2="16.34" y2="217.63" xlink:href="#Degradado_sin_nombre_83"/><linearGradient id="Degradado_sin_nombre_83-20" x1="8.84" y1="228.62" x2="12.52" y2="228.62" xlink:href="#Degradado_sin_nombre_83"/><linearGradient id="Degradado_sin_nombre_83-21" x1="5.83" y1="239.81" x2="9.36" y2="239.81" xlink:href="#Degradado_sin_nombre_83"/><linearGradient id="Degradado_sin_nombre_83-22" x1="3.5" y1="251.17" x2="6.87" y2="251.17" xlink:href="#Degradado_sin_nombre_83"/><linearGradient id="Degradado_sin_nombre_83-23" x1="1.87" y1="262.66" x2="5.07" y2="262.66" xlink:href="#Degradado_sin_nombre_83"/><linearGradient id="Degradado_sin_nombre_83-24" x1="0.94" y1="274.22" x2="3.97" y2="274.22" xlink:href="#Degradado_sin_nombre_83"/><linearGradient id="Degradado_sin_nombre_83-25" x1="0.7" y1="285.82" x2="3.55" y2="285.82" xlink:href="#Degradado_sin_nombre_83"/><linearGradient id="Degradado_sin_nombre_83-26" x1="-8488.06" y1="-2268.47" x2="-8563.53" y2="-2314.2" gradientTransform="matrix(-0.98, -0.2, 0, 0.93, -8243.05, 541.99)" xlink:href="#Degradado_sin_nombre_83"/><linearGradient id="Degradado_sin_nombre_83-27" x1="-8529.94" y1="-2285.37" x2="-8616.3" y2="-2376.69" gradientTransform="matrix(-0.98, -0.2, 0, 0.93, -8243.05, 541.99)" xlink:href="#Degradado_sin_nombre_83"/><linearGradient id="Degradado_sin_nombre_83-28" x1="-8493.57" y1="-2269.23" x2="-8564.06" y2="-2311.95" gradientTransform="matrix(-0.98, -0.2, 0, 0.93, -8243.05, 541.99)" xlink:href="#Degradado_sin_nombre_83"/><linearGradient id="Degradado_sin_nombre_83-29" x1="1122.45" y1="-2039.84" x2="1154.66" y2="-2049.17" gradientTransform="translate(-1373.26 1872.16) rotate(11.34)" xlink:href="#Degradado_sin_nombre_83"/><linearGradient id="Degradado_sin_nombre_83-30" x1="189.43" y1="1102.78" x2="189.43" y2="1134.03" gradientTransform="translate(333.39 1291.66) rotate(180)" xlink:href="#Degradado_sin_nombre_83"/><linearGradient id="Degradado_sin_nombre_83-31" x1="165.04" y1="1073.65" x2="165.04" y2="1088.08" gradientTransform="translate(333.39 1291.66) rotate(180)" xlink:href="#Degradado_sin_nombre_83"/><linearGradient id="Degradado_sin_nombre_83-32" x1="177.66" y1="1052.64" x2="177.66" y2="1060.52" gradientTransform="translate(333.39 1291.66) rotate(180)" xlink:href="#Degradado_sin_nombre_83"/><linearGradient id="Degradado_sin_nombre_83-33" x1="968.17" y1="32" x2="968.17" y2="83.82" xlink:href="#Degradado_sin_nombre_83"/><linearGradient id="Degradado_sin_nombre_83-34" x1="923.25" y1="97.66" x2="923.25" y2="121.6" xlink:href="#Degradado_sin_nombre_83"/><linearGradient id="Degradado_sin_nombre_83-35" x1="418.04" y1="213.65" x2="418.04" y2="228.08" xlink:href="#Degradado_sin_nombre_83"/><linearGradient id="Degradado_sin_nombre_83-36" x1="465.65" y1="119" x2="465.65" y2="181.9" xlink:href="#Degradado_sin_nombre_83"/><linearGradient id="Degradado_sin_nombre_83-37" x1="447.51" y1="198.66" x2="447.51" y2="208" xlink:href="#Degradado_sin_nombre_83"/><linearGradient id="Degradado_sin_nombre_83-38" x1="960.38" y1="169.44" x2="960.38" y2="182.52" xlink:href="#Degradado_sin_nombre_83"/><linearGradient id="Degradado_sin_nombre_36-6" x1="861.09" y1="353.32" x2="884.22" y2="353.32" xlink:href="#Degradado_sin_nombre_36"/><linearGradient id="Degradado_sin_nombre_147" x1="873.83" y1="363.03" x2="895.12" y2="363.03" gradientUnits="userSpaceOnUse"><stop offset="0" stop-color="#333"/><stop offset="1"/></linearGradient><linearGradient id="linear-gradient-3" x1="800.64" y1="338.07" x2="875.26" y2="338.07" xlink:href="#linear-gradient"/><linearGradient id="Degradado_sin_nombre_36-7" x1="832.18" y1="382.12" x2="839.7" y2="382.12" xlink:href="#Degradado_sin_nombre_36"/><linearGradient id="Degradado_sin_nombre_147-2" x1="825.62" y1="396.17" x2="843.05" y2="396.17" xlink:href="#Degradado_sin_nombre_147"/><linearGradient id="linear-gradient-4" x1="795.37" y1="349.53" x2="849.12" y2="349.53" xlink:href="#linear-gradient"/><linearGradient id="Degradado_sin_nombre_66-2" x1="814.86" y1="285.37" x2="814.86" y2="256.37" xlink:href="#Degradado_sin_nombre_66"/><linearGradient id="Degradado_sin_nombre_36-8" x1="809.64" y1="262.95" x2="823.48" y2="262.95" xlink:href="#Degradado_sin_nombre_36"/><linearGradient id="Degradado_sin_nombre_36-9" x1="809.66" y1="263.28" x2="820.74" y2="263.28" xlink:href="#Degradado_sin_nombre_36"/><linearGradient id="Degradado_sin_nombre_31-2" x1="815.45" y1="258.57" x2="818.35" y2="258.57" xlink:href="#Degradado_sin_nombre_31"/><linearGradient id="Degradado_sin_nombre_31-3" x1="820.84" y1="259.36" x2="823.74" y2="259.36" xlink:href="#Degradado_sin_nombre_31"/><linearGradient id="Degradado_sin_nombre_36-10" x1="807.8" y1="262.15" x2="812.17" y2="262.15" xlink:href="#Degradado_sin_nombre_36"/><linearGradient id="Degradado_sin_nombre_36-11" x1="807.81" y1="261.97" x2="811.52" y2="261.97" xlink:href="#Degradado_sin_nombre_36"/><linearGradient id="Degradado_sin_nombre_31-4" x1="811.35" y1="253.28" x2="823.32" y2="253.28" xlink:href="#Degradado_sin_nombre_31"/><linearGradient id="Degradado_sin_nombre_31-5" x1="809.64" y1="268.88" x2="822.49" y2="268.88" xlink:href="#Degradado_sin_nombre_31"/><linearGradient id="Degradado_sin_nombre_46-3" x1="-2758.7" y1="294.81" x2="-2758.7" y2="246.64" gradientTransform="matrix(-1, 0, 0, 1, -1927.04, 0)" xlink:href="#Degradado_sin_nombre_46"/><linearGradient id="Degradado_sin_nombre_36-12" x1="836.29" y1="245.57" x2="842.5" y2="245.57" xlink:href="#Degradado_sin_nombre_36"/><linearGradient id="Degradado_sin_nombre_36-13" x1="838.2" y1="239.83" x2="841.77" y2="239.83" xlink:href="#Degradado_sin_nombre_36"/><linearGradient id="Degradado_sin_nombre_36-14" x1="835.29" y1="240.45" x2="840.99" y2="240.45" xlink:href="#Degradado_sin_nombre_36"/><linearGradient id="Degradado_sin_nombre_36-15" x1="833.64" y1="242.04" x2="839.98" y2="242.04" xlink:href="#Degradado_sin_nombre_36"/><linearGradient id="Degradado_sin_nombre_36-16" x1="833.6" y1="243.59" x2="839.76" y2="243.59" xlink:href="#Degradado_sin_nombre_36"/><linearGradient id="Degradado_sin_nombre_46-4" x1="-2721.91" y1="293.35" x2="-2721.91" y2="246.64" gradientTransform="matrix(-1, 0, 0, 1, -1927.04, 0)" xlink:href="#Degradado_sin_nombre_46"/><linearGradient id="Degradado_sin_nombre_36-17" x1="790.18" y1="245.78" x2="796.4" y2="245.78" xlink:href="#Degradado_sin_nombre_36"/><linearGradient id="Degradado_sin_nombre_36-18" x1="790.93" y1="240.03" x2="794.51" y2="240.03" xlink:href="#Degradado_sin_nombre_36"/><linearGradient id="Degradado_sin_nombre_36-19" x1="791.7" y1="240.66" x2="797.42" y2="240.66" xlink:href="#Degradado_sin_nombre_36"/><linearGradient id="Degradado_sin_nombre_36-20" x1="792.72" y1="242.25" x2="799.06" y2="242.25" xlink:href="#Degradado_sin_nombre_36"/><linearGradient id="Degradado_sin_nombre_36-21" x1="792.93" y1="243.81" x2="799.09" y2="243.81" xlink:href="#Degradado_sin_nombre_36"/><linearGradient id="Degradado_sin_nombre_46-5" x1="-2739.04" y1="277.5" x2="-2739.04" y2="360.21" gradientTransform="matrix(-1, 0, 0, 1, -1927.04, 0)" xlink:href="#Degradado_sin_nombre_46"/><linearGradient id="Degradado_sin_nombre_7" x1="40.28" y1="422.55" x2="55.48" y2="422.55" gradientTransform="matrix(0.98, -0.19, 0.19, 1.02, -74.94, -14.92)" gradientUnits="userSpaceOnUse"><stop offset="0" stop-color="gray"/><stop offset="0.14" stop-color="#8a8a8a"/><stop offset="0.39" stop-color="#a5a5a5"/><stop offset="0.71" stop-color="#d1d1d1"/><stop offset="0.99" stop-color="#fff"/></linearGradient><linearGradient id="Degradado_sin_nombre_7-2" x1="166.22" y1="406.08" x2="181.88" y2="406.08" gradientTransform="matrix(1, 0, 0, 1, 0, 0)" xlink:href="#Degradado_sin_nombre_7"/><linearGradient id="Degradado_sin_nombre_7-3" x1="65.9" y1="406.08" x2="81.56" y2="406.08" gradientTransform="matrix(1, 0, 0, 1, 0, 0)" xlink:href="#Degradado_sin_nombre_7"/><linearGradient id="Degradado_sin_nombre_4" x1="109.26" y1="228.83" x2="109.26" y2="393.55" gradientUnits="userSpaceOnUse"><stop offset="0" stop-color="#909090"/><stop offset="0.2" stop-color="#a1a1a1"/><stop offset="0.61" stop-color="#cfcfcf"/><stop offset="0.99" stop-color="#fff"/></linearGradient><linearGradient id="Degradado_sin_nombre_7-4" x1="31" y1="312.68" x2="178.31" y2="312.68" gradientTransform="matrix(1, 0, 0, 1, 0, 0)" xlink:href="#Degradado_sin_nombre_7"/><linearGradient id="Degradado_sin_nombre_46-6" x1="138.63" y1="250.07" x2="138.63" y2="294.32" xlink:href="#Degradado_sin_nombre_46"/><linearGradient id="Degradado_sin_nombre_46-7" x1="107.38" y1="246.73" x2="107.38" y2="340.65" xlink:href="#Degradado_sin_nombre_46"/><linearGradient id="Degradado_sin_nombre_36-22" x1="89.72" y1="423.66" x2="108.92" y2="423.66" xlink:href="#Degradado_sin_nombre_36"/><linearGradient id="linear-gradient-5" x1="78.4" y1="345.95" x2="173.8" y2="345.95" xlink:href="#linear-gradient"/><linearGradient id="Degradado_sin_nombre_147-3" x1="89.29" y1="433.09" x2="109.68" y2="433.09" xlink:href="#Degradado_sin_nombre_147"/><linearGradient id="linear-gradient-6" x1="71.81" y1="376.11" x2="108.02" y2="376.11" xlink:href="#linear-gradient"/><linearGradient id="Degradado_sin_nombre_36-23" x1="71.99" y1="292.17" x2="141.42" y2="292.17" xlink:href="#Degradado_sin_nombre_36"/><linearGradient id="Degradado_sin_nombre_46-8" x1="80.67" y1="250.22" x2="80.67" y2="296.76" xlink:href="#Degradado_sin_nombre_46"/><linearGradient id="Degradado_sin_nombre_36-24" x1="140.43" y1="429.62" x2="170.85" y2="429.62" xlink:href="#Degradado_sin_nombre_36"/><linearGradient id="Degradado_sin_nombre_147-4" x1="138.73" y1="434.18" x2="175.55" y2="434.18" xlink:href="#Degradado_sin_nombre_147"/><linearGradient id="linear-gradient-7" x1="141.02" y1="376.84" x2="179.14" y2="376.84" xlink:href="#linear-gradient"/><linearGradient id="Degradado_sin_nombre_107" x1="79.64" y1="309" x2="179.77" y2="309" gradientUnits="userSpaceOnUse"><stop offset="0" stop-color="#4d4d4d"/><stop offset="1" stop-color="#1a1a1a"/></linearGradient><linearGradient id="Degradado_sin_nombre_66-3" x1="110.73" y1="264.57" x2="110.73" y2="230.03" xlink:href="#Degradado_sin_nombre_66"/><linearGradient id="Degradado_sin_nombre_36-25" x1="101.77" y1="219.92" x2="124.09" y2="219.92" xlink:href="#Degradado_sin_nombre_36"/><linearGradient id="Degradado_sin_nombre_31-6" x1="92.72" y1="215.96" x2="121.48" y2="215.96" xlink:href="#Degradado_sin_nombre_31"/><linearGradient id="Degradado_sin_nombre_36-26" x1="103.34" y1="222.23" x2="108.03" y2="222.23" xlink:href="#Degradado_sin_nombre_36"/><linearGradient id="Degradado_sin_nombre_36-27" x1="351.42" y1="193.53" x2="400.18" y2="193.53" xlink:href="#Degradado_sin_nombre_36"/><linearGradient id="Degradado_sin_nombre_147-5" x1="301.68" y1="334.53" x2="318.6" y2="334.53" xlink:href="#Degradado_sin_nombre_147"/><linearGradient id="linear-gradient-8" x1="340.45" y1="275.65" x2="369.93" y2="275.65" xlink:href="#linear-gradient"/><linearGradient id="linear-gradient-9" x1="307.32" y1="273.96" x2="363" y2="273.96" xlink:href="#linear-gradient"/><linearGradient id="Degradado_sin_nombre_46-9" x1="355.58" y1="175.19" x2="369.68" y2="175.19" xlink:href="#Degradado_sin_nombre_46"/><linearGradient id="Degradado_sin_nombre_46-10" x1="349.05" y1="159.37" x2="349.05" y2="233.99" xlink:href="#Degradado_sin_nombre_46"/><linearGradient id="linear-gradient-10" x1="386.38" y1="156.32" x2="429.69" y2="156.32" gradientUnits="userSpaceOnUse"><stop offset="0.04" stop-color="#f7d9cf"/><stop offset="0.46" stop-color="#ffe1c2"/><stop offset="0.87" stop-color="#f7cfc1"/></linearGradient><linearGradient id="linear-gradient-11" x1="386.38" y1="154.2" x2="429.69" y2="154.2" xlink:href="#linear-gradient-10"/><linearGradient id="Degradado_sin_nombre_83-39" x1="273.73" y1="201.34" x2="401.37" y2="201.34" xlink:href="#Degradado_sin_nombre_83"/><linearGradient id="Degradado_sin_nombre_83-40" x1="340.92" y1="156.9" x2="340.92" y2="262.28" xlink:href="#Degradado_sin_nombre_83"/><linearGradient id="Degradado_sin_nombre_83-41" x1="281.52" y1="214.83" x2="413.2" y2="214.83" xlink:href="#Degradado_sin_nombre_83"/><linearGradient id="linear-gradient-12" x1="273.73" y1="252.89" x2="294.96" y2="252.89" gradientUnits="userSpaceOnUse"><stop offset="0.01" stop-color="#ed5eb6"/><stop offset="0.13" stop-color="#f783c5"/><stop offset="0.25" stop-color="#ffa3d2"/><stop offset="0.62" stop-color="#dc5199"/><stop offset="0.72" stop-color="#df589e"/><stop offset="0.81" stop-color="#e463a6"/><stop offset="1" stop-color="#dc3d8f"/></linearGradient><linearGradient id="linear-gradient-13" x1="279.66" y1="239.46" x2="304.83" y2="253.99" gradientUnits="userSpaceOnUse"><stop offset="0" stop-color="#bec5d8"/><stop offset="0.21" stop-color="#ebedf3"/><stop offset="0.24" stop-color="#e2e4ec"/><stop offset="0.5" stop-color="#9097b3"/><stop offset="0.62" stop-color="#70789c"/><stop offset="0.68" stop-color="#767ea3"/><stop offset="0.77" stop-color="#888eb5"/><stop offset="0.82" stop-color="#949ac2"/><stop offset="1" stop-color="#8b90b5"/></linearGradient><linearGradient id="Degradado_sin_nombre_147-6" x1="416.72" y1="145.15" x2="429.69" y2="145.15" xlink:href="#Degradado_sin_nombre_147"/><linearGradient id="Degradado_sin_nombre_36-28" x1="305.07" y1="208.1" x2="330.89" y2="208.1" xlink:href="#Degradado_sin_nombre_36"/><linearGradient id="Degradado_sin_nombre_46-11" x1="325.17" y1="161.69" x2="325.17" y2="192" xlink:href="#Degradado_sin_nombre_46"/><linearGradient id="Degradado_sin_nombre_66-4" x1="347.62" y1="171.23" x2="347.62" y2="148.78" xlink:href="#Degradado_sin_nombre_66"/><linearGradient id="Degradado_sin_nombre_36-29" x1="341.8" y1="142.21" x2="356.31" y2="142.21" xlink:href="#Degradado_sin_nombre_36"/><linearGradient id="Degradado_sin_nombre_31-7" x1="335.92" y1="139.63" x2="354.61" y2="139.63" xlink:href="#Degradado_sin_nombre_31"/><linearGradient id="Degradado_sin_nombre_36-30" x1="342.82" y1="143.7" x2="345.87" y2="143.7" xlink:href="#Degradado_sin_nombre_36"/><linearGradient id="Degradado_sin_nombre_147-7" x1="337.91" y1="341.68" x2="362.94" y2="341.68" xlink:href="#Degradado_sin_nombre_147"/></defs><g class="cls-1"><g id="Capa_1" data-name="Capa 1"><rect class="cls-2" y="251.84" width="1140" height="187.47"/><path class="cls-3" d="M1007.86,208.74s-5.15,29.43-1.77,48.72,19.63,198.08,19.63,198.08l18,1s3.78-74.69,3.11-85.08-6-27.76-6-27.76l1.8-60.31-22.78-79.22Z"/><path class="cls-4" d="M1060.91,202.56s14.22,21.51,17.6,39.32-2.48,72.52,4,95.86c3.52,12.63,16.88,32.13,18.91,48.45s10,59.08,10,59.08l-18,3.6-41.93-106.78-32.89-96.51-8.43-49.7Z"/><path class="cls-5" d="M943.08,157.92c-.76-1.6,7.19-3.79,7.45-5.51s-10.4-.76-10.94-2.2c-1-2.65,11.61-1.78,11.23-3s-13.31-2.78-12.17-5.11,13.25,3,13.44,1.47-11.71-3.93-11.84-7.2c-.07-1.75,19.82,6.7,21.91,5.53s-3.3-8.87-1.68-10.26,8.59,14.71,9.85,15.18,28.55,8.72,37.83,10.09c.79-3.15,7.76-20.44,8.43-23.4,5.45,3.08,12.4-.63,18,2.12-2.81,9.9-9.12,42.51-11.64,44-7.67,4.47-48-16.85-54.69-20.62s-10.09-2-14.44-2.94S943.83,159.52,943.08,157.92Z"/><path class="cls-6" d="M1014.89,61.86c-2-9.23-4-18.52,1.33-28.65a26,26,0,0,1,20.48-14c24.55-2.91,19.3,20,53.62,25,10.66,1.54,20.56,3,29.47,8.33,16.07,9.57,22.14,24.93,11.48,50-26.1,61.27-88.56,8-98.09-2.81S1016.19,67.8,1014.89,61.86Z"/><path class="cls-7" d="M1053.52,91s12.4,1.41,19.82,9.48-12,72.9-13.34,83.16,12.9,38.68,12.9,38.68-48.41,9.62-61,1.31c0,0-1.1-79.34.25-86.67s12.58-37.16,15.28-40.09S1053.52,91,1053.52,91Z"/><path class="cls-8" d="M1047.29,66s.09.55.27,1.49c.83,4.5,4,19.41,6.22,23.51,2.63,5-9,20.77-20.18,18.84-3.33-.58,2.82-14.52,2.52-16-.56-2.83-1.33-6.69-2.11-10.65l-1.31-6.62-2.18-11Z"/><path class="cls-9" d="M1017.13,52.9c.78,3.11,2.82,5.21,4.55,4.69s2.52-3.46,1.74-6.57-2.81-5.21-4.55-4.69S1016.36,49.79,1017.13,52.9Z"/><path class="cls-10" d="M1030.4,27.09c-11.14,3.71-11.22,18-9.68,29,1.8,12.9,14,25.07,26.26,14.32,7.54-6.59,8.44-16.55,6.88-24.75a6.39,6.39,0,0,0-.63-.13C1046.66,44.77,1033.69,30.75,1030.4,27.09Z"/><path class="cls-11" d="M1061.75,56.2l0,.18S1061.76,56.31,1061.75,56.2Z"/><path class="cls-12" d="M1050.76,50c-.62,3.34.62,6.4,2.75,6.84s4.37-1.92,5-5.25-.62-6.4-2.76-6.84S1051.37,46.66,1050.76,50Z"/><path class="cls-13" d="M1051,143.6l-51.91,7.59a2.86,2.86,0,0,0-2.41,3.24l10.13,69.25a2.85,2.85,0,0,0,3.24,2.42l51.9-7.6a2.87,2.87,0,0,0,2.42-3.24L1054.22,146A2.84,2.84,0,0,0,1051,143.6Z"/><path class="cls-14" d="M1012.27,147a.58.58,0,0,1,.49-.66l21.65-3.16a.58.58,0,0,1,.66.48l.33,2.25-22.8,3.34Z"/><path class="cls-14" d="M1020.27,145.91a3.45,3.45,0,1,0,2.91-3.92A3.44,3.44,0,0,0,1020.27,145.91Zm1.22-.18a2.21,2.21,0,1,1,2.51,1.87A2.21,2.21,0,0,1,1021.49,145.73Z"/><path class="cls-15" d="M1012.54,146.39a.57.57,0,0,0-.27.58l.33,2.25,22.8-3.34a2.87,2.87,0,0,1-2.41,3.24l-17.16,2.51a2.85,2.85,0,0,1-3.23-2.41l-.33-2.25A.57.57,0,0,1,1012.54,146.39Z"/><path class="cls-13" d="M1028.41,62.47l11.68-.06s-.24,4.44-5.38,4.61C1028.45,67.24,1028.41,62.47,1028.41,62.47Z"/><path class="cls-16" d="M1087.4,161.31l-18.8,1.92s.3,16,0,17.8c0,0-32.16,8.91-45.61,11.33,0,0-6.12-3.47-8.59-4.57s-9.14-2.3-10.61-2.5-1,1.42.3,2,4.53,2.1,5.46,4a10.18,10.18,0,0,1-4.06-.34c-1.4-.62-3.34-2-3.37-2.64s-.35-2.34-.81-2.25c-.12,0-.27.57-.43,1.13s-.31,1.1-.44,1.64c-.24,1-.51,2.41-.62,3.06-.24,1.46.66,5.51.79,6.94.23,2.62,1,3.79,2.36,4.46a34.53,34.53,0,0,0,8.08,1.63c6.4.66,12.28-1.18,14.85-1.47s43.52-4.35,43.52-4.35,16.28-2.34,17.36-5.14S1087.4,161.31,1087.4,161.31Z"/><path class="cls-17" d="M1071.06,98.11s5.94,2.82,11.16,15c5,11.55,6.41,69.21,6.41,69.21L1069,179l-10-26.89a49.32,49.32,0,0,1,5.1-49C1066.83,99.31,1069.38,97,1071.06,98.11Z"/><path d="M1038.63,48.27a1.45,1.45,0,1,1-1.77-1A1.45,1.45,0,0,1,1038.63,48.27Z"/><path d="M1026,48.74a1.44,1.44,0,1,1-1.9-.75A1.45,1.45,0,0,1,1026,48.74Z"/><path d="M1035,46.32a.5.5,0,0,0,.44-.14,2.69,2.69,0,0,1,1.78-.74,2.32,2.32,0,0,1,1.66.93.52.52,0,0,0,.72.05.5.5,0,0,0,0-.72,3.29,3.29,0,0,0-2.41-1.29,3.79,3.79,0,0,0-2.53,1.05.52.52,0,0,0,0,.72A.47.47,0,0,0,1035,46.32Z"/><path d="M1022.1,47.51a.51.51,0,0,0,.42-.21,2.72,2.72,0,0,1,1.64-1A2.36,2.36,0,0,1,1026,47a.51.51,0,1,0,.65-.78,3.32,3.32,0,0,0-2.58-.9,3.75,3.75,0,0,0-2.33,1.42.51.51,0,0,0,.11.72A.55.55,0,0,0,1022.1,47.51Z"/><path class="cls-13" d="M1026.28,48.78a.56.56,0,0,1-.29.75.57.57,0,0,1-.76-.29.58.58,0,0,1,.3-.76A.57.57,0,0,1,1026.28,48.78Z"/><path class="cls-13" d="M1039,48.58a.57.57,0,1,1-.7-.41A.58.58,0,0,1,1039,48.58Z"/><path d="M1022.56,49.49a.38.38,0,0,0,.34-.2,2.35,2.35,0,0,1,3.26-.78.39.39,0,0,0,.52-.16.39.39,0,0,0-.17-.52,3.13,3.13,0,0,0-4.28,1.08.39.39,0,0,0,.14.53A.45.45,0,0,0,1022.56,49.49Z"/><path d="M1035,48.41a.39.39,0,0,0,.36-.14,2.35,2.35,0,0,1,3.35-.26.38.38,0,0,0,.53-.09.38.38,0,0,0-.09-.54,3.11,3.11,0,0,0-4.39.42.37.37,0,0,0,.06.53A.3.3,0,0,0,1035,48.41Z"/><path class="cls-18" d="M1031,47.18a3.56,3.56,0,0,1-.14.75q-.39,1.65-.63,3.33a13.36,13.36,0,0,1-1.35,5.14,3.4,3.4,0,0,0-.4.75c-.42,1.35,1.83,1.63,2.7,1.51s1.15-.64,1.7-1.2a.62.62,0,0,1,.58-.2.55.55,0,0,1,.31.64,1.27,1.27,0,0,1-.43.62c-1.45,1.33-4.47,1.68-5.42-.44a2.66,2.66,0,0,1,.56-2.86s.11-.13.06-.19-.12.09,0,.06q.8-4.06,1.58-8.14a.45.45,0,0,1,.67-.27A.52.52,0,0,1,1031,47.18Z"/><path class="cls-19" d="M728.82,304.29l12.12-.64a1.65,1.65,0,0,1,1.75,1.72l-.31,11.15a1.64,1.64,0,0,1-1.75,1.56l-11.51-.57a1.58,1.58,0,0,1-1.45-1.55l-.28-10A1.59,1.59,0,0,1,728.82,304.29Z"/><path class="cls-20" d="M774.73,197.36l-58.43-3a7.94,7.94,0,0,0-8.45,8.28l1.51,53.74a7.89,7.89,0,0,0,8.44,7.52l55.48-2.74a7.63,7.63,0,0,0,7-7.47l1.35-48.14C781.73,201.23,778.67,197.57,774.73,197.36Z"/><path class="cls-21" d="M764.26,325l6.63-.34a.89.89,0,0,1,1,.94l-.17,6.09a.88.88,0,0,1-.95.85l-6.29-.31a.86.86,0,0,1-.79-.85l-.16-5.45A.89.89,0,0,1,764.26,325Z"/><path class="cls-22" d="M748.26,275l6.63-.34a.89.89,0,0,1,1,.94l-.17,6.09a.88.88,0,0,1-.95.85l-6.29-.31a.86.86,0,0,1-.79-.85l-.16-5.45A.89.89,0,0,1,748.26,275Z"/><path class="cls-13" d="M262.27,394.47c8,3,10.65,10.51,10.65,26.54,0,7.23.92,12.75,2.76,16.82H253.34c-.66-4.6-.92-9.33-1.05-21.29,0-8.54-2.76-13.8-8.81-14.19-2.5-.13-4.73-.13-7.23-.13H228l-6.31,35.61h-20.5l16-90.67h34.43a109.65,109.65,0,0,1,13.53.65c11.3,1.32,20.37,7.1,20.37,19.72C285.53,381.85,276.86,390.79,262.27,394.47Zm.79-21.82c0-6.31-4.07-8.67-9.72-9.2-1.84-.13-4.08-.26-7-.26H234.81l-4.21,23.92h10.91c2.89,0,5,0,7-.13C256.1,386.32,263.06,382.64,263.06,372.65Z"/><path class="cls-13" d="M278.22,439.47H251.91l-.2-1.41c-.69-4.83-.94-9.86-1.07-21.5,0-8-2.44-12.25-7.26-12.57-2.45-.13-4.66-.13-7.13-.13h-6.9l-6.3,35.61H199.21l16.61-94h35.81a110.92,110.92,0,0,1,13.72.66c13.87,1.62,21.82,9.4,21.82,21.35,0,13.37-7.09,22.77-20.56,27.37,6.52,4.63,7.95,13.61,7.95,26.11,0,7,.86,12.25,2.61,16.14Zm-23.44-3.28h18.49a48.29,48.29,0,0,1-2-15.18c0-15.8-2.5-22.34-9.58-25l-4.9-1.85,5.08-1.27c10.05-2.54,22-9,22-25.35,0-13.12-10.29-17.08-18.92-18.09a108.3,108.3,0,0,0-13.34-.64h-33l-15.45,87.39h17.16l6.31-35.62h9.65c2.53,0,4.79,0,7.32.14,4.74.31,10.36,3.3,10.36,15.83C254,426.86,254.25,431.88,254.78,436.19Zm-13.27-47.44H228.65l4.78-27.2h12.94c2.94,0,5.21.13,7.08.26,7.48.7,11.25,4.35,11.25,10.84,0,9.4-5.71,15.07-16.08,16C246.58,388.75,244.45,388.75,241.51,388.75Zm-8.95-3.28h8.95c2.78,0,4.92,0,6.85-.13,8.66-.75,13.06-5,13.06-12.69,0-4.7-2.54-7-8.24-7.56-1.77-.12-4-.26-6.81-.26H236.19Z"/><path class="cls-13" d="M317.2,384.35h42.45l-2.89,16H314.31l-3.68,21.29h46.65l-2.89,16.16H287.24l16-90.67h65.84l-2.89,16H320.88Z"/><path class="cls-13" d="M355.77,439.47H285.28l16.62-94h69.17l-3.48,19.31H322.26l-3.11,17.87h42.46L358.13,402H315.7l-3.12,18h46.66Zm-66.57-3.28H353l2.31-12.88H308.68l4.25-24.57h42.45l2.3-12.75H315.25l4.25-24.44h45.34l2.3-12.75H304.65Z"/><path class="cls-13" d="M462.14,376.73,462,378H441.38v-1.31c-.13-11.17-5.78-16.17-16.69-16.17-15.89,0-30,14.72-30,39.95,0,16.43,7.76,23.92,18.4,23.92s18.92-6.18,23.39-17.75H418l2.89-16H459l-8.41,47.18H434.29l.92-14.19L429.56,433c-5.92,4.73-12.88,6.7-22.74,6.7-21.15,0-34-13.54-34-36.79,0-36.41,26.28-57.56,54.8-57.56C452.82,345.32,463.46,358.85,462.14,376.73Z"/><path class="cls-13" d="M406.82,441.31c-22.33,0-35.67-14.37-35.67-38.43,0-38.87,28.39-59.2,56.44-59.2,12.83,0,22.89,3.53,29.1,10.21,5.32,5.73,7.78,13.67,7.09,23l-.28,2.83H439.74v-2.95c-.12-10-4.76-14.53-15.05-14.53-14.07,0-28.31,13.16-28.31,38.31,0,14.16,6.1,22.27,16.75,22.27,9.23,0,16.58-5.11,20.91-14.45H416L419.51,389H461l-9,50.46H432.53l.6-9.24-2.55,4C424.48,439.13,417.15,441.31,406.82,441.31ZM427.59,347c-26.42,0-53.16,19.21-53.16,55.92,0,22,12.11,35.15,32.39,35.15,9.53,0,16-1.85,21.49-6.17l9-14.82L436,436.19h13.17L457,392.3H422.26L420,405h19l-.87,2.23c-4.68,12.13-13.53,18.8-24.92,18.8-12.55,0-20-9.56-20-25.56,0-27.3,15.9-41.59,31.6-41.59,11.92,0,18.09,5.88,18.33,17.48h17.5c.57-8.26-1.59-15.27-6.24-20.27C448.71,350.13,439.48,347,427.59,347Z"/><path class="cls-13" d="M470.17,437.83l16-90.67h20.49l-16,90.67Z"/><path class="cls-13" d="M492,439.47H468.21l16.61-94h23.83Zm-19.92-3.28h17.17l15.45-87.39H487.57Z"/><path class="cls-13" d="M585,374.36H564.25c.53-8.41-3.41-13.8-12.09-13.8-7.36,0-12.87,3.95-12.87,11.44,0,5.51,4.46,9.06,17.08,12.08,16.56,4.08,24,12.35,24,24.44,0,20.24-18.8,31.15-39.82,31.15s-35.22-9.46-33.38-29H528c.14,9.33,6.71,13.8,15,13.8s15.24-4.6,15.24-12c0-5.13-4.21-9.33-14.59-12.09-16.56-4.21-26.54-10.38-26.54-23.79,0-20,17.87-31.27,37.32-31.27C577,345.32,585.93,357.93,585,374.36Z"/><path class="cls-13" d="M540.6,441.31c-13,0-23-3.47-29-10-4.81-5.27-6.83-12.28-6-20.81l.14-1.49H529.6l0,1.63c.11,7.62,5.09,12.17,13.34,12.17,8,0,13.6-4.24,13.6-10.31,0-4.61-4.5-8.15-13.37-10.5-13.72-3.49-27.76-9.23-27.76-25.38,0-21.61,19.6-32.91,39-32.91,11.23,0,19.76,3,25.35,8.9,5,5.31,7.41,12.88,6.91,21.87l-.09,1.55H562.5l.11-1.74c.25-4-.61-7.22-2.51-9.24-1.76-1.87-4.43-2.82-7.94-2.82-7,0-11.23,3.67-11.23,9.8,0,3.47,1.92,7.15,15.82,10.49,16.8,4.13,25.31,12.89,25.31,26C582.06,431.05,560.57,441.31,540.6,441.31Zm-31.85-29c-.36,6.89,1.42,12.54,5.3,16.8,5.33,5.86,14.51,9,26.55,9,18.39,0,38.17-9.24,38.17-29.51,0-11.59-7.45-19.06-22.79-22.84-13-3.12-18.34-7.09-18.34-13.68,0-7.95,5.7-13.08,14.52-13.08,4.46,0,7.93,1.29,10.33,3.86,2.23,2.37,3.41,5.78,3.45,9.94h17.49c.12-7.38-2-13.54-6.07-17.88-4.94-5.23-12.67-7.88-23-7.88-17.73,0-35.68,10.18-35.68,29.63,0,11.2,7.33,17.63,25.31,22.2,10.5,2.79,15.82,7.39,15.82,13.68,0,7.88-7.1,13.6-16.88,13.6-9.54,0-15.74-5.24-16.54-13.8Z"/><path class="cls-13" d="M645.73,363.19l-13.14,74.64h-20.5l13.14-74.64H595l2.88-16h81l-3,16Z"/><path class="cls-13" d="M634,439.47H610.13l13.14-74.64H593l3.48-19.31h84.3l-3.64,19.31H647.11ZM614,436.19h17.17l13.14-74.64h30.11l2.4-12.75H599.27L597,361.55h30.21Z"/><path class="cls-13" d="M732.85,394.47c8,3,10.64,10.51,10.64,26.54,0,7.23.92,12.75,2.76,16.82H723.92c-.66-4.6-.92-9.33-1-21.29,0-8.54-2.76-13.8-8.81-14.19-2.5-.13-4.73-.13-7.23-.13h-8.27l-6.31,35.61h-20.5l16-90.67h34.43a109.75,109.75,0,0,1,13.53.65c11.3,1.32,20.37,7.1,20.37,19.72C756.11,381.85,747.44,390.79,732.85,394.47Zm.79-21.82c0-6.31-4.07-8.67-9.72-9.2-1.84-.13-4.08-.26-7-.26H705.39l-4.21,23.92h10.91c2.89,0,5,0,7-.13C726.67,386.32,733.64,382.64,733.64,372.65Z"/><path class="cls-13" d="M748.8,439.47H722.49l-.2-1.41c-.69-4.83-.94-9.86-1.07-21.5,0-8-2.44-12.25-7.27-12.57-2.44-.13-4.65-.13-7.12-.13h-6.9l-6.3,35.61H669.79l16.61-94h35.81a111,111,0,0,1,13.72.66c13.87,1.62,21.82,9.4,21.82,21.35,0,13.38-7.09,22.77-20.57,27.37,6.52,4.63,8,13.61,8,26.11,0,7,.85,12.25,2.61,16.14Zm-23.45-3.28h18.5a48.29,48.29,0,0,1-2-15.18c0-15.8-2.5-22.34-9.58-25l-4.9-1.85,5.08-1.27c10-2.54,22-9,22-25.35,0-13.12-10.29-17.08-18.91-18.09a108.66,108.66,0,0,0-13.35-.64H689.16l-15.45,87.39h17.16l6.31-35.62h9.65c2.53,0,4.79,0,7.32.14,4.73.31,10.36,3.3,10.36,15.83C724.62,426.86,724.83,431.88,725.35,436.19Zm-13.26-47.44H699.23l4.78-27.2H717c2.94,0,5.21.13,7.08.26,7.48.7,11.25,4.35,11.25,10.84,0,9.4-5.71,15.07-16.08,16C717.16,388.75,715,388.75,712.09,388.75Zm-9-3.28h9c2.82,0,4.91,0,6.85-.13,5.94-.52,13.06-3.14,13.06-12.69,0-4.7-2.54-7-8.24-7.56-1.77-.12-4-.26-6.81-.26H706.77Z"/><path class="cls-13" d="M784,412.21l-12.75,25.62H749.15l48.09-90.67h26.94L840,437.83H817.61l-3.68-25.62Zm23.13-46.39L792,396h19.44Z"/><path class="cls-13" d="M841.9,439.47H816.19l-3.68-25.62H785l-12.75,25.62H746.42l49.84-94h29.3ZM819,436.19h19L822.8,348.8H798.23l-46.35,87.39H770.2L783,410.56h32.41Zm-5.7-38.51h-24L808,360.39Zm-18.69-3.28h14.9l-3.32-23.15Z"/><path class="cls-13" d="M895.67,363.19l-13.14,74.64H862l13.14-74.64H844.94l2.9-16h80.94l-3,16Z"/><path class="cls-13" d="M883.91,439.47H860.07l13.14-74.64H843l3.48-19.31h84.3l-3.64,19.31H897.05ZM864,436.19h17.16l13.14-74.64H924.4l2.4-12.75H849.21l-2.3,12.75h30.22Z"/><path class="cls-13" d="M951.65,384.35h42.44l-2.89,16H948.76l-3.68,21.29h46.65l-2.89,16.16H921.69l16-90.67h65.84l-2.9,16H955.33Z"/><path class="cls-13" d="M990.21,439.47H919.73l16.62-94h69.17L1002,364.83H956.71l-3.1,17.87h42.45L992.58,402H950.14L947,420h46.66Zm-66.56-3.28h63.81l2.31-12.88H943.13l4.25-24.57h42.45l2.3-12.75H949.7L954,361.55h45.34l2.3-12.75H939.1Z"/><path class="cls-23" d="M124.43,101.84l-3.17,1.42h0a1,1,0,0,1-.82-1.82h0l3.21-1.42a1,1,0,1,1,.8,1.81Z"/><path class="cls-24" d="M114,106.79l-3.07,1.6h0a1,1,0,1,1-.94-1.8h0l3.11-1.62a1,1,0,1,1,.93,1.8Z"/><path class="cls-25" d="M103.86,112.36l-3,1.78h0a1,1,0,0,1-1.08-1.78h0l3-1.79a1,1,0,0,1,1.06,1.78Z"/><path class="cls-26" d="M94.09,118.51l-2.86,2h0a1.07,1.07,0,1,1-1.2-1.76h0l2.9-2a1.06,1.06,0,0,1,1.47.29,1,1,0,0,1-.28,1.46Z"/><path class="cls-27" d="M84.69,125.22,82,127.34h0a1.08,1.08,0,1,1-1.32-1.72h0l2.78-2.13a1.08,1.08,0,1,1,1.31,1.71Z"/><path class="cls-28" d="M75.69,132.46l-2.62,2.27h0a1.11,1.11,0,1,1-1.45-1.68h0l2.65-2.28a1.1,1.1,0,1,1,1.44,1.67Z"/><path class="cls-29" d="M67.11,140.19l-2.49,2.41,0,0A1.13,1.13,0,0,1,63,141h0l2.52-2.43a1.12,1.12,0,0,1,1.56,1.62Z"/><path class="cls-30" d="M59,148.39l-2.36,2.55h0a1.15,1.15,0,1,1-1.69-1.56h0l2.39-2.57A1.15,1.15,0,1,1,59,148.38Z"/><path class="cls-31" d="M51.29,157l-2.21,2.68h0a1.17,1.17,0,1,1-1.81-1.49h0l2.25-2.69A1.16,1.16,0,1,1,51.3,157Z"/><path class="cls-32" d="M44.1,166.08l-2.05,2.79,0,0a1.19,1.19,0,1,1-1.92-1.42h0l2.09-2.81a1.19,1.19,0,1,1,1.91,1.42Z"/><path class="cls-33" d="M37.43,175.51l-1.91,2.9h0a1.21,1.21,0,0,1-2-1.33h0l1.93-2.92a1.21,1.21,0,1,1,2,1.33Z"/><path class="cls-34" d="M31.28,185.29l-1.74,3v0a1.24,1.24,0,0,1-2.15-1.25h0l1.76-3a1.23,1.23,0,1,1,2.13,1.25Z"/><path class="cls-35" d="M25.68,195.4l-1.56,3.09v0a1.27,1.27,0,0,1-2.26-1.15h0l1.59-3.12a1.26,1.26,0,0,1,2.24,1.14Z"/><path class="cls-36" d="M20.67,205.79,19.28,209v0a1.28,1.28,0,1,1-2.35-1h0l1.42-3.2a1.27,1.27,0,1,1,2.33,1Z"/><path class="cls-37" d="M16.25,216.46l-1.2,3.24v0a1.31,1.31,0,0,1-2.45-.91h0l1.23-3.28a1.3,1.3,0,0,1,2.44.91Z"/><path class="cls-38" d="M12.46,227.35l-1,3.31v0a1.33,1.33,0,0,1-2.54-.78h0l1-3.35a1.32,1.32,0,1,1,2.52.78Z"/><path class="cls-39" d="M9.31,238.44,8.5,241.8v0a1.36,1.36,0,0,1-1.64,1,1.34,1.34,0,0,1-1-1.63h0l.84-3.41a1.34,1.34,0,0,1,2.61.64Z"/><path class="cls-40" d="M6.84,249.7l-.61,3.41v0a1.38,1.38,0,0,1-2.71-.48h0l.64-3.46a1.36,1.36,0,1,1,2.68.49Z"/><path class="cls-41" d="M5.05,261.09l-.4,3.44v0a1.39,1.39,0,0,1-2.77-.33h0l.42-3.49a1.39,1.39,0,0,1,2.76.34Z"/><path class="cls-42" d="M4,272.57,3.77,276v0a1.42,1.42,0,1,1-2.83-.16h0l.21-3.5a1.41,1.41,0,1,1,2.82.16Z"/><path class="cls-43" d="M3.55,284.09v3.48a1.42,1.42,0,1,1-2.84,0h0v-3.51a1.43,1.43,0,0,1,2.85,0Z"/><polygon class="cls-44" points="140.46 78.96 139.85 96.02 151.66 89.09 140.46 78.96"/><path class="cls-45" d="M217.48,71.9,170,110.66a4.32,4.32,0,0,1-6.18-.75L126.71,60.77A1.72,1.72,0,0,1,128.35,58Z"/><polygon class="cls-46" points="140.46 78.97 217.48 71.9 146.43 86.92 146.06 91.64 140.46 78.97"/><polygon class="cls-47" points="150 91.6 139.85 96.02 146.43 86.92 150 91.6"/><path class="cls-48" d="M157.43,187.51l-26.25,1.37a3.57,3.57,0,0,1-3.79-3.72l.68-24.14a3.54,3.54,0,0,1,3.79-3.38l24.92,1.23a3.43,3.43,0,0,1,3.13,3.36l.61,21.62A3.45,3.45,0,0,1,157.43,187.51Z"/><path class="cls-49" d="M174.57,217.38l-12.12.63a1.65,1.65,0,0,1-1.75-1.72l.31-11.15a1.64,1.64,0,0,1,1.75-1.56l11.51.57a1.58,1.58,0,0,1,1.45,1.55l.28,10A1.59,1.59,0,0,1,174.57,217.38Z"/><path class="cls-50" d="M159.13,238.68l-6.63.35a.91.91,0,0,1-1-.94l.18-6.09a.89.89,0,0,1,.95-.86l6.29.31a.87.87,0,0,1,.79.85l.16,5.46A.88.88,0,0,1,159.13,238.68Z"/><path class="cls-13" d="M145.61,164.05a1.81,1.81,0,0,0-2.24,1.73,5.13,5.13,0,0,1-1.28,3.4l-2.41,2.72a.86.86,0,0,0-.73-.4h-4.69a.87.87,0,0,0-.87.87v10.56a.87.87,0,0,0,.87.87H139a.88.88,0,0,0,.8-.51,6.1,6.1,0,0,0,3.17.9h8.29a2.28,2.28,0,0,0,2.25-2.37c0-.56,0-8.07,0-8.24a2.27,2.27,0,0,0-2.26-2.26H146.9l.18-.42a6.81,6.81,0,0,0-.36-6,1.78,1.78,0,0,0-1.11-.84Zm-7.53,18h-3v-8.82h3Zm13.13-9a.51.51,0,0,1,.51.51v1.23c0,3.37,0,6.56,0,7.1a.47.47,0,0,1-.14.37.49.49,0,0,1-.37.16h-8.29a4.37,4.37,0,0,1-2.73-1l-.36-.3v-6.81l3.57-4a6.92,6.92,0,0,0,1.72-4.55,0,0,0,0,1,.08,0,5,5,0,0,1,.27,4.45l-.69,1.63a.88.88,0,0,0,.08.82.87.87,0,0,0,.72.39Zm0,0"/><path class="cls-13" d="M767.85,223.73h-.75a20.69,20.69,0,0,0-1.85-4.46l.53-.53a3.24,3.24,0,0,0,0-4.58l-3.55-3.54a3.24,3.24,0,0,0-4.58,0l-.53.53a20.48,20.48,0,0,0-4.46-1.85v-.75a3.24,3.24,0,0,0-3.23-3.24h-5a3.24,3.24,0,0,0-3.24,3.24v.75a20.69,20.69,0,0,0-4.46,1.85l-.53-.53a3.24,3.24,0,0,0-4.58,0l-3.55,3.55a3.25,3.25,0,0,0,0,4.57l.53.53a20.9,20.9,0,0,0-1.85,4.46H726a3.24,3.24,0,0,0-3.23,3.24v5a3.24,3.24,0,0,0,3.23,3.24h.75a20.9,20.9,0,0,0,1.85,4.46l-.53.53a3.26,3.26,0,0,0,0,4.58l3.55,3.54a3.24,3.24,0,0,0,4.58,0l.53-.53a20.69,20.69,0,0,0,4.46,1.85v.75a3.24,3.24,0,0,0,3.24,3.24h5a3.24,3.24,0,0,0,3.23-3.24v-.75a20.48,20.48,0,0,0,4.46-1.85l.53.53a3.21,3.21,0,0,0,2.29.95,3.25,3.25,0,0,0,2.29-.94l3.55-3.55a3.24,3.24,0,0,0,0-4.58l-.53-.53a21.2,21.2,0,0,0,1.85-4.46h.75a3.24,3.24,0,0,0,3.23-3.24v-5a3.24,3.24,0,0,0-3.23-3.24Zm-18.08,26.68a.35.35,0,0,1-.34.35h-5a.35.35,0,0,1-.35-.35v-11a1.45,1.45,0,0,0-.94-1.36A9.88,9.88,0,0,1,741,220.61c.12-.09.23-.15.32-.21,0,.19,0,.37,0,.46s0,.26,0,.38v6.81a6,6,0,0,0,5.56,5.95H747a6,6,0,0,0,5.56-5.95v-6.81c0-.12,0-.23,0-.38s0-.27,0-.46a2.85,2.85,0,0,1,.32.21,9.88,9.88,0,0,1-2.13,17.47,1.45,1.45,0,0,0-1,1.36ZM768.2,232a.36.36,0,0,1-.35.35H766a1.44,1.44,0,0,0-1.41,1.13,17.9,17.9,0,0,1-2.36,5.67,1.47,1.47,0,0,0,.2,1.8l1.33,1.32a.34.34,0,0,1,.1.25.32.32,0,0,1-.1.24l-3.56,3.56a.32.32,0,0,1-.24.09.31.31,0,0,1-.24-.1L758.37,245a1.44,1.44,0,0,0-1.79-.2,18.26,18.26,0,0,1-3.92,1.86V240.4a12.78,12.78,0,0,0,1.82-22.18c-.54-.36-2.17-1.48-3.6-.66s-1.27,2.7-1.21,3.51a1.16,1.16,0,0,1,0,.17v6.81a2.78,2.78,0,1,1-5.53,0v-6.8c0-.05,0-.11,0-.18.06-.81.2-2.7-1.2-3.51s-3.07.29-3.61.66a12.78,12.78,0,0,0,1.82,22.18v6.24a18.26,18.26,0,0,1-3.92-1.86,1.42,1.42,0,0,0-1.79.2l-1.33,1.33a.33.33,0,0,1-.24.09.33.33,0,0,1-.25-.1l-3.55-3.55a.36.36,0,0,1-.1-.24.39.39,0,0,1,.1-.25l1.33-1.32a1.45,1.45,0,0,0,.2-1.8,17.84,17.84,0,0,1-2.35-5.67,1.45,1.45,0,0,0-1.41-1.13H726a.36.36,0,0,1-.35-.35v-5a.35.35,0,0,1,.35-.35h1.88a1.45,1.45,0,0,0,1.41-1.13,17.84,17.84,0,0,1,2.35-5.67,1.44,1.44,0,0,0-.2-1.79l-1.33-1.33a.39.39,0,0,1-.1-.25.36.36,0,0,1,.1-.24l3.56-3.55a.3.3,0,0,1,.24-.1.31.31,0,0,1,.24.1l1.33,1.32a1.44,1.44,0,0,0,1.79.2,18.22,18.22,0,0,1,5.68-2.35,1.45,1.45,0,0,0,1.13-1.41v-1.87a.35.35,0,0,1,.35-.35h5a.35.35,0,0,1,.34.35v1.87a1.45,1.45,0,0,0,1.13,1.41,18,18,0,0,1,5.68,2.35,1.44,1.44,0,0,0,1.79-.19l1.33-1.33a.31.31,0,0,1,.24-.1.33.33,0,0,1,.25.1l3.55,3.55a.32.32,0,0,1,.1.24.34.34,0,0,1-.1.25L762.41,218a1.44,1.44,0,0,0-.19,1.79,18.16,18.16,0,0,1,2.35,5.68,1.45,1.45,0,0,0,1.41,1.12h1.87a.35.35,0,0,1,.35.35Zm0,0"/><path class="cls-51" d="M945.83,34.27,989.36,32a5.92,5.92,0,0,1,6.29,6.17l-1.13,40a5.86,5.86,0,0,1-6.28,5.6l-41.34-2a5.68,5.68,0,0,1-5.19-5.56l-1-35.86A5.73,5.73,0,0,1,945.83,34.27Z"/><path class="cls-52" d="M912.93,98.71l20.11-1a2.72,2.72,0,0,1,2.9,2.85L935.42,119a2.72,2.72,0,0,1-2.9,2.59l-19.09-.95a2.61,2.61,0,0,1-2.4-2.57l-.47-16.56A2.64,2.64,0,0,1,912.93,98.71Z"/><path class="cls-53" d="M411.82,214.29l12.12-.64a1.65,1.65,0,0,1,1.75,1.72l-.31,11.15a1.64,1.64,0,0,1-1.75,1.56l-11.51-.57a1.58,1.58,0,0,1-1.45-1.55l-.28-10A1.59,1.59,0,0,1,411.82,214.29Z"/><path class="cls-54" d="M438.53,121.76,491.36,119A7.18,7.18,0,0,1,499,126.5l-1.37,48.59a7.13,7.13,0,0,1-7.62,6.8l-50.17-2.48a6.9,6.9,0,0,1-6.31-6.76l-1.23-43.52C432.2,125.25,435,121.94,438.53,121.76Z"/><path class="cls-13" d="M473.63,154.24l-5.89-8.5a.64.64,0,0,0-1.07,0l-5.89,8.5a.69.69,0,0,0-.08.58l1.68,5H462a.65.65,0,0,0-.65.65v2a.65.65,0,0,0,.65.65h.66v7.19a.66.66,0,0,0,.65.66h7.85a.66.66,0,0,0,.65-.66v-7.19h.66a.65.65,0,0,0,.65-.65v-2a.65.65,0,0,0-.65-.65H472l1.67-5a.63.63,0,0,0-.08-.58Zm-6.42-.94a.66.66,0,0,1,.46,1.12.67.67,0,0,1-.71.14.65.65,0,0,1,.25-1.26Zm3.27,16.35h-6.54v-6.54h6.54Zm1.3-7.85h-9.15v-.65h9.15Zm-1.12-2h-6.91L462,154.71l4.51-6.51V152s0,.08,0,.11a2,2,0,1,0,1.29,0,.37.37,0,0,0,0-.11V148.2l4.51,6.51Zm0,0"/><path class="cls-13" d="M471.13,171.33h-7.85a1,1,0,0,1-1-1v-6.82H462a1,1,0,0,1-1-1v-2a1,1,0,0,1,.91-1l-1.51-4.55a1,1,0,0,1,.13-.9l5.88-8.5a1.06,1.06,0,0,1,1.69,0l5.88,8.5a1,1,0,0,1,.13.9l-1.51,4.55a1,1,0,0,1,.91,1v2a1,1,0,0,1-1,1h-.29v6.82A1,1,0,0,1,471.13,171.33ZM462,160.21a.29.29,0,0,0-.28.28v2a.29.29,0,0,0,.28.28h1v7.56a.29.29,0,0,0,.28.29h7.85a.28.28,0,0,0,.28-.29v-7.56h1a.29.29,0,0,0,.28-.28v-2a.29.29,0,0,0-.28-.28h-.92l1.84-5.51a.28.28,0,0,0,0-.25l-5.88-8.5a.3.3,0,0,0-.47,0l-5.88,8.5a.28.28,0,0,0,0,.25l1.84,5.51Zm8.88,9.81h-7.28v-7.28h7.28Zm-6.54-.74h5.79v-5.8h-5.79Zm7.84-7.11h-9.89v-1.39h9.89Zm-1.23-2h-7.43l-1.86-5.56,5.29-7.64v5l.05.31-.29.15a1.59,1.59,0,1,0,1.05,0l-.3-.1.05-.31v-5l5.29,7.64Zm-6.9-.74h6.37l1.57-4.7-3.73-5.38v2.47a2.33,2.33,0,1,1-2.05,0v-2.47l-3.73,5.38Zm3.19-4.49a1.1,1.1,0,0,1-.4-.08,1,1,0,1,1,.4.08Zm0-1.31a.29.29,0,0,0-.11.55.28.28,0,0,0,.37-.37A.29.29,0,0,0,467.21,153.67Z"/><path class="cls-13" d="M486.82,137.61h-2.61a.66.66,0,0,0-.66.65v.66H469.17v-.66a.66.66,0,0,0-.66-.65h-.65v-3.27h.65a.66.66,0,0,0,.66-.66v-2.61a.66.66,0,0,0-.66-.65H465.9a.66.66,0,0,0-.66.65v2.61a.66.66,0,0,0,.66.66h.65v3.27h-.65a.66.66,0,0,0-.66.65v.66H450.86v-.66a.65.65,0,0,0-.66-.65h-2.61a.65.65,0,0,0-.65.65v2.62a.65.65,0,0,0,.65.65h2.61a.65.65,0,0,0,.66-.65v-.66h10.81a10.07,10.07,0,0,0-2.29,2.08,11.34,11.34,0,0,0-2.64,7.08h-.65a.65.65,0,0,0-.65.65v2.62a.65.65,0,0,0,.65.65h2.62a.65.65,0,0,0,.65-.65V150a.65.65,0,0,0-.65-.65h-.66c0-4.85,3.73-8.67,7.19-9.11v.61a.66.66,0,0,0,.66.65h2.61a.66.66,0,0,0,.66-.65v-.62a7.36,7.36,0,0,1,4.84,3,11.55,11.55,0,0,1,2.33,6.08h-.63a.66.66,0,0,0-.66.65v2.62a.66.66,0,0,0,.66.65h2.61a.66.66,0,0,0,.66-.65V150a.66.66,0,0,0-.66-.65h-.67A12.72,12.72,0,0,0,475,142.5a10.4,10.4,0,0,0-2.4-2.28h10.91v.66a.66.66,0,0,0,.66.65h2.61a.66.66,0,0,0,.66-.65v-2.62a.66.66,0,0,0-.66-.65Zm-37.27,2.61h-1.31v-1.3h1.31Zm8.5,11.77h-1.31v-1.3h1.31Zm8.5-20.27h1.31V133h-1.31Zm1.31,8.5h-1.31v-1.3h1.31Zm8.5,10.47h1.31V152h-1.31Zm9.81-10.47h-1.31v-1.3h1.31Zm0,0"/><path class="cls-13" d="M478.32,153.67h-2.61a1,1,0,0,1-1-1V150a1,1,0,0,1,1-1h.22a11.14,11.14,0,0,0-2.21-5.48,7.31,7.31,0,0,0-4.18-2.83v.18a1,1,0,0,1-1,1H465.9a1,1,0,0,1-1-1v-.18c-3,.64-6.26,4-6.44,8.31h.28a1,1,0,0,1,1,1v2.62a1,1,0,0,1-1,1h-2.62a1,1,0,0,1-1-1V150a1,1,0,0,1,1-1h.29a11.81,11.81,0,0,1,2.72-6.95,10.08,10.08,0,0,1,1.45-1.47h-9.32v.29a1,1,0,0,1-1,1h-2.61a1,1,0,0,1-1-1v-2.62a1,1,0,0,1,1-1h2.61a1,1,0,0,1,1,1v.28h13.64v-.28a1,1,0,0,1,1-1h.28v-2.53h-.28a1,1,0,0,1-1-1v-2.61a1,1,0,0,1,1-1h2.61a1,1,0,0,1,1,1v2.61a1,1,0,0,1-1,1h-.28v2.53h.28a1,1,0,0,1,1,1v.28h13.64v-.28a1,1,0,0,1,1-1h2.61a1,1,0,0,1,1,1v2.62a1,1,0,0,1-1,1h-2.61a1,1,0,0,1-1-1v-.29h-9.44a10.67,10.67,0,0,1,1.6,1.69A13,13,0,0,1,478,149h.33a1,1,0,0,1,1,1v2.62A1,1,0,0,1,478.32,153.67Zm-2.61-3.92a.29.29,0,0,0-.29.28v2.62a.29.29,0,0,0,.29.28h2.61a.29.29,0,0,0,.29-.28V150a.29.29,0,0,0-.29-.28h-1l0-.35a12.32,12.32,0,0,0-2.53-6.67,9.7,9.7,0,0,0-2.32-2.2l-1-.68h12l.42,0,0,.42v.66a.29.29,0,0,0,.29.28h2.61a.29.29,0,0,0,.29-.28v-2.62a.29.29,0,0,0-.29-.28h-2.61a.29.29,0,0,0-.29.28v1.09l-.42-.06H468.8v-1a.29.29,0,0,0-.29-.28h-1v-4h1a.29.29,0,0,0,.29-.29v-2.61a.28.28,0,0,0-.29-.28H465.9a.27.27,0,0,0-.28.28v2.61a.28.28,0,0,0,.28.29h1v4h-1a.28.28,0,0,0-.28.28v1H450.49v-1a.29.29,0,0,0-.29-.28h-2.61a.28.28,0,0,0-.28.28v2.62a.28.28,0,0,0,.28.28h2.61a.29.29,0,0,0,.29-.28v-1H462.9l-1,.68a10,10,0,0,0-2.2,2,11,11,0,0,0-2.56,6.85v.37h-1a.28.28,0,0,0-.28.28v2.62a.28.28,0,0,0,.28.28h2.62a.29.29,0,0,0,.28-.28V150a.29.29,0,0,0-.28-.28h-1v-.37c0-5.1,3.89-9,7.52-9.48l.42-.05v1a.28.28,0,0,0,.28.28h2.61a.29.29,0,0,0,.29-.28v-1l.41.05a7.79,7.79,0,0,1,5.09,3.18,11.76,11.76,0,0,1,2.41,6.27l0,.4Zm2.33,2.61H476v-2H478Zm-1.31-.74h.57v-.56h-.57Zm-18.31.74h-2.05v-2h2.05Zm-1.31-.74h.57v-.56h-.57Zm29.43-11h-2.05v-2.05h2.05Zm-1.31-.74h.57v-.56h-.57Zm-17,.74h-2.05v-2.05h2.05Zm-1.31-.74h.57v-.56h-.57Zm-17,.74h-2.05v-2.05h2.05Zm-1.31-.74h.57v-.56h-.57Zm19.62-6.45h-2.05v-2.05h2.05Zm-1.31-.74h.57v-.57h-.57Z"/><path class="cls-55" d="M443.48,199.07l7.85-.4a1.05,1.05,0,0,1,1.13,1.11l-.2,7.21a1.06,1.06,0,0,1-1.13,1l-7.45-.37a1,1,0,0,1-.94-1l-.18-6.46A1,1,0,0,1,443.48,199.07Z"/><path class="cls-56" d="M954.74,170l11-.57a1.49,1.49,0,0,1,1.59,1.55L967,181.11a1.48,1.48,0,0,1-1.58,1.41L955,182a1.43,1.43,0,0,1-1.32-1.4l-.25-9A1.44,1.44,0,0,1,954.74,170Z"/><path class="cls-57" d="M967.59,45.92a.69.69,0,0,1-.69.69H956.16V66.68L961,60.76a.71.71,0,0,1,1.09,0l3.82,4.68L969.51,61a.71.71,0,0,1,1-.09.7.7,0,0,1,.09,1L963,71.24h17.82V61.59l-5-6.08-3.24,4a.7.7,0,0,1-1.08-.88L975.29,54a.7.7,0,0,1,1.09,0l4.41,5.4V46.61H970.06a.7.7,0,1,1,0-1.39h11.43a.7.7,0,0,1,.7.7v-.7H966.9A.69.69,0,0,1,967.59,45.92Zm3,8.18a5.16,5.16,0,1,1-1.5-3.64A5.14,5.14,0,0,1,970.57,54.1Z"/><polygon class="cls-57" points="961.53 62.31 956.16 68.88 956.16 71.24 961.17 71.24 965 66.55 961.53 62.31"/><path class="cls-57" d="M962.76,51.44a3.77,3.77,0,1,0,2.66-1.1A3.77,3.77,0,0,0,962.76,51.44Z"/><path class="cls-57" d="M981.49,72.64h.7v-.7A.7.7,0,0,1,981.49,72.64Z"/><path class="cls-57" d="M954.76,71.94v-26a.7.7,0,0,1,.7-.7h-1V72.64h1A.7.7,0,0,1,954.76,71.94Z"/><path class="cls-58" d="M981.49,45.22H970.06a.7.7,0,1,0,0,1.39h10.73V59.38L976.38,54a.7.7,0,0,0-1.09,0l-3.78,4.62a.7.7,0,0,0,1.08.88l3.24-4,5,6.08v9.65H963l7.62-9.32a.7.7,0,0,0-.09-1,.71.71,0,0,0-1,.09l-3.61,4.42-3.82-4.68a.71.71,0,0,0-1.09,0l-4.83,5.92V46.61H966.9a.7.7,0,0,0,0-1.39H955.46a.7.7,0,0,0-.7.7v26a.7.7,0,0,0,.7.7h26a.7.7,0,0,0,.7-.7v-26A.7.7,0,0,0,981.49,45.22Zm-25.33,26V68.88l5.37-6.57L965,66.55l-3.83,4.69Z"/><path class="cls-58" d="M961.77,50.46a5.14,5.14,0,1,0,3.65-1.52A5.14,5.14,0,0,0,961.77,50.46Zm7.41,3.64a3.76,3.76,0,1,1-1.1-2.66A3.75,3.75,0,0,1,969.18,54.1Z"/><rect class="cls-58" x="966.18" y="45.22" width="6" height="1.4"/><polygon class="cls-58" points="968.85 61.85 971.88 58.14 972.99 58.98 970.1 62.52 968.85 61.85"/><path class="cls-59" d="M861.09,349.19s12.77,10,13.2,11.78c.61,2.55,12.31-.81,9.49-1.33-.65-.11-2.73-.64-2.9-.73-.91-.49-12.27-14.18-12.27-14.18Z"/><path class="cls-60" d="M889.26,359.64l-8.15-.66a11.55,11.55,0,0,1-6.81,2,10.43,10.43,0,0,0-.38,4.44c.06.41.13,1.66.55,1.63,1.5-.1,5.52-1.1,10.09-2,0,0,6.15-1.3,9.69-3.42S889.26,359.64,889.26,359.64Z"/><path class="cls-61" d="M803.87,324.1a55.87,55.87,0,0,0,19.7-.85c12-2.8,25.2-5.39,29.08-3.13,3.12,1.81,22.61,31.26,22.61,31.26l-7.53,5.49-21.46-24s-27.38,10.1-33.53,9C798.74,339.28,798.54,328.09,803.87,324.1Z"/><path class="cls-62" d="M833.11,369s-.57,15.45-.92,18.06,6.56,10.45,5.67,7.72c-.2-.63-.72-2.7-.72-2.9,0-1,2.56-18.65,2.56-18.65Z"/><path class="cls-63" d="M842.28,400.36l-5.1-8.29a11.55,11.55,0,0,1-5-5,10.62,10.62,0,0,0-4.09,1.78c-.33.25-2.62,1.92-2.46,2.3.59,1.42,3.7,4.46,7.1,7.78a90.37,90.37,0,0,0,8.38,6C844.65,407,842.28,400.36,842.28,400.36Z"/><path class="cls-64" d="M848.27,338.5c-3.27-4.36-29.66-8.5-29.66-8.5l-7.36-14.15-15.88,10s1.23,13,2.45,16.44c1.63,4.62,12.57,4.85,19.25,4.78,6.14-.06,17.37,1.19,17.37,1.19l-3.8,33.5s7.46,1.7,9.56,1.42C840.44,383.15,852.34,343.92,848.27,338.5Z"/><polygon class="cls-65" points="818.93 285 811.32 285.37 810.88 274.16 810.8 256.86 817.81 256.37 818.93 285"/><path class="cls-66" d="M822.28,268.87a5.77,5.77,0,0,1-1.88,3.71,4.66,4.66,0,0,1-3.69,1.14l-1.23-.17c-3.64-.5-6.23-4.19-5.79-8.25l.83-7.57a6.57,6.57,0,0,1,2.15-4.24,5.31,5.31,0,0,1,4.22-1.3l2.56.35a5,5,0,0,1,4,5.69Z"/><path class="cls-67" d="M818.11,272.7l-1.23-.17c-3.64-.5-6.23-4.2-5.78-8.26.32-3,2-6.5,6.34-11.47l-4,1a4.09,4.09,0,0,0-2.91,3.61l-.85,7.86c-.45,4.06,2.14,7.76,5.78,8.26l1.23.17a4.65,4.65,0,0,0,4-1.46A4.46,4.46,0,0,1,818.11,272.7Z"/><path class="cls-68" d="M817.62,259.32a1.24,1.24,0,0,0-.75-.46,1,1,0,0,0-.77.39l-.65-.77a1.81,1.81,0,0,1,1.49-.66,2.11,2.11,0,0,1,1.41.84l-.73.66L818,259Z"/><path class="cls-69" d="M823,260.11a1.24,1.24,0,0,0-.75-.46,1,1,0,0,0-.77.39l-.65-.77a1.86,1.86,0,0,1,1.49-.67,2.15,2.15,0,0,1,1.41.85l-.73.66.37-.33Z"/><path d="M823.29,261.36a.16.16,0,0,1-.19-.09,1.2,1.2,0,0,0-1.78-.36.17.17,0,0,1-.24-.07.21.21,0,0,1,.06-.27,1.55,1.55,0,0,1,2.26.49.2.2,0,0,1-.06.27Z"/><path d="M817.83,260.85a.17.17,0,0,1-.19-.08,1.19,1.19,0,0,0-1.78-.37.17.17,0,0,1-.24-.07.21.21,0,0,1,.07-.27,1.55,1.55,0,0,1,2.25.49.22.22,0,0,1-.05.28Z"/><path class="cls-70" d="M808.4,264.21a1.83,1.83,0,0,0,3.08,0,3.54,3.54,0,0,0,.09-4.06,1.83,1.83,0,0,0-3.08,0A3.55,3.55,0,0,0,808.4,264.21Z"/><path class="cls-71" d="M808.33,261.74c.38-1.52,1.62-2.39,2.76-1.94a1.86,1.86,0,0,1,.43.25,2,2,0,0,0-.84-.65c-1.14-.45-2.37.42-2.76,1.94a3.23,3.23,0,0,0,.94,3.32A3.41,3.41,0,0,1,808.33,261.74Z"/><path class="cls-72" d="M811.35,255.14s2.18-5.36,6.84-4.77,5.21,4,5.12,5.87C823.31,256.24,819.56,249.77,811.35,255.14Z"/><path class="cls-73" d="M821,266.55l-1.42.18-2.86.35-.87.88-4.46-4.83-1.62,1.4-.09.77a7.86,7.86,0,0,0,2.35,6.58h0s4,5.4,8.94,1.09a4.07,4.07,0,0,0,1.36-2.9l.15-3.11Z"/><path class="cls-13" d="M820,269.07a1.38,1.38,0,0,1-1.43-1.36l2.65-.23A1.43,1.43,0,0,1,820,269.07Z"/><path class="cls-74" d="M820.32,281c.8-.32,1.68-.7,2.52-1.06l2.55-1.13c1.69-.76,3.37-1.54,5-2.35s3.25-1.65,4.73-2.51c.73-.43,1.44-.88,2-1.27l.62-.45s0,0,0,.11a1.09,1.09,0,0,0-.08.15c0,.07-.09.18-.13.27l-.08.2a2.25,2.25,0,0,0-.08.24l-.05.15,0,.18a2.53,2.53,0,0,0-.07.38l-.1,1.26c0-.48.1-.93.13-1.48s.07-1.06.1-1.61c.06-1.09.11-2.2.16-3.3l.25-6.68c.16-4.46.29-8.94.41-13.4h0a2,2,0,0,1,1.93-2,1.94,1.94,0,0,1,1.76,1.6q1.41,6.54,2.78,13.1l1.35,6.59c.22,1.11.44,2.21.65,3.34.1.55.21,1.12.3,1.71s.2,1.21.29,1.84a2.74,2.74,0,0,1,0,.81l-.09.45a5.78,5.78,0,0,1-.12.57l-.07.27,0,.14,0,.11a2.86,2.86,0,0,1-.15.41,2.9,2.9,0,0,1-.16.38c-.09.21-.2.43-.3.61l-.28.48a12.09,12.09,0,0,1-1,1.28,16.85,16.85,0,0,1-1.52,1.58c-.94.87-1.81,1.57-2.67,2.23-1.72,1.33-3.41,2.48-5.1,3.61s-3.38,2.18-5.08,3.22l-2.55,1.54c-.86.51-1.69,1-2.61,1.51l0,0c-3.15,1.78-7,.38-8.61-3.14a7.53,7.53,0,0,1,2.82-9.59C819.84,281.19,820.09,281.07,820.32,281Z"/><path class="cls-75" d="M840.08,250.08a2.62,2.62,0,0,1-3.21-2l-.56-4.14a2.82,2.82,0,0,1,2.54-2.93,2.47,2.47,0,0,1,3,1.85l.6,4.41A2.67,2.67,0,0,1,840.08,250.08Z"/><path class="cls-76" d="M840.55,243.17a.81.81,0,0,0,.4.18.76.76,0,0,0,.8-.73c0-.16.33-3.91-2.38-6.15a.69.69,0,0,0-1,.17.88.88,0,0,0,.15,1.14,5.89,5.89,0,0,1,1.8,4.67A.91.91,0,0,0,840.55,243.17Z"/><path class="cls-77" d="M835.55,239.32a.72.72,0,0,0,.39.19c2.53.32,3.64,3,3.65,3a.7.7,0,0,0,1,.41.85.85,0,0,0,.37-1.08c-.06-.14-1.47-3.56-4.83-4a.76.76,0,0,0-.81.72A.86.86,0,0,0,835.55,239.32Z"/><path class="cls-78" d="M833.91,241.55a.67.67,0,0,0,.56.18c2.53-.36,4.18,2,4.2,2a.68.68,0,0,0,1,.14.88.88,0,0,0,.13-1.15c-.09-.12-2.19-3.07-5.54-2.59a.79.79,0,0,0-.63.91A.81.81,0,0,0,833.91,241.55Z"/><path class="cls-79" d="M833.87,244.69a.66.66,0,0,0,.9,0,3.14,3.14,0,0,1,3.85-.22.68.68,0,0,0,1-.21.86.86,0,0,0-.19-1.13,4.43,4.43,0,0,0-5.54.24.9.9,0,0,0-.15,1.15A.81.81,0,0,0,833.87,244.69Z"/><path class="cls-80" d="M798.48,291.93l-2.2-1.86-2.14-1.87c-1.43-1.26-2.83-2.55-4.24-3.89s-2.79-2.73-4.19-4.3c-.71-.79-1.41-1.61-2.16-2.62a19.79,19.79,0,0,1-1.18-1.81c-.1-.17-.22-.4-.33-.61s-.22-.46-.34-.76a8.8,8.8,0,0,1-.64-2.5l0-.39a2.9,2.9,0,0,1,0-.93,17.74,17.74,0,0,1,.52-2c.19-.58.38-1.1.57-1.61.38-1,.78-2,1.19-2.93.81-1.89,1.65-3.71,2.51-5.51,1.71-3.61,3.46-7.13,5.27-10.65a1.77,1.77,0,0,1,2.56-.77,2.2,2.2,0,0,1,.9,2.27v0c-.79,3.88-1.54,7.8-2.21,11.69-.33,1.94-.64,3.88-.9,5.79-.13.95-.24,1.89-.32,2.79,0,.44-.07.88-.08,1.27a4,4,0,0,0,0,.93v-1.32a4.54,4.54,0,0,0-.23-1.11c0-.09,0-.09,0-.12s0,0,0,0l.45.48c.43.43,1,.95,1.59,1.46,1.2,1,2.55,2.07,3.92,3.09s2.81,2,4.26,3l2.17,1.44c.72.47,1.48,1,2.16,1.38a7.58,7.58,0,0,1,2.51,9.7,6.09,6.09,0,0,1-8.71,2.8c-.23-.15-.45-.31-.66-.47Z"/><path class="cls-81" d="M792.59,250.29a2.63,2.63,0,0,0,3.22-1.95l.57-4.13a2.82,2.82,0,0,0-2.53-2.94,2.46,2.46,0,0,0-3,1.83l-.62,4.41A2.67,2.67,0,0,0,792.59,250.29Z"/><path class="cls-82" d="M792.14,243.37a.78.78,0,0,1-.39.18.77.77,0,0,1-.81-.73c0-.16-.31-3.91,2.4-6.14a.69.69,0,0,1,1,.17.87.87,0,0,1-.16,1.14,5.89,5.89,0,0,0-1.81,4.66A.86.86,0,0,1,792.14,243.37Z"/><path class="cls-83" d="M797.15,239.54a.71.71,0,0,1-.38.18c-2.54.32-3.66,3-3.67,3a.7.7,0,0,1-1,.41.85.85,0,0,1-.36-1.08c.06-.14,1.48-3.56,4.83-4a.75.75,0,0,1,.81.72A.83.83,0,0,1,797.15,239.54Z"/><path class="cls-84" d="M798.79,241.77a.67.67,0,0,1-.56.18c-2.53-.37-4.19,1.94-4.2,2a.68.68,0,0,1-1,.14.87.87,0,0,1-.13-1.14c.09-.13,2.2-3.07,5.55-2.58a.81.81,0,0,1,.63.91A.81.81,0,0,1,798.79,241.77Z"/><path class="cls-85" d="M798.82,244.92a.67.67,0,0,1-.9,0,3.13,3.13,0,0,0-3.85-.23.68.68,0,0,1-1-.22.87.87,0,0,1,.19-1.13,4.46,4.46,0,0,1,5.54.27.88.88,0,0,1,.15,1.14A.61.61,0,0,1,798.82,244.92Z"/><path d="M816.4,260.65a.69.69,0,0,0,.56.76.66.66,0,0,0,.68-.63.67.67,0,0,0-.57-.75A.63.63,0,0,0,816.4,260.65Z"/><path d="M821.67,261.2a.66.66,0,0,0,.56.75.63.63,0,0,0,.67-.62.68.68,0,0,0-.56-.76A.65.65,0,0,0,821.67,261.2Z"/><path class="cls-86" d="M798,314.5c-.6-7.11-1.84-18.83-1-25.87.42-3.51,2.51-6.8,5.18-7.84l6.12-1.35L811,277.5c.26,3.55,2.1,5.24,3.83,5.31,2.18.08,3.14-1.18,3.81-4.13l1.09,1.62c.72.27.88.84,1.45,1.54l7.7,4.75-2.85,29.48a39.74,39.74,0,0,0,.11,7.4l-31.08,2.66Z"/><path class="cls-18" d="M819.48,258.7l.87,3.46a1.48,1.48,0,0,0,.31.79,2.42,2.42,0,0,1,.35.45.6.6,0,0,1,0,.54c-.21.36-.94.52-1.34.55s-1-.13-1.11-.46-.64-.11-.54.17a1.46,1.46,0,0,0,1.23.74,3,3,0,0,0,1.48-.26c.8-.33,1.05-.94.72-1.54a2.13,2.13,0,0,0-.42-.54l-.09-.08c.17-.19,0,.19.06.06a.29.29,0,0,0,0-.1l-.52-2.07-.47-1.88c-.07-.28-.61-.11-.54.17Z"/><rect class="cls-87" x="49.33" y="372.6" width="2.91" height="69.24" transform="matrix(0.98, 0.19, -0.19, 0.98, 76.72, -2.33)"/><polygon class="cls-88" points="178.44 439.24 181.88 439.24 169.08 372.93 166.22 373.47 178.44 439.24"/><polygon class="cls-89" points="78.13 439.24 81.56 439.24 68.76 372.93 65.9 373.47 78.13 439.24"/><polygon class="cls-90" points="147.13 439.24 144.34 439.28 156.62 373.23 159.48 373.77 147.13 439.24"/><path class="cls-91" d="M97.69,229.21c-15.26,1.63-35,3.36-54.81,37C21.22,303,32.62,357.85,49.72,373.11S122.64,407.2,169.57,379c0,0,28.34-17.09,13.8-45.45C161,289.9,164.15,280.8,154.14,263.69S130.06,225.74,97.69,229.21Z"/><path class="cls-92" d="M42.88,266.2c13.52-23,27-31,39.06-34.39a101.11,101.11,0,0,0-14.11,19.06c-21.66,36.75-10.26,91.66,6.83,106.91,15.16,13.53,60.79,29.87,103.65,13.73a43.2,43.2,0,0,1-8.74,7.49c-46.93,28.2-102.76,9.36-119.85-5.89S21.22,303,42.88,266.2Z"/><polygon class="cls-93" points="146.66 285.07 150.58 296.84 138.63 292.14 146.66 285.07"/><path class="cls-94" d="M134.34,250.07c.8,0,3,.77,6.17,6.78,4.08,7.67,10,30.87,10,30.87l-17.79,6.6-2.28-4.85-3.76-37.26S134.12,250.07,134.34,250.07Z"/><path class="cls-95" d="M110.84,246.73c5.08,0,17.66,1.49,23.5,3.35,0,0,4.29,36.74-3.86,64.66C128.65,321,132,340.65,132,340.65L79.3,340s6.24-47.53,3.89-55.2-2.41-34.44-2.41-34.44.36,0,11.84-2A120.88,120.88,0,0,1,110.84,246.73Z"/><path class="cls-96" d="M104.7,408.86s1.16,13.41,3.3,17.12-.11,10-.22,10.89-4.51,2.1-11.51,1.36-6.88-2.35-6.31-5,4.28-5.94,4.51-8.42-2.15-11.38-2.15-11.38Z"/><path class="cls-97" d="M126,329.59s36.38-2,44.5,2.89-1.47,15-1.47,15-29.61,12.83-79.19,15.68c-11.73.67-12.75-30.51-10.55-33.09S126,329.59,126,329.59Z"/><path class="cls-98" d="M95.4,439.27c-7.2-.76-6.31-4.29-5.73-7,.36-1.67,2.43-3.65,3.66-5.52a11.9,11.9,0,0,0,4.82,2.34c3.25.95,7.7-.94,10.54-2.12a34.75,34.75,0,0,1,1,9.26C109.53,437.15,102.6,440,95.4,439.27Z"/><path class="cls-99" d="M99.38,355.52C100.83,366.48,108,421,108,421L91.33,423.1S70.8,351.89,71.85,341s8.74-11.81,8.74-11.81S95.53,326.51,99.38,355.52Z"/><path class="cls-100" d="M80.21,254.41c4.92-1.84,7.33,42.39,8,60.6,8.72.84,23.93,0,27.71-.27,1.79-.14,5.89-1.64,7.66-1.87a17.81,17.81,0,0,1,4.35-.2c.33.05,9.43,3.76,10.2,4.57,1,1,3.58,3.55,3.14,4.65s-5-3.06-5-3.06L134,317.58c2.79,2.71,8.1,6.28,7.33,7.58s-5.53-2.36-9-4.82c2.93,2.63,6.57,7.35,5.73,8.08s-4.89-4.8-9.31-6.37c-1.64-.58-3.27,1-4.56,1.23a9.21,9.21,0,0,1-3.34.18l-4.79-1.35c-1.63.15-1.67,1.11-3.32,1.46-1.91.4-5,.83-7.48,1.42-14,3.42-18.7,5-23,5C69.32,330,68.56,258.76,80.21,254.41Z"/><path class="cls-101" d="M70.86,295.94c-.93-18.65-.79-41.64,9.7-45.56,4.14-1.55,11.44,7.76,10.13,45.94C85.08,296.78,76.86,297.15,70.86,295.94Z"/><path class="cls-102" d="M153.51,420.33s-1.45,4.65,1.16,7.73,13.44,6.1,14.87,7.76a4.67,4.67,0,0,1,1.31,3.09l-30.42-.83.33-9.16,1.4-6.58Z"/><path class="cls-103" d="M156.56,429.59s-7.82,3.15-11.59,1.29-3.67-2.38-4.76-1.69-1.48,10.05-1.48,10.05l34.2.23c2.39-.05,3.59-1.8,1.65-3.29a25.79,25.79,0,0,0-3.73-2.21C168.18,432.44,156.56,429.59,156.56,429.59Z"/><path class="cls-104" d="M152.36,338.18c2.35-4.93,7.7-11.35,17.11-7.48,9,3.68,11.38,12.75,8.55,22s-21.47,63.84-22.12,71.34l-14.88.1s2.7-43.2,3.37-53.64C145,360.48,148.29,346.71,152.36,338.18Z"/><path class="cls-105" d="M176.52,287.93H126.77a3.24,3.24,0,0,0-3,2L108.45,327.3H81a1.39,1.39,0,0,0-1.39,1.39h0A1.38,1.38,0,0,0,81,330.07h78.06a5.44,5.44,0,0,0,5-3.21l15.42-34.36A3.24,3.24,0,0,0,176.52,287.93Z"/><path class="cls-106" d="M104.79,231l-2.43,16s8.88,19.11,14.19,17.45c4.45-1.39,1.71-18.29,1.71-18.29s-2.42-9.08-1.69-13.62S104.79,231,104.79,231Z"/><path class="cls-107" d="M116.57,232.56c.72-4.54-11.78-1.58-11.78-1.58l-.2,1.33a7.42,7.42,0,0,0,1.35,2.24,16.47,16.47,0,0,0,10.94,4.94A24.57,24.57,0,0,1,116.57,232.56Z"/><path class="cls-108" d="M102.74,208.28c-.36-.12-2.83,18.28,1.87,23.34s13.87,6.72,17.16,2.73c3.64-4.41,3.45-24.19-3.86-29.39S102.74,208.28,102.74,208.28Z"/><path class="cls-109" d="M115.12,195.11a20.41,20.41,0,0,0-10.66,6.08c-2.56.31-6,1.73-9.66,7.69-4.43,7.34-1.16,15.47,4,19.45s5.09,8.6,5.09,8.6l.81-2.39a13.34,13.34,0,0,0,.65-5.61,11,11,0,0,0-.84-3.37c-1.24-2.66,2.67-4.43,3.76-6.65.85-1.71.89-5.61,2.22-8.43l1.58-2.15s3.66-2.85,7.24-2.05S122.38,193.63,115.12,195.11Z"/><path class="cls-110" d="M108,222.19c0,2.24-1,4.08-2.28,4.1s-2.37-1.78-2.41-4,1-4.09,2.28-4.11S108,219.94,108,222.19Z"/><path class="cls-13" d="M114.39,228.41l7.09-.37a3.11,3.11,0,0,1-3.14,3C114.54,231.3,114.39,228.41,114.39,228.41Z"/><path d="M112.64,217.66a1,1,0,1,0,1.15-.78A1,1,0,0,0,112.64,217.66Z"/><path d="M119.61,217.65a1,1,0,1,0,1.14-.78A1,1,0,0,0,119.61,217.65Z"/><path d="M115,216.18a.34.34,0,0,1-.3-.08,1.85,1.85,0,0,0-1.23-.41,1.58,1.58,0,0,0-1.08.7.34.34,0,0,1-.49.07.35.35,0,0,1-.07-.48,2.25,2.25,0,0,1,1.57-1,2.5,2.5,0,0,1,1.75.58.35.35,0,0,1,0,.49A.37.37,0,0,1,115,216.18Z"/><path d="M122,216.26a.33.33,0,0,1-.3-.08,1.89,1.89,0,0,0-1.24-.41,1.6,1.6,0,0,0-1.08.7.33.33,0,0,1-.48.07.35.35,0,0,1-.07-.48,2.23,2.23,0,0,1,1.57-1,2.5,2.5,0,0,1,1.75.58.35.35,0,0,1,0,.49A.34.34,0,0,1,122,216.26Z"/><path class="cls-13" d="M119.42,217.72a.4.4,0,0,0,.31.46.39.39,0,0,0,.45-.31.4.4,0,0,0-.31-.46A.39.39,0,0,0,119.42,217.72Z"/><path class="cls-13" d="M112.42,217.89a.4.4,0,0,0,.31.46.39.39,0,0,0,.45-.31.4.4,0,0,0-.31-.46A.39.39,0,0,0,112.42,217.89Z"/><path d="M122,217.63a.25.25,0,0,1-.24-.08,1.6,1.6,0,0,0-2.27,0,.26.26,0,1,1-.34-.4,2.12,2.12,0,0,1,3,.07.25.25,0,0,1,0,.36A.19.19,0,0,1,122,217.63Z"/><path d="M115.08,217.59a.26.26,0,0,1-.25-.08,1.6,1.6,0,0,0-2.27,0,.26.26,0,0,1-.37,0,.25.25,0,0,1,0-.36,2.12,2.12,0,0,1,3,.06.26.26,0,0,1,0,.37A.24.24,0,0,1,115.08,217.59Z"/><path class="cls-18" d="M117.82,218.25l1.24,4.66a2.37,2.37,0,0,0,.41,1.08,3.69,3.69,0,0,1,.44.62.85.85,0,0,1,.08.71c-.22.48-1.08.65-1.55.68a1.42,1.42,0,0,1-1.34-.67c-.14-.37-.76-.17-.62.2a1.88,1.88,0,0,0,1.49,1.05,3.05,3.05,0,0,0,1.73-.27,1.38,1.38,0,0,0,.77-2,3.17,3.17,0,0,0-.53-.73l-.12-.13c.2-.24.06.27.07.09s0-.1,0-.14l-.74-2.79-.67-2.53c-.1-.38-.73-.18-.63.2Z"/><path class="cls-111" d="M352.53,175.38c1.47-1.19,12.84,3.8,12.69,5.53s7.93,18.56,7.93,18.56l14-11.12h0c.12-.4,1.44-4.73,1.51-5.5s2.42-2.23,3.52-2-.94,1.58-1.07,1.83c-.37.69,1,.94,1,.94s4-2.21,4.11-3.51.92-4,1.79-3.46c.45.3.45,2.23.31,3.15.26-1,.62-2.22,1-2.33.65-.22,1,.61.86,1s-1.17,4.83-1.49,5.33-6.83,5.73-7.76,6.87c0,0-18.05,20.63-19.33,21.17-1.13.47-5.15-6.64-8.95-11.36S347.94,179.12,352.53,175.38Z"/><path class="cls-112" d="M316.13,327.06s-2.48,2.42-2.54,3.31-.22,10.4.79,11.28,4,1.52,3,2.52c-.72.75-6.28.59-10,.39-1.08-.06-2.43-8.64-2.85-9.9-.62-1.83-2.12-6-1.56-7.23a10.73,10.73,0,0,1,3.43-3.1,16.86,16.86,0,0,0,3.8-4Z"/><path class="cls-113" d="M306.59,324.27s5.72,16.09,8,16.87c.6.21,3.45.73,4,2a5.21,5.21,0,0,1,0,1.65H306.61s-1.5-7.09-2.1-10.21c0,0-3.15-7.61-2.8-8.3S306.59,324.27,306.59,324.27Z"/><path class="cls-114" d="M342.18,331.25l-2.33,6.28c-.17,1-.85,3.45-.85,4.35,0,3.4,13.48-1.73,13-2.34a16.4,16.4,0,0,1-2-4.42c-.17-1.77,1.35-4,1.35-4Z"/><path class="cls-115" d="M365.81,216s1.11,11.23,1.11,11.4c0,18.18,3.6,53.69,2.92,57.1-1.67,8.34-19.66,50.86-19.66,50.86l-9.73-1.16,12.67-50.91-4.66-20.49-6.6-40.51Z"/><path class="cls-116" d="M333.17,225.91l-1.85,10.65-5,43.83-19,42.84s2.67,6.23,6.62,7.11l30.26-44L363,230.07l-.66-12.5Z"/><path class="cls-117" d="M369.68,189.21l-13.48,1.38s-.62-11.06-.62-16.33c0-6.4.55-14.64,1.32-14.46a11.81,11.81,0,0,1,6.83,4.08C369.74,172.15,369.68,189.21,369.68,189.21Z"/><path class="cls-118" d="M363.06,173.13c.28,2,5.47,55,5.47,55-24.56,11.86-38.1,2.11-38.1,2.11s.8-37.23-.16-42.3c-.64-3.36-1.44-25.64.74-26.26a54.25,54.25,0,0,1,9.47-2c3-.31,14.53-.49,16.6.2A26.37,26.37,0,0,1,363.06,173.13Z"/><polygon class="cls-119" points="407.44 173.24 429.69 139.4 391.47 152.79 386.38 167.52 407.44 173.24"/><polygon class="cls-120" points="386.38 167.52 391.8 168.99 429.69 139.4 391.47 152.79 386.38 167.52"/><polygon class="cls-121" points="391.47 152.79 401.37 149.32 395.98 158.56 274.56 253.36 273.73 244.72 391.47 152.79"/><polygon class="cls-122" points="395.98 158.56 407.28 156.9 402.94 167.47 281.52 262.27 274.56 253.36 395.98 158.56"/><polygon class="cls-123" points="402.94 167.47 413.2 164.48 407.44 173.24 289.69 265.17 281.52 262.27 402.94 167.47"/><polygon class="cls-124" points="290.46 255.29 283.5 246.38 279 240.61 273.73 244.72 274.56 253.36 281.52 262.27 289.69 265.17 294.96 261.06 290.46 255.29"/><polygon class="cls-125" points="301 247.07 294.03 238.15 289.53 232.38 279 240.61 283.5 246.38 290.46 255.29 294.96 261.06 305.5 252.83 301 247.07"/><path class="cls-126" d="M422.14,150.89l7.55-11.49-13,4.55,4.61,2Z"/><path class="cls-127" d="M306.11,228.67a1.28,1.28,0,0,1,0-.34c.36-3.67,3.41-34.51,3.93-35.82s14.14-20.74,14.14-20.74l6.72,9.16-13.16,17.54c-.29,1.11-5,21.93-5,21.93s-1,3.8-1.41,6.07c.2.55.39,1.06.56,1.49a13.72,13.72,0,0,0,1.42,2.27,15.58,15.58,0,0,1,1.68,3c.14.54.39,1.65.53,2.33s.34,1.45.37,1.81a3.33,3.33,0,0,0,.43,1,.59.59,0,0,1-.7.85c-.47-.16-.85-.78-1.07-1.17-.65-1.08-1-3.07-1.16-3s-.73,3.47-.82,3.85a42.08,42.08,0,0,1-1.15,5c-.38.72-.89.6-1,.15s.43-5.86.43-5.86.06-.7-.24-.48-.81,5.19-1,5.91-.7,1.12-1.11.53.36-6,.36-6,.1-.66-.19-.6-.63,4.3-.85,4.66a.56.56,0,0,1-1-.11c-.32-.72.49-5.42.49-5.42s0-.37-.21-.25-.74,3.71-1.11,4.05a.38.38,0,0,1-.56,0c-.67-.45.36-3.87.35-5.57s.78-3.6.54-5.62C306.18,229.18,306.13,228.87,306.11,228.67Z"/><path class="cls-128" d="M313.48,184.16,325.16,192s6.59-9.8,10.12-13.29c4.43-4.37-1.61-17.75-4.46-17C324.44,163.41,313.48,184.16,313.48,184.16Z"/><path class="cls-129" d="M343.76,149.39l-1.58,10.44s5.78,12.42,9.23,11.34c2.89-.91,1.11-11.89,1.11-11.89s-1.58-5.91-1.1-8.86S343.76,149.39,343.76,149.39Z"/><path class="cls-130" d="M342.43,134.64c-.23-.09-1.84,11.88,1.21,15.17s9,4.37,11.16,1.78c2.37-2.87,2.25-15.73-2.51-19.12S342.43,134.64,342.43,134.64Z"/><path class="cls-131" d="M350.48,126.07a13.15,13.15,0,0,0-6.93,4c-1.67.19-3.94,1.12-6.28,5a9.69,9.69,0,0,0,2.6,12.64c3.35,2.6,3.3,5.59,3.3,5.59l.53-1.55a8.38,8.38,0,0,0,.42-3.65,6.77,6.77,0,0,0-.54-2.19c-.8-1.73,1.73-2.88,2.45-4.32.54-1.11.57-3.65,1.44-5.48l1-1.4s2.38-1.86,4.7-1.33S355.2,125.11,350.48,126.07Z"/><path class="cls-132" d="M345.87,143.68c0,1.46-.64,2.65-1.48,2.66s-1.55-1.15-1.57-2.61.64-2.66,1.48-2.67S345.85,142.22,345.87,143.68Z"/><path class="cls-13" d="M349.4,148.49l4.61-.24a2,2,0,0,1-2,1.92C349.5,150.37,349.4,148.49,349.4,148.49Z"/><path class="cls-133" d="M337.91,345.31l1.75-7s3.68,2,5.51,1.63a42.93,42.93,0,0,0,5.36-1.87c1.49-.61,13.41,4.8,12.34,7.21h-25Z"/><path d="M348.33,141.57a.7.7,0,0,0,.6.79.69.69,0,0,0,.74-.64.72.72,0,0,0-.61-.78A.67.67,0,0,0,348.33,141.57Z"/><path d="M353.11,141.14a.7.7,0,0,0,.6.78.68.68,0,0,0,.74-.64.7.7,0,0,0-.6-.78A.69.69,0,0,0,353.11,141.14Z"/><path d="M349.87,140.35a.23.23,0,0,1-.21,0,1.23,1.23,0,0,0-.87-.22,1.1,1.1,0,0,0-.7.58.23.23,0,0,1-.33.08.26.26,0,0,1-.07-.35,1.54,1.54,0,0,1,1-.81,1.72,1.72,0,0,1,1.24.31.27.27,0,0,1,.05.36A.27.27,0,0,1,349.87,140.35Z"/><path d="M354.65,140a.23.23,0,0,1-.21,0,1.2,1.2,0,0,0-.87-.23,1.1,1.1,0,0,0-.7.58.23.23,0,0,1-.33.08.26.26,0,0,1-.07-.35,1.54,1.54,0,0,1,1-.81,1.65,1.65,0,0,1,1.24.32.25.25,0,0,1,0,.35A.18.18,0,0,1,354.65,140Z"/><path class="cls-13" d="M353,141.2a.28.28,0,0,0,.24.32.27.27,0,0,0,.29-.26.28.28,0,0,0-.24-.31A.28.28,0,0,0,353,141.2Z"/><path class="cls-13" d="M348.18,141.76a.3.3,0,0,0,.24.31.29.29,0,0,0,.3-.26.3.3,0,0,0-.24-.31A.29.29,0,0,0,348.18,141.76Z"/><path d="M354.73,141a.2.2,0,0,1-.18,0,1.06,1.06,0,0,0-1.56.12.17.17,0,0,1-.25,0,.2.2,0,0,1,0-.27,1.41,1.41,0,0,1,2.06-.13.21.21,0,0,1,0,.27Z"/><path d="M350,141.37a.15.15,0,0,1-.17,0,1.05,1.05,0,0,0-1.56.13.19.19,0,0,1-.26,0,.2.2,0,0,1,0-.27,1.4,1.4,0,0,1,2.06-.14.21.21,0,0,1,0,.27A.14.14,0,0,1,350,141.37Z"/><path class="cls-18" d="M351.88,142.78l.59,2c0,.16.06.34.22.44a1.05,1.05,0,0,1,.26.22.26.26,0,0,1,0,.32,2.2,2.2,0,0,1-1,.53c-.32.09-.76.07-.85-.11s-.49,0-.42.18.51.3.93.27a3.46,3.46,0,0,0,1.15-.38c.62-.32.83-.73.59-1.05a1.34,1.34,0,0,0-.31-.26l-.07,0c.13-.13,0,.12,0,0a.14.14,0,0,0,0-.06l-.35-1.17-.32-1.07c-.05-.16-.46,0-.42.18Z"/></g></g></svg>