<svg id="Capa_1" data-name="Capa 1" xmlns="http://www.w3.org/2000/svg" viewBox="0 0 50 50"><defs><style>.cls-1{fill:#ff9015;}</style></defs><path class="cls-1" d="M39.33,28.12h.75a.75.75,0,0,0,0-1.5h-3V25.11a.75.75,0,1,0-1.5,0v1.51h-3a.75.75,0,0,0,0,1.5h5.28v1.51a3.78,3.78,0,0,1-1.51,3A3.79,3.79,0,0,1,35,30.9a.76.76,0,0,0-1.42.52,5.18,5.18,0,0,0,1.19,1.9,11.37,11.37,0,0,1-2.26.08.76.76,0,0,0,0,1.51,7.5,7.5,0,0,0,3.77-.52,7.5,7.5,0,0,0,3.77.52.76.76,0,0,0,0-1.51,10.07,10.07,0,0,1-2.26-.08c1.7-1.74,1.51-3.56,1.51-5.2Zm0,0"/><path class="cls-1" d="M.88,46.21H26.51a.74.74,0,0,0,.75-.75v-.6a5.17,5.17,0,0,0-2.68-4.56l-5.13-3.21A2.39,2.39,0,0,1,18.22,35V32.65a10.92,10.92,0,0,0,2.88-4.89A2,2,0,0,0,22,26.13v-2.6a2,2,0,0,0-.76-1.44V18.27c0-.25-.52-6-7.53-6s-7.54,5.78-7.54,6.08v3.72a2,2,0,0,0-.76,1.45v2.6a2,2,0,0,0,.9,1.64,10.75,10.75,0,0,0,2.87,4.87V35a2.41,2.41,0,0,1-1.31,2.14l-5,3.12A5.27,5.27,0,0,0,.13,44.86v.6a.74.74,0,0,0,.75.75Zm2.77-4.65,5-3.13A3.89,3.89,0,0,0,10.68,35V32.65a1.5,1.5,0,0,0-.48-1.11,9.24,9.24,0,0,1-2.43-4.1c-.2-.9-.86-.82-.86-1.31V23.55a.88.88,0,0,1,.26-.34,1.53,1.53,0,0,0,.49-1.12V18.42c0-.47.46-4.62,6-4.62s6,4.11,6,4.52v3.77c0,.93.67,1.14.75,1.44v2.6a.44.44,0,0,1-.21.38,1.51,1.51,0,0,0-.65.93,9.15,9.15,0,0,1-2.43,4.1,1.5,1.5,0,0,0-.48,1.11V35a3.81,3.81,0,0,0,2,3.35l5.13,3.22a3.75,3.75,0,0,1,1.94,3.11H1.63a3.78,3.78,0,0,1,2-3.15Zm0,0"/><path class="cls-1" d="M41.59,21.34H31a3.77,3.77,0,0,0-3.77,3.77v1.1L23.08,29a.77.77,0,0,0,0,1.26l4.18,2.79v1.1A3.77,3.77,0,0,0,31,37.92H41.59a3.77,3.77,0,0,0,3.77-3.77v-9a3.77,3.77,0,0,0-3.77-3.77Zm2.26,12.81a2.27,2.27,0,0,1-2.26,2.27H31a2.27,2.27,0,0,1-2.26-2.27v-1.5a.75.75,0,0,0-.34-.63l-3.58-2.39,3.58-2.39a.75.75,0,0,0,.34-.62V25.11A2.26,2.26,0,0,1,31,22.85H41.59a2.26,2.26,0,0,1,2.26,2.26Zm0,0"/><path class="cls-1" d="M31,20.58H41.59a3.76,3.76,0,0,0,3.77-3.76V15.71l4.18-2.79a.76.76,0,0,0,.33-.63.74.74,0,0,0-.33-.62l-4.18-2.8V7.77A3.77,3.77,0,0,0,41.59,4H31a3.77,3.77,0,0,0-3.77,3.77v9.05A3.76,3.76,0,0,0,31,20.58ZM28.77,7.77A2.26,2.26,0,0,1,31,5.51H41.59a2.26,2.26,0,0,1,2.26,2.26V9.28a.75.75,0,0,0,.34.62l3.58,2.39-3.58,2.39a.77.77,0,0,0-.34.63v1.51a2.26,2.26,0,0,1-2.26,2.26H31a2.26,2.26,0,0,1-2.26-2.26Zm0,0"/><path class="cls-1" d="M36.31,7a4.52,4.52,0,0,0-4.52,4.52v5.28a.75.75,0,0,0,.75.75.76.76,0,0,0,.76-.75v-3h6v3a.75.75,0,0,0,1.5,0V11.54A4.52,4.52,0,0,0,36.31,7Zm-3,5.27v-.75a3,3,0,1,1,6,0v.75Zm0,0"/></svg>