<svg id="Capa_1" data-name="Capa 1" xmlns="http://www.w3.org/2000/svg" viewBox="0 0 50 50"><defs><style>.cls-1{fill:#ff9015;}.cls-2{fill:#fff;}</style></defs><path class="cls-1" d="M37.64,17.84A17.84,17.84,0,0,0,19.8,0a17.33,17.33,0,0,0-1.91.1,16.84,16.84,0,0,0-1.73.28l-.33.07A17.85,17.85,0,0,0,7,5.37c-.22.23-.44.47-.65.71h0A17.84,17.84,0,0,0,32.56,30.31l.66-.7h0A17.83,17.83,0,0,0,37.64,17.84ZM31.77,29.42l-.29.28-.33.33-.31.27-.34.3-.32.26-.36.28-.33.24-.37.26-.34.22-.39.24-.35.2-.39.22-.36.19-.41.2-.37.16-.42.18-.37.15-.43.16-.38.12-.45.14-.37.11-.15,0a14.85,14.85,0,0,0,3.81-6.17,19.91,19.91,0,0,1,4.07,1.57Zm-16.63,4.4-.45-.13-.37-.13-.44-.16-.37-.14-.42-.18-.36-.17-.42-.2L12,32.53l-.4-.22-.34-.21c-.14-.07-.26-.16-.39-.24l-.34-.22-.38-.26-.32-.24-.36-.28L9.1,30.6l-.35-.3L8.45,30l-.33-.33a3.83,3.83,0,0,1-.29-.28l0-.06a20.51,20.51,0,0,1,4.07-1.57A14.72,14.72,0,0,0,15.66,34l-.15,0ZM7,7.22A20.42,20.42,0,0,0,11.49,9a31,31,0,0,0-1.2,8.23H3.16A16.62,16.62,0,0,1,7,7.22Zm.86-1L8.12,6c.11-.11.22-.22.34-.32l.3-.28.35-.3.31-.25.36-.29.33-.23.37-.26.34-.23.39-.23.35-.21.4-.22L12.31,3l.41-.2.37-.17.42-.18.37-.15.44-.15L14.69,2l.45-.14.37-.1.15,0a14.72,14.72,0,0,0-3.8,6.17A20,20,0,0,1,7.78,6.33.17.17,0,0,1,7.84,6.27ZM24.46,1.86l.45.14.37.12.44.16.37.15.42.18.37.16.41.2.36.19.4.22.35.2.38.24.34.22.38.27.32.23.37.29.31.25.35.31c.1.09.2.17.3.27l.33.32.29.28.05.06a19.69,19.69,0,0,1-4.07,1.57,14.85,14.85,0,0,0-3.81-6.17l.15,0Zm4.85,15.39A31,31,0,0,0,28.11,9a20.42,20.42,0,0,0,4.51-1.8,16.62,16.62,0,0,1,3.82,10ZM19.21,8.9A30.59,30.59,0,0,1,13,8.18c1.4-3.93,3.63-6.58,6.18-6.94Zm-6.56.41a31.45,31.45,0,0,0,6.56.78v7.16H11.48a30,30,0,0,1,1.17-7.94Zm6.56,9.13v7.15a31.45,31.45,0,0,0-6.56.78,30,30,0,0,1-1.17-7.93Zm0,8.34v7.67c-2.55-.36-4.78-3-6.18-6.94A29.9,29.9,0,0,1,19.21,26.78Zm1.19,0a29.9,29.9,0,0,1,6.18.73c-1.41,3.92-3.64,6.58-6.18,6.94ZM27,26.37a31.43,31.43,0,0,0-6.55-.78V18.44h7.72A29.6,29.6,0,0,1,27,26.37ZM20.4,17.25V10.09A31.43,31.43,0,0,0,27,9.31a29.62,29.62,0,0,1,1.17,7.94Zm0-8.35V1.24c2.54.36,4.77,3,6.18,6.94A30.59,30.59,0,0,1,20.4,8.9ZM10.29,18.44a31,31,0,0,0,1.2,8.23A20.39,20.39,0,0,0,7,28.46a16.59,16.59,0,0,1-3.82-10Zm17.82,8.23a31,31,0,0,0,1.2-8.23h7.13a16.59,16.59,0,0,1-3.82,10A20.39,20.39,0,0,0,28.11,26.67Z"/><rect class="cls-2" x="11.66" y="17.68" width="36.47" height="32.18" rx="4.04"/><path class="cls-1" d="M26.51,33.46a.61.61,0,0,0-.85-.07l-3.89,3.32a.57.57,0,0,0-.21.46.6.6,0,0,0,.21.46l3.89,3.31a.62.62,0,0,0,.39.15.6.6,0,0,0,.46-.21.59.59,0,0,0-.07-.85l-3.35-2.86,3.35-2.86A.59.59,0,0,0,26.51,33.46Z"/><path class="cls-1" d="M34.13,33.39a.6.6,0,0,0-.78.92l3.36,2.86L33.35,40a.6.6,0,0,0-.06.85.57.57,0,0,0,.45.21.58.58,0,0,0,.39-.15L38,37.63a.64.64,0,0,0,.21-.46.61.61,0,0,0-.21-.46Z"/><path class="cls-1" d="M31.07,30.86a.6.6,0,0,0-.71.46L27.93,42.85a.6.6,0,0,0,.46.71l.13,0a.61.61,0,0,0,.59-.48l2.43-11.53A.6.6,0,0,0,31.07,30.86Z"/><path class="cls-1" d="M44.09,17.68H15.71a4.05,4.05,0,0,0-4.05,4V45.81a4.06,4.06,0,0,0,4.05,4H44.09a4.05,4.05,0,0,0,4-4V21.72A4,4,0,0,0,44.09,17.68ZM15.71,18.89H44.09a2.84,2.84,0,0,1,2.84,2.83v4.4H12.87v-4.4A2.84,2.84,0,0,1,15.71,18.89ZM44.09,48.65H15.71a2.84,2.84,0,0,1-2.84-2.84V27.32H46.93V45.81A2.84,2.84,0,0,1,44.09,48.65Z"/><path class="cls-1" d="M22,24.44a1.91,1.91,0,1,0-1.9-1.9A1.91,1.91,0,0,0,22,24.44Zm0-2.61a.71.71,0,1,1-.7.71A.7.7,0,0,1,22,21.83Z"/><path class="cls-1" d="M16.1,24.42a1.91,1.91,0,1,0-1.91-1.9A1.9,1.9,0,0,0,16.1,24.42Zm0-2.6a.7.7,0,1,1-.7.7A.7.7,0,0,1,16.1,21.82Z"/><path class="cls-1" d="M27.81,24.46a1.91,1.91,0,1,0-1.91-1.91A1.91,1.91,0,0,0,27.81,24.46Zm0-2.61a.71.71,0,1,1-.71.7A.71.71,0,0,1,27.81,21.85Z"/></svg>