<?xml version="1.0" encoding="utf-8"?>
<!-- Generator: Adobe Illustrator 24.1.0, SVG Export Plug-In . SVG Version: 6.00 Build 0)  -->
<svg version="1.1" id="Capa_1" xmlns="http://www.w3.org/2000/svg" xmlns:xlink="http://www.w3.org/1999/xlink" x="0px" y="0px"
	 viewBox="0 0 50 50" style="enable-background:new 0 0 50 50;" xml:space="preserve">
<style type="text/css">
	.st0{fill:#FF9015;}
	.st1{fill:#F28E23;}
	.st2{fill:none;stroke:#FFFFFF;stroke-width:0.6857;stroke-miterlimit:10;}
	.st3{clip-path:url(#SVGID_2_);fill:#FF9015;}
	.st4{fill:#FFFFFF;}
</style>
<g>
	<path class="st1" d="M35.97,32.54c0,1.29-1.06,2.62-2.91,3.65c-4.4,2.45-11.71,2.45-16.12,0c-1.85-1.03-2.91-2.36-2.91-3.65v-7.37
		l10.43,4.52c0.35,0.15,0.74,0.15,1.09,0l10.43-4.52V32.54L35.97,32.54z M25,12.09l17.12,7.42l-1.36,0.59l-15.59-1.95
		c-0.75-0.09-1.44,0.44-1.53,1.19c-0.09,0.75,0.44,1.44,1.19,1.53l10.98,1.37L25,26.93c-9.67-4.19-7.61-3.3-17.12-7.42L25,12.09
		L25,12.09z M46.12,18.26L25.55,9.34c-0.35-0.15-0.74-0.15-1.09,0L3.88,18.26c-1.1,0.48-1.1,2.04,0,2.52l7.4,3.21v8.56
		c0,4.61,6.02,8.23,13.72,8.23s13.72-3.61,13.72-8.23v-8.56l1.37-0.59v14.64c0,0.76,0.61,1.37,1.37,1.37c0.76,0,1.37-0.61,1.37-1.37
		V22.2l3.29-1.43C47.22,20.3,47.22,18.73,46.12,18.26L46.12,18.26L46.12,18.26z"/>
	<g>
		<path class="st2" d="M35.97,32.54c0,1.29-1.06,2.62-2.91,3.65c-4.4,2.45-11.71,2.45-16.12,0c-1.85-1.03-2.91-2.36-2.91-3.65v-7.37
			l10.43,4.52c0.35,0.15,0.74,0.15,1.09,0l10.43-4.52V32.54L35.97,32.54z M25,12.09l17.12,7.42l-1.36,0.59l-15.59-1.95
			c-0.75-0.09-1.44,0.44-1.53,1.19c-0.09,0.75,0.44,1.44,1.19,1.53l10.98,1.37L25,26.93c-9.67-4.19-7.61-3.3-17.12-7.42L25,12.09
			L25,12.09z M46.12,18.26L25.55,9.34c-0.35-0.15-0.74-0.15-1.09,0L3.88,18.26c-1.1,0.48-1.1,2.04,0,2.52l7.4,3.21v8.56
			c0,4.61,6.02,8.23,13.72,8.23s13.72-3.61,13.72-8.23v-8.56l1.37-0.59v14.64c0,0.76,0.61,1.37,1.37,1.37
			c0.76,0,1.37-0.61,1.37-1.37V22.2l3.29-1.43C47.22,20.3,47.22,18.73,46.12,18.26L46.12,18.26L46.12,18.26z"/>
	</g>
</g>
</svg>
