<svg id="Capa_1" data-name="Capa 1" xmlns="http://www.w3.org/2000/svg" viewBox="0 0 50 50"><defs><style>.cls-1{fill:#ff9015;}</style></defs><path class="cls-1" d="M36.08,5.8a1.5,1.5,0,0,0-1.84,1.43A4.22,4.22,0,0,1,33.18,10l-2,2.24a.71.71,0,0,0-.6-.33H26.74a.72.72,0,0,0-.72.72v8.69a.72.72,0,0,0,.72.72H30.6a.71.71,0,0,0,.65-.42,5,5,0,0,0,2.61.74h6.83a1.88,1.88,0,0,0,1.85-1.95c0-.46,0-6.65,0-6.78a1.85,1.85,0,0,0-1.85-1.86H37.14l.15-.35A5.59,5.59,0,0,0,37,6.5a1.46,1.46,0,0,0-.91-.7Zm-6.2,14.82H27.46V13.37h2.42Zm10.81-7.39a.42.42,0,0,1,.42.42v1c0,2.77,0,5.4,0,5.84a.39.39,0,0,1-.12.31.43.43,0,0,1-.3.13H33.86a3.58,3.58,0,0,1-2.24-.79l-.3-.25V14.3L34.26,11a5.64,5.64,0,0,0,1.41-3.74s.06-.05.08,0A4.17,4.17,0,0,1,36,10.87l-.56,1.34a.72.72,0,0,0,.66,1Zm0,0"/><path class="cls-1" d="M8.15,25.43a.72.72,0,1,0,0,1.44h2.11l-.39,2.39a.72.72,0,0,0,.59.83h.12a.73.73,0,0,0,.71-.6l.43-2.63h1.73l-.39,2.39a.72.72,0,0,0,.59.83h.12a.71.71,0,0,0,.7-.6l.44-2.63h2.88a.72.72,0,0,0,0-1.44H15.15l.29-1.75h2.35a.72.72,0,1,0,0-1.43H15.67l.4-2.4a.71.71,0,0,0-.59-.82.72.72,0,0,0-.83.59l-.43,2.63H12.49l.39-2.4a.71.71,0,0,0-.59-.82.72.72,0,0,0-.83.59L11,22.25H8.15a.72.72,0,1,0,0,1.43h2.64l-.29,1.75Zm4.1-1.75H14l-.29,1.75H12Zm0,0"/><path class="cls-1" d="M29.22,38.16l-4.93-2.85a.71.71,0,0,0-.72,0,.73.73,0,0,0-.36.62v5.7a.73.73,0,0,0,.36.62.7.7,0,0,0,.72,0l4.93-2.85a.72.72,0,0,0,.36-.62A.71.71,0,0,0,29.22,38.16Zm-4.57,2.22v-3.2l2.77,1.6Z"/><path class="cls-1" d="M42.62.49H26a5.39,5.39,0,0,0-5.39,5.37v7.68a4.25,4.25,0,0,0-1-.12H6.4A4.4,4.4,0,0,0,2,17.8v1.55a.19.19,0,0,0,0,.08v4.15a.24.24,0,0,0,0,.08v7.25a4.39,4.39,0,0,0,4.4,4.38h6.5V38a.73.73,0,0,0,1.16.57l3.62-2.8V43.8A3.33,3.33,0,0,0,21,47.12h4.4v1.67a.73.73,0,0,0,1.16.57l2.91-2.24h.86a3.32,3.32,0,0,0,3.32-3.32V42.52s0-.05,0-.08V38.11s0,0,0-.09V34.5a3.32,3.32,0,0,0-3.32-3.32H23.93c0-.09,0-3.72,0-3.72a5.25,5.25,0,0,0,2,.39h8v3.52a.73.73,0,0,0,1.15.57l5.35-4.09h2.15A5.39,5.39,0,0,0,48,22.48V5.86A5.39,5.39,0,0,0,42.62.49ZM17.73,33.9a.87.87,0,0,0-.18.11l-3.21,2.48V34.58a.72.72,0,0,0-.72-.72H6.4a3,3,0,0,1-3-2.95V23.66s0,0,0-.05v-4.2s0,0,0-.06V17.8a3,3,0,0,1,3-3H19.54a3,3,0,0,1,3,3v8.35a.61.61,0,0,0,0,.19v4.57a2.44,2.44,0,0,1,0,.27H21A3.35,3.35,0,0,0,17.73,33.9Zm12.61-1.29a1.89,1.89,0,0,1,1.89,1.89V38s0,0,0,0v4.41s0,0,0,0V43.8a1.89,1.89,0,0,1-1.89,1.88H29.23a.78.78,0,0,0-.44.15l-1.94,1.5V46.4a.72.72,0,0,0-.72-.72H21a1.88,1.88,0,0,1-1.89-1.88V34.5A1.89,1.89,0,0,1,21,32.61ZM46.56,22.48a3.94,3.94,0,0,1-3.94,3.93H40.23a.71.71,0,0,0-.44.15L35.4,29.92V27.13a.71.71,0,0,0-.71-.72H26a3.89,3.89,0,0,1-2-.55V17.8A4.37,4.37,0,0,0,22,14.17V5.86A3.94,3.94,0,0,1,26,1.93H36a.5.5,0,0,0,.13,0h4.24a.5.5,0,0,0,.13,0h2.11a3.94,3.94,0,0,1,3.94,3.93Z"/></svg>