<svg id="Capa_1" data-name="Capa 1" xmlns="http://www.w3.org/2000/svg" viewBox="0 0 112 112"><defs><style>.cls-1{fill:#ff9015;}</style></defs><path class="cls-1" d="M85,8.33a31.31,31.31,0,0,0-26.93,6l-2.16,1.77L53.71,14.3A31.12,31.12,0,0,0,33.82,7.17a33.15,33.15,0,0,0-7.74.93C13.1,11.25,0,23.46,0,43.61c0,12.77,4.69,23.88,14.33,34,8.14,8.51,20,16.66,38.42,26.43a7,7,0,0,0,6.49,0C90.91,87.25,112,70.55,112,43.61,112,23.37,98.42,11.31,85,8.33ZM57.63,89.13,56,90l-1.64-.9C24.85,72.89,13.88,60.55,13.88,43.61c0-13.46,8-20.2,15.48-22a18.42,18.42,0,0,1,4.44-.54c6.86,0,12.7,3.71,16,10.17A7,7,0,0,0,56.13,35a6.88,6.88,0,0,0,6.15-4c4.21-9,13.24-10.53,19.67-9.1,7.46,1.65,16.17,8.33,16.17,21.74C98.12,60.55,87.15,72.89,57.63,89.13Z"/></svg>