<?xml version="1.0" encoding="utf-8"?>
<!-- Generator: Adobe Illustrator 24.1.0, SVG Export Plug-In . SVG Version: 6.00 Build 0)  -->
<svg version="1.1" id="Capa_1" xmlns="http://www.w3.org/2000/svg" xmlns:xlink="http://www.w3.org/1999/xlink" x="0px" y="0px"
	 viewBox="0 0 50 50" style="enable-background:new 0 0 50 50;" xml:space="preserve">
<style type="text/css">
	.st0{fill:#FF9015;}
	.st1{fill:#F28E23;}
	.st2{fill:none;stroke:#FFFFFF;stroke-width:0.6857;stroke-miterlimit:10;}
	.st3{clip-path:url(#SVGID_2_);fill:#FF9015;}
	.st4{fill:#FFFFFF;}
</style>
<g>
	<path class="st0" d="M22.84,28.18c-0.22,0-0.42,0.13-0.51,0.33l-3.62,7.64l-3.26-10.49c-0.07-0.24-0.3-0.4-0.55-0.4
		c-0.25,0-0.47,0.16-0.55,0.4l-3.07,9.86v-0.18c0-0.32-0.26-0.57-0.57-0.57c-0.32,0-0.57,0.26-0.57,0.57v0.84
		c0,0.32,0.26,0.57,0.57,0.57c0.07,0,0.14-0.01,0.2-0.04l-0.47,1.51c-0.19,0.1-0.3,0.29-0.3,0.5v0.57c0,0.01,0.01,0.02,0.01,0.03
		c0,0.04,0.01,0.08,0.02,0.11c0.01,0.03,0.02,0.07,0.03,0.1c0.02,0.03,0.04,0.06,0.06,0.09c0.02,0.03,0.04,0.06,0.07,0.08
		c0.03,0.02,0.06,0.04,0.08,0.06c0.03,0.02,0.07,0.04,0.1,0.06c0.01,0,0.02,0.01,0.03,0.01c0.03,0.01,0.06,0.01,0.08,0.01
		c0.03,0.01,0.06,0.02,0.09,0.02h0.57c0.28,0,0.52-0.2,0.56-0.47c0.05-0.27-0.11-0.54-0.37-0.63l3.42-11l3.51,11.32
		c-0.07,0.18-0.05,0.38,0.05,0.54c0.11,0.16,0.28,0.25,0.47,0.25h0.7c0.32,0,0.57-0.26,0.57-0.57c0-0.32-0.26-0.57-0.57-0.57H19.5
		l-0.3-0.95l3.64-7.68l4.15,8.72c-0.17,0.1-0.28,0.28-0.28,0.48c0,0.32,0.26,0.57,0.57,0.57h0.57c0.08,0,0.16-0.02,0.23-0.05h0.01
		c0.06-0.04,0.11-0.08,0.17-0.13c0.02-0.03,0.04-0.06,0.06-0.09c0.02-0.03,0.04-0.06,0.06-0.09c0.01-0.04,0.02-0.08,0.03-0.12
		c0.01-0.03,0.01-0.06,0.02-0.08v-0.57c0-0.27-0.2-0.51-0.47-0.55l-4.6-9.65C23.26,28.3,23.06,28.18,22.84,28.18L22.84,28.18z
		 M22.84,28.18"/>
	<path class="st0" d="M20.75,26.14c1.47,0,2.66-1.19,2.66-2.66c0-1.47-1.19-2.66-2.66-2.66c-1.47,0-2.66,1.19-2.66,2.66
		C18.09,24.95,19.28,26.14,20.75,26.14L20.75,26.14z M20.75,21.96c0.84,0,1.52,0.68,1.52,1.52c0,0.84-0.68,1.52-1.52,1.52
		c-0.84,0-1.52-0.68-1.52-1.52C19.23,22.64,19.91,21.96,20.75,21.96L20.75,21.96z M20.75,21.96"/>
	<path class="st0" d="M39.28,19.86c-0.32,0-0.57,0.26-0.57,0.57v19.99c0,0.32-0.26,0.57-0.57,0.57H9.58C9.26,41,9,40.74,9,40.42
		V9.58C9,9.26,9.26,9,9.58,9h28.56c0.32,0,0.57,0.26,0.57,0.57v0.57c0,0.32,0.26,0.57,0.57,0.57c0.32,0,0.57-0.26,0.57-0.57V9.58
		c0-0.95-0.77-1.71-1.71-1.71H9.58c-0.95,0-1.71,0.77-1.71,1.71v30.85c0,0.95,0.77,1.71,1.71,1.71h28.56c0.95,0,1.71-0.77,1.71-1.71
		V20.43C39.85,20.11,39.6,19.86,39.28,19.86L39.28,19.86z M39.28,19.86"/>
	<path class="st0" d="M27.86,20.43c0.32,0,0.57-0.26,0.57-0.57v-1.14c0-0.32-0.26-0.57-0.57-0.57h-0.57c-0.32,0-0.57,0.26-0.57,0.57
		c0,0.32,0.26,0.57,0.57,0.57v0.57C27.29,20.17,27.54,20.43,27.86,20.43L27.86,20.43z M27.86,20.43"/>
	<path class="st0" d="M25.2,19.29c0.32,0,0.57-0.26,0.57-0.57c0-0.32-0.26-0.57-0.57-0.57h-0.7c-0.32,0-0.57,0.26-0.57,0.57
		c0,0.32,0.26,0.57,0.57,0.57H25.2z M25.2,19.29"/>
	<path class="st0" d="M22.42,18.14h-0.7c-0.32,0-0.57,0.26-0.57,0.57c0,0.32,0.26,0.57,0.57,0.57h0.7c0.32,0,0.57-0.26,0.57-0.57
		C22.99,18.4,22.73,18.14,22.42,18.14L22.42,18.14z M22.42,18.14"/>
	<path class="st0" d="M16.16,18.14c-0.32,0-0.57,0.26-0.57,0.57c0,0.32,0.26,0.57,0.57,0.57h0.7c0.32,0,0.57-0.26,0.57-0.57
		c0-0.32-0.26-0.57-0.57-0.57H16.16z M16.16,18.14"/>
	<path class="st0" d="M14.07,19.29c0.32,0,0.57-0.26,0.57-0.57c0-0.32-0.26-0.57-0.57-0.57h-0.7c-0.32,0-0.57,0.26-0.57,0.57
		c0,0.32,0.26,0.57,0.57,0.57H14.07z M14.07,19.29"/>
	<path class="st0" d="M19.64,19.29c0.32,0,0.57-0.26,0.57-0.57c0-0.32-0.26-0.57-0.57-0.57h-0.7c-0.32,0-0.57,0.26-0.57,0.57
		c0,0.32,0.26,0.57,0.57,0.57H19.64z M19.64,19.29"/>
	<path class="st0" d="M10.72,19.86c0.32,0,0.57-0.26,0.57-0.57c0.32,0,0.57-0.26,0.57-0.57c0-0.32-0.26-0.57-0.57-0.57h-0.57
		c-0.32,0-0.57,0.26-0.57,0.57v0.57C10.15,19.6,10.4,19.86,10.72,19.86L10.72,19.86z M10.72,19.86"/>
	<path class="st0" d="M10.15,22.67c0,0.32,0.26,0.57,0.57,0.57c0.32,0,0.57-0.26,0.57-0.57v-0.84c0-0.32-0.26-0.57-0.57-0.57
		c-0.32,0-0.57,0.26-0.57,0.57V22.67z M10.15,22.67"/>
	<path class="st0" d="M10.15,26.04c0,0.32,0.26,0.57,0.57,0.57c0.32,0,0.57-0.26,0.57-0.57V25.2c0-0.32-0.26-0.57-0.57-0.57
		c-0.32,0-0.57,0.26-0.57,0.57V26.04z M10.15,26.04"/>
	<path class="st0" d="M10.15,32.8c0,0.32,0.26,0.57,0.57,0.57c0.32,0,0.57-0.26,0.57-0.57v-0.84c0-0.32-0.26-0.57-0.57-0.57
		c-0.32,0-0.57,0.26-0.57,0.57V32.8z M10.15,32.8"/>
	<path class="st0" d="M10.15,29.42c0,0.32,0.26,0.57,0.57,0.57c0.32,0,0.57-0.26,0.57-0.57v-0.84c0-0.32-0.26-0.57-0.57-0.57
		c-0.32,0-0.57,0.26-0.57,0.57V29.42z M10.15,29.42"/>
	<path class="st0" d="M13.38,38.71c-0.32,0-0.57,0.26-0.57,0.57c0,0.32,0.26,0.57,0.57,0.57h0.7c0.32,0,0.57-0.26,0.57-0.57
		c0-0.32-0.26-0.57-0.57-0.57H13.38z M13.38,38.71"/>
	<path class="st0" d="M16.16,38.71c-0.32,0-0.57,0.26-0.57,0.57c0,0.32,0.26,0.57,0.57,0.57h0.7c0.32,0,0.57-0.26,0.57-0.57
		c0-0.32-0.26-0.57-0.57-0.57H16.16z M16.16,38.71"/>
	<path class="st0" d="M24.5,38.71c-0.32,0-0.57,0.26-0.57,0.57c0,0.32,0.26,0.57,0.57,0.57h0.7c0.32,0,0.57-0.26,0.57-0.57
		c0-0.32-0.26-0.57-0.57-0.57H24.5z M24.5,38.71"/>
	<path class="st0" d="M22.42,38.71h-0.7c-0.32,0-0.57,0.26-0.57,0.57c0,0.32,0.26,0.57,0.57,0.57h0.7c0.32,0,0.57-0.26,0.57-0.57
		C22.99,38.97,22.73,38.71,22.42,38.71L22.42,38.71z M22.42,38.71"/>
	<path class="st0" d="M27.29,32.56c0,0.32,0.26,0.57,0.57,0.57c0.32,0,0.57-0.26,0.57-0.57v-0.88c0-0.32-0.26-0.57-0.57-0.57
		c-0.32,0-0.57,0.26-0.57,0.57V32.56z M27.29,32.56"/>
	<path class="st0" d="M27.29,36.07c0,0.32,0.26,0.57,0.57,0.57c0.32,0,0.57-0.26,0.57-0.57v-0.88c0-0.32-0.26-0.57-0.57-0.57
		c-0.32,0-0.57,0.26-0.57,0.57V36.07z M27.29,36.07"/>
	<path class="st0" d="M27.86,29.61c0.32,0,0.57-0.26,0.57-0.57v-0.57c0-0.32-0.26-0.57-0.57-0.57c-0.32,0-0.57,0.26-0.57,0.57v0.57
		C27.29,29.35,27.54,29.61,27.86,29.61L27.86,29.61z M27.86,29.61"/>
	<path class="st0" d="M39.21,12.36l-0.72,0.72c-0.48-0.03-0.96,0.15-1.3,0.49l-7.31,7.31c-0.17,0.17-0.3,0.37-0.39,0.6l-1.29,2.03
		l0,0v0l-0.88,1.38c-0.32,0.51-0.25,1.17,0.18,1.59c0.42,0.42,1.09,0.5,1.59,0.18l1.38-0.87l0.01,0l0,0l2.03-1.29
		c0.22-0.09,0.43-0.22,0.6-0.39l7.31-7.31c0.34-0.34,0.52-0.82,0.49-1.3l0.72-0.72c0.32-0.32,0.5-0.76,0.5-1.21
		c0-0.45-0.18-0.89-0.5-1.21C40.96,11.72,39.89,11.72,39.21,12.36L39.21,12.36z M28.48,25.71c-0.06,0.04-0.13,0.03-0.18-0.02
		c-0.05-0.05-0.06-0.12-0.02-0.18l0.56-0.88c0.09,0.08,0.18,0.16,0.27,0.24c0.09,0.09,0.17,0.18,0.24,0.27L28.48,25.71z M39.62,16
		l-7.31,7.31c-0.06,0.06-0.14,0.11-0.22,0.14c-0.04,0.01-0.09,0.03-0.12,0.06l-1.62,1.03c-0.13-0.16-0.26-0.32-0.41-0.46
		c-0.15-0.15-0.3-0.28-0.46-0.41l1.03-1.62c0.02-0.04,0.04-0.08,0.06-0.13c0.03-0.08,0.08-0.16,0.14-0.22L38,14.38
		c0.11-0.11,0.25-0.17,0.4-0.17c0.15,0,0.3,0.06,0.4,0.17l0.81,0.81c0.11,0.11,0.17,0.25,0.17,0.4C39.78,15.75,39.72,15.89,39.62,16
		L39.62,16z M40.83,13.98l-0.41,0.4l-0.81-0.81l0.4-0.4c0.23-0.22,0.58-0.22,0.81,0C41.05,13.39,41.05,13.76,40.83,13.98
		L40.83,13.98z M40.83,13.98"/>
	<path class="st0" d="M19.69,10.31c-0.01,0-0.01-0.01-0.02-0.01c-0.05-0.05-0.11-0.09-0.17-0.11c0,0-0.01,0-0.01,0
		c-0.06-0.02-0.12-0.03-0.18-0.04h-0.06c-0.07,0.01-0.13,0.02-0.2,0.05c-0.06,0.03-0.12,0.07-0.17,0.11l-1.71,1.71
		c-0.22,0.22-0.21,0.58,0.01,0.8c0.22,0.22,0.58,0.22,0.8,0.01l0.74-0.74v4.33c0,0.32,0.26,0.57,0.57,0.57
		c0.32,0,0.57-0.26,0.57-0.57V12.1l0.74,0.74c0.22,0.22,0.58,0.21,0.8-0.01c0.22-0.22,0.22-0.58,0.01-0.8L19.69,10.31z M19.69,10.31
		"/>
	<path class="st0" d="M30.14,30.71c0,0.32,0.26,0.57,0.57,0.57h4.33l-0.74,0.74c-0.15,0.14-0.21,0.36-0.16,0.56
		c0.05,0.2,0.21,0.36,0.41,0.41c0.2,0.05,0.41-0.01,0.56-0.16l1.71-1.71c0.01-0.01,0.01-0.01,0.01-0.02
		c0.05-0.05,0.09-0.11,0.11-0.17c0,0,0-0.01,0-0.02c0.02-0.06,0.03-0.12,0.04-0.18c0-0.02,0-0.04,0-0.06c0-0.05-0.01-0.1-0.03-0.14
		c-0.01-0.02-0.01-0.04-0.02-0.06c-0.03-0.06-0.07-0.12-0.11-0.17l-1.71-1.71c-0.22-0.22-0.58-0.21-0.8,0.01
		c-0.22,0.22-0.22,0.58-0.01,0.8l0.74,0.74h-4.33C30.4,30.14,30.14,30.4,30.14,30.71L30.14,30.71z M30.14,30.71"/>
</g>
</svg>
