<?xml version="1.0" encoding="utf-8"?>
<!-- Generator: Adobe Illustrator 24.1.0, SVG Export Plug-In . SVG Version: 6.00 Build 0)  -->
<svg version="1.1" id="Capa_1" xmlns="http://www.w3.org/2000/svg" xmlns:xlink="http://www.w3.org/1999/xlink" x="0px" y="0px"
	 viewBox="0 0 50 50" style="enable-background:new 0 0 50 50;" xml:space="preserve">
<style type="text/css">
	.st0{fill:#FF9015;}
	.st1{fill:#F28E23;}
	.st2{fill:none;stroke:#FFFFFF;stroke-width:0.6857;stroke-miterlimit:10;}
	.st3{clip-path:url(#SVGID_2_);fill:#FF9015;}
	.st4{fill:#FFFFFF;}
</style>
<g>
	<g>
		<defs>
			<rect id="SVGID_1_" x="4.96" y="9.2" width="40.09" height="31.61"/>
		</defs>
		<clipPath id="SVGID_2_">
			<use xlink:href="#SVGID_1_"  style="overflow:visible;"/>
		</clipPath>
		<path class="st3" d="M40.67,32.38H9.33c-0.32,0-0.57-0.26-0.57-0.57V12.52c0-1.81,1.47-3.28,3.28-3.28h25.93
			c1.81,0,3.28,1.47,3.28,3.28v19.29C41.24,32.13,40.99,32.38,40.67,32.38L40.67,32.38z M9.9,31.24h30.2V12.52
			c0-1.18-0.96-2.14-2.14-2.14H12.04c-1.18,0-2.14,0.96-2.14,2.14V31.24z M9.9,31.24"/>
		<path class="st3" d="M42.96,40.74H7.04c-0.72,0-1.38-0.38-1.75-0.99c-0.37-0.61-0.39-1.38-0.06-2.01l3.59-6.21
			c0.1-0.18,0.29-0.29,0.5-0.29h31.34c0.2,0,0.39,0.11,0.5,0.29l3.58,6.19c0.34,0.63,0.33,1.4-0.04,2.02
			C44.34,40.36,43.68,40.74,42.96,40.74L42.96,40.74z M9.66,32.38l-3.42,5.91c-0.14,0.28-0.12,0.61,0.04,0.87
			c0.16,0.26,0.45,0.43,0.76,0.43h35.91c0.32,0,0.61-0.17,0.77-0.44c0.16-0.27,0.17-0.61,0.02-0.88l-3.41-5.89H9.66z M9.66,32.38"/>
	</g>
	<path class="st0" d="M28.86,39.02h-7.72c-0.4,0-0.68-0.4-0.53-0.78l1.12-2.91c0.08-0.22,0.3-0.37,0.53-0.37h5.49
		c0.24,0,0.45,0.15,0.53,0.37l1.12,2.91C29.54,38.62,29.26,39.02,28.86,39.02L28.86,39.02z M21.97,37.88h6.06l-0.68-1.77h-4.71
		L21.97,37.88z M21.97,37.88"/>
	<path class="st0" d="M38.24,29.83H11.76c-0.32,0-0.57-0.26-0.57-0.57V12.37c0-0.32,0.26-0.57,0.57-0.57h26.48
		c0.32,0,0.57,0.26,0.57,0.57v16.89C38.81,29.57,38.55,29.83,38.24,29.83L38.24,29.83z M12.33,28.68h25.34V12.94H12.33V28.68z
		 M12.33,28.68"/>
	<path class="st0" d="M33.62,15.64h-1.87c-0.32,0-0.57,0.26-0.57,0.57v0.37h-4.66v-0.37c0-0.32-0.26-0.57-0.57-0.57h-1.87
		c-0.32,0-0.57,0.26-0.57,0.57v0.37h-4.66v-0.37c0-0.32-0.26-0.57-0.57-0.57h-1.88c-0.32,0-0.57,0.26-0.57,0.57v1.87
		c0,0.32,0.26,0.57,0.57,0.57h1.88c0.32,0,0.57-0.26,0.57-0.57v-0.36h2.35c-1.81,1.18-3.03,3.17-3.18,5.42h-0.38
		c-0.32,0-0.57,0.26-0.57,0.57v1.87c0,0.32,0.26,0.57,0.57,0.57h1.87c0.32,0,0.57-0.26,0.57-0.57v-1.87c0-0.32-0.26-0.57-0.57-0.57
		h-0.33c0.2-2.49,1.94-4.56,4.33-5.2v0.14c0,0.32,0.26,0.57,0.57,0.57h1.87c0.32,0,0.57-0.26,0.57-0.57v-0.14
		c2.39,0.65,4.13,2.72,4.33,5.2h-0.33c-0.32,0-0.57,0.26-0.57,0.57v1.87c0,0.32,0.26,0.57,0.57,0.57h1.87
		c0.32,0,0.57-0.26,0.57-0.57v-1.87c0-0.32-0.26-0.57-0.57-0.57h-0.38c-0.16-2.25-1.37-4.24-3.19-5.42h2.35v0.36
		c0,0.32,0.26,0.57,0.57,0.57h1.88c0.31,0,0.57-0.26,0.57-0.57v-1.87C34.19,15.9,33.93,15.64,33.62,15.64z M16.95,17.51l0-0.73h0.73
		v0.33c0,0.02,0,0.05,0,0.07v0.33H16.95z M18.91,25.02h-0.73v-0.73h0.73V25.02z M31.82,25.02h-0.73v-0.73h0.73V25.02z M24.63,17.51
		v-0.34c0-0.02,0-0.03,0-0.05v-0.35h0.73v0.33c0,0.01-0.01,0.01-0.01,0.02c-0.01,0.05,0,0.09,0.01,0.13v0.25H24.63z M33.05,17.51
		h-0.73l0-0.73h0.73V17.51z"/>
</g>
</svg>
