<svg id="Capa_1" data-name="Capa 1" xmlns="http://www.w3.org/2000/svg" viewBox="0 0 50 50"><defs><style>.cls-1{fill:#ff9015;}</style></defs><path class="cls-1" d="M21.85,29.63a.86.86,0,0,0-.75.48L15.82,41.26,11.07,26a.83.83,0,0,0-.8-.58.84.84,0,0,0-.8.58L5,40.34v-.27a.83.83,0,0,0-.83-.83.84.84,0,0,0-.84.83V41.3a.85.85,0,0,0,.84.84.72.72,0,0,0,.29-.06l-.68,2.2a.83.83,0,0,0-.45.72v.83s0,0,0,0a.85.85,0,0,0,0,.17.57.57,0,0,0,0,.14.55.55,0,0,0,.09.14l.1.12.12.08a.55.55,0,0,0,.15.08l0,0H4l.13,0H5a.83.83,0,0,0,.28-1.61l5-16,5.13,16.51a.81.81,0,0,0,.08.78.82.82,0,0,0,.69.37h1a.85.85,0,0,0,.84-.84.84.84,0,0,0-.84-.83H17l-.44-1.39,5.31-11.2,6.06,12.72a.82.82,0,0,0-.41.7.84.84,0,0,0,.83.84h.84a.89.89,0,0,0,.33-.08h0l.25-.18a1,1,0,0,0,.08-.14.6.6,0,0,0,.09-.13A.57.57,0,0,0,30,46a.5.5,0,0,0,0-.13V45a.81.81,0,0,0-.69-.8L22.6,30.11a.83.83,0,0,0-.75-.48Zm0,0"/><path class="cls-1" d="M18.8,26.67a3.89,3.89,0,1,0-3.88-3.89,3.88,3.88,0,0,0,3.88,3.89Zm0-6.1a2.22,2.22,0,1,1-2.22,2.21,2.22,2.22,0,0,1,2.22-2.21Zm0,0"/><path class="cls-1" d="M45.83,17.5a.83.83,0,0,0-.83.83V47.5a.83.83,0,0,1-.83.83H2.5a.83.83,0,0,1-.83-.83V2.5a.83.83,0,0,1,.83-.83H44.17A.83.83,0,0,1,45,2.5v.83a.84.84,0,0,0,.83.84.85.85,0,0,0,.84-.84V2.5A2.5,2.5,0,0,0,44.17,0H2.5A2.5,2.5,0,0,0,0,2.5v45A2.5,2.5,0,0,0,2.5,50H44.17a2.5,2.5,0,0,0,2.5-2.5V18.33a.84.84,0,0,0-.84-.83Zm0,0"/><path class="cls-1" d="M29.17,18.33A.83.83,0,0,0,30,17.5V15.83a.83.83,0,0,0-.83-.83h-.84a.83.83,0,0,0-.83.83.84.84,0,0,0,.83.84v.83a.84.84,0,0,0,.84.83Zm0,0"/><path class="cls-1" d="M25.29,16.67a.84.84,0,0,0,.83-.84.83.83,0,0,0-.83-.83h-1a.83.83,0,0,0-.83.83.84.84,0,0,0,.83.84Zm0,0"/><path class="cls-1" d="M21.23,15h-1a.84.84,0,0,0-.84.83.85.85,0,0,0,.84.84h1a.84.84,0,0,0,.83-.84.83.83,0,0,0-.83-.83Zm0,0"/><path class="cls-1" d="M12.1,15a.83.83,0,0,0-.83.83.84.84,0,0,0,.83.84h1a.84.84,0,0,0,.83-.84.83.83,0,0,0-.83-.83Zm0,0"/><path class="cls-1" d="M9.06,16.67a.84.84,0,0,0,.83-.84A.83.83,0,0,0,9.06,15H8a.83.83,0,0,0-.83.83.84.84,0,0,0,.83.84Zm0,0"/><path class="cls-1" d="M17.17,16.67a.85.85,0,0,0,.84-.84.84.84,0,0,0-.84-.83h-1a.83.83,0,0,0-.83.83.84.84,0,0,0,.83.84Zm0,0"/><path class="cls-1" d="M4.17,17.5A.83.83,0,0,0,5,16.67a.84.84,0,0,0,.83-.84A.83.83,0,0,0,5,15H4.17a.84.84,0,0,0-.84.83v.84a.84.84,0,0,0,.84.83Zm0,0"/><path class="cls-1" d="M3.33,21.59a.85.85,0,0,0,.84.84A.84.84,0,0,0,5,21.59V20.36a.83.83,0,0,0-.83-.83.84.84,0,0,0-.84.83Zm0,0"/><path class="cls-1" d="M3.33,26.52a.84.84,0,0,0,.84.83A.83.83,0,0,0,5,26.52V25.29a.83.83,0,0,0-.83-.83.84.84,0,0,0-.84.83Zm0,0"/><path class="cls-1" d="M3.33,36.38a.84.84,0,0,0,.84.83A.83.83,0,0,0,5,36.38V35.15a.83.83,0,0,0-.83-.84.84.84,0,0,0-.84.84Zm0,0"/><path class="cls-1" d="M3.33,31.45a.84.84,0,0,0,.84.83A.83.83,0,0,0,5,31.45V30.22a.84.84,0,0,0-.83-.84.85.85,0,0,0-.84.84Zm0,0"/><path class="cls-1" d="M8,45a.83.83,0,0,0-.83.83.84.84,0,0,0,.83.84h1a.84.84,0,0,0,.83-.84A.83.83,0,0,0,9.06,45Zm0,0"/><path class="cls-1" d="M12.1,45a.83.83,0,0,0-.83.83.84.84,0,0,0,.83.84h1a.84.84,0,0,0,.83-.84.83.83,0,0,0-.83-.83Zm0,0"/><path class="cls-1" d="M24.27,45a.83.83,0,0,0-.83.83.84.84,0,0,0,.83.84h1a.84.84,0,0,0,.83-.84.83.83,0,0,0-.83-.83Zm0,0"/><path class="cls-1" d="M21.23,45h-1a.84.84,0,0,0-.84.83.85.85,0,0,0,.84.84h1a.84.84,0,0,0,.83-.84.83.83,0,0,0-.83-.83Zm0,0"/><path class="cls-1" d="M28.33,36a.85.85,0,0,0,.84.84A.84.84,0,0,0,30,36V34.74a.83.83,0,0,0-.83-.83.84.84,0,0,0-.84.83Zm0,0"/><path class="cls-1" d="M28.33,41.15a.85.85,0,0,0,.84.84.84.84,0,0,0,.83-.84V39.87a.83.83,0,0,0-.83-.83.84.84,0,0,0-.84.83Zm0,0"/><path class="cls-1" d="M29.17,31.72a.83.83,0,0,0,.83-.83v-.83a.83.83,0,0,0-.83-.83.84.84,0,0,0-.84.83v.83a.84.84,0,0,0,.84.83Zm0,0"/><path class="cls-1" d="M45.73,6.57l-1,1a2.48,2.48,0,0,0-1.89.72L32.12,19a2.53,2.53,0,0,0-.57.87l-1.88,3h0l-1.28,2A1.87,1.87,0,0,0,31,27.44l2-1.27h0l3-1.88a2.53,2.53,0,0,0,.87-.57L47.5,13.05a2.48,2.48,0,0,0,.72-1.9l1.05-1.05a2.5,2.5,0,0,0,0-3.53,2.55,2.55,0,0,0-3.54,0ZM30.08,26a.2.2,0,0,1-.25,0,.21.21,0,0,1,0-.26l.81-1.27c.13.11.27.23.39.35a4.48,4.48,0,0,1,.36.4ZM46.32,11.87,35.66,22.54a.79.79,0,0,1-.33.2l-.18.08-2.37,1.5a6.26,6.26,0,0,0-.6-.67,7.73,7.73,0,0,0-.67-.6L33,20.69a1.11,1.11,0,0,0,.09-.19.83.83,0,0,1,.2-.32L44,9.51a.87.87,0,0,1,.59-.24.85.85,0,0,1,.59.24l1.18,1.18a.88.88,0,0,1,.25.59.83.83,0,0,1-.25.59Zm1.77-2.94-.59.58L46.32,8.33l.59-.59a.86.86,0,0,1,1.18,0,.85.85,0,0,1,0,1.18Zm0,0"/><path class="cls-1" d="M17.26,3.58l0,0A.81.81,0,0,0,17,3.39h0a.75.75,0,0,0-.26-.05h-.08a1,1,0,0,0-.29.07.72.72,0,0,0-.25.16l-2.5,2.5a.83.83,0,0,0,1.18,1.18l1.07-1.07V12.5a.84.84,0,0,0,.84.83.83.83,0,0,0,.83-.83V6.18l1.08,1.08a.83.83,0,0,0,1.18-1.18Zm0,0"/><path class="cls-1" d="M32.5,33.33a.84.84,0,0,0,.83.84h6.32l-1.07,1.07a.82.82,0,0,0-.23.81.83.83,0,0,0,.6.6.82.82,0,0,0,.81-.23l2.5-2.5a0,0,0,0,1,0,0,.85.85,0,0,0,.17-.25v0a1.09,1.09,0,0,0,0-.26s0-.06,0-.08a.78.78,0,0,0,0-.21l0-.08a.72.72,0,0,0-.16-.25l-2.5-2.5a.83.83,0,0,0-1.18,1.18l1.07,1.07H33.33a.83.83,0,0,0-.83.83Zm0,0"/></svg>