<svg id="Capa_1" data-name="Capa 1" xmlns="http://www.w3.org/2000/svg" viewBox="0 0 50 50"><defs><style>.cls-1{fill:#ff9015;}</style></defs><path class="cls-1" d="M45.9,12.49h-.51a14.25,14.25,0,0,0-1.25-3l.36-.36A2.21,2.21,0,0,0,44.5,6L42.09,3.6a2.17,2.17,0,0,0-3.1,0L38.63,4a13.85,13.85,0,0,0-3-1.26V2.19A2.19,2.19,0,0,0,33.41,0H30a2.2,2.2,0,0,0-2.2,2.19V2.7a13.78,13.78,0,0,0-3,1.26l-.36-.36A2.19,2.19,0,0,0,22.87,3a2.15,2.15,0,0,0-1.55.65L18.92,6a2.21,2.21,0,0,0,0,3.11l.36.36a14,14,0,0,0-1.26,3h-.51a2.19,2.19,0,0,0-2.19,2.19v3.41a2.19,2.19,0,0,0,2.19,2.19H18a13.85,13.85,0,0,0,1.26,3l-.36.36a2.2,2.2,0,0,0,0,3.1l2.4,2.4a2.15,2.15,0,0,0,1.55.65,2.18,2.18,0,0,0,1.55-.64l.36-.36a14.77,14.77,0,0,0,3,1.25v.51A2.2,2.2,0,0,0,30,32.77h3.4a2.19,2.19,0,0,0,2.19-2.19v-.51a14.33,14.33,0,0,0,3-1.25l.36.35a2.15,2.15,0,0,0,1.55.65,2.18,2.18,0,0,0,1.55-.64l2.41-2.41a2.2,2.2,0,0,0,0-3.1l-.36-.36a14.33,14.33,0,0,0,1.25-3h.51a2.19,2.19,0,0,0,2.19-2.19V14.68a2.19,2.19,0,0,0-2.19-2.19ZM33.64,30.58a.23.23,0,0,1-.23.24H30a.24.24,0,0,1-.24-.24V23.14a1,1,0,0,0-.64-.92,6.7,6.7,0,0,1-1.45-11.85l.22-.14a2.16,2.16,0,0,1,0,.31c0,.1,0,.18,0,.26v4.62a4.05,4.05,0,0,0,3.77,4h.13a4,4,0,0,0,3.77-4V10.8a2.44,2.44,0,0,0,0-.26,2.16,2.16,0,0,1,0-.31l.22.14a6.7,6.7,0,0,1-1.45,11.85,1,1,0,0,0-.64.92ZM46.13,18.09a.24.24,0,0,1-.23.24H44.63a1,1,0,0,0-1,.76,12.25,12.25,0,0,1-1.59,3.85,1,1,0,0,0,.13,1.21l.9.9a.24.24,0,0,1,0,.34l-2.41,2.4a.21.21,0,0,1-.16.07.22.22,0,0,1-.17-.07l-.9-.9a1,1,0,0,0-1.21-.13A12.21,12.21,0,0,1,35.6,28V23.79a8.66,8.66,0,0,0,1.24-15c-.37-.25-1.48-1-2.45-.45s-.85,1.84-.81,2.39v4.73a2.08,2.08,0,0,1-1.87,2.07,2.08,2.08,0,0,1-1.88-2.07V10.8a.45.45,0,0,1,0-.11c0-.55.13-1.84-.82-2.39s-2.08.2-2.44.45a8.66,8.66,0,0,0,1.23,15V28a12.21,12.21,0,0,1-2.66-1.26,1,1,0,0,0-.52-.15,1,1,0,0,0-.69.28l-.9.9a.22.22,0,0,1-.17.07.21.21,0,0,1-.16-.07l-2.41-2.4a.24.24,0,0,1,0-.34l.9-.9a1,1,0,0,0,.14-1.21,12.14,12.14,0,0,1-1.6-3.85,1,1,0,0,0-1-.76H17.51a.24.24,0,0,1-.23-.24V14.68a.23.23,0,0,1,.23-.23h1.27a1,1,0,0,0,1-.77,12.09,12.09,0,0,1,1.6-3.84,1,1,0,0,0-.14-1.22l-.9-.9a.24.24,0,0,1-.07-.17.23.23,0,0,1,.07-.16L22.71,5a.21.21,0,0,1,.16-.07A.22.22,0,0,1,23,5l.9.9A1,1,0,0,0,25.15,6,12.1,12.1,0,0,1,29,4.42a1,1,0,0,0,.76-1V2.19A.24.24,0,0,1,30,2h3.4a.23.23,0,0,1,.23.23V3.46a1,1,0,0,0,.77,1A12,12,0,0,1,38.26,6a1,1,0,0,0,1.21-.14l.9-.9a.22.22,0,0,1,.17-.07.24.24,0,0,1,.17.07l2.4,2.41a.23.23,0,0,1,.07.16.24.24,0,0,1-.07.17l-.9.9a1,1,0,0,0-.13,1.22,12.18,12.18,0,0,1,1.6,3.85,1,1,0,0,0,1,.76H45.9a.23.23,0,0,1,.23.23Zm0,0"/><path class="cls-1" d="M46.74,34.81A3.62,3.62,0,0,0,42,33.62l-7.78,4a3.59,3.59,0,0,0-2.6-1.1H26.25a1.35,1.35,0,0,1-.38,0,3.15,3.15,0,0,1-.29-.25l0,0c-4.31-4.06-8-3.8-12.08-2.16a2.91,2.91,0,0,1-1.36.29h-1.2a2.6,2.6,0,0,0-2.47-1.78H4.5a2.59,2.59,0,0,0-2.59,2.6V45.4A2.6,2.6,0,0,0,4.5,48H8.42a2.61,2.61,0,0,0,2.47-1.78h2.2a1.12,1.12,0,0,1,.42.06l.31.09L24,49.08l1.26.35a12.57,12.57,0,0,0,3.52.69,6.46,6.46,0,0,0,2.74-.64.79.79,0,0,0,.35-.13l.19-.14a12.7,12.7,0,0,0,1.12-.67l0,0,1.93-1.38a.84.84,0,0,0,.21-.21l5.29-3.66,1.24-.86a1.18,1.18,0,0,0,.3-.29l.12-.08,3.4-2.41A3.58,3.58,0,0,0,46.74,34.81ZM9.06,45.4a.64.64,0,0,1-.64.64H4.5a.64.64,0,0,1-.63-.64V35.13a.64.64,0,0,1,.63-.65H8.42a.65.65,0,0,1,.64.65ZM44.51,38l-3.39,2.42a1,1,0,0,0-.19.17l-.11.06L37.42,43l-5.37,3.72-1.25.86-.07.05c-1.72.82-2.84.5-5-.12-.4-.12-.82-.24-1.29-.36L14.33,44.48,14,44.4a2.6,2.6,0,0,0-.95-.14H11v-8h1.15a4.53,4.53,0,0,0,2-.42c3.63-1.44,6.44-1.61,10,1.77l0,0a2.36,2.36,0,0,0,2,.81h5.32a1.65,1.65,0,0,1,1.45.86v0a1.6,1.6,0,0,1,.2.79,1.66,1.66,0,0,1-1.66,1.66H22.94a1,1,0,1,0,0,2h8.63a3.62,3.62,0,0,0,3.62-3.61,3.35,3.35,0,0,0-.09-.79l7.74-4a1.68,1.68,0,0,1,2.23.47A1.65,1.65,0,0,1,44.51,38Z"/></svg>