<svg id="Capa_1" data-name="Capa 1" xmlns="http://www.w3.org/2000/svg" viewBox="0 0 112 112"><defs><style>.cls-1,.cls-2{fill:#ff9015;}.cls-1{stroke:#ff9015;stroke-miterlimit:10;stroke-width:2px;}</style></defs><path class="cls-1" d="M85.92,41A7.33,7.33,0,0,0,80.5,27.39l-1,.38V8.57a7.33,7.33,0,0,0-7.33-7.33h-33a7.33,7.33,0,0,0-7.32,7.33v33c-.37,0-.75,0-1.16,0h0a11.25,11.25,0,0,0-11.2,11.35l0,2c.06,4.58.12,9.3.08,10.74,0,1-.1,2.46-.19,4.14-.2,3.66-.45,8.22-.29,10.39a14.58,14.58,0,0,0,3.28,9C23,90,23.71,91,24.5,92.26c.32.52.67,1,1,1.57a12.59,12.59,0,0,1,2.76,6.39v5.41a5.5,5.5,0,0,0,5.5,5.49h22a5.49,5.49,0,0,0,5.5-5.49V98.3a1.83,1.83,0,0,1,.91-1.58,28.27,28.27,0,0,0,9.25-7.58h.83a7.31,7.31,0,0,0,7.07-5.52c.09,0,.17,0,.25,0h1.89A7.28,7.28,0,0,0,87,71.59a7.23,7.23,0,0,0,1.79-11A7.31,7.31,0,0,0,85.05,47h-5.5V43.65ZM81.85,30.8a3.67,3.67,0,1,1,2.69,6.83l-5,2.07v-8ZM64.9,4.9V6.74a1.83,1.83,0,0,1-1.83,1.83H48.42a1.83,1.83,0,0,1-1.83-1.83V4.9ZM60.36,93.54a5.46,5.46,0,0,0-2.78,4.76v7.33a1.83,1.83,0,0,1-1.84,1.83h-22a1.83,1.83,0,0,1-1.83-1.83v-5.41a15.59,15.59,0,0,0-3.37-8.4c-.32-.5-.65-1-.95-1.48C26.78,89,26.06,88,25.45,87.07a11.22,11.22,0,0,1-2.63-7.22c-.14-1.94.1-6.37.29-9.92.09-1.72.19-3.25.2-4.24,0-1.52,0-6.07-.07-10.88l0-2a7.6,7.6,0,0,1,7.55-7.65h0A9.4,9.4,0,0,1,36.24,47a17.53,17.53,0,0,0,4.36,2,53.76,53.76,0,0,0,8,1.57,1.79,1.79,0,0,1,1.61,1.76v.3c0,.64-.38,6.23-9.16,6.23a.93.93,0,0,0-.33,0c-1.4.1-7.81-1.19-9-3.6A1.83,1.83,0,1,0,28.48,57a8.08,8.08,0,0,0,3.46,3.29V81.82a7.32,7.32,0,0,0,7.32,7.32H66.49a31.63,31.63,0,0,1-6.13,4.4Zm18-24.76a3.66,3.66,0,0,1,1.24-7.1h3.66a3.66,3.66,0,1,1,0,7.32H79.55a3.54,3.54,0,0,1-1.24-.23ZM81.44,80H79.55a3.67,3.67,0,0,1,0-7.33h1.89a3.67,3.67,0,0,1,0,7.33Zm3.61-29.3a3.66,3.66,0,0,1,0,7.32h-5.5a3.66,3.66,0,0,1,0-7.32ZM72.23,54.35a7.24,7.24,0,0,0,2.53,5.49,7.27,7.27,0,0,0,0,11,7.25,7.25,0,0,0,1.07,11.74,3.68,3.68,0,0,1-3.58,2.89h-33a3.66,3.66,0,0,1-3.66-3.66V61.74a18.35,18.35,0,0,0,5.55.83c12.62,0,12.76-9.78,12.76-9.88v-.32A5.45,5.45,0,0,0,49.08,47a51.23,51.23,0,0,1-7.48-1.46,14.06,14.06,0,0,1-3.48-1.65,23.41,23.41,0,0,0-2.52-1.35V8.57A3.66,3.66,0,0,1,39.26,4.9h3.67V6.74a5.49,5.49,0,0,0,5.49,5.49H63.07a5.49,5.49,0,0,0,5.49-5.49V4.9h3.67a3.66,3.66,0,0,1,3.66,3.67V48a7.28,7.28,0,0,0-3.66,6.31Zm0,0"/><path class="cls-2" d="M61.87,73.23H50.21a1.46,1.46,0,1,0,0,2.91H61.87a1.46,1.46,0,1,0,0-2.91Zm0,0"/></svg>