<?xml version="1.0" encoding="utf-8"?>
<!-- Generator: Adobe Illustrator 24.1.0, SVG Export Plug-In . SVG Version: 6.00 Build 0)  -->
<svg version="1.1" id="Capa_1" xmlns="http://www.w3.org/2000/svg" xmlns:xlink="http://www.w3.org/1999/xlink" x="0px" y="0px"
	 viewBox="0 0 50 50" style="enable-background:new 0 0 50 50;" xml:space="preserve">
<style type="text/css">
	.st0{fill:#FF9015;}
	.st1{fill:#F28E23;}
	.st2{fill:none;stroke:#FFFFFF;stroke-width:0.6857;stroke-miterlimit:10;}
	.st3{clip-path:url(#SVGID_2_);fill:#FF9015;}
	.st4{fill:#FFFFFF;}
</style>
<g>
	<g>
		<path class="st0" d="M33.15,5.41c-3.98,0-7.6,2.28-9.32,5.86c-0.94-0.19-1.91-0.29-2.87-0.29c-7.97,0-14.46,6.49-14.46,14.46v7.82
			c0,0.16,0.07,0.32,0.18,0.43c0.12,0.11,0.28,0.18,0.44,0.17h3.19v1.54c0.01,1.59,1.29,2.87,2.87,2.88l2.69,0.01h0
			c0.17,0.01,0.33-0.05,0.45-0.16c0.12-0.11,0.19-0.26,0.19-0.43V26.92c0-0.34-0.3-0.6-0.64-0.6h-2.68c-0.77-0.01-1.5,0.3-2.04,0.83
			c-0.54,0.54-0.85,1.27-0.85,2.04v1.17H10v-4.92c0-6.03,4.92-10.94,10.95-10.94c0.64,0,1.28,0.06,1.91,0.17
			c-0.03,0.36-0.05,0.72-0.04,1.09c0,5.28,3.98,9.65,9.11,10.27v4.34h-0.31v-1.17c0.01-0.76-0.29-1.49-0.83-2.03
			c-0.54-0.54-1.27-0.84-2.03-0.84h-2.72c-0.34,0-0.64,0.25-0.64,0.6v10.75c0.01,0.35,0.29,0.63,0.64,0.63h2.72
			c1.6,0,2.86-1.31,2.86-2.9v-1.53h1.32v2.25c-0.01,2.58-2.1,4.67-4.69,4.67h-3.32v-1.98c0-0.34-0.32-0.59-0.66-0.59h-4.2
			c-0.69-0.01-1.35,0.26-1.84,0.75c-0.49,0.48-0.76,1.14-0.76,1.83v1.19c0,1.44,1.16,2.6,2.6,2.6h4.2c0.34,0,0.66-0.27,0.66-0.62
			v-1.95h3.32c3.27,0,5.92-2.64,5.93-5.91v-2.25h0.62c0.16,0,0.32-0.06,0.44-0.17c0.12-0.11,0.18-0.27,0.19-0.43v-7.4
			c4.59-1.03,8.08-5.17,8.08-10.1C43.5,10.05,38.86,5.41,33.15,5.41L33.15,5.41z M11.55,29.19c0-0.44,0.18-0.85,0.49-1.16
			c0.31-0.31,0.73-0.47,1.17-0.47h2.08v9.51l-2.08-0.02c-0.91-0.01-1.64-0.74-1.65-1.65V29.19z M30.36,35.39
			c0,0.91-0.7,1.66-1.62,1.66h-2.12v-9.48h2.12c0.43,0,0.85,0.17,1.15,0.47c0.3,0.31,0.47,0.72,0.47,1.15V35.39z M23.68,43.35h-3.62
			c-0.36,0-0.71-0.14-0.96-0.4c-0.26-0.26-0.4-0.6-0.4-0.96v-1.19c0-0.36,0.14-0.7,0.4-0.95c0.26-0.25,0.6-0.39,0.96-0.38h3.62
			V43.35z M20.95,13.26c-6.72,0-12.19,5.46-12.19,12.18v5.54c0.01,0.35,0.3,0.63,0.64,0.63h0.91v1.01H7.74v-7.18
			c0-7.29,5.93-13.21,13.21-13.21c0.8,0,1.6,0.07,2.39,0.22c-0.11,0.33-0.21,0.66-0.29,1C22.36,13.32,21.65,13.26,20.95,13.26
			L20.95,13.26z M34.17,32.62h-2.56v-1.01h0.91c0.35,0,0.63-0.28,0.65-0.63V26.1h0c0.34,0,0.68-0.02,1.01-0.06L34.17,32.62z
			 M33.15,24.86c-5.03,0-9.1-4.08-9.1-9.1c0-5.03,4.08-9.1,9.1-9.1s9.1,4.08,9.1,9.1C42.25,20.78,38.18,24.86,33.15,24.86
			L33.15,24.86z M33.15,24.86"/>
	</g>
	<path class="st0" d="M37.67,13.39c0-0.37-0.3-0.66-0.66-0.66h-1.99V11.4c0-0.37-0.3-0.66-0.66-0.66h-2.65
		c-0.37,0-0.66,0.3-0.66,0.66v3.32h-1.99c-0.37,0-0.66,0.3-0.66,0.66v3.32h-1.33v1.33H39v-1.33h-1.33V13.39z M29.72,16.04h1.33v2.65
		h-1.33V16.04z M32.37,15.37v-3.32h1.33v6.63h-1.33V15.37z M35.02,18.69v-4.64h1.33v4.64H35.02z M35.02,18.69"/>
</g>
</svg>
