<?xml version="1.0" encoding="utf-8"?>
<!-- Generator: Adobe Illustrator 24.1.0, SVG Export Plug-In . SVG Version: 6.00 Build 0)  -->
<svg version="1.1" id="Capa_1" xmlns="http://www.w3.org/2000/svg" xmlns:xlink="http://www.w3.org/1999/xlink" x="0px" y="0px"
	 viewBox="0 0 50 50" style="enable-background:new 0 0 50 50;" xml:space="preserve">
<style type="text/css">
	.st0{fill:#FF9015;}
	.st1{fill:#F28E23;}
	.st2{fill:none;stroke:#FFFFFF;stroke-width:0.6857;stroke-miterlimit:10;}
	.st3{clip-path:url(#SVGID_2_);fill:#FF9015;}
	.st4{fill:#FFFFFF;}
</style>
<g>
	<path class="st0" d="M36.84,27.49h0.62c0.34,0,0.62-0.28,0.62-0.62c0-0.34-0.28-0.62-0.62-0.62h-2.49V25
		c0-0.34-0.28-0.62-0.62-0.62s-0.62,0.28-0.62,0.62v1.25h-2.49c-0.34,0-0.62,0.28-0.62,0.62c0,0.34,0.28,0.62,0.62,0.62h4.36v1.25
		c0,0.98-0.46,1.9-1.25,2.49c-0.49-0.37-0.85-0.87-1.06-1.44c-0.12-0.31-0.47-0.47-0.79-0.36c-0.32,0.11-0.49,0.46-0.38,0.78
		c0.21,0.59,0.54,1.13,0.98,1.58c-0.62,0.08-1.25,0.1-1.87,0.06c-0.34,0-0.62,0.28-0.62,0.62c0,0.34,0.28,0.62,0.62,0.62
		c1.3,0,2.05,0.08,3.11-0.43c1.08,0.51,1.8,0.43,3.11,0.43c0.34,0,0.62-0.28,0.62-0.62c0-0.34-0.28-0.62-0.62-0.62
		c-0.62,0.05-1.25,0.03-1.87-0.07C37,30.34,36.84,28.84,36.84,27.49L36.84,27.49z M36.84,27.49"/>
	<path class="st0" d="M5.07,42.44h21.18c0.34,0,0.62-0.28,0.62-0.62v-0.5c0-1.57-0.85-3.01-2.22-3.77l-4.24-2.65
		c-0.62-0.34-1.01-0.99-1.01-1.7v-1.97c1.14-1.11,1.96-2.5,2.38-4.04c0.45-0.3,0.73-0.8,0.74-1.35V23.7
		c-0.03-0.47-0.26-0.9-0.62-1.19v-3.16c0-0.21-0.44-4.94-6.23-4.94c-5.79,0-6.23,4.78-6.23,5.02v3.08c-0.37,0.29-0.59,0.73-0.62,1.2
		v2.15c0,0.55,0.28,1.06,0.74,1.36c0.42,1.53,1.24,2.92,2.37,4.02v1.97c0,0.75-0.42,1.43-1.08,1.77l-4.11,2.58
		c-1.39,0.75-2.26,2.2-2.28,3.77v0.5C4.45,42.16,4.73,42.44,5.07,42.44L5.07,42.44z M7.36,38.59l4.11-2.59
		c1.04-0.55,1.69-1.63,1.7-2.81v-1.97c0-0.35-0.14-0.68-0.4-0.92c-0.95-0.93-1.65-2.1-2.01-3.39c-0.17-0.74-0.71-0.68-0.71-1.08
		v-2.14c0.05-0.11,0.12-0.21,0.21-0.28c0.26-0.24,0.41-0.57,0.41-0.92v-3.03c0-0.39,0.38-3.82,4.98-3.82s4.98,3.39,4.98,3.74v3.11
		c0,0.77,0.55,0.94,0.62,1.19v2.15c0,0.13-0.07,0.24-0.17,0.31c-0.27,0.18-0.46,0.45-0.54,0.77c-0.36,1.29-1.05,2.45-2.01,3.39
		c-0.25,0.24-0.4,0.57-0.4,0.92v1.97c0,1.15,0.62,2.21,1.63,2.77l4.24,2.66c0.95,0.52,1.55,1.49,1.6,2.57H5.69
		C5.75,40.09,6.38,39.1,7.36,38.59L7.36,38.59z M7.36,38.59"/>
	<path class="st0" d="M38.71,21.89h-8.72c-1.72,0-3.11,1.39-3.11,3.11v0.91l-3.46,2.31c-0.17,0.12-0.28,0.31-0.28,0.52
		c0,0.21,0.1,0.4,0.28,0.52l3.46,2.31v0.91c0,1.72,1.39,3.11,3.11,3.11h8.72c1.72,0,3.11-1.39,3.11-3.11V25
		C41.82,23.28,40.43,21.89,38.71,21.89L38.71,21.89z M40.57,32.47c0,1.03-0.84,1.87-1.87,1.87h-8.72c-1.03,0-1.87-0.84-1.87-1.87
		v-1.25c0-0.21-0.11-0.4-0.28-0.52l-2.96-1.97l2.96-1.97c0.17-0.11,0.28-0.31,0.28-0.52V25c0-1.03,0.84-1.87,1.87-1.87h8.72
		c1.03,0,1.87,0.84,1.87,1.87V32.47z M40.57,32.47"/>
	<path class="st0" d="M29.99,21.26h8.72c1.72,0,3.11-1.39,3.11-3.11v-0.91l3.46-2.31c0.17-0.12,0.28-0.31,0.28-0.52
		c0-0.21-0.1-0.4-0.28-0.52l-3.46-2.31v-0.91c0-1.72-1.39-3.11-3.11-3.11h-8.72c-1.72,0-3.11,1.39-3.11,3.11v7.47
		C26.87,19.87,28.27,21.26,29.99,21.26L29.99,21.26z M28.12,10.67c0-1.03,0.84-1.87,1.87-1.87h8.72c1.03,0,1.87,0.84,1.87,1.87v1.25
		c0,0.21,0.11,0.4,0.28,0.52l2.96,1.97l-2.96,1.97c-0.17,0.11-0.28,0.31-0.28,0.52v1.25c0,1.03-0.84,1.87-1.87,1.87h-8.72
		c-1.03,0-1.87-0.84-1.87-1.87V10.67z M28.12,10.67"/>
	<path class="st0" d="M34.35,10.05c-2.06,0-3.74,1.67-3.74,3.74v4.36c0,0.34,0.28,0.62,0.62,0.62c0.34,0,0.62-0.28,0.62-0.62v-2.49
		h4.98v2.49c0,0.34,0.28,0.62,0.62,0.62c0.34,0,0.62-0.28,0.62-0.62v-4.36C38.08,11.72,36.41,10.05,34.35,10.05L34.35,10.05z
		 M31.85,14.41v-0.62c0-1.38,1.12-2.49,2.49-2.49c1.38,0,2.49,1.12,2.49,2.49v0.62H31.85z M31.85,14.41"/>
</g>
</svg>
