<svg id="Capa_1" data-name="Capa 1" xmlns="http://www.w3.org/2000/svg" viewBox="0 0 50 50"><defs><style>.cls-1{fill:#f28e23;}.cls-2{fill:none;stroke:#fff;stroke-miterlimit:10;stroke-width:0.78px;}</style></defs><path class="cls-1" d="M37.53,34c0,1.48-1.21,3-3.32,4.17-5,2.8-13.37,2.8-18.42,0C13.68,37,12.47,35.49,12.47,34V25.59l11.91,5.16a1.53,1.53,0,0,0,1.24,0l11.91-5.16V34ZM25,10.66l19.55,8.48L43,19.81,25.19,17.58a1.57,1.57,0,0,0-.38,3.11l12.54,1.57L25,27.61,5.45,19.14,25,10.66Zm24.11,7L25.62,7.52a1.57,1.57,0,0,0-1.24,0L.89,17.7a1.56,1.56,0,0,0,0,2.87l8.45,3.67V34c0,5.27,6.88,9.4,15.66,9.4S40.66,39.28,40.66,34V24.24l1.57-.68V40.28a1.57,1.57,0,0,0,3.13,0V22.2l3.75-1.63a1.56,1.56,0,0,0,0-2.87Z"/><path class="cls-2" d="M37.53,34c0,1.48-1.21,3-3.32,4.17-5,2.8-13.37,2.8-18.42,0C13.68,37,12.47,35.49,12.47,34V25.59l11.91,5.16a1.53,1.53,0,0,0,1.24,0l11.91-5.16V34ZM25,10.66l19.55,8.48L43,19.81,25.19,17.58a1.57,1.57,0,0,0-.38,3.11l12.54,1.57L25,27.61,5.45,19.14,25,10.66Zm24.11,7L25.62,7.52a1.57,1.57,0,0,0-1.24,0L.89,17.7a1.56,1.56,0,0,0,0,2.87l8.45,3.67V34c0,5.27,6.88,9.4,15.66,9.4S40.66,39.28,40.66,34V24.24l1.57-.68V40.28a1.57,1.57,0,0,0,3.13,0V22.2l3.75-1.63a1.56,1.56,0,0,0,0-2.87Z"/></svg>