<?xml version="1.0" encoding="utf-8"?>
<!-- Generator: Adobe Illustrator 24.1.0, SVG Export Plug-In . SVG Version: 6.00 Build 0)  -->
<svg version="1.1" id="Capa_1" xmlns="http://www.w3.org/2000/svg" xmlns:xlink="http://www.w3.org/1999/xlink" x="0px" y="0px"
	 viewBox="0 0 50 50" style="enable-background:new 0 0 50 50;" xml:space="preserve">
<style type="text/css">
	.st0{fill:#FF9015;}
	.st1{fill:#F28E23;}
	.st2{fill:none;stroke:#FFFFFF;stroke-width:0.6857;stroke-miterlimit:10;}
	.st3{clip-path:url(#SVGID_2_);fill:#FF9015;}
	.st4{fill:#FFFFFF;}
</style>
<g>
	<path class="st0" d="M35.73,18.96c0-8.4-6.81-15.22-15.22-15.22c-0.54,0-1.09,0.03-1.63,0.09c-0.5,0.05-0.99,0.13-1.47,0.23
		c-0.09,0.02-0.19,0.04-0.28,0.06c-2.85,0.65-5.45,2.11-7.5,4.2c-0.19,0.19-0.38,0.4-0.56,0.6l0,0c-5.52,6.34-4.86,15.95,1.48,21.47
		c6.07,5.28,15.2,4.93,20.84-0.8c0.19-0.19,0.38-0.4,0.56-0.6l0,0C34.39,26.21,35.73,22.65,35.73,18.96z M30.71,28.83
		c-0.08,0.08-0.16,0.16-0.24,0.24c-0.09,0.09-0.19,0.19-0.29,0.28c-0.08,0.08-0.17,0.15-0.26,0.23c-0.1,0.09-0.2,0.17-0.3,0.26
		c-0.09,0.07-0.18,0.15-0.27,0.22c-0.1,0.08-0.2,0.16-0.31,0.24c-0.09,0.07-0.19,0.14-0.28,0.2c-0.1,0.08-0.21,0.15-0.32,0.22
		c-0.1,0.06-0.19,0.13-0.29,0.19c-0.11,0.07-0.22,0.14-0.33,0.2c-0.1,0.06-0.2,0.12-0.3,0.17c-0.11,0.06-0.23,0.13-0.34,0.19
		c-0.1,0.05-0.2,0.11-0.3,0.16c-0.12,0.06-0.23,0.11-0.35,0.17c-0.1,0.05-0.21,0.1-0.31,0.14C26.12,32,26,32.05,25.87,32.1
		c-0.1,0.04-0.21,0.09-0.31,0.13c-0.12,0.05-0.25,0.09-0.37,0.13c-0.11,0.04-0.21,0.07-0.32,0.11c-0.13,0.04-0.25,0.08-0.38,0.12
		c-0.11,0.03-0.21,0.06-0.32,0.09c-0.04,0.01-0.08,0.02-0.12,0.03c1.5-1.46,2.62-3.27,3.24-5.26c1.2,0.32,2.37,0.77,3.48,1.34
		C30.74,28.8,30.73,28.81,30.71,28.83z M16.54,32.59c-0.13-0.04-0.26-0.08-0.38-0.12c-0.11-0.03-0.21-0.07-0.32-0.11
		c-0.12-0.04-0.25-0.09-0.37-0.13c-0.11-0.04-0.21-0.08-0.31-0.12c-0.12-0.05-0.24-0.1-0.36-0.15c-0.1-0.05-0.21-0.09-0.31-0.14
		c-0.12-0.06-0.24-0.11-0.36-0.17c-0.1-0.05-0.2-0.1-0.3-0.16c-0.11-0.06-0.23-0.12-0.34-0.19c-0.1-0.06-0.2-0.11-0.3-0.17
		c-0.11-0.07-0.22-0.14-0.33-0.21c-0.1-0.06-0.19-0.12-0.29-0.19c-0.11-0.07-0.22-0.15-0.32-0.23c-0.09-0.07-0.19-0.13-0.28-0.2
		c-0.1-0.08-0.21-0.16-0.31-0.24c-0.09-0.07-0.18-0.14-0.27-0.22c-0.1-0.08-0.2-0.17-0.3-0.26c-0.09-0.08-0.17-0.15-0.26-0.23
		c-0.1-0.09-0.19-0.18-0.29-0.28c-0.08-0.08-0.16-0.16-0.24-0.24c-0.01-0.02-0.03-0.03-0.04-0.05c1.11-0.57,2.27-1.02,3.48-1.34
		c0.63,2,1.74,3.81,3.24,5.26c-0.04-0.01-0.08-0.02-0.12-0.03C16.75,32.65,16.64,32.62,16.54,32.59z M9.57,9.9
		c1.22,0.66,2.51,1.17,3.85,1.53c-0.66,2.28-1,4.64-1.02,7.02H6.32C6.43,15.32,7.57,12.31,9.57,9.9z M10.3,9.08
		c0.08-0.08,0.16-0.16,0.24-0.24c0.09-0.09,0.19-0.19,0.28-0.28c0.08-0.08,0.17-0.16,0.26-0.23c0.1-0.09,0.2-0.17,0.3-0.26
		c0.09-0.07,0.18-0.15,0.27-0.22c0.1-0.08,0.2-0.16,0.31-0.24c0.09-0.07,0.19-0.14,0.28-0.2c0.1-0.08,0.21-0.15,0.32-0.22
		c0.1-0.06,0.19-0.13,0.29-0.19c0.11-0.07,0.22-0.14,0.33-0.2c0.1-0.06,0.2-0.12,0.3-0.17c0.11-0.06,0.23-0.13,0.34-0.19
		c0.1-0.05,0.2-0.11,0.3-0.16c0.12-0.06,0.23-0.11,0.35-0.17c0.1-0.05,0.21-0.1,0.31-0.14c0.12-0.05,0.24-0.1,0.36-0.15
		c0.1-0.04,0.21-0.09,0.32-0.13c0.12-0.05,0.25-0.09,0.37-0.13c0.11-0.04,0.21-0.07,0.32-0.11c0.13-0.04,0.25-0.08,0.38-0.12
		c0.11-0.03,0.21-0.06,0.32-0.09c0.04-0.01,0.08-0.02,0.12-0.03c-1.5,1.46-2.62,3.27-3.24,5.26c-1.2-0.32-2.37-0.77-3.48-1.34
		C10.28,9.12,10.29,9.1,10.3,9.08z M24.48,5.33c0.13,0.04,0.26,0.08,0.38,0.12c0.11,0.03,0.21,0.07,0.32,0.11
		c0.12,0.04,0.25,0.09,0.37,0.13c0.11,0.04,0.21,0.08,0.31,0.12c0.12,0.05,0.24,0.1,0.36,0.15c0.1,0.05,0.21,0.09,0.31,0.14
		c0.12,0.06,0.24,0.11,0.36,0.17c0.1,0.05,0.2,0.1,0.3,0.16c0.11,0.06,0.23,0.12,0.34,0.19c0.1,0.06,0.2,0.11,0.3,0.17
		c0.11,0.07,0.22,0.14,0.33,0.21c0.1,0.06,0.19,0.12,0.29,0.19c0.11,0.07,0.21,0.15,0.32,0.22c0.09,0.07,0.19,0.13,0.28,0.2
		c0.1,0.08,0.21,0.16,0.31,0.24c0.09,0.07,0.18,0.14,0.27,0.22c0.1,0.08,0.2,0.17,0.3,0.26c0.09,0.08,0.17,0.15,0.26,0.23
		c0.1,0.09,0.19,0.18,0.29,0.28c0.08,0.08,0.16,0.16,0.24,0.24c0.01,0.02,0.03,0.03,0.04,0.05c-1.11,0.57-2.27,1.02-3.48,1.34
		c-0.63-2-1.74-3.81-3.25-5.26c0.04,0.01,0.08,0.02,0.12,0.03C24.27,5.26,24.38,5.29,24.48,5.33z M28.62,18.45
		c-0.02-2.37-0.37-4.74-1.02-7.02c1.34-0.36,2.63-0.87,3.85-1.53c2,2.41,3.15,5.42,3.26,8.55H28.62z M20,11.33
		c-1.77-0.02-3.54-0.23-5.27-0.62c1.2-3.35,3.1-5.61,5.27-5.92V11.33z M14.41,11.68c1.83,0.42,3.71,0.64,5.59,0.67v6.1h-6.59
		C13.44,16.16,13.78,13.88,14.41,11.68L14.41,11.68z M20,19.46v6.1c-1.88,0.02-3.75,0.25-5.59,0.67c-0.64-2.2-0.97-4.48-1-6.77H20z
		 M20,26.58v6.54c-2.17-0.31-4.07-2.57-5.27-5.92C16.46,26.81,18.23,26.6,20,26.58z M21.02,26.58c1.77,0.02,3.54,0.23,5.27,0.62
		c-1.2,3.35-3.1,5.61-5.27,5.92V26.58z M26.61,26.23c-1.83-0.42-3.71-0.64-5.59-0.67v-6.1h6.59C27.58,21.75,27.24,24.03,26.61,26.23
		L26.61,26.23z M21.02,18.45v-6.1c1.88-0.02,3.75-0.25,5.59-0.67c0.64,2.2,0.97,4.48,1,6.77H21.02z M21.02,11.33V4.79
		c2.17,0.31,4.07,2.57,5.27,5.92C24.56,11.1,22.79,11.31,21.02,11.33z M12.4,19.46c0.02,2.37,0.37,4.74,1.02,7.02
		c-1.34,0.36-2.63,0.87-3.85,1.53c-2-2.41-3.15-5.42-3.26-8.55H12.4z M27.59,26.48c0.66-2.28,1-4.64,1.02-7.02h6.08
		c-0.11,3.13-1.26,6.14-3.26,8.55C30.23,27.35,28.93,26.84,27.59,26.48z"/>
	<path class="st4" d="M41.22,18.82H17.02c-1.9,0-3.45,1.55-3.45,3.45v20.55c0,1.9,1.55,3.45,3.45,3.45h24.21
		c1.9,0,3.45-1.55,3.45-3.45V22.27C44.67,20.37,43.13,18.82,41.22,18.82z"/>
	<g>
		<path class="st0" d="M26.23,32.28c-0.18-0.22-0.51-0.24-0.72-0.06l-3.32,2.83c-0.11,0.1-0.18,0.24-0.18,0.39
			c0,0.15,0.07,0.29,0.18,0.39l3.32,2.83c0.1,0.08,0.21,0.12,0.33,0.12c0.15,0,0.29-0.06,0.39-0.18c0.18-0.22,0.16-0.54-0.06-0.72
			l-2.86-2.44L26.17,33C26.39,32.82,26.42,32.49,26.23,32.28z"/>
		<path class="st0" d="M32.73,32.22c-0.22-0.18-0.54-0.16-0.72,0.06c-0.18,0.22-0.16,0.54,0.06,0.72l2.86,2.44l-2.86,2.44
			c-0.22,0.18-0.24,0.51-0.06,0.72c0.1,0.12,0.25,0.18,0.39,0.18c0.12,0,0.24-0.04,0.33-0.12l3.32-2.83
			c0.11-0.1,0.18-0.24,0.18-0.39c0-0.15-0.07-0.29-0.18-0.39L32.73,32.22z"/>
		<path class="st0" d="M30.12,30.06c-0.28-0.06-0.55,0.12-0.61,0.4l-2.07,9.83c-0.06,0.28,0.12,0.55,0.4,0.61
			c0.04,0.01,0.07,0.01,0.11,0.01c0.24,0,0.45-0.17,0.5-0.41l2.07-9.83C30.58,30.39,30.4,30.11,30.12,30.06z"/>
		<path class="st0" d="M41.22,18.82H17.02c-1.9,0-3.45,1.55-3.45,3.45v20.55c0,1.9,1.55,3.45,3.45,3.45h24.21
			c1.9,0,3.45-1.55,3.45-3.45V22.27C44.67,20.37,43.13,18.82,41.22,18.82z M17.02,19.85h24.21c1.33,0,2.42,1.09,2.42,2.42v3.75H14.6
			v-3.75C14.6,20.93,15.68,19.85,17.02,19.85z M41.22,45.23H17.02c-1.33,0-2.42-1.09-2.42-2.42V27.04h29.05v15.77
			C43.65,44.15,42.56,45.23,41.22,45.23z"/>
		<path class="st0" d="M22.34,24.58c0.9,0,1.63-0.73,1.63-1.63c0-0.9-0.73-1.62-1.63-1.62c-0.9,0-1.63,0.73-1.63,1.62
			C20.72,23.86,21.45,24.58,22.34,24.58z M22.34,22.36c0.33,0,0.6,0.27,0.6,0.6c0,0.33-0.27,0.6-0.6,0.6c-0.33,0-0.6-0.27-0.6-0.6
			C21.75,22.63,22.01,22.36,22.34,22.36z"/>
		<path class="st0" d="M17.35,24.57c0.9,0,1.63-0.73,1.63-1.63c0-0.9-0.73-1.63-1.63-1.63c-0.9,0-1.62,0.73-1.62,1.63
			C15.73,23.84,16.45,24.57,17.35,24.57z M17.35,22.35c0.33,0,0.6,0.27,0.6,0.6c0,0.33-0.27,0.6-0.6,0.6c-0.33,0-0.6-0.27-0.6-0.6
			C16.75,22.61,17.02,22.35,17.35,22.35z"/>
		<path class="st0" d="M27.34,24.6c0.9,0,1.63-0.73,1.63-1.63c0-0.9-0.73-1.62-1.63-1.62c-0.9,0-1.62,0.73-1.62,1.62
			C25.71,23.87,26.44,24.6,27.34,24.6z M27.34,22.38c0.33,0,0.6,0.27,0.6,0.6s-0.27,0.6-0.6,0.6c-0.33,0-0.6-0.27-0.6-0.6
			S27.01,22.38,27.34,22.38z"/>
	</g>
</g>
</svg>
