<svg id="Capa_1" data-name="Capa 1" xmlns="http://www.w3.org/2000/svg" xmlns:xlink="http://www.w3.org/1999/xlink" viewBox="0 0 50 50"><defs><style>.cls-1{fill:none;}.cls-2{clip-path:url(#clip-path);}.cls-3{fill:#ff9015;}</style><clipPath id="clip-path"><rect class="cls-1" y="5.29" width="50" height="39.42"/></clipPath></defs><g class="cls-2"><path class="cls-3" d="M44.55,34.21H5.45a.71.71,0,0,1-.71-.72V9.44A4.09,4.09,0,0,1,8.83,5.35H41.17a4.09,4.09,0,0,1,4.09,4.09V33.49a.71.71,0,0,1-.71.72ZM6.16,32.78H43.84V9.44a2.68,2.68,0,0,0-2.67-2.67H8.83A2.68,2.68,0,0,0,6.16,9.44Zm0,0"/><path class="cls-3" d="M47.4,44.63H2.6A2.55,2.55,0,0,1,.35,40.89l4.48-7.75a.73.73,0,0,1,.62-.36h39.1a.73.73,0,0,1,.62.36l4.47,7.72a2.55,2.55,0,0,1-2.24,3.77ZM5.86,34.21,1.6,41.58a1.09,1.09,0,0,0,0,1.09,1.11,1.11,0,0,0,1,.53H47.4a1.11,1.11,0,0,0,1-.54,1.15,1.15,0,0,0,0-1.11l-4.25-7.34Zm0,0"/></g><path class="cls-3" d="M29.82,42.49H20.18a.71.71,0,0,1-.66-1l1.39-3.63a.7.7,0,0,1,.66-.46h6.86a.7.7,0,0,1,.66.46l1.39,3.63a.71.71,0,0,1-.66,1Zm-8.6-1.43h7.56l-.85-2.2H22.06Zm0,0"/><path class="cls-3" d="M41.51,31h-33a.71.71,0,0,1-.72-.71V9.25a.72.72,0,0,1,.72-.72h33a.72.72,0,0,1,.72.72V30.31a.71.71,0,0,1-.72.71ZM9.2,29.6H40.8V10H9.2Zm0,0"/><path class="cls-3" d="M35.75,13.32H33.41a.71.71,0,0,0-.71.72v.46H26.88V14a.71.71,0,0,0-.71-.72H23.83a.71.71,0,0,0-.71.72v.46H17.3V14a.71.71,0,0,0-.71-.72H14.25a.71.71,0,0,0-.71.72v2.33a.71.71,0,0,0,.71.72h2.34a.71.71,0,0,0,.71-.72v-.45h2.93a8.81,8.81,0,0,0-4,6.77h-.48a.71.71,0,0,0-.71.71v2.33a.71.71,0,0,0,.71.72h2.34a.71.71,0,0,0,.71-.72V23.4a.71.71,0,0,0-.71-.71h-.41a7.34,7.34,0,0,1,5.41-6.49v.17a.71.71,0,0,0,.71.72h2.34a.71.71,0,0,0,.71-.72V16.2a7.34,7.34,0,0,1,5.41,6.49h-.41a.71.71,0,0,0-.71.71v2.33a.71.71,0,0,0,.71.72h2.34a.71.71,0,0,0,.71-.72V23.4a.71.71,0,0,0-.71-.71h-.48a8.82,8.82,0,0,0-4-6.77H32.7v.45a.71.71,0,0,0,.71.72h2.34a.71.71,0,0,0,.71-.72V14A.71.71,0,0,0,35.75,13.32ZM15,15.66v-.91h.92v.41a.14.14,0,0,0,0,.09v.41ZM17.41,25h-.92v-.91h.92Zm16.1,0h-.92v-.91h.92Zm-9-9.36v-.91h.92v.41a0,0,0,0,0,0,0,.43.43,0,0,0,0,.16v.31Zm10.5,0h-.91v-.91H35Z"/></svg>