<?xml version="1.0" encoding="utf-8"?>
<!-- Generator: Adobe Illustrator 24.1.0, SVG Export Plug-In . SVG Version: 6.00 Build 0)  -->
<svg version="1.1" id="Capa_1" xmlns="http://www.w3.org/2000/svg" xmlns:xlink="http://www.w3.org/1999/xlink" x="0px" y="0px"
	 viewBox="0 0 50 50" style="enable-background:new 0 0 50 50;" xml:space="preserve">
<style type="text/css">
	.st0{fill:#FF9015;}
	.st1{fill:#F28E23;}
	.st2{fill:none;stroke:#FFFFFF;stroke-width:0.6857;stroke-miterlimit:10;}
	.st3{clip-path:url(#SVGID_2_);fill:#FF9015;}
	.st4{fill:#FFFFFF;}
</style>
<path class="st0" d="M34.71,8.17c-0.8-0.2-1.61,0.43-1.61,1.25c0,0.9-0.33,1.77-0.93,2.45l-1.73,1.96
	c-0.11-0.17-0.31-0.29-0.53-0.29h-3.39c-0.35,0-0.63,0.28-0.63,0.63v7.62c0,0.35,0.28,0.63,0.63,0.63h3.39
	c0.25,0,0.47-0.15,0.57-0.37c0.69,0.42,1.48,0.65,2.29,0.65h5.98c0.91,0,1.67-0.79,1.63-1.71c-0.02-0.4,0-5.83,0-5.95
	c0-0.9-0.73-1.63-1.63-1.63l-3.11-0.01l0.13-0.31c0.59-1.39,0.49-3.01-0.26-4.33C35.34,8.47,35.05,8.25,34.71,8.17
	C34.37,8.08,35.05,8.25,34.71,8.17C33.91,7.96,35.05,8.25,34.71,8.17L34.71,8.17z M29.28,21.16h-2.13V14.8h2.13V21.16z M38.76,14.68
	c0.2,0,0.37,0.17,0.37,0.37c0,0.12,0,0.45,0,0.89c-0.01,2.43-0.02,4.74,0,5.12c0.01,0.14-0.06,0.23-0.1,0.27
	c-0.07,0.07-0.16,0.11-0.27,0.11h-5.98c-0.71,0-1.41-0.25-1.97-0.7l-0.26-0.21v-4.91l2.58-2.92c0.8-0.91,1.24-2.07,1.24-3.28
	c0-0.04,0.05-0.05,0.06-0.02c0.56,0.98,0.63,2.18,0.19,3.21l-0.5,1.18c-0.08,0.19-0.06,0.42,0.05,0.59
	c0.12,0.18,0.31,0.28,0.52,0.28L38.76,14.68z M38.76,14.68"/>
<path class="st0" d="M10.23,25.38c-0.35,0-0.63,0.28-0.63,0.63c0,0.35,0.28,0.63,0.63,0.63h1.86l-0.35,2.1
	c-0.06,0.34,0.18,0.67,0.52,0.72c0.03,0.01,0.07,0.01,0.1,0.01c0.3,0,0.57-0.22,0.62-0.53l0.38-2.3h1.52l-0.35,2.1
	c-0.06,0.34,0.18,0.67,0.52,0.72c0.03,0.01,0.07,0.01,0.1,0.01c0.3,0,0.57-0.22,0.62-0.53l0.38-2.3h2.53c0.35,0,0.63-0.28,0.63-0.63
	c0-0.35-0.28-0.63-0.63-0.63h-2.32l0.25-1.54h2.06c0.35,0,0.63-0.28,0.63-0.63c0-0.35-0.28-0.63-0.63-0.63h-1.86l0.35-2.1
	c0.06-0.34-0.18-0.67-0.52-0.72c-0.34-0.06-0.67,0.18-0.72,0.52l-0.38,2.3h-1.52l0.35-2.1c0.06-0.34-0.18-0.67-0.52-0.72
	c-0.34-0.06-0.67,0.18-0.72,0.52l-0.38,2.3h-2.53c-0.35,0-0.63,0.28-0.63,0.63c0,0.35,0.28,0.63,0.63,0.63h2.32l-0.25,1.54H10.23z
	 M13.82,23.85h1.52l-0.25,1.54h-1.52L13.82,23.85z M13.82,23.85"/>
<path class="st0" d="M28.7,36.54l-4.32-2.5c-0.2-0.11-0.44-0.11-0.63,0c-0.2,0.11-0.32,0.32-0.32,0.55v4.99
	c0,0.23,0.12,0.43,0.32,0.55c0.1,0.06,0.21,0.08,0.32,0.08s0.22-0.03,0.32-0.08l4.32-2.5c0.2-0.11,0.32-0.32,0.32-0.55
	S28.9,36.65,28.7,36.54z M24.69,38.48v-2.8l2.43,1.4L24.69,38.48z"/>
<path class="st0" d="M40.45,3.51H39.1h-0.5h-3.95H34.3h-8.47c-2.6,0-4.72,2.11-4.72,4.71v6.73c-0.29-0.07-0.59-0.11-0.9-0.11H8.69
	c-2.13,0-3.85,1.72-3.85,3.85v1.36c0,0.03,0.01,0.04,0.01,0.07v3.64c0,0.02-0.01,0.04-0.01,0.07v6.35c0,2.12,1.73,3.85,3.85,3.85
	h5.7v2.33c0,0.5,0.61,0.81,1.01,0.5l3.18-2.45v7.08c0,1.61,1.31,2.91,2.92,2.91h3.86v1.47c0,0.5,0.61,0.81,1.01,0.5l2.55-1.97h0.75
	c1.61,0,2.92-1.31,2.92-2.91v-1.12c0-0.03-0.01-0.05-0.02-0.08V36.5c0-0.03,0.02-0.05,0.02-0.08v-3.09c0-1.61-1.31-2.91-2.92-2.91
	h-5.62c0-0.08,0.01-3.26,0.01-3.26c0.56,0.22,1.15,0.34,1.76,0.34h7.03v3.09c0,0.5,0.61,0.81,1.01,0.5l4.69-3.59h1.88
	c2.6,0,4.72-2.11,4.72-4.71V8.22C45.17,5.63,43.05,3.51,40.45,3.51z M18.63,32.81c-0.06,0.02-0.11,0.05-0.16,0.09l-2.82,2.17V33.4
	c0-0.35-0.28-0.63-0.63-0.63H8.69c-1.43,0-2.6-1.16-2.6-2.59v-6.35c0-0.02-0.01-0.03-0.01-0.05V20.1c0-0.02,0.01-0.03,0.01-0.05
	v-1.36c0-1.43,1.16-2.59,2.6-2.59h11.53c1.43,0,2.6,1.16,2.6,2.59v7.32c-0.01,0.06-0.01,0.11,0,0.17v4.01c0,0.08,0,0.16-0.01,0.24
	h-1.3C20.07,30.42,18.88,31.45,18.63,32.81z M29.68,31.68c0.91,0,1.66,0.74,1.66,1.65v3.09c0,0.02,0.01,0.03,0.01,0.04v3.86
	c0,0.01-0.01,0.03-0.01,0.04v1.12c0,0.91-0.74,1.65-1.66,1.65h-0.97c-0.14,0-0.27,0.05-0.38,0.13l-1.7,1.32v-0.82
	c0-0.35-0.28-0.63-0.63-0.63H21.5c-0.91,0-1.66-0.74-1.66-1.65v-8.15c0-0.91,0.74-1.65,1.66-1.65H29.68z M43.91,22.79
	c0,1.9-1.55,3.45-3.46,3.45h-2.1c-0.14,0-0.27,0.05-0.38,0.13l-3.85,2.94v-2.44c0-0.35-0.28-0.63-0.63-0.63h-7.66
	c-0.63,0-1.23-0.17-1.76-0.48v-7.07c0-1.32-0.67-2.49-1.7-3.19V8.22c0-1.9,1.55-3.45,3.46-3.45h8.82c0.04,0,0.08-0.02,0.11-0.02
	h3.72c0.04,0.01,0.07,0.02,0.11,0.02h1.85c1.91,0,3.46,1.55,3.46,3.45V22.79z"/>
</svg>
