<svg id="Capa_1" data-name="Capa 1" xmlns="http://www.w3.org/2000/svg" viewBox="0 0 50 50"><defs><style>.cls-1{fill:#ff9015;}</style></defs><path class="cls-1" d="M35.4,0A13.23,13.23,0,0,0,23.5,7.48a18.7,18.7,0,0,0-3.66-.37A18.48,18.48,0,0,0,1.39,25.56v10a.76.76,0,0,0,.24.55.74.74,0,0,0,.56.22H6.25v2A3.69,3.69,0,0,0,9.92,42h3.45a.86.86,0,0,0,.57-.21.81.81,0,0,0,.25-.55V27.45a.79.79,0,0,0-.82-.76H10a3.67,3.67,0,0,0-3.7,3.66v1.5H5.86V25.56a14,14,0,0,1,14-13.95,14.16,14.16,0,0,1,2.43.21,12.73,12.73,0,0,0-.05,1.38A13.22,13.22,0,0,0,33.83,26.31v5.54h-.4v-1.5a3.64,3.64,0,0,0-3.65-3.66H26.32a.79.79,0,0,0-.82.76V41.16a.83.83,0,0,0,.82.81h3.46a3.67,3.67,0,0,0,3.65-3.71V36.31h1.69v2.87a6,6,0,0,1-6,6H24.9V42.62a.8.8,0,0,0-.84-.75H18.7a3.28,3.28,0,0,0-3.32,3.28v1.53A3.32,3.32,0,0,0,18.7,50h5.36a.83.83,0,0,0,.84-.79V46.73h4.24a7.58,7.58,0,0,0,7.57-7.55V36.31h.79a.75.75,0,0,0,.56-.22.79.79,0,0,0,.23-.55V26.09A13.2,13.2,0,0,0,35.4,0ZM7.84,30.35a2.12,2.12,0,0,1,.62-1.48A2.07,2.07,0,0,1,10,28.28H12.6V40.41l-2.65,0a2.13,2.13,0,0,1-2.11-2.11Zm24,7.91a2.08,2.08,0,0,1-2.06,2.12h-2.7V28.28h2.7a2,2,0,0,1,2.06,2.07ZM23.31,48.41H18.7a1.73,1.73,0,0,1-1.23-.51,1.68,1.68,0,0,1-.5-1.22V45.15a1.71,1.71,0,0,1,1.73-1.7h4.61ZM19.83,10A15.57,15.57,0,0,0,4.27,25.56v7.07a.81.81,0,0,0,.82.8H6.25v1.29H3V25.56A16.88,16.88,0,0,1,19.84,8.7,17.39,17.39,0,0,1,22.89,9c-.14.42-.27.84-.37,1.27A16.19,16.19,0,0,0,19.83,10ZM36.7,34.72H33.43V33.43h1.16a.83.83,0,0,0,.83-.8V26.41h0c.44,0,.86,0,1.29-.07Zm-1.3-9.9A11.62,11.62,0,1,1,47,13.2,11.62,11.62,0,0,1,35.4,24.82Zm0,0"/><path class="cls-1" d="M41.17,10.18a.85.85,0,0,0-.84-.85H37.79V7.64a.85.85,0,0,0-.85-.85H33.56a.85.85,0,0,0-.85.85v4.23H30.17a.85.85,0,0,0-.84.85V17h-1.7v1.69H42.87V17h-1.7ZM31,13.56h1.69V17H31Zm3.38-.84V8.49h1.7V17H34.4ZM37.79,17V11h1.69V17Zm0,0"/></svg>