<?xml version="1.0" encoding="utf-8"?>
<!-- Generator: Adobe Illustrator 24.1.0, SVG Export Plug-In . SVG Version: 6.00 Build 0)  -->
<svg version="1.1" id="Capa_1" xmlns="http://www.w3.org/2000/svg" xmlns:xlink="http://www.w3.org/1999/xlink" x="0px" y="0px"
	 viewBox="0 0 50 50" style="enable-background:new 0 0 50 50;" xml:space="preserve">
<style type="text/css">
	.st0{fill:#FF9015;}
	.st1{fill:#F28E23;}
	.st2{fill:none;stroke:#FFFFFF;stroke-width:0.6857;stroke-miterlimit:10;}
	.st3{clip-path:url(#SVGID_2_);fill:#FF9015;}
	.st4{fill:#FFFFFF;}
</style>
<g>
	<path class="st0" d="M25,42.18c-9.47,0-17.18-7.71-17.18-17.18S15.53,7.82,25,7.82S42.18,15.53,42.18,25S34.47,42.18,25,42.18
		L25,42.18z M25,9.97C16.71,9.97,9.97,16.71,9.97,25S16.71,40.03,25,40.03S40.03,33.29,40.03,25S33.29,9.97,25,9.97L25,9.97z
		 M25,9.97"/>
	<path class="st0" d="M32.52,23.93h-6.44v-6.44c0-0.59-0.48-1.07-1.07-1.07s-1.07,0.48-1.07,1.07v6.44h-6.44
		c-0.59,0-1.07,0.48-1.07,1.07c0,0.59,0.48,1.07,1.07,1.07h6.44v6.44c0,0.59,0.48,1.07,1.07,1.07s1.07-0.48,1.07-1.07v-6.44h6.44
		c0.59,0,1.07-0.48,1.07-1.07C33.59,24.41,33.11,23.93,32.52,23.93z"/>
</g>
</svg>
