<?xml version="1.0" encoding="utf-8"?>
<!-- Generator: Adobe Illustrator 24.1.0, SVG Export Plug-In . SVG Version: 6.00 Build 0)  -->
<svg version="1.1" id="Capa_1" xmlns="http://www.w3.org/2000/svg" xmlns:xlink="http://www.w3.org/1999/xlink" x="0px" y="0px"
	 viewBox="0 0 50 50" style="enable-background:new 0 0 50 50;" xml:space="preserve">
<style type="text/css">
	.st0{fill:#FF9015;}
	.st1{fill:#F28E23;}
	.st2{fill:none;stroke:#FFFFFF;stroke-width:0.6857;stroke-miterlimit:10;}
	.st3{clip-path:url(#SVGID_2_);fill:#FF9015;}
	.st4{fill:#FFFFFF;}
</style>
<g>
	<path class="st0" d="M39.3,15.28h-0.39c-0.23-0.82-0.56-1.6-0.97-2.34l0.28-0.28c0.32-0.32,0.5-0.75,0.5-1.2
		c0-0.45-0.18-0.88-0.5-1.2l-1.86-1.86c-0.32-0.32-0.75-0.5-1.2-0.5s-0.88,0.18-1.2,0.5l-0.28,0.28c-0.74-0.41-1.52-0.74-2.34-0.97
		V7.32c0-0.94-0.76-1.7-1.7-1.7h-2.63c-0.94,0-1.7,0.76-1.7,1.7v0.39c-0.81,0.23-1.6,0.56-2.34,0.97l-0.28-0.28
		c-0.32-0.32-0.75-0.5-1.2-0.5c-0.45,0-0.88,0.18-1.2,0.5l-1.86,1.86c-0.32,0.32-0.5,0.74-0.5,1.2c0,0.45,0.18,0.88,0.5,1.2
		l0.28,0.28c-0.41,0.74-0.74,1.52-0.97,2.34h-0.39c-0.94,0-1.7,0.76-1.7,1.7v2.63c0,0.94,0.76,1.7,1.7,1.7h0.39
		c0.23,0.81,0.56,1.6,0.97,2.34l-0.28,0.28c-0.32,0.32-0.5,0.74-0.5,1.2c0,0.45,0.18,0.88,0.5,1.2l1.86,1.86
		c0.32,0.32,0.75,0.5,1.2,0.5c0.45,0,0.88-0.18,1.2-0.5l0.28-0.28c0.74,0.41,1.53,0.74,2.34,0.97v0.39c0,0.94,0.76,1.7,1.7,1.7h2.63
		c0.94,0,1.7-0.76,1.7-1.7v-0.39c0.81-0.23,1.6-0.56,2.34-0.97l0.28,0.28c0.32,0.32,0.75,0.5,1.2,0.5s0.88-0.18,1.2-0.5l1.86-1.86
		c0.32-0.32,0.5-0.75,0.5-1.2c0-0.45-0.18-0.88-0.5-1.2l-0.28-0.28c0.41-0.74,0.74-1.52,0.97-2.34h0.39c0.94,0,1.7-0.76,1.7-1.7
		v-2.63C41,16.04,40.24,15.28,39.3,15.28L39.3,15.28z M29.83,29.27c0,0.1-0.08,0.18-0.18,0.18h-2.63c-0.1,0-0.18-0.08-0.18-0.18
		v-5.75c0-0.32-0.2-0.6-0.49-0.71c-2.03-0.75-3.4-2.71-3.4-4.87c0-1.71,0.85-3.31,2.28-4.29c0.06-0.04,0.12-0.08,0.17-0.11
		c0,0.1-0.01,0.19-0.01,0.24c-0.01,0.08-0.01,0.14-0.01,0.2v3.57c0,1.64,1.28,3.01,2.92,3.12c0.03,0,0.07,0,0.1,0
		c1.63-0.11,2.91-1.48,2.91-3.12v-3.57c0-0.06,0-0.12-0.01-0.2c0-0.05-0.01-0.14-0.01-0.24c0.05,0.03,0.11,0.07,0.17,0.11
		c1.43,0.98,2.28,2.58,2.28,4.29c0,2.16-1.37,4.12-3.4,4.87c-0.3,0.11-0.49,0.39-0.49,0.71V29.27z M39.49,19.61
		c0,0.1-0.09,0.18-0.18,0.18h-0.98c-0.35,0-0.66,0.24-0.74,0.59c-0.24,1.06-0.65,2.06-1.23,2.98c-0.19,0.3-0.15,0.69,0.1,0.94
		l0.69,0.7c0.05,0.04,0.05,0.1,0.05,0.13c0,0.03-0.01,0.08-0.05,0.13l-1.86,1.86c-0.04,0.04-0.09,0.05-0.13,0.05
		c-0.03,0-0.08-0.01-0.13-0.05l-0.7-0.7c-0.25-0.25-0.64-0.29-0.94-0.1c-0.65,0.41-1.33,0.73-2.05,0.97v-3.27
		c2.35-1.09,3.89-3.47,3.89-6.08c0-2.21-1.1-4.28-2.94-5.54c-0.28-0.19-1.14-0.78-1.89-0.35c-0.74,0.42-0.66,1.42-0.63,1.84
		c0,0.04,0.01,0.07,0.01,0.09v3.57c0,0.83-0.63,1.52-1.45,1.6c-0.82-0.08-1.45-0.77-1.45-1.6l0-3.57c0-0.02,0-0.05,0.01-0.09
		c0.03-0.42,0.11-1.42-0.63-1.84c-0.75-0.43-1.61,0.15-1.89,0.35c-1.84,1.26-2.94,3.33-2.94,5.54c0,2.61,1.54,4.99,3.89,6.08v3.27
		c-0.72-0.24-1.41-0.57-2.05-0.97c-0.12-0.08-0.26-0.12-0.4-0.12c-0.2,0-0.39,0.08-0.54,0.22l-0.7,0.7
		c-0.04,0.04-0.09,0.05-0.13,0.05c-0.03,0-0.08-0.01-0.13-0.05l-1.86-1.86c-0.04-0.05-0.05-0.1-0.05-0.13s0.01-0.08,0.05-0.13
		l0.7-0.7c0.25-0.25,0.29-0.64,0.1-0.94c-0.58-0.92-1-1.92-1.23-2.97c-0.08-0.35-0.38-0.59-0.74-0.59h-0.98
		c-0.1,0-0.18-0.09-0.18-0.18v-2.63c0-0.1,0.08-0.18,0.18-0.18h0.98c0.35,0,0.66-0.25,0.74-0.59c0.24-1.05,0.65-2.05,1.23-2.97
		c0.19-0.3,0.15-0.69-0.1-0.94l-0.7-0.7c-0.04-0.04-0.05-0.1-0.05-0.13c0-0.03,0.01-0.08,0.05-0.13l1.86-1.86
		c0.04-0.04,0.09-0.05,0.13-0.05c0.03,0,0.08,0.01,0.13,0.05l0.7,0.69c0.25,0.25,0.64,0.29,0.94,0.1c0.92-0.58,1.92-1,2.98-1.24
		c0.35-0.08,0.59-0.38,0.59-0.74V7.32c0-0.1,0.08-0.18,0.18-0.18h2.63c0.1,0,0.18,0.08,0.18,0.18V8.3c0,0.35,0.25,0.66,0.59,0.74
		c1.06,0.24,2.06,0.65,2.98,1.24c0.3,0.19,0.69,0.15,0.94-0.1l0.7-0.7c0.04-0.04,0.09-0.05,0.13-0.05c0.03,0,0.08,0.01,0.13,0.05
		l1.86,1.86c0.05,0.05,0.05,0.1,0.05,0.13c0,0.03-0.01,0.08-0.05,0.13l-0.69,0.69c-0.25,0.25-0.29,0.64-0.1,0.94
		c0.58,0.92,0.99,1.92,1.23,2.98c0.08,0.34,0.38,0.59,0.74,0.59h0.98c0.1,0,0.18,0.08,0.18,0.18V19.61z M39.49,19.61"/>
	<path class="st0" d="M39.95,32.53c-0.75-1.22-2.34-1.61-3.7-0.92l-6.01,3.09c-0.51-0.53-1.22-0.86-2.01-0.86h-4.12
		c-0.23,0-0.29-0.02-0.29-0.02c-0.03-0.02-0.14-0.12-0.22-0.2l-0.04-0.04c-3.33-3.13-6.14-2.94-9.34-1.67
		c-0.52,0.2-0.53,0.2-1.05,0.23l-0.93,0c-0.27-0.8-1.02-1.38-1.91-1.38H7.31c-1.11,0-2.01,0.9-2.01,2.01v7.94
		c0,1.11,0.9,2.01,2.01,2.01h3.03c0.89,0,1.64-0.58,1.91-1.38h1.7c0.15,0,0.15,0,0.33,0.05c0.06,0.02,0.14,0.04,0.24,0.07l7.83,2.1
		c0.35,0.09,0.66,0.18,0.97,0.27c1,0.29,1.85,0.54,2.73,0.54c0.66,0,1.34-0.14,2.11-0.49c0.09-0.01,0.19-0.05,0.27-0.1
		c0.05-0.03,0.1-0.07,0.15-0.1c0.27-0.15,0.56-0.32,0.86-0.52c0.01,0,0.01-0.01,0.02-0.01l1.49-1.07c0.07-0.05,0.12-0.1,0.17-0.16
		c1.36-0.94,2.72-1.89,4.09-2.83c0.32-0.22,0.64-0.44,0.96-0.67c0.09-0.06,0.17-0.14,0.23-0.23c0.03-0.02,0.06-0.03,0.09-0.06
		l2.62-1.87C40.35,35.37,40.72,33.77,39.95,32.53z M10.83,40.72c0,0.27-0.23,0.49-0.5,0.49H7.31c-0.27,0-0.49-0.23-0.49-0.49v-7.94
		c0-0.27,0.22-0.5,0.49-0.5h3.03c0.27,0,0.5,0.23,0.5,0.5V40.72z M38.23,35.03l-2.62,1.87c-0.05,0.04-0.1,0.08-0.14,0.13
		c-0.03,0.01-0.06,0.03-0.08,0.05c-0.88,0.61-1.75,1.21-2.63,1.82c-1.39,0.96-2.77,1.92-4.16,2.88c-0.32,0.22-0.64,0.44-0.96,0.67
		c-0.02,0.01-0.04,0.03-0.05,0.04c-1.33,0.63-2.2,0.38-3.85-0.09c-0.31-0.09-0.64-0.18-1-0.28l-7.83-2.1
		c-0.09-0.02-0.16-0.04-0.22-0.06c-0.29-0.08-0.39-0.11-0.74-0.11h-1.6v-6.18h0.82c0.01,0,0.02,0,0.03,0l0.04,0
		c0.63-0.03,0.81-0.04,1.54-0.33c2.81-1.11,4.98-1.24,7.75,1.37l0.04,0.04c0.47,0.45,0.75,0.63,1.55,0.63h4.12
		c0.48,0,0.9,0.27,1.12,0.66c0,0,0.01,0.01,0.01,0.01c0.1,0.18,0.15,0.39,0.15,0.61c0,0.71-0.58,1.28-1.29,1.28h-6.67
		c-0.42,0-0.76,0.34-0.76,0.76s0.34,0.76,0.76,0.76h6.67c1.54,0,2.8-1.25,2.8-2.8c0-0.21-0.02-0.41-0.07-0.61l5.98-3.07
		c0.57-0.29,1.34-0.26,1.72,0.36C39,33.88,38.82,34.61,38.23,35.03z"/>
</g>
</svg>
