<svg id="Capa_2" data-name="Capa 2" xmlns="http://www.w3.org/2000/svg" viewBox="0 0 354 32"><defs><style>.cls-1{fill:#70d44b;}.cls-2{fill:#ff9015;}</style></defs><path class="cls-1" d="M2.5,29.32a.74.74,0,0,1-.57-.27.72.72,0,0,1-.17-.61L6.19,3.37a.76.76,0,0,1,.74-.62H25.14a.74.74,0,0,1,.57.27.75.75,0,0,1,.16.61l-.79,4.44a.76.76,0,0,1-.74.61H12.43L11.68,13H22.16a.74.74,0,0,1,.57.27.81.81,0,0,1,.17.62l-.8,4.43a.76.76,0,0,1-.74.62H10.61L8.91,28.7a.76.76,0,0,1-.74.62Z"/><path class="cls-2" d="M25.14,3.5l-.8,4.43H11.8l-1,5.85H22.16l-.8,4.44H10L8.17,28.57H2.5L6.93,3.5H25.14m-3,10.28h0M25.14,2H6.93A1.48,1.48,0,0,0,5.46,3.24L1,28.31a1.55,1.55,0,0,0,.33,1.23,1.51,1.51,0,0,0,1.15.53H8.17a1.5,1.5,0,0,0,1.48-1.24l1.59-9.11H21.36a1.49,1.49,0,0,0,1.47-1.24l.79-4.34a2.09,2.09,0,0,0,0-.36,1.5,1.5,0,0,0-1.5-1.5H12.57l.49-2.85H24.34A1.5,1.5,0,0,0,25.81,8.2l.8-4.43A1.5,1.5,0,0,0,25.14,2Zm0,3Z"/><path class="cls-1" d="M38.62,29.32a.75.75,0,0,1-.75-.64,45.14,45.14,0,0,1-.29-6c0-3.07-1.31-3.15-1.74-3.18-.65,0-1.25,0-1.91,0h-1.7L30.6,28.7a.75.75,0,0,1-.74.62H24.19a.74.74,0,0,1-.57-.27.79.79,0,0,1-.17-.61L27.89,3.37a.74.74,0,0,1,.74-.62h9.52A30.08,30.08,0,0,1,42,2.94c4,.46,6.3,2.72,6.3,6.19a7.85,7.85,0,0,1-5.39,7.67c1.55,1.41,1.9,3.84,1.9,7.12a10.65,10.65,0,0,0,.7,4.34.77.77,0,0,1-.06.72.74.74,0,0,1-.63.34ZM35.44,13.8c.73,0,1.27,0,1.78,0,2.21-.19,3.34-1.27,3.34-3.21,0-.84-.25-1.63-2-1.8-.48,0-1.08-.07-1.86-.07H34.12l-.89,5.12Z"/><path class="cls-2" d="M38.14,3.5a31.21,31.21,0,0,1,3.75.18c3.12.37,5.63,2,5.63,5.45,0,4-2.4,6.43-6.43,7.45,2.21.84,2.94,2.91,2.94,7.34a11.59,11.59,0,0,0,.76,4.65H38.62a43.24,43.24,0,0,1-.29-5.88c0-2.37-.77-3.82-2.44-3.93-.69,0-1.31,0-2,0H31.6l-1.74,9.85H24.19L28.62,3.5h9.52M32.33,14.55h3c.8,0,1.38,0,1.92,0,2.11-.18,4-1.2,4-4,0-1.74-1.13-2.4-2.69-2.54-.51,0-1.13-.08-1.93-.08h-3.2l-1.16,6.62M38.14,2H28.62a1.49,1.49,0,0,0-1.47,1.24L22.72,28.31a1.48,1.48,0,0,0,1.47,1.76h5.67a1.5,1.5,0,0,0,1.48-1.24l1.52-8.61h1c.68,0,1.27,0,1.92,0s1,.86,1,2.43a44.58,44.58,0,0,0,.3,6.09,1.51,1.51,0,0,0,1.49,1.29h6.17A1.5,1.5,0,0,0,46.16,28a10.12,10.12,0,0,1-.63-4c0-2.88-.29-5.23-1.42-6.85A8.39,8.39,0,0,0,49,9.13c0-3.84-2.6-6.43-7-6.94A31.77,31.77,0,0,0,38.14,2ZM34.75,9.43h1.94c.76,0,1.34,0,1.82.07,1.3.12,1.3.55,1.3,1.05,0,.67,0,2.24-2.67,2.47-.46,0-1,0-1.79,0H34.12l.63-3.62Z"/><path class="cls-1" d="M48,29.32a.74.74,0,0,1-.57-.27.79.79,0,0,1-.17-.61L51.69,3.37a.74.74,0,0,1,.74-.62h18.2A.74.74,0,0,1,71.2,3a.73.73,0,0,1,.17.61l-.8,4.44a.76.76,0,0,1-.74.61H57.93L57.17,13H68a.75.75,0,0,1,.58.27.77.77,0,0,1,.16.62L68,18.35a.74.74,0,0,1-.74.62H56.11l-.76,4.38h12a.76.76,0,0,1,.74.89l-.8,4.46a.76.76,0,0,1-.74.62Z"/><path class="cls-2" d="M70.63,3.5l-.8,4.43H57.29l-1,5.85H68l-.8,4.44H55.48l-1,5.88h12.9l-.8,4.47H48L52.43,3.5h18.2M68,13.78h0M67.36,24.1h0M70.63,2H52.43A1.49,1.49,0,0,0,51,3.24L46.52,28.31A1.48,1.48,0,0,0,48,30.07H66.56A1.5,1.5,0,0,0,68,28.84l.78-4.39a1.34,1.34,0,0,0,0-.35,1.5,1.5,0,0,0-1.5-1.5H56.24l.5-2.88H67.21a1.5,1.5,0,0,0,1.48-1.24l.78-4.34a1.42,1.42,0,0,0,0-.36,1.5,1.5,0,0,0-1.5-1.5h-10l.5-2.85H69.83A1.5,1.5,0,0,0,71.31,8.2l.8-4.43a1.55,1.55,0,0,0-.33-1.23A1.52,1.52,0,0,0,70.63,2Zm0,3Z"/><path class="cls-1" d="M70.48,29.32a.75.75,0,0,1-.73-.88L74.18,3.37a.74.74,0,0,1,.74-.62h18.2A.78.78,0,0,1,93.7,3a.75.75,0,0,1,.16.61l-.8,4.44a.75.75,0,0,1-.74.61H80.42L79.66,13H90.5a.75.75,0,0,1,.58.27.77.77,0,0,1,.16.62l-.8,4.43a.74.74,0,0,1-.73.62H78.6l-.76,4.38h12a.78.78,0,0,1,.58.27.77.77,0,0,1,.16.62l-.8,4.46a.75.75,0,0,1-.74.62Z"/><path class="cls-2" d="M93.12,3.5l-.8,4.43H79.79l-1,5.85H90.5l-.79,4.44H78L77,24.1h12.9l-.8,4.47H70.48L74.92,3.5h18.2M90.5,13.78h0M89.85,24.1h0M93.12,2H74.92a1.5,1.5,0,0,0-1.48,1.24L69,28.31a1.5,1.5,0,0,0,1.47,1.76H89.05a1.5,1.5,0,0,0,1.48-1.23l.78-4.39a1.34,1.34,0,0,0,0-.35,1.5,1.5,0,0,0-1.49-1.5H78.73l.5-2.88H89.71a1.5,1.5,0,0,0,1.47-1.24L92,14.14a2.09,2.09,0,0,0,0-.36,1.5,1.5,0,0,0-1.5-1.5h-10l.5-2.85H92.32A1.5,1.5,0,0,0,93.8,8.2l.8-4.43A1.51,1.51,0,0,0,93.12,2Zm0,3h0Z"/><path class="cls-1" d="M93,29.32a.75.75,0,0,1-.74-.88L96.67,3.37a.75.75,0,0,1,.74-.62h5.67a.74.74,0,0,1,.57.27.79.79,0,0,1,.17.61L100.38,23h12a.73.73,0,0,1,.57.26.78.78,0,0,1,.16.62l-.87,4.8a.74.74,0,0,1-.74.61Z"/><path class="cls-2" d="M103.08,3.5h0m0,0-3.6,20.28h12.94l-.88,4.79H93L97.41,3.5h5.67m0-1.5H97.41a1.5,1.5,0,0,0-1.48,1.24L91.5,28.31A1.5,1.5,0,0,0,93,30.07h18.56A1.5,1.5,0,0,0,113,28.84l.87-4.8a1.53,1.53,0,0,0-.32-1.23,1.51,1.51,0,0,0-1.15-.53H101.27l3.27-18.43a1.34,1.34,0,0,0,0-.35,1.5,1.5,0,0,0-1.5-1.5Zm0,3Z"/><path class="cls-1" d="M131.56,29.32a.75.75,0,0,1-.74-.64l-.92-6.44h-7.17l-3.32,6.67a.76.76,0,0,1-.67.41h-6.11A.76.76,0,0,1,112,29a.78.78,0,0,1,0-.74l13.3-25.07a.74.74,0,0,1,.66-.4h7.45a.74.74,0,0,1,.74.62l4.36,25.07a.74.74,0,0,1-.16.61.78.78,0,0,1-.58.27Zm-2.57-13-.73-5.13-2.57,5.13Z"/><path class="cls-2" d="M133.38,3.5l4.36,25.07h-6.18l-1-7.08h-8.29l-3.52,7.08h-6.11L125.93,3.5h7.45M124.48,17h5.38l-1.2-8.36L124.48,17m8.9-15h-7.45a1.5,1.5,0,0,0-1.32.8l-13.3,25.07a1.5,1.5,0,0,0,1.32,2.2h6.11a1.49,1.49,0,0,0,1.34-.83L123.19,23h6.06l.83,5.8a1.5,1.5,0,0,0,1.48,1.28h6.18a1.5,1.5,0,0,0,1.48-1.76L134.86,3.24A1.51,1.51,0,0,0,133.38,2Zm-6.47,13.52.94-1.9.28,1.9Z"/><path class="cls-1" d="M155.47,29.32a.76.76,0,0,1-.7-.49l-5.51-15.3L146.58,28.7a.74.74,0,0,1-.73.62h-5.67a.76.76,0,0,1-.58-.27.74.74,0,0,1-.16-.61l4.43-25.07a.75.75,0,0,1,.74-.62h7.3a.76.76,0,0,1,.71.5l5.69,15.83,2.75-15.71a.74.74,0,0,1,.74-.62h5.7a.78.78,0,0,1,.58.27.74.74,0,0,1,.16.61L163.81,28.7a.76.76,0,0,1-.74.62Z"/><path class="cls-2" d="M167.5,3.5l-4.43,25.07h-7.6l-6.46-18-3.16,18h-5.67L144.61,3.5h7.3L158.56,22,161.8,3.5h5.7m0-1.5h-5.7a1.49,1.49,0,0,0-1.48,1.24l-2.26,12.92L153.32,3a1.49,1.49,0,0,0-1.41-1h-7.3a1.5,1.5,0,0,0-1.48,1.24L138.7,28.31a1.5,1.5,0,0,0,1.48,1.76h5.67a1.49,1.49,0,0,0,1.47-1.24l2.19-12.4,4.55,12.65a1.5,1.5,0,0,0,1.41,1h7.6a1.48,1.48,0,0,0,1.47-1.24L169,3.76a1.47,1.47,0,0,0-.33-1.22A1.5,1.5,0,0,0,167.5,2Zm0,3h0Z"/><path class="cls-1" d="M179.56,29.83a11.06,11.06,0,0,1-8.07-3,11.16,11.16,0,0,1-2.92-8.15,16.84,16.84,0,0,1,4.65-12.14,14.81,14.81,0,0,1,10.6-4.34c3.72,0,6.67,1.06,8.52,3.05a8.3,8.3,0,0,1,2.07,6.44l0,.38a.75.75,0,0,1-.74.68H188a.75.75,0,0,1-.75-.75v-.36C187.15,9.07,186,8,183.23,8c-4.2,0-7.13,4.25-7.13,10.33,0,2.66.72,5.83,4.15,5.83,2.52,0,4.34-1.44,5.41-4.28l.15-.38a.75.75,0,0,1,.69-.47h5.67a.72.72,0,0,1,.6.31.71.71,0,0,1,.12.66l-.11.36C191.1,26.36,186.28,29.83,179.56,29.83Z"/><path class="cls-2" d="M183.82,3c6.94,0,10.21,3.74,9.84,8.69l0,.36H188v-.36c-.08-3.09-1.67-4.47-4.73-4.47-4.39,0-7.88,4.18-7.88,11.08,0,4.69,2.11,6.58,4.9,6.58,2.95,0,5-1.79,6.11-4.76l.14-.37h5.67l-.11.37c-1.6,5.74-6.1,9-12.5,9-6.25,0-10.28-3.71-10.24-10.36,0-9.55,6.57-15.73,14.5-15.73m8.35,16.75h0M183.82,1.49a15.6,15.6,0,0,0-11.14,4.56,17.65,17.65,0,0,0-4.86,12.68A11.85,11.85,0,0,0,171,27.39a11.77,11.77,0,0,0,8.6,3.19c7.08,0,12.17-3.67,13.95-10.07l.07-.25a1.48,1.48,0,0,0-1.4-2H186.5a1.51,1.51,0,0,0-1.39.94l-.14.37c-1,2.54-2.55,3.82-4.72,3.82s-3.4-1.71-3.4-5.08c0-5.64,2.63-9.58,6.38-9.58,2.3,0,3.18.81,3.23,3V12a1.5,1.5,0,0,0,1.5,1.5h5.67a1.51,1.51,0,0,0,1.49-1.35l0-.37a9,9,0,0,0-2.26-7c-2-2.15-5.13-3.29-9.07-3.29Z"/><path class="cls-1" d="M195.55,29.32a.74.74,0,0,1-.57-.27.79.79,0,0,1-.17-.61l4.44-25.07a.74.74,0,0,1,.74-.62h18.2a.74.74,0,0,1,.57.27.73.73,0,0,1,.17.61l-.8,4.44a.76.76,0,0,1-.74.61H205.48L204.73,13h10.84a.78.78,0,0,1,.58.27.77.77,0,0,1,.16.62l-.8,4.43a.74.74,0,0,1-.74.62h-11.1l-.76,4.38h12a.74.74,0,0,1,.57.27.73.73,0,0,1,.17.61l-.8,4.47a.76.76,0,0,1-.74.62Z"/><path class="cls-2" d="M218.19,3.5l-.8,4.43H204.85l-1,5.85h11.73l-.8,4.44H203l-1,5.88h12.9l-.8,4.47H195.55L200,3.5h18.2m-2.62,10.28h0m-.66,10.32h0M218.19,2H200a1.49,1.49,0,0,0-1.48,1.24l-4.43,25.07a1.48,1.48,0,0,0,1.47,1.76h18.57a1.5,1.5,0,0,0,1.48-1.23l.78-4.39a1.34,1.34,0,0,0,0-.35,1.5,1.5,0,0,0-1.5-1.5H203.8l.5-2.88h10.47a1.5,1.5,0,0,0,1.48-1.24l.78-4.34a1.42,1.42,0,0,0,0-.36,1.5,1.5,0,0,0-1.49-1.5h-10l.5-2.85h11.27a1.51,1.51,0,0,0,1.48-1.23l.8-4.43a1.55,1.55,0,0,0-.33-1.23A1.52,1.52,0,0,0,218.19,2Zm0,3Z"/><path class="cls-2" d="M217.71,29.32a.78.78,0,0,1-.58-.27.74.74,0,0,1-.16-.61l.48-2.58a.74.74,0,0,1,.26-.45l9.59-7.88c4.64-3.79,6-5.52,6-7.71,0-1.32-.64-1.94-2-1.94s-2.74.44-3.59,3.7l-.12.38a.75.75,0,0,1-.72.54h-5.67a.78.78,0,0,1-.58-.27.76.76,0,0,1-.15-.63l.07-.36c1.64-6.12,5.56-9.07,12-9.07,5.25,0,8.38,2.56,8.38,6.85,0,3.67-1.95,6.4-8.34,11.7l-3.16,2.63h7.92a.74.74,0,0,1,.57.27.77.77,0,0,1,.16.62l-.8,4.46a.74.74,0,0,1-.73.62Z"/><path class="cls-1" d="M232.5,2.92c5,0,7.63,2.4,7.63,6.1,0,3.27-1.71,5.85-8.07,11.12l-4.76,4h10l-.8,4.47H217.71l.47-2.58,9.6-7.88c4.57-3.74,6.25-5.71,6.25-8.29a2.46,2.46,0,0,0-2.77-2.69c-2.21,0-3.56,1.35-4.32,4.26l-.11.36h-5.67l.08-.36c1.49-5.56,4.94-8.47,11.26-8.47m0-1.5c-6.83,0-11,3.13-12.71,9.58l0,.09-.07.37a1.5,1.5,0,0,0,1.47,1.79h5.67a1.51,1.51,0,0,0,1.44-1.07l.11-.36v-.05c.76-2.89,1.88-3.14,2.87-3.14s1.27.39,1.27,1.19c0,1.89-1.34,3.56-5.7,7.13l-9.6,7.88a1.51,1.51,0,0,0-.52.89l-.47,2.58a1.48,1.48,0,0,0,.32,1.23,1.5,1.5,0,0,0,1.15.54H236.5A1.49,1.49,0,0,0,238,28.84l.8-4.47a1.5,1.5,0,0,0-1.47-1.77h-5.85L233,21.29c6.52-5.39,8.61-8.38,8.61-12.27,0-4.69-3.5-7.6-9.13-7.6Z"/><path class="cls-2" d="M250.74,29.83c-5.69,0-9-3.44-9-9.43,0-10.69,5.82-18.16,14.16-18.16,2.88,0,5.07.78,6.51,2.3a7.38,7.38,0,0,1,1.76,5.62l0,.39a.75.75,0,0,1-.75.68h-5.74a.76.76,0,0,1-.75-.75v-.37C256.77,8.33,256,8,254.85,8c-2.15,0-3.51,2-4.37,4.32a8.19,8.19,0,0,1,4.8-1.28C260,11,263,13.82,263,18.36,263,25.81,256.67,29.83,250.74,29.83Zm2.11-13.12c-1.89,0-3.9,1.61-3.9,4.59,0,.85.23,2.82,2.41,2.82,2.56,0,3.93-2.37,3.93-4.6C255.29,18.24,254.87,16.71,252.85,16.71Z"/><path class="cls-1" d="M255.94,3c5.26,0,7.77,2.76,7.52,7.12l0,.37h-5.74v-.37c-.18-2-1.05-2.9-2.83-2.9-2.77,0-4.91,2.61-6,8.25l1.71-2.33a7.48,7.48,0,0,1,4.72-1.38c4.8,0,6.94,2.91,6.94,6.61,0,6.8-5.74,10.72-11.48,10.72-5.3,0-8.21-3.12-8.21-8.68,0-10.76,6-17.41,13.41-17.41m-4.58,21.88c2.83,0,4.69-2.47,4.69-5.35,0-2.1-1.06-3.56-3.2-3.56-2.36,0-4.65,2-4.65,5.34,0,2.11,1.12,3.57,3.16,3.57m4.58-23.38C247.16,1.49,241,9.27,241,20.4c0,6.37,3.63,10.18,9.71,10.18,6.29,0,13-4.28,13-12.22A7.76,7.76,0,0,0,260.93,12h2.49a1.5,1.5,0,0,0,1.49-1.35l0-.37a.13.13,0,0,1,0-.06A8.07,8.07,0,0,0,263,4c-1.58-1.69-4-2.54-7.05-2.54ZM252,10.71a3.4,3.4,0,0,1,2.81-2c.75,0,1.19.07,1.33,1.48v.09q-.44,0-.9,0a10.06,10.06,0,0,0-3.24.46Zm-.68,12.66c-1.1,0-1.66-.7-1.66-2.07,0-2.49,1.62-3.84,3.15-3.84.51,0,1.7,0,1.7,2.06s-1.1,3.85-3.19,3.85Z"/><path class="cls-1" d="M267.09,29.83a3.28,3.28,0,0,1-3.51-3.33,4.54,4.54,0,0,1,4.71-4.78,3.27,3.27,0,0,1,3.51,3.33A4.54,4.54,0,0,1,267.09,29.83Z"/><path class="cls-2" d="M268.29,22.47a2.53,2.53,0,0,1,2.76,2.58,3.79,3.79,0,0,1-4,4,2.53,2.53,0,0,1-2.76-2.58,3.8,3.8,0,0,1,4-4m0-1.5a5.31,5.31,0,0,0-5.46,5.53,4,4,0,0,0,4.26,4.08,5.31,5.31,0,0,0,5.46-5.53A4,4,0,0,0,268.29,21Z"/><path class="cls-1" d="M283.92,29.83c-5.89,0-9.4-3.32-9.4-8.89,0-7.46,5.25-12.88,12.48-12.88,5.68,0,9.08,3.14,9.08,8.41a.75.75,0,0,1-.75.75h-5.56a.75.75,0,0,1-.75-.74c0-2.69-1.44-3-2.49-3-2.94,0-4.48,3.77-4.48,7.5,0,2.14.87,3.43,2.34,3.43a3.9,3.9,0,0,0,3.72-3,.76.76,0,0,1,.71-.5h5.67a.75.75,0,0,1,.7,1C293.28,27.18,289.49,29.83,283.92,29.83Z"/><path class="cls-2" d="M287,8.81c5.78,0,8.33,3.23,8.33,7.66h-5.56c0-2.54-1.24-3.74-3.24-3.74-3.23,0-5.23,3.78-5.23,8.25,0,2.76,1.34,4.18,3.09,4.18,2.07,0,3.63-1.2,4.43-3.46h5.67c-1.78,4.87-5.2,7.38-10.57,7.38-5,0-8.65-2.51-8.65-8.14,0-6.72,4.58-12.13,11.73-12.13m7.49,12.89h0M287,7.31c-7.67,0-13.23,5.73-13.23,13.63,0,6,3.79,9.64,10.15,9.64,5.89,0,9.91-2.78,11.95-8.28a1.46,1.46,0,0,0,.12-.6,1.5,1.5,0,0,0-1.5-1.5h-5.67a1.5,1.5,0,0,0-1.41,1c-.59,1.65-1.58,2.46-3,2.46S282.8,21.78,282.8,21c0-3.27,1.31-6.75,3.73-6.75.64,0,1.7,0,1.74,2.26a1.5,1.5,0,0,0,1.5,1.48h5.56a1.5,1.5,0,0,0,1.5-1.5c0-5.74-3.68-9.16-9.83-9.16Z"/><path class="cls-1" d="M305.9,29.83c-6.16,0-10-3.59-10-9.36,0-6,3.94-12.52,12.59-12.52,6.14,0,9.95,3.58,9.95,9.36C318.46,23.34,314.53,29.83,305.9,29.83ZM308,13.37c-3,0-4.59,3.5-4.59,7,0,1.23.28,4.09,2.88,4.09,3.16,0,4.6-3.63,4.6-7C310.93,15.91,310.55,13.37,308,13.37Z"/><path class="cls-2" d="M308.52,8.7c6.17,0,9.19,3.67,9.19,8.61,0,6-3.89,11.77-11.81,11.77-6.21,0-9.23-3.67-9.23-8.61,0-6,3.89-11.77,11.85-11.77m-2.18,16.46c3.56,0,5.34-3.89,5.34-7.74,0-2.73-1.13-4.8-3.64-4.8-3.52,0-5.34,3.85-5.34,7.7,0,2.76,1.16,4.84,3.64,4.84m2.18-18c-9.17,0-13.35,6.88-13.35,13.27s4.11,10.11,10.73,10.11c9.14,0,13.31-6.88,13.31-13.27,0-6.24-4.1-10.11-10.69-10.11Zm-2.18,16.46c-1.77,0-2.14-1.82-2.14-3.34,0-3.08,1.32-6.2,3.84-6.2,1.77,0,2.14,1.79,2.14,3.3,0,2.51-1,6.24-3.84,6.24Z"/><path class="cls-1" d="M343.32,29.32a.75.75,0,0,1-.73-.88l1.78-10a22.58,22.58,0,0,0,.35-3.14c0-1.94-1.22-1.94-1.61-1.94-1.58,0-3.1,2.06-3.7,5l0,.23L337.6,28.7a.76.76,0,0,1-.74.62h-5.67a.78.78,0,0,1-.58-.27.74.74,0,0,1-.16-.61l1.74-10,0-.26a23.07,23.07,0,0,0,.32-2.88c0-1.71-.89-1.94-1.76-1.94-1.55,0-3,2.05-3.54,5.1v0a.62.62,0,0,1,0,.13L325.46,28.7a.75.75,0,0,1-.74.62H319a.78.78,0,0,1-.58-.27.74.74,0,0,1-.16-.61l3.41-19.36a.76.76,0,0,1,.74-.62h5.67a.75.75,0,0,1,.74.87l0,.11.1-.11a.65.65,0,0,1,.18-.15A8.92,8.92,0,0,1,333.84,8c2.64,0,4.65,1,5.61,2.84l1.1-1.25a.65.65,0,0,1,.12-.11A8,8,0,0,1,345.72,8c4.82,0,6.53,2.84,6.53,5.51a21.47,21.47,0,0,1-.48,3.8l-2,11.44a.75.75,0,0,1-.74.62Z"/><path class="cls-2" d="M345.72,8.7c4,0,5.78,2.14,5.78,4.76a21.15,21.15,0,0,1-.47,3.67l-2,11.44h-5.71l1.79-10a23.26,23.26,0,0,0,.36-3.27c0-1.71-.84-2.69-2.36-2.69-2,0-3.75,2.22-4.44,5.6l0,.29-1.78,10.06h-5.67l1.74-10a26.12,26.12,0,0,0,.37-3.27c0-1.71-.8-2.69-2.51-2.69-1.93,0-3.63,2.18-4.29,5.78v.11l-1.78,10.06H319l3.41-19.36h5.67l-.47,2.72,1.85-2.11a8.16,8.16,0,0,1,4.36-1.12c3.13,0,4.87,1.49,5.34,3.52L341.11,10a7.26,7.26,0,0,1,4.61-1.34m-17.62.51h0m17.61-2a8.75,8.75,0,0,0-5.49,1.63,1.71,1.71,0,0,0-.25.22l-.44.51a7,7,0,0,0-5.7-2.36,9.66,9.66,0,0,0-4.59,1,1.46,1.46,0,0,0-1.14-.53h-5.68A1.5,1.5,0,0,0,321,9l-3.41,19.36A1.5,1.5,0,0,0,319,30.07h5.7a1.5,1.5,0,0,0,1.48-1.24L328,18.77a1.79,1.79,0,0,0,0-.23c.56-2.9,1.82-4.42,2.79-4.42.62,0,1,.06,1,1.19a21.63,21.63,0,0,1-.31,2.76l0,.29-1.74,10a1.5,1.5,0,0,0,1.48,1.76h5.67a1.48,1.48,0,0,0,1.47-1.24l1.79-10.06a.22.22,0,0,1,0-.08l0-.23c.6-2.82,2-4.34,3-4.34.4,0,.86,0,.86,1.19a21.87,21.87,0,0,1-.35,3l-1.77,10a1.48,1.48,0,0,0,1.47,1.76H349a1.5,1.5,0,0,0,1.48-1.24l2-11.45a22.44,22.44,0,0,0,.49-3.92c0-2.89-1.91-6.26-7.28-6.26Z"/></svg>