<svg id="Capa_2" data-name="Capa 2" xmlns="http://www.w3.org/2000/svg" viewBox="0 0 350 32"><defs><style>.cls-1{fill:#70d44b;}.cls-2{fill:#ff9015;}</style></defs><path class="cls-1" d="M8.83,13.78H20.2l-.8,4.44H8L6.21,28.57H.54L5,3.5H23.18l-.8,4.43H9.84Z"/><path class="cls-2" d="M6.59,29H0l4.59-26H23.72l-1,5.34H10.23l-.86,4.94H20.74l-1,5.34H8.41Zm-5.51-.91H5.83L7.65,17.76H19l.64-3.52H8.29L9.46,7.48H22L22.63,4H5.36Z"/><path class="cls-1" d="M39.13,16.58c2.22.84,2.94,2.91,2.94,7.34a11.39,11.39,0,0,0,.77,4.65H36.66a43.24,43.24,0,0,1-.29-5.88c0-2.37-.76-3.82-2.44-3.93-.69,0-1.3,0-2,0H29.65L27.9,28.57H22.23L26.67,3.5h9.52a31,31,0,0,1,3.74.18c3.12.37,5.63,2,5.63,5.45C45.56,13.09,43.16,15.56,39.13,16.58Zm.22-6c0-1.74-1.13-2.4-2.69-2.54-.51,0-1.13-.08-1.93-.08H31.54l-1.17,6.62h3c.8,0,1.38,0,1.92,0C37.42,14.33,39.35,13.31,39.35,10.55Z"/><path class="cls-2" d="M43.54,29H36.27l-.06-.39a45.76,45.76,0,0,1-.3-5.95c0-2.22-.67-3.39-2-3.48-.67,0-1.28,0-2,0H30L28.28,29H21.69l4.6-26h9.9A31.56,31.56,0,0,1,40,3.23c3.84.45,6,2.6,6,5.9,0,3.7-2,6.3-5.69,7.57,1.8,1.28,2.2,3.76,2.2,7.22a11,11,0,0,0,.72,4.47Zm-6.48-.91h5.11a13.41,13.41,0,0,1-.55-4.2c0-4.37-.69-6.18-2.65-6.91l-1.36-.51L39,16.14c2.78-.7,6.09-2.48,6.09-7,0-3.63-2.85-4.72-5.23-5A29.91,29.91,0,0,0,36.19,4H27.05L22.78,28.12h4.74l1.75-9.85h2.67c.69,0,1.32,0,2,0,1.31.08,2.86.91,2.86,4.38A48.36,48.36,0,0,0,37.06,28.12ZM33.39,15H29.83l1.32-7.52h3.58c.82,0,1.44,0,2,.07q3.11.3,3.11,3c0,2.6-1.58,4.17-4.45,4.41C34.79,15,34.2,15,33.39,15Zm-2.48-.91h2.48a18.39,18.39,0,0,0,1.89,0c1.65-.14,3.61-.87,3.61-3.51,0-1.3-.7-1.94-2.27-2.09-.49,0-1.1-.07-1.89-.07H31.92Z"/><path class="cls-1" d="M54.32,13.78H66.06l-.8,4.44H53.52l-1,5.88H65.4l-.8,4.47H46L50.47,3.5h18.2l-.8,4.43H55.34Z"/><path class="cls-2" d="M65,29H45.49l4.6-26H69.21l-1,5.34H55.72l-.86,4.94H66.6l-1,5.34H53.9l-.86,5h12.9Zm-18.4-.91H64.22l.64-3.56H52l1.18-6.8H64.88l.63-3.52H53.78L55,7.48H67.49L68.13,4H50.85Z"/><path class="cls-1" d="M76.81,13.78H88.55l-.8,4.44H76L75,24.1h12.9l-.8,4.47H68.53L73,3.5h18.2l-.8,4.43H77.83Z"/><path class="cls-2" d="M87.47,29H68l4.59-26H91.71l-1,5.34H78.21l-.86,4.94H89.09l-1,5.34H76.39l-.86,5H88.44Zm-18.4-.91H86.71l.64-3.56H74.46l1.17-6.8H87.37L88,14.24H76.27l1.18-6.76H90L90.62,4H73.34Z"/><path class="cls-1" d="M109.59,28.57H91L95.45,3.5h5.67l-3.6,20.28h12.94Z"/><path class="cls-2" d="M110,29H90.48l4.59-26h6.59l-3.6,20.27H111Zm-18.41-.91h17.65l.7-3.89H97L100.58,4H95.83Z"/><path class="cls-1" d="M120.31,21.49l-3.53,7.08h-6.1L124,3.5h7.44l4.36,25.07h-6.17l-1-7.08ZM126.7,8.66,122.52,17h5.38Z"/><path class="cls-2" d="M136.32,29h-7.11l-1-7.09h-7.61L117.06,29h-7.14l13.78-26h8.11ZM130,28.12h5.24L131,4h-6.79L111.43,28.12h5.07L120,21h9Zm-1.58-10.65h-6.63l5.15-10.31Zm-5.16-.91h4.12l-.92-6.4Z"/><path class="cls-1" d="M161.11,28.57h-7.59l-6.47-18-3.16,18h-5.67L142.65,3.5H150L156.61,22l3.23-18.5h5.7Z"/><path class="cls-2" d="M161.49,29H153.2l-6-16.65L144.27,29h-6.59l4.59-26h8l6.17,17.18,3-17.18h6.63Zm-7.65-.91h6.89L165,4h-4.78l-3.46,19.81L149.64,4H143l-4.27,24.17h4.75L146.9,8.86Z"/><path class="cls-1" d="M191.71,11.68l0,.36H186v-.36c-.07-3.09-1.67-4.47-4.72-4.47-4.4,0-7.89,4.18-7.89,11.08,0,4.69,2.11,6.58,4.91,6.58s5-1.79,6.1-4.76l.15-.37h5.67l-.11.37c-1.6,5.74-6.11,9-12.5,9s-10.28-3.71-10.25-10.36c0-9.55,6.58-15.73,14.5-15.73C188.8,3,192.07,6.73,191.71,11.68Z"/><path class="cls-2" d="M177.61,29.53a10.78,10.78,0,0,1-7.86-2.87,10.84,10.84,0,0,1-2.84-7.94,16.58,16.58,0,0,1,4.56-11.93,14.54,14.54,0,0,1,10.39-4.25c3.64,0,6.51,1,8.31,3a8,8,0,0,1,2,6.22l-.08.78h-6.53v-.81c-.07-2.78-1.38-4-4.27-4-4.38,0-7.43,4.37-7.43,10.63,0,4,1.54,6.12,4.45,6.12,3.3,0,4.91-2.43,5.68-4.46l.26-.66h6.59l-.29.95C188.9,26.14,184.18,29.53,177.61,29.53Zm4.25-26.08a13.63,13.63,0,0,0-9.75,4,15.67,15.67,0,0,0-4.29,11.29,10,10,0,0,0,2.57,7.3,9.93,9.93,0,0,0,7.22,2.61c6.14,0,10.4-3,12-8.43h-4.75l0,.08c-1.24,3.29-3.5,5-6.52,5-3.41,0-5.36-2.56-5.36-7,0-6.79,3.43-11.54,8.34-11.54,3.33,0,5.07,1.63,5.17,4.84h4.81a7.09,7.09,0,0,0-1.76-5.48C187.89,4.37,185.24,3.45,181.86,3.45Z"/><path class="cls-1" d="M201.88,13.78h11.74l-.8,4.44H201.08l-1,5.88H213l-.8,4.47H193.6L198,3.5h18.2l-.8,4.43H202.9Z"/><path class="cls-2" d="M212.54,29H193.06l4.59-26h19.13l-1,5.34H203.28l-.86,4.94h11.74l-1,5.34H201.46l-.86,5h12.91Zm-18.4-.91h17.64l.64-3.56H199.53l1.17-6.8h11.74l.63-3.52H201.34l1.18-6.76h12.53L215.69,4H198.41Z"/><path class="cls-2" d="M235.34,24.1l-.8,4.47H215.76l.47-2.58,9.59-7.88c4.58-3.74,6.25-5.71,6.25-8.29a2.46,2.46,0,0,0-2.76-2.69c-2.22,0-3.56,1.35-4.33,4.26l-.1.36h-5.67l.07-.36c1.49-5.56,4.94-8.47,11.26-8.47,5,0,7.63,2.4,7.63,6.1,0,3.27-1.7,5.85-8.06,11.12l-4.76,4Z"/><path class="cls-1" d="M234.92,29H215.21l.6-3.28,9.72-8c4.72-3.86,6.09-5.64,6.09-7.94a2,2,0,0,0-2.31-2.23c-2,0-3.18,1.21-3.89,3.91l-.21.7h-6.56l.18-.9c1.6-6,5.43-8.83,11.71-8.83,5.07,0,8.09,2.45,8.09,6.55,0,3.57-1.92,6.25-8.23,11.47l-3.8,3.16h9.28Zm-18.62-.91h17.86l.64-3.56H224.09l5.73-4.77c6.05-5,7.9-7.53,7.9-10.77,0-3.59-2.61-5.65-7.18-5.65-5.82,0-9.25,2.52-10.76,7.92l4.77,0c.82-3.12,2.33-4.58,4.76-4.58a2.89,2.89,0,0,1,3.21,3.14c0,2.9-2,5-6.41,8.64l-9.47,7.78Z"/><path class="cls-2" d="M261.5,10.11l0,.37h-5.74v-.37c-.19-2-1.06-2.9-2.84-2.9-2.76,0-4.9,2.61-6,8.25l1.7-2.33a7.53,7.53,0,0,1,4.73-1.38c4.79,0,6.94,2.91,6.94,6.61,0,6.8-5.74,10.72-11.49,10.72-5.3,0-8.21-3.12-8.21-8.68C240.57,9.64,246.53,3,254,3,259.25,3,261.76,5.75,261.5,10.11ZM246.24,21.3c0,2.11,1.13,3.57,3.16,3.57,2.84,0,4.69-2.47,4.69-5.35,0-2.1-1.05-3.56-3.2-3.56C248.53,16,246.24,18,246.24,21.3Z"/><path class="cls-1" d="M248.78,29.53c-5.5,0-8.66-3.33-8.66-9.13,0-10.52,5.7-17.86,13.86-17.86,2.8,0,4.92.74,6.3,2.2a7.05,7.05,0,0,1,1.68,5.4l-.08.79h-6.61v-.82c-.16-1.73-.85-2.45-2.38-2.45-2.67,0-4.18,2.77-5,5.72l.48-.62a7.91,7.91,0,0,1,5-1.47c4.63,0,7.39,2.65,7.39,7.07C260.72,25.62,254.57,29.53,248.78,29.53ZM254,3.45c-7.63,0-12.95,7-12.95,17,0,5.3,2.75,8.23,7.75,8.23,5.35,0,11-3.6,11-10.27,0-3.91-2.36-6.16-6.48-6.16a7,7,0,0,0-4.41,1.26l-2.85,3.89.38-2c1.38-7.12,4.26-8.62,6.44-8.62,2,0,3.07,1.07,3.28,3.27h4.88a6.07,6.07,0,0,0-1.43-4.65C258.42,4.09,256.52,3.45,254,3.45ZM249.4,25.32c-2.19,0-3.61-1.58-3.61-4,0-3.76,2.63-5.79,5.1-5.79,2.29,0,3.65,1.5,3.65,4C254.54,22.83,252.33,25.32,249.4,25.32Zm1.49-8.9c-2,0-4.19,1.71-4.19,4.88,0,1.95,1,3.11,2.7,3.11,2.42,0,4.24-2.1,4.24-4.89C253.64,18.36,253.28,16.42,250.89,16.42Z"/><path class="cls-1" d="M269.1,25.05a3.8,3.8,0,0,1-4,4,2.53,2.53,0,0,1-2.76-2.58,3.79,3.79,0,0,1,4-4A2.53,2.53,0,0,1,269.1,25.05Z"/><path class="cls-2" d="M265.14,29.53a3,3,0,0,1-3.22-3A4.27,4.27,0,0,1,266.34,22a3,3,0,0,1,3.21,3A4.25,4.25,0,0,1,265.14,29.53Zm1.2-6.61a3.36,3.36,0,0,0-3.51,3.58,2.1,2.1,0,0,0,2.31,2.13,3.35,3.35,0,0,0,3.5-3.58A2.1,2.1,0,0,0,266.34,22.92Z"/><path class="cls-1" d="M293.37,16.47h-5.56c0-2.54-1.23-3.74-3.23-3.74-3.24,0-5.24,3.78-5.24,8.25,0,2.76,1.35,4.18,3.09,4.18,2.07,0,3.64-1.2,4.44-3.46h5.66c-1.78,4.87-5.19,7.38-10.57,7.38-5,0-8.65-2.51-8.65-8.14,0-6.72,4.58-12.13,11.74-12.13C290.83,8.81,293.37,12,293.37,16.47Z"/><path class="cls-2" d="M282,29.53c-5.78,0-9.1-3.13-9.1-8.59,0-7.29,5.13-12.59,12.19-12.59,5.58,0,8.77,3,8.77,8.12v.46h-6.46v-.45c0-2.19-1-3.3-2.78-3.3-3.14,0-4.78,3.93-4.78,7.8,0,2.3,1,3.72,2.63,3.72,1.89,0,3.28-1.09,4-3.15l.11-.3h6.63l-.22.61C291.07,27,287.47,29.53,282,29.53Zm3.09-20.27c-6.54,0-11.28,4.91-11.28,11.68,0,4.89,3,7.69,8.19,7.69,4.86,0,8.11-2.12,9.91-6.47h-4.69a5,5,0,0,1-4.75,3.45c-2.15,0-3.54-1.82-3.54-4.63,0-5,2.39-8.7,5.69-8.7,2.2,0,3.49,1.32,3.67,3.74h4.66C292.73,11.65,290,9.26,285.05,9.26Z"/><path class="cls-1" d="M315.75,17.31c0,6-3.88,11.77-11.8,11.77-6.22,0-9.23-3.67-9.23-8.61,0-6,3.88-11.77,11.84-11.77C312.74,8.7,315.75,12.37,315.75,17.31Zm-6,.11c0-2.73-1.12-4.8-3.63-4.8-3.53,0-5.34,3.85-5.34,7.7,0,2.76,1.16,4.84,3.63,4.84C307.94,25.16,309.72,21.27,309.72,17.42Z"/><path class="cls-2" d="M304,29.53c-6,0-9.69-3.47-9.69-9.06,0-5.89,3.85-12.23,12.3-12.23,5.95,0,9.65,3.48,9.65,9.07C316.21,23.2,312.37,29.53,304,29.53Zm2.61-20.38c-7.87,0-11.39,5.69-11.39,11.32,0,5.11,3.28,8.16,8.78,8.16,7.84,0,11.35-5.69,11.35-11.32C315.3,12.2,312,9.15,306.56,9.15Zm-2.18,16.46c-2.52,0-4.09-2-4.09-5.29,0-4.05,2-8.15,5.8-8.15,2.56,0,4.09,2,4.09,5.25C310.18,21.36,308.36,25.61,304.38,25.61Zm1.71-12.53c-3.21,0-4.89,3.64-4.89,7.24,0,1.32.31,4.38,3.18,4.38,3.36,0,4.89-3.77,4.89-7.28C309.27,16.11,309,13.08,306.09,13.08Z"/><path class="cls-1" d="M349.55,13.46a21.33,21.33,0,0,1-.48,3.67l-2,11.44h-5.7l1.78-10a23.26,23.26,0,0,0,.36-3.27c0-1.71-.83-2.69-2.36-2.69-2,0-3.74,2.22-4.43,5.6l0,.29L334.9,28.57h-5.67l1.75-10a25.88,25.88,0,0,0,.36-3.27c0-1.71-.8-2.69-2.51-2.69-1.92,0-3.63,2.18-4.28,5.78v.11l-1.78,10.06h-5.71l3.42-19.36h5.67l-.48,2.72,1.86-2.11a8.11,8.11,0,0,1,4.36-1.12c3.12,0,4.87,1.49,5.34,3.52L339.15,10a7.29,7.29,0,0,1,4.62-1.34C347.8,8.7,349.55,10.84,349.55,13.46Z"/><path class="cls-2" d="M347.46,29h-6.63L342.7,18.5a21.9,21.9,0,0,0,.36-3.19c0-1.48-.64-2.23-1.91-2.23-1.74,0-3.35,2.1-4,5.23l0,.25L335.28,29h-6.59l1.88-10.81a23.07,23.07,0,0,0,.32-2.91c0-1.53-.66-2.23-2.06-2.23-1.73,0-3.24,2.12-3.84,5.4L323.15,29h-6.63L320.1,8.75h6.59l-.29,1.67.9-1a8.64,8.64,0,0,1,4.59-1.19c2.75,0,4.72,1.11,5.53,3.08l1.39-1.58a7.65,7.65,0,0,1,5-1.5c4.59,0,6.23,2.7,6.23,5.22a21.22,21.22,0,0,1-.48,3.75Zm-5.55-.91h4.78l1.94-11.07a20.68,20.68,0,0,0,.46-3.59c0-2.74-1.94-4.31-5.32-4.31a6.81,6.81,0,0,0-4.35,1.26L337,13.18l-.2-.86c-.47-2-2.26-3.17-4.9-3.17a7.66,7.66,0,0,0-4.07,1L325,13.44l.66-3.78h-4.75L317.6,28.12h4.79l1.71-9.69c.68-3.85,2.54-6.26,4.73-6.26,1.91,0,3,1.11,3,3.14a22.83,22.83,0,0,1-.33,3l0,.29-1.66,9.47h4.75l1.75-10c.74-3.65,2.66-6,4.88-6,1.77,0,2.82,1.17,2.82,3.14a23.59,23.59,0,0,1-.37,3.34Z"/></svg>