<svg id="Capa_2" data-name="Capa 2" xmlns="http://www.w3.org/2000/svg" xmlns:xlink="http://www.w3.org/1999/xlink" viewBox="0 0 1140 948"><defs><style>.cls-1,.cls-2{fill:#70d44b;}.cls-1{opacity:0.5;}.cls-3{fill:#fff;}.cls-4{fill:url(#Degradado_sin_nombre_83);}.cls-5{fill:url(#Degradado_sin_nombre_83-2);}.cls-6{fill:url(#Degradado_sin_nombre_83-3);}.cls-7{fill:url(#Degradado_sin_nombre_83-4);}.cls-8{fill:url(#Degradado_sin_nombre_83-5);}.cls-9{fill:url(#Degradado_sin_nombre_83-6);}.cls-10{fill:url(#Degradado_sin_nombre_83-7);}.cls-11{fill:url(#Degradado_sin_nombre_83-8);}</style><linearGradient id="Degradado_sin_nombre_83" x1="21.13" y1="660.78" x2="33.87" y2="698.98" gradientUnits="userSpaceOnUse"><stop offset="0" stop-color="#99ca2f"/><stop offset="0.13" stop-color="#8fc62e"/><stop offset="0.34" stop-color="#74bc2d"/><stop offset="0.62" stop-color="#48ac2b"/><stop offset="0.94" stop-color="#0b9628"/><stop offset="1" stop-color="#009227"/></linearGradient><linearGradient id="Degradado_sin_nombre_83-2" x1="216.13" y1="548.78" x2="228.87" y2="586.98" xlink:href="#Degradado_sin_nombre_83"/><linearGradient id="Degradado_sin_nombre_83-3" x1="33.53" y1="550.27" x2="86.75" y2="709.91" gradientTransform="matrix(-1, 0, 0, 1, 102.43, 0)" xlink:href="#Degradado_sin_nombre_83"/><linearGradient id="Degradado_sin_nombre_83-4" x1="129.1" y1="579.51" x2="156.54" y2="661.85" xlink:href="#Degradado_sin_nombre_83"/><linearGradient id="Degradado_sin_nombre_83-5" x1="-3867.56" y1="-1117.6" x2="-3934.4" y2="-1158.1" gradientTransform="matrix(-0.98, -0.2, 0, 0.93, -3646.07, 1034.98)" xlink:href="#Degradado_sin_nombre_83"/><linearGradient id="Degradado_sin_nombre_83-6" x1="-3904.66" y1="-1132.57" x2="-3981.14" y2="-1213.44" gradientTransform="matrix(-0.98, -0.2, 0, 0.93, -3646.07, 1034.98)" xlink:href="#Degradado_sin_nombre_83"/><linearGradient id="Degradado_sin_nombre_83-7" x1="-3872.44" y1="-1118.27" x2="-3934.88" y2="-1156.11" gradientTransform="matrix(-0.98, -0.2, 0, 0.93, -3646.07, 1034.98)" xlink:href="#Degradado_sin_nombre_83"/><linearGradient id="Degradado_sin_nombre_83-8" x1="1252.52" y1="-943.97" x2="1281.05" y2="-952.23" gradientTransform="translate(-1228.13 1425.69) rotate(11.34)" xlink:href="#Degradado_sin_nombre_83"/></defs><path class="cls-1" d="M1140,506.05q-15.43,2.24-31.65,6.18C973,545.31,928.94,398.36,719.24,359.71,576.3,333.37,479.91,451.78,505.18,569.62c20.92,97.52,38.56,165.1-29.16,216.73C383.86,856.62,449.93,948,449.93,948H1140Z"/><path class="cls-1" d="M0,689.19a169.51,169.51,0,0,1,17.05,3.61c72.88,19.38,100.84-51.28,209.57-89.31S374.15,663.9,341.91,726.41c-31.24,60.58-52.08,70.52,15.71,126.93S371.67,948,371.67,948H0Z"/><path class="cls-2" d="M1140,503s-12.44,105.33-250,61.41C651.39,520.29,386.67,717.87,446.21,948H1140Z"/><path class="cls-3" d="M606.45,755.3l20.83-1.09a2.83,2.83,0,0,1,3,2.95l-.54,19.16a2.81,2.81,0,0,1-3,2.68L607,778a2.71,2.71,0,0,1-2.49-2.66L604,758.2A2.72,2.72,0,0,1,606.45,755.3Z"/><path class="cls-3" d="M650.56,646.48l38.51-2a5.23,5.23,0,0,1,5.56,5.46l-1,35.41a5.2,5.2,0,0,1-5.56,5l-36.57-1.81a5,5,0,0,1-4.6-4.92L646,651.86A5.07,5.07,0,0,1,650.56,646.48Z"/><path class="cls-3" d="M520.92,786.78l11.38-.59a1.54,1.54,0,0,1,1.64,1.61l-.29,10.47a1.54,1.54,0,0,1-1.64,1.46l-10.81-.53a1.49,1.49,0,0,1-1.36-1.45l-.26-9.38A1.5,1.5,0,0,1,520.92,786.78Z"/><path class="cls-3" d="M777.92,615.78l11.38-.59a1.54,1.54,0,0,1,1.64,1.61l-.29,10.47a1.54,1.54,0,0,1-1.64,1.46l-10.81-.53a1.49,1.49,0,0,1-1.36-1.45l-.26-9.38A1.5,1.5,0,0,1,777.92,615.78Z"/><path class="cls-4" d="M30.19,668.49l-9.4-.49a1.27,1.27,0,0,0-1.35,1.33l.24,8.64A1.26,1.26,0,0,0,21,679.18l8.93-.44a1.23,1.23,0,0,0,1.12-1.2l.22-7.74A1.24,1.24,0,0,0,30.19,668.49Z"/><path class="cls-5" d="M225.19,556.49l-9.4-.49a1.27,1.27,0,0,0-1.35,1.33l.24,8.64a1.26,1.26,0,0,0,1.35,1.21l8.93-.44a1.23,1.23,0,0,0,1.12-1.2l.22-7.74A1.24,1.24,0,0,0,225.19,556.49Z"/><path class="cls-6" d="M31.06,582.5l39.26-2A5.35,5.35,0,0,1,76,586l-1,36.1a5.29,5.29,0,0,1-5.66,5.06L32,625.34a5.13,5.13,0,0,1-4.69-5L26.44,588A5.15,5.15,0,0,1,31.06,582.5Z"/><path class="cls-7" d="M148.61,596.14l-20.25-1.06a2.75,2.75,0,0,0-2.92,2.87l.52,18.63a2.72,2.72,0,0,0,2.92,2.6l19.23-.95a2.64,2.64,0,0,0,2.42-2.59L151,599A2.66,2.66,0,0,0,148.61,596.14Z"/><path class="cls-3" d="M182,754.51l-2.81,1.26h0a.89.89,0,0,1-.72-1.62h0l2.84-1.26a.88.88,0,0,1,.71,1.61Z"/><path class="cls-3" d="M172.77,758.9l-2.72,1.42h0a.9.9,0,0,1-.84-1.6h0L172,757.3a.9.9,0,0,1,.83,1.59Z"/><path class="cls-3" d="M163.81,763.83l-2.63,1.58h0a.93.93,0,0,1-1.27-.32.92.92,0,0,1,.32-1.26h0l2.66-1.59a.91.91,0,0,1,1.26.32.91.91,0,0,1-.32,1.25Z"/><path class="cls-3" d="M155.15,769.28,152.62,771h0a.93.93,0,0,1-1.31-.24,1,1,0,0,1,.24-1.31h0l2.56-1.75a.94.94,0,0,1,1,1.55Z"/><path class="cls-3" d="M146.83,775.22l-2.43,1.88h0a1,1,0,0,1-1.35-.18,1,1,0,0,1,.17-1.34h0l2.46-1.88a1,1,0,0,1,1.34.18,1,1,0,0,1-.18,1.33Z"/><path class="cls-3" d="M138.86,781.63l-2.32,2h0a1,1,0,1,1-1.29-1.48h0l2.35-2a1,1,0,0,1,1.27,1.48Z"/><path class="cls-3" d="M131.26,788.48l-2.2,2.14h0a1,1,0,0,1-1.39-1.44h0l2.24-2.15a1,1,0,1,1,1.38,1.43Z"/><path class="cls-3" d="M124.05,795.74,122,798h0a1,1,0,0,1-1.45.06,1,1,0,0,1-.05-1.44h0l2.11-2.28a1,1,0,0,1,1.49,1.39Z"/><path class="cls-3" d="M117.25,803.4l-2,2.37h0a1,1,0,0,1-1.46.14,1.05,1.05,0,0,1-.14-1.47h0l2-2.39a1.05,1.05,0,0,1,1.46-.13,1,1,0,0,1,.13,1.46Z"/><path class="cls-3" d="M110.89,811.41l-1.83,2.47v0a1.06,1.06,0,1,1-1.7-1.26h0l1.85-2.5a1.06,1.06,0,0,1,1.48-.21,1,1,0,0,1,.21,1.47Z"/><path class="cls-3" d="M105,819.76l-1.68,2.57h0a1.08,1.08,0,0,1-1.81-1.18h0l1.71-2.6a1.07,1.07,0,1,1,1.79,1.19Z"/><path class="cls-3" d="M99.53,828.42,98,831.08v0a1.11,1.11,0,0,1-1.5.4,1.09,1.09,0,0,1-.4-1.5h0l1.57-2.68a1.09,1.09,0,1,1,1.88,1.1Z"/><path class="cls-3" d="M94.57,837.37l-1.39,2.74v0a1.12,1.12,0,0,1-2-1h0l1.42-2.76a1.11,1.11,0,0,1,2,1Z"/><path class="cls-3" d="M90.13,846.58l-1.23,2.81v0a1.14,1.14,0,1,1-2.08-.91h0l1.25-2.85a1.14,1.14,0,0,1,1.5-.57,1.12,1.12,0,0,1,.57,1.49Z"/><path class="cls-3" d="M86.22,856l-1.07,2.87v0a1.15,1.15,0,0,1-1.48.68,1.16,1.16,0,0,1-.69-1.49h0l1.09-2.91a1.15,1.15,0,0,1,1.48-.67,1.14,1.14,0,0,1,.67,1.48Z"/><path class="cls-3" d="M82.86,865.67,82,868.6v0a1.18,1.18,0,1,1-2.25-.69h0l.92-3a1.17,1.17,0,1,1,2.23.7Z"/><path class="cls-3" d="M80.07,875.5l-.72,3v0a1.2,1.2,0,0,1-2.33-.57h0l.75-3a1.19,1.19,0,0,1,2.31.57Z"/><path class="cls-3" d="M77.88,885.47l-.54,3v0a1.21,1.21,0,1,1-2.39-.43h0l.56-3.06a1.21,1.21,0,0,1,2.38.43Z"/><path class="cls-3" d="M76.3,895.56,76,898.61v0a1.24,1.24,0,0,1-2.46-.29h0l.37-3.09a1.23,1.23,0,0,1,2.44.29Z"/><path class="cls-3" d="M75.34,905.73l-.18,3.06v0a1.25,1.25,0,1,1-2.5-.14h0l.18-3.1a1.25,1.25,0,0,1,2.5.15Z"/><path class="cls-3" d="M75,915.93V919a1.26,1.26,0,1,1-2.52,0h0v-3.11a1.26,1.26,0,0,1,2.52,0Z"/><path class="cls-3" d="M75.19,926.14l.18,3.06v0a1.26,1.26,0,0,1-1.19,1.34,1.27,1.27,0,0,1-1.34-1.19h0l-.18-3.1a1.27,1.27,0,1,1,2.53-.15Z"/><path class="cls-3" d="M76,936.31l.36,3.05v0a1.27,1.27,0,0,1-2.53.3h0l-.36-3.08A1.27,1.27,0,1,1,76,936.3Z"/><path class="cls-3" d="M77.38,946.43l.53,3v0a1.28,1.28,0,1,1-2.52.43h0l-.53-3.06a1.28,1.28,0,0,1,2.52-.44Z"/><polygon class="cls-8" points="196.22 734.25 195.69 749.36 206.14 743.23 196.22 734.25"/><path class="cls-9" d="M264.44,728l-42.06,34.32a3.82,3.82,0,0,1-2.87.84,3.9,3.9,0,0,1-2.6-1.49L184,718.14a1.53,1.53,0,0,1,1.46-2.43Z"/><polygon class="cls-10" points="196.23 734.26 264.44 728 201.51 741.3 201.18 745.48 196.23 734.26"/><polygon class="cls-11" points="204.67 745.45 195.69 749.36 201.51 741.3 204.67 745.45"/></svg>