<svg id="Capa_2" data-name="Capa 2" xmlns="http://www.w3.org/2000/svg" xmlns:xlink="http://www.w3.org/1999/xlink" viewBox="0 0 1140 948"><defs><style>.cls-1,.cls-2{fill:#70d44b;}.cls-1{opacity:0.5;}.cls-3{fill:#fff;}.cls-4{fill:url(#Degradado_sin_nombre_83);}.cls-5{fill:url(#Degradado_sin_nombre_83-2);}.cls-6{fill:url(#Degradado_sin_nombre_83-3);}.cls-7{fill:url(#Degradado_sin_nombre_83-4);}.cls-8{fill:url(#Degradado_sin_nombre_83-5);}.cls-9{fill:url(#Degradado_sin_nombre_83-6);}.cls-10{fill:url(#Degradado_sin_nombre_83-7);}.cls-11{fill:url(#Degradado_sin_nombre_83-8);}</style><linearGradient id="Degradado_sin_nombre_83" x1="773.67" y1="780.09" x2="794.35" y2="842.11" gradientTransform="translate(-89.7 136.65) rotate(-8.31)" gradientUnits="userSpaceOnUse"><stop offset="0" stop-color="#99ca2f"/><stop offset="0.13" stop-color="#8fc62e"/><stop offset="0.34" stop-color="#74bc2d"/><stop offset="0.62" stop-color="#48ac2b"/><stop offset="0.94" stop-color="#0b9628"/><stop offset="1" stop-color="#009227"/></linearGradient><linearGradient id="Degradado_sin_nombre_83-2" x1="1011.62" y1="617.76" x2="1032.29" y2="679.78" xlink:href="#Degradado_sin_nombre_83"/><linearGradient id="Degradado_sin_nombre_83-3" x1="911.28" y1="624.98" x2="974.85" y2="815.71" xlink:href="#Degradado_sin_nombre_83"/><linearGradient id="Degradado_sin_nombre_83-4" x1="806.16" y1="670.79" x2="850.71" y2="804.45" xlink:href="#Degradado_sin_nombre_83"/><linearGradient id="Degradado_sin_nombre_83-5" x1="-7749.49" y1="-1598.63" x2="-7816.33" y2="-1639.14" gradientTransform="matrix(0.98, -0.2, 0, 0.93, 8636.55, 806.81)" xlink:href="#Degradado_sin_nombre_83"/><linearGradient id="Degradado_sin_nombre_83-6" x1="-7786.58" y1="-1613.61" x2="-7863.07" y2="-1694.48" gradientTransform="matrix(0.98, -0.2, 0, 0.93, 8636.55, 806.81)" xlink:href="#Degradado_sin_nombre_83"/><linearGradient id="Degradado_sin_nombre_83-7" x1="-7754.37" y1="-1599.31" x2="-7816.8" y2="-1637.15" gradientTransform="matrix(0.98, -0.2, 0, 0.93, 8636.55, 806.81)" xlink:href="#Degradado_sin_nombre_83"/><linearGradient id="Degradado_sin_nombre_83-8" x1="2728.5" y1="-1381.96" x2="2757.03" y2="-1390.23" gradientTransform="matrix(-0.98, 0.2, 0.2, 0.98, 3943.62, 1653.86)" xlink:href="#Degradado_sin_nombre_83"/></defs><path class="cls-1" d="M0,482.56c123.58-89.46,223.88,179.17,400.59,75.53,191.26-112.15,243.94,15,240.8,73.66s-67.7,67.15,33.1,197.1c31.63,40.77,14,81.79-32.94,119.15H0Z"/><path class="cls-1" d="M1140,667c-138.22.54-382.66,162.57-382.66,281H1140Z"/><path class="cls-2" d="M398.12,948H0V591.27c33.72-14.61,113.45.56,135.74,53C179.92,748.1,113.22,775,205.27,779.15,314.52,784.12,411.7,885.1,398.12,948Z"/><path class="cls-3" d="M249.37,875.74l-28-1.46a3.81,3.81,0,0,0-4.05,4L218,904a3.78,3.78,0,0,0,4.05,3.61l26.62-1.32a3.67,3.67,0,0,0,3.35-3.58l.65-23.1A3.7,3.7,0,0,0,249.37,875.74Z"/><path class="cls-3" d="M313.52,883,301,882.3a1.7,1.7,0,0,0-1.82,1.78l.33,11.56a1.7,1.7,0,0,0,1.81,1.62l11.94-.59a1.65,1.65,0,0,0,1.5-1.61l.29-10.35A1.65,1.65,0,0,0,313.52,883Z"/><path class="cls-3" d="M176.13,822.28l18-.94a2.45,2.45,0,0,1,2.59,2.55l-.46,16.52a2.43,2.43,0,0,1-2.6,2.31l-17-.84a2.35,2.35,0,0,1-2.15-2.3l-.41-14.8A2.35,2.35,0,0,1,176.13,822.28Z"/><path class="cls-3" d="M109.72,821.84l6.09-.32a.82.82,0,0,1,.88.86l-.16,5.61a.81.81,0,0,1-.88.78l-5.78-.28a.8.8,0,0,1-.73-.78l-.14-5A.8.8,0,0,1,109.72,821.84Z"/><path class="cls-4" d="M804.9,807.07l-15.21,1.42a2.07,2.07,0,0,0-1.87,2.45l2.42,13.83a2,2,0,0,0,2.46,1.62l14.23-2.8a2,2,0,0,0,1.52-2.19L807,808.92A2,2,0,0,0,804.9,807.07Z"/><path class="cls-5" d="M1016.9,612.07l-15.21,1.42a2.07,2.07,0,0,0-1.87,2.45l2.42,13.83a2,2,0,0,0,2.46,1.62l14.23-2.8a2,2,0,0,0,1.52-2.19L1019,613.92A2,2,0,0,0,1016.9,612.07Z"/><path class="cls-6" d="M952.6,655l-46.77,4.36a6.36,6.36,0,0,0-5.75,7.55l7.43,42.51a6.33,6.33,0,0,0,7.57,5l43.76-8.61a6.13,6.13,0,0,0,4.68-6.74L959,660.69A6.16,6.16,0,0,0,952.6,655Z"/><path class="cls-7" d="M840.15,706.08l-32.78,3.06a4.46,4.46,0,0,0-4,5.29l5.2,29.79a4.44,4.44,0,0,0,5.31,3.51l30.66-6A4.29,4.29,0,0,0,847.8,737l-3.16-26.91A4.32,4.32,0,0,0,840.15,706.08Z"/><path class="cls-3" d="M1000,843.51l2.8,1.26h0a.89.89,0,0,0,.72-1.62h0l-2.84-1.26a.89.89,0,0,0-1.16.45.87.87,0,0,0,.45,1.16Z"/><path class="cls-3" d="M1009.21,847.9l2.72,1.42h0a.9.9,0,0,0,1.21-.38.91.91,0,0,0-.38-1.22h0L1010,846.3a.88.88,0,0,0-1.2.38.9.9,0,0,0,.38,1.21Z"/><path class="cls-3" d="M1018.17,852.83l2.63,1.58h0a.92.92,0,0,0,.95-1.58h0l-2.66-1.59a.91.91,0,0,0-.94,1.57Z"/><path class="cls-3" d="M1026.83,858.28l2.53,1.73h0a.94.94,0,0,0,1.31-.24,1,1,0,0,0-.25-1.31h0l-2.57-1.75a.94.94,0,0,0-1,1.55Z"/><path class="cls-3" d="M1035.15,864.22l2.43,1.88h0a1,1,0,0,0,1.34-.18,1,1,0,0,0-.17-1.34h0l-2.47-1.88a1,1,0,0,0-1.33.18.93.93,0,0,0,.17,1.33Z"/><path class="cls-3" d="M1043.12,870.63l2.32,2h0a1,1,0,0,0,1.28-1.48h0l-2.35-2a1,1,0,0,0-1.38.11,1,1,0,0,0,.11,1.37Z"/><path class="cls-3" d="M1050.73,877.48l2.2,2.14h0a1,1,0,1,0,1.39-1.44h0l-2.24-2.15a1,1,0,1,0-1.37,1.43Z"/><path class="cls-3" d="M1057.93,884.74,1060,887h0a1,1,0,0,0,1.5-1.38h0l-2.12-2.28a1,1,0,1,0-1.48,1.39Z"/><path class="cls-3" d="M1064.73,892.4l2,2.37h0a1,1,0,1,0,1.6-1.33h0l-2-2.39a1,1,0,1,0-1.58,1.33Z"/><path class="cls-3" d="M1071.1,900.41l1.82,2.47v0a1.06,1.06,0,0,0,1.48.22,1.07,1.07,0,0,0,.23-1.48h0l-1.85-2.5a1.05,1.05,0,0,0-1.69,1.26Z"/><path class="cls-3" d="M1077,908.76l1.69,2.57h0a1.08,1.08,0,0,0,1.8-1.18h0l-1.72-2.6a1.07,1.07,0,1,0-1.78,1.19Z"/><path class="cls-3" d="M1082.46,917.42l1.54,2.66v0a1.1,1.1,0,1,0,1.9-1.1h0l-1.57-2.68a1.09,1.09,0,0,0-1.89,1.1Z"/><path class="cls-3" d="M1087.41,926.37l1.39,2.74v0a1.12,1.12,0,1,0,2-1h0l-1.41-2.76a1.11,1.11,0,0,0-2,1Z"/><path class="cls-3" d="M1091.86,935.58l1.23,2.81v0a1.14,1.14,0,1,0,2.09-.91h0l-1.26-2.85a1.13,1.13,0,0,0-2.07.92Z"/><path class="cls-3" d="M1095.77,945l1.06,2.87v0a1.16,1.16,0,1,0,2.17-.81h0l-1.09-2.91a1.15,1.15,0,0,0-2.16.81Z"/><polygon class="cls-8" points="985.76 823.25 986.3 838.36 975.84 832.23 985.76 823.25"/><path class="cls-9" d="M917.55,817l42.05,34.32a3.84,3.84,0,0,0,2.88.84,3.88,3.88,0,0,0,2.59-1.49l32.87-43.53a1.53,1.53,0,0,0-1.46-2.43Z"/><polygon class="cls-10" points="985.76 823.26 917.55 817 980.48 830.3 980.8 834.48 985.76 823.26"/><polygon class="cls-11" points="977.31 834.45 986.3 838.36 980.48 830.3 977.31 834.45"/></svg>