<?xml version="1.0" encoding="UTF-8"?>
<svg xmlns="http://www.w3.org/2000/svg" xmlns:xlink="http://www.w3.org/1999/xlink" width="912pt" height="759pt" viewBox="0 0 912 759" version="1.1">
<g id="surface1">
<path style=" stroke:none;fill-rule:nonzero;fill:rgb(0%,0%,0%);fill-opacity:1;" d="M 0 608.90625 L 912 608.90625 L 912 759 L 0 759 Z M 0 608.90625 "/>
<path style=" stroke:none;fill-rule:nonzero;fill:rgb(0%,0%,0%);fill-opacity:1;" d="M 854.328125 519.609375 C 854.328125 520.179688 854.105469 524.046875 853.753906 529.828125 L 872.855469 528.808594 C 872.28125 525.785156 871.824219 523.253906 871.574219 521.394531 C 869.824219 508.402344 874.855469 503.453125 876.105469 495.664062 C 877.351562 487.875 888.015625 480.386719 885.945312 478.386719 C 883.871094 476.382812 875.34375 488.84375 872.441406 488.5 C 869.535156 488.152344 877.863281 470.570312 875.910156 469.019531 C 872.328125 466.152344 865.6875 487.832031 863.910156 486.632812 C 862.136719 485.433594 867.96875 462.863281 863.542969 463.742188 C 859.121094 464.625 859.855469 487.496094 857.320312 487.136719 C 854.785156 486.777344 858.527344 465.558594 853.40625 463.863281 C 850.671875 462.957031 851.449219 500.402344 848.257812 503.398438 C 845.0625 506.390625 836.257812 493.789062 833.054688 495.921875 C 829.855469 498.050781 854.398438 517.25 854.328125 519.609375 Z M 854.328125 519.609375 "/>
<path style=" stroke:none;fill-rule:nonzero;fill:rgb(0%,0%,0%);fill-opacity:1;" d="M 283.054688 641.308594 L 292.753906 640.800781 C 293.125 640.78125 293.492188 640.917969 293.757812 641.179688 C 294.027344 641.441406 294.167969 641.804688 294.152344 642.179688 L 293.902344 651.105469 C 293.886719 651.460938 293.730469 651.789062 293.464844 652.027344 C 293.203125 652.261719 292.855469 652.378906 292.503906 652.355469 L 283.296875 651.898438 C 282.648438 651.847656 282.144531 651.308594 282.136719 650.660156 L 281.910156 642.652344 C 281.875 641.96875 282.378906 641.378906 283.054688 641.308594 Z M 283.054688 641.308594 "/>
<path style=" stroke:none;fill-rule:nonzero;fill:rgb(0%,0%,0%);fill-opacity:1;" d="M 339.054688 660.523438 L 348.753906 660.019531 C 349.125 659.996094 349.492188 660.132812 349.757812 660.394531 C 350.027344 660.65625 350.167969 661.019531 350.152344 661.394531 L 349.902344 670.320312 C 349.886719 670.675781 349.730469 671.007812 349.464844 671.242188 C 349.203125 671.476562 348.855469 671.59375 348.503906 671.570312 L 339.296875 671.113281 C 338.648438 671.0625 338.144531 670.523438 338.136719 669.875 L 337.910156 661.867188 C 337.875 661.183594 338.378906 660.59375 339.054688 660.523438 Z M 339.054688 660.523438 "/>
<path style=" stroke:none;fill-rule:nonzero;fill:rgb(0%,0%,0%);fill-opacity:1;" d="M 423.199219 655.324219 L 441.128906 654.398438 C 441.820312 654.339844 442.503906 654.585938 443.003906 655.074219 C 443.5 655.5625 443.761719 656.242188 443.71875 656.933594 L 443.257812 673.4375 C 443.234375 674.089844 442.945312 674.707031 442.457031 675.144531 C 441.96875 675.582031 441.324219 675.800781 440.671875 675.75 L 423.640625 674.949219 C 422.445312 674.847656 421.519531 673.851562 421.503906 672.652344 L 421.089844 657.871094 C 421.003906 656.597656 421.929688 655.476562 423.199219 655.324219 Z M 423.199219 655.324219 "/>
<path style=" stroke:none;fill-rule:nonzero;fill:rgb(0%,0%,0%);fill-opacity:1;" d="M 246.542969 671.46875 L 251.34375 671.195312 C 251.539062 671.191406 251.726562 671.273438 251.859375 671.414062 C 251.988281 671.558594 252.050781 671.753906 252.03125 671.945312 L 251.910156 676.824219 C 251.910156 677.003906 251.839844 677.179688 251.710938 677.308594 C 251.582031 677.433594 251.40625 677.503906 251.222656 677.503906 L 246.695312 677.253906 C 246.359375 677.207031 246.117188 676.914062 246.128906 676.574219 L 246.015625 672.210938 C 245.976562 671.863281 246.203125 671.542969 246.542969 671.46875 Z M 246.542969 671.46875 "/>
<path style=" stroke:none;fill-rule:nonzero;fill:rgb(0%,0%,0%);fill-opacity:1;" d="M 390.609375 629.035156 L 395.910156 628.761719 C 396.117188 628.746094 396.316406 628.820312 396.460938 628.964844 C 396.609375 629.109375 396.683594 629.308594 396.671875 629.511719 L 396.535156 634.390625 C 396.527344 634.582031 396.441406 634.761719 396.300781 634.890625 C 396.15625 635.019531 395.96875 635.082031 395.777344 635.070312 L 390.742188 634.820312 C 390.390625 634.792969 390.113281 634.496094 390.113281 634.140625 L 389.984375 629.777344 C 389.960938 629.402344 390.234375 629.074219 390.609375 629.035156 Z M 390.609375 629.035156 "/>
<path style=" stroke:none;fill-rule:nonzero;fill:rgb(0%,0%,0%);fill-opacity:1;" d="M 873.34375 516.695312 L 850.289062 520.265625 L 856.191406 591.433594 C 856.191406 591.433594 825.28125 620.601562 821.40625 622.730469 C 815.007812 626.246094 789.40625 629.433594 789.40625 629.433594 C 789.40625 629.433594 790.023438 629.570312 790.207031 629.59375 C 792.34375 629.816406 796.296875 705.46875 796.609375 733.8125 C 796.71875 744.394531 796.390625 752.722656 795.929688 759 L 824.398438 759 C 825.777344 721.875 827.601562 675.351562 830.503906 669.65625 C 838.921875 653.011719 884.34375 612.628906 887.960938 603.398438 C 891.488281 594.460938 873.34375 516.695312 873.34375 516.695312 Z M 873.34375 516.695312 "/>
<path style=" stroke:none;fill-rule:nonzero;fill:rgb(0%,0%,0%);fill-opacity:1;" d="M 70.328125 723.101562 C 76.726562 725.5 78.839844 731.515625 78.839844 744.347656 C 78.839844 750.136719 79.574219 754.554688 81.046875 757.816406 L 63.199219 757.816406 C 62.671875 754.132812 62.464844 750.34375 62.398438 740.769531 C 62.398438 733.933594 60.191406 729.722656 55.359375 729.410156 C 53.359375 729.304688 51.574219 729.304688 49.574219 729.304688 L 42.886719 729.304688 L 37.839844 757.816406 L 21.441406 757.816406 L 34.238281 685.222656 L 61.808594 685.222656 C 65.425781 685.171875 69.042969 685.34375 72.640625 685.742188 C 81.679688 686.800781 88.9375 691.425781 88.9375 701.523438 C 88.9375 712.996094 81.992188 720.152344 70.328125 723.101562 Z M 70.960938 705.628906 C 70.960938 700.578125 67.695312 698.6875 63.175781 698.265625 C 61.703125 698.160156 59.921875 698.054688 57.574219 698.054688 L 48.351562 698.054688 L 44.992188 717.207031 L 53.71875 717.207031 C 56.03125 717.207031 57.71875 717.207031 59.320312 717.09375 C 65.382812 716.566406 70.960938 713.628906 70.960938 705.628906 Z M 70.960938 705.628906 "/>
<path style=" stroke:none;fill-rule:nonzero;fill:rgb(0%,0%,0%);fill-opacity:1;" d="M 83.089844 759.128906 L 62.039062 759.128906 L 61.878906 758 C 61.320312 754.132812 61.121094 750.105469 61.023438 740.785156 C 61.023438 734.378906 59.0625 730.96875 55.207031 730.722656 C 53.246094 730.617188 51.488281 730.617188 49.511719 730.617188 L 44 730.617188 L 38.953125 759.128906 L 19.878906 759.128906 L 33.167969 683.910156 L 61.808594 683.910156 C 65.472656 683.859375 69.140625 684.035156 72.785156 684.4375 C 83.886719 685.734375 90.246094 691.964844 90.246094 701.523438 C 90.246094 712.234375 84.574219 719.761719 73.792969 723.445312 C 79.007812 727.152344 80.191406 734.332031 80.191406 744.347656 C 80.191406 749.953125 80.878906 754.15625 82.289062 757.269531 Z M 64.328125 756.503906 L 79.128906 756.503906 C 77.953125 752.5625 77.414062 748.460938 77.527344 744.347656 C 77.527344 731.699219 75.519531 726.460938 69.863281 724.332031 L 65.9375 722.851562 L 70 721.828125 C 78 719.800781 87.601562 714.621094 87.601562 701.53125 C 87.601562 691.027344 79.375 687.863281 72.472656 687.054688 C 68.925781 686.664062 65.359375 686.492188 61.792969 686.542969 L 35.367188 686.542969 L 23.007812 756.503906 L 36.742188 756.503906 L 41.785156 727.984375 L 49.511719 727.984375 C 51.535156 727.984375 53.34375 727.984375 55.359375 728.09375 C 59.152344 728.34375 63.648438 730.738281 63.648438 740.769531 C 63.742188 749.03125 63.902344 753.050781 64.328125 756.503906 Z M 53.71875 718.519531 L 43.425781 718.519531 L 47.246094 696.742188 L 57.601562 696.742188 C 59.953125 696.742188 61.761719 696.847656 63.257812 696.949219 C 69.246094 697.511719 72.265625 700.433594 72.265625 705.628906 C 72.265625 713.15625 67.695312 717.6875 59.390625 718.441406 C 57.777344 718.519531 56.0625 718.519531 53.71875 718.519531 Z M 46.519531 715.886719 L 53.71875 715.886719 C 55.945312 715.886719 57.648438 715.886719 59.199219 715.789062 C 66.121094 715.1875 69.601562 711.785156 69.601562 705.628906 C 69.601562 701.867188 67.566406 700.023438 63.015625 699.578125 C 61.601562 699.480469 59.816406 699.367188 57.566406 699.367188 L 49.457031 699.367188 Z M 46.519531 715.886719 "/>
<path style=" stroke:none;fill-rule:nonzero;fill:rgb(0%,0%,0%);fill-opacity:1;" d="M 114.273438 714.964844 L 148.222656 714.964844 L 145.910156 727.773438 L 112 727.773438 L 109.054688 744.820312 L 146.375 744.820312 L 144 757.816406 L 90.304688 757.816406 L 103.105469 685.222656 L 155.769531 685.222656 L 153.457031 698.03125 L 117.214844 698.03125 Z M 114.273438 714.964844 "/>
<path style=" stroke:none;fill-rule:nonzero;fill:rgb(0%,0%,0%);fill-opacity:1;" d="M 145.121094 759.128906 L 88.734375 759.128906 L 102.023438 683.910156 L 157.367188 683.910156 L 154.585938 699.367188 L 118.320312 699.367188 L 115.832031 713.675781 L 149.800781 713.675781 L 147.007812 729.144531 L 113.0625 729.144531 L 110.574219 743.554688 L 147.902344 743.554688 Z M 91.871094 756.503906 L 142.921875 756.503906 L 144.800781 746.191406 L 107.457031 746.191406 L 110.847656 726.511719 L 144.800781 726.511719 L 146.640625 716.308594 L 112.703125 716.308594 L 116.113281 696.742188 L 152.382812 696.742188 L 154.222656 686.535156 L 104.230469 686.535156 Z M 91.871094 756.503906 "/>
<path style=" stroke:none;fill-rule:nonzero;fill:rgb(0%,0%,0%);fill-opacity:1;" d="M 230.222656 708.894531 L 230.121094 709.945312 L 213.601562 709.945312 L 213.601562 708.894531 C 213.496094 699.953125 208.976562 695.949219 200.246094 695.949219 C 187.527344 695.949219 176.246094 707.734375 176.246094 727.976562 C 176.246094 741.128906 182.449219 747.125 190.96875 747.125 C 199.488281 747.125 206.105469 742.179688 209.679688 732.914062 L 194.902344 732.914062 L 197.214844 720.105469 L 227.703125 720.105469 L 220.976562 757.878906 L 207.9375 757.878906 L 208.671875 746.511719 L 204.152344 753.980469 C 199.425781 757.773438 193.847656 759.351562 185.96875 759.351562 C 169.039062 759.351562 158.769531 748.511719 158.769531 729.890625 C 158.769531 700.746094 179.792969 683.8125 202.601562 683.8125 C 222.761719 683.742188 231.273438 694.582031 230.222656 708.894531 Z M 230.222656 708.894531 "/>
<path style=" stroke:none;fill-rule:nonzero;fill:rgb(0%,0%,0%);fill-opacity:1;" d="M 185.96875 760.601562 C 168.097656 760.601562 157.425781 749.097656 157.425781 729.824219 C 157.425781 698.710938 180.136719 682.433594 202.574219 682.433594 C 212.839844 682.433594 220.886719 685.261719 225.855469 690.609375 C 230.121094 695.199219 232.078125 701.554688 231.535156 709.023438 L 231.3125 711.289062 L 212.304688 711.289062 L 212.304688 708.886719 C 212.207031 700.882812 208.496094 697.253906 200.304688 697.253906 C 189.046875 697.253906 177.648438 707.792969 177.648438 727.925781 C 177.648438 739.257812 182.535156 745.757812 191.054688 745.757812 C 198.433594 745.757812 204.3125 741.667969 207.785156 734.179688 L 193.382812 734.179688 L 196.175781 718.71875 L 229.328125 718.71875 L 222.128906 759.121094 L 206.535156 759.121094 L 207.015625 751.722656 L 204.976562 754.925781 C 200.089844 758.855469 194.222656 760.601562 185.96875 760.601562 Z M 202.574219 685.0625 C 181.449219 685.0625 160.054688 700.441406 160.054688 729.824219 C 160.054688 747.4375 169.742188 757.96875 185.96875 757.96875 C 193.59375 757.96875 198.769531 756.492188 203.152344 753.035156 L 210.351562 741.167969 L 209.351562 756.503906 L 219.886719 756.503906 L 226.136719 721.371094 L 198.3125 721.371094 L 196.472656 731.570312 L 211.671875 731.570312 L 210.984375 733.355469 C 207.238281 743.066406 200.160156 748.40625 191.046875 748.40625 C 181.007812 748.40625 175.046875 740.753906 175.046875 727.945312 C 175.046875 706.078125 187.769531 694.644531 200.328125 694.644531 C 209.863281 694.644531 214.792969 699.351562 214.992188 708.640625 L 228.992188 708.640625 C 229.441406 702.027344 227.710938 696.414062 224 692.402344 C 219.480469 687.597656 212.089844 685.0625 202.574219 685.0625 Z M 202.574219 685.0625 "/>
<path style=" stroke:none;fill-rule:nonzero;fill:rgb(0%,0%,0%);fill-opacity:1;" d="M 236.640625 757.816406 L 249.441406 685.222656 L 265.839844 685.222656 L 253.039062 757.816406 Z M 236.640625 757.816406 "/>
<path style=" stroke:none;fill-rule:nonzero;fill:rgb(0%,0%,0%);fill-opacity:1;" d="M 254.144531 759.128906 L 235.070312 759.128906 L 248.359375 683.910156 L 267.433594 683.910156 Z M 238.207031 756.503906 L 251.9375 756.503906 L 264.296875 686.535156 L 250.566406 686.535156 Z M 238.207031 756.503906 "/>
<path style=" stroke:none;fill-rule:nonzero;fill:rgb(0%,0%,0%);fill-opacity:1;" d="M 328.519531 707 L 311.910156 707 C 312.328125 700.265625 309.175781 695.949219 302.238281 695.949219 C 296.351562 695.949219 291.9375 699.105469 291.9375 705.101562 C 291.9375 709.519531 295.511719 712.363281 305.601562 714.78125 C 318.847656 718.046875 324.839844 724.667969 324.839844 734.347656 C 324.839844 750.554688 309.808594 759.289062 292.984375 759.289062 C 276.160156 759.289062 264.816406 751.714844 266.289062 736.070312 L 282.894531 736.070312 C 283 743.539062 288.257812 747.117188 294.894531 747.117188 C 301.535156 747.117188 307.089844 743.4375 307.089844 737.511719 C 307.089844 733.402344 303.726562 730.042969 295.425781 727.832031 C 282.175781 724.460938 274.183594 719.519531 274.183594 708.785156 C 274.183594 692.773438 288.480469 683.75 304.039062 683.75 C 322.105469 683.742188 329.257812 693.84375 328.519531 707 Z M 328.519531 707 "/>
<path style=" stroke:none;fill-rule:nonzero;fill:rgb(0%,0%,0%);fill-opacity:1;" d="M 292.984375 760.601562 C 282.585938 760.601562 274.585938 757.824219 269.785156 752.59375 C 265.945312 748.367188 264.320312 742.761719 264.984375 735.933594 L 265.097656 734.742188 L 284.199219 734.742188 L 284.199219 736.039062 C 284.289062 742.148438 288.28125 745.789062 294.871094 745.789062 C 301.273438 745.789062 305.753906 742.394531 305.753906 737.535156 C 305.753906 733.835938 302.152344 731.011719 295.0625 729.121094 C 284.078125 726.335938 272.847656 721.738281 272.847656 708.808594 C 272.847656 691.507812 288.527344 682.460938 304.046875 682.460938 C 313.039062 682.460938 319.863281 684.863281 324.335938 689.585938 C 328.335938 693.835938 330.257812 699.890625 329.855469 707.09375 L 329.785156 708.335938 L 310.511719 708.335938 L 310.601562 706.941406 C 310.800781 703.742188 310.105469 701.164062 308.585938 699.546875 C 307.0625 697.925781 305.046875 697.289062 302.238281 697.289062 C 296.640625 697.289062 293.246094 700.21875 293.246094 705.125 C 293.246094 707.910156 294.785156 710.859375 305.910156 713.53125 C 319.34375 716.839844 326.152344 723.851562 326.152344 734.347656 C 326.152344 752.386719 308.960938 760.601562 292.984375 760.601562 Z M 267.503906 737.382812 C 267.214844 742.898438 268.640625 747.421875 271.742188 750.832031 C 276.015625 755.523438 283.359375 758.039062 292.984375 758.039062 C 307.695312 758.039062 323.527344 750.648438 323.527344 734.421875 C 323.527344 725.140625 317.558594 719.160156 305.289062 716.132812 C 294.886719 713.636719 290.625 710.457031 290.625 705.171875 C 290.625 698.816406 295.183594 694.710938 302.238281 694.710938 C 305.800781 694.710938 308.585938 695.742188 310.503906 697.800781 C 312.289062 699.695312 313.222656 702.425781 313.265625 705.757812 L 327.246094 705.757812 C 327.34375 699.839844 325.648438 694.917969 322.398438 691.441406 C 318.441406 687.253906 312.265625 685.132812 304 685.132812 C 289.816406 685.132812 275.464844 693.285156 275.464844 708.855469 C 275.464844 717.824219 281.328125 722.972656 295.703125 726.628906 C 304.113281 728.863281 308.367188 732.546875 308.367188 737.582031 C 308.367188 743.890625 302.6875 748.472656 294.855469 748.472656 C 287.230469 748.472656 282.265625 744.277344 281.625 737.421875 Z M 267.503906 737.382812 "/>
<path style=" stroke:none;fill-rule:nonzero;fill:rgb(0%,0%,0%);fill-opacity:1;" d="M 377.089844 698.054688 L 366.574219 757.816406 L 350.175781 757.816406 L 360.6875 698.054688 L 336.511719 698.054688 L 338.824219 685.246094 L 403.625 685.246094 L 401.222656 698.054688 Z M 377.089844 698.054688 "/>
<path style=" stroke:none;fill-rule:nonzero;fill:rgb(0%,0%,0%);fill-opacity:1;" d="M 367.679688 759.128906 L 348.609375 759.128906 L 359.128906 699.367188 L 334.9375 699.367188 L 337.726562 683.910156 L 405.167969 683.910156 L 402.257812 699.367188 L 378.191406 699.367188 Z M 351.742188 756.503906 L 365.472656 756.503906 L 376 696.742188 L 400.089844 696.742188 L 402.015625 686.535156 L 339.921875 686.535156 L 338.089844 696.742188 L 362.257812 696.742188 Z M 351.742188 756.503906 "/>
<path style=" stroke:none;fill-rule:nonzero;fill:rgb(0%,0%,0%);fill-opacity:1;" d="M 446.792969 723.101562 C 453.191406 725.5 455.304688 731.515625 455.304688 744.347656 C 455.304688 750.136719 456.039062 754.554688 457.511719 757.816406 L 439.640625 757.816406 C 439.113281 754.132812 438.902344 750.34375 438.839844 740.769531 C 438.839844 733.933594 436.632812 729.722656 431.800781 729.410156 C 429.800781 729.304688 428.015625 729.304688 426.015625 729.304688 L 419.390625 729.304688 L 414.34375 757.816406 L 397.945312 757.816406 L 410.742188 685.222656 L 438.289062 685.222656 C 441.90625 685.171875 445.523438 685.34375 449.121094 685.742188 C 458.160156 686.800781 465.40625 691.425781 465.40625 701.523438 C 465.390625 712.996094 458.457031 720.152344 446.792969 723.101562 Z M 447.414062 705.628906 C 447.414062 700.578125 444.160156 698.6875 439.640625 698.265625 C 438.167969 698.160156 436.382812 698.054688 434.039062 698.054688 L 424.800781 698.054688 L 421.441406 717.207031 L 430.160156 717.207031 C 432.480469 717.207031 434.160156 717.207031 435.761719 717.09375 C 441.847656 716.566406 447.414062 713.628906 447.414062 705.628906 Z M 447.414062 705.628906 "/>
<path style=" stroke:none;fill-rule:nonzero;fill:rgb(0%,0%,0%);fill-opacity:1;" d="M 459.542969 759.128906 L 438.503906 759.128906 L 438.335938 758 C 437.785156 754.132812 437.585938 750.105469 437.488281 740.785156 C 437.488281 734.378906 435.527344 730.96875 431.671875 730.722656 C 429.710938 730.617188 427.953125 730.617188 425.976562 730.617188 L 420.457031 730.617188 L 415.40625 759.128906 L 396.335938 759.128906 L 409.601562 683.910156 L 438.238281 683.910156 C 441.90625 683.859375 445.570312 684.035156 449.214844 684.4375 C 460.3125 685.734375 466.679688 691.964844 466.679688 701.523438 C 466.679688 712.234375 461.007812 719.761719 450.222656 723.445312 C 455.441406 727.152344 456.585938 734.332031 456.585938 744.347656 C 456.585938 749.953125 457.273438 754.15625 458.679688 757.269531 Z M 440.800781 756.503906 L 455.59375 756.503906 C 454.417969 752.5625 453.875 748.457031 453.992188 744.347656 C 453.992188 731.699219 451.984375 726.460938 446.328125 724.332031 L 442.398438 722.84375 L 446.464844 721.820312 C 454.464844 719.792969 464.0625 714.613281 464.0625 701.523438 C 464.0625 691.019531 455.839844 687.855469 448.9375 687.046875 C 445.390625 686.65625 441.824219 686.484375 438.257812 686.535156 L 411.832031 686.535156 L 399.472656 756.503906 L 413.207031 756.503906 L 418.246094 727.984375 L 425.976562 727.984375 C 428 727.984375 429.808594 727.984375 431.824219 728.09375 C 435.617188 728.34375 440.121094 730.738281 440.121094 740.769531 C 440.207031 749.03125 440.367188 753.050781 440.800781 756.503906 Z M 430.183594 718.519531 L 419.886719 718.519531 L 423.710938 696.742188 L 434.113281 696.742188 C 436.464844 696.742188 438.273438 696.847656 439.769531 696.949219 C 445.753906 697.511719 448.777344 700.433594 448.777344 705.628906 C 448.777344 713.15625 444.207031 717.6875 435.902344 718.441406 C 434.238281 718.519531 432.527344 718.519531 430.175781 718.519531 Z M 423.03125 715.886719 L 430.183594 715.886719 C 432.449219 715.886719 434.121094 715.886719 435.671875 715.789062 C 440.425781 715.375 446.070312 713.277344 446.070312 705.628906 C 446.070312 701.867188 444.039062 700.023438 439.488281 699.578125 C 438.070312 699.480469 436.289062 699.367188 434.039062 699.367188 L 425.921875 699.367188 Z M 423.03125 715.886719 "/>
<path style=" stroke:none;fill-rule:nonzero;fill:rgb(0%,0%,0%);fill-opacity:1;" d="M 487.679688 737.292969 L 477.488281 757.816406 L 459.824219 757.816406 L 498.304688 685.222656 L 519.855469 685.222656 L 532.464844 757.816406 L 514.59375 757.816406 L 511.65625 737.292969 Z M 506.183594 700.160156 L 494.097656 724.355469 L 509.65625 724.355469 Z M 506.183594 700.160156 "/>
<path style=" stroke:none;fill-rule:nonzero;fill:rgb(0%,0%,0%);fill-opacity:1;" d="M 534.03125 759.128906 L 513.457031 759.128906 L 510.511719 738.617188 L 488.496094 738.617188 L 478.304688 759.128906 L 457.648438 759.128906 L 497.511719 683.910156 L 520.960938 683.910156 Z M 515.734375 756.503906 L 530.9375 756.503906 L 518.777344 686.535156 L 499.097656 686.535156 L 462.007812 756.503906 L 476.671875 756.503906 L 486.871094 735.980469 L 512.800781 735.980469 Z M 511.199219 725.667969 L 492 725.667969 L 506.929688 695.804688 Z M 496.257812 723.042969 L 508.167969 723.042969 L 505.511719 704.507812 Z M 496.257812 723.042969 "/>
<path style=" stroke:none;fill-rule:nonzero;fill:rgb(0%,0%,0%);fill-opacity:1;" d="M 577.039062 698.054688 L 566.527344 757.816406 L 550.128906 757.816406 L 560.648438 698.054688 L 536.464844 698.054688 L 538.777344 685.246094 L 603.535156 685.246094 L 601.136719 698.054688 Z M 577.039062 698.054688 "/>
<path style=" stroke:none;fill-rule:nonzero;fill:rgb(0%,0%,0%);fill-opacity:1;" d="M 567.632812 759.128906 L 548.558594 759.128906 L 559.078125 699.367188 L 534.894531 699.367188 L 537.679688 683.910156 L 605.121094 683.910156 L 602.207031 699.367188 L 578.144531 699.367188 Z M 551.695312 756.503906 L 565.433594 756.503906 L 575.945312 696.742188 L 600 696.742188 L 601.921875 686.535156 L 539.839844 686.535156 L 538 696.742188 L 562.175781 696.742188 Z M 551.695312 756.503906 "/>
<path style=" stroke:none;fill-rule:nonzero;fill:rgb(0%,0%,0%);fill-opacity:1;" d="M 621.832031 714.964844 L 655.785156 714.964844 L 653.472656 727.773438 L 619.511719 727.773438 L 616.574219 744.820312 L 653.886719 744.820312 L 651.574219 757.757812 L 597.855469 757.757812 L 610.65625 685.164062 L 663.320312 685.164062 L 661.007812 697.976562 L 624.800781 697.976562 Z M 621.832031 714.964844 "/>
<path style=" stroke:none;fill-rule:nonzero;fill:rgb(0%,0%,0%);fill-opacity:1;" d="M 652.671875 759.128906 L 596.296875 759.128906 L 609.601562 683.910156 L 664.9375 683.910156 L 662.152344 699.367188 L 625.878906 699.367188 L 623.390625 713.675781 L 657.351562 713.675781 L 654.566406 729.144531 L 620.625 729.144531 L 618.136719 743.554688 L 655.464844 743.554688 Z M 599.425781 756.503906 L 650.480469 756.503906 L 652.320312 746.191406 L 615.007812 746.191406 L 618.398438 726.511719 L 652.359375 726.511719 L 654.207031 716.308594 L 620.265625 716.308594 L 623.664062 696.742188 L 659.945312 696.742188 L 661.785156 686.535156 L 611.792969 686.535156 Z M 599.425781 756.503906 "/>
<path style=" stroke:none;fill-rule:nonzero;fill:rgb(0%,0%,0%);fill-opacity:1;" d="M 682.671875 429.058594 L 834.3125 421.132812 C 840.15625 420.75 845.890625 422.878906 850.074219 426.984375 C 854.257812 431.085938 856.496094 436.78125 856.230469 442.636719 L 852.3125 582.203125 C 851.992188 593.613281 842.128906 602.324219 830.425781 601.746094 L 686.425781 594.628906 C 676.664062 594.140625 668.601562 585.480469 668.3125 575.214844 L 664.800781 450.226562 C 664.496094 439.097656 672.441406 429.585938 682.671875 429.058594 Z M 682.671875 429.058594 "/>
<path style=" stroke:none;fill-rule:nonzero;fill:rgb(0%,0%,0%);fill-opacity:1;" d="M 701.726562 498.3125 C 701.726562 522.941406 720.984375 538.195312 749.902344 553.558594 C 751.761719 554.527344 753.976562 554.527344 755.832031 553.558594 C 772.632812 544.628906 783.480469 537.175781 790.910156 529.402344 C 799.710938 520.171875 804 510.011719 804 498.339844 C 804 479.921875 792 468.769531 780.183594 465.886719 C 777.871094 465.328125 775.5 465.042969 773.121094 465.039062 C 766.488281 465.03125 760.0625 467.339844 754.953125 471.574219 L 752.984375 473.175781 L 751.007812 471.574219 C 744.351562 466.105469 735.382812 464.109375 726.414062 466.105469 C 714.128906 468.792969 701.726562 479.820312 701.726562 498.3125 Z M 714.398438 498.3125 C 714.398438 486.0625 722.398438 479.964844 729.167969 478.449219 C 735.046875 477.144531 743.28125 478.539062 747.128906 486.769531 C 748.140625 488.957031 750.316406 490.375 752.726562 490.417969 C 755.136719 490.453125 757.359375 489.128906 758.480469 486.992188 C 761.519531 481.09375 766.855469 477.707031 773.121094 477.707031 C 774.488281 477.703125 775.847656 477.867188 777.175781 478.195312 C 784.007812 479.851562 791.3125 486.015625 791.3125 498.3125 C 791.3125 513.796875 781.296875 525.070312 754.351562 539.945312 L 752.847656 540.746094 L 751.351562 539.945312 C 724.425781 525.070312 714.398438 513.796875 714.398438 498.3125 Z M 714.398438 498.3125 "/>
<path style=" stroke:none;fill-rule:nonzero;fill:rgb(0%,0%,0%);fill-opacity:1;" d="M 523.328125 646 L 525.046875 646.800781 C 525.179688 646.859375 525.328125 646.863281 525.460938 646.8125 C 525.59375 646.761719 525.703125 646.660156 525.761719 646.527344 C 525.878906 646.253906 525.757812 645.933594 525.488281 645.804688 L 523.742188 645.007812 C 523.472656 644.886719 523.160156 645.007812 523.039062 645.277344 C 522.980469 645.410156 522.976562 645.558594 523.027344 645.691406 C 523.078125 645.824219 523.179688 645.933594 523.3125 645.992188 Z M 523.328125 646 "/>
<path style=" stroke:none;fill-rule:nonzero;fill:rgb(0%,0%,0%);fill-opacity:1;" d="M 528.992188 648.6875 L 530.65625 649.5625 C 530.832031 649.667969 531.050781 649.667969 531.226562 649.558594 C 531.402344 649.453125 531.503906 649.257812 531.492188 649.054688 C 531.480469 648.851562 531.355469 648.667969 531.167969 648.585938 L 529.480469 647.703125 C 529.351562 647.636719 529.199219 647.625 529.0625 647.671875 C 528.921875 647.714844 528.808594 647.8125 528.742188 647.945312 C 528.675781 648.070312 528.660156 648.222656 528.703125 648.363281 C 528.746094 648.5 528.847656 648.617188 528.976562 648.679688 Z M 528.992188 648.6875 "/>
<path style=" stroke:none;fill-rule:nonzero;fill:rgb(0%,0%,0%);fill-opacity:1;" d="M 534.480469 651.714844 L 536.078125 652.683594 C 536.34375 652.808594 536.660156 652.714844 536.8125 652.464844 C 536.960938 652.214844 536.898438 651.890625 536.664062 651.714844 L 535.0625 650.746094 C 534.890625 650.636719 534.675781 650.628906 534.496094 650.726562 C 534.316406 650.824219 534.203125 651.011719 534.203125 651.214844 C 534.199219 651.417969 534.308594 651.605469 534.488281 651.707031 Z M 534.480469 651.714844 "/>
<path style=" stroke:none;fill-rule:nonzero;fill:rgb(0%,0%,0%);fill-opacity:1;" d="M 539.777344 655.046875 L 541.328125 656.109375 C 541.496094 656.234375 541.722656 656.253906 541.910156 656.164062 C 542.097656 656.074219 542.226562 655.890625 542.238281 655.679688 C 542.253906 655.472656 542.152344 655.269531 541.976562 655.15625 L 540.375 654.09375 C 540.207031 653.949219 539.972656 653.914062 539.769531 654 C 539.566406 654.089844 539.433594 654.285156 539.425781 654.503906 C 539.414062 654.726562 539.53125 654.933594 539.726562 655.039062 Z M 539.777344 655.046875 "/>
<path style=" stroke:none;fill-rule:nonzero;fill:rgb(0%,0%,0%);fill-opacity:1;" d="M 544.871094 658.6875 L 546.359375 659.832031 C 546.613281 660.019531 546.964844 659.972656 547.160156 659.730469 C 547.339844 659.476562 547.296875 659.128906 547.054688 658.929688 L 545.601562 657.753906 C 545.34375 657.554688 544.976562 657.605469 544.78125 657.859375 C 544.582031 658.117188 544.632812 658.484375 544.886719 658.679688 Z M 544.871094 658.6875 "/>
<path style=" stroke:none;fill-rule:nonzero;fill:rgb(0%,0%,0%);fill-opacity:1;" d="M 549.753906 662.613281 L 551.167969 663.84375 C 551.417969 664.066406 551.804688 664.039062 552.023438 663.789062 C 552.246094 663.535156 552.21875 663.152344 551.96875 662.933594 L 550.527344 661.691406 C 550.277344 661.46875 549.898438 661.492188 549.675781 661.742188 C 549.457031 661.992188 549.476562 662.375 549.726562 662.597656 Z M 549.753906 662.613281 "/>
<path style=" stroke:none;fill-rule:nonzero;fill:rgb(0%,0%,0%);fill-opacity:1;" d="M 554.398438 666.808594 L 555.753906 668.121094 C 555.996094 668.355469 556.382812 668.347656 556.617188 668.105469 C 556.851562 667.859375 556.84375 667.472656 556.601562 667.238281 L 555.230469 665.925781 C 555.121094 665.8125 554.964844 665.746094 554.804688 665.746094 C 554.644531 665.746094 554.488281 665.8125 554.375 665.925781 C 554.257812 666.039062 554.191406 666.191406 554.191406 666.355469 C 554.191406 666.515625 554.257812 666.671875 554.375 666.78125 Z M 554.398438 666.808594 "/>
<path style=" stroke:none;fill-rule:nonzero;fill:rgb(0%,0%,0%);fill-opacity:1;" d="M 558.816406 671.257812 L 560.089844 672.636719 C 560.324219 672.8125 560.648438 672.796875 560.871094 672.605469 C 561.089844 672.414062 561.148438 672.09375 561.007812 671.835938 L 559.710938 670.441406 C 559.566406 670.261719 559.328125 670.179688 559.101562 670.226562 C 558.875 670.273438 558.691406 670.441406 558.628906 670.667969 C 558.5625 670.890625 558.628906 671.128906 558.800781 671.289062 Z M 558.816406 671.257812 "/>
<path style=" stroke:none;fill-rule:nonzero;fill:rgb(0%,0%,0%);fill-opacity:1;" d="M 562.976562 675.941406 L 564.175781 677.398438 C 564.300781 677.621094 564.546875 677.746094 564.800781 677.71875 C 565.054688 677.691406 565.265625 677.515625 565.34375 677.273438 C 565.417969 677.03125 565.34375 676.765625 565.152344 676.597656 L 563.9375 675.132812 C 563.710938 674.867188 563.316406 674.832031 563.046875 675.054688 C 562.777344 675.277344 562.738281 675.679688 562.960938 675.949219 Z M 562.976562 675.941406 "/>
<path style=" stroke:none;fill-rule:nonzero;fill:rgb(0%,0%,0%);fill-opacity:1;" d="M 566.871094 680.851562 L 567.992188 682.371094 C 568.214844 682.660156 568.625 682.714844 568.914062 682.496094 C 569.207031 682.273438 569.261719 681.859375 569.039062 681.570312 L 567.902344 680.042969 C 567.683594 679.753906 567.269531 679.699219 566.984375 679.921875 C 566.695312 680.140625 566.644531 680.554688 566.863281 680.84375 Z M 566.871094 680.851562 "/>
<path style=" stroke:none;fill-rule:nonzero;fill:rgb(0%,0%,0%);fill-opacity:1;" d="M 570.496094 685.964844 L 571.519531 687.566406 C 571.640625 687.789062 571.871094 687.925781 572.125 687.917969 C 572.375 687.910156 572.601562 687.761719 572.707031 687.535156 C 572.8125 687.304688 572.78125 687.035156 572.625 686.839844 L 571.574219 685.238281 C 571.480469 685.09375 571.328125 684.992188 571.160156 684.957031 C 570.988281 684.921875 570.808594 684.957031 570.664062 685.054688 C 570.519531 685.148438 570.417969 685.296875 570.382812 685.46875 C 570.347656 685.636719 570.382812 685.8125 570.480469 685.957031 Z M 570.496094 685.964844 "/>
<path style=" stroke:none;fill-rule:nonzero;fill:rgb(0%,0%,0%);fill-opacity:1;" d="M 573.824219 691.273438 L 574.769531 692.875 C 574.855469 693.03125 575.003906 693.144531 575.175781 693.191406 C 575.351562 693.234375 575.535156 693.207031 575.6875 693.117188 C 576.007812 692.929688 576.117188 692.515625 575.929688 692.195312 L 574.96875 690.554688 C 574.878906 690.402344 574.734375 690.289062 574.5625 690.242188 C 574.390625 690.199219 574.207031 690.222656 574.054688 690.3125 C 573.902344 690.402344 573.789062 690.546875 573.742188 690.71875 C 573.699219 690.890625 573.722656 691.074219 573.816406 691.226562 Z M 573.824219 691.273438 "/>
<path style=" stroke:none;fill-rule:nonzero;fill:rgb(0%,0%,0%);fill-opacity:1;" d="M 576.855469 696.757812 L 577.710938 698.433594 C 577.792969 698.59375 577.9375 698.714844 578.109375 698.773438 C 578.28125 698.828125 578.472656 698.8125 578.632812 698.726562 C 578.96875 698.558594 579.105469 698.144531 578.9375 697.808594 L 578.0625 696.117188 C 577.878906 695.816406 577.492188 695.707031 577.175781 695.867188 C 576.859375 696.027344 576.71875 696.40625 576.855469 696.734375 Z M 576.855469 696.757812 "/>
<path style=" stroke:none;fill-rule:nonzero;fill:rgb(0%,0%,0%);fill-opacity:1;" d="M 579.574219 702.402344 L 580.328125 704.125 C 580.484375 704.476562 580.894531 704.636719 581.246094 704.484375 C 581.417969 704.410156 581.546875 704.269531 581.613281 704.097656 C 581.679688 703.925781 581.675781 703.734375 581.601562 703.5625 L 580.800781 701.828125 C 580.644531 701.476562 580.238281 701.316406 579.886719 701.464844 C 579.539062 701.625 579.382812 702.035156 579.535156 702.386719 Z M 579.574219 702.402344 "/>
<path style=" stroke:none;fill-rule:nonzero;fill:rgb(0%,0%,0%);fill-opacity:1;" d="M 581.976562 708.183594 L 582.625 709.945312 C 582.757812 710.3125 583.164062 710.5 583.53125 710.367188 C 583.898438 710.230469 584.085938 709.824219 583.953125 709.457031 L 583.28125 707.679688 C 583.144531 707.316406 582.738281 707.128906 582.371094 707.265625 C 582.007812 707.402344 581.824219 707.8125 581.960938 708.175781 Z M 581.976562 708.183594 "/>
<path style=" stroke:none;fill-rule:nonzero;fill:rgb(0%,0%,0%);fill-opacity:1;" d="M 584 714.09375 L 584.550781 715.886719 C 584.667969 716.265625 585.066406 716.480469 585.449219 716.367188 C 585.824219 716.242188 586.039062 715.84375 585.929688 715.460938 L 585.359375 713.644531 C 585.214844 713.304688 584.835938 713.128906 584.484375 713.238281 C 584.132812 713.347656 583.921875 713.707031 583.992188 714.070312 Z M 584 714.09375 "/>
<path style=" stroke:none;fill-rule:nonzero;fill:rgb(0%,0%,0%);fill-opacity:1;" d="M 585.734375 720.113281 L 586.175781 721.9375 C 586.214844 722.214844 586.40625 722.449219 586.675781 722.535156 C 586.941406 722.625 587.234375 722.554688 587.429688 722.351562 C 587.625 722.152344 587.691406 721.859375 587.601562 721.59375 L 587.144531 719.746094 C 587.097656 719.558594 586.980469 719.394531 586.816406 719.292969 C 586.648438 719.195312 586.453125 719.164062 586.265625 719.207031 C 585.871094 719.308594 585.632812 719.703125 585.726562 720.097656 Z M 585.734375 720.113281 "/>
<path style=" stroke:none;fill-rule:nonzero;fill:rgb(0%,0%,0%);fill-opacity:1;" d="M 587.070312 726.222656 L 587.40625 728.070312 C 587.441406 728.34375 587.625 728.574219 587.878906 728.675781 C 588.136719 728.773438 588.425781 728.722656 588.632812 728.542969 C 588.839844 728.363281 588.933594 728.082031 588.871094 727.816406 L 588.527344 725.941406 C 588.503906 725.660156 588.320312 725.417969 588.054688 725.3125 C 587.792969 725.210938 587.492188 725.265625 587.285156 725.457031 C 587.078125 725.648438 586.992188 725.941406 587.070312 726.214844 Z M 587.070312 726.222656 "/>
<path style=" stroke:none;fill-rule:nonzero;fill:rgb(0%,0%,0%);fill-opacity:1;" d="M 588.039062 732.402344 L 588.257812 734.269531 C 588.335938 734.65625 588.695312 734.917969 589.089844 734.871094 C 589.480469 734.824219 589.773438 734.488281 589.761719 734.09375 L 589.535156 732.203125 C 589.484375 731.789062 589.109375 731.496094 588.695312 731.546875 C 588.28125 731.597656 587.988281 731.972656 588.039062 732.386719 Z M 588.039062 732.402344 "/>
<path style=" stroke:none;fill-rule:nonzero;fill:rgb(0%,0%,0%);fill-opacity:1;" d="M 588.632812 738.632812 L 588.734375 740.503906 C 588.773438 740.917969 589.121094 741.234375 589.535156 741.234375 C 589.945312 741.191406 590.257812 740.847656 590.257812 740.433594 L 590.144531 738.535156 C 590.226562 738.203125 590.085938 737.855469 589.792969 737.671875 C 589.503906 737.488281 589.128906 737.507812 588.863281 737.722656 C 588.597656 737.941406 588.496094 738.300781 588.617188 738.625 Z M 588.632812 738.632812 "/>
<path style=" stroke:none;fill-rule:nonzero;fill:rgb(0%,0%,0%);fill-opacity:1;" d="M 588.855469 744.875 L 588.855469 746.757812 C 588.769531 747.082031 588.890625 747.429688 589.167969 747.625 C 589.445312 747.816406 589.8125 747.816406 590.085938 747.625 C 590.363281 747.429688 590.488281 747.082031 590.398438 746.757812 L 590.398438 744.859375 C 590.488281 744.535156 590.363281 744.1875 590.085938 743.996094 C 589.8125 743.800781 589.445312 743.800781 589.167969 743.996094 C 588.890625 744.1875 588.769531 744.535156 588.855469 744.859375 Z M 588.855469 744.875 "/>
<path style=" stroke:none;fill-rule:nonzero;fill:rgb(0%,0%,0%);fill-opacity:1;" d="M 588.71875 751.128906 L 588.609375 753.003906 C 588.605469 753.417969 588.921875 753.765625 589.335938 753.804688 C 589.753906 753.804688 590.101562 753.484375 590.136719 753.066406 L 590.246094 751.167969 C 590.179688 750.808594 589.875 750.535156 589.507812 750.515625 C 589.136719 750.496094 588.804688 750.730469 588.695312 751.082031 Z M 588.71875 751.128906 "/>
<path style=" stroke:none;fill-rule:nonzero;fill:rgb(0%,0%,0%);fill-opacity:1;" d="M 588.222656 757.398438 L 588.007812 759.265625 C 587.902344 759.574219 587.996094 759.917969 588.242188 760.132812 C 588.492188 760.347656 588.847656 760.386719 589.136719 760.234375 C 589.425781 760.082031 589.59375 759.765625 589.558594 759.441406 L 589.777344 757.550781 C 589.8125 757.125 589.511719 756.746094 589.089844 756.6875 C 588.664062 756.648438 588.28125 756.949219 588.222656 757.375 Z M 588.222656 757.398438 "/>
<path style=" stroke:none;fill-rule:nonzero;fill:rgb(0%,0%,0%);fill-opacity:1;" d="M 514.640625 633.589844 L 514.96875 642.84375 L 508.566406 639.089844 Z M 514.640625 633.589844 "/>
<path style=" stroke:none;fill-rule:nonzero;fill:rgb(0%,0%,0%);fill-opacity:1;" d="M 472.886719 629.761719 L 498.625 650.785156 C 499.117188 651.191406 499.753906 651.375 500.386719 651.300781 C 501.019531 651.222656 501.59375 650.890625 501.976562 650.378906 L 522.097656 623.691406 C 522.324219 623.386719 522.34375 622.972656 522.148438 622.644531 C 521.953125 622.316406 521.578125 622.140625 521.199219 622.195312 Z M 472.886719 629.761719 "/>
<path style=" stroke:none;fill-rule:nonzero;fill:rgb(0%,0%,0%);fill-opacity:1;" d="M 514.640625 633.589844 L 472.886719 629.761719 L 511.398438 637.902344 L 511.601562 640.464844 Z M 514.640625 633.589844 "/>
<path style=" stroke:none;fill-rule:nonzero;fill:rgb(0%,0%,0%);fill-opacity:1;" d="M 509.464844 640.441406 L 514.96875 642.84375 L 511.398438 637.902344 Z M 509.464844 640.441406 "/>
<path style=" stroke:none;fill-rule:nonzero;fill:rgb(0%,0%,0%);fill-opacity:1;" d="M 689.183594 594.871094 C 688.199219 595.917969 687.214844 596.472656 686.257812 596.015625 C 682.257812 594.222656 670.878906 558.546875 668.585938 560.289062 C 664.289062 563.558594 674.703125 582.414062 672.414062 583.574219 C 670.128906 584.734375 663.425781 562.84375 658.953125 563.453125 C 654.480469 564.0625 667.28125 583.542969 666.015625 585.238281 C 664.753906 586.9375 651.457031 568.578125 648.992188 572.429688 C 647.648438 574.527344 661.222656 588.441406 658.59375 589.730469 C 655.960938 591.019531 643.847656 581.980469 642.542969 584.542969 C 641.238281 587.105469 653.742188 590.730469 657.449219 597.695312 C 661.152344 604.660156 667.511719 607.710938 670.0625 620.570312 C 670.425781 622.410156 670.816406 624.957031 671.246094 628 L 689.648438 622.773438 C 687.433594 617.417969 685.984375 613.820312 685.792969 613.292969 C 685.320312 612.019531 690.855469 602.660156 694.855469 594.878906 Z M 689.183594 594.871094 "/>
<path style=" stroke:none;fill-rule:nonzero;fill:rgb(0%,0%,0%);fill-opacity:1;" d="M 796 759 C 796.464844 752.722656 796.800781 744.394531 796.679688 733.8125 C 796.367188 705.46875 792.414062 629.816406 790.28125 629.59375 C 790.097656 629.59375 789.480469 629.433594 789.480469 629.433594 C 789.480469 629.433594 789.375 680.675781 780.542969 759 Z M 796 759 "/>
<path style=" stroke:none;fill-rule:nonzero;fill:rgb(0%,0%,0%);fill-opacity:1;" d="M 796 759 C 796.464844 752.722656 796.800781 744.394531 796.679688 733.8125 C 796.367188 705.46875 792.414062 629.816406 790.28125 629.59375 C 790.097656 629.59375 789.480469 629.433594 789.480469 629.433594 C 789.480469 629.433594 789.375 680.675781 780.542969 759 Z M 796 759 "/>
<path style=" stroke:none;fill-rule:nonzero;fill:rgb(0%,0%,0%);fill-opacity:1;" d="M 786.929688 606.625 L 789.449219 629.433594 C 789.449219 629.433594 774.929688 659.640625 766.015625 656.277344 C 758.535156 653.460938 763.230469 630.988281 763.230469 630.988281 C 763.230469 630.988281 764.089844 625.847656 765.375 619.921875 C 766.273438 615.78125 766.9375 611.324219 766.617188 608.113281 C 765.824219 600.304688 786.929688 606.625 786.929688 606.625 Z M 786.929688 606.625 "/>
<path style=" stroke:none;fill-rule:nonzero;fill:rgb(0%,0%,0%);fill-opacity:1;" d="M 762.855469 556.007812 C 762.855469 556.007812 755.320312 569.554688 755.519531 580.441406 C 755.71875 591.332031 758.601562 598.554688 758.601562 598.554688 L 783.457031 563.644531 Z M 762.855469 556.007812 "/>
<path style=" stroke:none;fill-rule:nonzero;fill:rgb(0%,0%,0%);fill-opacity:1;" d="M 752.511719 578.449219 C 752.425781 582.277344 754.152344 585.421875 756.375 585.472656 C 758.601562 585.519531 760.472656 582.46875 760.558594 578.640625 C 760.648438 574.8125 758.960938 571.667969 756.703125 571.613281 C 754.449219 571.554688 752.609375 574.621094 752.511719 578.449219 Z M 752.511719 578.449219 "/>
<path style=" stroke:none;fill-rule:nonzero;fill:rgb(0%,0%,0%);fill-opacity:1;" d="M 792.726562 568.199219 C 793.34375 568.023438 795.734375 599.585938 787.175781 607.71875 C 778.617188 615.855469 762.753906 617.753906 757.527344 610.632812 C 751.742188 602.757812 754.046875 569.121094 767.128906 560.996094 C 780.207031 552.867188 792.726562 568.199219 792.726562 568.199219 Z M 792.726562 568.199219 "/>
<path style=" stroke:none;fill-rule:nonzero;fill:rgb(0%,0%,0%);fill-opacity:1;" d="M 793.527344 548.433594 C 800.976562 554.039062 804.726562 558.21875 810.273438 568.738281 C 817.121094 581.667969 806.679688 596.429688 797.472656 602.699219 C 788.265625 608.96875 787.9375 615.6875 787.9375 615.6875 L 787.214844 611.613281 C 786.921875 610.371094 786.863281 609.085938 787.046875 607.824219 C 787.300781 606.640625 787.671875 605.488281 788.160156 604.382812 C 788.847656 602.554688 791.015625 596.328125 791.929688 594.652344 C 794.328125 590.25 794.785156 589.296875 793.128906 585.414062 C 791.855469 582.429688 792.527344 575.574219 790.535156 570.636719 L 777.320312 568.839844 C 777.320312 568.839844 769.03125 567.519531 764.558594 563.09375 C 751.703125 550.417969 773.839844 533.414062 793.527344 548.433594 Z M 793.527344 548.433594 "/>
<path style=" stroke:none;fill-rule:nonzero;fill:rgb(0%,0%,0%);fill-opacity:1;" d="M 790.304688 589.136719 C 788.976562 592.722656 789.585938 596.261719 791.664062 597.039062 C 793.742188 597.816406 796.519531 595.535156 797.847656 591.949219 C 799.175781 588.359375 798.574219 584.824219 796.488281 584.046875 C 794.398438 583.269531 791.640625 585.550781 790.304688 589.136719 Z M 790.304688 589.136719 "/>
<path style=" stroke:none;fill-rule:nonzero;fill:rgb(0%,0%,0%);fill-opacity:1;" d="M 776 600.226562 L 760.335938 598.824219 C 760.335938 598.824219 760.167969 604.804688 767.039062 605.621094 C 775.414062 606.625 776 600.226562 776 600.226562 Z M 776 600.226562 "/>
<path style=" stroke:none;fill-rule:nonzero;fill:rgb(0%,0%,0%);fill-opacity:1;" d="M 781.601562 584.511719 C 781.527344 585.316406 780.976562 585.996094 780.207031 586.234375 C 779.4375 586.476562 778.597656 586.226562 778.082031 585.605469 C 777.566406 584.984375 777.476562 584.113281 777.855469 583.398438 C 778.234375 582.683594 779.003906 582.269531 779.808594 582.347656 C 780.898438 582.453125 781.699219 583.417969 781.601562 584.511719 Z M 781.601562 584.511719 "/>
<path style=" stroke:none;fill-rule:nonzero;fill:rgb(0%,0%,0%);fill-opacity:1;" d="M 765.105469 579.179688 C 765.171875 580.273438 764.339844 581.214844 763.246094 581.285156 C 762.15625 581.351562 761.210938 580.519531 761.144531 579.425781 C 761.074219 578.332031 761.90625 577.390625 763 577.320312 C 764.09375 577.25 765.035156 578.082031 765.105469 579.179688 Z M 765.105469 579.179688 "/>
<path style=" stroke:none;fill-rule:nonzero;fill:rgb(0%,0%,0%);fill-opacity:1;" d="M 777.808594 580.28125 C 778.007812 580.382812 778.242188 580.382812 778.441406 580.28125 C 779.273438 579.917969 780.214844 579.871094 781.078125 580.15625 C 781.90625 580.542969 782.53125 581.265625 782.792969 582.140625 C 782.859375 582.3125 782.992188 582.453125 783.160156 582.527344 C 783.332031 582.605469 783.523438 582.609375 783.695312 582.539062 C 784.058594 582.402344 784.238281 582 784.105469 581.636719 C 783.707031 580.390625 782.792969 579.378906 781.601562 578.859375 C 780.378906 578.433594 779.039062 578.488281 777.855469 579.007812 C 777.503906 579.175781 777.355469 579.59375 777.519531 579.945312 C 777.574219 580.085938 777.675781 580.207031 777.808594 580.28125 Z M 777.808594 580.28125 "/>
<path style=" stroke:none;fill-rule:nonzero;fill:rgb(0%,0%,0%);fill-opacity:1;" d="M 760.679688 575.773438 C 760.886719 575.855469 761.121094 575.828125 761.304688 575.703125 C 762.078125 575.222656 762.996094 575.035156 763.894531 575.175781 C 764.769531 575.429688 765.496094 576.046875 765.886719 576.871094 C 766.003906 577.105469 766.242188 577.257812 766.503906 577.261719 C 766.765625 577.269531 767.011719 577.128906 767.136719 576.898438 C 767.261719 576.667969 767.25 576.386719 767.105469 576.167969 C 766.523438 574.996094 765.464844 574.136719 764.199219 573.804688 C 762.925781 573.574219 761.609375 573.835938 760.519531 574.535156 C 760.199219 574.753906 760.117188 575.191406 760.335938 575.511719 C 760.417969 575.632812 760.539062 575.726562 760.679688 575.773438 Z M 760.679688 575.773438 "/>
<path style=" stroke:none;fill-rule:nonzero;fill:rgb(0%,0%,0%);fill-opacity:1;" d="M 765.472656 579.371094 C 765.5 579.699219 765.320312 580.007812 765.023438 580.152344 C 764.730469 580.296875 764.375 580.246094 764.132812 580.023438 C 763.890625 579.800781 763.808594 579.453125 763.929688 579.144531 C 764.046875 578.835938 764.34375 578.632812 764.671875 578.632812 C 765.089844 578.632812 765.4375 578.953125 765.472656 579.371094 Z M 765.472656 579.371094 "/>
<path style=" stroke:none;fill-rule:nonzero;fill:rgb(0%,0%,0%);fill-opacity:1;" d="M 781.929688 585.085938 C 781.886719 585.527344 781.492188 585.851562 781.050781 585.8125 C 780.609375 585.769531 780.285156 585.375 780.328125 584.933594 C 780.371094 584.492188 780.761719 584.167969 781.203125 584.210938 C 781.644531 584.25 781.96875 584.644531 781.929688 585.085938 Z M 781.929688 585.085938 "/>
<path style=" stroke:none;fill-rule:nonzero;fill:rgb(0%,0%,0%);fill-opacity:1;" d="M 760.34375 578.539062 C 760.519531 578.601562 760.71875 578.566406 760.863281 578.449219 C 761.535156 577.898438 762.402344 577.640625 763.265625 577.742188 C 764.128906 577.839844 764.914062 578.285156 765.441406 578.976562 C 765.640625 579.199219 765.980469 579.214844 766.199219 579.019531 C 766.421875 578.820312 766.4375 578.476562 766.238281 578.257812 C 764.746094 576.425781 762.050781 576.148438 760.214844 577.640625 C 759.992188 577.828125 759.964844 578.160156 760.152344 578.386719 C 760.203125 578.449219 760.269531 578.5 760.34375 578.539062 Z M 760.34375 578.539062 "/>
<path style=" stroke:none;fill-rule:nonzero;fill:rgb(0%,0%,0%);fill-opacity:1;" d="M 776.921875 583.003906 C 777.082031 583.101562 777.285156 583.101562 777.449219 583.003906 C 778.195312 582.5625 779.09375 582.445312 779.929688 582.675781 C 780.765625 582.910156 781.472656 583.472656 781.886719 584.238281 C 781.964844 584.351562 782.085938 584.433594 782.222656 584.457031 C 782.359375 584.484375 782.5 584.453125 782.617188 584.375 C 782.855469 584.210938 782.917969 583.886719 782.761719 583.644531 C 781.5625 581.601562 778.941406 580.914062 776.894531 582.109375 C 776.777344 582.179688 776.691406 582.296875 776.65625 582.429688 C 776.625 582.566406 776.648438 582.710938 776.71875 582.828125 C 776.769531 582.90625 776.839844 582.964844 776.921875 583.003906 Z M 776.921875 583.003906 "/>
<path style=" stroke:none;fill-rule:nonzero;fill:rgb(0%,0%,0%);fill-opacity:1;" d="M 772.34375 579.546875 C 772.199219 579.863281 772.023438 580.164062 771.816406 580.441406 C 770.960938 581.730469 770.167969 583.070312 769.414062 584.445312 C 768.257812 586.609375 767.183594 588.929688 765.257812 590.449219 C 764.933594 590.679688 764.644531 590.949219 764.390625 591.25 C 763.222656 592.796875 765.992188 594.214844 767.167969 594.453125 C 768.34375 594.695312 768.945312 594.164062 769.921875 593.703125 C 770.179688 593.539062 770.507812 593.539062 770.769531 593.703125 C 771.027344 593.957031 771.070312 594.359375 770.863281 594.660156 C 770.65625 594.949219 770.359375 595.164062 770.023438 595.277344 C 767.527344 596.304688 763.464844 595.34375 763.238281 592.164062 C 763.179688 590.714844 763.988281 589.367188 765.296875 588.738281 C 765.390625 588.6875 765.511719 588.609375 765.480469 588.503906 C 765.449219 588.402344 765.273438 588.570312 765.375 588.570312 C 767.339844 585.320312 769.289062 582.066406 771.230469 578.808594 C 771.347656 578.652344 771.53125 578.558594 771.726562 578.558594 C 771.921875 578.558594 772.109375 578.652344 772.222656 578.808594 C 772.398438 579.011719 772.445312 579.296875 772.34375 579.546875 Z M 772.34375 579.546875 "/>
<path style=" stroke:none;fill-rule:nonzero;fill:rgb(0%,0%,0%);fill-opacity:1;" d="M 789.441406 629.433594 L 763.449219 630.003906 C 763.449219 630.003906 758.273438 637.085938 752.542969 653.46875 C 750.046875 660.601562 747.320312 694.050781 744.472656 713.027344 C 740.800781 737.625 726.398438 759 726.398438 759 L 780.503906 759 C 789.335938 680.707031 789.441406 629.433594 789.441406 629.433594 Z M 789.441406 629.433594 "/>
<path style=" stroke:none;fill-rule:nonzero;fill:rgb(0%,0%,0%);fill-opacity:1;" d="M 763.695312 629.921875 L 763.414062 629.921875 C 763.414062 629.921875 761.921875 630.011719 754.304688 630.378906 C 751.105469 630.53125 747.785156 630.617188 744.808594 631.914062 C 738.601562 634.628906 705.351562 670.167969 702.542969 668.992188 C 701.742188 668.648438 698.542969 654.582031 690.785156 615.765625 C 690.433594 613.988281 668.566406 621.058594 668.566406 621.058594 C 668.566406 621.058594 673.753906 702.90625 690.839844 708.414062 C 696.335938 710.183594 728.632812 691.035156 736.894531 686.046875 C 736.304688 695.925781 735.945312 707.183594 734.265625 717.742188 C 731.59375 734.558594 723.367188 749.039062 716.273438 759 L 745.03125 759 C 748.230469 737.03125 760.800781 651.714844 762.398438 637.304688 Z M 763.695312 629.921875 "/>
</g>
</svg>
