<svg id="Capa_1" data-name="Capa 1" xmlns="http://www.w3.org/2000/svg" xmlns:xlink="http://www.w3.org/1999/xlink" viewBox="0 0 585 210"><defs><style>.cls-1{fill:none;}.cls-2{fill:#70d44b;}.cls-14,.cls-26,.cls-3,.cls-6{fill:#fff;}.cls-3{opacity:0.6;}.cls-4{fill:#ff9015;}.cls-5{fill:url(#Degradado_sin_nombre_72);}.cls-7{fill:url(#Degradado_sin_nombre_68);}.cls-8{fill:url(#Degradado_sin_nombre_107);}.cls-9{fill:url(#Degradado_sin_nombre_107-2);}.cls-10{fill:url(#Degradado_sin_nombre_27);}.cls-11{fill:url(#Degradado_sin_nombre_27-2);}.cls-12{fill:url(#Degradado_sin_nombre_27-3);}.cls-13{fill:url(#Degradado_sin_nombre_27-4);}.cls-14{opacity:0.41;}.cls-15{fill:url(#Degradado_sin_nombre_107-3);}.cls-16{fill:url(#Degradado_sin_nombre_83);}.cls-17{fill:url(#Degradado_sin_nombre_83-2);}.cls-18{fill:url(#Degradado_sin_nombre_83-3);}.cls-19{clip-path:url(#clip-path);}.cls-20{fill:url(#Degradado_sin_nombre_107-4);}.cls-21{fill:url(#Degradado_sin_nombre_107-5);}.cls-22{fill:url(#Degradado_sin_nombre_46);}.cls-23{fill:url(#Degradado_sin_nombre_56);}.cls-24{fill:url(#Degradado_sin_nombre_46-2);}.cls-25{fill:url(#Degradado_sin_nombre_58);}.cls-26{fill-rule:evenodd;}.cls-27{fill:url(#Degradado_sin_nombre_147);}.cls-28{fill:url(#linear-gradient);}.cls-29{fill:url(#linear-gradient-2);}.cls-30{fill:url(#Degradado_sin_nombre_147-2);}.cls-31{fill:url(#linear-gradient-3);}.cls-32{fill:url(#linear-gradient-4);}.cls-33{fill:url(#linear-gradient-5);}.cls-34{fill:url(#Degradado_sin_nombre_36);}.cls-35{fill:url(#Degradado_sin_nombre_36-2);}.cls-36{fill:url(#Degradado_sin_nombre_36-3);}.cls-37{fill:url(#linear-gradient-6);}.cls-38{fill:url(#Degradado_sin_nombre_36-4);}.cls-39{fill:url(#Degradado_sin_nombre_36-5);}.cls-40{fill:url(#Degradado_sin_nombre_36-6);}.cls-41{fill:url(#Degradado_sin_nombre_144);}.cls-42{fill:url(#Degradado_sin_nombre_36-7);}.cls-43{fill:url(#Degradado_sin_nombre_107-6);}.cls-44{fill:url(#Degradado_sin_nombre_36-8);}.cls-45{fill:url(#linear-gradient-7);}.cls-46{fill:#e58761;}.cls-47{opacity:0.1;}</style><linearGradient id="Degradado_sin_nombre_72" x1="-247.17" y1="-975.01" x2="-267.94" y2="-895.07" gradientTransform="translate(153.04 1012.15) rotate(23.48)" gradientUnits="userSpaceOnUse"><stop offset="0" stop-color="#3fcefc"/><stop offset="0.15" stop-color="#40c7f6"/><stop offset="0.36" stop-color="#41b5e7"/><stop offset="0.61" stop-color="#4397ce"/><stop offset="0.89" stop-color="#466eab"/><stop offset="1" stop-color="#485a9a"/></linearGradient><linearGradient id="Degradado_sin_nombre_68" x1="-286.48" y1="-948.98" x2="-331.8" y2="-823.1" gradientTransform="translate(153.04 1012.15) rotate(23.48)" gradientUnits="userSpaceOnUse"><stop offset="0" stop-color="#3fcefc"/><stop offset="0.14" stop-color="#40c1f1"/><stop offset="0.41" stop-color="#43a0d5"/><stop offset="0.76" stop-color="#476ba8"/><stop offset="1" stop-color="#4a4286"/></linearGradient><linearGradient id="Degradado_sin_nombre_107" x1="-2888.18" y1="175.42" x2="-2843.23" y2="40.56" gradientTransform="matrix(-1, 0, 0, 1, -2574.22, 0)" gradientUnits="userSpaceOnUse"><stop offset="0" stop-color="#4d4d4d"/><stop offset="1" stop-color="#1a1a1a"/></linearGradient><linearGradient id="Degradado_sin_nombre_107-2" x1="-2788.47" y1="168.34" x2="-2979.16" y2="214.72" gradientTransform="matrix(1, 0, 0, -1, 3165.2, 376.2)" xlink:href="#Degradado_sin_nombre_107"/><linearGradient id="Degradado_sin_nombre_27" x1="209.32" y1="155.34" x2="292.7" y2="155.34" gradientUnits="userSpaceOnUse"><stop offset="0" stop-color="#fdf53f"/><stop offset="1" stop-color="#eb9553"/></linearGradient><linearGradient id="Degradado_sin_nombre_27-2" x1="299.51" y1="93.78" x2="381.39" y2="93.78" xlink:href="#Degradado_sin_nombre_27"/><linearGradient id="Degradado_sin_nombre_27-3" x1="300.6" y1="127.73" x2="382.48" y2="127.73" xlink:href="#Degradado_sin_nombre_27"/><linearGradient id="Degradado_sin_nombre_27-4" x1="301.82" y1="161.46" x2="383.71" y2="161.46" xlink:href="#Degradado_sin_nombre_27"/><linearGradient id="Degradado_sin_nombre_107-3" x1="211.52" y1="166.9" x2="247.77" y2="118.27" gradientTransform="matrix(1, 0, 0, 1, 0, 0)" xlink:href="#Degradado_sin_nombre_107"/><linearGradient id="Degradado_sin_nombre_83" x1="272.58" y1="49.28" x2="338.57" y2="166.82" gradientUnits="userSpaceOnUse"><stop offset="0" stop-color="#99ca2f"/><stop offset="0.13" stop-color="#8fc62e"/><stop offset="0.34" stop-color="#74bc2d"/><stop offset="0.62" stop-color="#48ac2b"/><stop offset="0.94" stop-color="#0b9628"/><stop offset="1" stop-color="#009227"/></linearGradient><linearGradient id="Degradado_sin_nombre_83-2" x1="397.1" y1="64.32" x2="329.89" y2="92.33" xlink:href="#Degradado_sin_nombre_83"/><linearGradient id="Degradado_sin_nombre_83-3" x1="329.38" y1="88.68" x2="356.05" y2="86.26" xlink:href="#Degradado_sin_nombre_83"/><clipPath id="clip-path"><path class="cls-1" d="M341.35,134.2c-.91-.93-2.91-4.53-4.62-13.82a189.8,189.8,0,0,1-2.56-32.79,189.89,189.89,0,0,1,2.56-32.79c1.71-9.29,3.71-12.88,4.62-13.81.92.93,2.92,4.52,4.63,13.81,1.65,9,14.69,20.62,14.69,32.79s-13,23.82-14.69,32.79C344.27,129.67,342.27,133.27,341.35,134.2Z"/></clipPath><linearGradient id="Degradado_sin_nombre_107-4" x1="363.03" y1="85.94" x2="291.11" y2="90.07" gradientTransform="matrix(1, 0, 0, 1, 0, 0)" xlink:href="#Degradado_sin_nombre_107"/><linearGradient id="Degradado_sin_nombre_107-5" x1="226.78" y1="111.5" x2="224.13" y2="44.74" gradientTransform="matrix(1, 0, 0, 1, 0, 0)" xlink:href="#Degradado_sin_nombre_107"/><linearGradient id="Degradado_sin_nombre_46" x1="383.25" y1="83.88" x2="369.69" y2="107.37" gradientTransform="translate(376.11 -292.8) rotate(75.69)" gradientUnits="userSpaceOnUse"><stop offset="0" stop-color="#3fcefc"/><stop offset="0.25" stop-color="#41b6e8"/><stop offset="0.76" stop-color="#457ab5"/><stop offset="1" stop-color="#475c9c"/></linearGradient><linearGradient id="Degradado_sin_nombre_56" x1="381.19" y1="122.54" x2="369.39" y2="142.97" gradientTransform="translate(410.5 -263.77) rotate(75.59)" gradientUnits="userSpaceOnUse"><stop offset="0" stop-color="#3fcefc"/><stop offset="0.31" stop-color="#41b6e8"/><stop offset="0.96" stop-color="#457ab5"/><stop offset="1" stop-color="#4576b2"/></linearGradient><linearGradient id="Degradado_sin_nombre_46-2" x1="373.07" y1="42.95" x2="357.89" y2="92.21" gradientTransform="translate(337.34 -307.04) rotate(75.59)" xlink:href="#Degradado_sin_nombre_46"/><linearGradient id="Degradado_sin_nombre_58" x1="357.88" y1="97.37" x2="332.78" y2="168.55" gradientUnits="userSpaceOnUse"><stop offset="0" stop-color="#3fcefc"/><stop offset="0.19" stop-color="#41b7e9"/><stop offset="0.54" stop-color="#4394cb"/><stop offset="0.82" stop-color="#447eb9"/><stop offset="1" stop-color="#4576b2"/></linearGradient><linearGradient id="Degradado_sin_nombre_147" x1="13521.92" y1="113.86" x2="13481.02" y2="158.35" gradientTransform="translate(-13248.03 -45.76) rotate(0.54)" gradientUnits="userSpaceOnUse"><stop offset="0" stop-color="#333"/><stop offset="1"/></linearGradient><linearGradient id="linear-gradient" x1="13508.64" y1="117.16" x2="13512.28" y2="117.16" gradientTransform="translate(-13248.03 -45.76) rotate(0.54)" gradientUnits="userSpaceOnUse"><stop offset="0" stop-color="#f9b776"/><stop offset="1" stop-color="#f47960"/></linearGradient><linearGradient id="linear-gradient-2" x1="13525.14" y1="63.55" x2="13490.34" y2="110.72" gradientTransform="translate(-13248.03 -45.76) rotate(0.54)" gradientUnits="userSpaceOnUse"><stop offset="0" stop-color="#2b3582"/><stop offset="1" stop-color="#150e42"/></linearGradient><linearGradient id="Degradado_sin_nombre_147-2" x1="13512.74" y1="105.42" x2="13471.84" y2="149.91" xlink:href="#Degradado_sin_nombre_147"/><linearGradient id="linear-gradient-3" x1="13495.55" y1="116.98" x2="13498.69" y2="116.98" xlink:href="#linear-gradient"/><linearGradient id="linear-gradient-4" x1="13518.94" y1="58.97" x2="13484.14" y2="106.14" xlink:href="#linear-gradient-2"/><linearGradient id="linear-gradient-5" x1="-4673.47" y1="107.69" x2="-4694.98" y2="190.48" gradientTransform="matrix(-1, 0, 0, 1, -4417.8, 0)" gradientUnits="userSpaceOnUse"><stop offset="0" stop-color="#53d8ff"/><stop offset="1" stop-color="#3840f7"/></linearGradient><linearGradient id="Degradado_sin_nombre_36" x1="13523.6" y1="22.38" x2="13542.16" y2="22.38" gradientTransform="translate(-13248.03 -45.76) rotate(0.54)" gradientUnits="userSpaceOnUse"><stop offset="0" stop-color="#fcdeb3"/><stop offset="1" stop-color="#f9c476"/></linearGradient><linearGradient id="Degradado_sin_nombre_36-2" x1="-6821.29" y1="18.34" x2="-6808.83" y2="46.68" gradientTransform="matrix(-1, -0.01, -0.01, 1, -6531.31, 18.98)" xlink:href="#Degradado_sin_nombre_36"/><linearGradient id="Degradado_sin_nombre_36-3" x1="13542.07" y1="9.83" x2="13547.27" y2="1.84" xlink:href="#Degradado_sin_nombre_36"/><linearGradient id="linear-gradient-6" x1="-4656.82" y1="112.01" x2="-4678.33" y2="194.81" xlink:href="#linear-gradient-5"/><linearGradient id="Degradado_sin_nombre_36-4" x1="13482.98" y1="48.67" x2="13506.47" y2="48.67" xlink:href="#Degradado_sin_nombre_36"/><linearGradient id="Degradado_sin_nombre_36-5" x1="13501.02" y1="23.88" x2="13510.31" y2="23.88" xlink:href="#Degradado_sin_nombre_36"/><linearGradient id="Degradado_sin_nombre_36-6" x1="4071.22" y1="6995.45" x2="4067.75" y2="6984" gradientTransform="matrix(0.75, -0.66, 0.66, 0.75, -7407.07, -2480.3)" xlink:href="#Degradado_sin_nombre_36"/><linearGradient id="Degradado_sin_nombre_144" x1="4068.09" y1="6975.51" x2="4070.99" y2="6992.07" gradientTransform="matrix(0.75, -0.66, 0.66, 0.75, -7407.07, -2480.3)" gradientUnits="userSpaceOnUse"><stop offset="0" stop-color="#666"/><stop offset="1"/></linearGradient><linearGradient id="Degradado_sin_nombre_36-7" x1="4067.67" y1="6995.4" x2="4064.55" y2="6985.1" gradientTransform="matrix(0.75, -0.66, 0.66, 0.75, -7407.07, -2480.3)" xlink:href="#Degradado_sin_nombre_36"/><linearGradient id="Degradado_sin_nombre_107-6" x1="13227.39" y1="116.08" x2="13240.35" y2="170.08" gradientTransform="translate(-12963.12)" xlink:href="#Degradado_sin_nombre_107"/><linearGradient id="Degradado_sin_nombre_36-8" x1="13218.51" y1="130.36" x2="13225.86" y2="130.36" gradientTransform="translate(-12963.12)" xlink:href="#Degradado_sin_nombre_36"/><linearGradient id="linear-gradient-7" x1="-4687.29" y1="121.84" x2="-4685.36" y2="129.91" xlink:href="#linear-gradient-5"/></defs><rect class="cls-2" width="585" height="210"/><path class="cls-3" d="M435.1,94.61A48.71,48.71,0,0,0,424.4,90c-7.43-2.24-15.81-1.63-23-4.94-11.22-5.19-6.73-14.86-4-24.51,2.64-9.26-4.5-22.83-11-28.76-26.95-24.6-66.61-10.44-96.36-.45-19.37,6.5-41.08,7.14-61,2.77-17.54-3.84-34.36-14.63-52-5.24-16.46,8.74-27.38,28.79-25.62,47.55,1,10.41,6,20.29,5.78,30.83-.27,10.17-5.73,18.63-10.75,27.12-10.18,17.22-1.09,39.8,16,47.57,14.84,6.76,33.38,6,49.14,3.76,8.75-1.23,17.48-3,26.16-4.6,17.16-3.27,34.78-3.46,51.78.82,16.22,4.09,31.62,11.49,48.75,10.46,12.49-.75,23.26-8.23,29.7-19,9.76-16.29,22.65-14,39.24-14.64,19.32-.79,33.84-16,39.79-33.65C451.74,111,445.73,100.85,435.1,94.61Z"/><path class="cls-4" d="M155.32,93.61A72.32,72.32,0,0,1,174,87c4.08-1,17.85-1.67,20.44-4.64,5.78-6.64,1.1-14.65-.9-21.72-4.69-16.49,11-29.67,23.68-37.1,12.33-7.24,26.85-5.95,40.46-4.2,14.57,1.88,28.42,5.2,41.69,11.57,12.12,5.81,24.42,16.72,38.45,17.16,13.61.44,24-10,34.33-17.21C404.21,8.58,442.88,41,439.55,76.46c-1.73,18.38-13.85,37,1.78,53a28.59,28.59,0,0,1,1.93,2.19c5.21,6.65,6.06,11.07,5.65,19.95-1.07,23.15-21.77,33.42-42.18,36-17.53,2.18-31.62-10.85-47.44-15.75-15.24-4.72-31.67,2.67-46.18,7-29.17,8.73-69.72,28.58-90.09-5.41-9.76-16.29-22.64-14-39.23-14.64-19.32-.79-33.84-16-39.79-33.65C138.63,109.23,144.48,99.67,155.32,93.61Z"/><path class="cls-5" d="M277.75,57.63l3.51-.49a15.38,15.38,0,0,0,3.79,3.24l.06,3.53a.32.32,0,0,0,.2.27l4,1.31a.28.28,0,0,0,.32-.1l2.13-2.82a15.29,15.29,0,0,0,5-.4l2.55,2.46a.31.31,0,0,0,.33.05l3.78-1.93a.3.3,0,0,0,.16-.3L303.1,59a15.38,15.38,0,0,0,3.24-3.79l3.53-.07a.29.29,0,0,0,.27-.2l1.31-4a.28.28,0,0,0-.1-.32l-2.82-2.13a15.35,15.35,0,0,0-.4-5l2.46-2.54a.29.29,0,0,0,.05-.34l-1.93-3.77a.27.27,0,0,0-.3-.16l-3.5.49a15.38,15.38,0,0,0-3.79-3.24l-.07-3.53a.29.29,0,0,0-.2-.28l-4-1.31a.3.3,0,0,0-.32.11l-2.13,2.82a15.66,15.66,0,0,0-5,.39l-2.54-2.45a.29.29,0,0,0-.34-.05l-3.77,1.92a.3.3,0,0,0-.16.3l.49,3.5a15.62,15.62,0,0,0-3.24,3.8l-3.53.06a.32.32,0,0,0-.28.2l-1.31,4a.3.3,0,0,0,.11.32l2.82,2.13a15.57,15.57,0,0,0,.39,5l-2.45,2.55a.27.27,0,0,0-.05.33l1.92,3.78A.31.31,0,0,0,277.75,57.63Z"/><circle class="cls-6" cx="292.72" cy="47.03" r="9.63"/><path class="cls-7" d="M208,76.85a.52.52,0,0,0,.51.32l6.3-.38a27.49,27.49,0,0,0,6.29,6.31l-.38,6.29a.5.5,0,0,0,.32.51l7,2.9a.51.51,0,0,0,.59-.13L232.77,88a27.46,27.46,0,0,0,8.91,0l4.18,4.73a.52.52,0,0,0,.59.14l7-2.9a.51.51,0,0,0,.32-.51l-.38-6.3a27.29,27.29,0,0,0,6.31-6.29l6.29.39a.53.53,0,0,0,.51-.32l2.9-7a.51.51,0,0,0-.13-.59l-4.72-4.19a27.4,27.4,0,0,0,0-8.9L269.27,52a.53.53,0,0,0,.14-.59l-2.9-7a.53.53,0,0,0-.51-.32l-6.3.38a27.45,27.45,0,0,0-6.29-6.3l.39-6.3a.54.54,0,0,0-.32-.51l-7-2.9a.52.52,0,0,0-.59.13l-4.19,4.72a27.68,27.68,0,0,0-8.9,0l-4.18-4.73a.53.53,0,0,0-.59-.13l-7,2.89a.54.54,0,0,0-.32.51l.38,6.3a27.65,27.65,0,0,0-6.3,6.29l-6.3-.38a.51.51,0,0,0-.51.32l-2.9,7a.53.53,0,0,0,.13.59l4.72,4.18a27.74,27.74,0,0,0,0,8.91l-4.73,4.18a.52.52,0,0,0-.13.59Z"/><circle class="cls-6" cx="237.44" cy="61.6" r="17.94"/><path class="cls-8" d="M197.89,180.31a3.52,3.52,0,0,0,3.52,3.51H391.74a3.52,3.52,0,0,0,3.52-3.51l1.59-109.38a6.13,6.13,0,0,0-6.46-5.43l-186-4.81a8.87,8.87,0,0,0-9.1,9.07Z"/><path class="cls-6" d="M201.37,176.93a3.33,3.33,0,0,0,3.32,3.33H387.15a3.34,3.34,0,0,0,3.33-3.33L392,77.64c-.18-6-5.42-8.12-8.59-8L205.11,64.86a6.24,6.24,0,0,0-6.4,6.38Z"/><rect class="cls-9" x="187.79" y="183.29" width="215.4" height="9.61" rx="4.71" transform="translate(590.98 376.2) rotate(180)"/><rect class="cls-10" x="209.32" y="133.48" width="83.38" height="43.73" rx="16"/><rect class="cls-11" x="299.51" y="78.71" width="81.88" height="30.14" rx="14.78"/><rect class="cls-12" x="300.6" y="112.66" width="81.88" height="30.14" rx="14.78"/><rect class="cls-13" x="301.82" y="146.38" width="81.88" height="30.14" rx="14.78"/><path class="cls-14" d="M289.74,122.81H219.59a4.09,4.09,0,0,1-4.1-4.09l-1.7-40.28a4.81,4.81,0,0,1,5-5l71,2.15a4.09,4.09,0,0,1,4.1,4.1v39.05A4.09,4.09,0,0,1,289.74,122.81Z"/><path class="cls-15" d="M214.94,106.84s16.59,43.76,21.84,52.87c6.08,10.56,23.85,3.83,23-5s-21.65-45.4-21.65-45.4Z"/><polygon class="cls-16" points="237.36 74.97 340.49 39.21 339.4 135.97 234.54 112.58 237.36 74.97"/><ellipse class="cls-17" cx="340.59" cy="87.87" rx="10.13" ry="49.73"/><path class="cls-18" d="M341.35,134.2c-.91-.93-2.91-4.53-4.62-13.82a189.8,189.8,0,0,1-2.56-32.79,189.89,189.89,0,0,1,2.56-32.79c1.71-9.29,3.71-12.88,4.62-13.81.92.93,2.92,4.52,4.63,13.81a189.89,189.89,0,0,1,2.56,32.79A189.8,189.8,0,0,1,346,120.38C344.27,129.67,342.27,133.27,341.35,134.2Z"/><g class="cls-19"><path class="cls-20" d="M354.34,87.22c0,8.45-4.55,15.3-13.56,15.3s-16.31-6.85-16.31-15.3,7.3-15.3,16.31-15.3S354.34,78.77,354.34,87.22Z"/></g><path class="cls-21" d="M220.73,72.89a57.65,57.65,0,0,1,19.33,1c-2.48,13-2.11,26.44.76,40.41H219.6a6.87,6.87,0,0,1-6.79-5.8c-1.06-6.69-2.35-18-1-27A10.17,10.17,0,0,1,220.73,72.89Z"/><circle class="cls-22" cx="376.47" cy="95.63" r="13.56" transform="translate(190.78 436.79) rotate(-75.69)"/><rect class="cls-6" x="369.62" y="90.51" width="3.48" height="11.37" rx="0.63"/><path class="cls-6" d="M381,90.51h-2.28V87.79a1.29,1.29,0,0,0-1.34-1.46h-.06a1.54,1.54,0,0,0-1.59,1.53l-.76,2.7c-.35,0-.89.25-.89.6v10.38c0,.35.81.81,1.16.81H381a2.51,2.51,0,0,0,2.36-2.55V92.91A2.37,2.37,0,0,0,381,90.51Z"/><circle class="cls-23" cx="375.29" cy="132.75" r="11.79" transform="translate(153.35 463.22) rotate(-75.59)"/><path class="cls-6" d="M380.35,129.47c-1.28-1.26-3.28-.88-4.65.27a.53.53,0,0,1-.68,0c-1.4-1.13-3.39-1.48-4.65-.2a3.53,3.53,0,0,0,.05,5l4.64,4.57a.54.54,0,0,0,.76,0l4.57-4.64A3.52,3.52,0,0,0,380.35,129.47Z"/><circle class="cls-24" cx="366.6" cy="63.95" r="12.11" transform="translate(213.46 403.11) rotate(-75.59)"/><path class="cls-6" d="M370,60c0,1.87-1.52,3.89-3.39,3.89s-3.39-2-3.39-3.89A3.4,3.4,0,0,1,370,60Z"/><path class="cls-6" d="M362.41,71.1h8.28a2,2,0,0,0,1.91-1.39l.44-1.39a2,2,0,0,0-1.2-2.49,15.39,15.39,0,0,0-10.43.11,2,2,0,0,0-1.28,2.42l.35,1.27A2,2,0,0,0,362.41,71.1Z"/><circle class="cls-25" cx="351.95" cy="114.18" r="10.94"/><path class="cls-6" d="M352,121a6.86,6.86,0,1,1,6.86-6.86A6.87,6.87,0,0,1,352,121Zm0-12.57a5.71,5.71,0,1,0,5.71,5.71A5.71,5.71,0,0,0,352,108.47Z"/><path class="cls-26" d="M349.8,116.82v-4.93a.69.69,0,0,1,1-.59l4.16,2.47a.68.68,0,0,1,0,1.17l-4.16,2.46A.68.68,0,0,1,349.8,116.82Z"/><path class="cls-27" d="M259.85,199.75s-.45,2.39-.68,4.77a1.63,1.63,0,0,0,1.55,1.78c3.16.16,9.92.49,12.34.4a.53.53,0,0,0,.48-.72,1.18,1.18,0,0,0-.61-.65l-11.12-5.24Z"/><path class="cls-28" d="M259.51,198.34l.31,2.87s1.95.93,3.3-.08l-.78-3.21Z"/><path class="cls-29" d="M260.28,144.42c-.15.74-1.14,37.37,2.62,53.82a.55.55,0,0,1-.34.64,9.54,9.54,0,0,1-3.19.62,1,1,0,0,1-.95-.7c-1.08-3.82-6.26-23-6.79-41.18-.59-20.38,0-.7,0-.7l.58-12.58Z"/><path class="cls-30" d="M247,200.88a17,17,0,0,0-1.37,4.41,1,1,0,0,0,.86,1.21c1.05.11,2.65.26,3.94.26a1,1,0,0,0,1-1.1A8.33,8.33,0,0,0,249.5,201Z"/><path class="cls-31" d="M246.43,197.18l.75,4.35a2.81,2.81,0,0,0,2.34.18l-.33-4.67Z"/><path class="cls-32" d="M244.77,145.39c-3.38,19.3.24,47.77,1.5,53.35a.86.86,0,0,0,.7.67,5.82,5.82,0,0,0,2.5-.08.78.78,0,0,0,.58-.72c.22-4.5.17-32.13,3.26-43a2.47,2.47,0,0,1,1-1.36l5.83-4.06.5-6.65Z"/><path class="cls-33" d="M265.53,109a90.4,90.4,0,0,0-20.21,2.32c-3,16.67-.84,35.94-.84,35.94,7.41,2,15.82-1,15.82-1,1.3-7,7.25-26.54,7.25-26.54A31.68,31.68,0,0,0,279.32,116a20.67,20.67,0,0,1-4-8.55A32.48,32.48,0,0,1,265.53,109Z"/><path class="cls-34" d="M294,95.1a1.85,1.85,0,0,0-2.13-.62c-1.47,6-8.92,10.72-16.55,13a20.67,20.67,0,0,0,4,8.55C292,109.06,294,95.1,294,95.1Z"/><path class="cls-35" d="M293.78,95.39c.09.31-1,.78-1.71-.51,0-.61-.37-3.25,0-3.75a48.48,48.48,0,0,1,5.81-5.95.9.9,0,0,1,.1,1.25l-1.86,1.9a9.09,9.09,0,0,1,1.06,2.14,2.57,2.57,0,0,1-.28,1.89c-.33.58-.78,1.33-1.2,1.92A2.55,2.55,0,0,1,293.78,95.39Z"/><path class="cls-36" d="M295.31,89.57l-1.7,1.4-.54,1.41,1.48,1.68a19.18,19.18,0,0,1,.91-3.41C295.84,90,295.65,89.75,295.31,89.57Z"/><path class="cls-37" d="M248.91,120.62l-3.59-9.33s-9,6-10.57,13.72a21.21,21.21,0,0,1,7.77,2.16C243.22,123.53,248.91,120.62,248.91,120.62Z"/><path class="cls-38" d="M256.66,129.44s-10.12,5.59-13.47.7a3.84,3.84,0,0,1-.67-3,21.21,21.21,0,0,0-7.77-2.16,10.62,10.62,0,0,0,1.09,7.32c5.84,10.93,22.13-.39,22.13-.39Z"/><path class="cls-39" d="M255.88,101.41l-3.14,8.8a.31.31,0,0,0,.15.38,7.16,7.16,0,0,0,7.45-.43,1.54,1.54,0,0,0,.7-1.06l1.06-7.63Z"/><path class="cls-40" d="M262.6,93s3.3,6.34,2.84,8.89-4.61,2.32-8.21.22l-2.47-6.84Z"/><path class="cls-41" d="M257.42,98.73a.26.26,0,0,0,.12-.38,6.72,6.72,0,0,1-.92-2s-.6-.39,1.54-.88,5.34-1.26,6-3.07-1-6.24-3.78-2.71a.26.26,0,0,1-.41,0,2.69,2.69,0,0,0-3.26-1.09A2.45,2.45,0,0,0,255,91a.27.27,0,0,1-.31.27,3,3,0,0,0-3.52,1.6c-.73,1.56-.27,2.45.14,2.89a.26.26,0,0,1-.11.43,1.57,1.57,0,0,0-1.12,1.77c.08,1.65,1.92,1.53,2.45,1.46a.23.23,0,0,1,.23.08c.44.5,2.45,2.64,4.65,2.91a.25.25,0,0,0,.27-.34l-.92-2.77a.26.26,0,0,1,.14-.32Z"/><path class="cls-42" d="M257.8,99.13s-2.38-1.66-2.56-.29,2.13,2,3.28,1.52Z"/><path class="cls-43" d="M254.59,138.28,260.11,119a.53.53,0,0,1,.47-.4c1-.12,3.89-.45,7.23-.73a81.33,81.33,0,0,1,11.49-.38.56.56,0,0,1,.46.81c-1.58,3.21-8.12,16.28-11.39,20.56a.57.57,0,0,1-.45.23L255.13,139A.57.57,0,0,1,254.59,138.28Z"/><path class="cls-44" d="M255.92,133.63s-.76-3.16-.45-4.28.91-2.56,2.91-2.24a29.44,29.44,0,0,1,4.36,1.16,1.15,1.15,0,0,1-1.64,1l.94.73s-.13,1.17-1.42.54l.88,1a1,1,0,0,1-1.5.35C259.06,131.23,258.6,134,255.92,133.63Z"/><path class="cls-45" d="M267.45,123.64a1.62,1.62,0,1,0,1.61-1.61A1.61,1.61,0,0,0,267.45,123.64Z"/><path class="cls-6" d="M260.73,124.71l1.12-3.81a1.31,1.31,0,0,1,1-.91c3.52-.74,13.15-.89,13.24-.89v-.43c-.4,0-9.77.16-13.33.9a1.72,1.72,0,0,0-1.3,1.21l-1.12,3.81Z"/><path class="cls-6" d="M262.82,101.35a1.1,1.1,0,0,1-1.42-.68l2.38-.63A1.18,1.18,0,0,1,262.82,101.35Z"/><path d="M259,98.22a.43.43,0,0,0,.52.33.44.44,0,0,0,.33-.52.45.45,0,0,0-.52-.33A.43.43,0,0,0,259,98.22Z"/><path d="M262.35,97a.44.44,0,0,0,.53.33.44.44,0,0,0-.2-.85A.44.44,0,0,0,262.35,97Z"/><path d="M260,97a.17.17,0,0,1-.17,0,1,1,0,0,0-.69.06.83.83,0,0,0-.38.58.2.2,0,0,1-.23.14.19.19,0,0,1-.13-.23,1.18,1.18,0,0,1,.56-.81,1.32,1.32,0,0,1,1-.09.19.19,0,0,1,.12.23A.22.22,0,0,1,260,97Z"/><path d="M263.15,95.64a.18.18,0,0,1-.16,0,.91.91,0,0,0-.64,0,.78.78,0,0,0-.36.54.17.17,0,0,1-.21.13.16.16,0,0,1-.12-.21,1.1,1.1,0,0,1,.52-.76,1.22,1.22,0,0,1,.92-.08.17.17,0,0,1,.11.22A.16.16,0,0,1,263.15,95.64Z"/><path class="cls-6" d="M262.29,97.05a.17.17,0,1,0,.13-.21A.17.17,0,0,0,262.29,97.05Z"/><path class="cls-6" d="M259,98.36a.17.17,0,0,0,.2.13.17.17,0,0,0,.13-.21.17.17,0,0,0-.2-.13A.17.17,0,0,0,259,98.36Z"/><path d="M263.31,96.55a.09.09,0,0,1-.11,0,.71.71,0,0,0-.93.4.12.12,0,0,1-.21-.1,1,1,0,0,1,1.23-.51.12.12,0,0,1,.06.16Z"/><path d="M260,97.76a.13.13,0,0,1-.12,0,.69.69,0,0,0-.93.39.11.11,0,1,1-.2-.1,1,1,0,0,1,1.23-.51.14.14,0,0,1,.06.16S260,97.75,260,97.76Z"/><path class="cls-46" d="M261.44,96.92l1,1.41a.92.92,0,0,0,.26.32,1,1,0,0,1,.21.16A.35.35,0,0,1,263,99c0,.18-.25.32-.39.37a.48.48,0,0,1-.5-.09.1.1,0,1,0-.17.12.7.7,0,0,0,.6.21.93.93,0,0,0,.5-.26.48.48,0,0,0,0-.74,1.57,1.57,0,0,0-.26-.19l-.05,0c0-.1.05.08,0,0s0,0,0,0l-.58-.85-.52-.77c-.08-.12-.25,0-.17.13Z"/><rect class="cls-47" y="174.75" width="585" height="35.25"/></svg>